<?xml version="1.0" encoding="UTF-8" standalone="no"?>
<!DOCTYPE svg PUBLIC "-//W3C//DTD SVG 1.1//EN"
 "http://www.w3.org/Graphics/SVG/1.1/DTD/svg11.dtd">
<!-- Generated by graphviz version 7.0.5 (20221223.1930)
 -->
<!-- Title: /github/workspace/client/include/uranus/Core.hpp Pages: 1 -->
<svg width="1668pt" height="841pt"
 viewBox="0.00 0.00 1667.56 841.00" xmlns="http://www.w3.org/2000/svg" xmlns:xlink="http://www.w3.org/1999/xlink">
<g id="graph0" class="graph" transform="scale(1 1) rotate(0) translate(4 837)">
<title>/github/workspace/client/include/uranus/Core.hpp</title>
<!-- Node1 -->
<g id="node1" class="node">
<title>Node1</title>
<g id="a_node1"><a xlink:title="This file is used to include some core files of the engine.">
<polygon fill="#999999" stroke="#666666" points="812,-833 688,-833 688,-803 812,-803 812,-833"/>
<text text-anchor="start" x="696" y="-821" font-family="Helvetica,sans-Serif" font-size="10.00">/github/workspace/client</text>
<text text-anchor="middle" x="750" y="-810" font-family="Helvetica,sans-Serif" font-size="10.00">/include/uranus/Core.hpp</text>
</a>
</g>
</g>
<!-- Node2 -->
<g id="node2" class="node">
<title>Node2</title>
<g id="a_node2"><a xlink:href="_exceptions_8hpp_source.html" target="_top" xlink:title=" ">
<polygon fill="white" stroke="#666666" points="479.5,-767 328.5,-767 328.5,-737 479.5,-737 479.5,-767"/>
<text text-anchor="start" x="336.5" y="-755" font-family="Helvetica,sans-Serif" font-size="10.00">/github/workspace/client</text>
<text text-anchor="middle" x="404" y="-744" font-family="Helvetica,sans-Serif" font-size="10.00">/include/uranus/Exceptions.hpp</text>
</a>
</g>
</g>
<!-- Node1&#45;&gt;Node2 -->
<g id="edge1" class="edge">
<title>Node1&#45;&gt;Node2</title>
<path fill="none" stroke="#63b8ff" d="M676.49,-803.4C618.67,-792.71 538.39,-777.86 479.95,-767.05"/>
<polygon fill="#63b8ff" stroke="#63b8ff" points="675.78,-806.83 686.25,-805.21 677.06,-799.95 675.78,-806.83"/>
</g>
<!-- Node4 -->
<g id="node4" class="node">
<title>Node4</title>
<g id="a_node4"><a xlink:href="_registry_8hpp_source.html" target="_top" xlink:title=" ">
<polygon fill="white" stroke="#666666" points="829,-701 671,-701 671,-671 829,-671 829,-701"/>
<text text-anchor="start" x="679" y="-689" font-family="Helvetica,sans-Serif" font-size="10.00">/github/workspace/client</text>
<text text-anchor="middle" x="750" y="-678" font-family="Helvetica,sans-Serif" font-size="10.00">/include/uranus/ecs/Registry.hpp</text>
</a>
</g>
</g>
<!-- Node1&#45;&gt;Node4 -->
<g id="edge71" class="edge">
<title>Node1&#45;&gt;Node4</title>
<path fill="none" stroke="#63b8ff" d="M812.07,-797.62C825.9,-790.28 838.87,-780.34 847,-767 853.94,-755.62 853.94,-748.38 847,-737 836.89,-720.42 819.33,-709.1 801.9,-701.49"/>
<polygon fill="#63b8ff" stroke="#63b8ff" points="810.76,-794.37 803.26,-801.86 813.79,-800.67 810.76,-794.37"/>
</g>
<!-- Node25 -->
<g id="node25" class="node">
<title>Node25</title>
<g id="a_node25"><a xlink:href="ecs_2_components_8hpp_source.html" target="_top" xlink:title=" ">
<polygon fill="white" stroke="#666666" points="1420.5,-327 1243.5,-327 1243.5,-297 1420.5,-297 1420.5,-327"/>
<text text-anchor="start" x="1251.5" y="-315" font-family="Helvetica,sans-Serif" font-size="10.00">/github/workspace/client</text>
<text text-anchor="middle" x="1332" y="-304" font-family="Helvetica,sans-Serif" font-size="10.00">/include/uranus/ecs/Components.hpp</text>
</a>
</g>
</g>
<!-- Node1&#45;&gt;Node25 -->
<g id="edge67" class="edge">
<title>Node1&#45;&gt;Node25</title>
<path fill="none" stroke="#63b8ff" d="M823.92,-813.67C1033.75,-803.24 1618,-767.01 1618,-687 1618,-687 1618,-687 1618,-459.5 1618,-369.68 1504.88,-334.89 1420.92,-321.44"/>
<polygon fill="#63b8ff" stroke="#63b8ff" points="823.75,-810.17 813.94,-814.16 824.1,-817.16 823.75,-810.17"/>
</g>
<!-- Node40 -->
<g id="node40" class="node">
<title>Node40</title>
<g id="a_node40"><a xlink:href="_entity_8hpp_source.html" target="_top" xlink:title=" ">
<polygon fill="white" stroke="#666666" points="644,-767 498,-767 498,-737 644,-737 644,-767"/>
<text text-anchor="start" x="506" y="-755" font-family="Helvetica,sans-Serif" font-size="10.00">/github/workspace/client</text>
<text text-anchor="middle" x="571" y="-744" font-family="Helvetica,sans-Serif" font-size="10.00">/include/uranus/ecs/Entity.hpp</text>
</a>
</g>
</g>
<!-- Node1&#45;&gt;Node40 -->
<g id="edge68" class="edge">
<title>Node1&#45;&gt;Node40</title>
<path fill="none" stroke="#63b8ff" d="M699.11,-798.8C671.29,-788.86 637.32,-776.71 611.35,-767.43"/>
<polygon fill="#63b8ff" stroke="#63b8ff" points="697.81,-802.06 708.4,-802.13 700.17,-795.47 697.81,-802.06"/>
</g>
<!-- Node41 -->
<g id="node41" class="node">
<title>Node41</title>
<g id="a_node41"><a xlink:href="_sparse_array_8hpp_source.html" target="_top" xlink:title=" ">
<polygon fill="white" stroke="#666666" points="838,-767 662,-767 662,-737 838,-737 838,-767"/>
<text text-anchor="start" x="670" y="-755" font-family="Helvetica,sans-Serif" font-size="10.00">/github/workspace/client</text>
<text text-anchor="middle" x="750" y="-744" font-family="Helvetica,sans-Serif" font-size="10.00">/include/uranus/ecs/SparseArray.hpp</text>
</a>
</g>
</g>
<!-- Node1&#45;&gt;Node41 -->
<g id="edge72" class="edge">
<title>Node1&#45;&gt;Node41</title>
<path fill="none" stroke="#63b8ff" d="M750,-791.39C750,-783.13 750,-774.28 750,-767.16"/>
<polygon fill="#63b8ff" stroke="#63b8ff" points="746.5,-791.28 750,-801.28 753.5,-791.28 746.5,-791.28"/>
</g>
<!-- Node3 -->
<g id="node3" class="node">
<title>Node3</title>
<g id="a_node3"><a xlink:href="_uranus_8hpp.html" target="_top" xlink:title="Header file for the Uranus library.">
<polygon fill="white" stroke="#666666" points="360.5,-30 225.5,-30 225.5,0 360.5,0 360.5,-30"/>
<text text-anchor="start" x="233.5" y="-18" font-family="Helvetica,sans-Serif" font-size="10.00">/github/workspace/client</text>
<text text-anchor="middle" x="293" y="-7" font-family="Helvetica,sans-Serif" font-size="10.00">/include/uranus/Uranus.hpp</text>
</a>
</g>
</g>
<!-- Node2&#45;&gt;Node3 -->
<g id="edge2" class="edge">
<title>Node2&#45;&gt;Node3</title>
<path fill="none" stroke="#63b8ff" d="M316.77,-739.63C198,-721.67 0,-681.79 0,-615.5 0,-615.5 0,-615.5 0,-162.5 0,-116.72 1.08,-95.59 36,-66 43.27,-59.84 151.37,-40.28 225.03,-27.53"/>
<polygon fill="#63b8ff" stroke="#63b8ff" points="316.11,-743.07 326.51,-741.08 317.14,-736.15 316.11,-743.07"/>
</g>
<!-- Node2&#45;&gt;Node4 -->
<g id="edge3" class="edge">
<title>Node2&#45;&gt;Node4</title>
<path fill="none" stroke="#63b8ff" d="M491.18,-734.87C546.74,-724.6 618.13,-711.39 671.85,-701.46"/>
<polygon fill="#63b8ff" stroke="#63b8ff" points="490.62,-731.42 481.42,-736.68 491.89,-738.3 490.62,-731.42"/>
</g>
<!-- Node4&#45;&gt;Node3 -->
<g id="edge4" class="edge">
<title>Node4&#45;&gt;Node3</title>
<path fill="none" stroke="#63b8ff" d="M840.52,-681.83C1069.92,-671.36 1656,-628.29 1656,-461.5 1656,-461.5 1656,-461.5 1656,-162.5 1656,-118.79 1670.24,-94.39 1637,-66 1588.09,-24.23 627.42,-17.32 361,-16.21"/>
<polygon fill="#63b8ff" stroke="#63b8ff" points="840.56,-678.33 830.72,-682.27 840.87,-685.32 840.56,-678.33"/>
</g>
<!-- Node5 -->
<g id="node5" class="node">
<title>Node5</title>
<g id="a_node5"><a xlink:href="_view_8hpp_source.html" target="_top" xlink:title=" ">
<polygon fill="white" stroke="#666666" points="238,-327 94,-327 94,-297 238,-297 238,-327"/>
<text text-anchor="start" x="102" y="-315" font-family="Helvetica,sans-Serif" font-size="10.00">/github/workspace/client</text>
<text text-anchor="middle" x="166" y="-304" font-family="Helvetica,sans-Serif" font-size="10.00">/include/uranus/ecs/View.hpp</text>
</a>
</g>
</g>
<!-- Node4&#45;&gt;Node5 -->
<g id="edge5" class="edge">
<title>Node4&#45;&gt;Node5</title>
<path fill="none" stroke="#63b8ff" d="M659.6,-680.98C495.63,-671.19 166,-639.02 166,-538.5 166,-538.5 166,-538.5 166,-459.5 166,-410.92 166,-353.28 166,-327.14"/>
<polygon fill="#63b8ff" stroke="#63b8ff" points="658.93,-684.44 669.12,-681.53 659.34,-677.45 658.93,-684.44"/>
</g>
<!-- Node21 -->
<g id="node21" class="node">
<title>Node21</title>
<g id="a_node21"><a xlink:href="_dependencies_8hpp_source.html" target="_top" xlink:title=" ">
<polygon fill="white" stroke="#666666" points="1028,-635 906,-635 906,-594 1028,-594 1028,-635"/>
<text text-anchor="start" x="914" y="-623" font-family="Helvetica,sans-Serif" font-size="10.00">/github/workspace/client</text>
<text text-anchor="start" x="914" y="-612" font-family="Helvetica,sans-Serif" font-size="10.00">/include/uranus/engine</text>
<text text-anchor="middle" x="967" y="-601" font-family="Helvetica,sans-Serif" font-size="10.00">/Dependencies.hpp</text>
</a>
</g>
</g>
<!-- Node4&#45;&gt;Node21 -->
<g id="edge24" class="edge">
<title>Node4&#45;&gt;Node21</title>
<path fill="none" stroke="#63b8ff" d="M806.12,-667.03C836.66,-657.24 874.48,-645.13 905.78,-635.11"/>
<polygon fill="#63b8ff" stroke="#63b8ff" points="805.12,-663.67 796.67,-670.05 807.26,-670.34 805.12,-663.67"/>
</g>
<!-- Node5&#45;&gt;Node3 -->
<g id="edge6" class="edge">
<title>Node5&#45;&gt;Node3</title>
<path fill="none" stroke="#63b8ff" d="M141.58,-288.81C94.24,-243.15 -0.53,-137 57,-66 62.4,-59.34 157.45,-40.74 225.25,-28.2"/>
<polygon fill="#63b8ff" stroke="#63b8ff" points="139.06,-291.24 148.72,-295.57 143.87,-286.16 139.06,-291.24"/>
</g>
<!-- Node6 -->
<g id="node6" class="node">
<title>Node6</title>
<g id="a_node6"><a xlink:href="_systems_8hpp_source.html" target="_top" xlink:title=" ">
<polygon fill="white" stroke="#666666" points="839,-261 717,-261 717,-220 839,-220 839,-261"/>
<text text-anchor="start" x="725" y="-249" font-family="Helvetica,sans-Serif" font-size="10.00">/github/workspace/client</text>
<text text-anchor="start" x="725" y="-238" font-family="Helvetica,sans-Serif" font-size="10.00">/include/uranus/engine</text>
<text text-anchor="middle" x="778" y="-227" font-family="Helvetica,sans-Serif" font-size="10.00">/Systems.hpp</text>
</a>
</g>
</g>
<!-- Node5&#45;&gt;Node6 -->
<g id="edge7" class="edge">
<title>Node5&#45;&gt;Node6</title>
<path fill="none" stroke="#63b8ff" d="M249.68,-301.5C374.54,-287.32 606.69,-260.95 716.89,-248.44"/>
<polygon fill="#63b8ff" stroke="#63b8ff" points="249.35,-298.01 239.81,-302.62 250.14,-304.97 249.35,-298.01"/>
</g>
<!-- Node7 -->
<g id="node7" class="node">
<title>Node7</title>
<g id="a_node7"><a xlink:href="_engine_8hpp_source.html" target="_top" xlink:title=" ">
<polygon fill="white" stroke="#666666" points="712,-184 590,-184 590,-143 712,-143 712,-184"/>
<text text-anchor="start" x="598" y="-172" font-family="Helvetica,sans-Serif" font-size="10.00">/github/workspace/client</text>
<text text-anchor="start" x="598" y="-161" font-family="Helvetica,sans-Serif" font-size="10.00">/include/uranus/engine</text>
<text text-anchor="middle" x="651" y="-150" font-family="Helvetica,sans-Serif" font-size="10.00">/Engine.hpp</text>
</a>
</g>
</g>
<!-- Node6&#45;&gt;Node7 -->
<g id="edge8" class="edge">
<title>Node6&#45;&gt;Node7</title>
<path fill="none" stroke="#63b8ff" d="M734.49,-213.8C718.26,-204.22 700.09,-193.49 684.86,-184.49"/>
<polygon fill="#63b8ff" stroke="#63b8ff" points="732.61,-216.76 743,-218.83 736.17,-210.73 732.61,-216.76"/>
</g>
<!-- Node7&#45;&gt;Node3 -->
<g id="edge21" class="edge">
<title>Node7&#45;&gt;Node3</title>
<path fill="none" stroke="#63b8ff" d="M578.58,-157.96C465.42,-150.12 257.24,-132.41 235,-107 223,-93.29 227.41,-82.57 235,-66 241.81,-51.13 255.47,-39.01 267.82,-30.43"/>
<polygon fill="#63b8ff" stroke="#63b8ff" points="578.16,-161.44 588.38,-158.63 578.64,-154.46 578.16,-161.44"/>
</g>
<!-- Node8 -->
<g id="node8" class="node">
<title>Node8</title>
<g id="a_node8"><a xlink:href="_bullet_8hpp_source.html" target="_top" xlink:title=" ">
<polygon fill="white" stroke="#666666" points="1628,-101.5 1506,-101.5 1506,-71.5 1628,-71.5 1628,-101.5"/>
<text text-anchor="start" x="1514" y="-89.5" font-family="Helvetica,sans-Serif" font-size="10.00">/github/workspace/client</text>
<text text-anchor="middle" x="1567" y="-78.5" font-family="Helvetica,sans-Serif" font-size="10.00">/include/Bullet.hpp</text>
</a>
</g>
</g>
<!-- Node7&#45;&gt;Node8 -->
<g id="edge9" class="edge">
<title>Node7&#45;&gt;Node8</title>
<path fill="none" stroke="#63b8ff" d="M723.36,-162.75C870.28,-162.17 1213.63,-155.23 1497,-107 1504.59,-105.71 1512.53,-103.93 1520.23,-101.96"/>
<polygon fill="#63b8ff" stroke="#63b8ff" points="723.79,-159.25 713.8,-162.78 723.81,-166.25 723.79,-159.25"/>
</g>
<!-- Node10 -->
<g id="node10" class="node">
<title>Node10</title>
<g id="a_node10"><a xlink:href="_enemy_8hpp_source.html" target="_top" xlink:title=" ">
<polygon fill="white" stroke="#666666" points="188,-101.5 66,-101.5 66,-71.5 188,-71.5 188,-101.5"/>
<text text-anchor="start" x="74" y="-89.5" font-family="Helvetica,sans-Serif" font-size="10.00">/github/workspace/client</text>
<text text-anchor="middle" x="127" y="-78.5" font-family="Helvetica,sans-Serif" font-size="10.00">/include/Enemy.hpp</text>
</a>
</g>
</g>
<!-- Node7&#45;&gt;Node10 -->
<g id="edge11" class="edge">
<title>Node7&#45;&gt;Node10</title>
<path fill="none" stroke="#63b8ff" d="M578.26,-156.47C489.08,-148.4 333.56,-132.12 202,-107 194.47,-105.56 186.57,-103.8 178.85,-101.92"/>
<polygon fill="#63b8ff" stroke="#63b8ff" points="577.82,-159.95 588.09,-157.35 578.44,-152.97 577.82,-159.95"/>
</g>
<!-- Node12 -->
<g id="node12" class="node">
<title>Node12</title>
<g id="a_node12"><a xlink:href="_explosion_8hpp_source.html" target="_top" xlink:title=" ">
<polygon fill="white" stroke="#666666" points="506,-101.5 384,-101.5 384,-71.5 506,-71.5 506,-101.5"/>
<text text-anchor="start" x="392" y="-89.5" font-family="Helvetica,sans-Serif" font-size="10.00">/github/workspace/client</text>
<text text-anchor="middle" x="445" y="-78.5" font-family="Helvetica,sans-Serif" font-size="10.00">/include/Explosion.hpp</text>
</a>
</g>
</g>
<!-- Node7&#45;&gt;Node12 -->
<g id="edge13" class="edge">
<title>Node7&#45;&gt;Node12</title>
<path fill="none" stroke="#63b8ff" d="M585.78,-138.75C552.53,-126.65 513.19,-112.33 484.56,-101.9"/>
<polygon fill="#63b8ff" stroke="#63b8ff" points="584.32,-141.95 594.91,-142.08 586.72,-135.37 584.32,-141.95"/>
</g>
<!-- Node13 -->
<g id="node13" class="node">
<title>Node13</title>
<g id="a_node13"><a xlink:href="client_2include_2_player_8hpp_source.html" target="_top" xlink:title=" ">
<polygon fill="white" stroke="#666666" points="646,-101.5 524,-101.5 524,-71.5 646,-71.5 646,-101.5"/>
<text text-anchor="start" x="532" y="-89.5" font-family="Helvetica,sans-Serif" font-size="10.00">/github/workspace/client</text>
<text text-anchor="middle" x="585" y="-78.5" font-family="Helvetica,sans-Serif" font-size="10.00">/include/Player.hpp</text>
</a>
</g>
</g>
<!-- Node7&#45;&gt;Node13 -->
<g id="edge14" class="edge">
<title>Node7&#45;&gt;Node13</title>
<path fill="none" stroke="#63b8ff" d="M626.15,-134.26C616.43,-123.21 605.7,-111.02 597.64,-101.86"/>
<polygon fill="#63b8ff" stroke="#63b8ff" points="623.43,-136.46 632.66,-141.66 628.68,-131.84 623.43,-136.46"/>
</g>
<!-- Node14 -->
<g id="node14" class="node">
<title>Node14</title>
<g id="a_node14"><a xlink:href="_bonus_8hpp_source.html" target="_top" xlink:title=" ">
<polygon fill="white" stroke="#666666" points="1488,-101.5 1360,-101.5 1360,-71.5 1488,-71.5 1488,-101.5"/>
<text text-anchor="start" x="1368" y="-89.5" font-family="Helvetica,sans-Serif" font-size="10.00">/github/workspace/client</text>
<text text-anchor="middle" x="1424" y="-78.5" font-family="Helvetica,sans-Serif" font-size="10.00">/include/bonus/Bonus.hpp</text>
</a>
</g>
</g>
<!-- Node7&#45;&gt;Node14 -->
<g id="edge15" class="edge">
<title>Node7&#45;&gt;Node14</title>
<path fill="none" stroke="#63b8ff" d="M723.75,-158.56C845.87,-151.45 1099.7,-134.62 1313,-107 1328.14,-105.04 1344.35,-102.46 1359.59,-99.83"/>
<polygon fill="#63b8ff" stroke="#63b8ff" points="723.64,-155.06 713.86,-159.13 724.04,-162.04 723.64,-155.06"/>
</g>
<!-- Node16 -->
<g id="node16" class="node">
<title>Node16</title>
<g id="a_node16"><a xlink:href="_scene_game_8hpp_source.html" target="_top" xlink:title=" ">
<polygon fill="white" stroke="#666666" points="819.5,-101.5 664.5,-101.5 664.5,-71.5 819.5,-71.5 819.5,-101.5"/>
<text text-anchor="start" x="672.5" y="-89.5" font-family="Helvetica,sans-Serif" font-size="10.00">/github/workspace/client</text>
<text text-anchor="middle" x="742" y="-78.5" font-family="Helvetica,sans-Serif" font-size="10.00">/include/scene/SceneGame.hpp</text>
</a>
</g>
</g>
<!-- Node7&#45;&gt;Node16 -->
<g id="edge17" class="edge">
<title>Node7&#45;&gt;Node16</title>
<path fill="none" stroke="#63b8ff" d="M683.68,-135.57C697.49,-124.18 713.02,-111.39 724.58,-101.86"/>
<polygon fill="#63b8ff" stroke="#63b8ff" points="681.57,-132.77 676.08,-141.83 686.02,-138.17 681.57,-132.77"/>
</g>
<!-- Node17 -->
<g id="node17" class="node">
<title>Node17</title>
<g id="a_node17"><a xlink:href="_scene_main_8hpp_source.html" target="_top" xlink:title=" ">
<polygon fill="white" stroke="#666666" points="986.5,-101.5 837.5,-101.5 837.5,-71.5 986.5,-71.5 986.5,-101.5"/>
<text text-anchor="start" x="845.5" y="-89.5" font-family="Helvetica,sans-Serif" font-size="10.00">/github/workspace/client</text>
<text text-anchor="middle" x="912" y="-78.5" font-family="Helvetica,sans-Serif" font-size="10.00">/include/scene/SceneMain.hpp</text>
</a>
</g>
</g>
<!-- Node7&#45;&gt;Node17 -->
<g id="edge18" class="edge">
<title>Node7&#45;&gt;Node17</title>
<path fill="none" stroke="#63b8ff" d="M723.13,-141.77C767.17,-129.12 822.37,-113.26 861.7,-101.95"/>
<polygon fill="#63b8ff" stroke="#63b8ff" points="722.29,-138.37 713.65,-144.5 724.23,-145.1 722.29,-138.37"/>
</g>
<!-- Node18 -->
<g id="node18" class="node">
<title>Node18</title>
<g id="a_node18"><a xlink:href="_scene_stage1_8hpp_source.html" target="_top" xlink:title=" ">
<polygon fill="white" stroke="#666666" points="1163.5,-101.5 1004.5,-101.5 1004.5,-71.5 1163.5,-71.5 1163.5,-101.5"/>
<text text-anchor="start" x="1012.5" y="-89.5" font-family="Helvetica,sans-Serif" font-size="10.00">/github/workspace/client</text>
<text text-anchor="middle" x="1084" y="-78.5" font-family="Helvetica,sans-Serif" font-size="10.00">/include/scene/SceneStage1.hpp</text>
</a>
</g>
</g>
<!-- Node7&#45;&gt;Node18 -->
<g id="edge19" class="edge">
<title>Node7&#45;&gt;Node18</title>
<path fill="none" stroke="#63b8ff" d="M723.58,-152.09C793.54,-141.75 902.3,-124.9 996,-107 1004.15,-105.44 1012.69,-103.7 1021.12,-101.9"/>
<polygon fill="#63b8ff" stroke="#63b8ff" points="723.14,-148.61 713.76,-153.53 724.16,-155.54 723.14,-148.61"/>
</g>
<!-- Node19 -->
<g id="node19" class="node">
<title>Node19</title>
<g id="a_node19"><a xlink:href="_button_8hpp_source.html" target="_top" xlink:title=" ">
<polygon fill="white" stroke="#666666" points="1304,-101.5 1182,-101.5 1182,-71.5 1304,-71.5 1304,-101.5"/>
<text text-anchor="start" x="1190" y="-89.5" font-family="Helvetica,sans-Serif" font-size="10.00">/github/workspace/client</text>
<text text-anchor="middle" x="1243" y="-78.5" font-family="Helvetica,sans-Serif" font-size="10.00">/include/ui/Button.hpp</text>
</a>
</g>
</g>
<!-- Node7&#45;&gt;Node19 -->
<g id="edge20" class="edge">
<title>Node7&#45;&gt;Node19</title>
<path fill="none" stroke="#63b8ff" d="M723.48,-158.6C824.79,-152.29 1014.19,-137.35 1173,-107 1180.19,-105.63 1187.71,-103.87 1195.05,-101.99"/>
<polygon fill="#63b8ff" stroke="#63b8ff" points="723.44,-155.1 713.67,-159.2 723.87,-162.08 723.44,-155.1"/>
</g>
<!-- Node20 -->
<g id="node20" class="node">
<title>Node20</title>
<g id="a_node20"><a xlink:href="_map_8hpp_source.html" target="_top" xlink:title=" ">
<polygon fill="white" stroke="#666666" points="366,-107 244,-107 244,-66 366,-66 366,-107"/>
<text text-anchor="start" x="252" y="-95" font-family="Helvetica,sans-Serif" font-size="10.00">/github/workspace/client</text>
<text text-anchor="start" x="252" y="-84" font-family="Helvetica,sans-Serif" font-size="10.00">/include/uranus/engine</text>
<text text-anchor="middle" x="305" y="-73" font-family="Helvetica,sans-Serif" font-size="10.00">/map/Map.hpp</text>
</a>
</g>
</g>
<!-- Node7&#45;&gt;Node20 -->
<g id="edge22" class="edge">
<title>Node7&#45;&gt;Node20</title>
<path fill="none" stroke="#63b8ff" d="M578.4,-149.41C522.56,-138.97 443.59,-123.43 375,-107 372.18,-106.32 369.3,-105.61 366.39,-104.88"/>
<polygon fill="#63b8ff" stroke="#63b8ff" points="577.64,-152.82 588.12,-151.21 578.92,-145.94 577.64,-152.82"/>
</g>
<!-- Node9 -->
<g id="node9" class="node">
<title>Node9</title>
<g id="a_node9"><a xlink:href="_bullet_enemy_8hpp_source.html" target="_top" xlink:title=" ">
<polygon fill="white" stroke="#666666" points="1636.5,-30 1511.5,-30 1511.5,0 1636.5,0 1636.5,-30"/>
<text text-anchor="start" x="1519.5" y="-18" font-family="Helvetica,sans-Serif" font-size="10.00">/github/workspace/client</text>
<text text-anchor="middle" x="1574" y="-7" font-family="Helvetica,sans-Serif" font-size="10.00">/include/BulletEnemy.hpp</text>
</a>
</g>
</g>
<!-- Node8&#45;&gt;Node9 -->
<g id="edge10" class="edge">
<title>Node8&#45;&gt;Node9</title>
<path fill="none" stroke="#63b8ff" d="M1569.59,-59.76C1570.59,-49.83 1571.7,-38.86 1572.55,-30.38"/>
<polygon fill="#63b8ff" stroke="#63b8ff" points="1566.12,-59.29 1568.6,-69.59 1573.09,-59.99 1566.12,-59.29"/>
</g>
<!-- Node11 -->
<g id="node11" class="node">
<title>Node11</title>
<g id="a_node11"><a xlink:href="_enemy_shooter_8hpp_source.html" target="_top" xlink:title=" ">
<polygon fill="white" stroke="#666666" points="194,-30 60,-30 60,0 194,0 194,-30"/>
<text text-anchor="start" x="68" y="-18" font-family="Helvetica,sans-Serif" font-size="10.00">/github/workspace/client</text>
<text text-anchor="middle" x="127" y="-7" font-family="Helvetica,sans-Serif" font-size="10.00">/include/EnemyShooter.hpp</text>
</a>
</g>
</g>
<!-- Node10&#45;&gt;Node11 -->
<g id="edge12" class="edge">
<title>Node10&#45;&gt;Node11</title>
<path fill="none" stroke="#63b8ff" d="M127,-59.76C127,-49.83 127,-38.86 127,-30.38"/>
<polygon fill="#63b8ff" stroke="#63b8ff" points="123.5,-59.59 127,-69.59 130.5,-59.59 123.5,-59.59"/>
</g>
<!-- Node15 -->
<g id="node15" class="node">
<title>Node15</title>
<g id="a_node15"><a xlink:href="_double_bullet_8hpp_source.html" target="_top" xlink:title=" ">
<polygon fill="white" stroke="#666666" points="1493.5,-30 1338.5,-30 1338.5,0 1493.5,0 1493.5,-30"/>
<text text-anchor="start" x="1346.5" y="-18" font-family="Helvetica,sans-Serif" font-size="10.00">/github/workspace/client</text>
<text text-anchor="middle" x="1416" y="-7" font-family="Helvetica,sans-Serif" font-size="10.00">/include/bonus/DoubleBullet.hpp</text>
</a>
</g>
</g>
<!-- Node14&#45;&gt;Node15 -->
<g id="edge16" class="edge">
<title>Node14&#45;&gt;Node15</title>
<path fill="none" stroke="#63b8ff" d="M1421.04,-59.76C1419.89,-49.83 1418.63,-38.86 1417.66,-30.38"/>
<polygon fill="#63b8ff" stroke="#63b8ff" points="1417.55,-60.06 1422.17,-69.6 1424.5,-59.26 1417.55,-60.06"/>
</g>
<!-- Node20&#45;&gt;Node3 -->
<g id="edge23" class="edge">
<title>Node20&#45;&gt;Node3</title>
<path fill="none" stroke="#63b8ff" d="M299.68,-54.66C298.22,-46.24 296.71,-37.51 295.5,-30.47"/>
<polygon fill="#63b8ff" stroke="#63b8ff" points="296.19,-55.02 301.34,-64.28 303.08,-53.83 296.19,-55.02"/>
</g>
<!-- Node22 -->
<g id="node22" class="node">
<title>Node22</title>
<g id="a_node22"><a xlink:href="_base_8hpp_source.html" target="_top" xlink:title=" ">
<polygon fill="white" stroke="#666666" points="487,-558 365,-558 365,-517 487,-517 487,-558"/>
<text text-anchor="start" x="373" y="-546" font-family="Helvetica,sans-Serif" font-size="10.00">/github/workspace/client</text>
<text text-anchor="start" x="373" y="-535" font-family="Helvetica,sans-Serif" font-size="10.00">/include/uranus/engine</text>
<text text-anchor="middle" x="426" y="-524" font-family="Helvetica,sans-Serif" font-size="10.00">/components/Base.hpp</text>
</a>
</g>
</g>
<!-- Node21&#45;&gt;Node22 -->
<g id="edge25" class="edge">
<title>Node21&#45;&gt;Node22</title>
<path fill="none" stroke="#63b8ff" d="M894.31,-608.44C801.32,-601.16 635.59,-585.5 496,-558 493.15,-557.44 490.25,-556.82 487.33,-556.16"/>
<polygon fill="#63b8ff" stroke="#63b8ff" points="893.81,-611.91 904.05,-609.19 894.35,-604.93 893.81,-611.91"/>
</g>
<!-- Node26 -->
<g id="node26" class="node">
<title>Node26</title>
<g id="a_node26"><a xlink:href="_clock_8hpp_source.html" target="_top" xlink:title=" ">
<polygon fill="white" stroke="#666666" points="1590,-481 1468,-481 1468,-440 1590,-440 1590,-481"/>
<text text-anchor="start" x="1476" y="-469" font-family="Helvetica,sans-Serif" font-size="10.00">/github/workspace/client</text>
<text text-anchor="start" x="1476" y="-458" font-family="Helvetica,sans-Serif" font-size="10.00">/include/uranus/engine</text>
<text text-anchor="middle" x="1529" y="-447" font-family="Helvetica,sans-Serif" font-size="10.00">/components/Clock.hpp</text>
</a>
</g>
</g>
<!-- Node21&#45;&gt;Node26 -->
<g id="edge34" class="edge">
<title>Node21&#45;&gt;Node26</title>
<path fill="none" stroke="#63b8ff" d="M1039.8,-613.13C1161.38,-611.27 1399.29,-601.93 1469,-558 1497.21,-540.22 1514.32,-503.86 1522.69,-481.2"/>
<polygon fill="#63b8ff" stroke="#63b8ff" points="1039.87,-609.63 1029.92,-613.27 1039.97,-616.63 1039.87,-609.63"/>
</g>
<!-- Node28 -->
<g id="node28" class="node">
<title>Node28</title>
<g id="a_node28"><a xlink:href="_event_8hpp_source.html" target="_top" xlink:title=" ">
<polygon fill="white" stroke="#666666" points="1450,-481 1328,-481 1328,-440 1450,-440 1450,-481"/>
<text text-anchor="start" x="1336" y="-469" font-family="Helvetica,sans-Serif" font-size="10.00">/github/workspace/client</text>
<text text-anchor="start" x="1336" y="-458" font-family="Helvetica,sans-Serif" font-size="10.00">/include/uranus/engine</text>
<text text-anchor="middle" x="1389" y="-447" font-family="Helvetica,sans-Serif" font-size="10.00">/components/Event.hpp</text>
</a>
</g>
</g>
<!-- Node21&#45;&gt;Node28 -->
<g id="edge38" class="edge">
<title>Node21&#45;&gt;Node28</title>
<path fill="none" stroke="#63b8ff" d="M1039.74,-610.42C1168.38,-604.23 1425.06,-588.2 1452,-558 1464.13,-544.4 1459.5,-533.61 1452,-517 1445.52,-502.65 1433.29,-490.53 1421.32,-481.32"/>
<polygon fill="#63b8ff" stroke="#63b8ff" points="1039.79,-606.92 1029.97,-610.88 1040.12,-613.91 1039.79,-606.92"/>
</g>
<!-- Node29 -->
<g id="node29" class="node">
<title>Node29</title>
<g id="a_node29"><a xlink:href="_keyboard_8hpp_source.html" target="_top" xlink:title=" ">
<polygon fill="white" stroke="#666666" points="961,-558 827,-558 827,-517 961,-517 961,-558"/>
<text text-anchor="start" x="835" y="-546" font-family="Helvetica,sans-Serif" font-size="10.00">/github/workspace/client</text>
<text text-anchor="start" x="835" y="-535" font-family="Helvetica,sans-Serif" font-size="10.00">/include/uranus/engine</text>
<text text-anchor="middle" x="894" y="-524" font-family="Helvetica,sans-Serif" font-size="10.00">/components/Keyboard.hpp</text>
</a>
</g>
</g>
<!-- Node21&#45;&gt;Node29 -->
<g id="edge42" class="edge">
<title>Node21&#45;&gt;Node29</title>
<path fill="none" stroke="#63b8ff" d="M939.98,-585.74C931.12,-576.64 921.47,-566.72 913.31,-558.33"/>
<polygon fill="#63b8ff" stroke="#63b8ff" points="937.28,-587.99 946.76,-592.71 942.3,-583.1 937.28,-587.99"/>
</g>
<!-- Node30 -->
<g id="node30" class="node">
<title>Node30</title>
<g id="a_node30"><a xlink:href="_rect_8hpp_source.html" target="_top" xlink:title=" ">
<polygon fill="white" stroke="#666666" points="1101,-558 979,-558 979,-517 1101,-517 1101,-558"/>
<text text-anchor="start" x="987" y="-546" font-family="Helvetica,sans-Serif" font-size="10.00">/github/workspace/client</text>
<text text-anchor="start" x="987" y="-535" font-family="Helvetica,sans-Serif" font-size="10.00">/include/uranus/engine</text>
<text text-anchor="middle" x="1040" y="-524" font-family="Helvetica,sans-Serif" font-size="10.00">/components/Rect.hpp</text>
</a>
</g>
</g>
<!-- Node21&#45;&gt;Node30 -->
<g id="edge44" class="edge">
<title>Node21&#45;&gt;Node30</title>
<path fill="none" stroke="#63b8ff" d="M994.02,-585.74C1002.88,-576.64 1012.53,-566.72 1020.69,-558.33"/>
<polygon fill="#63b8ff" stroke="#63b8ff" points="991.7,-583.1 987.24,-592.71 996.72,-587.99 991.7,-583.1"/>
</g>
<!-- Node31 -->
<g id="node31" class="node">
<title>Node31</title>
<g id="a_node31"><a xlink:href="_rectangle_shape_8hpp_source.html" target="_top" xlink:title=" ">
<polygon fill="white" stroke="#666666" points="1284.5,-558 1119.5,-558 1119.5,-517 1284.5,-517 1284.5,-558"/>
<text text-anchor="start" x="1127.5" y="-546" font-family="Helvetica,sans-Serif" font-size="10.00">/github/workspace/client</text>
<text text-anchor="start" x="1127.5" y="-535" font-family="Helvetica,sans-Serif" font-size="10.00">/include/uranus/engine</text>
<text text-anchor="middle" x="1202" y="-524" font-family="Helvetica,sans-Serif" font-size="10.00">/components/RectangleShape.hpp</text>
</a>
</g>
</g>
<!-- Node21&#45;&gt;Node31 -->
<g id="edge46" class="edge">
<title>Node21&#45;&gt;Node31</title>
<path fill="none" stroke="#63b8ff" d="M1039.12,-590.48C1071.27,-580.22 1108.78,-568.25 1139.7,-558.38"/>
<polygon fill="#63b8ff" stroke="#63b8ff" points="1038.34,-587.06 1029.88,-593.43 1040.47,-593.73 1038.34,-587.06"/>
</g>
<!-- Node32 -->
<g id="node32" class="node">
<title>Node32</title>
<g id="a_node32"><a xlink:href="_render_window_8hpp_source.html" target="_top" xlink:title=" ">
<polygon fill="white" stroke="#666666" points="839.5,-481 680.5,-481 680.5,-440 839.5,-440 839.5,-481"/>
<text text-anchor="start" x="688.5" y="-469" font-family="Helvetica,sans-Serif" font-size="10.00">/github/workspace/client</text>
<text text-anchor="start" x="688.5" y="-458" font-family="Helvetica,sans-Serif" font-size="10.00">/include/uranus/engine</text>
<text text-anchor="middle" x="760" y="-447" font-family="Helvetica,sans-Serif" font-size="10.00">/components/RenderWindow.hpp</text>
</a>
</g>
</g>
<!-- Node21&#45;&gt;Node32 -->
<g id="edge48" class="edge">
<title>Node21&#45;&gt;Node32</title>
<path fill="none" stroke="#63b8ff" d="M894.43,-610.05C816.92,-604.66 701.47,-591.16 674,-558 662.38,-543.97 665.28,-533 674,-517 682.33,-501.71 696.89,-489.99 711.68,-481.35"/>
<polygon fill="#63b8ff" stroke="#63b8ff" points="893.86,-613.52 904.07,-610.68 894.32,-606.53 893.86,-613.52"/>
</g>
<!-- Node33 -->
<g id="node33" class="node">
<title>Node33</title>
<g id="a_node33"><a xlink:href="_scene_8hpp_source.html" target="_top" xlink:title=" ">
<polygon fill="white" stroke="#666666" points="627,-558 505,-558 505,-517 627,-517 627,-558"/>
<text text-anchor="start" x="513" y="-546" font-family="Helvetica,sans-Serif" font-size="10.00">/github/workspace/client</text>
<text text-anchor="start" x="513" y="-535" font-family="Helvetica,sans-Serif" font-size="10.00">/include/uranus/engine</text>
<text text-anchor="middle" x="566" y="-524" font-family="Helvetica,sans-Serif" font-size="10.00">/components/Scene.hpp</text>
</a>
</g>
</g>
<!-- Node21&#45;&gt;Node33 -->
<g id="edge51" class="edge">
<title>Node21&#45;&gt;Node33</title>
<path fill="none" stroke="#63b8ff" d="M894.57,-602.99C828.28,-592.94 727.62,-576.6 641,-558 636.53,-557.04 631.92,-555.99 627.29,-554.89"/>
<polygon fill="#63b8ff" stroke="#63b8ff" points="893.81,-606.42 904.22,-604.45 894.85,-599.49 893.81,-606.42"/>
</g>
<!-- Node35 -->
<g id="node35" class="node">
<title>Node35</title>
<g id="a_node35"><a xlink:href="_shape_8hpp_source.html" target="_top" xlink:title=" ">
<polygon fill="white" stroke="#666666" points="1310,-481 1188,-481 1188,-440 1310,-440 1310,-481"/>
<text text-anchor="start" x="1196" y="-469" font-family="Helvetica,sans-Serif" font-size="10.00">/github/workspace/client</text>
<text text-anchor="start" x="1196" y="-458" font-family="Helvetica,sans-Serif" font-size="10.00">/include/uranus/engine</text>
<text text-anchor="middle" x="1249" y="-447" font-family="Helvetica,sans-Serif" font-size="10.00">/components/Shape.hpp</text>
</a>
</g>
</g>
<!-- Node21&#45;&gt;Node35 -->
<g id="edge56" class="edge">
<title>Node21&#45;&gt;Node35</title>
<path fill="none" stroke="#63b8ff" d="M1039.8,-610.07C1164.55,-603.45 1408.3,-586.93 1434,-558 1446.1,-544.38 1444.88,-531.62 1434,-517 1432.05,-514.37 1363.56,-494.28 1310.48,-479.02"/>
<polygon fill="#63b8ff" stroke="#63b8ff" points="1039.79,-606.57 1029.99,-610.59 1040.16,-613.56 1039.79,-606.57"/>
</g>
<!-- Node36 -->
<g id="node36" class="node">
<title>Node36</title>
<g id="a_node36"><a xlink:href="_text_8hpp_source.html" target="_top" xlink:title=" ">
<polygon fill="white" stroke="#666666" points="1425,-558 1303,-558 1303,-517 1425,-517 1425,-558"/>
<text text-anchor="start" x="1311" y="-546" font-family="Helvetica,sans-Serif" font-size="10.00">/github/workspace/client</text>
<text text-anchor="start" x="1311" y="-535" font-family="Helvetica,sans-Serif" font-size="10.00">/include/uranus/engine</text>
<text text-anchor="middle" x="1364" y="-524" font-family="Helvetica,sans-Serif" font-size="10.00">/components/Text.hpp</text>
</a>
</g>
</g>
<!-- Node21&#45;&gt;Node36 -->
<g id="edge58" class="edge">
<title>Node21&#45;&gt;Node36</title>
<path fill="none" stroke="#63b8ff" d="M1039.43,-603.41C1105.97,-593.62 1207.14,-577.41 1294,-558 1296.83,-557.37 1299.72,-556.69 1302.63,-555.98"/>
<polygon fill="#63b8ff" stroke="#63b8ff" points="1039.13,-599.92 1029.74,-604.82 1040.14,-606.84 1039.13,-599.92"/>
</g>
<!-- Node37 -->
<g id="node37" class="node">
<title>Node37</title>
<g id="a_node37"><a xlink:href="_texture_8hpp_source.html" target="_top" xlink:title=" ">
<polygon fill="white" stroke="#666666" points="809,-558 683,-558 683,-517 809,-517 809,-558"/>
<text text-anchor="start" x="691" y="-546" font-family="Helvetica,sans-Serif" font-size="10.00">/github/workspace/client</text>
<text text-anchor="start" x="691" y="-535" font-family="Helvetica,sans-Serif" font-size="10.00">/include/uranus/engine</text>
<text text-anchor="middle" x="746" y="-524" font-family="Helvetica,sans-Serif" font-size="10.00">/components/Texture.hpp</text>
</a>
</g>
</g>
<!-- Node21&#45;&gt;Node37 -->
<g id="edge59" class="edge">
<title>Node21&#45;&gt;Node37</title>
<path fill="none" stroke="#63b8ff" d="M897.62,-589.95C867.84,-579.85 833.43,-568.17 804.92,-558.49"/>
<polygon fill="#63b8ff" stroke="#63b8ff" points="896.33,-593.21 906.92,-593.11 898.58,-586.58 896.33,-593.21"/>
</g>
<!-- Node23 -->
<g id="node23" class="node">
<title>Node23</title>
<g id="a_node23"><a xlink:href="_entity_manager_8hpp_source.html" target="_top" xlink:title=" ">
<polygon fill="white" stroke="#666666" points="334,-481 194,-481 194,-440 334,-440 334,-481"/>
<text text-anchor="start" x="202" y="-469" font-family="Helvetica,sans-Serif" font-size="10.00">/github/workspace/client</text>
<text text-anchor="start" x="202" y="-458" font-family="Helvetica,sans-Serif" font-size="10.00">/include/uranus/engine</text>
<text text-anchor="middle" x="264" y="-447" font-family="Helvetica,sans-Serif" font-size="10.00">/manager/EntityManager.hpp</text>
</a>
</g>
</g>
<!-- Node22&#45;&gt;Node23 -->
<g id="edge26" class="edge">
<title>Node22&#45;&gt;Node23</title>
<path fill="none" stroke="#63b8ff" d="M372.83,-511.88C351.55,-502.03 327.35,-490.83 307.19,-481.49"/>
<polygon fill="#63b8ff" stroke="#63b8ff" points="371.09,-514.94 381.64,-515.96 374.03,-508.58 371.09,-514.94"/>
</g>
<!-- Node23&#45;&gt;Node7 -->
<g id="edge27" class="edge">
<title>Node23&#45;&gt;Node7</title>
<path fill="none" stroke="#63b8ff" d="M298.17,-432.73C355.19,-388.16 473.52,-296.11 575,-220 590.95,-208.04 608.95,-194.88 623.44,-184.37"/>
<polygon fill="#63b8ff" stroke="#63b8ff" points="296.14,-429.87 290.42,-438.79 300.46,-435.39 296.14,-429.87"/>
</g>
<!-- Node24 -->
<g id="node24" class="node">
<title>Node24</title>
<g id="a_node24"><a xlink:href="_manager_8hpp_source.html" target="_top" xlink:title=" ">
<polygon fill="white" stroke="#666666" points="738,-404 616,-404 616,-363 738,-363 738,-404"/>
<text text-anchor="start" x="624" y="-392" font-family="Helvetica,sans-Serif" font-size="10.00">/github/workspace/client</text>
<text text-anchor="start" x="624" y="-381" font-family="Helvetica,sans-Serif" font-size="10.00">/include/uranus/engine</text>
<text text-anchor="middle" x="677" y="-370" font-family="Helvetica,sans-Serif" font-size="10.00">/manager/Manager.hpp</text>
</a>
</g>
</g>
<!-- Node23&#45;&gt;Node24 -->
<g id="edge28" class="edge">
<title>Node23&#45;&gt;Node24</title>
<path fill="none" stroke="#63b8ff" d="M345.4,-439.58C445.66,-419.23 551.04,-402.77 615.79,-393.22"/>
<polygon fill="#63b8ff" stroke="#63b8ff" points="344.72,-436.15 335.63,-441.58 346.13,-443 344.72,-436.15"/>
</g>
<!-- Node24&#45;&gt;Node6 -->
<g id="edge33" class="edge">
<title>Node24&#45;&gt;Node6</title>
<path fill="none" stroke="#63b8ff" d="M697.81,-353.45C717.53,-325.91 746.63,-285.29 763.82,-261.3"/>
<polygon fill="#63b8ff" stroke="#63b8ff" points="695.12,-351.2 692.14,-361.37 700.81,-355.28 695.12,-351.2"/>
</g>
<!-- Node24&#45;&gt;Node7 -->
<g id="edge32" class="edge">
<title>Node24&#45;&gt;Node7</title>
<path fill="none" stroke="#63b8ff" d="M673.31,-351.55C667.88,-306.06 657.91,-222.44 653.37,-184.34"/>
<polygon fill="#63b8ff" stroke="#63b8ff" points="669.81,-351.75 674.47,-361.27 676.76,-350.92 669.81,-351.75"/>
</g>
<!-- Node24&#45;&gt;Node25 -->
<g id="edge29" class="edge">
<title>Node24&#45;&gt;Node25</title>
<path fill="none" stroke="#63b8ff" d="M749.63,-374.79C870.44,-361.97 1112.3,-336.31 1243.1,-322.43"/>
<polygon fill="#63b8ff" stroke="#63b8ff" points="749.41,-371.3 739.83,-375.83 750.15,-378.26 749.41,-371.3"/>
</g>
<!-- Node25&#45;&gt;Node3 -->
<g id="edge30" class="edge">
<title>Node25&#45;&gt;Node3</title>
<path fill="none" stroke="#63b8ff" d="M1339.45,-285.72C1352.47,-235.7 1372.63,-123.96 1313,-66 1278.85,-32.81 583.42,-20.11 360.87,-16.89"/>
<polygon fill="#63b8ff" stroke="#63b8ff" points="1336.09,-284.74 1336.83,-295.31 1342.84,-286.59 1336.09,-284.74"/>
</g>
<!-- Node25&#45;&gt;Node6 -->
<g id="edge31" class="edge">
<title>Node25&#45;&gt;Node6</title>
<path fill="none" stroke="#63b8ff" d="M1232.12,-298.47C1117.88,-284.14 934.41,-261.12 839.42,-249.21"/>
<polygon fill="#63b8ff" stroke="#63b8ff" points="1231.44,-301.91 1241.8,-299.68 1232.31,-294.97 1231.44,-301.91"/>
</g>
<!-- Node26&#45;&gt;Node25 -->
<g id="edge35" class="edge">
<title>Node26&#45;&gt;Node25</title>
<path fill="none" stroke="#63b8ff" d="M1493.45,-433.06C1451.8,-402.09 1384.3,-351.89 1351.35,-327.39"/>
<polygon fill="#63b8ff" stroke="#63b8ff" points="1491.1,-435.68 1501.22,-438.84 1495.28,-430.06 1491.1,-435.68"/>
</g>
<!-- Node27 -->
<g id="node27" class="node">
<title>Node27</title>
<g id="a_node27"><a xlink:href="engine_2_components_8hpp_source.html" target="_top" xlink:title=" ">
<polygon fill="white" stroke="#666666" points="1145,-404 1023,-404 1023,-363 1145,-363 1145,-404"/>
<text text-anchor="start" x="1031" y="-392" font-family="Helvetica,sans-Serif" font-size="10.00">/github/workspace/client</text>
<text text-anchor="start" x="1031" y="-381" font-family="Helvetica,sans-Serif" font-size="10.00">/include/uranus/engine</text>
<text text-anchor="middle" x="1084" y="-370" font-family="Helvetica,sans-Serif" font-size="10.00">/Components.hpp</text>
</a>
</g>
</g>
<!-- Node26&#45;&gt;Node27 -->
<g id="edge36" class="edge">
<title>Node26&#45;&gt;Node27</title>
<path fill="none" stroke="#63b8ff" d="M1456.55,-439.61C1341.52,-415.71 1217.77,-399.63 1145.47,-391.21"/>
<polygon fill="#63b8ff" stroke="#63b8ff" points="1455.66,-443 1466.17,-441.63 1457.1,-436.15 1455.66,-443"/>
</g>
<!-- Node27&#45;&gt;Node7 -->
<g id="edge37" class="edge">
<title>Node27&#45;&gt;Node7</title>
<path fill="none" stroke="#63b8ff" d="M1011.55,-374.59C930.04,-362.44 797.39,-332.54 708,-261 694.71,-250.36 672.95,-209.17 660.52,-184.17"/>
<polygon fill="#63b8ff" stroke="#63b8ff" points="1010.81,-378.02 1021.2,-375.97 1011.8,-371.09 1010.81,-378.02"/>
</g>
<!-- Node28&#45;&gt;Node6 -->
<g id="edge41" class="edge">
<title>Node28&#45;&gt;Node6</title>
<path fill="none" stroke="#63b8ff" d="M1333.14,-435.14C1285.83,-414.85 1215.99,-385.7 1154,-363 1044.33,-322.83 914.23,-282.35 839.38,-259.74"/>
<polygon fill="#63b8ff" stroke="#63b8ff" points="1331.52,-438.25 1342.09,-438.99 1334.28,-431.82 1331.52,-438.25"/>
</g>
<!-- Node28&#45;&gt;Node25 -->
<g id="edge39" class="edge">
<title>Node28&#45;&gt;Node25</title>
<path fill="none" stroke="#63b8ff" d="M1377.15,-429.03C1364.99,-397.8 1346.62,-350.58 1337.52,-327.18"/>
<polygon fill="#63b8ff" stroke="#63b8ff" points="1373.88,-430.28 1380.76,-438.33 1380.4,-427.74 1373.88,-430.28"/>
</g>
<!-- Node28&#45;&gt;Node27 -->
<g id="edge40" class="edge">
<title>Node28&#45;&gt;Node27</title>
<path fill="none" stroke="#63b8ff" d="M1316.51,-439.4C1252.8,-423.14 1189.96,-408.47 1145.03,-398.21"/>
<polygon fill="#63b8ff" stroke="#63b8ff" points="1315.55,-442.77 1326.11,-441.86 1317.29,-435.99 1315.55,-442.77"/>
</g>
<!-- Node29&#45;&gt;Node27 -->
<g id="edge43" class="edge">
<title>Node29&#45;&gt;Node27</title>
<path fill="none" stroke="#63b8ff" d="M972.25,-514.05C1012.04,-501.97 1053.41,-488.13 1060,-481 1079.33,-460.08 1083.71,-426.04 1084.39,-404.48"/>
<polygon fill="#63b8ff" stroke="#63b8ff" points="971.39,-510.65 962.83,-516.88 973.41,-517.35 971.39,-510.65"/>
</g>
<!-- Node30&#45;&gt;Node27 -->
<g id="edge45" class="edge">
<title>Node30&#45;&gt;Node27</title>
<path fill="none" stroke="#63b8ff" d="M1077.59,-509.15C1085.85,-501.1 1093.48,-491.57 1098,-481 1108.71,-455.94 1100.41,-424.23 1092.78,-404.15"/>
<polygon fill="#63b8ff" stroke="#63b8ff" points="1075.42,-506.39 1070.33,-515.68 1080.1,-511.59 1075.42,-506.39"/>
</g>
<!-- Node31&#45;&gt;Node27 -->
<g id="edge47" class="edge">
<title>Node31&#45;&gt;Node27</title>
<path fill="none" stroke="#63b8ff" d="M1179.74,-507.82C1156.27,-477.59 1119.93,-430.78 1099.43,-404.38"/>
<polygon fill="#63b8ff" stroke="#63b8ff" points="1176.75,-509.68 1185.65,-515.43 1182.28,-505.39 1176.75,-509.68"/>
</g>
<!-- Node32&#45;&gt;Node24 -->
<g id="edge50" class="edge">
<title>Node32&#45;&gt;Node24</title>
<path fill="none" stroke="#63b8ff" d="M729.89,-432.29C719.66,-423.05 708.42,-412.89 698.95,-404.33"/>
<polygon fill="#63b8ff" stroke="#63b8ff" points="727.3,-434.67 737.07,-438.78 732,-429.48 727.3,-434.67"/>
</g>
<!-- Node32&#45;&gt;Node27 -->
<g id="edge49" class="edge">
<title>Node32&#45;&gt;Node27</title>
<path fill="none" stroke="#63b8ff" d="M850.81,-438.48C905.7,-425.77 974.19,-409.92 1022.71,-398.69"/>
<polygon fill="#63b8ff" stroke="#63b8ff" points="850.1,-435.05 841.15,-440.72 851.68,-441.87 850.1,-435.05"/>
</g>
<!-- Node33&#45;&gt;Node27 -->
<g id="edge52" class="edge">
<title>Node33&#45;&gt;Node27</title>
<path fill="none" stroke="#63b8ff" d="M638.51,-522.74C650.35,-520.69 662.5,-518.69 674,-517 743.7,-506.74 927.29,-514.99 989,-481 1009.49,-469.71 1005.9,-456.97 1022,-440 1033.83,-427.53 1048.06,-414.66 1059.9,-404.46"/>
<polygon fill="#63b8ff" stroke="#63b8ff" points="638.01,-519.27 628.77,-524.46 639.23,-526.17 638.01,-519.27"/>
</g>
<!-- Node34 -->
<g id="node34" class="node">
<title>Node34</title>
<g id="a_node34"><a xlink:href="_scene_manager_8hpp_source.html" target="_top" xlink:title=" ">
<polygon fill="white" stroke="#666666" points="495.5,-481 352.5,-481 352.5,-440 495.5,-440 495.5,-481"/>
<text text-anchor="start" x="360.5" y="-469" font-family="Helvetica,sans-Serif" font-size="10.00">/github/workspace/client</text>
<text text-anchor="start" x="360.5" y="-458" font-family="Helvetica,sans-Serif" font-size="10.00">/include/uranus/engine</text>
<text text-anchor="middle" x="424" y="-447" font-family="Helvetica,sans-Serif" font-size="10.00">/manager/SceneManager.hpp</text>
</a>
</g>
</g>
<!-- Node33&#45;&gt;Node34 -->
<g id="edge53" class="edge">
<title>Node33&#45;&gt;Node34</title>
<path fill="none" stroke="#63b8ff" d="M518.37,-511.35C499.97,-501.63 479.21,-490.66 461.86,-481.49"/>
<polygon fill="#63b8ff" stroke="#63b8ff" points="516.5,-514.32 526.98,-515.89 519.77,-508.13 516.5,-514.32"/>
</g>
<!-- Node34&#45;&gt;Node7 -->
<g id="edge54" class="edge">
<title>Node34&#45;&gt;Node7</title>
<path fill="none" stroke="#63b8ff" d="M446.09,-430.79C491.98,-371.15 596.64,-235.14 635.82,-184.23"/>
<polygon fill="#63b8ff" stroke="#63b8ff" points="443.49,-428.43 440.17,-438.49 449.04,-432.7 443.49,-428.43"/>
</g>
<!-- Node34&#45;&gt;Node24 -->
<g id="edge55" class="edge">
<title>Node34&#45;&gt;Node24</title>
<path fill="none" stroke="#63b8ff" d="M501.77,-436.45C538.36,-425.6 581.37,-412.85 615.62,-402.69"/>
<polygon fill="#63b8ff" stroke="#63b8ff" points="501.18,-432.97 492.59,-439.17 503.17,-439.68 501.18,-432.97"/>
</g>
<!-- Node35&#45;&gt;Node27 -->
<g id="edge57" class="edge">
<title>Node35&#45;&gt;Node27</title>
<path fill="none" stroke="#63b8ff" d="M1194.85,-434.88C1173.17,-425.03 1148.53,-413.83 1127.99,-404.49"/>
<polygon fill="#63b8ff" stroke="#63b8ff" points="1193.29,-438.02 1203.84,-438.97 1196.18,-431.65 1193.29,-438.02"/>
</g>
<!-- Node37&#45;&gt;Node27 -->
<g id="edge60" class="edge">
<title>Node37&#45;&gt;Node27</title>
<path fill="none" stroke="#63b8ff" d="M820.16,-516.77C910.77,-499.49 948.27,-530.07 1022,-481 1049.85,-462.47 1067.85,-426.7 1076.93,-404.3"/>
<polygon fill="#63b8ff" stroke="#63b8ff" points="819.7,-513.29 810.62,-518.75 821.12,-520.14 819.7,-513.29"/>
</g>
<!-- Node38 -->
<g id="node38" class="node">
<title>Node38</title>
<g id="a_node38"><a xlink:href="_sprite_8hpp_source.html" target="_top" xlink:title=" ">
<polygon fill="white" stroke="#666666" points="980,-481 858,-481 858,-440 980,-440 980,-481"/>
<text text-anchor="start" x="866" y="-469" font-family="Helvetica,sans-Serif" font-size="10.00">/github/workspace/client</text>
<text text-anchor="start" x="866" y="-458" font-family="Helvetica,sans-Serif" font-size="10.00">/include/uranus/engine</text>
<text text-anchor="middle" x="919" y="-447" font-family="Helvetica,sans-Serif" font-size="10.00">/components/Sprite.hpp</text>
</a>
</g>
</g>
<!-- Node37&#45;&gt;Node38 -->
<g id="edge61" class="edge">
<title>Node37&#45;&gt;Node38</title>
<path fill="none" stroke="#63b8ff" d="M802.47,-512.02C825.27,-502.13 851.25,-490.87 872.88,-481.49"/>
<polygon fill="#63b8ff" stroke="#63b8ff" points="801.08,-508.81 793.3,-516 803.86,-515.23 801.08,-508.81"/>
</g>
<!-- Node39 -->
<g id="node39" class="node">
<title>Node39</title>
<g id="a_node39"><a xlink:href="_texture_manager_8hpp_source.html" target="_top" xlink:title=" ">
<polygon fill="white" stroke="#666666" points="662,-481 514,-481 514,-440 662,-440 662,-481"/>
<text text-anchor="start" x="522" y="-469" font-family="Helvetica,sans-Serif" font-size="10.00">/github/workspace/client</text>
<text text-anchor="start" x="522" y="-458" font-family="Helvetica,sans-Serif" font-size="10.00">/include/uranus/engine</text>
<text text-anchor="middle" x="588" y="-447" font-family="Helvetica,sans-Serif" font-size="10.00">/manager/TextureManager.hpp</text>
</a>
</g>
</g>
<!-- Node37&#45;&gt;Node39 -->
<g id="edge64" class="edge">
<title>Node37&#45;&gt;Node39</title>
<path fill="none" stroke="#63b8ff" d="M693.86,-511.75C673.17,-501.93 649.7,-490.79 630.12,-481.49"/>
<polygon fill="#63b8ff" stroke="#63b8ff" points="692.17,-514.82 702.71,-515.95 695.17,-508.5 692.17,-514.82"/>
</g>
<!-- Node38&#45;&gt;Node25 -->
<g id="edge62" class="edge">
<title>Node38&#45;&gt;Node25</title>
<path fill="none" stroke="#63b8ff" d="M939.28,-430.5C956.5,-408.27 983.26,-378.79 1014,-363 1052.96,-342.98 1163.43,-328.73 1243.24,-320.69"/>
<polygon fill="#63b8ff" stroke="#63b8ff" points="936.62,-428.22 933.41,-438.32 942.22,-432.42 936.62,-428.22"/>
</g>
<!-- Node38&#45;&gt;Node27 -->
<g id="edge63" class="edge">
<title>Node38&#45;&gt;Node27</title>
<path fill="none" stroke="#63b8ff" d="M973.15,-434.88C994.83,-425.03 1019.47,-413.83 1040.01,-404.49"/>
<polygon fill="#63b8ff" stroke="#63b8ff" points="971.82,-431.65 964.16,-438.97 974.71,-438.02 971.82,-431.65"/>
</g>
<!-- Node39&#45;&gt;Node7 -->
<g id="edge65" class="edge">
<title>Node39&#45;&gt;Node7</title>
<path fill="none" stroke="#63b8ff" d="M593.95,-428.27C597.61,-409.36 602.45,-384.76 607,-363 620.7,-297.53 638.23,-220.22 646.41,-184.47"/>
<polygon fill="#63b8ff" stroke="#63b8ff" points="590.53,-427.54 592.08,-438.03 597.4,-428.87 590.53,-427.54"/>
</g>
<!-- Node39&#45;&gt;Node24 -->
<g id="edge66" class="edge">
<title>Node39&#45;&gt;Node24</title>
<path fill="none" stroke="#63b8ff" d="M619.95,-432.57C631.02,-423.25 643.2,-412.98 653.46,-404.33"/>
<polygon fill="#63b8ff" stroke="#63b8ff" points="617.93,-429.7 612.54,-438.82 622.44,-435.05 617.93,-429.7"/>
</g>
<!-- Node40&#45;&gt;Node4 -->
<g id="edge69" class="edge">
<title>Node40&#45;&gt;Node4</title>
<path fill="none" stroke="#63b8ff" d="M621.89,-732.8C649.71,-722.86 683.68,-710.71 709.65,-701.43"/>
<polygon fill="#63b8ff" stroke="#63b8ff" points="620.83,-729.47 612.6,-736.13 623.19,-736.06 620.83,-729.47"/>
</g>
<!-- Node40&#45;&gt;Node22 -->
<g id="edge70" class="edge">
<title>Node40&#45;&gt;Node22</title>
<path fill="none" stroke="#63b8ff" d="M554.8,-727.26C526,-685.05 466.4,-597.71 439.59,-558.42"/>
<polygon fill="#63b8ff" stroke="#63b8ff" points="551.88,-729.19 560.41,-735.48 557.66,-725.24 551.88,-729.19"/>
</g>
<!-- Node41&#45;&gt;Node4 -->
<g id="edge73" class="edge">
<title>Node41&#45;&gt;Node4</title>
<path fill="none" stroke="#63b8ff" d="M750,-725.39C750,-717.13 750,-708.28 750,-701.16"/>
<polygon fill="#63b8ff" stroke="#63b8ff" points="746.5,-725.28 750,-735.28 753.5,-725.28 746.5,-725.28"/>
</g>
</g>
</svg>
