<?xml version="1.0" encoding="UTF-8" standalone="no"?>
<!DOCTYPE svg PUBLIC "-//W3C//DTD SVG 1.1//EN"
 "http://www.w3.org/Graphics/SVG/1.1/DTD/svg11.dtd">
<!-- Generated by graphviz version 7.0.5 (20221223.1930)
 -->
<!-- Title: /github/workspace/client/include/uranus/Core.hpp Pages: 1 -->
<svg width="593pt" height="148pt"
 viewBox="0.00 0.00 592.50 148.00" xmlns="http://www.w3.org/2000/svg" xmlns:xlink="http://www.w3.org/1999/xlink">
<g id="graph0" class="graph" transform="scale(1 1) rotate(0) translate(4 144)">
<title>/github/workspace/client/include/uranus/Core.hpp</title>
<!-- Node1 -->
<g id="node1" class="node">
<title>Node1</title>
<g id="a_node1"><a xlink:title="This file is used to include some core files of the engine.">
<polygon fill="#999999" stroke="#666666" points="423,-140 299,-140 299,-110 423,-110 423,-140"/>
<text text-anchor="start" x="307" y="-128" font-family="Helvetica,sans-Serif" font-size="10.00">/github/workspace/client</text>
<text text-anchor="middle" x="361" y="-117" font-family="Helvetica,sans-Serif" font-size="10.00">/include/uranus/Core.hpp</text>
</a>
</g>
</g>
<!-- Node2 -->
<g id="node2" class="node">
<title>Node2</title>
<g id="a_node2"><a xlink:title=" ">
<polygon fill="#e0e0e0" stroke="#999999" points="156.5,-74 79.5,-74 79.5,-55 156.5,-55 156.5,-74"/>
<text text-anchor="middle" x="118" y="-62" font-family="Helvetica,sans-Serif" font-size="10.00">imgui&#45;SFML.h</text>
</a>
</g>
</g>
<!-- Node1&#45;&gt;Node2 -->
<g id="edge1" class="edge">
<title>Node1&#45;&gt;Node2</title>
<path fill="none" stroke="#63b8ff" d="M300.93,-109.54C259.36,-99.53 204.76,-86.39 166.07,-77.07"/>
<polygon fill="#63b8ff" stroke="#63b8ff" points="167.12,-73.72 156.57,-74.79 165.48,-80.53 167.12,-73.72"/>
</g>
<!-- Node3 -->
<g id="node3" class="node">
<title>Node3</title>
<g id="a_node3"><a xlink:href="imgui_8h_source.html" target="_top" xlink:title=" ">
<polygon fill="white" stroke="#666666" points="221.5,-74 174.5,-74 174.5,-55 221.5,-55 221.5,-74"/>
<text text-anchor="middle" x="198" y="-62" font-family="Helvetica,sans-Serif" font-size="10.00">imgui.h</text>
</a>
</g>
</g>
<!-- Node1&#45;&gt;Node3 -->
<g id="edge2" class="edge">
<title>Node1&#45;&gt;Node3</title>
<path fill="none" stroke="#63b8ff" d="M320.71,-109.54C293.61,-99.81 258.26,-87.13 232.46,-77.87"/>
<polygon fill="#63b8ff" stroke="#63b8ff" points="233.72,-74.6 223.12,-74.52 231.35,-81.19 233.72,-74.6"/>
</g>
<!-- Node10 -->
<g id="node10" class="node">
<title>Node10</title>
<g id="a_node10"><a xlink:title=" ">
<polygon fill="#e0e0e0" stroke="#999999" points="324,-74 240,-74 240,-55 324,-55 324,-74"/>
<text text-anchor="middle" x="282" y="-62" font-family="Helvetica,sans-Serif" font-size="10.00">spdlog/spdlog.h</text>
</a>
</g>
</g>
<!-- Node1&#45;&gt;Node10 -->
<g id="edge9" class="edge">
<title>Node1&#45;&gt;Node10</title>
<path fill="none" stroke="#63b8ff" d="M341.47,-109.54C329.76,-100.87 314.88,-89.85 302.93,-81"/>
<polygon fill="#63b8ff" stroke="#63b8ff" points="305.05,-78.21 294.93,-75.08 300.89,-83.84 305.05,-78.21"/>
</g>
<!-- Node11 -->
<g id="node11" class="node">
<title>Node11</title>
<g id="a_node11"><a xlink:title=" ">
<polygon fill="#e0e0e0" stroke="#999999" points="380,-74 342,-74 342,-55 380,-55 380,-74"/>
<text text-anchor="middle" x="361" y="-62" font-family="Helvetica,sans-Serif" font-size="10.00">array</text>
</a>
</g>
</g>
<!-- Node1&#45;&gt;Node11 -->
<g id="edge10" class="edge">
<title>Node1&#45;&gt;Node11</title>
<path fill="none" stroke="#63b8ff" d="M361,-109.54C361,-102.34 361,-93.53 361,-85.68"/>
<polygon fill="#63b8ff" stroke="#63b8ff" points="364.5,-85.69 361,-75.69 357.5,-85.69 364.5,-85.69"/>
</g>
<!-- Node12 -->
<g id="node12" class="node">
<title>Node12</title>
<g id="a_node12"><a xlink:title=" ">
<polygon fill="#e0e0e0" stroke="#999999" points="456,-74 398,-74 398,-55 456,-55 456,-74"/>
<text text-anchor="middle" x="427" y="-62" font-family="Helvetica,sans-Serif" font-size="10.00">exception</text>
</a>
</g>
</g>
<!-- Node1&#45;&gt;Node12 -->
<g id="edge11" class="edge">
<title>Node1&#45;&gt;Node12</title>
<path fill="none" stroke="#63b8ff" d="M377.31,-109.54C386.8,-101.13 398.79,-90.51 408.61,-81.8"/>
<polygon fill="#63b8ff" stroke="#63b8ff" points="410.92,-84.43 416.08,-75.18 406.27,-79.19 410.92,-84.43"/>
</g>
<!-- Node13 -->
<g id="node13" class="node">
<title>Node13</title>
<g id="a_node13"><a xlink:title=" ">
<polygon fill="#e0e0e0" stroke="#999999" points="525.5,-74 474.5,-74 474.5,-55 525.5,-55 525.5,-74"/>
<text text-anchor="middle" x="500" y="-62" font-family="Helvetica,sans-Serif" font-size="10.00">memory</text>
</a>
</g>
</g>
<!-- Node1&#45;&gt;Node13 -->
<g id="edge12" class="edge">
<title>Node1&#45;&gt;Node13</title>
<path fill="none" stroke="#63b8ff" d="M395.36,-109.54C417.78,-100.1 446.82,-87.88 468.62,-78.71"/>
<polygon fill="#63b8ff" stroke="#63b8ff" points="469.73,-82.04 477.59,-74.93 467.01,-75.59 469.73,-82.04"/>
</g>
<!-- Node14 -->
<g id="node14" class="node">
<title>Node14</title>
<g id="a_node14"><a xlink:title=" ">
<polygon fill="#e0e0e0" stroke="#999999" points="584.5,-74 543.5,-74 543.5,-55 584.5,-55 584.5,-74"/>
<text text-anchor="middle" x="564" y="-62" font-family="Helvetica,sans-Serif" font-size="10.00">string</text>
</a>
</g>
</g>
<!-- Node1&#45;&gt;Node14 -->
<g id="edge13" class="edge">
<title>Node1&#45;&gt;Node14</title>
<path fill="none" stroke="#63b8ff" d="M411.65,-109.52C443.8,-100.31 486.57,-88.03 532.1,-74.83"/>
<polygon fill="#63b8ff" stroke="#63b8ff" points="533.01,-78.21 541.64,-72.06 531.06,-71.49 533.01,-78.21"/>
</g>
<!-- Node4 -->
<g id="node4" class="node">
<title>Node4</title>
<g id="a_node4"><a xlink:href="imconfig_8h_source.html" target="_top" xlink:title=" ">
<polygon fill="white" stroke="#666666" points="60,-19 0,-19 0,0 60,0 60,-19"/>
<text text-anchor="middle" x="30" y="-7" font-family="Helvetica,sans-Serif" font-size="10.00">imconfig.h</text>
</a>
</g>
</g>
<!-- Node3&#45;&gt;Node4 -->
<g id="edge3" class="edge">
<title>Node3&#45;&gt;Node4</title>
<path fill="none" stroke="#63b8ff" d="M174.29,-56.02C147.02,-47.42 101.84,-33.16 69.3,-22.9"/>
<polygon fill="#63b8ff" stroke="#63b8ff" points="70.4,-19.57 59.81,-19.9 68.29,-26.25 70.4,-19.57"/>
</g>
<!-- Node5 -->
<g id="node5" class="node">
<title>Node5</title>
<g id="a_node5"><a xlink:title=" ">
<polygon fill="#e0e0e0" stroke="#999999" points="120,-19 78,-19 78,0 120,0 120,-19"/>
<text text-anchor="middle" x="99" y="-7" font-family="Helvetica,sans-Serif" font-size="10.00">float.h</text>
</a>
</g>
</g>
<!-- Node3&#45;&gt;Node5 -->
<g id="edge4" class="edge">
<title>Node3&#45;&gt;Node5</title>
<path fill="none" stroke="#63b8ff" d="M181.21,-54.51C165.9,-46.31 143.03,-34.07 125.3,-24.58"/>
<polygon fill="#63b8ff" stroke="#63b8ff" points="127.35,-21.71 116.88,-20.07 124.04,-27.88 127.35,-21.71"/>
</g>
<!-- Node6 -->
<g id="node6" class="node">
<title>Node6</title>
<g id="a_node6"><a xlink:title=" ">
<polygon fill="#e0e0e0" stroke="#999999" points="189.5,-19 138.5,-19 138.5,0 189.5,0 189.5,-19"/>
<text text-anchor="middle" x="164" y="-7" font-family="Helvetica,sans-Serif" font-size="10.00">stdarg.h</text>
</a>
</g>
</g>
<!-- Node3&#45;&gt;Node6 -->
<g id="edge5" class="edge">
<title>Node3&#45;&gt;Node6</title>
<path fill="none" stroke="#63b8ff" d="M192.39,-54.75C187.88,-47.73 181.41,-37.64 175.79,-28.87"/>
<polygon fill="#63b8ff" stroke="#63b8ff" points="178.9,-27.24 170.55,-20.72 173.01,-31.02 178.9,-27.24"/>
</g>
<!-- Node7 -->
<g id="node7" class="node">
<title>Node7</title>
<g id="a_node7"><a xlink:title=" ">
<polygon fill="#e0e0e0" stroke="#999999" points="258.5,-19 207.5,-19 207.5,0 258.5,0 258.5,-19"/>
<text text-anchor="middle" x="233" y="-7" font-family="Helvetica,sans-Serif" font-size="10.00">stddef.h</text>
</a>
</g>
</g>
<!-- Node3&#45;&gt;Node7 -->
<g id="edge6" class="edge">
<title>Node3&#45;&gt;Node7</title>
<path fill="none" stroke="#63b8ff" d="M203.78,-54.75C208.41,-47.73 215.07,-37.64 220.87,-28.87"/>
<polygon fill="#63b8ff" stroke="#63b8ff" points="223.67,-30.98 226.26,-20.71 217.83,-27.12 223.67,-30.98"/>
</g>
<!-- Node8 -->
<g id="node8" class="node">
<title>Node8</title>
<g id="a_node8"><a xlink:title=" ">
<polygon fill="#e0e0e0" stroke="#999999" points="325,-19 277,-19 277,0 325,0 325,-19"/>
<text text-anchor="middle" x="301" y="-7" font-family="Helvetica,sans-Serif" font-size="10.00">string.h</text>
</a>
</g>
</g>
<!-- Node3&#45;&gt;Node8 -->
<g id="edge7" class="edge">
<title>Node3&#45;&gt;Node8</title>
<path fill="none" stroke="#63b8ff" d="M215.47,-54.51C231.4,-46.31 255.19,-34.07 273.64,-24.58"/>
<polygon fill="#63b8ff" stroke="#63b8ff" points="275.15,-27.74 282.44,-20.05 271.95,-21.51 275.15,-27.74"/>
</g>
<!-- Node9 -->
<g id="node9" class="node">
<title>Node9</title>
<g id="a_node9"><a xlink:title=" ">
<polygon fill="#e0e0e0" stroke="#999999" points="394.5,-19 343.5,-19 343.5,0 394.5,0 394.5,-19"/>
<text text-anchor="middle" x="369" y="-7" font-family="Helvetica,sans-Serif" font-size="10.00">assert.h</text>
</a>
</g>
</g>
<!-- Node3&#45;&gt;Node9 -->
<g id="edge8" class="edge">
<title>Node3&#45;&gt;Node9</title>
<path fill="none" stroke="#63b8ff" d="M221.78,-56.13C250.47,-47.24 299.02,-32.19 332.47,-21.82"/>
<polygon fill="#63b8ff" stroke="#63b8ff" points="333.23,-25.25 341.75,-18.95 331.16,-18.56 333.23,-25.25"/>
</g>
</g>
</svg>
