<?xml version="1.0" encoding="UTF-8" standalone="no"?>
<!DOCTYPE svg PUBLIC "-//W3C//DTD SVG 1.1//EN"
 "http://www.w3.org/Graphics/SVG/1.1/DTD/svg11.dtd">
<!-- Generated by graphviz version 7.0.5 (20221223.1930)
 -->
<!-- Title: /github/workspace/common/include/Packets.hpp Pages: 1 -->
<svg width="1621pt" height="280pt"
 viewBox="0.00 0.00 1621.00 280.00" xmlns="http://www.w3.org/2000/svg" xmlns:xlink="http://www.w3.org/1999/xlink">
<g id="graph0" class="graph" transform="scale(1 1) rotate(0) translate(4 276)">
<title>/github/workspace/common/include/Packets.hpp</title>
<!-- Node1 -->
<g id="node1" class="node">
<title>Node1</title>
<g id="a_node1"><a xlink:title="All packets used in the project.">
<polygon fill="#999999" stroke="#666666" points="807,-272 670,-272 670,-242 807,-242 807,-272"/>
<text text-anchor="start" x="678" y="-260" font-family="Helvetica,sans-Serif" font-size="10.00">/github/workspace/common</text>
<text text-anchor="middle" x="738.5" y="-249" font-family="Helvetica,sans-Serif" font-size="10.00">/include/Packets.hpp</text>
</a>
</g>
</g>
<!-- Node2 -->
<g id="node2" class="node">
<title>Node2</title>
<g id="a_node2"><a xlink:href="_c2_s_player_handshake_8hpp_source.html" target="_top" xlink:title=" ">
<polygon fill="white" stroke="#666666" points="1613,-206 1480,-206 1480,-176 1613,-176 1613,-206"/>
<text text-anchor="start" x="1488" y="-194" font-family="Helvetica,sans-Serif" font-size="10.00">packets/tcp/client</text>
<text text-anchor="middle" x="1546.5" y="-183" font-family="Helvetica,sans-Serif" font-size="10.00">/C2SPlayerHandshake.hpp</text>
</a>
</g>
</g>
<!-- Node1&#45;&gt;Node2 -->
<g id="edge1" class="edge">
<title>Node1&#45;&gt;Node2</title>
<path fill="none" stroke="#63b8ff" d="M807.38,-253.91C935.52,-249.46 1219.37,-236.91 1468.74,-206.11"/>
<polygon fill="#63b8ff" stroke="#63b8ff" points="1468.85,-209.62 1478.34,-204.91 1467.98,-202.68 1468.85,-209.62"/>
</g>
<!-- Node4 -->
<g id="node4" class="node">
<title>Node4</title>
<g id="a_node4"><a xlink:href="_s2_c_player_authentified_8hpp_source.html" target="_top" xlink:title=" ">
<polygon fill="white" stroke="#666666" points="957.5,-140 823.5,-140 823.5,-110 957.5,-110 957.5,-140"/>
<text text-anchor="start" x="831.5" y="-128" font-family="Helvetica,sans-Serif" font-size="10.00">packets/tcp/server</text>
<text text-anchor="middle" x="890.5" y="-117" font-family="Helvetica,sans-Serif" font-size="10.00">/S2CPlayerAuthentified.hpp</text>
</a>
</g>
</g>
<!-- Node1&#45;&gt;Node4 -->
<g id="edge3" class="edge">
<title>Node1&#45;&gt;Node4</title>
<path fill="none" stroke="#63b8ff" d="M725.15,-241.8C710.85,-224.8 692.13,-196.13 707.5,-176 714.3,-167.09 765.59,-153.53 812.14,-142.77"/>
<polygon fill="#63b8ff" stroke="#63b8ff" points="812.77,-146.22 821.74,-140.58 811.21,-139.39 812.77,-146.22"/>
</g>
<!-- Node17 -->
<g id="node17" class="node">
<title>Node17</title>
<g id="a_node17"><a xlink:href="_s2_c_player_score_8hpp_source.html" target="_top" xlink:title=" ">
<polygon fill="white" stroke="#666666" points="109,-140 0,-140 0,-110 109,-110 109,-140"/>
<text text-anchor="start" x="8" y="-128" font-family="Helvetica,sans-Serif" font-size="10.00">packets/tcp/server</text>
<text text-anchor="middle" x="54.5" y="-117" font-family="Helvetica,sans-Serif" font-size="10.00">/S2CPlayerScore.hpp</text>
</a>
</g>
</g>
<!-- Node1&#45;&gt;Node17 -->
<g id="edge17" class="edge">
<title>Node1&#45;&gt;Node17</title>
<path fill="none" stroke="#63b8ff" d="M669.51,-253.39C543.16,-247.99 279.57,-233.73 192.5,-206 151.14,-192.83 108.69,-165.79 81.99,-146.81"/>
<polygon fill="#63b8ff" stroke="#63b8ff" points="84.28,-144.14 74.13,-141.11 80.17,-149.81 84.28,-144.14"/>
</g>
<!-- Node18 -->
<g id="node18" class="node">
<title>Node18</title>
<g id="a_node18"><a xlink:href="_c2_s_client_connected_8hpp_source.html" target="_top" xlink:title=" ">
<polygon fill="white" stroke="#666666" points="445.5,-140 317.5,-140 317.5,-110 445.5,-110 445.5,-140"/>
<text text-anchor="start" x="325.5" y="-128" font-family="Helvetica,sans-Serif" font-size="10.00">packets/udp/client</text>
<text text-anchor="middle" x="381.5" y="-117" font-family="Helvetica,sans-Serif" font-size="10.00">/C2SClientConnected.hpp</text>
</a>
</g>
</g>
<!-- Node1&#45;&gt;Node18 -->
<g id="edge20" class="edge">
<title>Node1&#45;&gt;Node18</title>
<path fill="none" stroke="#63b8ff" d="M669.73,-249.43C619.8,-242.88 551.46,-230.15 495.5,-206 461.7,-191.41 427.78,-165.88 405.84,-147.58"/>
<polygon fill="#63b8ff" stroke="#63b8ff" points="408.24,-145.03 398.36,-141.22 403.71,-150.36 408.24,-145.03"/>
</g>
<!-- Node19 -->
<g id="node19" class="node">
<title>Node19</title>
<g id="a_node19"><a xlink:href="_c2_s_player_prepare_shoot_8hpp_source.html" target="_top" xlink:title=" ">
<polygon fill="white" stroke="#666666" points="860,-206 717,-206 717,-176 860,-176 860,-206"/>
<text text-anchor="start" x="725" y="-194" font-family="Helvetica,sans-Serif" font-size="10.00">packets/udp/client</text>
<text text-anchor="middle" x="788.5" y="-183" font-family="Helvetica,sans-Serif" font-size="10.00">/C2SPlayerPrepareShoot.hpp</text>
</a>
</g>
</g>
<!-- Node1&#45;&gt;Node19 -->
<g id="edge23" class="edge">
<title>Node1&#45;&gt;Node19</title>
<path fill="none" stroke="#63b8ff" d="M749.6,-241.8C755.75,-233.92 763.54,-223.95 770.54,-214.99"/>
<polygon fill="#63b8ff" stroke="#63b8ff" points="773.1,-217.39 776.5,-207.36 767.59,-213.08 773.1,-217.39"/>
</g>
<!-- Node20 -->
<g id="node20" class="node">
<title>Node20</title>
<g id="a_node20"><a xlink:href="_c2_s_player_shoot_8hpp_source.html" target="_top" xlink:title=" ">
<polygon fill="white" stroke="#666666" points="987,-206 878,-206 878,-176 987,-176 987,-206"/>
<text text-anchor="start" x="886" y="-194" font-family="Helvetica,sans-Serif" font-size="10.00">packets/udp/client</text>
<text text-anchor="middle" x="932.5" y="-183" font-family="Helvetica,sans-Serif" font-size="10.00">/C2SPlayerShoot.hpp</text>
</a>
</g>
</g>
<!-- Node1&#45;&gt;Node20 -->
<g id="edge25" class="edge">
<title>Node1&#45;&gt;Node20</title>
<path fill="none" stroke="#63b8ff" d="M782.04,-241.64C810.39,-232.28 847.61,-220 877.94,-210"/>
<polygon fill="#63b8ff" stroke="#63b8ff" points="878.94,-213.36 887.34,-206.9 876.74,-206.71 878.94,-213.36"/>
</g>
<!-- Node21 -->
<g id="node21" class="node">
<title>Node21</title>
<g id="a_node21"><a xlink:href="_c2_s_kill_entity_8hpp_source.html" target="_top" xlink:title=" ">
<polygon fill="white" stroke="#666666" points="223.5,-140 127.5,-140 127.5,-110 223.5,-110 223.5,-140"/>
<text text-anchor="start" x="135.5" y="-128" font-family="Helvetica,sans-Serif" font-size="10.00">packets/udp/client</text>
<text text-anchor="middle" x="175.5" y="-117" font-family="Helvetica,sans-Serif" font-size="10.00">/C2SKillEntity.hpp</text>
</a>
</g>
</g>
<!-- Node1&#45;&gt;Node21 -->
<g id="edge27" class="edge">
<title>Node1&#45;&gt;Node21</title>
<path fill="none" stroke="#63b8ff" d="M669.61,-256.91C546.53,-257.32 294.95,-252.25 222.5,-206 202.82,-193.44 190.36,-169.46 183.25,-151.02"/>
<polygon fill="#63b8ff" stroke="#63b8ff" points="186.64,-150.09 180.01,-141.83 180.04,-152.43 186.64,-150.09"/>
</g>
<!-- Node22 -->
<g id="node22" class="node">
<title>Node22</title>
<g id="a_node22"><a xlink:href="_c2_s_kill_player_8hpp_source.html" target="_top" xlink:title=" ">
<polygon fill="white" stroke="#666666" points="329,-206 232,-206 232,-176 329,-176 329,-206"/>
<text text-anchor="start" x="240" y="-194" font-family="Helvetica,sans-Serif" font-size="10.00">packets/udp/client</text>
<text text-anchor="middle" x="280.5" y="-183" font-family="Helvetica,sans-Serif" font-size="10.00">/C2SKillPlayer.hpp</text>
</a>
</g>
</g>
<!-- Node1&#45;&gt;Node22 -->
<g id="edge30" class="edge">
<title>Node1&#45;&gt;Node22</title>
<path fill="none" stroke="#63b8ff" d="M669.93,-246.42C580.59,-233.93 425.76,-212.3 340.72,-200.42"/>
<polygon fill="#63b8ff" stroke="#63b8ff" points="341.34,-196.97 330.95,-199.05 340.37,-203.9 341.34,-196.97"/>
</g>
<!-- Node23 -->
<g id="node23" class="node">
<title>Node23</title>
<g id="a_node23"><a xlink:href="_c2_s_client_disconnecting_8hpp_source.html" target="_top" xlink:title=" ">
<polygon fill="white" stroke="#666666" points="607,-140 464,-140 464,-110 607,-110 607,-140"/>
<text text-anchor="start" x="472" y="-128" font-family="Helvetica,sans-Serif" font-size="10.00">packets/tcp/client</text>
<text text-anchor="middle" x="535.5" y="-117" font-family="Helvetica,sans-Serif" font-size="10.00">/C2SClientDisconnecting.hpp</text>
</a>
</g>
</g>
<!-- Node1&#45;&gt;Node23 -->
<g id="edge34" class="edge">
<title>Node1&#45;&gt;Node23</title>
<path fill="none" stroke="#63b8ff" d="M669.78,-250.65C608.66,-244.3 525.88,-231.22 505.5,-206 492.13,-189.45 503.16,-166.33 515.44,-149.2"/>
<polygon fill="#63b8ff" stroke="#63b8ff" points="517.99,-151.63 521.33,-141.58 512.45,-147.36 517.99,-151.63"/>
</g>
<!-- Node24 -->
<g id="node24" class="node">
<title>Node24</title>
<g id="a_node24"><a xlink:href="_s2_c_entity_move_8hpp_source.html" target="_top" xlink:title=" ">
<polygon fill="white" stroke="#666666" points="805.5,-140 701.5,-140 701.5,-110 805.5,-110 805.5,-140"/>
<text text-anchor="start" x="709.5" y="-128" font-family="Helvetica,sans-Serif" font-size="10.00">packets/udp/server</text>
<text text-anchor="middle" x="753.5" y="-117" font-family="Helvetica,sans-Serif" font-size="10.00">/S2CEntityMove.hpp</text>
</a>
</g>
</g>
<!-- Node1&#45;&gt;Node24 -->
<g id="edge37" class="edge">
<title>Node1&#45;&gt;Node24</title>
<path fill="none" stroke="#63b8ff" d="M709.78,-241.54C696.44,-233.14 681.92,-221.21 674.5,-206 668.65,-194.02 668.07,-187.68 674.5,-176 681.48,-163.32 693.18,-153.41 705.47,-145.87"/>
<polygon fill="#63b8ff" stroke="#63b8ff" points="707.03,-149.01 714.05,-141.07 703.61,-142.9 707.03,-149.01"/>
</g>
<!-- Node25 -->
<g id="node25" class="node">
<title>Node25</title>
<g id="a_node25"><a xlink:href="_s2_c_entity_spawn_8hpp_source.html" target="_top" xlink:title=" ">
<polygon fill="white" stroke="#666666" points="1199.5,-140 1089.5,-140 1089.5,-110 1199.5,-110 1199.5,-140"/>
<text text-anchor="start" x="1097.5" y="-128" font-family="Helvetica,sans-Serif" font-size="10.00">packets/udp/server</text>
<text text-anchor="middle" x="1144.5" y="-117" font-family="Helvetica,sans-Serif" font-size="10.00">/S2CEntitySpawn.hpp</text>
</a>
</g>
</g>
<!-- Node1&#45;&gt;Node25 -->
<g id="edge40" class="edge">
<title>Node1&#45;&gt;Node25</title>
<path fill="none" stroke="#63b8ff" d="M807.12,-256.1C905.26,-254.8 1078.88,-246.6 1124.5,-206 1139.62,-192.54 1144.14,-169.55 1145.15,-151.66"/>
<polygon fill="#63b8ff" stroke="#63b8ff" points="1148.65,-151.85 1145.36,-141.78 1141.65,-151.71 1148.65,-151.85"/>
</g>
<!-- Node26 -->
<g id="node26" class="node">
<title>Node26</title>
<g id="a_node26"><a xlink:href="_s2_c_player_move_8hpp_source.html" target="_top" xlink:title=" ">
<polygon fill="white" stroke="#666666" points="622,-206 515,-206 515,-176 622,-176 622,-206"/>
<text text-anchor="start" x="523" y="-194" font-family="Helvetica,sans-Serif" font-size="10.00">packets/udp/server</text>
<text text-anchor="middle" x="568.5" y="-183" font-family="Helvetica,sans-Serif" font-size="10.00">/S2CPlayerMove.hpp</text>
</a>
</g>
</g>
<!-- Node1&#45;&gt;Node26 -->
<g id="edge42" class="edge">
<title>Node1&#45;&gt;Node26</title>
<path fill="none" stroke="#63b8ff" d="M700.35,-241.64C675.83,-232.41 643.74,-220.33 617.36,-210.39"/>
<polygon fill="#63b8ff" stroke="#63b8ff" points="618.83,-207.21 608.23,-206.96 616.36,-213.76 618.83,-207.21"/>
</g>
<!-- Node27 -->
<g id="node27" class="node">
<title>Node27</title>
<g id="a_node27"><a xlink:href="_s2_c_remove_entity_8hpp_source.html" target="_top" xlink:title=" ">
<polygon fill="white" stroke="#666666" points="1372.5,-140 1256.5,-140 1256.5,-110 1372.5,-110 1372.5,-140"/>
<text text-anchor="start" x="1264.5" y="-128" font-family="Helvetica,sans-Serif" font-size="10.00">packets/udp/server</text>
<text text-anchor="middle" x="1314.5" y="-117" font-family="Helvetica,sans-Serif" font-size="10.00">/S2CRemoveEntity.hpp</text>
</a>
</g>
</g>
<!-- Node1&#45;&gt;Node27 -->
<g id="edge46" class="edge">
<title>Node1&#45;&gt;Node27</title>
<path fill="none" stroke="#63b8ff" d="M807.44,-254.21C948.14,-249.93 1258.21,-237.05 1294.5,-206 1309.88,-192.84 1314.37,-169.82 1315.31,-151.84"/>
<polygon fill="#63b8ff" stroke="#63b8ff" points="1318.81,-151.95 1315.46,-141.89 1311.81,-151.84 1318.81,-151.95"/>
</g>
<!-- Node28 -->
<g id="node28" class="node">
<title>Node28</title>
<g id="a_node28"><a xlink:href="_s2_c_remove_player_8hpp_source.html" target="_top" xlink:title=" ">
<polygon fill="white" stroke="#666666" points="1462,-206 1343,-206 1343,-176 1462,-176 1462,-206"/>
<text text-anchor="start" x="1351" y="-194" font-family="Helvetica,sans-Serif" font-size="10.00">packets/udp/server</text>
<text text-anchor="middle" x="1402.5" y="-183" font-family="Helvetica,sans-Serif" font-size="10.00">/S2CRemovePlayer.hpp</text>
</a>
</g>
</g>
<!-- Node1&#45;&gt;Node28 -->
<g id="edge48" class="edge">
<title>Node1&#45;&gt;Node28</title>
<path fill="none" stroke="#63b8ff" d="M807.34,-252.46C917.68,-246.27 1140.84,-231.63 1328.5,-206 1329.52,-205.86 1330.55,-205.72 1331.58,-205.57"/>
<polygon fill="#63b8ff" stroke="#63b8ff" points="1331.97,-209.05 1341.32,-204.07 1330.9,-202.13 1331.97,-209.05"/>
</g>
<!-- Node29 -->
<g id="node29" class="node">
<title>Node29</title>
<g id="a_node29"><a xlink:href="_s2_c_spawn_player_8hpp_source.html" target="_top" xlink:title=" ">
<polygon fill="white" stroke="#666666" points="1286,-206 1173,-206 1173,-176 1286,-176 1286,-206"/>
<text text-anchor="start" x="1181" y="-194" font-family="Helvetica,sans-Serif" font-size="10.00">packets/udp/server</text>
<text text-anchor="middle" x="1229.5" y="-183" font-family="Helvetica,sans-Serif" font-size="10.00">/S2CSpawnPlayer.hpp</text>
</a>
</g>
</g>
<!-- Node1&#45;&gt;Node29 -->
<g id="edge51" class="edge">
<title>Node1&#45;&gt;Node29</title>
<path fill="none" stroke="#63b8ff" d="M807.47,-249.42C890.87,-241.08 1035.38,-225.44 1158.5,-206 1159.5,-205.84 1160.52,-205.68 1161.53,-205.51"/>
<polygon fill="#63b8ff" stroke="#63b8ff" points="1161.85,-209.01 1171.11,-203.87 1160.66,-202.11 1161.85,-209.01"/>
</g>
<!-- Node30 -->
<g id="node30" class="node">
<title>Node30</title>
<g id="a_node30"><a xlink:href="_s2_c_spawn_bullet_8hpp_source.html" target="_top" xlink:title=" ">
<polygon fill="white" stroke="#666666" points="1116,-206 1005,-206 1005,-176 1116,-176 1116,-206"/>
<text text-anchor="start" x="1013" y="-194" font-family="Helvetica,sans-Serif" font-size="10.00">packets/udp/server</text>
<text text-anchor="middle" x="1060.5" y="-183" font-family="Helvetica,sans-Serif" font-size="10.00">/S2CSpawnBullet.hpp</text>
</a>
</g>
</g>
<!-- Node1&#45;&gt;Node30 -->
<g id="edge54" class="edge">
<title>Node1&#45;&gt;Node30</title>
<path fill="none" stroke="#63b8ff" d="M807.3,-243C856.46,-233.62 924.49,-220.47 993.73,-206.34"/>
<polygon fill="#63b8ff" stroke="#63b8ff" points="994.27,-209.8 1003.36,-204.37 992.86,-202.94 994.27,-209.8"/>
</g>
<!-- Node3 -->
<g id="node3" class="node">
<title>Node3</title>
<g id="a_node3"><a xlink:title=" ">
<polygon fill="#e0e0e0" stroke="#999999" points="994,-74 881,-74 881,-55 994,-55 994,-74"/>
<text text-anchor="middle" x="937.5" y="-62" font-family="Helvetica,sans-Serif" font-size="10.00">saturnity/Saturnity.hpp</text>
</a>
</g>
</g>
<!-- Node2&#45;&gt;Node3 -->
<g id="edge2" class="edge">
<title>Node2&#45;&gt;Node3</title>
<path fill="none" stroke="#63b8ff" d="M1527.49,-175.81C1501.32,-157.13 1452.02,-124.91 1404.5,-110 1331.98,-87.25 1116.97,-74.02 1005.79,-68.52"/>
<polygon fill="#63b8ff" stroke="#63b8ff" points="1006.06,-65.03 995.9,-68.04 1005.72,-72.02 1006.06,-65.03"/>
</g>
<!-- Node4&#45;&gt;Node3 -->
<g id="edge4" class="edge">
<title>Node4&#45;&gt;Node3</title>
<path fill="none" stroke="#63b8ff" d="M902.12,-109.54C908.6,-101.48 916.71,-91.38 923.53,-82.89"/>
<polygon fill="#63b8ff" stroke="#63b8ff" points="926.05,-85.34 929.58,-75.36 920.59,-80.96 926.05,-85.34"/>
</g>
<!-- Node5 -->
<g id="node5" class="node">
<title>Node5</title>
<g id="a_node5"><a xlink:href="uuidv4_8hpp_source.html" target="_top" xlink:title=" ">
<polygon fill="white" stroke="#666666" points="524,-74 393,-74 393,-55 524,-55 524,-74"/>
<text text-anchor="middle" x="458.5" y="-62" font-family="Helvetica,sans-Serif" font-size="10.00">external/uuidv4/uuidv4.hpp</text>
</a>
</g>
</g>
<!-- Node4&#45;&gt;Node5 -->
<g id="edge5" class="edge">
<title>Node4&#45;&gt;Node5</title>
<path fill="none" stroke="#63b8ff" d="M823.4,-111.42C820.39,-110.93 817.42,-110.45 814.5,-110 718.67,-95.2 607.75,-81.94 535.52,-73.83"/>
<polygon fill="#63b8ff" stroke="#63b8ff" points="536.1,-70.37 525.78,-72.74 535.33,-77.33 536.1,-70.37"/>
</g>
<!-- Node6 -->
<g id="node6" class="node">
<title>Node6</title>
<g id="a_node6"><a xlink:title=" ">
<polygon fill="#e0e0e0" stroke="#999999" points="158,-19 109,-19 109,0 158,0 158,-19"/>
<text text-anchor="middle" x="133.5" y="-7" font-family="Helvetica,sans-Serif" font-size="10.00">random</text>
</a>
</g>
</g>
<!-- Node5&#45;&gt;Node6 -->
<g id="edge6" class="edge">
<title>Node5&#45;&gt;Node6</title>
<path fill="none" stroke="#63b8ff" d="M392.64,-55.39C335.85,-47.97 251.44,-35.89 169.57,-19.47"/>
<polygon fill="#63b8ff" stroke="#63b8ff" points="170.28,-16.04 159.79,-17.48 168.89,-22.9 170.28,-16.04"/>
</g>
<!-- Node7 -->
<g id="node7" class="node">
<title>Node7</title>
<g id="a_node7"><a xlink:title=" ">
<polygon fill="#e0e0e0" stroke="#999999" points="217,-19 176,-19 176,0 217,0 217,-19"/>
<text text-anchor="middle" x="196.5" y="-7" font-family="Helvetica,sans-Serif" font-size="10.00">string</text>
</a>
</g>
</g>
<!-- Node5&#45;&gt;Node7 -->
<g id="edge7" class="edge">
<title>Node5&#45;&gt;Node7</title>
<path fill="none" stroke="#63b8ff" d="M404.77,-54.56C360.06,-46.8 294.52,-34.74 228.46,-19.29"/>
<polygon fill="#63b8ff" stroke="#63b8ff" points="229.43,-15.92 218.89,-17.03 227.82,-22.73 229.43,-15.92"/>
</g>
<!-- Node8 -->
<g id="node8" class="node">
<title>Node8</title>
<g id="a_node8"><a xlink:title=" ">
<polygon fill="#e0e0e0" stroke="#999999" points="275.5,-19 235.5,-19 235.5,0 275.5,0 275.5,-19"/>
<text text-anchor="middle" x="255.5" y="-7" font-family="Helvetica,sans-Serif" font-size="10.00">limits</text>
</a>
</g>
</g>
<!-- Node5&#45;&gt;Node8 -->
<g id="edge8" class="edge">
<title>Node5&#45;&gt;Node8</title>
<path fill="none" stroke="#63b8ff" d="M422.08,-54.58C389.08,-46.4 338.86,-33.76 286.58,-19.5"/>
<polygon fill="#63b8ff" stroke="#63b8ff" points="287.79,-16.2 277.22,-16.93 285.93,-22.95 287.79,-16.2"/>
</g>
<!-- Node9 -->
<g id="node9" class="node">
<title>Node9</title>
<g id="a_node9"><a xlink:title=" ">
<polygon fill="#e0e0e0" stroke="#999999" points="347.5,-19 293.5,-19 293.5,0 347.5,0 347.5,-19"/>
<text text-anchor="middle" x="320.5" y="-7" font-family="Helvetica,sans-Serif" font-size="10.00">iostream</text>
</a>
</g>
</g>
<!-- Node5&#45;&gt;Node9 -->
<g id="edge9" class="edge">
<title>Node5&#45;&gt;Node9</title>
<path fill="none" stroke="#63b8ff" d="M435.09,-54.51C412.85,-45.97 379.17,-33.03 354.08,-23.4"/>
<polygon fill="#63b8ff" stroke="#63b8ff" points="355.57,-20.22 344.98,-19.9 353.06,-26.75 355.57,-20.22"/>
</g>
<!-- Node10 -->
<g id="node10" class="node">
<title>Node10</title>
<g id="a_node10"><a xlink:title=" ">
<polygon fill="#e0e0e0" stroke="#999999" points="417.5,-19 365.5,-19 365.5,0 417.5,0 417.5,-19"/>
<text text-anchor="middle" x="391.5" y="-7" font-family="Helvetica,sans-Serif" font-size="10.00">sstream</text>
</a>
</g>
</g>
<!-- Node5&#45;&gt;Node10 -->
<g id="edge10" class="edge">
<title>Node5&#45;&gt;Node10</title>
<path fill="none" stroke="#63b8ff" d="M447.13,-54.51C437.45,-46.85 423.3,-35.66 411.69,-26.47"/>
<polygon fill="#63b8ff" stroke="#63b8ff" points="413.9,-23.76 403.88,-20.3 409.56,-29.25 413.9,-23.76"/>
</g>
<!-- Node11 -->
<g id="node11" class="node">
<title>Node11</title>
<g id="a_node11"><a xlink:title=" ">
<polygon fill="#e0e0e0" stroke="#999999" points="481.5,-19 435.5,-19 435.5,0 481.5,0 481.5,-19"/>
<text text-anchor="middle" x="458.5" y="-7" font-family="Helvetica,sans-Serif" font-size="10.00">cstdint</text>
</a>
</g>
</g>
<!-- Node5&#45;&gt;Node11 -->
<g id="edge11" class="edge">
<title>Node5&#45;&gt;Node11</title>
<path fill="none" stroke="#63b8ff" d="M458.5,-54.75C458.5,-48.27 458.5,-39.16 458.5,-30.9"/>
<polygon fill="#63b8ff" stroke="#63b8ff" points="462,-30.96 458.5,-20.96 455,-30.96 462,-30.96"/>
</g>
<!-- Node12 -->
<g id="node12" class="node">
<title>Node12</title>
<g id="a_node12"><a xlink:title=" ">
<polygon fill="#e0e0e0" stroke="#999999" points="551,-19 500,-19 500,0 551,0 551,-19"/>
<text text-anchor="middle" x="525.5" y="-7" font-family="Helvetica,sans-Serif" font-size="10.00">memory</text>
</a>
</g>
</g>
<!-- Node5&#45;&gt;Node12 -->
<g id="edge12" class="edge">
<title>Node5&#45;&gt;Node12</title>
<path fill="none" stroke="#63b8ff" d="M469.87,-54.51C479.55,-46.85 493.7,-35.66 505.31,-26.47"/>
<polygon fill="#63b8ff" stroke="#63b8ff" points="507.44,-29.25 513.12,-20.3 503.1,-23.76 507.44,-29.25"/>
</g>
<!-- Node13 -->
<g id="node13" class="node">
<title>Node13</title>
<g id="a_node13"><a xlink:title=" ">
<polygon fill="#e0e0e0" stroke="#999999" points="636,-19 569,-19 569,0 636,0 636,-19"/>
<text text-anchor="middle" x="602.5" y="-7" font-family="Helvetica,sans-Serif" font-size="10.00">emmintrin.h</text>
</a>
</g>
</g>
<!-- Node5&#45;&gt;Node13 -->
<g id="edge13" class="edge">
<title>Node5&#45;&gt;Node13</title>
<path fill="none" stroke="#63b8ff" d="M482.93,-54.51C506.24,-45.93 541.59,-32.92 567.81,-23.27"/>
<polygon fill="#63b8ff" stroke="#63b8ff" points="568.84,-26.62 577.01,-19.88 566.42,-20.05 568.84,-26.62"/>
</g>
<!-- Node14 -->
<g id="node14" class="node">
<title>Node14</title>
<g id="a_node14"><a xlink:title=" ">
<polygon fill="#e0e0e0" stroke="#999999" points="721,-19 654,-19 654,0 721,0 721,-19"/>
<text text-anchor="middle" x="687.5" y="-7" font-family="Helvetica,sans-Serif" font-size="10.00">smmintrin.h</text>
</a>
</g>
</g>
<!-- Node5&#45;&gt;Node14 -->
<g id="edge14" class="edge">
<title>Node5&#45;&gt;Node14</title>
<path fill="none" stroke="#63b8ff" d="M497.35,-54.51C537.56,-45.2 600.3,-30.68 642.61,-20.89"/>
<polygon fill="#63b8ff" stroke="#63b8ff" points="643.27,-24.33 652.22,-18.67 641.69,-17.51 643.27,-24.33"/>
</g>
<!-- Node15 -->
<g id="node15" class="node">
<title>Node15</title>
<g id="a_node15"><a xlink:title=" ">
<polygon fill="#e0e0e0" stroke="#999999" points="803.5,-19 739.5,-19 739.5,0 803.5,0 803.5,-19"/>
<text text-anchor="middle" x="771.5" y="-7" font-family="Helvetica,sans-Serif" font-size="10.00">immintrin.h</text>
</a>
</g>
</g>
<!-- Node5&#45;&gt;Node15 -->
<g id="edge15" class="edge">
<title>Node5&#45;&gt;Node15</title>
<path fill="none" stroke="#63b8ff" d="M517.02,-54.53C569.51,-46.34 648.93,-33.59 728.23,-19.17"/>
<polygon fill="#63b8ff" stroke="#63b8ff" points="728.72,-22.63 737.93,-17.39 727.46,-15.75 728.72,-22.63"/>
</g>
<!-- Node16 -->
<g id="node16" class="node">
<title>Node16</title>
<g id="a_node16"><a xlink:href="endianness_8hpp_source.html" target="_top" xlink:title=" ">
<polygon fill="white" stroke="#666666" points="905.5,-19 821.5,-19 821.5,0 905.5,0 905.5,-19"/>
<text text-anchor="middle" x="863.5" y="-7" font-family="Helvetica,sans-Serif" font-size="10.00">endianness.hpp</text>
</a>
</g>
</g>
<!-- Node5&#45;&gt;Node16 -->
<g id="edge16" class="edge">
<title>Node5&#45;&gt;Node16</title>
<path fill="none" stroke="#63b8ff" d="M524.18,-56.04C592.9,-48.06 704.2,-34.62 810.01,-19.31"/>
<polygon fill="#63b8ff" stroke="#63b8ff" points="810.33,-22.8 819.72,-17.9 809.32,-15.88 810.33,-22.8"/>
</g>
<!-- Node17&#45;&gt;Node3 -->
<g id="edge18" class="edge">
<title>Node17&#45;&gt;Node3</title>
<path fill="none" stroke="#63b8ff" d="M109.21,-111.43C112.34,-110.89 115.46,-110.41 118.5,-110 395.05,-72.49 728.19,-66.33 869.18,-65.51"/>
<polygon fill="#63b8ff" stroke="#63b8ff" points="869.11,-69.01 879.09,-65.46 869.08,-62.01 869.11,-69.01"/>
</g>
<!-- Node17&#45;&gt;Node5 -->
<g id="edge19" class="edge">
<title>Node17&#45;&gt;Node5</title>
<path fill="none" stroke="#63b8ff" d="M109.25,-111.7C112.38,-111.1 115.47,-110.53 118.5,-110 208.36,-94.32 312.45,-81.47 381.54,-73.68"/>
<polygon fill="#63b8ff" stroke="#63b8ff" points="381.7,-77.18 391.25,-72.59 380.92,-70.23 381.7,-77.18"/>
</g>
<!-- Node18&#45;&gt;Node3 -->
<g id="edge21" class="edge">
<title>Node18&#45;&gt;Node3</title>
<path fill="none" stroke="#63b8ff" d="M445.93,-111.29C448.82,-110.83 451.69,-110.4 454.5,-110 601.77,-89.14 775.75,-75.88 869.48,-69.67"/>
<polygon fill="#63b8ff" stroke="#63b8ff" points="869.52,-73.17 879.27,-69.02 869.06,-66.19 869.52,-73.17"/>
</g>
<!-- Node18&#45;&gt;Node5 -->
<g id="edge22" class="edge">
<title>Node18&#45;&gt;Node5</title>
<path fill="none" stroke="#63b8ff" d="M400.53,-109.54C411.95,-100.87 426.45,-89.85 438.1,-81"/>
<polygon fill="#63b8ff" stroke="#63b8ff" points="440.03,-83.93 445.88,-75.09 435.8,-78.35 440.03,-83.93"/>
</g>
<!-- Node19&#45;&gt;Node3 -->
<g id="edge24" class="edge">
<title>Node19&#45;&gt;Node3</title>
<path fill="none" stroke="#63b8ff" d="M854.44,-175.52C902.13,-164.39 959.4,-149.37 966.5,-140 979.67,-122.62 965.74,-98.5 953.02,-82.47"/>
<polygon fill="#63b8ff" stroke="#63b8ff" points="956.01,-80.58 946.87,-75.23 950.68,-85.11 956.01,-80.58"/>
</g>
<!-- Node20&#45;&gt;Node3 -->
<g id="edge26" class="edge">
<title>Node20&#45;&gt;Node3</title>
<path fill="none" stroke="#63b8ff" d="M962.88,-175.63C976.74,-167.33 991.76,-155.44 999.5,-140 1005.48,-128.08 1005.59,-121.86 999.5,-110 992.88,-97.11 980.6,-87.11 968.71,-79.88"/>
<polygon fill="#63b8ff" stroke="#63b8ff" points="970.7,-76.99 960.26,-75.2 967.31,-83.11 970.7,-76.99"/>
</g>
<!-- Node21&#45;&gt;Node3 -->
<g id="edge28" class="edge">
<title>Node21&#45;&gt;Node3</title>
<path fill="none" stroke="#63b8ff" d="M223.99,-116.5C240.32,-114.16 258.67,-111.74 275.5,-110 491.95,-87.6 749.43,-74.03 869.52,-68.45"/>
<polygon fill="#63b8ff" stroke="#63b8ff" points="869.37,-71.96 879.2,-68.01 869.05,-64.97 869.37,-71.96"/>
</g>
<!-- Node21&#45;&gt;Node5 -->
<g id="edge29" class="edge">
<title>Node21&#45;&gt;Node5</title>
<path fill="none" stroke="#63b8ff" d="M223.88,-112.96C228.48,-111.95 233.08,-110.94 237.5,-110 292.96,-98.16 356.43,-85.47 401.08,-76.68"/>
<polygon fill="#63b8ff" stroke="#63b8ff" points="401.67,-80.13 410.81,-74.77 400.33,-73.26 401.67,-80.13"/>
</g>
<!-- Node22&#45;&gt;Node3 -->
<g id="edge31" class="edge">
<title>Node22&#45;&gt;Node3</title>
<path fill="none" stroke="#63b8ff" d="M280.99,-175.74C282.47,-157.28 288.04,-125.63 308.5,-110 352.26,-76.57 715.82,-68.2 869.42,-66.15"/>
<polygon fill="#63b8ff" stroke="#63b8ff" points="869.08,-69.65 879.04,-66.03 868.99,-62.65 869.08,-69.65"/>
</g>
<!-- Node22&#45;&gt;Node5 -->
<g id="edge32" class="edge">
<title>Node22&#45;&gt;Node5</title>
<path fill="none" stroke="#63b8ff" d="M274.35,-175.59C267.97,-158.12 260.8,-128.71 275.5,-110 288.93,-92.91 337.75,-81.57 381.59,-74.62"/>
<polygon fill="#63b8ff" stroke="#63b8ff" points="382.04,-78.09 391.41,-73.13 380.99,-71.17 382.04,-78.09"/>
</g>
<!-- Node22&#45;&gt;Node21 -->
<g id="edge33" class="edge">
<title>Node22&#45;&gt;Node21</title>
<path fill="none" stroke="#63b8ff" d="M256.94,-175.64C242.62,-166.91 224.12,-155.63 208.37,-146.04"/>
<polygon fill="#63b8ff" stroke="#63b8ff" points="210.64,-143.32 200.28,-141.1 207,-149.3 210.64,-143.32"/>
</g>
<!-- Node23&#45;&gt;Node3 -->
<g id="edge35" class="edge">
<title>Node23&#45;&gt;Node3</title>
<path fill="none" stroke="#63b8ff" d="M607.37,-113.54C681.54,-102.75 796.4,-86.03 869.22,-75.44"/>
<polygon fill="#63b8ff" stroke="#63b8ff" points="869.65,-78.91 879.04,-74.01 868.64,-71.98 869.65,-78.91"/>
</g>
<!-- Node23&#45;&gt;Node5 -->
<g id="edge36" class="edge">
<title>Node23&#45;&gt;Node5</title>
<path fill="none" stroke="#63b8ff" d="M516.47,-109.54C505.05,-100.87 490.55,-89.85 478.9,-81"/>
<polygon fill="#63b8ff" stroke="#63b8ff" points="481.2,-78.35 471.12,-75.09 476.97,-83.93 481.2,-78.35"/>
</g>
<!-- Node24&#45;&gt;Node3 -->
<g id="edge38" class="edge">
<title>Node24&#45;&gt;Node3</title>
<path fill="none" stroke="#63b8ff" d="M798.98,-109.54C829.65,-99.79 869.68,-87.06 898.82,-77.8"/>
<polygon fill="#63b8ff" stroke="#63b8ff" points="899.49,-81.26 907.96,-74.89 897.37,-74.59 899.49,-81.26"/>
</g>
<!-- Node24&#45;&gt;Node5 -->
<g id="edge39" class="edge">
<title>Node24&#45;&gt;Node5</title>
<path fill="none" stroke="#63b8ff" d="M701.1,-113.61C648.7,-103.22 568.38,-87.29 514.69,-76.64"/>
<polygon fill="#63b8ff" stroke="#63b8ff" points="515.63,-73.26 505.14,-74.75 514.26,-80.13 515.63,-73.26"/>
</g>
<!-- Node25&#45;&gt;Node3 -->
<g id="edge41" class="edge">
<title>Node25&#45;&gt;Node3</title>
<path fill="none" stroke="#63b8ff" d="M1093.33,-109.54C1058.53,-99.7 1013,-86.84 980.16,-77.56"/>
<polygon fill="#63b8ff" stroke="#63b8ff" points="981.14,-74.2 970.56,-74.84 979.23,-80.93 981.14,-74.2"/>
</g>
<!-- Node26&#45;&gt;Node3 -->
<g id="edge43" class="edge">
<title>Node26&#45;&gt;Node3</title>
<path fill="none" stroke="#63b8ff" d="M585.76,-175.68C608.66,-157.45 651.04,-126.38 692.5,-110 749.76,-87.38 819.13,-76.15 869.41,-70.65"/>
<polygon fill="#63b8ff" stroke="#63b8ff" points="869.71,-74.13 879.3,-69.62 868.99,-67.17 869.71,-74.13"/>
</g>
<!-- Node26&#45;&gt;Node5 -->
<g id="edge44" class="edge">
<title>Node26&#45;&gt;Node5</title>
<path fill="none" stroke="#63b8ff" d="M587.13,-175.79C606.48,-159.29 631.82,-131.59 615.5,-110 604.47,-95.41 564.61,-84.21 527.82,-76.7"/>
<polygon fill="#63b8ff" stroke="#63b8ff" points="528.51,-73.27 518.03,-74.78 527.16,-80.14 528.51,-73.27"/>
</g>
<!-- Node26&#45;&gt;Node24 -->
<g id="edge45" class="edge">
<title>Node26&#45;&gt;Node24</title>
<path fill="none" stroke="#63b8ff" d="M610.02,-175.64C636.94,-166.32 672.24,-154.11 701.09,-144.13"/>
<polygon fill="#63b8ff" stroke="#63b8ff" points="702.06,-147.5 710.37,-140.92 699.78,-140.88 702.06,-147.5"/>
</g>
<!-- Node27&#45;&gt;Node3 -->
<g id="edge47" class="edge">
<title>Node27&#45;&gt;Node3</title>
<path fill="none" stroke="#63b8ff" d="M1256.38,-112.46C1251.69,-111.6 1247.02,-110.77 1242.5,-110 1161.3,-96.19 1067.49,-82.9 1005.58,-74.5"/>
<polygon fill="#63b8ff" stroke="#63b8ff" points="1006.28,-71.06 995.9,-73.19 1005.34,-78 1006.28,-71.06"/>
</g>
<!-- Node28&#45;&gt;Node3 -->
<g id="edge49" class="edge">
<title>Node28&#45;&gt;Node3</title>
<path fill="none" stroke="#63b8ff" d="M1403.26,-175.63C1403.37,-157.35 1400.5,-126.23 1381.5,-110 1353.57,-86.14 1123.27,-73.21 1005.83,-68.11"/>
<polygon fill="#63b8ff" stroke="#63b8ff" points="1006.13,-64.62 995.99,-67.69 1005.83,-71.61 1006.13,-64.62"/>
</g>
<!-- Node28&#45;&gt;Node27 -->
<g id="edge50" class="edge">
<title>Node28&#45;&gt;Node27</title>
<path fill="none" stroke="#63b8ff" d="M1382.97,-175.8C1371.32,-167.32 1356.31,-156.4 1343.31,-146.95"/>
<polygon fill="#63b8ff" stroke="#63b8ff" points="1345.65,-144.33 1335.5,-141.28 1341.53,-149.99 1345.65,-144.33"/>
</g>
<!-- Node29&#45;&gt;Node3 -->
<g id="edge52" class="edge">
<title>Node29&#45;&gt;Node3</title>
<path fill="none" stroke="#63b8ff" d="M1230.1,-175.81C1230.04,-157.73 1226.98,-126.82 1208.5,-110 1179.53,-83.63 1076.06,-72.78 1005.69,-68.39"/>
<polygon fill="#63b8ff" stroke="#63b8ff" points="1005.96,-64.9 995.77,-67.8 1005.55,-71.88 1005.96,-64.9"/>
</g>
<!-- Node29&#45;&gt;Node25 -->
<g id="edge53" class="edge">
<title>Node29&#45;&gt;Node25</title>
<path fill="none" stroke="#63b8ff" d="M1210.64,-175.8C1199.49,-167.4 1185.16,-156.62 1172.69,-147.23"/>
<polygon fill="#63b8ff" stroke="#63b8ff" points="1174.91,-144.51 1164.81,-141.3 1170.7,-150.11 1174.91,-144.51"/>
</g>
<!-- Node30&#45;&gt;Node3 -->
<g id="edge55" class="edge">
<title>Node30&#45;&gt;Node3</title>
<path fill="none" stroke="#63b8ff" d="M1055.48,-175.77C1048.79,-158.49 1035.57,-129.26 1016.5,-110 1003.54,-96.91 985.93,-86.49 970.62,-79.03"/>
<polygon fill="#63b8ff" stroke="#63b8ff" points="972.4,-76 961.85,-74.98 969.46,-82.35 972.4,-76"/>
</g>
<!-- Node30&#45;&gt;Node25 -->
<g id="edge56" class="edge">
<title>Node30&#45;&gt;Node25</title>
<path fill="none" stroke="#63b8ff" d="M1079.14,-175.8C1090.16,-167.4 1104.32,-156.62 1116.64,-147.23"/>
<polygon fill="#63b8ff" stroke="#63b8ff" points="1118.58,-150.15 1124.42,-141.3 1114.34,-144.58 1118.58,-150.15"/>
</g>
</g>
</svg>
