<?xml version="1.0" encoding="UTF-8" standalone="no"?>
<!DOCTYPE svg PUBLIC "-//W3C//DTD SVG 1.1//EN"
 "http://www.w3.org/Graphics/SVG/1.1/DTD/svg11.dtd">
<!-- Generated by graphviz version 7.0.5 (20221223.1930)
 -->
<!-- Title: /github/workspace/common/include/Packets.hpp Pages: 1 -->
<svg width="336pt" height="170pt"
 viewBox="0.00 0.00 335.50 170.00" xmlns="http://www.w3.org/2000/svg" xmlns:xlink="http://www.w3.org/1999/xlink">
<g id="graph0" class="graph" transform="scale(1 1) rotate(0) translate(4 166)">
<title>/github/workspace/common/include/Packets.hpp</title>
<!-- Node1 -->
<g id="node1" class="node">
<title>Node1</title>
<g id="a_node1"><a xlink:title="All packets used in the project.">
<polygon fill="#999999" stroke="#666666" points="246,-162 109,-162 109,-132 246,-132 246,-162"/>
<text text-anchor="start" x="117" y="-150" font-family="Helvetica,sans-Serif" font-size="10.00">/github/workspace/common</text>
<text text-anchor="middle" x="177.5" y="-139" font-family="Helvetica,sans-Serif" font-size="10.00">/include/Packets.hpp</text>
</a>
</g>
</g>
<!-- Node2 -->
<g id="node2" class="node">
<title>Node2</title>
<g id="a_node2"><a xlink:href="_network_manager_8hpp_source.html" target="_top" xlink:title=" ">
<polygon fill="white" stroke="#666666" points="183,-96 0,-96 0,-66 183,-66 183,-96"/>
<text text-anchor="start" x="8" y="-84" font-family="Helvetica,sans-Serif" font-size="10.00">/github/workspace/client</text>
<text text-anchor="middle" x="91.5" y="-73" font-family="Helvetica,sans-Serif" font-size="10.00">/include/network/NetworkManager.hpp</text>
</a>
</g>
</g>
<!-- Node1&#45;&gt;Node2 -->
<g id="edge1" class="edge">
<title>Node1&#45;&gt;Node2</title>
<path fill="none" stroke="#63b8ff" d="M149.25,-124.97C136.66,-115.61 122.15,-104.81 110.83,-96.39"/>
<polygon fill="#63b8ff" stroke="#63b8ff" points="147.09,-127.73 157.2,-130.89 151.27,-122.11 147.09,-127.73"/>
</g>
<!-- Node3 -->
<g id="node3" class="node">
<title>Node3</title>
<g id="a_node3"><a xlink:href="_game_server_8hpp_source.html" target="_top" xlink:title=" ">
<polygon fill="white" stroke="#666666" points="327.5,-96 201.5,-96 201.5,-66 327.5,-66 327.5,-96"/>
<text text-anchor="start" x="209.5" y="-84" font-family="Helvetica,sans-Serif" font-size="10.00">/github/workspace/server</text>
<text text-anchor="middle" x="264.5" y="-73" font-family="Helvetica,sans-Serif" font-size="10.00">/include/GameServer.hpp</text>
</a>
</g>
</g>
<!-- Node1&#45;&gt;Node3 -->
<g id="edge2" class="edge">
<title>Node1&#45;&gt;Node3</title>
<path fill="none" stroke="#63b8ff" d="M206.08,-124.97C218.82,-115.61 233.49,-104.81 244.95,-96.39"/>
<polygon fill="#63b8ff" stroke="#63b8ff" points="204.01,-122.15 198.03,-130.9 208.16,-127.79 204.01,-122.15"/>
</g>
<!-- Node4 -->
<g id="node4" class="node">
<title>Node4</title>
<g id="a_node4"><a xlink:href="_server_8hpp_source.html" target="_top" xlink:title=" ">
<polygon fill="white" stroke="#666666" points="327.5,-30 201.5,-30 201.5,0 327.5,0 327.5,-30"/>
<text text-anchor="start" x="209.5" y="-18" font-family="Helvetica,sans-Serif" font-size="10.00">/github/workspace/server</text>
<text text-anchor="middle" x="264.5" y="-7" font-family="Helvetica,sans-Serif" font-size="10.00">/include/Server.hpp</text>
</a>
</g>
</g>
<!-- Node3&#45;&gt;Node4 -->
<g id="edge3" class="edge">
<title>Node3&#45;&gt;Node4</title>
<path fill="none" stroke="#63b8ff" d="M264.5,-54.39C264.5,-46.13 264.5,-37.28 264.5,-30.16"/>
<polygon fill="#63b8ff" stroke="#63b8ff" points="261,-54.28 264.5,-64.28 268,-54.28 261,-54.28"/>
</g>
</g>
</svg>
