<?xml version="1.0" encoding="UTF-8" standalone="no"?>
<!DOCTYPE svg PUBLIC "-//W3C//DTD SVG 1.1//EN"
 "http://www.w3.org/Graphics/SVG/1.1/DTD/svg11.dtd">
<!-- Generated by graphviz version 7.0.5 (20221223.1930)
 -->
<!-- Title: /github/workspace/common/include/Packets.hpp Pages: 1 -->
<svg width="1534pt" height="225pt"
 viewBox="0.00 0.00 1534.00 225.00" xmlns="http://www.w3.org/2000/svg" xmlns:xlink="http://www.w3.org/1999/xlink">
<g id="graph0" class="graph" transform="scale(1 1) rotate(0) translate(4 221)">
<title>/github/workspace/common/include/Packets.hpp</title>
<!-- Node1 -->
<g id="node1" class="node">
<title>Node1</title>
<g id="a_node1"><a xlink:title="All packets used in the project.">
<polygon fill="#999999" stroke="#666666" points="815,-217 678,-217 678,-187 815,-187 815,-217"/>
<text text-anchor="start" x="686" y="-205" font-family="Helvetica,sans-Serif" font-size="10.00">/github/workspace/common</text>
<text text-anchor="middle" x="746.5" y="-194" font-family="Helvetica,sans-Serif" font-size="10.00">/include/Packets.hpp</text>
</a>
</g>
</g>
<!-- Node2 -->
<g id="node2" class="node">
<title>Node2</title>
<g id="a_node2"><a xlink:href="_c2_s_player_handshake_8hpp_source.html" target="_top" xlink:title=" ">
<polygon fill="white" stroke="#666666" points="133,-85 0,-85 0,-55 133,-55 133,-85"/>
<text text-anchor="start" x="8" y="-73" font-family="Helvetica,sans-Serif" font-size="10.00">packets/tcp/client</text>
<text text-anchor="middle" x="66.5" y="-62" font-family="Helvetica,sans-Serif" font-size="10.00">/C2SPlayerHandshake.hpp</text>
</a>
</g>
</g>
<!-- Node1&#45;&gt;Node2 -->
<g id="edge1" class="edge">
<title>Node1&#45;&gt;Node2</title>
<path fill="none" stroke="#63b8ff" d="M677.54,-201.43C578.75,-200.43 392.05,-192.52 239.5,-151 188.86,-137.22 134.57,-109.81 100.59,-90.95"/>
<polygon fill="#63b8ff" stroke="#63b8ff" points="102.47,-87.99 92.04,-86.13 99.03,-94.09 102.47,-87.99"/>
</g>
<!-- Node4 -->
<g id="node4" class="node">
<title>Node4</title>
<g id="a_node4"><a xlink:href="_s2_c_player_authentified_8hpp_source.html" target="_top" xlink:title=" ">
<polygon fill="white" stroke="#666666" points="285.5,-85 151.5,-85 151.5,-55 285.5,-55 285.5,-85"/>
<text text-anchor="start" x="159.5" y="-73" font-family="Helvetica,sans-Serif" font-size="10.00">packets/tcp/server</text>
<text text-anchor="middle" x="218.5" y="-62" font-family="Helvetica,sans-Serif" font-size="10.00">/S2CPlayerAuthentified.hpp</text>
</a>
</g>
</g>
<!-- Node1&#45;&gt;Node4 -->
<g id="edge3" class="edge">
<title>Node1&#45;&gt;Node4</title>
<path fill="none" stroke="#63b8ff" d="M677.59,-200.76C562.95,-199.23 339.08,-191.01 272.5,-151 251.59,-138.43 236.99,-114.28 228.3,-95.79"/>
<polygon fill="#63b8ff" stroke="#63b8ff" points="231.58,-94.56 224.36,-86.81 225.17,-97.37 231.58,-94.56"/>
</g>
<!-- Node5 -->
<g id="node5" class="node">
<title>Node5</title>
<g id="a_node5"><a xlink:href="_s2_c_player_score_8hpp_source.html" target="_top" xlink:title=" ">
<polygon fill="white" stroke="#666666" points="413,-85 304,-85 304,-55 413,-55 413,-85"/>
<text text-anchor="start" x="312" y="-73" font-family="Helvetica,sans-Serif" font-size="10.00">packets/tcp/server</text>
<text text-anchor="middle" x="358.5" y="-62" font-family="Helvetica,sans-Serif" font-size="10.00">/S2CPlayerScore.hpp</text>
</a>
</g>
</g>
<!-- Node1&#45;&gt;Node5 -->
<g id="edge5" class="edge">
<title>Node1&#45;&gt;Node5</title>
<path fill="none" stroke="#63b8ff" d="M677.91,-198.57C555.2,-193.52 308.42,-179.86 282.5,-151 263.75,-130.12 291.35,-106.94 318.39,-90.92"/>
<polygon fill="#63b8ff" stroke="#63b8ff" points="319.94,-94.07 326.93,-86.11 316.5,-87.98 319.94,-94.07"/>
</g>
<!-- Node6 -->
<g id="node6" class="node">
<title>Node6</title>
<g id="a_node6"><a xlink:href="_c2_s_client_connected_8hpp_source.html" target="_top" xlink:title=" ">
<polygon fill="white" stroke="#666666" points="559.5,-85 431.5,-85 431.5,-55 559.5,-55 559.5,-85"/>
<text text-anchor="start" x="439.5" y="-73" font-family="Helvetica,sans-Serif" font-size="10.00">packets/udp/client</text>
<text text-anchor="middle" x="495.5" y="-62" font-family="Helvetica,sans-Serif" font-size="10.00">/C2SClientConnected.hpp</text>
</a>
</g>
</g>
<!-- Node1&#45;&gt;Node6 -->
<g id="edge7" class="edge">
<title>Node1&#45;&gt;Node6</title>
<path fill="none" stroke="#63b8ff" d="M677.97,-198.4C557.42,-193.12 317.73,-179.16 292.5,-151 283.6,-141.07 284.28,-131.5 292.5,-121 296.65,-115.7 364.17,-99.75 420.21,-87.28"/>
<polygon fill="#63b8ff" stroke="#63b8ff" points="420.76,-90.74 429.77,-85.16 419.25,-83.9 420.76,-90.74"/>
</g>
<!-- Node7 -->
<g id="node7" class="node">
<title>Node7</title>
<g id="a_node7"><a xlink:href="_c2_s_player_prepare_shoot_8hpp_source.html" target="_top" xlink:title=" ">
<polygon fill="white" stroke="#666666" points="445,-151 302,-151 302,-121 445,-121 445,-151"/>
<text text-anchor="start" x="310" y="-139" font-family="Helvetica,sans-Serif" font-size="10.00">packets/udp/client</text>
<text text-anchor="middle" x="373.5" y="-128" font-family="Helvetica,sans-Serif" font-size="10.00">/C2SPlayerPrepareShoot.hpp</text>
</a>
</g>
</g>
<!-- Node1&#45;&gt;Node7 -->
<g id="edge9" class="edge">
<title>Node1&#45;&gt;Node7</title>
<path fill="none" stroke="#63b8ff" d="M677.52,-189.31C620.69,-179.66 537.66,-165.53 456.39,-151.5"/>
<polygon fill="#63b8ff" stroke="#63b8ff" points="457.4,-148.12 446.95,-149.86 456.21,-155.02 457.4,-148.12"/>
</g>
<!-- Node8 -->
<g id="node8" class="node">
<title>Node8</title>
<g id="a_node8"><a xlink:href="_c2_s_player_shoot_8hpp_source.html" target="_top" xlink:title=" ">
<polygon fill="white" stroke="#666666" points="572,-151 463,-151 463,-121 572,-121 572,-151"/>
<text text-anchor="start" x="471" y="-139" font-family="Helvetica,sans-Serif" font-size="10.00">packets/udp/client</text>
<text text-anchor="middle" x="517.5" y="-128" font-family="Helvetica,sans-Serif" font-size="10.00">/C2SPlayerShoot.hpp</text>
</a>
</g>
</g>
<!-- Node1&#45;&gt;Node8 -->
<g id="edge11" class="edge">
<title>Node1&#45;&gt;Node8</title>
<path fill="none" stroke="#63b8ff" d="M694.82,-186.56C660.75,-177.04 615.93,-164.51 579.88,-154.43"/>
<polygon fill="#63b8ff" stroke="#63b8ff" points="581.02,-151.12 570.45,-151.8 579.14,-157.86 581.02,-151.12"/>
</g>
<!-- Node9 -->
<g id="node9" class="node">
<title>Node9</title>
<g id="a_node9"><a xlink:href="_c2_s_kill_entity_8hpp_source.html" target="_top" xlink:title=" ">
<polygon fill="white" stroke="#666666" points="749.5,-85 653.5,-85 653.5,-55 749.5,-55 749.5,-85"/>
<text text-anchor="start" x="661.5" y="-73" font-family="Helvetica,sans-Serif" font-size="10.00">packets/udp/client</text>
<text text-anchor="middle" x="701.5" y="-62" font-family="Helvetica,sans-Serif" font-size="10.00">/C2SKillEntity.hpp</text>
</a>
</g>
</g>
<!-- Node1&#45;&gt;Node9 -->
<g id="edge13" class="edge">
<title>Node1&#45;&gt;Node9</title>
<path fill="none" stroke="#63b8ff" d="M677.69,-189.85C655.36,-182.62 632.9,-170.68 619.5,-151 611.99,-139.98 612.97,-132.63 619.5,-121 626.65,-108.27 638.51,-98.39 651.01,-90.91"/>
<polygon fill="#63b8ff" stroke="#63b8ff" points="652.66,-94 659.77,-86.14 649.32,-87.85 652.66,-94"/>
</g>
<!-- Node10 -->
<g id="node10" class="node">
<title>Node10</title>
<g id="a_node10"><a xlink:href="_c2_s_kill_player_8hpp_source.html" target="_top" xlink:title=" ">
<polygon fill="white" stroke="#666666" points="726,-151 629,-151 629,-121 726,-121 726,-151"/>
<text text-anchor="start" x="637" y="-139" font-family="Helvetica,sans-Serif" font-size="10.00">packets/udp/client</text>
<text text-anchor="middle" x="677.5" y="-128" font-family="Helvetica,sans-Serif" font-size="10.00">/C2SKillPlayer.hpp</text>
</a>
</g>
</g>
<!-- Node1&#45;&gt;Node10 -->
<g id="edge15" class="edge">
<title>Node1&#45;&gt;Node10</title>
<path fill="none" stroke="#63b8ff" d="M731.19,-186.8C722.34,-178.59 711.03,-168.1 701.08,-158.87"/>
<polygon fill="#63b8ff" stroke="#63b8ff" points="703.59,-156.43 693.88,-152.19 698.83,-161.56 703.59,-156.43"/>
</g>
<!-- Node11 -->
<g id="node11" class="node">
<title>Node11</title>
<g id="a_node11"><a xlink:href="_c2_s_client_disconnecting_8hpp_source.html" target="_top" xlink:title=" ">
<polygon fill="white" stroke="#666666" points="887,-151 744,-151 744,-121 887,-121 887,-151"/>
<text text-anchor="start" x="752" y="-139" font-family="Helvetica,sans-Serif" font-size="10.00">packets/tcp/client</text>
<text text-anchor="middle" x="815.5" y="-128" font-family="Helvetica,sans-Serif" font-size="10.00">/C2SClientDisconnecting.hpp</text>
</a>
</g>
</g>
<!-- Node1&#45;&gt;Node11 -->
<g id="edge18" class="edge">
<title>Node1&#45;&gt;Node11</title>
<path fill="none" stroke="#63b8ff" d="M761.81,-186.8C770.66,-178.59 781.97,-168.1 791.92,-158.87"/>
<polygon fill="#63b8ff" stroke="#63b8ff" points="794.17,-161.56 799.12,-152.19 789.41,-156.43 794.17,-161.56"/>
</g>
<!-- Node12 -->
<g id="node12" class="node">
<title>Node12</title>
<g id="a_node12"><a xlink:href="_s2_c_entity_move_8hpp_source.html" target="_top" xlink:title=" ">
<polygon fill="white" stroke="#666666" points="966.5,-85 862.5,-85 862.5,-55 966.5,-55 966.5,-85"/>
<text text-anchor="start" x="870.5" y="-73" font-family="Helvetica,sans-Serif" font-size="10.00">packets/udp/server</text>
<text text-anchor="middle" x="914.5" y="-62" font-family="Helvetica,sans-Serif" font-size="10.00">/S2CEntityMove.hpp</text>
</a>
</g>
</g>
<!-- Node1&#45;&gt;Node12 -->
<g id="edge20" class="edge">
<title>Node1&#45;&gt;Node12</title>
<path fill="none" stroke="#63b8ff" d="M815.33,-192.76C843.8,-185.96 874.89,-173.57 895.5,-151 908.89,-136.34 913.34,-114 914.61,-96.65"/>
<polygon fill="#63b8ff" stroke="#63b8ff" points="918.1,-96.97 914.99,-86.84 911.1,-96.7 918.1,-96.97"/>
</g>
<!-- Node13 -->
<g id="node13" class="node">
<title>Node13</title>
<g id="a_node13"><a xlink:href="_s2_c_entity_spawn_8hpp_source.html" target="_top" xlink:title=" ">
<polygon fill="white" stroke="#666666" points="1397.5,-85 1287.5,-85 1287.5,-55 1397.5,-55 1397.5,-85"/>
<text text-anchor="start" x="1295.5" y="-73" font-family="Helvetica,sans-Serif" font-size="10.00">packets/udp/server</text>
<text text-anchor="middle" x="1342.5" y="-62" font-family="Helvetica,sans-Serif" font-size="10.00">/S2CEntitySpawn.hpp</text>
</a>
</g>
</g>
<!-- Node1&#45;&gt;Node13 -->
<g id="edge22" class="edge">
<title>Node1&#45;&gt;Node13</title>
<path fill="none" stroke="#63b8ff" d="M815.25,-200.59C968.93,-198.95 1329.73,-190.86 1366.5,-151 1380.64,-135.68 1371.32,-112.33 1360.44,-94.81"/>
<polygon fill="#63b8ff" stroke="#63b8ff" points="1363.35,-92.86 1354.86,-86.52 1357.55,-96.77 1363.35,-92.86"/>
</g>
<!-- Node14 -->
<g id="node14" class="node">
<title>Node14</title>
<g id="a_node14"><a xlink:href="_s2_c_player_move_8hpp_source.html" target="_top" xlink:title=" ">
<polygon fill="white" stroke="#666666" points="1051,-151 944,-151 944,-121 1051,-121 1051,-151"/>
<text text-anchor="start" x="952" y="-139" font-family="Helvetica,sans-Serif" font-size="10.00">packets/udp/server</text>
<text text-anchor="middle" x="997.5" y="-128" font-family="Helvetica,sans-Serif" font-size="10.00">/S2CPlayerMove.hpp</text>
</a>
</g>
</g>
<!-- Node1&#45;&gt;Node14 -->
<g id="edge24" class="edge">
<title>Node1&#45;&gt;Node14</title>
<path fill="none" stroke="#63b8ff" d="M803.14,-186.56C841.6,-176.75 892.56,-163.76 932.64,-153.54"/>
<polygon fill="#63b8ff" stroke="#63b8ff" points="933.35,-156.97 942.18,-151.11 931.62,-150.19 933.35,-156.97"/>
</g>
<!-- Node15 -->
<g id="node15" class="node">
<title>Node15</title>
<g id="a_node15"><a xlink:href="_s2_c_remove_entity_8hpp_source.html" target="_top" xlink:title=" ">
<polygon fill="white" stroke="#666666" points="1138.5,-85 1022.5,-85 1022.5,-55 1138.5,-55 1138.5,-85"/>
<text text-anchor="start" x="1030.5" y="-73" font-family="Helvetica,sans-Serif" font-size="10.00">packets/udp/server</text>
<text text-anchor="middle" x="1080.5" y="-62" font-family="Helvetica,sans-Serif" font-size="10.00">/S2CRemoveEntity.hpp</text>
</a>
</g>
</g>
<!-- Node1&#45;&gt;Node15 -->
<g id="edge27" class="edge">
<title>Node1&#45;&gt;Node15</title>
<path fill="none" stroke="#63b8ff" d="M815.22,-198.59C896.32,-194.32 1024.59,-182.64 1059.5,-151 1074.54,-137.37 1079.38,-114.39 1080.69,-96.55"/>
<polygon fill="#63b8ff" stroke="#63b8ff" points="1084.18,-96.84 1081.06,-86.71 1077.18,-96.58 1084.18,-96.84"/>
</g>
<!-- Node16 -->
<g id="node16" class="node">
<title>Node16</title>
<g id="a_node16"><a xlink:href="_s2_c_remove_player_8hpp_source.html" target="_top" xlink:title=" ">
<polygon fill="white" stroke="#666666" points="1227,-151 1108,-151 1108,-121 1227,-121 1227,-151"/>
<text text-anchor="start" x="1116" y="-139" font-family="Helvetica,sans-Serif" font-size="10.00">packets/udp/server</text>
<text text-anchor="middle" x="1167.5" y="-128" font-family="Helvetica,sans-Serif" font-size="10.00">/S2CRemovePlayer.hpp</text>
</a>
</g>
</g>
<!-- Node1&#45;&gt;Node16 -->
<g id="edge29" class="edge">
<title>Node1&#45;&gt;Node16</title>
<path fill="none" stroke="#63b8ff" d="M815.44,-191.97C885.56,-182.58 997.29,-167.02 1093.5,-151 1094.52,-150.83 1095.54,-150.66 1096.57,-150.48"/>
<polygon fill="#63b8ff" stroke="#63b8ff" points="1097.02,-153.96 1106.27,-148.79 1095.82,-147.06 1097.02,-153.96"/>
</g>
<!-- Node17 -->
<g id="node17" class="node">
<title>Node17</title>
<g id="a_node17"><a xlink:href="_s2_c_spawn_player_8hpp_source.html" target="_top" xlink:title=" ">
<polygon fill="white" stroke="#666666" points="1358,-151 1245,-151 1245,-121 1358,-121 1358,-151"/>
<text text-anchor="start" x="1253" y="-139" font-family="Helvetica,sans-Serif" font-size="10.00">packets/udp/server</text>
<text text-anchor="middle" x="1301.5" y="-128" font-family="Helvetica,sans-Serif" font-size="10.00">/S2CSpawnPlayer.hpp</text>
</a>
</g>
</g>
<!-- Node1&#45;&gt;Node17 -->
<g id="edge32" class="edge">
<title>Node1&#45;&gt;Node17</title>
<path fill="none" stroke="#63b8ff" d="M815.23,-196.31C907.91,-189.46 1078.26,-175.05 1233.54,-151.19"/>
<polygon fill="#63b8ff" stroke="#63b8ff" points="1233.85,-154.68 1243.19,-149.69 1232.78,-147.77 1233.85,-154.68"/>
</g>
<!-- Node18 -->
<g id="node18" class="node">
<title>Node18</title>
<g id="a_node18"><a xlink:href="_s2_c_spawn_bullet_8hpp_source.html" target="_top" xlink:title=" ">
<polygon fill="white" stroke="#666666" points="1526,-151 1415,-151 1415,-121 1526,-121 1526,-151"/>
<text text-anchor="start" x="1423" y="-139" font-family="Helvetica,sans-Serif" font-size="10.00">packets/udp/server</text>
<text text-anchor="middle" x="1470.5" y="-128" font-family="Helvetica,sans-Serif" font-size="10.00">/S2CSpawnBullet.hpp</text>
</a>
</g>
</g>
<!-- Node1&#45;&gt;Node18 -->
<g id="edge35" class="edge">
<title>Node1&#45;&gt;Node18</title>
<path fill="none" stroke="#63b8ff" d="M815.05,-198.49C934.45,-193.52 1188.14,-180.24 1400.5,-151 1401.52,-150.86 1402.55,-150.71 1403.58,-150.56"/>
<polygon fill="#63b8ff" stroke="#63b8ff" points="1404,-154.04 1413.32,-149.01 1402.9,-147.13 1404,-154.04"/>
</g>
<!-- Node3 -->
<g id="node3" class="node">
<title>Node3</title>
<g id="a_node3"><a xlink:title=" ">
<polygon fill="#e0e0e0" stroke="#999999" points="853,-19 740,-19 740,0 853,0 853,-19"/>
<text text-anchor="middle" x="796.5" y="-7" font-family="Helvetica,sans-Serif" font-size="10.00">saturnity/Saturnity.hpp</text>
</a>
</g>
</g>
<!-- Node2&#45;&gt;Node3 -->
<g id="edge2" class="edge">
<title>Node2&#45;&gt;Node3</title>
<path fill="none" stroke="#63b8ff" d="M133.16,-56.28C136.31,-55.81 139.44,-55.38 142.5,-55 355.32,-28.25 609.26,-16.77 728.42,-12.57"/>
<polygon fill="#63b8ff" stroke="#63b8ff" points="728.48,-16.07 738.35,-12.23 728.24,-9.08 728.48,-16.07"/>
</g>
<!-- Node4&#45;&gt;Node3 -->
<g id="edge4" class="edge">
<title>Node4&#45;&gt;Node3</title>
<path fill="none" stroke="#63b8ff" d="M285.99,-56.23C288.86,-55.79 291.71,-55.38 294.5,-55 449.04,-33.96 631.75,-20.65 728.48,-14.5"/>
<polygon fill="#63b8ff" stroke="#63b8ff" points="728.57,-18 738.33,-13.88 728.13,-11.01 728.57,-18"/>
</g>
<!-- Node5&#45;&gt;Node3 -->
<g id="edge6" class="edge">
<title>Node5&#45;&gt;Node3</title>
<path fill="none" stroke="#63b8ff" d="M413.24,-56.66C416.37,-56.07 419.47,-55.51 422.5,-55 528.76,-37.1 653.19,-23.81 728.37,-16.6"/>
<polygon fill="#63b8ff" stroke="#63b8ff" points="728.42,-20.12 738.04,-15.69 727.75,-13.15 728.42,-20.12"/>
</g>
<!-- Node6&#45;&gt;Node3 -->
<g id="edge8" class="edge">
<title>Node6&#45;&gt;Node3</title>
<path fill="none" stroke="#63b8ff" d="M559.7,-56.52C612.99,-46.16 688.09,-31.57 739.33,-21.61"/>
<polygon fill="#63b8ff" stroke="#63b8ff" points="739.9,-25.07 749.05,-19.72 738.56,-18.2 739.9,-25.07"/>
</g>
<!-- Node7&#45;&gt;Node3 -->
<g id="edge10" class="edge">
<title>Node7&#45;&gt;Node3</title>
<path fill="none" stroke="#63b8ff" d="M444.56,-120.55C491.07,-110.37 547.04,-96.57 568.5,-85 585.95,-75.59 583.93,-64.17 601.5,-55 640.86,-34.45 689.56,-23.33 728.44,-17.34"/>
<polygon fill="#63b8ff" stroke="#63b8ff" points="728.76,-20.83 738.15,-15.93 727.75,-13.9 728.76,-20.83"/>
</g>
<!-- Node8&#45;&gt;Node3 -->
<g id="edge12" class="edge">
<title>Node8&#45;&gt;Node3</title>
<path fill="none" stroke="#63b8ff" d="M542.78,-120.59C559.61,-110.84 582.11,-97.51 601.5,-85 621.08,-72.37 623.49,-65.07 644.5,-55 675.17,-40.3 711.69,-29.41 741.25,-22.09"/>
<polygon fill="#63b8ff" stroke="#63b8ff" points="741.83,-25.55 750.73,-19.81 740.19,-18.74 741.83,-25.55"/>
</g>
<!-- Node9&#45;&gt;Node3 -->
<g id="edge14" class="edge">
<title>Node9&#45;&gt;Node3</title>
<path fill="none" stroke="#63b8ff" d="M724.98,-54.54C739.4,-45.66 757.81,-34.32 772.35,-25.37"/>
<polygon fill="#63b8ff" stroke="#63b8ff" points="774.17,-28.36 780.85,-20.14 770.5,-22.4 774.17,-28.36"/>
</g>
<!-- Node10&#45;&gt;Node3 -->
<g id="edge16" class="edge">
<title>Node10&#45;&gt;Node3</title>
<path fill="none" stroke="#63b8ff" d="M709.22,-120.64C725.49,-112.07 744.72,-99.95 758.5,-85 773.24,-69.01 783.74,-46.22 789.92,-30.07"/>
<polygon fill="#63b8ff" stroke="#63b8ff" points="793.21,-31.25 793.29,-20.65 786.62,-28.89 793.21,-31.25"/>
</g>
<!-- Node10&#45;&gt;Node9 -->
<g id="edge17" class="edge">
<title>Node10&#45;&gt;Node9</title>
<path fill="none" stroke="#63b8ff" d="M682.83,-120.8C685.59,-113.42 689.05,-104.2 692.24,-95.7"/>
<polygon fill="#63b8ff" stroke="#63b8ff" points="695.42,-97.17 695.66,-86.58 688.87,-94.72 695.42,-97.17"/>
</g>
<!-- Node11&#45;&gt;Node3 -->
<g id="edge19" class="edge">
<title>Node11&#45;&gt;Node3</title>
<path fill="none" stroke="#63b8ff" d="M813.32,-120.72C809.93,-98.53 803.4,-55.73 799.55,-30.49"/>
<polygon fill="#63b8ff" stroke="#63b8ff" points="803.05,-30.24 798.08,-20.88 796.13,-31.29 803.05,-30.24"/>
</g>
<!-- Node12&#45;&gt;Node3 -->
<g id="edge21" class="edge">
<title>Node12&#45;&gt;Node3</title>
<path fill="none" stroke="#63b8ff" d="M885.33,-54.54C866.73,-45.32 842.77,-33.44 824.42,-24.34"/>
<polygon fill="#63b8ff" stroke="#63b8ff" points="826.21,-21.32 815.7,-20.02 823.1,-27.6 826.21,-21.32"/>
</g>
<!-- Node13&#45;&gt;Node3 -->
<g id="edge23" class="edge">
<title>Node13&#45;&gt;Node3</title>
<path fill="none" stroke="#63b8ff" d="M1287.23,-60.49C1273.91,-58.57 1259.71,-56.62 1246.5,-55 1111.52,-38.49 953.17,-23.95 864.88,-16.27"/>
<polygon fill="#63b8ff" stroke="#63b8ff" points="865.19,-12.79 854.93,-15.41 864.59,-19.76 865.19,-12.79"/>
</g>
<!-- Node14&#45;&gt;Node3 -->
<g id="edge25" class="edge">
<title>Node14&#45;&gt;Node3</title>
<path fill="none" stroke="#63b8ff" d="M997.69,-120.71C997.11,-102.82 993.34,-72.4 975.5,-55 959.58,-39.47 908.23,-27.69 864.6,-20.17"/>
<polygon fill="#63b8ff" stroke="#63b8ff" points="865.34,-16.74 854.9,-18.55 864.18,-23.64 865.34,-16.74"/>
</g>
<!-- Node14&#45;&gt;Node12 -->
<g id="edge26" class="edge">
<title>Node14&#45;&gt;Node12</title>
<path fill="none" stroke="#63b8ff" d="M979.08,-120.8C968.2,-112.4 954.2,-101.62 942.03,-92.23"/>
<polygon fill="#63b8ff" stroke="#63b8ff" points="944.41,-89.64 934.35,-86.31 940.14,-95.19 944.41,-89.64"/>
</g>
<!-- Node15&#45;&gt;Node3 -->
<g id="edge28" class="edge">
<title>Node15&#45;&gt;Node3</title>
<path fill="none" stroke="#63b8ff" d="M1022.34,-57.02C972.06,-46.66 899.92,-31.8 850.8,-21.68"/>
<polygon fill="#63b8ff" stroke="#63b8ff" points="851.74,-18.31 841.24,-19.72 850.33,-25.16 851.74,-18.31"/>
</g>
<!-- Node16&#45;&gt;Node3 -->
<g id="edge30" class="edge">
<title>Node16&#45;&gt;Node3</title>
<path fill="none" stroke="#63b8ff" d="M1168.39,-120.72C1168.67,-102.55 1166.13,-71.54 1147.5,-55 1106.9,-18.96 955.04,-11.47 864.91,-10.29"/>
<polygon fill="#63b8ff" stroke="#63b8ff" points="864.98,-6.79 854.94,-10.19 864.91,-13.79 864.98,-6.79"/>
</g>
<!-- Node16&#45;&gt;Node15 -->
<g id="edge31" class="edge">
<title>Node16&#45;&gt;Node15</title>
<path fill="none" stroke="#63b8ff" d="M1148.19,-120.8C1136.67,-112.32 1121.83,-101.4 1108.98,-91.95"/>
<polygon fill="#63b8ff" stroke="#63b8ff" points="1111.4,-89.39 1101.27,-86.28 1107.26,-95.03 1111.4,-89.39"/>
</g>
<!-- Node17&#45;&gt;Node3 -->
<g id="edge33" class="edge">
<title>Node17&#45;&gt;Node3</title>
<path fill="none" stroke="#63b8ff" d="M1283.69,-120.62C1259.6,-102.04 1214.57,-70.26 1170.5,-55 1067.94,-19.49 941.16,-11.32 864.67,-9.96"/>
<polygon fill="#63b8ff" stroke="#63b8ff" points="864.86,-6.47 854.81,-9.83 864.76,-13.47 864.86,-6.47"/>
</g>
<!-- Node17&#45;&gt;Node13 -->
<g id="edge34" class="edge">
<title>Node17&#45;&gt;Node13</title>
<path fill="none" stroke="#63b8ff" d="M1310.6,-120.8C1315.48,-113.17 1321.63,-103.57 1327.22,-94.84"/>
<polygon fill="#63b8ff" stroke="#63b8ff" points="1330.16,-96.75 1332.61,-86.44 1324.27,-92.97 1330.16,-96.75"/>
</g>
<!-- Node18&#45;&gt;Node3 -->
<g id="edge36" class="edge">
<title>Node18&#45;&gt;Node3</title>
<path fill="none" stroke="#63b8ff" d="M1463.77,-120.72C1454.06,-101.92 1434.2,-69.58 1406.5,-55 1359.54,-30.28 1013.92,-17.03 864.74,-12.41"/>
<polygon fill="#63b8ff" stroke="#63b8ff" points="865.1,-8.92 855,-12.12 864.89,-15.92 865.1,-8.92"/>
</g>
<!-- Node18&#45;&gt;Node13 -->
<g id="edge37" class="edge">
<title>Node18&#45;&gt;Node13</title>
<path fill="none" stroke="#63b8ff" d="M1441.77,-120.64C1423.91,-111.7 1400.7,-100.1 1381.22,-90.36"/>
<polygon fill="#63b8ff" stroke="#63b8ff" points="1382.99,-87.33 1372.48,-85.99 1379.86,-93.59 1382.99,-87.33"/>
</g>
</g>
</svg>
