<?xml version="1.0" encoding="UTF-8" standalone="no"?>
<!DOCTYPE svg PUBLIC "-//W3C//DTD SVG 1.1//EN"
 "http://www.w3.org/Graphics/SVG/1.1/DTD/svg11.dtd">
<!-- Generated by graphviz version 7.0.5 (20221223.1930)
 -->
<!-- Title: /github/workspace/common/include/Packets.hpp Pages: 1 -->
<svg width="1207pt" height="225pt"
 viewBox="0.00 0.00 1206.50 225.00" xmlns="http://www.w3.org/2000/svg" xmlns:xlink="http://www.w3.org/1999/xlink">
<g id="graph0" class="graph" transform="scale(1 1) rotate(0) translate(4 221)">
<title>/github/workspace/common/include/Packets.hpp</title>
<!-- Node1 -->
<g id="node1" class="node">
<title>Node1</title>
<g id="a_node1"><a xlink:title="All packets used in the project.">
<polygon fill="#999999" stroke="#666666" points="893.5,-217 756.5,-217 756.5,-187 893.5,-187 893.5,-217"/>
<text text-anchor="start" x="764.5" y="-205" font-family="Helvetica,sans-Serif" font-size="10.00">/github/workspace/common</text>
<text text-anchor="middle" x="825" y="-194" font-family="Helvetica,sans-Serif" font-size="10.00">/include/Packets.hpp</text>
</a>
</g>
</g>
<!-- Node2 -->
<g id="node2" class="node">
<title>Node2</title>
<g id="a_node2"><a xlink:href="_c2_s_player_handshake_8hpp_source.html" target="_top" xlink:title=" ">
<polygon fill="white" stroke="#666666" points="1198.5,-85 1065.5,-85 1065.5,-55 1198.5,-55 1198.5,-85"/>
<text text-anchor="start" x="1073.5" y="-73" font-family="Helvetica,sans-Serif" font-size="10.00">packets/tcp/client</text>
<text text-anchor="middle" x="1132" y="-62" font-family="Helvetica,sans-Serif" font-size="10.00">/C2SPlayerHandshake.hpp</text>
</a>
</g>
</g>
<!-- Node1&#45;&gt;Node2 -->
<g id="edge1" class="edge">
<title>Node1&#45;&gt;Node2</title>
<path fill="none" stroke="#63b8ff" d="M893.71,-196.3C965.24,-190.09 1071.09,-176.79 1102,-151 1118.18,-137.5 1125.64,-114.35 1129.08,-96.42"/>
<polygon fill="#63b8ff" stroke="#63b8ff" points="1132.5,-97.2 1130.6,-86.77 1125.58,-96.1 1132.5,-97.2"/>
</g>
<!-- Node4 -->
<g id="node4" class="node">
<title>Node4</title>
<g id="a_node4"><a xlink:href="_s2_c_player_authentified_8hpp_source.html" target="_top" xlink:title=" ">
<polygon fill="white" stroke="#666666" points="502,-151 368,-151 368,-121 502,-121 502,-151"/>
<text text-anchor="start" x="376" y="-139" font-family="Helvetica,sans-Serif" font-size="10.00">packets/tcp/server</text>
<text text-anchor="middle" x="435" y="-128" font-family="Helvetica,sans-Serif" font-size="10.00">/S2CPlayerAuthentified.hpp</text>
</a>
</g>
</g>
<!-- Node1&#45;&gt;Node4 -->
<g id="edge3" class="edge">
<title>Node1&#45;&gt;Node4</title>
<path fill="none" stroke="#63b8ff" d="M756.01,-190.51C694.88,-181.1 602.92,-166.67 513.32,-151.37"/>
<polygon fill="#63b8ff" stroke="#63b8ff" points="514.06,-147.95 503.61,-149.71 512.88,-154.85 514.06,-147.95"/>
</g>
<!-- Node17 -->
<g id="node17" class="node">
<title>Node17</title>
<g id="a_node17"><a xlink:href="_c2_s_player_prepare_shoot_8hpp_source.html" target="_top" xlink:title=" ">
<polygon fill="white" stroke="#666666" points="715.5,-85 572.5,-85 572.5,-55 715.5,-55 715.5,-85"/>
<text text-anchor="start" x="580.5" y="-73" font-family="Helvetica,sans-Serif" font-size="10.00">packets/udp/client</text>
<text text-anchor="middle" x="644" y="-62" font-family="Helvetica,sans-Serif" font-size="10.00">/C2SPlayerPrepareShoot.hpp</text>
</a>
</g>
</g>
<!-- Node1&#45;&gt;Node17 -->
<g id="edge17" class="edge">
<title>Node1&#45;&gt;Node17</title>
<path fill="none" stroke="#63b8ff" d="M804.94,-186.59C773,-163.65 710.43,-118.71 673.42,-92.13"/>
<polygon fill="#63b8ff" stroke="#63b8ff" points="675.54,-89.35 665.38,-86.36 671.46,-95.03 675.54,-89.35"/>
</g>
<!-- Node18 -->
<g id="node18" class="node">
<title>Node18</title>
<g id="a_node18"><a xlink:href="_c2_s_player_shoot_8hpp_source.html" target="_top" xlink:title=" ">
<polygon fill="white" stroke="#666666" points="842.5,-85 733.5,-85 733.5,-55 842.5,-55 842.5,-85"/>
<text text-anchor="start" x="741.5" y="-73" font-family="Helvetica,sans-Serif" font-size="10.00">packets/udp/client</text>
<text text-anchor="middle" x="788" y="-62" font-family="Helvetica,sans-Serif" font-size="10.00">/C2SPlayerShoot.hpp</text>
</a>
</g>
</g>
<!-- Node1&#45;&gt;Node18 -->
<g id="edge19" class="edge">
<title>Node1&#45;&gt;Node18</title>
<path fill="none" stroke="#63b8ff" d="M817.75,-186.89C812.96,-177.06 806.87,-163.5 803,-151 797.48,-133.14 793.66,-112.38 791.25,-96.48"/>
<polygon fill="#63b8ff" stroke="#63b8ff" points="794.77,-96.31 789.9,-86.9 787.83,-97.29 794.77,-96.31"/>
</g>
<!-- Node19 -->
<g id="node19" class="node">
<title>Node19</title>
<g id="a_node19"><a xlink:href="_c2_s_client_connected_8hpp_source.html" target="_top" xlink:title=" ">
<polygon fill="white" stroke="#666666" points="648,-151 520,-151 520,-121 648,-121 648,-151"/>
<text text-anchor="start" x="528" y="-139" font-family="Helvetica,sans-Serif" font-size="10.00">packets/udp/client</text>
<text text-anchor="middle" x="584" y="-128" font-family="Helvetica,sans-Serif" font-size="10.00">/C2SClientConnected.hpp</text>
</a>
</g>
</g>
<!-- Node1&#45;&gt;Node19 -->
<g id="edge21" class="edge">
<title>Node1&#45;&gt;Node19</title>
<path fill="none" stroke="#63b8ff" d="M770.61,-186.56C734.6,-176.99 687.18,-164.4 649.15,-154.3"/>
<polygon fill="#63b8ff" stroke="#63b8ff" points="650.21,-150.96 639.65,-151.78 648.42,-157.73 650.21,-150.96"/>
</g>
<!-- Node20 -->
<g id="node20" class="node">
<title>Node20</title>
<g id="a_node20"><a xlink:href="_s2_c_entity_spawn_8hpp_source.html" target="_top" xlink:title=" ">
<polygon fill="white" stroke="#666666" points="1009,-85 899,-85 899,-55 1009,-55 1009,-85"/>
<text text-anchor="start" x="907" y="-73" font-family="Helvetica,sans-Serif" font-size="10.00">packets/udp/server</text>
<text text-anchor="middle" x="954" y="-62" font-family="Helvetica,sans-Serif" font-size="10.00">/S2CEntitySpawn.hpp</text>
</a>
</g>
</g>
<!-- Node1&#45;&gt;Node20 -->
<g id="edge24" class="edge">
<title>Node1&#45;&gt;Node20</title>
<path fill="none" stroke="#63b8ff" d="M880.3,-186.56C899.79,-178.93 920.24,-167.58 934,-151 946.58,-135.84 951.42,-113.87 953.2,-96.78"/>
<polygon fill="#63b8ff" stroke="#63b8ff" points="956.68,-97.11 953.91,-86.88 949.7,-96.6 956.68,-97.11"/>
</g>
<!-- Node21 -->
<g id="node21" class="node">
<title>Node21</title>
<g id="a_node21"><a xlink:href="_s2_c_spawn_player_8hpp_source.html" target="_top" xlink:title=" ">
<polygon fill="white" stroke="#666666" points="924.5,-151 811.5,-151 811.5,-121 924.5,-121 924.5,-151"/>
<text text-anchor="start" x="819.5" y="-139" font-family="Helvetica,sans-Serif" font-size="10.00">packets/udp/server</text>
<text text-anchor="middle" x="868" y="-128" font-family="Helvetica,sans-Serif" font-size="10.00">/S2CSpawnPlayer.hpp</text>
</a>
</g>
</g>
<!-- Node1&#45;&gt;Node21 -->
<g id="edge26" class="edge">
<title>Node1&#45;&gt;Node21</title>
<path fill="none" stroke="#63b8ff" d="M834.54,-186.8C839.72,-179.09 846.25,-169.37 852.17,-160.56"/>
<polygon fill="#63b8ff" stroke="#63b8ff" points="854.97,-162.67 857.64,-152.42 849.16,-158.77 854.97,-162.67"/>
</g>
<!-- Node22 -->
<g id="node22" class="node">
<title>Node22</title>
<g id="a_node22"><a xlink:href="_s2_c_spawn_bullet_8hpp_source.html" target="_top" xlink:title=" ">
<polygon fill="white" stroke="#666666" points="1092.5,-151 981.5,-151 981.5,-121 1092.5,-121 1092.5,-151"/>
<text text-anchor="start" x="989.5" y="-139" font-family="Helvetica,sans-Serif" font-size="10.00">packets/udp/server</text>
<text text-anchor="middle" x="1037" y="-128" font-family="Helvetica,sans-Serif" font-size="10.00">/S2CSpawnBullet.hpp</text>
</a>
</g>
</g>
<!-- Node1&#45;&gt;Node22 -->
<g id="edge29" class="edge">
<title>Node1&#45;&gt;Node22</title>
<path fill="none" stroke="#63b8ff" d="M872.84,-186.56C904.11,-177.12 945.16,-164.72 978.39,-154.69"/>
<polygon fill="#63b8ff" stroke="#63b8ff" points="979.32,-158.07 987.88,-151.83 977.3,-151.37 979.32,-158.07"/>
</g>
<!-- Node3 -->
<g id="node3" class="node">
<title>Node3</title>
<g id="a_node3"><a xlink:title=" ">
<polygon fill="#e0e0e0" stroke="#999999" points="927.5,-19 814.5,-19 814.5,0 927.5,0 927.5,-19"/>
<text text-anchor="middle" x="871" y="-7" font-family="Helvetica,sans-Serif" font-size="10.00">saturnity/Saturnity.hpp</text>
</a>
</g>
</g>
<!-- Node2&#45;&gt;Node3 -->
<g id="edge2" class="edge">
<title>Node2&#45;&gt;Node3</title>
<path fill="none" stroke="#63b8ff" d="M1067.48,-54.54C1022.54,-44.47 963.43,-31.22 921.83,-21.89"/>
<polygon fill="#63b8ff" stroke="#63b8ff" points="922.85,-18.54 912.33,-19.76 921.32,-25.37 922.85,-18.54"/>
</g>
<!-- Node4&#45;&gt;Node3 -->
<g id="edge4" class="edge">
<title>Node4&#45;&gt;Node3</title>
<path fill="none" stroke="#63b8ff" d="M450.67,-120.71C471.91,-102.22 511.84,-70.54 552,-55 557.83,-52.75 711.12,-31.93 803.05,-19.59"/>
<polygon fill="#63b8ff" stroke="#63b8ff" points="803.27,-23.09 812.71,-18.29 802.34,-16.15 803.27,-23.09"/>
</g>
<!-- Node5 -->
<g id="node5" class="node">
<title>Node5</title>
<g id="a_node5"><a xlink:href="uuidv4_8hpp_source.html" target="_top" xlink:title=" ">
<polygon fill="white" stroke="#666666" points="477.5,-79.5 346.5,-79.5 346.5,-60.5 477.5,-60.5 477.5,-79.5"/>
<text text-anchor="middle" x="412" y="-67.5" font-family="Helvetica,sans-Serif" font-size="10.00">external/uuidv4/uuidv4.hpp</text>
</a>
</g>
</g>
<!-- Node4&#45;&gt;Node5 -->
<g id="edge5" class="edge">
<title>Node4&#45;&gt;Node5</title>
<path fill="none" stroke="#63b8ff" d="M429.9,-120.8C426.7,-111.89 422.53,-100.3 419.02,-90.54"/>
<polygon fill="#63b8ff" stroke="#63b8ff" points="422.37,-89.5 415.69,-81.27 415.78,-91.86 422.37,-89.5"/>
</g>
<!-- Node6 -->
<g id="node6" class="node">
<title>Node6</title>
<g id="a_node6"><a xlink:title=" ">
<polygon fill="#e0e0e0" stroke="#999999" points="737.5,-19 688.5,-19 688.5,0 737.5,0 737.5,-19"/>
<text text-anchor="middle" x="713" y="-7" font-family="Helvetica,sans-Serif" font-size="10.00">random</text>
</a>
</g>
</g>
<!-- Node5&#45;&gt;Node6 -->
<g id="edge6" class="edge">
<title>Node5&#45;&gt;Node6</title>
<path fill="none" stroke="#63b8ff" d="M461.77,-60.05C522.68,-49.03 623.4,-30.61 677.13,-19.27"/>
<polygon fill="#63b8ff" stroke="#63b8ff" points="677.64,-22.74 686.68,-17.21 676.17,-15.9 677.64,-22.74"/>
</g>
<!-- Node7 -->
<g id="node7" class="node">
<title>Node7</title>
<g id="a_node7"><a xlink:title=" ">
<polygon fill="#e0e0e0" stroke="#999999" points="796.5,-19 755.5,-19 755.5,0 796.5,0 796.5,-19"/>
<text text-anchor="middle" x="776" y="-7" font-family="Helvetica,sans-Serif" font-size="10.00">string</text>
</a>
</g>
</g>
<!-- Node5&#45;&gt;Node7 -->
<g id="edge7" class="edge">
<title>Node5&#45;&gt;Node7</title>
<path fill="none" stroke="#63b8ff" d="M461.89,-60.01C471.85,-58.29 482.25,-56.54 492,-55 601.1,-37.73 632.51,-42.28 744.06,-19.14"/>
<polygon fill="#63b8ff" stroke="#63b8ff" points="744.56,-22.61 753.63,-17.12 743.12,-15.76 744.56,-22.61"/>
</g>
<!-- Node8 -->
<g id="node8" class="node">
<title>Node8</title>
<g id="a_node8"><a xlink:title=" ">
<polygon fill="#e0e0e0" stroke="#999999" points="40,-19 0,-19 0,0 40,0 40,-19"/>
<text text-anchor="middle" x="20" y="-7" font-family="Helvetica,sans-Serif" font-size="10.00">limits</text>
</a>
</g>
</g>
<!-- Node5&#45;&gt;Node8 -->
<g id="edge8" class="edge">
<title>Node5&#45;&gt;Node8</title>
<path fill="none" stroke="#63b8ff" d="M346.25,-62.91C275.56,-55.69 159.8,-41.97 51.62,-19.29"/>
<polygon fill="#63b8ff" stroke="#63b8ff" points="52.49,-15.89 41.98,-17.23 51.03,-22.74 52.49,-15.89"/>
</g>
<!-- Node9 -->
<g id="node9" class="node">
<title>Node9</title>
<g id="a_node9"><a xlink:title=" ">
<polygon fill="#e0e0e0" stroke="#999999" points="112,-19 58,-19 58,0 112,0 112,-19"/>
<text text-anchor="middle" x="85" y="-7" font-family="Helvetica,sans-Serif" font-size="10.00">iostream</text>
</a>
</g>
</g>
<!-- Node5&#45;&gt;Node9 -->
<g id="edge9" class="edge">
<title>Node5&#45;&gt;Node9</title>
<path fill="none" stroke="#63b8ff" d="M353.28,-60C296.84,-51.11 208.89,-36.61 123.67,-19.44"/>
<polygon fill="#63b8ff" stroke="#63b8ff" points="124.46,-16.03 113.96,-17.47 123.07,-22.89 124.46,-16.03"/>
</g>
<!-- Node10 -->
<g id="node10" class="node">
<title>Node10</title>
<g id="a_node10"><a xlink:title=" ">
<polygon fill="#e0e0e0" stroke="#999999" points="182,-19 130,-19 130,0 182,0 182,-19"/>
<text text-anchor="middle" x="156" y="-7" font-family="Helvetica,sans-Serif" font-size="10.00">sstream</text>
</a>
</g>
</g>
<!-- Node5&#45;&gt;Node10 -->
<g id="edge10" class="edge">
<title>Node5&#45;&gt;Node10</title>
<path fill="none" stroke="#63b8ff" d="M371.63,-60.07C329.54,-50.71 261.37,-35.43 193.29,-19.51"/>
<polygon fill="#63b8ff" stroke="#63b8ff" points="194.37,-16.17 183.84,-17.29 192.77,-22.98 194.37,-16.17"/>
</g>
<!-- Node11 -->
<g id="node11" class="node">
<title>Node11</title>
<g id="a_node11"><a xlink:title=" ">
<polygon fill="#e0e0e0" stroke="#999999" points="246,-19 200,-19 200,0 246,0 246,-19"/>
<text text-anchor="middle" x="223" y="-7" font-family="Helvetica,sans-Serif" font-size="10.00">cstdint</text>
</a>
</g>
</g>
<!-- Node5&#45;&gt;Node11 -->
<g id="edge11" class="edge">
<title>Node5&#45;&gt;Node11</title>
<path fill="none" stroke="#63b8ff" d="M383.29,-60.12C349.47,-49.65 293.32,-32.27 257.25,-21.1"/>
<polygon fill="#63b8ff" stroke="#63b8ff" points="258.33,-17.77 247.75,-18.16 256.26,-24.46 258.33,-17.77"/>
</g>
<!-- Node12 -->
<g id="node12" class="node">
<title>Node12</title>
<g id="a_node12"><a xlink:title=" ">
<polygon fill="#e0e0e0" stroke="#999999" points="315.5,-19 264.5,-19 264.5,0 315.5,0 315.5,-19"/>
<text text-anchor="middle" x="290" y="-7" font-family="Helvetica,sans-Serif" font-size="10.00">memory</text>
</a>
</g>
</g>
<!-- Node5&#45;&gt;Node12 -->
<g id="edge12" class="edge">
<title>Node5&#45;&gt;Node12</title>
<path fill="none" stroke="#63b8ff" d="M393.47,-60.12C373.68,-50.62 342.03,-35.45 318.95,-24.38"/>
<polygon fill="#63b8ff" stroke="#63b8ff" points="320.6,-21.29 310.07,-20.12 317.57,-27.6 320.6,-21.29"/>
</g>
<!-- Node13 -->
<g id="node13" class="node">
<title>Node13</title>
<g id="a_node13"><a xlink:title=" ">
<polygon fill="#e0e0e0" stroke="#999999" points="400.5,-19 333.5,-19 333.5,0 400.5,0 400.5,-19"/>
<text text-anchor="middle" x="367" y="-7" font-family="Helvetica,sans-Serif" font-size="10.00">emmintrin.h</text>
</a>
</g>
</g>
<!-- Node5&#45;&gt;Node13 -->
<g id="edge13" class="edge">
<title>Node5&#45;&gt;Node13</title>
<path fill="none" stroke="#63b8ff" d="M405.36,-60.37C398.85,-51.9 388.72,-38.74 380.51,-28.07"/>
<polygon fill="#63b8ff" stroke="#63b8ff" points="383.46,-26.16 374.59,-20.37 377.91,-30.43 383.46,-26.16"/>
</g>
<!-- Node14 -->
<g id="node14" class="node">
<title>Node14</title>
<g id="a_node14"><a xlink:title=" ">
<polygon fill="#e0e0e0" stroke="#999999" points="485.5,-19 418.5,-19 418.5,0 485.5,0 485.5,-19"/>
<text text-anchor="middle" x="452" y="-7" font-family="Helvetica,sans-Serif" font-size="10.00">smmintrin.h</text>
</a>
</g>
</g>
<!-- Node5&#45;&gt;Node14 -->
<g id="edge14" class="edge">
<title>Node5&#45;&gt;Node14</title>
<path fill="none" stroke="#63b8ff" d="M417.9,-60.37C423.63,-51.99 432.51,-39.01 439.76,-28.39"/>
<polygon fill="#63b8ff" stroke="#63b8ff" points="442.46,-30.65 445.22,-20.42 436.69,-26.7 442.46,-30.65"/>
</g>
<!-- Node15 -->
<g id="node15" class="node">
<title>Node15</title>
<g id="a_node15"><a xlink:title=" ">
<polygon fill="#e0e0e0" stroke="#999999" points="568,-19 504,-19 504,0 568,0 568,-19"/>
<text text-anchor="middle" x="536" y="-7" font-family="Helvetica,sans-Serif" font-size="10.00">immintrin.h</text>
</a>
</g>
</g>
<!-- Node5&#45;&gt;Node15 -->
<g id="edge15" class="edge">
<title>Node5&#45;&gt;Node15</title>
<path fill="none" stroke="#63b8ff" d="M430.83,-60.12C450.95,-50.62 483.11,-35.45 506.58,-24.38"/>
<polygon fill="#63b8ff" stroke="#63b8ff" points="508.07,-27.55 515.62,-20.11 505.08,-21.22 508.07,-27.55"/>
</g>
<!-- Node16 -->
<g id="node16" class="node">
<title>Node16</title>
<g id="a_node16"><a xlink:href="endianness_8hpp_source.html" target="_top" xlink:title=" ">
<polygon fill="white" stroke="#666666" points="670,-19 586,-19 586,0 670,0 670,-19"/>
<text text-anchor="middle" x="628" y="-7" font-family="Helvetica,sans-Serif" font-size="10.00">endianness.hpp</text>
</a>
</g>
</g>
<!-- Node5&#45;&gt;Node16 -->
<g id="edge16" class="edge">
<title>Node5&#45;&gt;Node16</title>
<path fill="none" stroke="#63b8ff" d="M444.81,-60.12C481.92,-50.06 542.54,-33.65 583.8,-22.47"/>
<polygon fill="#63b8ff" stroke="#63b8ff" points="584.69,-25.86 593.42,-19.86 582.86,-19.1 584.69,-25.86"/>
</g>
<!-- Node17&#45;&gt;Node3 -->
<g id="edge18" class="edge">
<title>Node17&#45;&gt;Node3</title>
<path fill="none" stroke="#63b8ff" d="M700.11,-54.54C738.78,-44.57 789.51,-31.5 825.63,-22.19"/>
<polygon fill="#63b8ff" stroke="#63b8ff" points="826.06,-25.69 834.87,-19.81 824.32,-18.92 826.06,-25.69"/>
</g>
<!-- Node18&#45;&gt;Node3 -->
<g id="edge20" class="edge">
<title>Node18&#45;&gt;Node3</title>
<path fill="none" stroke="#63b8ff" d="M808.52,-54.54C820.94,-45.78 836.77,-34.63 849.39,-25.73"/>
<polygon fill="#63b8ff" stroke="#63b8ff" points="851.3,-28.67 857.45,-20.05 847.26,-22.95 851.3,-28.67"/>
</g>
<!-- Node19&#45;&gt;Node3 -->
<g id="edge22" class="edge">
<title>Node19&#45;&gt;Node3</title>
<path fill="none" stroke="#63b8ff" d="M573.28,-120.54C561.7,-103.02 546.93,-73.56 563,-55 564.97,-52.73 712.92,-32.13 803.03,-19.77"/>
<polygon fill="#63b8ff" stroke="#63b8ff" points="803.32,-23.26 812.76,-18.43 802.37,-16.32 803.32,-23.26"/>
</g>
<!-- Node19&#45;&gt;Node5 -->
<g id="edge23" class="edge">
<title>Node19&#45;&gt;Node5</title>
<path fill="none" stroke="#63b8ff" d="M545.4,-120.64C515.85,-109.64 475.43,-94.6 446.85,-83.97"/>
<polygon fill="#63b8ff" stroke="#63b8ff" points="448.16,-80.72 437.57,-80.51 445.72,-87.28 448.16,-80.72"/>
</g>
<!-- Node20&#45;&gt;Node3 -->
<g id="edge25" class="edge">
<title>Node20&#45;&gt;Node3</title>
<path fill="none" stroke="#63b8ff" d="M933.48,-54.54C921.06,-45.78 905.23,-34.63 892.61,-25.73"/>
<polygon fill="#63b8ff" stroke="#63b8ff" points="894.74,-22.95 884.55,-20.05 890.7,-28.67 894.74,-22.95"/>
</g>
<!-- Node21&#45;&gt;Node3 -->
<g id="edge27" class="edge">
<title>Node21&#45;&gt;Node3</title>
<path fill="none" stroke="#63b8ff" d="M868.34,-120.72C868.88,-98.64 869.9,-56.12 870.51,-30.83"/>
<polygon fill="#63b8ff" stroke="#63b8ff" points="874.01,-30.98 870.75,-20.9 867.01,-30.81 874.01,-30.98"/>
</g>
<!-- Node21&#45;&gt;Node20 -->
<g id="edge28" class="edge">
<title>Node21&#45;&gt;Node20</title>
<path fill="none" stroke="#63b8ff" d="M887.09,-120.8C898.36,-112.4 912.86,-101.62 925.47,-92.23"/>
<polygon fill="#63b8ff" stroke="#63b8ff" points="927.52,-95.07 933.46,-86.29 923.34,-89.45 927.52,-95.07"/>
</g>
<!-- Node22&#45;&gt;Node3 -->
<g id="edge30" class="edge">
<title>Node22&#45;&gt;Node3</title>
<path fill="none" stroke="#63b8ff" d="M1037.64,-120.59C1037.62,-102.85 1034.83,-72.88 1018,-55 997.51,-33.23 966.77,-21.99 938.69,-16.24"/>
<polygon fill="#63b8ff" stroke="#63b8ff" points="939.64,-12.85 929.17,-14.5 938.38,-19.74 939.64,-12.85"/>
</g>
<!-- Node22&#45;&gt;Node20 -->
<g id="edge31" class="edge">
<title>Node22&#45;&gt;Node20</title>
<path fill="none" stroke="#63b8ff" d="M1018.58,-120.8C1007.7,-112.4 993.7,-101.62 981.53,-92.23"/>
<polygon fill="#63b8ff" stroke="#63b8ff" points="983.91,-89.64 973.85,-86.31 979.64,-95.19 983.91,-89.64"/>
</g>
</g>
</svg>
