<?xml version="1.0" encoding="UTF-8" standalone="no"?>
<!DOCTYPE svg PUBLIC "-//W3C//DTD SVG 1.1//EN"
 "http://www.w3.org/Graphics/SVG/1.1/DTD/svg11.dtd">
<!-- Generated by graphviz version 7.0.5 (20221223.1930)
 -->
<!-- Title: /github/workspace/common/include/Packets.hpp Pages: 1 -->
<svg width="1610pt" height="280pt"
 viewBox="0.00 0.00 1610.00 280.00" xmlns="http://www.w3.org/2000/svg" xmlns:xlink="http://www.w3.org/1999/xlink">
<g id="graph0" class="graph" transform="scale(1 1) rotate(0) translate(4 276)">
<title>/github/workspace/common/include/Packets.hpp</title>
<!-- Node1 -->
<g id="node1" class="node">
<title>Node1</title>
<g id="a_node1"><a xlink:title="All packets used in the project.">
<polygon fill="#999999" stroke="#666666" points="796,-272 659,-272 659,-242 796,-242 796,-272"/>
<text text-anchor="start" x="667" y="-260" font-family="Helvetica,sans-Serif" font-size="10.00">/github/workspace/common</text>
<text text-anchor="middle" x="727.5" y="-249" font-family="Helvetica,sans-Serif" font-size="10.00">/include/Packets.hpp</text>
</a>
</g>
</g>
<!-- Node2 -->
<g id="node2" class="node">
<title>Node2</title>
<g id="a_node2"><a xlink:href="_c2_s_player_handshake_8hpp_source.html" target="_top" xlink:title=" ">
<polygon fill="white" stroke="#666666" points="1602,-206 1469,-206 1469,-176 1602,-176 1602,-206"/>
<text text-anchor="start" x="1477" y="-194" font-family="Helvetica,sans-Serif" font-size="10.00">packets/tcp/client</text>
<text text-anchor="middle" x="1535.5" y="-183" font-family="Helvetica,sans-Serif" font-size="10.00">/C2SPlayerHandshake.hpp</text>
</a>
</g>
</g>
<!-- Node1&#45;&gt;Node2 -->
<g id="edge1" class="edge">
<title>Node1&#45;&gt;Node2</title>
<path fill="none" stroke="#63b8ff" d="M796.38,-253.91C924.52,-249.46 1208.37,-236.91 1457.74,-206.11"/>
<polygon fill="#63b8ff" stroke="#63b8ff" points="1457.85,-209.62 1467.34,-204.91 1456.98,-202.68 1457.85,-209.62"/>
</g>
<!-- Node4 -->
<g id="node4" class="node">
<title>Node4</title>
<g id="a_node4"><a xlink:href="_s2_c_player_authentified_8hpp_source.html" target="_top" xlink:title=" ">
<polygon fill="white" stroke="#666666" points="946.5,-140 812.5,-140 812.5,-110 946.5,-110 946.5,-140"/>
<text text-anchor="start" x="820.5" y="-128" font-family="Helvetica,sans-Serif" font-size="10.00">packets/tcp/server</text>
<text text-anchor="middle" x="879.5" y="-117" font-family="Helvetica,sans-Serif" font-size="10.00">/S2CPlayerAuthentified.hpp</text>
</a>
</g>
</g>
<!-- Node1&#45;&gt;Node4 -->
<g id="edge3" class="edge">
<title>Node1&#45;&gt;Node4</title>
<path fill="none" stroke="#63b8ff" d="M714.15,-241.8C699.85,-224.8 681.13,-196.13 696.5,-176 703.3,-167.09 754.59,-153.53 801.14,-142.77"/>
<polygon fill="#63b8ff" stroke="#63b8ff" points="801.77,-146.22 810.74,-140.58 800.21,-139.39 801.77,-146.22"/>
</g>
<!-- Node17 -->
<g id="node17" class="node">
<title>Node17</title>
<g id="a_node17"><a xlink:href="_s2_c_player_score_8hpp_source.html" target="_top" xlink:title=" ">
<polygon fill="white" stroke="#666666" points="109,-140 0,-140 0,-110 109,-110 109,-140"/>
<text text-anchor="start" x="8" y="-128" font-family="Helvetica,sans-Serif" font-size="10.00">packets/tcp/server</text>
<text text-anchor="middle" x="54.5" y="-117" font-family="Helvetica,sans-Serif" font-size="10.00">/S2CPlayerScore.hpp</text>
</a>
</g>
</g>
<!-- Node1&#45;&gt;Node17 -->
<g id="edge17" class="edge">
<title>Node1&#45;&gt;Node17</title>
<path fill="none" stroke="#63b8ff" d="M658.58,-253.2C534.46,-247.55 278.36,-232.98 193.5,-206 151.91,-192.78 109.14,-165.75 82.22,-146.79"/>
<polygon fill="#63b8ff" stroke="#63b8ff" points="84.45,-144.08 74.29,-141.09 80.37,-149.76 84.45,-144.08"/>
</g>
<!-- Node18 -->
<g id="node18" class="node">
<title>Node18</title>
<g id="a_node18"><a xlink:href="_c2_s_client_connected_8hpp_source.html" target="_top" xlink:title=" ">
<polygon fill="white" stroke="#666666" points="448.5,-140 320.5,-140 320.5,-110 448.5,-110 448.5,-140"/>
<text text-anchor="start" x="328.5" y="-128" font-family="Helvetica,sans-Serif" font-size="10.00">packets/udp/client</text>
<text text-anchor="middle" x="384.5" y="-117" font-family="Helvetica,sans-Serif" font-size="10.00">/C2SClientConnected.hpp</text>
</a>
</g>
</g>
<!-- Node1&#45;&gt;Node18 -->
<g id="edge20" class="edge">
<title>Node1&#45;&gt;Node18</title>
<path fill="none" stroke="#63b8ff" d="M658.58,-250.35C608.64,-244.25 540.51,-231.68 485.5,-206 454.92,-191.72 425.3,-166.48 406.13,-148.16"/>
<polygon fill="#63b8ff" stroke="#63b8ff" points="408.77,-145.85 399.18,-141.36 403.87,-150.85 408.77,-145.85"/>
</g>
<!-- Node19 -->
<g id="node19" class="node">
<title>Node19</title>
<g id="a_node19"><a xlink:href="_c2_s_player_prepare_shoot_8hpp_source.html" target="_top" xlink:title=" ">
<polygon fill="white" stroke="#666666" points="849,-206 706,-206 706,-176 849,-176 849,-206"/>
<text text-anchor="start" x="714" y="-194" font-family="Helvetica,sans-Serif" font-size="10.00">packets/udp/client</text>
<text text-anchor="middle" x="777.5" y="-183" font-family="Helvetica,sans-Serif" font-size="10.00">/C2SPlayerPrepareShoot.hpp</text>
</a>
</g>
</g>
<!-- Node1&#45;&gt;Node19 -->
<g id="edge23" class="edge">
<title>Node1&#45;&gt;Node19</title>
<path fill="none" stroke="#63b8ff" d="M738.6,-241.8C744.75,-233.92 752.54,-223.95 759.54,-214.99"/>
<polygon fill="#63b8ff" stroke="#63b8ff" points="762.1,-217.39 765.5,-207.36 756.59,-213.08 762.1,-217.39"/>
</g>
<!-- Node20 -->
<g id="node20" class="node">
<title>Node20</title>
<g id="a_node20"><a xlink:href="_c2_s_player_shoot_8hpp_source.html" target="_top" xlink:title=" ">
<polygon fill="white" stroke="#666666" points="976,-206 867,-206 867,-176 976,-176 976,-206"/>
<text text-anchor="start" x="875" y="-194" font-family="Helvetica,sans-Serif" font-size="10.00">packets/udp/client</text>
<text text-anchor="middle" x="921.5" y="-183" font-family="Helvetica,sans-Serif" font-size="10.00">/C2SPlayerShoot.hpp</text>
</a>
</g>
</g>
<!-- Node1&#45;&gt;Node20 -->
<g id="edge25" class="edge">
<title>Node1&#45;&gt;Node20</title>
<path fill="none" stroke="#63b8ff" d="M771.04,-241.64C799.39,-232.28 836.61,-220 866.94,-210"/>
<polygon fill="#63b8ff" stroke="#63b8ff" points="867.94,-213.36 876.34,-206.9 865.74,-206.71 867.94,-213.36"/>
</g>
<!-- Node21 -->
<g id="node21" class="node">
<title>Node21</title>
<g id="a_node21"><a xlink:href="_c2_s_skill_entity_8hpp_source.html" target="_top" xlink:title=" ">
<polygon fill="white" stroke="#666666" points="226,-140 127,-140 127,-110 226,-110 226,-140"/>
<text text-anchor="start" x="135" y="-128" font-family="Helvetica,sans-Serif" font-size="10.00">packets/udp/client</text>
<text text-anchor="middle" x="176.5" y="-117" font-family="Helvetica,sans-Serif" font-size="10.00">/C2SSkillEntity.hpp</text>
</a>
</g>
</g>
<!-- Node1&#45;&gt;Node21 -->
<g id="edge27" class="edge">
<title>Node1&#45;&gt;Node21</title>
<path fill="none" stroke="#63b8ff" d="M658.78,-256.72C538.05,-256.77 293.95,-251.08 223.5,-206 203.84,-193.42 191.37,-169.44 184.26,-151.01"/>
<polygon fill="#63b8ff" stroke="#63b8ff" points="187.65,-150.08 181.01,-141.82 181.05,-152.42 187.65,-150.08"/>
</g>
<!-- Node22 -->
<g id="node22" class="node">
<title>Node22</title>
<g id="a_node22"><a xlink:href="_c2_s_skill_player_8hpp_source.html" target="_top" xlink:title=" ">
<polygon fill="white" stroke="#666666" points="334.5,-206 232.5,-206 232.5,-176 334.5,-176 334.5,-206"/>
<text text-anchor="start" x="240.5" y="-194" font-family="Helvetica,sans-Serif" font-size="10.00">packets/udp/client</text>
<text text-anchor="middle" x="283.5" y="-183" font-family="Helvetica,sans-Serif" font-size="10.00">/C2SSkillPlayer.hpp</text>
</a>
</g>
</g>
<!-- Node1&#45;&gt;Node22 -->
<g id="edge30" class="edge">
<title>Node1&#45;&gt;Node22</title>
<path fill="none" stroke="#63b8ff" d="M658.61,-246.07C573.12,-233.75 428.56,-212.91 346.09,-201.02"/>
<polygon fill="#63b8ff" stroke="#63b8ff" points="346.78,-197.58 336.38,-199.62 345.78,-204.51 346.78,-197.58"/>
</g>
<!-- Node23 -->
<g id="node23" class="node">
<title>Node23</title>
<g id="a_node23"><a xlink:href="_c2_s_client_disconnect_8hpp_source.html" target="_top" xlink:title=" ">
<polygon fill="white" stroke="#666666" points="596.5,-140 466.5,-140 466.5,-110 596.5,-110 596.5,-140"/>
<text text-anchor="start" x="474.5" y="-128" font-family="Helvetica,sans-Serif" font-size="10.00">packets/udp/client</text>
<text text-anchor="middle" x="531.5" y="-117" font-family="Helvetica,sans-Serif" font-size="10.00">/C2SClientDisconnect.hpp</text>
</a>
</g>
</g>
<!-- Node1&#45;&gt;Node23 -->
<g id="edge34" class="edge">
<title>Node1&#45;&gt;Node23</title>
<path fill="none" stroke="#63b8ff" d="M658.78,-250.65C597.66,-244.3 514.88,-231.22 494.5,-206 480.66,-188.87 494.07,-165.72 508.47,-148.73"/>
<polygon fill="#63b8ff" stroke="#63b8ff" points="510.82,-151.35 514.94,-141.59 505.63,-146.65 510.82,-151.35"/>
</g>
<!-- Node24 -->
<g id="node24" class="node">
<title>Node24</title>
<g id="a_node24"><a xlink:href="_s2_c_entity_move_8hpp_source.html" target="_top" xlink:title=" ">
<polygon fill="white" stroke="#666666" points="794.5,-140 690.5,-140 690.5,-110 794.5,-110 794.5,-140"/>
<text text-anchor="start" x="698.5" y="-128" font-family="Helvetica,sans-Serif" font-size="10.00">packets/udp/server</text>
<text text-anchor="middle" x="742.5" y="-117" font-family="Helvetica,sans-Serif" font-size="10.00">/S2CEntityMove.hpp</text>
</a>
</g>
</g>
<!-- Node1&#45;&gt;Node24 -->
<g id="edge37" class="edge">
<title>Node1&#45;&gt;Node24</title>
<path fill="none" stroke="#63b8ff" d="M698.78,-241.54C685.44,-233.14 670.92,-221.21 663.5,-206 657.65,-194.02 657.07,-187.68 663.5,-176 670.48,-163.32 682.18,-153.41 694.47,-145.87"/>
<polygon fill="#63b8ff" stroke="#63b8ff" points="696.03,-149.01 703.05,-141.07 692.61,-142.9 696.03,-149.01"/>
</g>
<!-- Node25 -->
<g id="node25" class="node">
<title>Node25</title>
<g id="a_node25"><a xlink:href="_s2_c_entity_spawn_8hpp_source.html" target="_top" xlink:title=" ">
<polygon fill="white" stroke="#666666" points="1188.5,-140 1078.5,-140 1078.5,-110 1188.5,-110 1188.5,-140"/>
<text text-anchor="start" x="1086.5" y="-128" font-family="Helvetica,sans-Serif" font-size="10.00">packets/udp/server</text>
<text text-anchor="middle" x="1133.5" y="-117" font-family="Helvetica,sans-Serif" font-size="10.00">/S2CEntitySpawn.hpp</text>
</a>
</g>
</g>
<!-- Node1&#45;&gt;Node25 -->
<g id="edge40" class="edge">
<title>Node1&#45;&gt;Node25</title>
<path fill="none" stroke="#63b8ff" d="M796.12,-256.1C894.26,-254.8 1067.88,-246.6 1113.5,-206 1128.62,-192.54 1133.14,-169.55 1134.15,-151.66"/>
<polygon fill="#63b8ff" stroke="#63b8ff" points="1137.65,-151.85 1134.36,-141.78 1130.65,-151.71 1137.65,-151.85"/>
</g>
<!-- Node26 -->
<g id="node26" class="node">
<title>Node26</title>
<g id="a_node26"><a xlink:href="_s2_c_player_move_8hpp_source.html" target="_top" xlink:title=" ">
<polygon fill="white" stroke="#666666" points="611,-206 504,-206 504,-176 611,-176 611,-206"/>
<text text-anchor="start" x="512" y="-194" font-family="Helvetica,sans-Serif" font-size="10.00">packets/udp/server</text>
<text text-anchor="middle" x="557.5" y="-183" font-family="Helvetica,sans-Serif" font-size="10.00">/S2CPlayerMove.hpp</text>
</a>
</g>
</g>
<!-- Node1&#45;&gt;Node26 -->
<g id="edge42" class="edge">
<title>Node1&#45;&gt;Node26</title>
<path fill="none" stroke="#63b8ff" d="M689.35,-241.64C664.83,-232.41 632.74,-220.33 606.36,-210.39"/>
<polygon fill="#63b8ff" stroke="#63b8ff" points="607.83,-207.21 597.23,-206.96 605.36,-213.76 607.83,-207.21"/>
</g>
<!-- Node27 -->
<g id="node27" class="node">
<title>Node27</title>
<g id="a_node27"><a xlink:href="_s2_c_remove_entity_8hpp_source.html" target="_top" xlink:title=" ">
<polygon fill="white" stroke="#666666" points="1361.5,-140 1245.5,-140 1245.5,-110 1361.5,-110 1361.5,-140"/>
<text text-anchor="start" x="1253.5" y="-128" font-family="Helvetica,sans-Serif" font-size="10.00">packets/udp/server</text>
<text text-anchor="middle" x="1303.5" y="-117" font-family="Helvetica,sans-Serif" font-size="10.00">/S2CRemoveEntity.hpp</text>
</a>
</g>
</g>
<!-- Node1&#45;&gt;Node27 -->
<g id="edge46" class="edge">
<title>Node1&#45;&gt;Node27</title>
<path fill="none" stroke="#63b8ff" d="M796.44,-254.21C937.14,-249.93 1247.21,-237.05 1283.5,-206 1298.88,-192.84 1303.37,-169.82 1304.31,-151.84"/>
<polygon fill="#63b8ff" stroke="#63b8ff" points="1307.81,-151.95 1304.46,-141.89 1300.81,-151.84 1307.81,-151.95"/>
</g>
<!-- Node28 -->
<g id="node28" class="node">
<title>Node28</title>
<g id="a_node28"><a xlink:href="_s2_c_remove_player_8hpp_source.html" target="_top" xlink:title=" ">
<polygon fill="white" stroke="#666666" points="1451,-206 1332,-206 1332,-176 1451,-176 1451,-206"/>
<text text-anchor="start" x="1340" y="-194" font-family="Helvetica,sans-Serif" font-size="10.00">packets/udp/server</text>
<text text-anchor="middle" x="1391.5" y="-183" font-family="Helvetica,sans-Serif" font-size="10.00">/S2CRemovePlayer.hpp</text>
</a>
</g>
</g>
<!-- Node1&#45;&gt;Node28 -->
<g id="edge48" class="edge">
<title>Node1&#45;&gt;Node28</title>
<path fill="none" stroke="#63b8ff" d="M796.34,-252.46C906.68,-246.27 1129.84,-231.63 1317.5,-206 1318.52,-205.86 1319.55,-205.72 1320.58,-205.57"/>
<polygon fill="#63b8ff" stroke="#63b8ff" points="1320.97,-209.05 1330.32,-204.07 1319.9,-202.13 1320.97,-209.05"/>
</g>
<!-- Node29 -->
<g id="node29" class="node">
<title>Node29</title>
<g id="a_node29"><a xlink:href="_s2_c_spawn_player_8hpp_source.html" target="_top" xlink:title=" ">
<polygon fill="white" stroke="#666666" points="1275,-206 1162,-206 1162,-176 1275,-176 1275,-206"/>
<text text-anchor="start" x="1170" y="-194" font-family="Helvetica,sans-Serif" font-size="10.00">packets/udp/server</text>
<text text-anchor="middle" x="1218.5" y="-183" font-family="Helvetica,sans-Serif" font-size="10.00">/S2CSpawnPlayer.hpp</text>
</a>
</g>
</g>
<!-- Node1&#45;&gt;Node29 -->
<g id="edge51" class="edge">
<title>Node1&#45;&gt;Node29</title>
<path fill="none" stroke="#63b8ff" d="M796.47,-249.42C879.87,-241.08 1024.38,-225.44 1147.5,-206 1148.5,-205.84 1149.52,-205.68 1150.53,-205.51"/>
<polygon fill="#63b8ff" stroke="#63b8ff" points="1150.85,-209.01 1160.11,-203.87 1149.66,-202.11 1150.85,-209.01"/>
</g>
<!-- Node30 -->
<g id="node30" class="node">
<title>Node30</title>
<g id="a_node30"><a xlink:href="_s2_c_spawn_bullet_8hpp_source.html" target="_top" xlink:title=" ">
<polygon fill="white" stroke="#666666" points="1105,-206 994,-206 994,-176 1105,-176 1105,-206"/>
<text text-anchor="start" x="1002" y="-194" font-family="Helvetica,sans-Serif" font-size="10.00">packets/udp/server</text>
<text text-anchor="middle" x="1049.5" y="-183" font-family="Helvetica,sans-Serif" font-size="10.00">/S2CSpawnBullet.hpp</text>
</a>
</g>
</g>
<!-- Node1&#45;&gt;Node30 -->
<g id="edge54" class="edge">
<title>Node1&#45;&gt;Node30</title>
<path fill="none" stroke="#63b8ff" d="M796.3,-243C845.46,-233.62 913.49,-220.47 982.73,-206.34"/>
<polygon fill="#63b8ff" stroke="#63b8ff" points="983.27,-209.8 992.36,-204.37 981.86,-202.94 983.27,-209.8"/>
</g>
<!-- Node3 -->
<g id="node3" class="node">
<title>Node3</title>
<g id="a_node3"><a xlink:title=" ">
<polygon fill="#e0e0e0" stroke="#999999" points="983,-74 870,-74 870,-55 983,-55 983,-74"/>
<text text-anchor="middle" x="926.5" y="-62" font-family="Helvetica,sans-Serif" font-size="10.00">saturnity/Saturnity.hpp</text>
</a>
</g>
</g>
<!-- Node2&#45;&gt;Node3 -->
<g id="edge2" class="edge">
<title>Node2&#45;&gt;Node3</title>
<path fill="none" stroke="#63b8ff" d="M1516.49,-175.81C1490.32,-157.13 1441.02,-124.91 1393.5,-110 1320.98,-87.25 1105.97,-74.02 994.79,-68.52"/>
<polygon fill="#63b8ff" stroke="#63b8ff" points="995.06,-65.03 984.9,-68.04 994.72,-72.02 995.06,-65.03"/>
</g>
<!-- Node4&#45;&gt;Node3 -->
<g id="edge4" class="edge">
<title>Node4&#45;&gt;Node3</title>
<path fill="none" stroke="#63b8ff" d="M891.12,-109.54C897.6,-101.48 905.71,-91.38 912.53,-82.89"/>
<polygon fill="#63b8ff" stroke="#63b8ff" points="915.05,-85.34 918.58,-75.36 909.59,-80.96 915.05,-85.34"/>
</g>
<!-- Node5 -->
<g id="node5" class="node">
<title>Node5</title>
<g id="a_node5"><a xlink:href="uuidv4_8hpp_source.html" target="_top" xlink:title=" ">
<polygon fill="white" stroke="#666666" points="524,-74 393,-74 393,-55 524,-55 524,-74"/>
<text text-anchor="middle" x="458.5" y="-62" font-family="Helvetica,sans-Serif" font-size="10.00">external/uuidv4/uuidv4.hpp</text>
</a>
</g>
</g>
<!-- Node4&#45;&gt;Node5 -->
<g id="edge5" class="edge">
<title>Node4&#45;&gt;Node5</title>
<path fill="none" stroke="#63b8ff" d="M812.4,-111.44C809.39,-110.94 806.42,-110.46 803.5,-110 711.8,-95.65 605.85,-82.49 535.82,-74.27"/>
<polygon fill="#63b8ff" stroke="#63b8ff" points="536.31,-70.8 525.97,-73.11 535.5,-77.75 536.31,-70.8"/>
</g>
<!-- Node6 -->
<g id="node6" class="node">
<title>Node6</title>
<g id="a_node6"><a xlink:title=" ">
<polygon fill="#e0e0e0" stroke="#999999" points="158,-19 109,-19 109,0 158,0 158,-19"/>
<text text-anchor="middle" x="133.5" y="-7" font-family="Helvetica,sans-Serif" font-size="10.00">random</text>
</a>
</g>
</g>
<!-- Node5&#45;&gt;Node6 -->
<g id="edge6" class="edge">
<title>Node5&#45;&gt;Node6</title>
<path fill="none" stroke="#63b8ff" d="M392.64,-55.39C335.85,-47.97 251.44,-35.89 169.57,-19.47"/>
<polygon fill="#63b8ff" stroke="#63b8ff" points="170.28,-16.04 159.79,-17.48 168.89,-22.9 170.28,-16.04"/>
</g>
<!-- Node7 -->
<g id="node7" class="node">
<title>Node7</title>
<g id="a_node7"><a xlink:title=" ">
<polygon fill="#e0e0e0" stroke="#999999" points="217,-19 176,-19 176,0 217,0 217,-19"/>
<text text-anchor="middle" x="196.5" y="-7" font-family="Helvetica,sans-Serif" font-size="10.00">string</text>
</a>
</g>
</g>
<!-- Node5&#45;&gt;Node7 -->
<g id="edge7" class="edge">
<title>Node5&#45;&gt;Node7</title>
<path fill="none" stroke="#63b8ff" d="M404.77,-54.56C360.06,-46.8 294.52,-34.74 228.46,-19.29"/>
<polygon fill="#63b8ff" stroke="#63b8ff" points="229.43,-15.92 218.89,-17.03 227.82,-22.73 229.43,-15.92"/>
</g>
<!-- Node8 -->
<g id="node8" class="node">
<title>Node8</title>
<g id="a_node8"><a xlink:title=" ">
<polygon fill="#e0e0e0" stroke="#999999" points="275.5,-19 235.5,-19 235.5,0 275.5,0 275.5,-19"/>
<text text-anchor="middle" x="255.5" y="-7" font-family="Helvetica,sans-Serif" font-size="10.00">limits</text>
</a>
</g>
</g>
<!-- Node5&#45;&gt;Node8 -->
<g id="edge8" class="edge">
<title>Node5&#45;&gt;Node8</title>
<path fill="none" stroke="#63b8ff" d="M422.08,-54.58C389.08,-46.4 338.86,-33.76 286.58,-19.5"/>
<polygon fill="#63b8ff" stroke="#63b8ff" points="287.79,-16.2 277.22,-16.93 285.93,-22.95 287.79,-16.2"/>
</g>
<!-- Node9 -->
<g id="node9" class="node">
<title>Node9</title>
<g id="a_node9"><a xlink:title=" ">
<polygon fill="#e0e0e0" stroke="#999999" points="347.5,-19 293.5,-19 293.5,0 347.5,0 347.5,-19"/>
<text text-anchor="middle" x="320.5" y="-7" font-family="Helvetica,sans-Serif" font-size="10.00">iostream</text>
</a>
</g>
</g>
<!-- Node5&#45;&gt;Node9 -->
<g id="edge9" class="edge">
<title>Node5&#45;&gt;Node9</title>
<path fill="none" stroke="#63b8ff" d="M435.09,-54.51C412.85,-45.97 379.17,-33.03 354.08,-23.4"/>
<polygon fill="#63b8ff" stroke="#63b8ff" points="355.57,-20.22 344.98,-19.9 353.06,-26.75 355.57,-20.22"/>
</g>
<!-- Node10 -->
<g id="node10" class="node">
<title>Node10</title>
<g id="a_node10"><a xlink:title=" ">
<polygon fill="#e0e0e0" stroke="#999999" points="417.5,-19 365.5,-19 365.5,0 417.5,0 417.5,-19"/>
<text text-anchor="middle" x="391.5" y="-7" font-family="Helvetica,sans-Serif" font-size="10.00">sstream</text>
</a>
</g>
</g>
<!-- Node5&#45;&gt;Node10 -->
<g id="edge10" class="edge">
<title>Node5&#45;&gt;Node10</title>
<path fill="none" stroke="#63b8ff" d="M447.13,-54.51C437.45,-46.85 423.3,-35.66 411.69,-26.47"/>
<polygon fill="#63b8ff" stroke="#63b8ff" points="413.9,-23.76 403.88,-20.3 409.56,-29.25 413.9,-23.76"/>
</g>
<!-- Node11 -->
<g id="node11" class="node">
<title>Node11</title>
<g id="a_node11"><a xlink:title=" ">
<polygon fill="#e0e0e0" stroke="#999999" points="481.5,-19 435.5,-19 435.5,0 481.5,0 481.5,-19"/>
<text text-anchor="middle" x="458.5" y="-7" font-family="Helvetica,sans-Serif" font-size="10.00">cstdint</text>
</a>
</g>
</g>
<!-- Node5&#45;&gt;Node11 -->
<g id="edge11" class="edge">
<title>Node5&#45;&gt;Node11</title>
<path fill="none" stroke="#63b8ff" d="M458.5,-54.75C458.5,-48.27 458.5,-39.16 458.5,-30.9"/>
<polygon fill="#63b8ff" stroke="#63b8ff" points="462,-30.96 458.5,-20.96 455,-30.96 462,-30.96"/>
</g>
<!-- Node12 -->
<g id="node12" class="node">
<title>Node12</title>
<g id="a_node12"><a xlink:title=" ">
<polygon fill="#e0e0e0" stroke="#999999" points="551,-19 500,-19 500,0 551,0 551,-19"/>
<text text-anchor="middle" x="525.5" y="-7" font-family="Helvetica,sans-Serif" font-size="10.00">memory</text>
</a>
</g>
</g>
<!-- Node5&#45;&gt;Node12 -->
<g id="edge12" class="edge">
<title>Node5&#45;&gt;Node12</title>
<path fill="none" stroke="#63b8ff" d="M469.87,-54.51C479.55,-46.85 493.7,-35.66 505.31,-26.47"/>
<polygon fill="#63b8ff" stroke="#63b8ff" points="507.44,-29.25 513.12,-20.3 503.1,-23.76 507.44,-29.25"/>
</g>
<!-- Node13 -->
<g id="node13" class="node">
<title>Node13</title>
<g id="a_node13"><a xlink:title=" ">
<polygon fill="#e0e0e0" stroke="#999999" points="636,-19 569,-19 569,0 636,0 636,-19"/>
<text text-anchor="middle" x="602.5" y="-7" font-family="Helvetica,sans-Serif" font-size="10.00">emmintrin.h</text>
</a>
</g>
</g>
<!-- Node5&#45;&gt;Node13 -->
<g id="edge13" class="edge">
<title>Node5&#45;&gt;Node13</title>
<path fill="none" stroke="#63b8ff" d="M482.93,-54.51C506.24,-45.93 541.59,-32.92 567.81,-23.27"/>
<polygon fill="#63b8ff" stroke="#63b8ff" points="568.84,-26.62 577.01,-19.88 566.42,-20.05 568.84,-26.62"/>
</g>
<!-- Node14 -->
<g id="node14" class="node">
<title>Node14</title>
<g id="a_node14"><a xlink:title=" ">
<polygon fill="#e0e0e0" stroke="#999999" points="721,-19 654,-19 654,0 721,0 721,-19"/>
<text text-anchor="middle" x="687.5" y="-7" font-family="Helvetica,sans-Serif" font-size="10.00">smmintrin.h</text>
</a>
</g>
</g>
<!-- Node5&#45;&gt;Node14 -->
<g id="edge14" class="edge">
<title>Node5&#45;&gt;Node14</title>
<path fill="none" stroke="#63b8ff" d="M497.35,-54.51C537.56,-45.2 600.3,-30.68 642.61,-20.89"/>
<polygon fill="#63b8ff" stroke="#63b8ff" points="643.27,-24.33 652.22,-18.67 641.69,-17.51 643.27,-24.33"/>
</g>
<!-- Node15 -->
<g id="node15" class="node">
<title>Node15</title>
<g id="a_node15"><a xlink:title=" ">
<polygon fill="#e0e0e0" stroke="#999999" points="803.5,-19 739.5,-19 739.5,0 803.5,0 803.5,-19"/>
<text text-anchor="middle" x="771.5" y="-7" font-family="Helvetica,sans-Serif" font-size="10.00">immintrin.h</text>
</a>
</g>
</g>
<!-- Node5&#45;&gt;Node15 -->
<g id="edge15" class="edge">
<title>Node5&#45;&gt;Node15</title>
<path fill="none" stroke="#63b8ff" d="M517.02,-54.53C569.51,-46.34 648.93,-33.59 728.23,-19.17"/>
<polygon fill="#63b8ff" stroke="#63b8ff" points="728.72,-22.63 737.93,-17.39 727.46,-15.75 728.72,-22.63"/>
</g>
<!-- Node16 -->
<g id="node16" class="node">
<title>Node16</title>
<g id="a_node16"><a xlink:href="endianness_8hpp_source.html" target="_top" xlink:title=" ">
<polygon fill="white" stroke="#666666" points="905.5,-19 821.5,-19 821.5,0 905.5,0 905.5,-19"/>
<text text-anchor="middle" x="863.5" y="-7" font-family="Helvetica,sans-Serif" font-size="10.00">endianness.hpp</text>
</a>
</g>
</g>
<!-- Node5&#45;&gt;Node16 -->
<g id="edge16" class="edge">
<title>Node5&#45;&gt;Node16</title>
<path fill="none" stroke="#63b8ff" d="M524.18,-56.04C592.9,-48.06 704.2,-34.62 810.01,-19.31"/>
<polygon fill="#63b8ff" stroke="#63b8ff" points="810.33,-22.8 819.72,-17.9 809.32,-15.88 810.33,-22.8"/>
</g>
<!-- Node17&#45;&gt;Node3 -->
<g id="edge18" class="edge">
<title>Node17&#45;&gt;Node3</title>
<path fill="none" stroke="#63b8ff" d="M109.38,-111.25C112.12,-110.79 114.84,-110.37 117.5,-110 390.27,-72.45 718.9,-66.31 858.48,-65.49"/>
<polygon fill="#63b8ff" stroke="#63b8ff" points="858.3,-69 868.29,-65.45 858.27,-62 858.3,-69"/>
</g>
<!-- Node17&#45;&gt;Node5 -->
<g id="edge19" class="edge">
<title>Node17&#45;&gt;Node5</title>
<path fill="none" stroke="#63b8ff" d="M109.42,-111.49C112.15,-110.97 114.85,-110.47 117.5,-110 207.59,-94.14 312,-81.33 381.31,-73.59"/>
<polygon fill="#63b8ff" stroke="#63b8ff" points="381.49,-77.09 391.04,-72.51 380.72,-70.14 381.49,-77.09"/>
</g>
<!-- Node18&#45;&gt;Node3 -->
<g id="edge21" class="edge">
<title>Node18&#45;&gt;Node3</title>
<path fill="none" stroke="#63b8ff" d="M448.93,-111.3C451.82,-110.84 454.69,-110.4 457.5,-110 599.4,-89.71 766.81,-76.34 858.31,-69.93"/>
<polygon fill="#63b8ff" stroke="#63b8ff" points="858.38,-73.44 868.11,-69.25 857.89,-66.45 858.38,-73.44"/>
</g>
<!-- Node18&#45;&gt;Node5 -->
<g id="edge22" class="edge">
<title>Node18&#45;&gt;Node5</title>
<path fill="none" stroke="#63b8ff" d="M402.79,-109.54C413.65,-100.96 427.42,-90.07 438.56,-81.26"/>
<polygon fill="#63b8ff" stroke="#63b8ff" points="440.66,-84.06 446.34,-75.11 436.32,-78.57 440.66,-84.06"/>
</g>
<!-- Node19&#45;&gt;Node3 -->
<g id="edge24" class="edge">
<title>Node19&#45;&gt;Node3</title>
<path fill="none" stroke="#63b8ff" d="M843.44,-175.52C891.13,-164.39 948.4,-149.37 955.5,-140 968.67,-122.62 954.74,-98.5 942.02,-82.47"/>
<polygon fill="#63b8ff" stroke="#63b8ff" points="945.01,-80.58 935.87,-75.23 939.68,-85.11 945.01,-80.58"/>
</g>
<!-- Node20&#45;&gt;Node3 -->
<g id="edge26" class="edge">
<title>Node20&#45;&gt;Node3</title>
<path fill="none" stroke="#63b8ff" d="M951.88,-175.63C965.74,-167.33 980.76,-155.44 988.5,-140 994.48,-128.08 994.59,-121.86 988.5,-110 981.88,-97.11 969.6,-87.11 957.71,-79.88"/>
<polygon fill="#63b8ff" stroke="#63b8ff" points="959.7,-76.99 949.26,-75.2 956.31,-83.11 959.7,-76.99"/>
</g>
<!-- Node21&#45;&gt;Node3 -->
<g id="edge28" class="edge">
<title>Node21&#45;&gt;Node3</title>
<path fill="none" stroke="#63b8ff" d="M226.48,-116.45C243.01,-114.14 261.52,-111.75 278.5,-110 489.37,-88.31 739.98,-74.48 858.25,-68.66"/>
<polygon fill="#63b8ff" stroke="#63b8ff" points="858.29,-72.16 868.1,-68.18 857.94,-65.17 858.29,-72.16"/>
</g>
<!-- Node21&#45;&gt;Node5 -->
<g id="edge29" class="edge">
<title>Node21&#45;&gt;Node5</title>
<path fill="none" stroke="#63b8ff" d="M226.45,-113C231.19,-111.98 235.94,-110.96 240.5,-110 295.6,-98.35 358.66,-85.53 402.73,-76.66"/>
<polygon fill="#63b8ff" stroke="#63b8ff" points="403.19,-80.14 412.3,-74.74 401.81,-73.28 403.19,-80.14"/>
</g>
<!-- Node22&#45;&gt;Node3 -->
<g id="edge31" class="edge">
<title>Node22&#45;&gt;Node3</title>
<path fill="none" stroke="#63b8ff" d="M283.99,-175.74C285.47,-157.29 291.05,-125.65 311.5,-110 354.09,-77.41 706.88,-68.57 858.11,-66.27"/>
<polygon fill="#63b8ff" stroke="#63b8ff" points="858.05,-69.77 867.99,-66.13 857.94,-62.78 858.05,-69.77"/>
</g>
<!-- Node22&#45;&gt;Node5 -->
<g id="edge32" class="edge">
<title>Node22&#45;&gt;Node5</title>
<path fill="none" stroke="#63b8ff" d="M277.36,-175.6C270.99,-158.14 263.83,-128.74 278.5,-110 291.52,-93.36 338.52,-82.09 381.22,-75.05"/>
<polygon fill="#63b8ff" stroke="#63b8ff" points="381.71,-78.52 391.05,-73.5 380.62,-71.6 381.71,-78.52"/>
</g>
<!-- Node22&#45;&gt;Node21 -->
<g id="edge33" class="edge">
<title>Node22&#45;&gt;Node21</title>
<path fill="none" stroke="#63b8ff" d="M259.49,-175.64C244.89,-166.91 226.04,-155.63 210,-146.04"/>
<polygon fill="#63b8ff" stroke="#63b8ff" points="212.11,-143.22 201.73,-141.09 208.52,-149.23 212.11,-143.22"/>
</g>
<!-- Node23&#45;&gt;Node3 -->
<g id="edge35" class="edge">
<title>Node23&#45;&gt;Node3</title>
<path fill="none" stroke="#63b8ff" d="M596.73,-114.34C669.05,-103.63 785.17,-86.43 858.56,-75.56"/>
<polygon fill="#63b8ff" stroke="#63b8ff" points="858.64,-79.09 868.02,-74.16 857.62,-72.16 858.64,-79.09"/>
</g>
<!-- Node23&#45;&gt;Node5 -->
<g id="edge36" class="edge">
<title>Node23&#45;&gt;Node5</title>
<path fill="none" stroke="#63b8ff" d="M513.46,-109.54C502.74,-100.96 489.16,-90.07 478.17,-81.26"/>
<polygon fill="#63b8ff" stroke="#63b8ff" points="480.5,-78.64 470.51,-75.12 476.12,-84.11 480.5,-78.64"/>
</g>
<!-- Node24&#45;&gt;Node3 -->
<g id="edge38" class="edge">
<title>Node24&#45;&gt;Node3</title>
<path fill="none" stroke="#63b8ff" d="M787.98,-109.54C818.65,-99.79 858.68,-87.06 887.82,-77.8"/>
<polygon fill="#63b8ff" stroke="#63b8ff" points="888.49,-81.26 896.96,-74.89 886.37,-74.59 888.49,-81.26"/>
</g>
<!-- Node24&#45;&gt;Node5 -->
<g id="edge39" class="edge">
<title>Node24&#45;&gt;Node5</title>
<path fill="none" stroke="#63b8ff" d="M690.08,-113.2C639.72,-102.83 563.94,-87.22 512.92,-76.71"/>
<polygon fill="#63b8ff" stroke="#63b8ff" points="513.77,-73.31 503.27,-74.72 512.36,-80.17 513.77,-73.31"/>
</g>
<!-- Node25&#45;&gt;Node3 -->
<g id="edge41" class="edge">
<title>Node25&#45;&gt;Node3</title>
<path fill="none" stroke="#63b8ff" d="M1082.33,-109.54C1047.53,-99.7 1002,-86.84 969.16,-77.56"/>
<polygon fill="#63b8ff" stroke="#63b8ff" points="970.14,-74.2 959.56,-74.84 968.23,-80.93 970.14,-74.2"/>
</g>
<!-- Node26&#45;&gt;Node3 -->
<g id="edge43" class="edge">
<title>Node26&#45;&gt;Node3</title>
<path fill="none" stroke="#63b8ff" d="M574.76,-175.68C597.66,-157.45 640.04,-126.38 681.5,-110 738.76,-87.38 808.13,-76.15 858.41,-70.65"/>
<polygon fill="#63b8ff" stroke="#63b8ff" points="858.71,-74.13 868.3,-69.62 857.99,-67.17 858.71,-74.13"/>
</g>
<!-- Node26&#45;&gt;Node5 -->
<g id="edge44" class="edge">
<title>Node26&#45;&gt;Node5</title>
<path fill="none" stroke="#63b8ff" d="M576.72,-175.59C596.28,-159.15 621.62,-131.72 605.5,-110 589.09,-87.89 562.01,-76.38 535.53,-70.51"/>
<polygon fill="#63b8ff" stroke="#63b8ff" points="536.22,-67.08 525.74,-68.61 534.89,-73.95 536.22,-67.08"/>
</g>
<!-- Node26&#45;&gt;Node24 -->
<g id="edge45" class="edge">
<title>Node26&#45;&gt;Node24</title>
<path fill="none" stroke="#63b8ff" d="M599.02,-175.64C625.94,-166.32 661.24,-154.11 690.09,-144.13"/>
<polygon fill="#63b8ff" stroke="#63b8ff" points="691.06,-147.5 699.37,-140.92 688.78,-140.88 691.06,-147.5"/>
</g>
<!-- Node27&#45;&gt;Node3 -->
<g id="edge47" class="edge">
<title>Node27&#45;&gt;Node3</title>
<path fill="none" stroke="#63b8ff" d="M1245.38,-112.46C1240.69,-111.6 1236.02,-110.77 1231.5,-110 1150.3,-96.19 1056.49,-82.9 994.58,-74.5"/>
<polygon fill="#63b8ff" stroke="#63b8ff" points="995.28,-71.06 984.9,-73.19 994.34,-78 995.28,-71.06"/>
</g>
<!-- Node28&#45;&gt;Node3 -->
<g id="edge49" class="edge">
<title>Node28&#45;&gt;Node3</title>
<path fill="none" stroke="#63b8ff" d="M1392.26,-175.63C1392.37,-157.35 1389.5,-126.23 1370.5,-110 1342.57,-86.14 1112.27,-73.21 994.83,-68.11"/>
<polygon fill="#63b8ff" stroke="#63b8ff" points="995.13,-64.62 984.99,-67.69 994.83,-71.61 995.13,-64.62"/>
</g>
<!-- Node28&#45;&gt;Node27 -->
<g id="edge50" class="edge">
<title>Node28&#45;&gt;Node27</title>
<path fill="none" stroke="#63b8ff" d="M1371.97,-175.8C1360.32,-167.32 1345.31,-156.4 1332.31,-146.95"/>
<polygon fill="#63b8ff" stroke="#63b8ff" points="1334.65,-144.33 1324.5,-141.28 1330.53,-149.99 1334.65,-144.33"/>
</g>
<!-- Node29&#45;&gt;Node3 -->
<g id="edge52" class="edge">
<title>Node29&#45;&gt;Node3</title>
<path fill="none" stroke="#63b8ff" d="M1219.1,-175.81C1219.04,-157.73 1215.98,-126.82 1197.5,-110 1168.53,-83.63 1065.06,-72.78 994.69,-68.39"/>
<polygon fill="#63b8ff" stroke="#63b8ff" points="994.96,-64.9 984.77,-67.8 994.55,-71.88 994.96,-64.9"/>
</g>
<!-- Node29&#45;&gt;Node25 -->
<g id="edge53" class="edge">
<title>Node29&#45;&gt;Node25</title>
<path fill="none" stroke="#63b8ff" d="M1199.64,-175.8C1188.49,-167.4 1174.16,-156.62 1161.69,-147.23"/>
<polygon fill="#63b8ff" stroke="#63b8ff" points="1163.91,-144.51 1153.81,-141.3 1159.7,-150.11 1163.91,-144.51"/>
</g>
<!-- Node30&#45;&gt;Node3 -->
<g id="edge55" class="edge">
<title>Node30&#45;&gt;Node3</title>
<path fill="none" stroke="#63b8ff" d="M1044.48,-175.77C1037.79,-158.49 1024.57,-129.26 1005.5,-110 992.54,-96.91 974.93,-86.49 959.62,-79.03"/>
<polygon fill="#63b8ff" stroke="#63b8ff" points="961.4,-76 950.85,-74.98 958.46,-82.35 961.4,-76"/>
</g>
<!-- Node30&#45;&gt;Node25 -->
<g id="edge56" class="edge">
<title>Node30&#45;&gt;Node25</title>
<path fill="none" stroke="#63b8ff" d="M1068.14,-175.8C1079.16,-167.4 1093.32,-156.62 1105.64,-147.23"/>
<polygon fill="#63b8ff" stroke="#63b8ff" points="1107.58,-150.15 1113.42,-141.3 1103.34,-144.58 1107.58,-150.15"/>
</g>
</g>
</svg>
