<?xml version="1.0" encoding="UTF-8" standalone="no"?>
<!DOCTYPE svg PUBLIC "-//W3C//DTD SVG 1.1//EN"
 "http://www.w3.org/Graphics/SVG/1.1/DTD/svg11.dtd">
<!-- Generated by graphviz version 7.0.5 (20221223.1930)
 -->
<!-- Title: /github/workspace/common/include/Packets.hpp Pages: 1 -->
<svg width="2329pt" height="225pt"
 viewBox="0.00 0.00 2329.00 225.00" xmlns="http://www.w3.org/2000/svg" xmlns:xlink="http://www.w3.org/1999/xlink">
<g id="graph0" class="graph" transform="scale(1 1) rotate(0) translate(4 221)">
<title>/github/workspace/common/include/Packets.hpp</title>
<!-- Node1 -->
<g id="node1" class="node">
<title>Node1</title>
<g id="a_node1"><a xlink:title="All packets used in the project.">
<polygon fill="#999999" stroke="#666666" points="1165,-217 1028,-217 1028,-187 1165,-187 1165,-217"/>
<text text-anchor="start" x="1036" y="-205" font-family="Helvetica,sans-Serif" font-size="10.00">/github/workspace/common</text>
<text text-anchor="middle" x="1096.5" y="-194" font-family="Helvetica,sans-Serif" font-size="10.00">/include/Packets.hpp</text>
</a>
</g>
</g>
<!-- Node2 -->
<g id="node2" class="node">
<title>Node2</title>
<g id="a_node2"><a xlink:href="_c2_s_player_handshake_8hpp_source.html" target="_top" xlink:title=" ">
<polygon fill="white" stroke="#666666" points="133,-85 0,-85 0,-55 133,-55 133,-85"/>
<text text-anchor="start" x="8" y="-73" font-family="Helvetica,sans-Serif" font-size="10.00">packets/tcp/client</text>
<text text-anchor="middle" x="66.5" y="-62" font-family="Helvetica,sans-Serif" font-size="10.00">/C2SPlayerHandshake.hpp</text>
</a>
</g>
</g>
<!-- Node1&#45;&gt;Node2 -->
<g id="edge1" class="edge">
<title>Node1&#45;&gt;Node2</title>
<path fill="none" stroke="#63b8ff" d="M1027.69,-198.66C864.33,-192.76 456.79,-175.95 322.5,-151 247.86,-137.13 164.46,-108.48 113.73,-89.5"/>
<polygon fill="#63b8ff" stroke="#63b8ff" points="115.11,-86.28 104.52,-86.02 112.64,-92.83 115.11,-86.28"/>
</g>
<!-- Node4 -->
<g id="node4" class="node">
<title>Node4</title>
<g id="a_node4"><a xlink:href="_s2_c_player_authentified_8hpp_source.html" target="_top" xlink:title=" ">
<polygon fill="white" stroke="#666666" points="285.5,-85 151.5,-85 151.5,-55 285.5,-55 285.5,-85"/>
<text text-anchor="start" x="159.5" y="-73" font-family="Helvetica,sans-Serif" font-size="10.00">packets/tcp/server</text>
<text text-anchor="middle" x="218.5" y="-62" font-family="Helvetica,sans-Serif" font-size="10.00">/S2CPlayerAuthentified.hpp</text>
</a>
</g>
</g>
<!-- Node1&#45;&gt;Node4 -->
<g id="edge3" class="edge">
<title>Node1&#45;&gt;Node4</title>
<path fill="none" stroke="#63b8ff" d="M1027.61,-198.67C878.59,-193.18 530.43,-177.85 415.5,-151 357.84,-137.53 295.08,-109.53 256.26,-90.49"/>
<polygon fill="#63b8ff" stroke="#63b8ff" points="257.84,-87.37 247.33,-86.06 254.73,-93.64 257.84,-87.37"/>
</g>
<!-- Node5 -->
<g id="node5" class="node">
<title>Node5</title>
<g id="a_node5"><a xlink:href="_s2_c_player_score_8hpp_source.html" target="_top" xlink:title=" ">
<polygon fill="white" stroke="#666666" points="413,-85 304,-85 304,-55 413,-55 413,-85"/>
<text text-anchor="start" x="312" y="-73" font-family="Helvetica,sans-Serif" font-size="10.00">packets/tcp/server</text>
<text text-anchor="middle" x="358.5" y="-62" font-family="Helvetica,sans-Serif" font-size="10.00">/S2CPlayerScore.hpp</text>
</a>
</g>
</g>
<!-- Node1&#45;&gt;Node5 -->
<g id="edge5" class="edge">
<title>Node1&#45;&gt;Node5</title>
<path fill="none" stroke="#63b8ff" d="M1027.57,-199.94C887.58,-197.05 574.77,-186.69 474.5,-151 438.85,-138.31 403.93,-111.75 381.87,-92.71"/>
<polygon fill="#63b8ff" stroke="#63b8ff" points="384.46,-90.33 374.65,-86.33 379.83,-95.57 384.46,-90.33"/>
</g>
<!-- Node6 -->
<g id="node6" class="node">
<title>Node6</title>
<g id="a_node6"><a xlink:href="_c2_s_client_connect_8hpp_source.html" target="_top" xlink:title=" ">
<polygon fill="white" stroke="#666666" points="548,-85 431,-85 431,-55 548,-55 548,-85"/>
<text text-anchor="start" x="439" y="-73" font-family="Helvetica,sans-Serif" font-size="10.00">packets/udp/client</text>
<text text-anchor="middle" x="489.5" y="-62" font-family="Helvetica,sans-Serif" font-size="10.00">/C2SClientConnect.hpp</text>
</a>
</g>
</g>
<!-- Node1&#45;&gt;Node6 -->
<g id="edge7" class="edge">
<title>Node1&#45;&gt;Node6</title>
<path fill="none" stroke="#63b8ff" d="M1027.78,-200.46C876.53,-198.55 525.36,-189.94 489.5,-151 476.21,-136.57 477.59,-113.71 481.49,-96.12"/>
<polygon fill="#63b8ff" stroke="#63b8ff" points="484.81,-97.23 483.98,-86.67 478.05,-95.44 484.81,-97.23"/>
</g>
<!-- Node7 -->
<g id="node7" class="node">
<title>Node7</title>
<g id="a_node7"><a xlink:href="_c2_s_client_move_8hpp_source.html" target="_top" xlink:title=" ">
<polygon fill="white" stroke="#666666" points="671,-85 566,-85 566,-55 671,-55 671,-85"/>
<text text-anchor="start" x="574" y="-73" font-family="Helvetica,sans-Serif" font-size="10.00">packets/udp/client</text>
<text text-anchor="middle" x="618.5" y="-62" font-family="Helvetica,sans-Serif" font-size="10.00">/C2SClientMove.hpp</text>
</a>
</g>
</g>
<!-- Node1&#45;&gt;Node7 -->
<g id="edge9" class="edge">
<title>Node1&#45;&gt;Node7</title>
<path fill="none" stroke="#63b8ff" d="M1027.74,-200.33C878.72,-198.18 536.52,-189.08 501.5,-151 477.8,-125.23 516.59,-103.39 555.72,-89.08"/>
<polygon fill="#63b8ff" stroke="#63b8ff" points="556.47,-92.52 564.75,-85.92 554.16,-85.92 556.47,-92.52"/>
</g>
<!-- Node8 -->
<g id="node8" class="node">
<title>Node8</title>
<g id="a_node8"><a xlink:href="_c2_s_player_prepare_shoot_8hpp_source.html" target="_top" xlink:title=" ">
<polygon fill="white" stroke="#666666" points="832,-85 689,-85 689,-55 832,-55 832,-85"/>
<text text-anchor="start" x="697" y="-73" font-family="Helvetica,sans-Serif" font-size="10.00">packets/udp/client</text>
<text text-anchor="middle" x="760.5" y="-62" font-family="Helvetica,sans-Serif" font-size="10.00">/C2SPlayerPrepareShoot.hpp</text>
</a>
</g>
</g>
<!-- Node1&#45;&gt;Node8 -->
<g id="edge11" class="edge">
<title>Node1&#45;&gt;Node8</title>
<path fill="none" stroke="#63b8ff" d="M1027.63,-200.21C880.64,-197.82 546.74,-188.29 512.5,-151 503.48,-141.18 504.05,-131.32 512.5,-121 515.21,-117.69 606.33,-99.92 677.33,-86.5"/>
<polygon fill="#63b8ff" stroke="#63b8ff" points="677.87,-89.96 687.05,-84.66 676.58,-83.08 677.87,-89.96"/>
</g>
<!-- Node9 -->
<g id="node9" class="node">
<title>Node9</title>
<g id="a_node9"><a xlink:href="_c2_s_player_ready_8hpp_source.html" target="_top" xlink:title=" ">
<polygon fill="white" stroke="#666666" points="960.5,-85 850.5,-85 850.5,-55 960.5,-55 960.5,-85"/>
<text text-anchor="start" x="858.5" y="-73" font-family="Helvetica,sans-Serif" font-size="10.00">packets/udp/client</text>
<text text-anchor="middle" x="905.5" y="-62" font-family="Helvetica,sans-Serif" font-size="10.00">/C2SPlayerReady.hpp</text>
</a>
</g>
</g>
<!-- Node1&#45;&gt;Node9 -->
<g id="edge13" class="edge">
<title>Node1&#45;&gt;Node9</title>
<path fill="none" stroke="#63b8ff" d="M1027.56,-200.09C882.64,-197.46 556.96,-187.51 523.5,-151 514.49,-141.17 514.62,-130.94 523.5,-121 568.75,-70.34 753.64,-94.2 838.74,-85.02"/>
<polygon fill="#63b8ff" stroke="#63b8ff" points="839.12,-88.5 848.56,-83.69 838.19,-81.56 839.12,-88.5"/>
</g>
<!-- Node10 -->
<g id="node10" class="node">
<title>Node10</title>
<g id="a_node10"><a xlink:href="_c2_s_player_shoot_8hpp_source.html" target="_top" xlink:title=" ">
<polygon fill="white" stroke="#666666" points="641,-151 532,-151 532,-121 641,-121 641,-151"/>
<text text-anchor="start" x="540" y="-139" font-family="Helvetica,sans-Serif" font-size="10.00">packets/udp/client</text>
<text text-anchor="middle" x="586.5" y="-128" font-family="Helvetica,sans-Serif" font-size="10.00">/C2SPlayerShoot.hpp</text>
</a>
</g>
</g>
<!-- Node1&#45;&gt;Node10 -->
<g id="edge15" class="edge">
<title>Node1&#45;&gt;Node10</title>
<path fill="none" stroke="#63b8ff" d="M1027.5,-195.06C940.48,-187.13 786.41,-171.66 655.5,-151 654.5,-150.84 653.49,-150.68 652.47,-150.51"/>
<polygon fill="#63b8ff" stroke="#63b8ff" points="653.35,-147.11 642.9,-148.85 652.15,-154.01 653.35,-147.11"/>
</g>
<!-- Node11 -->
<g id="node11" class="node">
<title>Node11</title>
<g id="a_node11"><a xlink:href="_c2_s_kill_entity_8hpp_source.html" target="_top" xlink:title=" ">
<polygon fill="white" stroke="#666666" points="1112.5,-85 1016.5,-85 1016.5,-55 1112.5,-55 1112.5,-85"/>
<text text-anchor="start" x="1024.5" y="-73" font-family="Helvetica,sans-Serif" font-size="10.00">packets/udp/client</text>
<text text-anchor="middle" x="1064.5" y="-62" font-family="Helvetica,sans-Serif" font-size="10.00">/C2SKillEntity.hpp</text>
</a>
</g>
</g>
<!-- Node1&#45;&gt;Node11 -->
<g id="edge17" class="edge">
<title>Node1&#45;&gt;Node11</title>
<path fill="none" stroke="#63b8ff" d="M1027.66,-197.44C917.45,-191.04 711.49,-175.86 689.5,-151 680.67,-141.01 680.63,-130.95 689.5,-121 736.09,-68.74 933.48,-96.73 1002.5,-85 1003.34,-84.86 1004.18,-84.71 1005.02,-84.56"/>
<polygon fill="#63b8ff" stroke="#63b8ff" points="1005.54,-88.03 1014.71,-82.72 1004.23,-81.15 1005.54,-88.03"/>
</g>
<!-- Node12 -->
<g id="node12" class="node">
<title>Node12</title>
<g id="a_node12"><a xlink:href="_c2_s_kill_player_8hpp_source.html" target="_top" xlink:title=" ">
<polygon fill="white" stroke="#666666" points="795,-151 698,-151 698,-121 795,-121 795,-151"/>
<text text-anchor="start" x="706" y="-139" font-family="Helvetica,sans-Serif" font-size="10.00">packets/udp/client</text>
<text text-anchor="middle" x="746.5" y="-128" font-family="Helvetica,sans-Serif" font-size="10.00">/C2SKillPlayer.hpp</text>
</a>
</g>
</g>
<!-- Node1&#45;&gt;Node12 -->
<g id="edge19" class="edge">
<title>Node1&#45;&gt;Node12</title>
<path fill="none" stroke="#63b8ff" d="M1027.52,-190.53C970.75,-181.61 887.93,-167.89 806.46,-151.32"/>
<polygon fill="#63b8ff" stroke="#63b8ff" points="807.48,-147.96 796.98,-149.38 806.07,-154.81 807.48,-147.96"/>
</g>
<!-- Node13 -->
<g id="node13" class="node">
<title>Node13</title>
<g id="a_node13"><a xlink:href="_c2_s_scene_loaded_8hpp_source.html" target="_top" xlink:title=" ">
<polygon fill="white" stroke="#666666" points="929.5,-151 813.5,-151 813.5,-121 929.5,-121 929.5,-151"/>
<text text-anchor="start" x="821.5" y="-139" font-family="Helvetica,sans-Serif" font-size="10.00">packets/udp/client</text>
<text text-anchor="middle" x="871.5" y="-128" font-family="Helvetica,sans-Serif" font-size="10.00">/C2SSceneLoaded.hpp</text>
</a>
</g>
</g>
<!-- Node1&#45;&gt;Node13 -->
<g id="edge22" class="edge">
<title>Node1&#45;&gt;Node13</title>
<path fill="none" stroke="#63b8ff" d="M1045.73,-186.56C1012.25,-177.04 968.21,-164.51 932.79,-154.43"/>
<polygon fill="#63b8ff" stroke="#63b8ff" points="934.12,-151.17 923.55,-151.8 932.21,-157.91 934.12,-151.17"/>
</g>
<!-- Node14 -->
<g id="node14" class="node">
<title>Node14</title>
<g id="a_node14"><a xlink:href="_c2_s_client_disconnecting_8hpp_source.html" target="_top" xlink:title=" ">
<polygon fill="white" stroke="#666666" points="1091,-151 948,-151 948,-121 1091,-121 1091,-151"/>
<text text-anchor="start" x="956" y="-139" font-family="Helvetica,sans-Serif" font-size="10.00">packets/tcp/client</text>
<text text-anchor="middle" x="1019.5" y="-128" font-family="Helvetica,sans-Serif" font-size="10.00">/C2SClientDisconnecting.hpp</text>
</a>
</g>
</g>
<!-- Node1&#45;&gt;Node14 -->
<g id="edge24" class="edge">
<title>Node1&#45;&gt;Node14</title>
<path fill="none" stroke="#63b8ff" d="M1079.41,-186.8C1069.41,-178.49 1056.59,-167.83 1045.37,-158.5"/>
<polygon fill="#63b8ff" stroke="#63b8ff" points="1047.9,-156.05 1037.97,-152.35 1043.42,-161.44 1047.9,-156.05"/>
</g>
<!-- Node15 -->
<g id="node15" class="node">
<title>Node15</title>
<g id="a_node15"><a xlink:href="_s2_c_client_connected_8hpp_source.html" target="_top" xlink:title=" ">
<polygon fill="white" stroke="#666666" points="1237.5,-151 1109.5,-151 1109.5,-121 1237.5,-121 1237.5,-151"/>
<text text-anchor="start" x="1117.5" y="-139" font-family="Helvetica,sans-Serif" font-size="10.00">packets/udp/server</text>
<text text-anchor="middle" x="1173.5" y="-128" font-family="Helvetica,sans-Serif" font-size="10.00">/S2CClientConnected.hpp</text>
</a>
</g>
</g>
<!-- Node1&#45;&gt;Node15 -->
<g id="edge26" class="edge">
<title>Node1&#45;&gt;Node15</title>
<path fill="none" stroke="#63b8ff" d="M1113.59,-186.8C1123.59,-178.49 1136.41,-167.83 1147.63,-158.5"/>
<polygon fill="#63b8ff" stroke="#63b8ff" points="1149.58,-161.44 1155.03,-152.35 1145.1,-156.05 1149.58,-161.44"/>
</g>
<!-- Node16 -->
<g id="node16" class="node">
<title>Node16</title>
<g id="a_node16"><a xlink:href="_s2_c_entity_move_8hpp_source.html" target="_top" xlink:title=" ">
<polygon fill="white" stroke="#666666" points="1447.5,-85 1343.5,-85 1343.5,-55 1447.5,-55 1447.5,-85"/>
<text text-anchor="start" x="1351.5" y="-73" font-family="Helvetica,sans-Serif" font-size="10.00">packets/udp/server</text>
<text text-anchor="middle" x="1395.5" y="-62" font-family="Helvetica,sans-Serif" font-size="10.00">/S2CEntityMove.hpp</text>
</a>
</g>
</g>
<!-- Node1&#45;&gt;Node16 -->
<g id="edge28" class="edge">
<title>Node1&#45;&gt;Node16</title>
<path fill="none" stroke="#63b8ff" d="M1165.22,-197.46C1238.73,-192.23 1348.78,-179.73 1378.5,-151 1392.85,-137.13 1396.57,-114.37 1397,-96.67"/>
<polygon fill="#63b8ff" stroke="#63b8ff" points="1400.5,-96.86 1396.89,-86.9 1393.5,-96.95 1400.5,-96.86"/>
</g>
<!-- Node17 -->
<g id="node17" class="node">
<title>Node17</title>
<g id="a_node17"><a xlink:href="_s2_c_entity_spawn_8hpp_source.html" target="_top" xlink:title=" ">
<polygon fill="white" stroke="#666666" points="2111.5,-85 2001.5,-85 2001.5,-55 2111.5,-55 2111.5,-85"/>
<text text-anchor="start" x="2009.5" y="-73" font-family="Helvetica,sans-Serif" font-size="10.00">packets/udp/server</text>
<text text-anchor="middle" x="2056.5" y="-62" font-family="Helvetica,sans-Serif" font-size="10.00">/S2CEntitySpawn.hpp</text>
</a>
</g>
</g>
<!-- Node1&#45;&gt;Node17 -->
<g id="edge30" class="edge">
<title>Node1&#45;&gt;Node17</title>
<path fill="none" stroke="#63b8ff" d="M1165.14,-199.59C1376.31,-194.95 2004.09,-178.87 2037.5,-151 2053,-138.07 2057.17,-115.02 2057.8,-96.98"/>
<polygon fill="#63b8ff" stroke="#63b8ff" points="2061.3,-96.97 2057.78,-86.98 2054.3,-96.99 2061.3,-96.97"/>
</g>
<!-- Node18 -->
<g id="node18" class="node">
<title>Node18</title>
<g id="a_node18"><a xlink:href="_s2_c_game_started_8hpp_source.html" target="_top" xlink:title=" ">
<polygon fill="white" stroke="#666666" points="1369.5,-151 1255.5,-151 1255.5,-121 1369.5,-121 1369.5,-151"/>
<text text-anchor="start" x="1263.5" y="-139" font-family="Helvetica,sans-Serif" font-size="10.00">packets/udp/server</text>
<text text-anchor="middle" x="1312.5" y="-128" font-family="Helvetica,sans-Serif" font-size="10.00">/S2CGameStarted.hpp</text>
</a>
</g>
</g>
<!-- Node1&#45;&gt;Node18 -->
<g id="edge32" class="edge">
<title>Node1&#45;&gt;Node18</title>
<path fill="none" stroke="#63b8ff" d="M1145.24,-186.56C1177.24,-177.08 1219.29,-164.62 1253.22,-154.56"/>
<polygon fill="#63b8ff" stroke="#63b8ff" points="1253.89,-158.02 1262.48,-151.82 1251.9,-151.31 1253.89,-158.02"/>
</g>
<!-- Node19 -->
<g id="node19" class="node">
<title>Node19</title>
<g id="a_node19"><a xlink:href="_s2_c_player_charging_bullet_8hpp_source.html" target="_top" xlink:title=" ">
<polygon fill="white" stroke="#666666" points="1649.5,-85 1503.5,-85 1503.5,-55 1649.5,-55 1649.5,-85"/>
<text text-anchor="start" x="1511.5" y="-73" font-family="Helvetica,sans-Serif" font-size="10.00">packets/udp/server</text>
<text text-anchor="middle" x="1576.5" y="-62" font-family="Helvetica,sans-Serif" font-size="10.00">/S2CPlayerChargingBullet.hpp</text>
</a>
</g>
</g>
<!-- Node1&#45;&gt;Node19 -->
<g id="edge34" class="edge">
<title>Node1&#45;&gt;Node19</title>
<path fill="none" stroke="#63b8ff" d="M1165.27,-201.54C1275.28,-201.07 1484.39,-194.29 1542.5,-151 1559.79,-138.12 1568.37,-114.7 1572.58,-96.51"/>
<polygon fill="#63b8ff" stroke="#63b8ff" points="1576.01,-97.19 1574.51,-86.71 1569.14,-95.84 1576.01,-97.19"/>
</g>
<!-- Node20 -->
<g id="node20" class="node">
<title>Node20</title>
<g id="a_node20"><a xlink:href="_s2_c_player_move_8hpp_source.html" target="_top" xlink:title=" ">
<polygon fill="white" stroke="#666666" points="1533,-151 1426,-151 1426,-121 1533,-121 1533,-151"/>
<text text-anchor="start" x="1434" y="-139" font-family="Helvetica,sans-Serif" font-size="10.00">packets/udp/server</text>
<text text-anchor="middle" x="1479.5" y="-128" font-family="Helvetica,sans-Serif" font-size="10.00">/S2CPlayerMove.hpp</text>
</a>
</g>
</g>
<!-- Node1&#45;&gt;Node20 -->
<g id="edge36" class="edge">
<title>Node1&#45;&gt;Node20</title>
<path fill="none" stroke="#63b8ff" d="M1165.48,-190.98C1229.4,-181.47 1327.06,-166.39 1411.5,-151 1412.51,-150.82 1413.53,-150.63 1414.56,-150.44"/>
<polygon fill="#63b8ff" stroke="#63b8ff" points="1415.07,-153.9 1424.24,-148.59 1413.76,-147.03 1415.07,-153.9"/>
</g>
<!-- Node21 -->
<g id="node21" class="node">
<title>Node21</title>
<g id="a_node21"><a xlink:href="_s2_c_player_shoot_bullet_8hpp_source.html" target="_top" xlink:title=" ">
<polygon fill="white" stroke="#666666" points="1723.5,-151 1589.5,-151 1589.5,-121 1723.5,-121 1723.5,-151"/>
<text text-anchor="start" x="1597.5" y="-139" font-family="Helvetica,sans-Serif" font-size="10.00">packets/udp/server</text>
<text text-anchor="middle" x="1656.5" y="-128" font-family="Helvetica,sans-Serif" font-size="10.00">/S2CPlayerShootBullet.hpp</text>
</a>
</g>
</g>
<!-- Node1&#45;&gt;Node21 -->
<g id="edge39" class="edge">
<title>Node1&#45;&gt;Node21</title>
<path fill="none" stroke="#63b8ff" d="M1165.29,-195.28C1258.48,-187.2 1429.94,-171.15 1575.5,-151 1576.35,-150.88 1577.2,-150.76 1578.06,-150.64"/>
<polygon fill="#63b8ff" stroke="#63b8ff" points="1578.5,-154.11 1587.87,-149.18 1577.47,-147.19 1578.5,-154.11"/>
</g>
<!-- Node22 -->
<g id="node22" class="node">
<title>Node22</title>
<g id="a_node22"><a xlink:href="_s2_c_remove_entity_8hpp_source.html" target="_top" xlink:title=" ">
<polygon fill="white" stroke="#666666" points="1809.5,-85 1693.5,-85 1693.5,-55 1809.5,-55 1809.5,-85"/>
<text text-anchor="start" x="1701.5" y="-73" font-family="Helvetica,sans-Serif" font-size="10.00">packets/udp/server</text>
<text text-anchor="middle" x="1751.5" y="-62" font-family="Helvetica,sans-Serif" font-size="10.00">/S2CRemoveEntity.hpp</text>
</a>
</g>
</g>
<!-- Node1&#45;&gt;Node22 -->
<g id="edge41" class="edge">
<title>Node1&#45;&gt;Node22</title>
<path fill="none" stroke="#63b8ff" d="M1165.23,-200.1C1320.88,-197.41 1690.14,-187.26 1732.5,-151 1747.83,-137.88 1752.02,-114.85 1752.7,-96.86"/>
<polygon fill="#63b8ff" stroke="#63b8ff" points="1756.2,-96.91 1752.71,-86.91 1749.2,-96.91 1756.2,-96.91"/>
</g>
<!-- Node23 -->
<g id="node23" class="node">
<title>Node23</title>
<g id="a_node23"><a xlink:href="_s2_c_remove_player_8hpp_source.html" target="_top" xlink:title=" ">
<polygon fill="white" stroke="#666666" points="1899,-151 1780,-151 1780,-121 1899,-121 1899,-151"/>
<text text-anchor="start" x="1788" y="-139" font-family="Helvetica,sans-Serif" font-size="10.00">packets/udp/server</text>
<text text-anchor="middle" x="1839.5" y="-128" font-family="Helvetica,sans-Serif" font-size="10.00">/S2CRemovePlayer.hpp</text>
</a>
</g>
</g>
<!-- Node1&#45;&gt;Node23 -->
<g id="edge43" class="edge">
<title>Node1&#45;&gt;Node23</title>
<path fill="none" stroke="#63b8ff" d="M1165.14,-198.42C1286.62,-193.28 1547.25,-179.71 1765.5,-151 1766.52,-150.87 1767.55,-150.73 1768.58,-150.58"/>
<polygon fill="#63b8ff" stroke="#63b8ff" points="1768.96,-154.07 1778.32,-149.11 1767.91,-147.14 1768.96,-154.07"/>
</g>
<!-- Node24 -->
<g id="node24" class="node">
<title>Node24</title>
<g id="a_node24"><a xlink:href="_s2_c_spawn_bullet_8hpp_source.html" target="_top" xlink:title=" ">
<polygon fill="white" stroke="#666666" points="2028,-151 1917,-151 1917,-121 2028,-121 2028,-151"/>
<text text-anchor="start" x="1925" y="-139" font-family="Helvetica,sans-Serif" font-size="10.00">packets/udp/server</text>
<text text-anchor="middle" x="1972.5" y="-128" font-family="Helvetica,sans-Serif" font-size="10.00">/S2CSpawnBullet.hpp</text>
</a>
</g>
</g>
<!-- Node1&#45;&gt;Node24 -->
<g id="edge46" class="edge">
<title>Node1&#45;&gt;Node24</title>
<path fill="none" stroke="#63b8ff" d="M1165.29,-200.33C1303.83,-198.2 1626.37,-189.34 1905.58,-151.27"/>
<polygon fill="#63b8ff" stroke="#63b8ff" points="1905.82,-154.77 1915.24,-149.93 1904.86,-147.83 1905.82,-154.77"/>
</g>
<!-- Node25 -->
<g id="node25" class="node">
<title>Node25</title>
<g id="a_node25"><a xlink:href="_s2_c_spawn_player_8hpp_source.html" target="_top" xlink:title=" ">
<polygon fill="white" stroke="#666666" points="2198,-151 2085,-151 2085,-121 2198,-121 2198,-151"/>
<text text-anchor="start" x="2093" y="-139" font-family="Helvetica,sans-Serif" font-size="10.00">packets/udp/server</text>
<text text-anchor="middle" x="2141.5" y="-128" font-family="Helvetica,sans-Serif" font-size="10.00">/S2CSpawnPlayer.hpp</text>
</a>
</g>
</g>
<!-- Node1&#45;&gt;Node25 -->
<g id="edge49" class="edge">
<title>Node1&#45;&gt;Node25</title>
<path fill="none" stroke="#63b8ff" d="M1165.28,-200.85C1324.93,-199.76 1732.74,-192.75 2070.5,-151 2071.51,-150.88 2072.53,-150.74 2073.55,-150.61"/>
<polygon fill="#63b8ff" stroke="#63b8ff" points="2073.78,-154.11 2083.15,-149.18 2072.75,-147.19 2073.78,-154.11"/>
</g>
<!-- Node26 -->
<g id="node26" class="node">
<title>Node26</title>
<g id="a_node26"><a xlink:href="_s2_c_sync_player_8hpp_source.html" target="_top" xlink:title=" ">
<polygon fill="white" stroke="#666666" points="2321,-151 2216,-151 2216,-121 2321,-121 2321,-151"/>
<text text-anchor="start" x="2224" y="-139" font-family="Helvetica,sans-Serif" font-size="10.00">packets/udp/server</text>
<text text-anchor="middle" x="2268.5" y="-128" font-family="Helvetica,sans-Serif" font-size="10.00">/S2CSyncPlayer.hpp</text>
</a>
</g>
</g>
<!-- Node1&#45;&gt;Node26 -->
<g id="edge52" class="edge">
<title>Node1&#45;&gt;Node26</title>
<path fill="none" stroke="#63b8ff" d="M1165.33,-199.53C1371.55,-194.88 1983.2,-179.17 2204.52,-151.2"/>
<polygon fill="#63b8ff" stroke="#63b8ff" points="2204.75,-154.7 2214.21,-149.93 2203.83,-147.76 2204.75,-154.7"/>
</g>
<!-- Node3 -->
<g id="node3" class="node">
<title>Node3</title>
<g id="a_node3"><a xlink:title=" ">
<polygon fill="#e0e0e0" stroke="#999999" points="1273,-19 1160,-19 1160,0 1273,0 1273,-19"/>
<text text-anchor="middle" x="1216.5" y="-7" font-family="Helvetica,sans-Serif" font-size="10.00">saturnity/Saturnity.hpp</text>
</a>
</g>
</g>
<!-- Node2&#45;&gt;Node3 -->
<g id="edge2" class="edge">
<title>Node2&#45;&gt;Node3</title>
<path fill="none" stroke="#63b8ff" d="M133.15,-56.17C136.3,-55.74 139.43,-55.34 142.5,-55 520.71,-12.54 977.92,-9.49 1148.24,-10"/>
<polygon fill="#63b8ff" stroke="#63b8ff" points="1147.99,-13.5 1158.01,-10.04 1148.02,-6.5 1147.99,-13.5"/>
</g>
<!-- Node4&#45;&gt;Node3 -->
<g id="edge4" class="edge">
<title>Node4&#45;&gt;Node3</title>
<path fill="none" stroke="#63b8ff" d="M285.61,-56.26C288.95,-55.8 292.26,-55.37 295.5,-55 612.87,-18.64 995.08,-11.93 1148.2,-10.73"/>
<polygon fill="#63b8ff" stroke="#63b8ff" points="1148.21,-14.23 1158.18,-10.66 1148.16,-7.23 1148.21,-14.23"/>
</g>
<!-- Node5&#45;&gt;Node3 -->
<g id="edge6" class="edge">
<title>Node5&#45;&gt;Node3</title>
<path fill="none" stroke="#63b8ff" d="M413.21,-56.43C416.34,-55.9 419.46,-55.42 422.5,-55 689.61,-18.54 1011.17,-11.81 1148.73,-10.67"/>
<polygon fill="#63b8ff" stroke="#63b8ff" points="1148.4,-14.17 1158.37,-10.6 1148.35,-7.17 1148.4,-14.17"/>
</g>
<!-- Node6&#45;&gt;Node3 -->
<g id="edge8" class="edge">
<title>Node6&#45;&gt;Node3</title>
<path fill="none" stroke="#63b8ff" d="M548.39,-56.37C551.46,-55.87 554.51,-55.41 557.5,-55 772.14,-25.79 1028.85,-15.46 1148.66,-12.05"/>
<polygon fill="#63b8ff" stroke="#63b8ff" points="1148.41,-15.56 1158.31,-11.78 1148.22,-8.56 1148.41,-15.56"/>
</g>
<!-- Node7&#45;&gt;Node3 -->
<g id="edge10" class="edge">
<title>Node7&#45;&gt;Node3</title>
<path fill="none" stroke="#63b8ff" d="M671.17,-56.58C674.32,-56 677.45,-55.47 680.5,-55 847.57,-29.33 1046.37,-17.71 1148.49,-13.11"/>
<polygon fill="#63b8ff" stroke="#63b8ff" points="1148.51,-16.61 1158.35,-12.67 1148.21,-9.62 1148.51,-16.61"/>
</g>
<!-- Node8&#45;&gt;Node3 -->
<g id="edge12" class="edge">
<title>Node8&#45;&gt;Node3</title>
<path fill="none" stroke="#63b8ff" d="M832.46,-56.36C835.51,-55.89 838.53,-55.43 841.5,-55 948.41,-39.43 1073.07,-25.46 1148.33,-17.49"/>
<polygon fill="#63b8ff" stroke="#63b8ff" points="1148.43,-21 1158.01,-16.47 1147.7,-14.04 1148.43,-21"/>
</g>
<!-- Node9&#45;&gt;Node3 -->
<g id="edge14" class="edge">
<title>Node9&#45;&gt;Node3</title>
<path fill="none" stroke="#63b8ff" d="M960.84,-57.68C965.46,-56.76 970.06,-55.86 974.5,-55 1035.98,-43.11 1106.39,-30.25 1155.36,-21.42"/>
<polygon fill="#63b8ff" stroke="#63b8ff" points="1155.68,-24.92 1164.9,-19.71 1154.44,-18.03 1155.68,-24.92"/>
</g>
<!-- Node10&#45;&gt;Node3 -->
<g id="edge16" class="edge">
<title>Node10&#45;&gt;Node3</title>
<path fill="none" stroke="#63b8ff" d="M641.44,-126.38C653.63,-124.54 666.5,-122.66 678.5,-121 807.6,-103.2 849.25,-135.23 969.5,-85 989.36,-76.71 988.02,-64.15 1007.5,-55 1051.95,-34.13 1106.31,-22.94 1148.44,-17.01"/>
<polygon fill="#63b8ff" stroke="#63b8ff" points="1148.76,-20.5 1158.21,-15.7 1147.83,-13.56 1148.76,-20.5"/>
</g>
<!-- Node11&#45;&gt;Node3 -->
<g id="edge18" class="edge">
<title>Node11&#45;&gt;Node3</title>
<path fill="none" stroke="#63b8ff" d="M1102.07,-54.54C1126.81,-45.02 1158.93,-32.66 1182.84,-23.46"/>
<polygon fill="#63b8ff" stroke="#63b8ff" points="1184.03,-26.75 1192.1,-19.89 1181.51,-20.22 1184.03,-26.75"/>
</g>
<!-- Node12&#45;&gt;Node3 -->
<g id="edge20" class="edge">
<title>Node12&#45;&gt;Node3</title>
<path fill="none" stroke="#63b8ff" d="M795.46,-122.73C798.51,-122.11 801.54,-121.52 804.5,-121 944.13,-96.32 992.35,-143.52 1121.5,-85 1139.55,-76.82 1139.09,-67.47 1154.5,-55 1167.22,-44.71 1182.08,-34 1194.07,-25.66"/>
<polygon fill="#63b8ff" stroke="#63b8ff" points="1195.85,-28.69 1202.11,-20.14 1191.88,-22.92 1195.85,-28.69"/>
</g>
<!-- Node12&#45;&gt;Node11 -->
<g id="edge21" class="edge">
<title>Node12&#45;&gt;Node11</title>
<path fill="none" stroke="#63b8ff" d="M795.19,-123.03C798.34,-122.33 801.46,-121.64 804.5,-121 892.01,-102.5 914.86,-102.85 1002.5,-85 1003.33,-84.83 1004.17,-84.66 1005.01,-84.48"/>
<polygon fill="#63b8ff" stroke="#63b8ff" points="1005.6,-87.94 1014.66,-82.44 1004.15,-81.09 1005.6,-87.94"/>
</g>
<!-- Node13&#45;&gt;Node3 -->
<g id="edge23" class="edge">
<title>Node13&#45;&gt;Node3</title>
<path fill="none" stroke="#63b8ff" d="M929.71,-122.87C933.02,-122.22 936.3,-121.6 939.5,-121 1034.74,-103.23 1070.48,-133.25 1154.5,-85 1177.58,-71.74 1195.81,-46.43 1206.37,-29.02"/>
<polygon fill="#63b8ff" stroke="#63b8ff" points="1209.21,-31.1 1211.17,-20.69 1203.15,-27.6 1209.21,-31.1"/>
</g>
<!-- Node14&#45;&gt;Node3 -->
<g id="edge25" class="edge">
<title>Node14&#45;&gt;Node3</title>
<path fill="none" stroke="#63b8ff" d="M1091.06,-121.39C1131.81,-112.31 1177.63,-99.42 1192.5,-85 1207.27,-70.67 1212.96,-47.23 1215.15,-30.47"/>
<polygon fill="#63b8ff" stroke="#63b8ff" points="1218.61,-31.01 1216.09,-20.72 1211.65,-30.34 1218.61,-31.01"/>
</g>
<!-- Node15&#45;&gt;Node3 -->
<g id="edge27" class="edge">
<title>Node15&#45;&gt;Node3</title>
<path fill="none" stroke="#63b8ff" d="M1197.96,-120.69C1210.18,-112.06 1223.76,-99.87 1230.5,-85 1238.55,-67.23 1232.58,-45.06 1226.14,-29.55"/>
<polygon fill="#63b8ff" stroke="#63b8ff" points="1229.34,-28.14 1221.97,-20.54 1222.99,-31.08 1229.34,-28.14"/>
</g>
<!-- Node16&#45;&gt;Node3 -->
<g id="edge29" class="edge">
<title>Node16&#45;&gt;Node3</title>
<path fill="none" stroke="#63b8ff" d="M1351.25,-54.54C1321.55,-44.83 1282.82,-32.17 1254.51,-22.92"/>
<polygon fill="#63b8ff" stroke="#63b8ff" points="1255.86,-19.68 1245.27,-19.9 1253.69,-26.34 1255.86,-19.68"/>
</g>
<!-- Node17&#45;&gt;Node3 -->
<g id="edge31" class="edge">
<title>Node17&#45;&gt;Node3</title>
<path fill="none" stroke="#63b8ff" d="M2001.22,-61.72C1981.74,-59.33 1959.67,-56.83 1939.5,-55 1699.08,-33.24 1412.71,-19.09 1284.47,-13.38"/>
<polygon fill="#63b8ff" stroke="#63b8ff" points="1284.95,-9.89 1274.81,-12.95 1284.64,-16.89 1284.95,-9.89"/>
</g>
<!-- Node18&#45;&gt;Node3 -->
<g id="edge33" class="edge">
<title>Node18&#45;&gt;Node3</title>
<path fill="none" stroke="#63b8ff" d="M1301.49,-120.72C1283.91,-97.93 1249.55,-53.37 1230.34,-28.45"/>
<polygon fill="#63b8ff" stroke="#63b8ff" points="1233.15,-26.36 1224.27,-20.58 1227.61,-30.64 1233.15,-26.36"/>
</g>
<!-- Node19&#45;&gt;Node3 -->
<g id="edge35" class="edge">
<title>Node19&#45;&gt;Node3</title>
<path fill="none" stroke="#63b8ff" d="M1503.21,-57.09C1438.67,-46.6 1345.47,-31.46 1283.03,-21.31"/>
<polygon fill="#63b8ff" stroke="#63b8ff" points="1283.67,-17.87 1273.24,-19.72 1282.55,-24.78 1283.67,-17.87"/>
</g>
<!-- Node20&#45;&gt;Node3 -->
<g id="edge37" class="edge">
<title>Node20&#45;&gt;Node3</title>
<path fill="none" stroke="#63b8ff" d="M1479.65,-120.52C1479.01,-102.43 1475.01,-71.8 1456.5,-55 1431.76,-32.54 1346.44,-20.87 1284.56,-15.21"/>
<polygon fill="#63b8ff" stroke="#63b8ff" points="1285.07,-11.74 1274.8,-14.36 1284.46,-18.72 1285.07,-11.74"/>
</g>
<!-- Node20&#45;&gt;Node16 -->
<g id="edge38" class="edge">
<title>Node20&#45;&gt;Node16</title>
<path fill="none" stroke="#63b8ff" d="M1460.86,-120.8C1449.84,-112.4 1435.68,-101.62 1423.36,-92.23"/>
<polygon fill="#63b8ff" stroke="#63b8ff" points="1425.66,-89.58 1415.58,-86.3 1421.42,-95.15 1425.66,-89.58"/>
</g>
<!-- Node21&#45;&gt;Node19 -->
<g id="edge40" class="edge">
<title>Node21&#45;&gt;Node19</title>
<path fill="none" stroke="#63b8ff" d="M1638.75,-120.8C1628.36,-112.49 1615.03,-101.83 1603.38,-92.5"/>
<polygon fill="#63b8ff" stroke="#63b8ff" points="1605.66,-89.84 1595.66,-86.33 1601.29,-95.31 1605.66,-89.84"/>
</g>
<!-- Node22&#45;&gt;Node3 -->
<g id="edge42" class="edge">
<title>Node22&#45;&gt;Node3</title>
<path fill="none" stroke="#63b8ff" d="M1693.02,-59.75C1681.59,-58.07 1669.68,-56.4 1658.5,-55 1526.49,-38.43 1371.69,-23.98 1284.76,-16.33"/>
<polygon fill="#63b8ff" stroke="#63b8ff" points="1285.24,-12.85 1274.97,-15.47 1284.63,-19.83 1285.24,-12.85"/>
</g>
<!-- Node23&#45;&gt;Node3 -->
<g id="edge44" class="edge">
<title>Node23&#45;&gt;Node3</title>
<path fill="none" stroke="#63b8ff" d="M1840.33,-120.55C1840.51,-102.2 1837.71,-70.98 1818.5,-55 1778.24,-21.5 1433.73,-13.18 1284.72,-11.15"/>
<polygon fill="#63b8ff" stroke="#63b8ff" points="1285.04,-7.65 1274.99,-11.02 1284.95,-14.65 1285.04,-7.65"/>
</g>
<!-- Node23&#45;&gt;Node22 -->
<g id="edge45" class="edge">
<title>Node23&#45;&gt;Node22</title>
<path fill="none" stroke="#63b8ff" d="M1819.97,-120.8C1808.32,-112.32 1793.31,-101.4 1780.31,-91.95"/>
<polygon fill="#63b8ff" stroke="#63b8ff" points="1782.65,-89.33 1772.5,-86.28 1778.53,-94.99 1782.65,-89.33"/>
</g>
<!-- Node24&#45;&gt;Node3 -->
<g id="edge47" class="edge">
<title>Node24&#45;&gt;Node3</title>
<path fill="none" stroke="#63b8ff" d="M1955.05,-120.63C1930.98,-101.75 1885.44,-69.3 1840.5,-55 1738.58,-22.57 1424.11,-13.7 1284.49,-11.33"/>
<polygon fill="#63b8ff" stroke="#63b8ff" points="1284.71,-7.84 1274.65,-11.17 1284.59,-14.84 1284.71,-7.84"/>
</g>
<!-- Node24&#45;&gt;Node17 -->
<g id="edge48" class="edge">
<title>Node24&#45;&gt;Node17</title>
<path fill="none" stroke="#63b8ff" d="M1991.14,-120.8C2002.16,-112.4 2016.32,-101.62 2028.64,-92.23"/>
<polygon fill="#63b8ff" stroke="#63b8ff" points="2030.58,-95.15 2036.42,-86.3 2026.34,-89.58 2030.58,-95.15"/>
</g>
<!-- Node25&#45;&gt;Node3 -->
<g id="edge50" class="edge">
<title>Node25&#45;&gt;Node3</title>
<path fill="none" stroke="#63b8ff" d="M2142.38,-120.8C2142.66,-102.4 2140.01,-70.83 2120.5,-55 2088.18,-28.78 1490.07,-15.48 1284.9,-11.67"/>
<polygon fill="#63b8ff" stroke="#63b8ff" points="1284.98,-8.17 1274.91,-11.49 1284.85,-15.17 1284.98,-8.17"/>
</g>
<!-- Node25&#45;&gt;Node17 -->
<g id="edge51" class="edge">
<title>Node25&#45;&gt;Node17</title>
<path fill="none" stroke="#63b8ff" d="M2122.64,-120.8C2111.49,-112.4 2097.16,-101.62 2084.69,-92.23"/>
<polygon fill="#63b8ff" stroke="#63b8ff" points="2086.91,-89.51 2076.81,-86.3 2082.7,-95.11 2086.91,-89.51"/>
</g>
<!-- Node26&#45;&gt;Node3 -->
<g id="edge53" class="edge">
<title>Node26&#45;&gt;Node3</title>
<path fill="none" stroke="#63b8ff" d="M2252.4,-120.8C2229.72,-101.79 2186.22,-68.85 2142.5,-55 2061.55,-29.35 1484.83,-15.75 1284.7,-11.76"/>
<polygon fill="#63b8ff" stroke="#63b8ff" points="1285.05,-8.27 1274.99,-11.57 1284.91,-15.27 1285.05,-8.27"/>
</g>
</g>
</svg>
