<?xml version="1.0" encoding="UTF-8" standalone="no"?>
<!DOCTYPE svg PUBLIC "-//W3C//DTD SVG 1.1//EN"
 "http://www.w3.org/Graphics/SVG/1.1/DTD/svg11.dtd">
<!-- Generated by graphviz version 7.0.5 (20221223.1930)
 -->
<!-- Title: rtype::client::network::NetworkManager Pages: 1 -->
<svg width="764pt" height="282pt"
 viewBox="0.00 0.00 764.00 282.00" xmlns="http://www.w3.org/2000/svg" xmlns:xlink="http://www.w3.org/1999/xlink">
<g id="graph0" class="graph" transform="scale(1 1) rotate(0) translate(4 278)">
<title>rtype::client::network::NetworkManager</title>
<!-- Node1 -->
<g id="node1" class="node">
<title>Node1</title>
<g id="a_node1"><a xlink:title=" ">
<polygon fill="#999999" stroke="#666666" points="475,-150 371,-150 371,-120 475,-120 475,-150"/>
<text text-anchor="start" x="379" y="-138" font-family="Helvetica,sans-Serif" font-size="10.00">rtype::client::network</text>
<text text-anchor="middle" x="423" y="-127" font-family="Helvetica,sans-Serif" font-size="10.00">::NetworkManager</text>
</a>
</g>
</g>
<!-- Node5 -->
<g id="node5" class="node">
<title>Node5</title>
<g id="a_node5"><a xlink:title=" ">
<polygon fill="white" stroke="#666666" points="756,-150 586,-150 586,-120 756,-120 756,-150"/>
<text text-anchor="start" x="594" y="-138" font-family="Helvetica,sans-Serif" font-size="10.00">std::shared_ptr&lt; rtype</text>
<text text-anchor="middle" x="671" y="-127" font-family="Helvetica,sans-Serif" font-size="10.00">::client::network::NetworkManager &gt;</text>
</a>
</g>
</g>
<!-- Node1&#45;&gt;Node5 -->
<g id="edge5" class="edge">
<title>Node1&#45;&gt;Node5</title>
<path fill="none" stroke="#9a32cd" stroke-dasharray="5,2" d="M486.49,-135C516.66,-135 553.29,-135 585.87,-135"/>
<polygon fill="#9a32cd" stroke="#9a32cd" points="486.78,-131.5 476.78,-135 486.78,-138.5 486.78,-131.5"/>
<text text-anchor="middle" x="530.5" y="-138" font-family="Helvetica,sans-Serif" font-size="10.00"> ptr</text>
</g>
<!-- Node2 -->
<g id="node2" class="node">
<title>Node2</title>
<g id="a_node2"><a xlink:title=" ">
<polygon fill="white" stroke="#666666" points="218,-248.5 159,-248.5 159,-229.5 218,-229.5 218,-248.5"/>
<text text-anchor="middle" x="188.5" y="-236.5" font-family="Helvetica,sans-Serif" font-size="10.00">std::string</text>
</a>
</g>
</g>
<!-- Node2&#45;&gt;Node1 -->
<g id="edge1" class="edge">
<title>Node2&#45;&gt;Node1</title>
<path fill="none" stroke="#9a32cd" stroke-dasharray="5,2" d="M229.38,-236.07C263.87,-232.15 314.15,-223.05 353,-202 376.78,-189.11 398.1,-165.71 410.54,-150.25"/>
<polygon fill="#9a32cd" stroke="#9a32cd" points="229.43,-232.54 219.84,-237.05 230.14,-239.51 229.43,-232.54"/>
<text text-anchor="middle" x="309" y="-266" font-family="Helvetica,sans-Serif" font-size="10.00"> imGuiHost</text>
<text text-anchor="middle" x="309" y="-255" font-family="Helvetica,sans-Serif" font-size="10.00">imGuiTcpPort</text>
<text text-anchor="middle" x="309" y="-244" font-family="Helvetica,sans-Serif" font-size="10.00">imGuiUdpPort</text>
<text text-anchor="middle" x="309" y="-233" font-family="Helvetica,sans-Serif" font-size="10.00">imGuiUsername</text>
</g>
<!-- Node3 -->
<g id="node3" class="node">
<title>Node3</title>
<g id="a_node3"><a xlink:title=" ">
<polygon fill="white" stroke="#666666" points="93,-254 0,-254 0,-224 93,-224 93,-254"/>
<text text-anchor="start" x="8" y="-242" font-family="Helvetica,sans-Serif" font-size="10.00">std::basic_string&lt;</text>
<text text-anchor="middle" x="46.5" y="-231" font-family="Helvetica,sans-Serif" font-size="10.00"> Char &gt;</text>
</a>
</g>
</g>
<!-- Node3&#45;&gt;Node2 -->
<g id="edge2" class="edge">
<title>Node3&#45;&gt;Node2</title>
<path fill="none" stroke="#63b8ff" d="M104.7,-239C123.29,-239 143.12,-239 158.71,-239"/>
<polygon fill="#63b8ff" stroke="#63b8ff" points="104.85,-235.5 94.85,-239 104.85,-242.5 104.85,-235.5"/>
</g>
<!-- Node4 -->
<g id="node4" class="node">
<title>Node4</title>
<g id="a_node4"><a xlink:href="class_random.html" target="_top" xlink:title=" ">
<polygon fill="white" stroke="#bfbfbf" points="215,-211.5 162,-211.5 162,-192.5 215,-192.5 215,-211.5"/>
<text text-anchor="middle" x="188.5" y="-199.5" font-family="Helvetica,sans-Serif" font-size="10.00">Random</text>
</a>
</g>
</g>
<!-- Node4&#45;&gt;Node1 -->
<g id="edge3" class="edge">
<title>Node4&#45;&gt;Node1</title>
<path fill="none" stroke="#9a32cd" stroke-dasharray="5,2" d="M226.49,-195.68C259.98,-189.48 310.44,-178.93 353,-165 365.29,-160.98 378.39,-155.58 389.84,-150.47"/>
<polygon fill="#9a32cd" stroke="#9a32cd" points="226.1,-192.2 216.88,-197.42 227.34,-199.08 226.1,-192.2"/>
<text text-anchor="middle" x="309" y="-190" font-family="Helvetica,sans-Serif" font-size="10.00"> _random</text>
</g>
<!-- Node5&#45;&gt;Node1 -->
<g id="edge4" class="edge">
<title>Node5&#45;&gt;Node1</title>
<path fill="none" stroke="#9a32cd" stroke-dasharray="5,2" d="M574.55,-119.23C548.11,-116.8 519.42,-115.98 493,-119 487.26,-119.66 481.3,-120.61 475.39,-121.73"/>
<polygon fill="#9a32cd" stroke="#9a32cd" points="573.93,-122.68 584.23,-120.21 574.63,-115.72 573.93,-122.68"/>
<text text-anchor="middle" x="530.5" y="-122" font-family="Helvetica,sans-Serif" font-size="10.00"> networkManager</text>
</g>
<!-- Node6 -->
<g id="node6" class="node">
<title>Node6</title>
<g id="a_node6"><a xlink:title=" ">
<polygon fill="white" stroke="#666666" points="247,-174 130,-174 130,-144 247,-144 247,-174"/>
<text text-anchor="start" x="138" y="-162" font-family="Helvetica,sans-Serif" font-size="10.00">std::shared_ptr&lt; spdlog</text>
<text text-anchor="middle" x="188.5" y="-151" font-family="Helvetica,sans-Serif" font-size="10.00">::logger &gt;</text>
</a>
</g>
</g>
<!-- Node6&#45;&gt;Node1 -->
<g id="edge6" class="edge">
<title>Node6&#45;&gt;Node1</title>
<path fill="none" stroke="#9a32cd" stroke-dasharray="5,2" d="M258.68,-151.86C294.68,-148.14 337.92,-143.68 370.86,-140.28"/>
<polygon fill="#9a32cd" stroke="#9a32cd" points="258.36,-148.37 248.78,-152.88 259.08,-155.34 258.36,-148.37"/>
<text text-anchor="middle" x="309" y="-153" font-family="Helvetica,sans-Serif" font-size="10.00"> _logger</text>
</g>
<!-- Node7 -->
<g id="node7" class="node">
<title>Node7</title>
<g id="a_node7"><a xlink:title=" ">
<polygon fill="white" stroke="#666666" points="238,-126 139,-126 139,-96 238,-96 238,-126"/>
<text text-anchor="start" x="147" y="-114" font-family="Helvetica,sans-Serif" font-size="10.00">std::shared_ptr&lt; sa</text>
<text text-anchor="middle" x="188.5" y="-103" font-family="Helvetica,sans-Serif" font-size="10.00">::PacketRegistry &gt;</text>
</a>
</g>
</g>
<!-- Node7&#45;&gt;Node1 -->
<g id="edge7" class="edge">
<title>Node7&#45;&gt;Node1</title>
<path fill="none" stroke="#9a32cd" stroke-dasharray="5,2" d="M249.91,-109.43C280.89,-109.49 319.14,-110.89 353,-116 358.9,-116.89 365.01,-118.11 371.05,-119.51"/>
<polygon fill="#9a32cd" stroke="#9a32cd" points="249.92,-105.93 239.93,-109.47 249.95,-112.93 249.92,-105.93"/>
<text text-anchor="middle" x="309" y="-130" font-family="Helvetica,sans-Serif" font-size="10.00"> _tcpPacketRegistry</text>
<text text-anchor="middle" x="309" y="-119" font-family="Helvetica,sans-Serif" font-size="10.00">_udpPacketRegistry</text>
</g>
<!-- Node8 -->
<g id="node8" class="node">
<title>Node8</title>
<g id="a_node8"><a xlink:title=" ">
<polygon fill="white" stroke="#666666" points="238,-78 139,-78 139,-48 238,-48 238,-78"/>
<text text-anchor="start" x="147" y="-66" font-family="Helvetica,sans-Serif" font-size="10.00">std::shared_ptr&lt; sa</text>
<text text-anchor="middle" x="188.5" y="-55" font-family="Helvetica,sans-Serif" font-size="10.00">::TCPClient &gt;</text>
</a>
</g>
</g>
<!-- Node8&#45;&gt;Node1 -->
<g id="edge8" class="edge">
<title>Node8&#45;&gt;Node1</title>
<path fill="none" stroke="#9a32cd" stroke-dasharray="5,2" d="M249.54,-69.28C281.06,-73.84 319.91,-81.48 353,-94 369.94,-100.41 387.47,-110.88 400.62,-119.64"/>
<polygon fill="#9a32cd" stroke="#9a32cd" points="250.17,-65.84 239.78,-67.95 249.21,-72.77 250.17,-65.84"/>
<text text-anchor="middle" x="309" y="-97" font-family="Helvetica,sans-Serif" font-size="10.00"> _tcpClient</text>
</g>
<!-- Node9 -->
<g id="node9" class="node">
<title>Node9</title>
<g id="a_node9"><a xlink:title=" ">
<polygon fill="white" stroke="#666666" points="238,-30 139,-30 139,0 238,0 238,-30"/>
<text text-anchor="start" x="147" y="-18" font-family="Helvetica,sans-Serif" font-size="10.00">std::shared_ptr&lt; sa</text>
<text text-anchor="middle" x="188.5" y="-7" font-family="Helvetica,sans-Serif" font-size="10.00">::UDPClient &gt;</text>
</a>
</g>
</g>
<!-- Node9&#45;&gt;Node1 -->
<g id="edge9" class="edge">
<title>Node9&#45;&gt;Node1</title>
<path fill="none" stroke="#9a32cd" stroke-dasharray="5,2" d="M249.43,-21.19C281.94,-26.64 321.74,-36.87 353,-56 379.4,-72.16 401.17,-101.7 412.81,-119.72"/>
<polygon fill="#9a32cd" stroke="#9a32cd" points="250.18,-17.76 239.76,-19.68 249.1,-24.68 250.18,-17.76"/>
<text text-anchor="middle" x="309" y="-59" font-family="Helvetica,sans-Serif" font-size="10.00"> _udpClient</text>
</g>
</g>
</svg>
