<?xml version="1.0" encoding="UTF-8" standalone="no"?>
<!DOCTYPE svg PUBLIC "-//W3C//DTD SVG 1.1//EN"
 "http://www.w3.org/Graphics/SVG/1.1/DTD/svg11.dtd">
<!-- Generated by graphviz version 7.0.5 (20221223.1930)
 -->
<!-- Title: rtype::server::GameServer Pages: 1 -->
<svg width="565pt" height="361pt"
 viewBox="0.00 0.00 565.00 361.00" xmlns="http://www.w3.org/2000/svg" xmlns:xlink="http://www.w3.org/1999/xlink">
<g id="graph0" class="graph" transform="scale(1 1) rotate(0) translate(4 357)">
<title>rtype::server::GameServer</title>
<!-- Node1 -->
<g id="node1" class="node">
<title>Node1</title>
<g id="a_node1"><a xlink:title=" ">
<polygon fill="#999999" stroke="#666666" points="557,-203.5 429,-203.5 429,-184.5 557,-184.5 557,-203.5"/>
<text text-anchor="middle" x="493" y="-191.5" font-family="Helvetica,sans-Serif" font-size="10.00">rtype::server::GameServer</text>
</a>
</g>
</g>
<!-- Node2 -->
<g id="node2" class="node">
<title>Node2</title>
<g id="a_node2"><a xlink:title=" ">
<polygon fill="white" stroke="#666666" points="292.5,-353 193.5,-353 193.5,-323 292.5,-323 292.5,-353"/>
<text text-anchor="start" x="201.5" y="-341" font-family="Helvetica,sans-Serif" font-size="10.00">std::shared_ptr&lt; sa</text>
<text text-anchor="middle" x="243" y="-330" font-family="Helvetica,sans-Serif" font-size="10.00">::PacketRegistry &gt;</text>
</a>
</g>
</g>
<!-- Node2&#45;&gt;Node1 -->
<g id="edge1" class="edge">
<title>Node2&#45;&gt;Node1</title>
<path fill="none" stroke="#9a32cd" stroke-dasharray="5,2" d="M303.69,-327.23C337.15,-319.26 378.56,-306.04 411,-285 445.25,-262.79 473.89,-222.34 485.92,-203.79"/>
<polygon fill="#9a32cd" stroke="#9a32cd" points="303.12,-323.77 294.14,-329.4 304.67,-330.59 303.12,-323.77"/>
<text text-anchor="middle" x="367" y="-335" font-family="Helvetica,sans-Serif" font-size="10.00"> _tcpPacketRegistry</text>
<text text-anchor="middle" x="367" y="-324" font-family="Helvetica,sans-Serif" font-size="10.00">_udpPacketRegistry</text>
</g>
<!-- Node3 -->
<g id="node3" class="node">
<title>Node3</title>
<g id="a_node3"><a xlink:title=" ">
<polygon fill="white" stroke="#666666" points="292.5,-305 193.5,-305 193.5,-275 292.5,-275 292.5,-305"/>
<text text-anchor="start" x="201.5" y="-293" font-family="Helvetica,sans-Serif" font-size="10.00">std::shared_ptr&lt; sa</text>
<text text-anchor="middle" x="243" y="-282" font-family="Helvetica,sans-Serif" font-size="10.00">::TCPServer &gt;</text>
</a>
</g>
</g>
<!-- Node3&#45;&gt;Node1 -->
<g id="edge2" class="edge">
<title>Node3&#45;&gt;Node1</title>
<path fill="none" stroke="#9a32cd" stroke-dasharray="5,2" d="M304.04,-276.12C336.39,-267.72 376.6,-255.77 411,-241 435.35,-230.54 461.53,-214.35 477.34,-203.96"/>
<polygon fill="#9a32cd" stroke="#9a32cd" points="303.24,-272.71 294.41,-278.57 304.97,-279.5 303.24,-272.71"/>
<text text-anchor="middle" x="367" y="-273" font-family="Helvetica,sans-Serif" font-size="10.00"> _tcpServer</text>
</g>
<!-- Node4 -->
<g id="node4" class="node">
<title>Node4</title>
<g id="a_node4"><a xlink:title=" ">
<polygon fill="white" stroke="#666666" points="292.5,-257 193.5,-257 193.5,-227 292.5,-227 292.5,-257"/>
<text text-anchor="start" x="201.5" y="-245" font-family="Helvetica,sans-Serif" font-size="10.00">std::shared_ptr&lt; sa</text>
<text text-anchor="middle" x="243" y="-234" font-family="Helvetica,sans-Serif" font-size="10.00">::UDPServer &gt;</text>
</a>
</g>
</g>
<!-- Node4&#45;&gt;Node1 -->
<g id="edge3" class="edge">
<title>Node4&#45;&gt;Node1</title>
<path fill="none" stroke="#9a32cd" stroke-dasharray="5,2" d="M304.12,-230.36C345.84,-222.29 400.84,-211.64 440.54,-203.96"/>
<polygon fill="#9a32cd" stroke="#9a32cd" points="303.64,-226.89 294.48,-232.23 304.97,-233.77 303.64,-226.89"/>
<text text-anchor="middle" x="367" y="-229" font-family="Helvetica,sans-Serif" font-size="10.00"> _udpServer</text>
</g>
<!-- Node5 -->
<g id="node5" class="node">
<title>Node5</title>
<g id="a_node5"><a xlink:title=" ">
<polygon fill="white" stroke="#666666" points="301.5,-209 184.5,-209 184.5,-179 301.5,-179 301.5,-209"/>
<text text-anchor="start" x="192.5" y="-197" font-family="Helvetica,sans-Serif" font-size="10.00">std::shared_ptr&lt; spdlog</text>
<text text-anchor="middle" x="243" y="-186" font-family="Helvetica,sans-Serif" font-size="10.00">::logger &gt;</text>
</a>
</g>
</g>
<!-- Node5&#45;&gt;Node1 -->
<g id="edge4" class="edge">
<title>Node5&#45;&gt;Node1</title>
<path fill="none" stroke="#9a32cd" stroke-dasharray="5,2" d="M313.3,-194C349.54,-194 393.56,-194 428.85,-194"/>
<polygon fill="#9a32cd" stroke="#9a32cd" points="313.35,-190.5 303.35,-194 313.35,-197.5 313.35,-190.5"/>
<text text-anchor="middle" x="367" y="-197" font-family="Helvetica,sans-Serif" font-size="10.00"> _logger</text>
</g>
<!-- Node6 -->
<g id="node6" class="node">
<title>Node6</title>
<g id="a_node6"><a xlink:title=" ">
<polygon fill="white" stroke="#666666" points="272.5,-160.5 213.5,-160.5 213.5,-141.5 272.5,-141.5 272.5,-160.5"/>
<text text-anchor="middle" x="243" y="-148.5" font-family="Helvetica,sans-Serif" font-size="10.00">std::string</text>
</a>
</g>
</g>
<!-- Node6&#45;&gt;Node1 -->
<g id="edge5" class="edge">
<title>Node6&#45;&gt;Node1</title>
<path fill="none" stroke="#9a32cd" stroke-dasharray="5,2" d="M284.26,-157.55C318.11,-163.11 367.75,-171.37 411,-179 420.01,-180.59 429.58,-182.32 438.87,-184.03"/>
<polygon fill="#9a32cd" stroke="#9a32cd" points="284.92,-154.11 274.48,-155.95 283.78,-161.02 284.92,-154.11"/>
<text text-anchor="middle" x="367" y="-182" font-family="Helvetica,sans-Serif" font-size="10.00"> _host</text>
</g>
<!-- Node7 -->
<g id="node7" class="node">
<title>Node7</title>
<g id="a_node7"><a xlink:title=" ">
<polygon fill="white" stroke="#666666" points="97.5,-169 4.5,-169 4.5,-139 97.5,-139 97.5,-169"/>
<text text-anchor="start" x="12.5" y="-157" font-family="Helvetica,sans-Serif" font-size="10.00">std::basic_string&lt;</text>
<text text-anchor="middle" x="51" y="-146" font-family="Helvetica,sans-Serif" font-size="10.00"> Char &gt;</text>
</a>
</g>
</g>
<!-- Node7&#45;&gt;Node6 -->
<g id="edge6" class="edge">
<title>Node7&#45;&gt;Node6</title>
<path fill="none" stroke="#63b8ff" d="M109.3,-153.1C143.63,-152.55 185.79,-151.89 213.25,-151.45"/>
<polygon fill="#63b8ff" stroke="#63b8ff" points="109.45,-149.59 99.51,-153.25 109.56,-156.59 109.45,-149.59"/>
</g>
<!-- Node8 -->
<g id="node8" class="node">
<title>Node8</title>
<g id="a_node8"><a xlink:href="class_u_u_i_dv4_1_1_u_u_i_d_generator.html" target="_top" xlink:title=" ">
<polygon fill="white" stroke="#bfbfbf" points="305,-123 181,-123 181,-93 305,-93 305,-123"/>
<text text-anchor="start" x="189" y="-111" font-family="Helvetica,sans-Serif" font-size="10.00">UUIDv4::UUIDGenerator</text>
<text text-anchor="middle" x="243" y="-100" font-family="Helvetica,sans-Serif" font-size="10.00">&lt; std::mt19937 &gt;</text>
</a>
</g>
</g>
<!-- Node8&#45;&gt;Node1 -->
<g id="edge7" class="edge">
<title>Node8&#45;&gt;Node1</title>
<path fill="none" stroke="#9a32cd" stroke-dasharray="5,2" d="M316.67,-121.42C346.46,-128.06 380.94,-137.2 411,-149 435.26,-158.52 461.25,-174.01 477.07,-184.1"/>
<polygon fill="#9a32cd" stroke="#9a32cd" points="317.49,-118.02 306.98,-119.33 316.01,-124.86 317.49,-118.02"/>
<text text-anchor="middle" x="367" y="-152" font-family="Helvetica,sans-Serif" font-size="10.00"> _uuidGenerator</text>
</g>
<!-- Node9 -->
<g id="node9" class="node">
<title>Node9</title>
<g id="a_node9"><a xlink:title=" ">
<polygon fill="white" stroke="#666666" points="102,-121 0,-121 0,-91 102,-91 102,-121"/>
<text text-anchor="start" x="8" y="-109" font-family="Helvetica,sans-Serif" font-size="10.00">std::shared_ptr&lt; std</text>
<text text-anchor="middle" x="51" y="-98" font-family="Helvetica,sans-Serif" font-size="10.00">::mt19937 &gt;</text>
</a>
</g>
</g>
<!-- Node9&#45;&gt;Node8 -->
<g id="edge8" class="edge">
<title>Node9&#45;&gt;Node8</title>
<path fill="none" stroke="#9a32cd" stroke-dasharray="5,2" d="M113.73,-106.65C135.25,-106.88 159.37,-107.13 180.84,-107.36"/>
<polygon fill="#9a32cd" stroke="#9a32cd" points="113.97,-103.15 103.93,-106.55 113.89,-110.15 113.97,-103.15"/>
<text text-anchor="middle" x="141.5" y="-110" font-family="Helvetica,sans-Serif" font-size="10.00"> generator</text>
</g>
<!-- Node10 -->
<g id="node10" class="node">
<title>Node10</title>
<g id="a_node10"><a xlink:title=" ">
<polygon fill="white" stroke="#666666" points="301,-74.5 185,-74.5 185,-33.5 301,-33.5 301,-74.5"/>
<text text-anchor="start" x="193" y="-62.5" font-family="Helvetica,sans-Serif" font-size="10.00">std::unordered_map</text>
<text text-anchor="start" x="193" y="-51.5" font-family="Helvetica,sans-Serif" font-size="10.00">&lt; UUIDv4::UUID, rtype</text>
<text text-anchor="middle" x="243" y="-40.5" font-family="Helvetica,sans-Serif" font-size="10.00">::server::game::Player &gt;</text>
</a>
</g>
</g>
<!-- Node10&#45;&gt;Node1 -->
<g id="edge9" class="edge">
<title>Node10&#45;&gt;Node1</title>
<path fill="none" stroke="#9a32cd" stroke-dasharray="5,2" d="M312.17,-67.77C343.85,-76.18 381.05,-89.06 411,-108 444.11,-128.94 472.9,-166.51 485.39,-184.23"/>
<polygon fill="#9a32cd" stroke="#9a32cd" points="313.24,-64.43 302.68,-65.35 311.51,-71.21 313.24,-64.43"/>
<text text-anchor="middle" x="367" y="-111" font-family="Helvetica,sans-Serif" font-size="10.00"> _players</text>
</g>
<!-- Node11 -->
<g id="node11" class="node">
<title>Node11</title>
<g id="a_node11"><a xlink:href="class_u_u_i_dv4_1_1_u_u_i_d.html" target="_top" xlink:title=" ">
<polygon fill="white" stroke="#bfbfbf" points="91.5,-67.5 10.5,-67.5 10.5,-48.5 91.5,-48.5 91.5,-67.5"/>
<text text-anchor="middle" x="51" y="-55.5" font-family="Helvetica,sans-Serif" font-size="10.00">UUIDv4::UUID</text>
</a>
</g>
</g>
<!-- Node11&#45;&gt;Node10 -->
<g id="edge10" class="edge">
<title>Node11&#45;&gt;Node10</title>
<path fill="none" stroke="#9a32cd" stroke-dasharray="5,2" d="M103.32,-56.92C128.41,-56.39 158.7,-55.75 184.56,-55.21"/>
<polygon fill="#9a32cd" stroke="#9a32cd" points="103.27,-53.42 93.34,-57.13 103.41,-60.42 103.27,-53.42"/>
<text text-anchor="middle" x="141.5" y="-59" font-family="Helvetica,sans-Serif" font-size="10.00"> keys</text>
</g>
<!-- Node12 -->
<g id="node12" class="node">
<title>Node12</title>
<g id="a_node12"><a xlink:href="classrtype_1_1server_1_1game_1_1_player.html" target="_top" xlink:title=" ">
<polygon fill="white" stroke="#bfbfbf" points="100,-30 2,-30 2,0 100,0 100,-30"/>
<text text-anchor="start" x="10" y="-18" font-family="Helvetica,sans-Serif" font-size="10.00">rtype::server::game</text>
<text text-anchor="middle" x="51" y="-7" font-family="Helvetica,sans-Serif" font-size="10.00">::Player</text>
</a>
</g>
</g>
<!-- Node12&#45;&gt;Node10 -->
<g id="edge11" class="edge">
<title>Node12&#45;&gt;Node10</title>
<path fill="none" stroke="#9a32cd" stroke-dasharray="5,2" d="M111.57,-27.23C134.85,-32.01 161.45,-37.47 184.53,-42.2"/>
<polygon fill="#9a32cd" stroke="#9a32cd" points="112.42,-23.83 101.92,-25.25 111.01,-30.69 112.42,-23.83"/>
<text text-anchor="middle" x="141.5" y="-40" font-family="Helvetica,sans-Serif" font-size="10.00"> elements</text>
</g>
</g>
</svg>
