<?xml version="1.0" encoding="UTF-8" standalone="no"?>
<!DOCTYPE svg PUBLIC "-//W3C//DTD SVG 1.1//EN"
 "http://www.w3.org/Graphics/SVG/1.1/DTD/svg11.dtd">
<!-- Generated by graphviz version 7.0.5 (20221223.1930)
 -->
<!-- Title: SceneMain Pages: 1 -->
<svg width="206pt" height="436pt"
 viewBox="0.00 0.00 206.00 436.00" xmlns="http://www.w3.org/2000/svg" xmlns:xlink="http://www.w3.org/1999/xlink">
<g id="graph0" class="graph" transform="scale(1 1) rotate(0) translate(4 432)">
<title>SceneMain</title>
<!-- Node1 -->
<g id="node1" class="node">
<title>Node1</title>
<g id="a_node1"><a xlink:title=" ">
<polygon fill="#999999" stroke="#666666" points="79,-19 14,-19 14,0 79,0 79,-19"/>
<text text-anchor="middle" x="46.5" y="-7" font-family="Helvetica,sans-Serif" font-size="10.00">SceneMain</text>
</a>
</g>
</g>
<!-- Node2 -->
<g id="node2" class="node">
<title>Node2</title>
<g id="a_node2"><a xlink:href="classengine_1_1_scene.html" target="_top" xlink:title=" ">
<polygon fill="white" stroke="#bfbfbf" points="85,-75 8,-75 8,-56 85,-56 85,-75"/>
<text text-anchor="middle" x="46.5" y="-63" font-family="Helvetica,sans-Serif" font-size="10.00">engine::Scene</text>
</a>
</g>
</g>
<!-- Node2&#45;&gt;Node1 -->
<g id="edge1" class="edge">
<title>Node2&#45;&gt;Node1</title>
<path fill="none" stroke="#63b8ff" d="M46.5,-44.11C46.5,-35.52 46.5,-25.97 46.5,-19.25"/>
<polygon fill="#63b8ff" stroke="#63b8ff" points="43,-44.07 46.5,-54.07 50,-44.07 43,-44.07"/>
</g>
<!-- Node3 -->
<g id="node3" class="node">
<title>Node3</title>
<g id="a_node3"><a xlink:title=" ">
<polygon fill="white" stroke="#666666" points="76,-361 17,-361 17,-342 76,-342 76,-361"/>
<text text-anchor="middle" x="46.5" y="-349" font-family="Helvetica,sans-Serif" font-size="10.00">std::string</text>
</a>
</g>
</g>
<!-- Node3&#45;&gt;Node2 -->
<g id="edge2" class="edge">
<title>Node3&#45;&gt;Node2</title>
<path fill="none" stroke="#9a32cd" stroke-dasharray="5,2" d="M39,-331.03C34.84,-318.51 30.5,-301.78 30.5,-286.5 30.5,-286.5 30.5,-286.5 30.5,-136 30.5,-113.71 38.41,-88.41 43.11,-75.35"/>
<polygon fill="#9a32cd" stroke="#9a32cd" points="35.6,-331.91 42.28,-340.14 42.19,-329.54 35.6,-331.91"/>
<text text-anchor="middle" x="46.5" y="-211.5" font-family="Helvetica,sans-Serif" font-size="10.00"> _name</text>
</g>
<!-- Node7 -->
<g id="node7" class="node">
<title>Node7</title>
<g id="a_node7"><a xlink:href="classengine_1_1_base.html" target="_top" xlink:title=" ">
<polygon fill="white" stroke="#bfbfbf" points="152.5,-295 80.5,-295 80.5,-276 152.5,-276 152.5,-295"/>
<text text-anchor="middle" x="116.5" y="-283" font-family="Helvetica,sans-Serif" font-size="10.00">engine::Base</text>
</a>
</g>
</g>
<!-- Node3&#45;&gt;Node7 -->
<g id="edge7" class="edge">
<title>Node3&#45;&gt;Node7</title>
<path fill="none" stroke="#9a32cd" stroke-dasharray="5,2" d="M64.73,-333.83C78.2,-321.52 96.02,-305.23 106.85,-295.32"/>
<polygon fill="#9a32cd" stroke="#9a32cd" points="62.37,-331.25 57.35,-340.58 67.09,-336.42 62.37,-331.25"/>
<text text-anchor="middle" x="117" y="-316" font-family="Helvetica,sans-Serif" font-size="10.00"> _uniqueName</text>
</g>
<!-- Node4 -->
<g id="node4" class="node">
<title>Node4</title>
<g id="a_node4"><a xlink:title=" ">
<polygon fill="white" stroke="#666666" points="93,-428 0,-428 0,-398 93,-398 93,-428"/>
<text text-anchor="start" x="8" y="-416" font-family="Helvetica,sans-Serif" font-size="10.00">std::basic_string&lt;</text>
<text text-anchor="middle" x="46.5" y="-405" font-family="Helvetica,sans-Serif" font-size="10.00"> Char &gt;</text>
</a>
</g>
</g>
<!-- Node4&#45;&gt;Node3 -->
<g id="edge3" class="edge">
<title>Node4&#45;&gt;Node3</title>
<path fill="none" stroke="#63b8ff" d="M46.5,-386.13C46.5,-377.29 46.5,-367.99 46.5,-361.42"/>
<polygon fill="#63b8ff" stroke="#63b8ff" points="43,-386.08 46.5,-396.08 50,-386.08 43,-386.08"/>
</g>
<!-- Node5 -->
<g id="node5" class="node">
<title>Node5</title>
<g id="a_node5"><a xlink:title=" ">
<polygon fill="white" stroke="#666666" points="187,-152 70,-152 70,-122 187,-122 187,-152"/>
<text text-anchor="start" x="78" y="-140" font-family="Helvetica,sans-Serif" font-size="10.00">std::vector&lt; std::shared</text>
<text text-anchor="middle" x="128.5" y="-129" font-family="Helvetica,sans-Serif" font-size="10.00">_ptr&lt; engine::Base &gt; &gt;</text>
</a>
</g>
</g>
<!-- Node5&#45;&gt;Node2 -->
<g id="edge4" class="edge">
<title>Node5&#45;&gt;Node2</title>
<path fill="none" stroke="#9a32cd" stroke-dasharray="5,2" d="M102.82,-114.23C87.24,-101.03 68.21,-84.9 56.74,-75.18"/>
<polygon fill="#9a32cd" stroke="#9a32cd" points="100.46,-116.83 110.35,-120.62 104.99,-111.49 100.46,-116.83"/>
<text text-anchor="middle" x="109.5" y="-96" font-family="Helvetica,sans-Serif" font-size="10.00"> _entities</text>
</g>
<!-- Node6 -->
<g id="node6" class="node">
<title>Node6</title>
<g id="a_node6"><a xlink:title=" ">
<polygon fill="white" stroke="#666666" points="198,-229 81,-229 81,-199 198,-199 198,-229"/>
<text text-anchor="start" x="89" y="-217" font-family="Helvetica,sans-Serif" font-size="10.00">std::shared_ptr&lt; engine</text>
<text text-anchor="middle" x="139.5" y="-206" font-family="Helvetica,sans-Serif" font-size="10.00">::Base &gt;</text>
</a>
</g>
</g>
<!-- Node6&#45;&gt;Node5 -->
<g id="edge5" class="edge">
<title>Node6&#45;&gt;Node5</title>
<path fill="none" stroke="#9a32cd" stroke-dasharray="5,2" d="M135.72,-187.23C134.01,-175.58 132.06,-162.26 130.61,-152.42"/>
<polygon fill="#9a32cd" stroke="#9a32cd" points="132.25,-187.66 137.16,-197.04 139.17,-186.64 132.25,-187.66"/>
<text text-anchor="middle" x="156" y="-173" font-family="Helvetica,sans-Serif" font-size="10.00"> elements</text>
</g>
<!-- Node7&#45;&gt;Node6 -->
<g id="edge6" class="edge">
<title>Node7&#45;&gt;Node6</title>
<path fill="none" stroke="#9a32cd" stroke-dasharray="5,2" d="M122.91,-265.12C126.68,-253.75 131.35,-239.63 134.78,-229.27"/>
<polygon fill="#9a32cd" stroke="#9a32cd" points="119.71,-263.67 119.89,-274.26 126.35,-265.87 119.71,-263.67"/>
<text text-anchor="middle" x="135.5" y="-250" font-family="Helvetica,sans-Serif" font-size="10.00"> ptr</text>
</g>
</g>
</svg>
