<?xml version="1.0" encoding="UTF-8" standalone="no"?>
<!DOCTYPE svg PUBLIC "-//W3C//DTD SVG 1.1//EN"
 "http://www.w3.org/Graphics/SVG/1.1/DTD/svg11.dtd">
<!-- Generated by graphviz version 7.0.5 (20221223.1930)
 -->
<!-- Title: engine::Manager Pages: 1 -->
<svg width="1364pt" height="397pt"
 viewBox="0.00 0.00 1364.00 397.00" xmlns="http://www.w3.org/2000/svg" xmlns:xlink="http://www.w3.org/1999/xlink">
<g id="graph0" class="graph" transform="scale(1 1) rotate(0) translate(4 393)">
<title>engine::Manager</title>
<!-- Node1 -->
<g id="node1" class="node">
<title>Node1</title>
<g id="a_node1"><a xlink:title=" ">
<polygon fill="#999999" stroke="#666666" points="1356,-181 1269,-181 1269,-162 1356,-162 1356,-181"/>
<text text-anchor="middle" x="1312.5" y="-169" font-family="Helvetica,sans-Serif" font-size="10.00">engine::Manager</text>
</a>
</g>
</g>
<!-- Node2 -->
<g id="node2" class="node">
<title>Node2</title>
<g id="a_node2"><a xlink:title=" ">
<polygon fill="white" stroke="#666666" points="1162.5,-305.5 1045.5,-305.5 1045.5,-275.5 1162.5,-275.5 1162.5,-305.5"/>
<text text-anchor="start" x="1053.5" y="-293.5" font-family="Helvetica,sans-Serif" font-size="10.00">std::shared_ptr&lt; engine</text>
<text text-anchor="middle" x="1104" y="-282.5" font-family="Helvetica,sans-Serif" font-size="10.00">::RenderWindow &gt;</text>
</a>
</g>
</g>
<!-- Node2&#45;&gt;Node1 -->
<g id="edge1" class="edge">
<title>Node2&#45;&gt;Node1</title>
<path fill="none" stroke="#9a32cd" stroke-dasharray="5,2" d="M1158.19,-270.89C1186.76,-259.28 1221.96,-243.19 1251,-224.5 1270.73,-211.8 1290.62,-192.94 1301.96,-181.48"/>
<polygon fill="#9a32cd" stroke="#9a32cd" points="1156.99,-267.6 1149,-274.55 1159.59,-274.1 1156.99,-267.6"/>
<text text-anchor="middle" x="1216" y="-263.5" font-family="Helvetica,sans-Serif" font-size="10.00"> window</text>
</g>
<!-- Node3 -->
<g id="node3" class="node">
<title>Node3</title>
<g id="a_node3"><a xlink:href="classengine_1_1_render_window.html" target="_top" xlink:title=" ">
<polygon fill="white" stroke="#bfbfbf" points="993,-349 878,-349 878,-330 993,-330 993,-349"/>
<text text-anchor="middle" x="935.5" y="-337" font-family="Helvetica,sans-Serif" font-size="10.00">engine::RenderWindow</text>
</a>
</g>
</g>
<!-- Node3&#45;&gt;Node2 -->
<g id="edge2" class="edge">
<title>Node3&#45;&gt;Node2</title>
<path fill="none" stroke="#9a32cd" stroke-dasharray="5,2" d="M981.21,-326.34C1002.5,-320.08 1028.11,-312.54 1050.34,-306"/>
<polygon fill="#9a32cd" stroke="#9a32cd" points="980.25,-322.98 971.65,-329.16 982.23,-329.69 980.25,-322.98"/>
<text text-anchor="middle" x="1020" y="-318.5" font-family="Helvetica,sans-Serif" font-size="10.00"> ptr</text>
</g>
<!-- Node4 -->
<g id="node4" class="node">
<title>Node4</title>
<g id="a_node4"><a xlink:title=" ">
<polygon fill="white" stroke="#bfbfbf" points="737,-389 642,-389 642,-370 737,-370 737,-389"/>
<text text-anchor="middle" x="689.5" y="-377" font-family="Helvetica,sans-Serif" font-size="10.00">sf::RenderWindow</text>
</a>
</g>
</g>
<!-- Node4&#45;&gt;Node3 -->
<g id="edge3" class="edge">
<title>Node4&#45;&gt;Node3</title>
<path fill="none" stroke="#63b8ff" d="M748.44,-370C787.49,-363.6 838.77,-355.19 877.6,-348.83"/>
<polygon fill="#63b8ff" stroke="#63b8ff" points="748.05,-366.52 738.75,-371.59 749.19,-373.43 748.05,-366.52"/>
</g>
<!-- Node5 -->
<g id="node5" class="node">
<title>Node5</title>
<g id="a_node5"><a xlink:title=" ">
<polygon fill="white" stroke="#666666" points="1163,-249.5 1045,-249.5 1045,-219.5 1163,-219.5 1163,-249.5"/>
<text text-anchor="start" x="1053" y="-237.5" font-family="Helvetica,sans-Serif" font-size="10.00">std::shared_ptr&lt; uranus</text>
<text text-anchor="middle" x="1104" y="-226.5" font-family="Helvetica,sans-Serif" font-size="10.00">::ecs::Registry &gt;</text>
</a>
</g>
</g>
<!-- Node5&#45;&gt;Node1 -->
<g id="edge4" class="edge">
<title>Node5&#45;&gt;Node1</title>
<path fill="none" stroke="#9a32cd" stroke-dasharray="5,2" d="M1166.44,-215.76C1203.37,-204.49 1248.88,-190.6 1278.97,-181.42"/>
<polygon fill="#9a32cd" stroke="#9a32cd" points="1165.77,-212.3 1157.23,-218.57 1167.81,-219 1165.77,-212.3"/>
<text text-anchor="middle" x="1216" y="-212.5" font-family="Helvetica,sans-Serif" font-size="10.00"> registry</text>
</g>
<!-- Node6 -->
<g id="node6" class="node">
<title>Node6</title>
<g id="a_node6"><a xlink:href="classuranus_1_1ecs_1_1_registry.html" target="_top" xlink:title="Registry class, used to store and manage entities and their components.">
<polygon fill="white" stroke="#666666" points="988.5,-272 882.5,-272 882.5,-253 988.5,-253 988.5,-272"/>
<text text-anchor="middle" x="935.5" y="-260" font-family="Helvetica,sans-Serif" font-size="10.00">uranus::ecs::Registry</text>
</a>
</g>
</g>
<!-- Node6&#45;&gt;Node5 -->
<g id="edge5" class="edge">
<title>Node6&#45;&gt;Node5</title>
<path fill="none" stroke="#9a32cd" stroke-dasharray="5,2" d="M999.77,-251.86C1014.49,-249.38 1030.09,-246.76 1044.59,-244.32"/>
<polygon fill="#9a32cd" stroke="#9a32cd" points="999.5,-248.36 990.22,-253.47 1000.66,-255.26 999.5,-248.36"/>
<text text-anchor="middle" x="1020" y="-251.5" font-family="Helvetica,sans-Serif" font-size="10.00"> ptr</text>
</g>
<!-- Node7 -->
<g id="node7" class="node">
<title>Node7</title>
<g id="a_node7"><a xlink:title=" ">
<polygon fill="white" stroke="#666666" points="743,-352 636,-352 636,-311 743,-311 743,-352"/>
<text text-anchor="start" x="644" y="-340" font-family="Helvetica,sans-Serif" font-size="10.00">std::unordered_map</text>
<text text-anchor="start" x="644" y="-329" font-family="Helvetica,sans-Serif" font-size="10.00">&lt; std::type_index, std</text>
<text text-anchor="middle" x="689.5" y="-318" font-family="Helvetica,sans-Serif" font-size="10.00">::any &gt;</text>
</a>
</g>
</g>
<!-- Node7&#45;&gt;Node6 -->
<g id="edge6" class="edge">
<title>Node7&#45;&gt;Node6</title>
<path fill="none" stroke="#9a32cd" stroke-dasharray="5,2" d="M754.28,-313.46C800.6,-300.37 861.54,-283.13 899.35,-272.44"/>
<polygon fill="#9a32cd" stroke="#9a32cd" points="753.57,-310.03 744.9,-316.12 755.48,-316.76 753.57,-310.03"/>
<text text-anchor="middle" x="813.5" y="-311.5" font-family="Helvetica,sans-Serif" font-size="10.00"> _componentsArrays</text>
</g>
<!-- Node8 -->
<g id="node8" class="node">
<title>Node8</title>
<g id="a_node8"><a xlink:title=" ">
<polygon fill="white" stroke="#666666" points="743,-292.5 636,-292.5 636,-240.5 743,-240.5 743,-292.5"/>
<text text-anchor="start" x="644" y="-280.5" font-family="Helvetica,sans-Serif" font-size="10.00">std::unordered_map</text>
<text text-anchor="start" x="644" y="-269.5" font-family="Helvetica,sans-Serif" font-size="10.00">&lt; std::type_index, std</text>
<text text-anchor="start" x="644" y="-258.5" font-family="Helvetica,sans-Serif" font-size="10.00">::function&lt; void(size</text>
<text text-anchor="middle" x="689.5" y="-247.5" font-family="Helvetica,sans-Serif" font-size="10.00">_t const &amp;)&gt; &gt;</text>
</a>
</g>
</g>
<!-- Node8&#45;&gt;Node6 -->
<g id="edge7" class="edge">
<title>Node8&#45;&gt;Node6</title>
<path fill="none" stroke="#9a32cd" stroke-dasharray="5,2" d="M754.87,-265.44C794.56,-264.79 844.82,-263.97 882.08,-263.36"/>
<polygon fill="#9a32cd" stroke="#9a32cd" points="754.9,-261.94 744.96,-265.61 755.01,-268.94 754.9,-261.94"/>
<text text-anchor="middle" x="813.5" y="-267.5" font-family="Helvetica,sans-Serif" font-size="10.00"> _destroyArrays</text>
</g>
<!-- Node9 -->
<g id="node9" class="node">
<title>Node9</title>
<g id="a_node9"><a xlink:title=" ">
<polygon fill="white" stroke="#666666" points="734,-222 645,-222 645,-203 734,-203 734,-222"/>
<text text-anchor="middle" x="689.5" y="-210" font-family="Helvetica,sans-Serif" font-size="10.00">std::list&lt; size_t &gt;</text>
</a>
</g>
</g>
<!-- Node9&#45;&gt;Node6 -->
<g id="edge8" class="edge">
<title>Node9&#45;&gt;Node6</title>
<path fill="none" stroke="#9a32cd" stroke-dasharray="5,2" d="M745.6,-223.79C787.79,-232.44 845.45,-244.25 885.93,-252.55"/>
<polygon fill="#9a32cd" stroke="#9a32cd" points="746.39,-220.38 735.89,-221.8 744.98,-227.24 746.39,-220.38"/>
<text text-anchor="middle" x="813.5" y="-248.5" font-family="Helvetica,sans-Serif" font-size="10.00"> _freeIds</text>
</g>
<!-- Node10 -->
<g id="node10" class="node">
<title>Node10</title>
<g id="a_node10"><a xlink:title=" ">
<polygon fill="white" stroke="#666666" points="1162.5,-138.5 1045.5,-138.5 1045.5,-108.5 1162.5,-108.5 1162.5,-138.5"/>
<text text-anchor="start" x="1053.5" y="-126.5" font-family="Helvetica,sans-Serif" font-size="10.00">std::shared_ptr&lt; engine</text>
<text text-anchor="middle" x="1104" y="-115.5" font-family="Helvetica,sans-Serif" font-size="10.00">::SceneManager &gt;</text>
</a>
</g>
</g>
<!-- Node10&#45;&gt;Node1 -->
<g id="edge9" class="edge">
<title>Node10&#45;&gt;Node1</title>
<path fill="none" stroke="#9a32cd" stroke-dasharray="5,2" d="M1173.92,-138.77C1198.3,-144.25 1225.89,-150.55 1251,-156.5 1257.74,-158.1 1264.89,-159.83 1271.83,-161.54"/>
<polygon fill="#9a32cd" stroke="#9a32cd" points="1174.97,-135.42 1164.45,-136.64 1173.44,-142.25 1174.97,-135.42"/>
<text text-anchor="middle" x="1216" y="-159.5" font-family="Helvetica,sans-Serif" font-size="10.00"> sceneManager</text>
</g>
<!-- Node11 -->
<g id="node11" class="node">
<title>Node11</title>
<g id="a_node11"><a xlink:href="classengine_1_1_scene_manager.html" target="_top" xlink:title=" ">
<polygon fill="white" stroke="#bfbfbf" points="993,-133 878,-133 878,-114 993,-114 993,-133"/>
<text text-anchor="middle" x="935.5" y="-121" font-family="Helvetica,sans-Serif" font-size="10.00">engine::SceneManager</text>
</a>
</g>
</g>
<!-- Node11&#45;&gt;Node10 -->
<g id="edge10" class="edge">
<title>Node11&#45;&gt;Node10</title>
<path fill="none" stroke="#9a32cd" stroke-dasharray="5,2" d="M1004.47,-123.5C1017.92,-123.5 1031.92,-123.5 1045.01,-123.5"/>
<polygon fill="#9a32cd" stroke="#9a32cd" points="1004.85,-120 994.85,-123.5 1004.85,-127 1004.85,-120"/>
<text text-anchor="middle" x="1020" y="-126.5" font-family="Helvetica,sans-Serif" font-size="10.00"> ptr</text>
</g>
<!-- Node12 -->
<g id="node12" class="node">
<title>Node12</title>
<g id="a_node12"><a xlink:title=" ">
<polygon fill="white" stroke="#666666" points="549,-121.5 432,-121.5 432,-91.5 549,-91.5 549,-121.5"/>
<text text-anchor="start" x="440" y="-109.5" font-family="Helvetica,sans-Serif" font-size="10.00">std::shared_ptr&lt; engine</text>
<text text-anchor="middle" x="490.5" y="-98.5" font-family="Helvetica,sans-Serif" font-size="10.00">::Scene &gt;</text>
</a>
</g>
</g>
<!-- Node12&#45;&gt;Node11 -->
<g id="edge11" class="edge">
<title>Node12&#45;&gt;Node11</title>
<path fill="none" stroke="#9a32cd" stroke-dasharray="5,2" d="M560.8,-109.16C648.13,-112.51 796.61,-118.21 877.62,-121.32"/>
<polygon fill="#9a32cd" stroke="#9a32cd" points="561.05,-105.67 550.93,-108.78 560.79,-112.66 561.05,-105.67"/>
<text text-anchor="middle" x="689.5" y="-118.5" font-family="Helvetica,sans-Serif" font-size="10.00"> _actualScene</text>
</g>
<!-- Node16 -->
<g id="node16" class="node">
<title>Node16</title>
<g id="a_node16"><a xlink:title=" ">
<polygon fill="white" stroke="#666666" points="749,-89.5 630,-89.5 630,-59.5 749,-59.5 749,-89.5"/>
<text text-anchor="start" x="638" y="-77.5" font-family="Helvetica,sans-Serif" font-size="10.00">std::vector&lt; std::shared</text>
<text text-anchor="middle" x="689.5" y="-66.5" font-family="Helvetica,sans-Serif" font-size="10.00">_ptr&lt; engine::Scene &gt; &gt;</text>
</a>
</g>
</g>
<!-- Node12&#45;&gt;Node16 -->
<g id="edge16" class="edge">
<title>Node12&#45;&gt;Node16</title>
<path fill="none" stroke="#9a32cd" stroke-dasharray="5,2" d="M560.5,-95.29C583.08,-91.62 607.94,-87.59 629.7,-84.05"/>
<polygon fill="#9a32cd" stroke="#9a32cd" points="560.08,-91.81 550.77,-96.87 561.2,-98.72 560.08,-91.81"/>
<text text-anchor="middle" x="588.5" y="-96.5" font-family="Helvetica,sans-Serif" font-size="10.00"> elements</text>
</g>
<!-- Node13 -->
<g id="node13" class="node">
<title>Node13</title>
<g id="a_node13"><a xlink:href="classengine_1_1_scene.html" target="_top" xlink:title=" ">
<polygon fill="white" stroke="#bfbfbf" points="370.5,-113 293.5,-113 293.5,-94 370.5,-94 370.5,-113"/>
<text text-anchor="middle" x="332" y="-101" font-family="Helvetica,sans-Serif" font-size="10.00">engine::Scene</text>
</a>
</g>
</g>
<!-- Node13&#45;&gt;Node12 -->
<g id="edge12" class="edge">
<title>Node13&#45;&gt;Node12</title>
<path fill="none" stroke="#9a32cd" stroke-dasharray="5,2" d="M382.01,-104.44C397.8,-104.74 415.45,-105.08 431.8,-105.39"/>
<polygon fill="#9a32cd" stroke="#9a32cd" points="382.46,-100.95 372.4,-104.26 382.33,-107.95 382.46,-100.95"/>
<text text-anchor="middle" x="402.5" y="-107.5" font-family="Helvetica,sans-Serif" font-size="10.00"> ptr</text>
</g>
<!-- Node14 -->
<g id="node14" class="node">
<title>Node14</title>
<g id="a_node14"><a xlink:title=" ">
<polygon fill="white" stroke="#666666" points="190.5,-89 131.5,-89 131.5,-70 190.5,-70 190.5,-89"/>
<text text-anchor="middle" x="161" y="-77" font-family="Helvetica,sans-Serif" font-size="10.00">std::string</text>
</a>
</g>
</g>
<!-- Node14&#45;&gt;Node13 -->
<g id="edge13" class="edge">
<title>Node14&#45;&gt;Node13</title>
<path fill="none" stroke="#9a32cd" stroke-dasharray="5,2" d="M201.92,-85.17C229.56,-89.09 266.12,-94.29 293.28,-98.14"/>
<polygon fill="#9a32cd" stroke="#9a32cd" points="202.56,-81.72 192.17,-83.78 201.58,-88.66 202.56,-81.72"/>
<text text-anchor="middle" x="241.5" y="-98.5" font-family="Helvetica,sans-Serif" font-size="10.00"> _name</text>
</g>
<!-- Node21 -->
<g id="node21" class="node">
<title>Node21</title>
<g id="a_node21"><a xlink:href="classengine_1_1_texture.html" target="_top" xlink:title=" ">
<polygon fill="white" stroke="#bfbfbf" points="373,-169 291,-169 291,-150 373,-150 373,-169"/>
<text text-anchor="middle" x="332" y="-157" font-family="Helvetica,sans-Serif" font-size="10.00">engine::Texture</text>
</a>
</g>
</g>
<!-- Node14&#45;&gt;Node21 -->
<g id="edge23" class="edge">
<title>Node14&#45;&gt;Node21</title>
<path fill="none" stroke="#9a32cd" stroke-dasharray="5,2" d="M185.26,-95.78C192.95,-100.82 201.68,-106.18 210,-110.5 240.57,-126.38 277.5,-140.68 302.45,-149.67"/>
<polygon fill="#9a32cd" stroke="#9a32cd" points="187.37,-92.98 177.12,-90.29 183.46,-98.78 187.37,-92.98"/>
<text text-anchor="middle" x="241.5" y="-140.5" font-family="Helvetica,sans-Serif" font-size="10.00"> _name</text>
</g>
<!-- Node25 -->
<g id="node25" class="node">
<title>Node25</title>
<g id="a_node25"><a xlink:title=" ">
<polygon fill="white" stroke="#666666" points="749,-41 630,-41 630,0 749,0 749,-41"/>
<text text-anchor="start" x="638" y="-29" font-family="Helvetica,sans-Serif" font-size="10.00">std::map&lt; std::string,</text>
<text text-anchor="start" x="638" y="-18" font-family="Helvetica,sans-Serif" font-size="10.00"> std::shared_ptr&lt; engine</text>
<text text-anchor="middle" x="689.5" y="-7" font-family="Helvetica,sans-Serif" font-size="10.00">::Base &gt; &gt;</text>
</a>
</g>
</g>
<!-- Node14&#45;&gt;Node25 -->
<g id="edge27" class="edge">
<title>Node14&#45;&gt;Node25</title>
<path fill="none" stroke="#9a32cd" stroke-dasharray="5,2" d="M202.09,-76.62C272.44,-71.4 422.66,-59.52 549,-44.5 576.21,-41.26 582.98,-40.07 610,-35.5 616.43,-34.41 623.14,-33.22 629.82,-31.99"/>
<polygon fill="#9a32cd" stroke="#9a32cd" points="201.93,-73.12 192.21,-77.35 202.44,-80.11 201.93,-73.12"/>
<text text-anchor="middle" x="402.5" y="-64.5" font-family="Helvetica,sans-Serif" font-size="10.00"> keys</text>
</g>
<!-- Node27 -->
<g id="node27" class="node">
<title>Node27</title>
<g id="a_node27"><a xlink:href="classengine_1_1_base.html" target="_top" xlink:title=" ">
<polygon fill="white" stroke="#bfbfbf" points="368,-34 296,-34 296,-15 368,-15 368,-34"/>
<text text-anchor="middle" x="332" y="-22" font-family="Helvetica,sans-Serif" font-size="10.00">engine::Base</text>
</a>
</g>
</g>
<!-- Node14&#45;&gt;Node27 -->
<g id="edge30" class="edge">
<title>Node14&#45;&gt;Node27</title>
<path fill="none" stroke="#9a32cd" stroke-dasharray="5,2" d="M177.99,-61.58C186.6,-53.13 197.92,-43.77 210,-38.5 237.14,-26.67 270.78,-23.59 295.7,-23.23"/>
<polygon fill="#9a32cd" stroke="#9a32cd" points="175.51,-59.11 171.13,-68.75 180.57,-63.95 175.51,-59.11"/>
<text text-anchor="middle" x="241.5" y="-41.5" font-family="Helvetica,sans-Serif" font-size="10.00"> _uniqueName</text>
</g>
<!-- Node15 -->
<g id="node15" class="node">
<title>Node15</title>
<g id="a_node15"><a xlink:title=" ">
<polygon fill="white" stroke="#666666" points="93,-94.5 0,-94.5 0,-64.5 93,-64.5 93,-94.5"/>
<text text-anchor="start" x="8" y="-82.5" font-family="Helvetica,sans-Serif" font-size="10.00">std::basic_string&lt;</text>
<text text-anchor="middle" x="46.5" y="-71.5" font-family="Helvetica,sans-Serif" font-size="10.00"> Char &gt;</text>
</a>
</g>
</g>
<!-- Node15&#45;&gt;Node14 -->
<g id="edge14" class="edge">
<title>Node15&#45;&gt;Node14</title>
<path fill="none" stroke="#63b8ff" d="M104.76,-79.5C113.88,-79.5 122.97,-79.5 131.06,-79.5"/>
<polygon fill="#63b8ff" stroke="#63b8ff" points="104.77,-76 94.77,-79.5 104.77,-83 104.77,-76"/>
</g>
<!-- Node16&#45;&gt;Node11 -->
<g id="edge15" class="edge">
<title>Node16&#45;&gt;Node11</title>
<path fill="none" stroke="#9a32cd" stroke-dasharray="5,2" d="M760.67,-83.19C790.81,-87.49 826.32,-93.31 858,-100.5 873.69,-104.06 890.87,-109.11 904.96,-113.58"/>
<polygon fill="#9a32cd" stroke="#9a32cd" points="761.29,-79.74 750.9,-81.83 760.32,-86.68 761.29,-79.74"/>
<text text-anchor="middle" x="813.5" y="-103.5" font-family="Helvetica,sans-Serif" font-size="10.00"> _scenes</text>
</g>
<!-- Node17 -->
<g id="node17" class="node">
<title>Node17</title>
<g id="a_node17"><a xlink:title=" ">
<polygon fill="white" stroke="#666666" points="1162.5,-186.5 1045.5,-186.5 1045.5,-156.5 1162.5,-156.5 1162.5,-186.5"/>
<text text-anchor="start" x="1053.5" y="-174.5" font-family="Helvetica,sans-Serif" font-size="10.00">std::shared_ptr&lt; engine</text>
<text text-anchor="middle" x="1104" y="-163.5" font-family="Helvetica,sans-Serif" font-size="10.00">::TextureManager &gt;</text>
</a>
</g>
</g>
<!-- Node17&#45;&gt;Node1 -->
<g id="edge17" class="edge">
<title>Node17&#45;&gt;Node1</title>
<path fill="none" stroke="#9a32cd" stroke-dasharray="5,2" d="M1174.1,-171.5C1205.43,-171.5 1241.49,-171.5 1268.81,-171.5"/>
<polygon fill="#9a32cd" stroke="#9a32cd" points="1174.31,-168 1164.31,-171.5 1174.31,-175 1174.31,-168"/>
<text text-anchor="middle" x="1216" y="-174.5" font-family="Helvetica,sans-Serif" font-size="10.00"> textureManager</text>
</g>
<!-- Node18 -->
<g id="node18" class="node">
<title>Node18</title>
<g id="a_node18"><a xlink:href="classengine_1_1_texture_manager.html" target="_top" xlink:title=" ">
<polygon fill="white" stroke="#bfbfbf" points="995,-180 876,-180 876,-161 995,-161 995,-180"/>
<text text-anchor="middle" x="935.5" y="-168" font-family="Helvetica,sans-Serif" font-size="10.00">engine::TextureManager</text>
</a>
</g>
</g>
<!-- Node18&#45;&gt;Node17 -->
<g id="edge18" class="edge">
<title>Node18&#45;&gt;Node17</title>
<path fill="none" stroke="#9a32cd" stroke-dasharray="5,2" d="M1006.39,-170.92C1019.28,-171 1032.62,-171.08 1045.11,-171.15"/>
<polygon fill="#9a32cd" stroke="#9a32cd" points="1006.74,-167.42 996.72,-170.86 1006.69,-174.42 1006.74,-167.42"/>
<text text-anchor="middle" x="1020" y="-173.5" font-family="Helvetica,sans-Serif" font-size="10.00"> ptr</text>
</g>
<!-- Node19 -->
<g id="node19" class="node">
<title>Node19</title>
<g id="a_node19"><a xlink:title=" ">
<polygon fill="white" stroke="#666666" points="751,-184.5 628,-184.5 628,-154.5 751,-154.5 751,-184.5"/>
<text text-anchor="start" x="636" y="-172.5" font-family="Helvetica,sans-Serif" font-size="10.00">std::vector&lt; std::shared</text>
<text text-anchor="middle" x="689.5" y="-161.5" font-family="Helvetica,sans-Serif" font-size="10.00">_ptr&lt; engine::Texture &gt; &gt;</text>
</a>
</g>
</g>
<!-- Node19&#45;&gt;Node18 -->
<g id="edge19" class="edge">
<title>Node19&#45;&gt;Node18</title>
<path fill="none" stroke="#9a32cd" stroke-dasharray="5,2" d="M762.85,-169.8C798.8,-169.94 841.68,-170.12 875.6,-170.26"/>
<polygon fill="#9a32cd" stroke="#9a32cd" points="762.97,-166.3 752.96,-169.76 762.94,-173.3 762.97,-166.3"/>
<text text-anchor="middle" x="813.5" y="-172.5" font-family="Helvetica,sans-Serif" font-size="10.00"> _textures</text>
</g>
<!-- Node20 -->
<g id="node20" class="node">
<title>Node20</title>
<g id="a_node20"><a xlink:title=" ">
<polygon fill="white" stroke="#666666" points="549,-177.5 432,-177.5 432,-147.5 549,-147.5 549,-177.5"/>
<text text-anchor="start" x="440" y="-165.5" font-family="Helvetica,sans-Serif" font-size="10.00">std::shared_ptr&lt; engine</text>
<text text-anchor="middle" x="490.5" y="-154.5" font-family="Helvetica,sans-Serif" font-size="10.00">::Texture &gt;</text>
</a>
</g>
</g>
<!-- Node20&#45;&gt;Node19 -->
<g id="edge20" class="edge">
<title>Node20&#45;&gt;Node19</title>
<path fill="none" stroke="#9a32cd" stroke-dasharray="5,2" d="M560.49,-164.95C582.37,-165.73 606.38,-166.58 627.64,-167.34"/>
<polygon fill="#9a32cd" stroke="#9a32cd" points="560.91,-161.46 550.79,-164.61 560.66,-168.46 560.91,-161.46"/>
<text text-anchor="middle" x="588.5" y="-169.5" font-family="Helvetica,sans-Serif" font-size="10.00"> elements</text>
</g>
<!-- Node21&#45;&gt;Node20 -->
<g id="edge21" class="edge">
<title>Node21&#45;&gt;Node20</title>
<path fill="none" stroke="#9a32cd" stroke-dasharray="5,2" d="M384.5,-160.49C399.59,-160.78 416.18,-161.09 431.64,-161.39"/>
<polygon fill="#9a32cd" stroke="#9a32cd" points="384.88,-156.99 374.82,-160.3 384.75,-163.99 384.88,-156.99"/>
<text text-anchor="middle" x="402.5" y="-163.5" font-family="Helvetica,sans-Serif" font-size="10.00"> ptr</text>
</g>
<!-- Node22 -->
<g id="node22" class="node">
<title>Node22</title>
<g id="a_node22"><a xlink:title=" ">
<polygon fill="white" stroke="#bfbfbf" points="192,-169 130,-169 130,-150 192,-150 192,-169"/>
<text text-anchor="middle" x="161" y="-157" font-family="Helvetica,sans-Serif" font-size="10.00">sf::Texture</text>
</a>
</g>
</g>
<!-- Node22&#45;&gt;Node21 -->
<g id="edge22" class="edge">
<title>Node22&#45;&gt;Node21</title>
<path fill="none" stroke="#63b8ff" d="M203.43,-159.5C229.97,-159.5 264.23,-159.5 290.57,-159.5"/>
<polygon fill="#63b8ff" stroke="#63b8ff" points="203.73,-156 193.73,-159.5 203.73,-163 203.73,-156"/>
</g>
<!-- Node23 -->
<g id="node23" class="node">
<title>Node23</title>
<g id="a_node23"><a xlink:title=" ">
<polygon fill="white" stroke="#666666" points="1162.5,-89.5 1045.5,-89.5 1045.5,-59.5 1162.5,-59.5 1162.5,-89.5"/>
<text text-anchor="start" x="1053.5" y="-77.5" font-family="Helvetica,sans-Serif" font-size="10.00">std::shared_ptr&lt; engine</text>
<text text-anchor="middle" x="1104" y="-66.5" font-family="Helvetica,sans-Serif" font-size="10.00">::EntityManager &gt;</text>
</a>
</g>
</g>
<!-- Node23&#45;&gt;Node1 -->
<g id="edge24" class="edge">
<title>Node23&#45;&gt;Node1</title>
<path fill="none" stroke="#9a32cd" stroke-dasharray="5,2" d="M1173.17,-93.4C1198.36,-101.64 1226.69,-112.44 1251,-125.5 1269.83,-135.62 1289.06,-151.35 1300.64,-161.54"/>
<polygon fill="#9a32cd" stroke="#9a32cd" points="1174.24,-90.07 1163.65,-90.37 1172.12,-96.74 1174.24,-90.07"/>
<text text-anchor="middle" x="1216" y="-128.5" font-family="Helvetica,sans-Serif" font-size="10.00"> entityManager</text>
</g>
<!-- Node24 -->
<g id="node24" class="node">
<title>Node24</title>
<g id="a_node24"><a xlink:href="classengine_1_1_entity_manager.html" target="_top" xlink:title=" ">
<polygon fill="white" stroke="#bfbfbf" points="991,-75 880,-75 880,-56 991,-56 991,-75"/>
<text text-anchor="middle" x="935.5" y="-63" font-family="Helvetica,sans-Serif" font-size="10.00">engine::EntityManager</text>
</a>
</g>
</g>
<!-- Node24&#45;&gt;Node23 -->
<g id="edge25" class="edge">
<title>Node24&#45;&gt;Node23</title>
<path fill="none" stroke="#9a32cd" stroke-dasharray="5,2" d="M1002.6,-69.07C1016.69,-69.83 1031.47,-70.63 1045.22,-71.38"/>
<polygon fill="#9a32cd" stroke="#9a32cd" points="1003.17,-65.6 992.99,-68.55 1002.79,-72.59 1003.17,-65.6"/>
<text text-anchor="middle" x="1020" y="-73.5" font-family="Helvetica,sans-Serif" font-size="10.00"> ptr</text>
</g>
<!-- Node25&#45;&gt;Node24 -->
<g id="edge26" class="edge">
<title>Node25&#45;&gt;Node24</title>
<path fill="none" stroke="#9a32cd" stroke-dasharray="5,2" d="M760.29,-33.37C798.47,-40.41 845.04,-49 880.43,-55.53"/>
<polygon fill="#9a32cd" stroke="#9a32cd" points="761.21,-29.98 750.74,-31.61 759.94,-36.87 761.21,-29.98"/>
<text text-anchor="middle" x="813.5" y="-54.5" font-family="Helvetica,sans-Serif" font-size="10.00"> _prefabs</text>
</g>
<!-- Node26 -->
<g id="node26" class="node">
<title>Node26</title>
<g id="a_node26"><a xlink:title=" ">
<polygon fill="white" stroke="#666666" points="549,-35.5 432,-35.5 432,-5.5 549,-5.5 549,-35.5"/>
<text text-anchor="start" x="440" y="-23.5" font-family="Helvetica,sans-Serif" font-size="10.00">std::shared_ptr&lt; engine</text>
<text text-anchor="middle" x="490.5" y="-12.5" font-family="Helvetica,sans-Serif" font-size="10.00">::Base &gt;</text>
</a>
</g>
</g>
<!-- Node26&#45;&gt;Node25 -->
<g id="edge28" class="edge">
<title>Node26&#45;&gt;Node25</title>
<path fill="none" stroke="#9a32cd" stroke-dasharray="5,2" d="M560.5,-20.5C583.08,-20.5 607.94,-20.5 629.7,-20.5"/>
<polygon fill="#9a32cd" stroke="#9a32cd" points="560.79,-17 550.79,-20.5 560.79,-24 560.79,-17"/>
<text text-anchor="middle" x="588.5" y="-23.5" font-family="Helvetica,sans-Serif" font-size="10.00"> elements</text>
</g>
<!-- Node27&#45;&gt;Node26 -->
<g id="edge29" class="edge">
<title>Node27&#45;&gt;Node26</title>
<path fill="none" stroke="#9a32cd" stroke-dasharray="5,2" d="M379.6,-23.31C395.98,-22.89 414.58,-22.41 431.77,-21.98"/>
<polygon fill="#9a32cd" stroke="#9a32cd" points="379.54,-19.81 369.63,-23.56 379.72,-26.81 379.54,-19.81"/>
<text text-anchor="middle" x="402.5" y="-26.5" font-family="Helvetica,sans-Serif" font-size="10.00"> ptr</text>
</g>
</g>
</svg>
