<?xml version="1.0" encoding="UTF-8" standalone="no"?>
<!DOCTYPE svg PUBLIC "-//W3C//DTD SVG 1.1//EN"
 "http://www.w3.org/Graphics/SVG/1.1/DTD/svg11.dtd">
<!-- Generated by graphviz version 7.0.5 (20221223.1930)
 -->
<!-- Title: rtype::network::packet::S2CEntitySpawn Pages: 1 -->
<svg width="246pt" height="159pt"
 viewBox="0.00 0.00 246.00 159.00" xmlns="http://www.w3.org/2000/svg" xmlns:xlink="http://www.w3.org/1999/xlink">
<g id="graph0" class="graph" transform="scale(1 1) rotate(0) translate(4 155)">
<title>rtype::network::packet::S2CEntitySpawn</title>
<!-- Node1 -->
<g id="node1" class="node">
<title>Node1</title>
<g id="a_node1"><a xlink:title=" ">
<polygon fill="#999999" stroke="#666666" points="174,-96 64,-96 64,-66 174,-66 174,-96"/>
<text text-anchor="start" x="72" y="-84" font-family="Helvetica,sans-Serif" font-size="10.00">rtype::network::packet</text>
<text text-anchor="middle" x="119" y="-73" font-family="Helvetica,sans-Serif" font-size="10.00">::S2CEntitySpawn</text>
</a>
</g>
</g>
<!-- Node3 -->
<g id="node3" class="node">
<title>Node3</title>
<g id="a_node3"><a xlink:href="classrtype_1_1network_1_1packet_1_1_s2_c_spawn_bullet.html" target="_top" xlink:title=" ">
<polygon fill="white" stroke="#bfbfbf" points="110,-30 0,-30 0,0 110,0 110,-30"/>
<text text-anchor="start" x="8" y="-18" font-family="Helvetica,sans-Serif" font-size="10.00">rtype::network::packet</text>
<text text-anchor="middle" x="55" y="-7" font-family="Helvetica,sans-Serif" font-size="10.00">::S2CSpawnBullet</text>
</a>
</g>
</g>
<!-- Node1&#45;&gt;Node3 -->
<g id="edge2" class="edge">
<title>Node1&#45;&gt;Node3</title>
<path fill="none" stroke="#63b8ff" d="M96.81,-57.81C87.64,-48.64 77.28,-38.28 69.16,-30.16"/>
<polygon fill="#63b8ff" stroke="#63b8ff" points="94.18,-60.13 103.73,-64.73 99.13,-55.18 94.18,-60.13"/>
</g>
<!-- Node4 -->
<g id="node4" class="node">
<title>Node4</title>
<g id="a_node4"><a xlink:href="classrtype_1_1network_1_1packet_1_1_s2_c_spawn_player.html" target="_top" xlink:title=" ">
<polygon fill="white" stroke="#bfbfbf" points="238,-30 128,-30 128,0 238,0 238,-30"/>
<text text-anchor="start" x="136" y="-18" font-family="Helvetica,sans-Serif" font-size="10.00">rtype::network::packet</text>
<text text-anchor="middle" x="183" y="-7" font-family="Helvetica,sans-Serif" font-size="10.00">::S2CSpawnPlayer</text>
</a>
</g>
</g>
<!-- Node1&#45;&gt;Node4 -->
<g id="edge3" class="edge">
<title>Node1&#45;&gt;Node4</title>
<path fill="none" stroke="#63b8ff" d="M141.19,-57.81C150.36,-48.64 160.72,-38.28 168.84,-30.16"/>
<polygon fill="#63b8ff" stroke="#63b8ff" points="138.87,-55.18 134.27,-64.73 143.82,-60.13 138.87,-55.18"/>
</g>
<!-- Node2 -->
<g id="node2" class="node">
<title>Node2</title>
<g id="a_node2"><a xlink:title=" ">
<polygon fill="white" stroke="#bfbfbf" points="168.5,-151 69.5,-151 69.5,-132 168.5,-132 168.5,-151"/>
<text text-anchor="middle" x="119" y="-139" font-family="Helvetica,sans-Serif" font-size="10.00">sa::AbstractPacket</text>
</a>
</g>
</g>
<!-- Node2&#45;&gt;Node1 -->
<g id="edge1" class="edge">
<title>Node2&#45;&gt;Node1</title>
<path fill="none" stroke="#63b8ff" d="M119,-120.51C119,-112.49 119,-103.43 119,-96.11"/>
<polygon fill="#63b8ff" stroke="#63b8ff" points="115.5,-120.35 119,-130.35 122.5,-120.35 115.5,-120.35"/>
</g>
</g>
</svg>
