<?xml version="1.0" encoding="UTF-8" standalone="no"?>
<!DOCTYPE svg PUBLIC "-//W3C//DTD SVG 1.1//EN"
 "http://www.w3.org/Graphics/SVG/1.1/DTD/svg11.dtd">
<!-- Generated by graphviz version 7.0.5 (20221223.1930)
 -->
<!-- Title: rtype::server::GameServer Pages: 1 -->
<svg width="554pt" height="313pt"
 viewBox="0.00 0.00 554.00 313.00" xmlns="http://www.w3.org/2000/svg" xmlns:xlink="http://www.w3.org/1999/xlink">
<g id="graph0" class="graph" transform="scale(1 1) rotate(0) translate(4 309)">
<title>rtype::server::GameServer</title>
<!-- Node1 -->
<g id="node1" class="node">
<title>Node1</title>
<g id="a_node1"><a xlink:title=" ">
<polygon fill="#999999" stroke="#666666" points="546,-179.5 418,-179.5 418,-160.5 546,-160.5 546,-179.5"/>
<text text-anchor="middle" x="482" y="-167.5" font-family="Helvetica,sans-Serif" font-size="10.00">rtype::server::GameServer</text>
</a>
</g>
</g>
<!-- Node2 -->
<g id="node2" class="node">
<title>Node2</title>
<g id="a_node2"><a xlink:title=" ">
<polygon fill="white" stroke="#666666" points="285,-305 186,-305 186,-275 285,-275 285,-305"/>
<text text-anchor="start" x="194" y="-293" font-family="Helvetica,sans-Serif" font-size="10.00">std::shared_ptr&lt; sa</text>
<text text-anchor="middle" x="235.5" y="-282" font-family="Helvetica,sans-Serif" font-size="10.00">::PacketRegistry &gt;</text>
</a>
</g>
</g>
<!-- Node2&#45;&gt;Node1 -->
<g id="edge1" class="edge">
<title>Node2&#45;&gt;Node1</title>
<path fill="none" stroke="#9a32cd" stroke-dasharray="5,2" d="M296.41,-277.49C328.41,-269.31 367.74,-256.79 400,-239 429.44,-222.76 457.96,-194.74 471.99,-179.89"/>
<polygon fill="#9a32cd" stroke="#9a32cd" points="295.76,-274.04 286.89,-279.84 297.44,-280.84 295.76,-274.04"/>
<text text-anchor="middle" x="356" y="-286" font-family="Helvetica,sans-Serif" font-size="10.00"> _tcpPacketRegistry</text>
<text text-anchor="middle" x="356" y="-275" font-family="Helvetica,sans-Serif" font-size="10.00">_udpPacketRegistry</text>
</g>
<!-- Node3 -->
<g id="node3" class="node">
<title>Node3</title>
<g id="a_node3"><a xlink:title=" ">
<polygon fill="white" stroke="#666666" points="285,-257 186,-257 186,-227 285,-227 285,-257"/>
<text text-anchor="start" x="194" y="-245" font-family="Helvetica,sans-Serif" font-size="10.00">std::shared_ptr&lt; sa</text>
<text text-anchor="middle" x="235.5" y="-234" font-family="Helvetica,sans-Serif" font-size="10.00">::TCPServer &gt;</text>
</a>
</g>
</g>
<!-- Node3&#45;&gt;Node1 -->
<g id="edge2" class="edge">
<title>Node3&#45;&gt;Node1</title>
<path fill="none" stroke="#9a32cd" stroke-dasharray="5,2" d="M296.34,-228.81C327.5,-221.49 366.07,-211.7 400,-201 419.53,-194.84 441.17,-186.47 457.17,-179.99"/>
<polygon fill="#9a32cd" stroke="#9a32cd" points="295.64,-225.38 286.69,-231.05 297.22,-232.2 295.64,-225.38"/>
<text text-anchor="middle" x="356" y="-227" font-family="Helvetica,sans-Serif" font-size="10.00"> _tcpServer</text>
</g>
<!-- Node4 -->
<g id="node4" class="node">
<title>Node4</title>
<g id="a_node4"><a xlink:title=" ">
<polygon fill="white" stroke="#666666" points="285,-209 186,-209 186,-179 285,-179 285,-209"/>
<text text-anchor="start" x="194" y="-197" font-family="Helvetica,sans-Serif" font-size="10.00">std::shared_ptr&lt; sa</text>
<text text-anchor="middle" x="235.5" y="-186" font-family="Helvetica,sans-Serif" font-size="10.00">::UDPServer &gt;</text>
</a>
</g>
</g>
<!-- Node4&#45;&gt;Node1 -->
<g id="edge3" class="edge">
<title>Node4&#45;&gt;Node1</title>
<path fill="none" stroke="#9a32cd" stroke-dasharray="5,2" d="M296.47,-188.11C333.29,-184.5 380.39,-179.88 417.79,-176.2"/>
<polygon fill="#9a32cd" stroke="#9a32cd" points="296.51,-184.59 286.9,-189.05 297.19,-191.56 296.51,-184.59"/>
<text text-anchor="middle" x="356" y="-189" font-family="Helvetica,sans-Serif" font-size="10.00"> _udpServer</text>
</g>
<!-- Node5 -->
<g id="node5" class="node">
<title>Node5</title>
<g id="a_node5"><a xlink:title=" ">
<polygon fill="white" stroke="#666666" points="294,-161 177,-161 177,-131 294,-131 294,-161"/>
<text text-anchor="start" x="185" y="-149" font-family="Helvetica,sans-Serif" font-size="10.00">std::shared_ptr&lt; spdlog</text>
<text text-anchor="middle" x="235.5" y="-138" font-family="Helvetica,sans-Serif" font-size="10.00">::logger &gt;</text>
</a>
</g>
</g>
<!-- Node5&#45;&gt;Node1 -->
<g id="edge4" class="edge">
<title>Node5&#45;&gt;Node1</title>
<path fill="none" stroke="#9a32cd" stroke-dasharray="5,2" d="M305.62,-152.78C340.9,-156.25 383.51,-160.43 417.9,-163.81"/>
<polygon fill="#9a32cd" stroke="#9a32cd" points="306.24,-149.33 295.95,-151.84 305.56,-156.3 306.24,-149.33"/>
<text text-anchor="middle" x="356" y="-164" font-family="Helvetica,sans-Serif" font-size="10.00"> _logger</text>
</g>
<!-- Node6 -->
<g id="node6" class="node">
<title>Node6</title>
<g id="a_node6"><a xlink:title=" ">
<polygon fill="white" stroke="#666666" points="265,-112.5 206,-112.5 206,-93.5 265,-93.5 265,-112.5"/>
<text text-anchor="middle" x="235.5" y="-100.5" font-family="Helvetica,sans-Serif" font-size="10.00">std::string</text>
</a>
</g>
</g>
<!-- Node6&#45;&gt;Node1 -->
<g id="edge5" class="edge">
<title>Node6&#45;&gt;Node1</title>
<path fill="none" stroke="#9a32cd" stroke-dasharray="5,2" d="M276.35,-109.63C309.75,-115.63 358.49,-125.45 400,-138 420.26,-144.13 442.59,-153.12 458.66,-160.02"/>
<polygon fill="#9a32cd" stroke="#9a32cd" points="277.16,-106.21 266.71,-107.93 275.95,-113.11 277.16,-106.21"/>
<text text-anchor="middle" x="356" y="-141" font-family="Helvetica,sans-Serif" font-size="10.00"> _host</text>
</g>
<!-- Node7 -->
<g id="node7" class="node">
<title>Node7</title>
<g id="a_node7"><a xlink:title=" ">
<polygon fill="white" stroke="#666666" points="95.5,-118 2.5,-118 2.5,-88 95.5,-88 95.5,-118"/>
<text text-anchor="start" x="10.5" y="-106" font-family="Helvetica,sans-Serif" font-size="10.00">std::basic_string&lt;</text>
<text text-anchor="middle" x="49" y="-95" font-family="Helvetica,sans-Serif" font-size="10.00"> Char &gt;</text>
</a>
</g>
</g>
<!-- Node7&#45;&gt;Node6 -->
<g id="edge6" class="edge">
<title>Node7&#45;&gt;Node6</title>
<path fill="none" stroke="#63b8ff" d="M106.84,-103C139.5,-103 179.15,-103 205.51,-103"/>
<polygon fill="#63b8ff" stroke="#63b8ff" points="107.12,-99.5 97.12,-103 107.12,-106.5 107.12,-99.5"/>
</g>
<!-- Node8 -->
<g id="node8" class="node">
<title>Node8</title>
<g id="a_node8"><a xlink:title=" ">
<polygon fill="white" stroke="#666666" points="293.5,-75.5 177.5,-75.5 177.5,-34.5 293.5,-34.5 293.5,-75.5"/>
<text text-anchor="start" x="185.5" y="-63.5" font-family="Helvetica,sans-Serif" font-size="10.00">std::unordered_map</text>
<text text-anchor="start" x="185.5" y="-52.5" font-family="Helvetica,sans-Serif" font-size="10.00">&lt; UUIDv4::UUID, rtype</text>
<text text-anchor="middle" x="235.5" y="-41.5" font-family="Helvetica,sans-Serif" font-size="10.00">::server::game::Player &gt;</text>
</a>
</g>
</g>
<!-- Node8&#45;&gt;Node1 -->
<g id="edge7" class="edge">
<title>Node8&#45;&gt;Node1</title>
<path fill="none" stroke="#9a32cd" stroke-dasharray="5,2" d="M304.89,-67.91C335.16,-75.3 370.51,-86.3 400,-102 429.5,-117.7 457.99,-145.45 472,-160.18"/>
<polygon fill="#9a32cd" stroke="#9a32cd" points="305.99,-64.58 295.46,-65.7 304.39,-71.39 305.99,-64.58"/>
<text text-anchor="middle" x="356" y="-105" font-family="Helvetica,sans-Serif" font-size="10.00"> _players</text>
</g>
<!-- Node9 -->
<g id="node9" class="node">
<title>Node9</title>
<g id="a_node9"><a xlink:href="class_u_u_i_dv4_1_1_u_u_i_d.html" target="_top" xlink:title=" ">
<polygon fill="white" stroke="#bfbfbf" points="89.5,-67.5 8.5,-67.5 8.5,-48.5 89.5,-48.5 89.5,-67.5"/>
<text text-anchor="middle" x="49" y="-55.5" font-family="Helvetica,sans-Serif" font-size="10.00">UUIDv4::UUID</text>
</a>
</g>
</g>
<!-- Node9&#45;&gt;Node8 -->
<g id="edge8" class="edge">
<title>Node9&#45;&gt;Node8</title>
<path fill="none" stroke="#9a32cd" stroke-dasharray="5,2" d="M100.79,-57.17C124.45,-56.79 152.7,-56.33 177.13,-55.93"/>
<polygon fill="#9a32cd" stroke="#9a32cd" points="101.03,-53.67 91.09,-57.33 101.15,-60.67 101.03,-53.67"/>
<text text-anchor="middle" x="137.5" y="-59" font-family="Helvetica,sans-Serif" font-size="10.00"> keys</text>
</g>
<!-- Node10 -->
<g id="node10" class="node">
<title>Node10</title>
<g id="a_node10"><a xlink:href="classrtype_1_1server_1_1game_1_1_player.html" target="_top" xlink:title=" ">
<polygon fill="white" stroke="#bfbfbf" points="98,-30 0,-30 0,0 98,0 98,-30"/>
<text text-anchor="start" x="8" y="-18" font-family="Helvetica,sans-Serif" font-size="10.00">rtype::server::game</text>
<text text-anchor="middle" x="49" y="-7" font-family="Helvetica,sans-Serif" font-size="10.00">::Player</text>
</a>
</g>
</g>
<!-- Node10&#45;&gt;Node8 -->
<g id="edge9" class="edge">
<title>Node10&#45;&gt;Node8</title>
<path fill="none" stroke="#9a32cd" stroke-dasharray="5,2" d="M109.53,-27.91C131.22,-32.61 155.68,-37.91 177.17,-42.57"/>
<polygon fill="#9a32cd" stroke="#9a32cd" points="110.47,-24.53 99.95,-25.83 108.99,-31.37 110.47,-24.53"/>
<text text-anchor="middle" x="137.5" y="-42" font-family="Helvetica,sans-Serif" font-size="10.00"> elements</text>
</g>
</g>
</svg>
