<?xml version="1.0" encoding="UTF-8" standalone="no"?>
<!DOCTYPE svg PUBLIC "-//W3C//DTD SVG 1.1//EN"
 "http://www.w3.org/Graphics/SVG/1.1/DTD/svg11.dtd">
<!-- Generated by graphviz version 7.0.5 (20221223.1930)
 -->
<!-- Title: uranus::ex::InvalidEntityIndex Pages: 1 -->
<svg width="183pt" height="227pt"
 viewBox="0.00 0.00 183.00 227.00" xmlns="http://www.w3.org/2000/svg" xmlns:xlink="http://www.w3.org/1999/xlink">
<g id="graph0" class="graph" transform="scale(1 1) rotate(0) translate(4 223)">
<title>uranus::ex::InvalidEntityIndex</title>
<!-- Node1 -->
<g id="node1" class="node">
<title>Node1</title>
<g id="a_node1"><a xlink:title="Thrown when an entity has an invalid index.">
<polygon fill="#999999" stroke="#666666" points="117,-30 0,-30 0,0 117,0 117,-30"/>
<text text-anchor="start" x="8" y="-18" font-family="Helvetica,sans-Serif" font-size="10.00">uranus::ex::InvalidEntity</text>
<text text-anchor="middle" x="58.5" y="-7" font-family="Helvetica,sans-Serif" font-size="10.00">Index</text>
</a>
</g>
</g>
<!-- Node2 -->
<g id="node2" class="node">
<title>Node2</title>
<g id="a_node2"><a xlink:href="classuranus_1_1ex_1_1_exception.html" target="_top" xlink:title="The exception class.">
<polygon fill="white" stroke="#666666" points="112,-86 5,-86 5,-67 112,-67 112,-86"/>
<text text-anchor="middle" x="58.5" y="-74" font-family="Helvetica,sans-Serif" font-size="10.00">uranus::ex::Exception</text>
</a>
</g>
</g>
<!-- Node2&#45;&gt;Node1 -->
<g id="edge1" class="edge">
<title>Node2&#45;&gt;Node1</title>
<path fill="none" stroke="#63b8ff" d="M58.5,-55.46C58.5,-47.23 58.5,-37.89 58.5,-30.36"/>
<polygon fill="#63b8ff" stroke="#63b8ff" points="55,-55.21 58.5,-65.21 62,-55.21 55,-55.21"/>
</g>
<!-- Node3 -->
<g id="node3" class="node">
<title>Node3</title>
<g id="a_node3"><a xlink:title=" ">
<polygon fill="white" stroke="#666666" points="80.5,-152 4.5,-152 4.5,-133 80.5,-133 80.5,-152"/>
<text text-anchor="middle" x="42.5" y="-140" font-family="Helvetica,sans-Serif" font-size="10.00">std::exception</text>
</a>
</g>
</g>
<!-- Node3&#45;&gt;Node2 -->
<g id="edge2" class="edge">
<title>Node3&#45;&gt;Node2</title>
<path fill="none" stroke="#63b8ff" d="M47.49,-121.55C50.44,-109.74 54.03,-95.37 56.29,-86.32"/>
<polygon fill="#63b8ff" stroke="#63b8ff" points="44.12,-120.58 45.09,-131.13 50.91,-122.28 44.12,-120.58"/>
</g>
<!-- Node4 -->
<g id="node4" class="node">
<title>Node4</title>
<g id="a_node4"><a xlink:title=" ">
<polygon fill="white" stroke="#666666" points="158,-152 99,-152 99,-133 158,-133 158,-152"/>
<text text-anchor="middle" x="128.5" y="-140" font-family="Helvetica,sans-Serif" font-size="10.00">std::string</text>
</a>
</g>
</g>
<!-- Node4&#45;&gt;Node2 -->
<g id="edge3" class="edge">
<title>Node4&#45;&gt;Node2</title>
<path fill="none" stroke="#9a32cd" stroke-dasharray="5,2" d="M110.27,-124.83C96.8,-112.52 78.98,-96.23 68.15,-86.32"/>
<polygon fill="#9a32cd" stroke="#9a32cd" points="107.91,-127.42 117.65,-131.58 112.63,-122.25 107.91,-127.42"/>
<text text-anchor="middle" x="121.5" y="-107" font-family="Helvetica,sans-Serif" font-size="10.00"> _message</text>
</g>
<!-- Node5 -->
<g id="node5" class="node">
<title>Node5</title>
<g id="a_node5"><a xlink:title=" ">
<polygon fill="white" stroke="#666666" points="175,-219 82,-219 82,-189 175,-189 175,-219"/>
<text text-anchor="start" x="90" y="-207" font-family="Helvetica,sans-Serif" font-size="10.00">std::basic_string&lt;</text>
<text text-anchor="middle" x="128.5" y="-196" font-family="Helvetica,sans-Serif" font-size="10.00"> Char &gt;</text>
</a>
</g>
</g>
<!-- Node5&#45;&gt;Node4 -->
<g id="edge4" class="edge">
<title>Node5&#45;&gt;Node4</title>
<path fill="none" stroke="#63b8ff" d="M128.5,-177.13C128.5,-168.29 128.5,-158.99 128.5,-152.42"/>
<polygon fill="#63b8ff" stroke="#63b8ff" points="125,-177.08 128.5,-187.08 132,-177.08 125,-177.08"/>
</g>
</g>
</svg>
