<?xml version="1.0" encoding="UTF-8" standalone="no"?>
<!DOCTYPE svg PUBLIC "-//W3C//DTD SVG 1.1//EN"
 "http://www.w3.org/Graphics/SVG/1.1/DTD/svg11.dtd">
<!-- Generated by graphviz version 7.0.5 (20221223.1930)
 -->
<!-- Title: rtype::server::GameServer Pages: 1 -->
<svg width="723pt" height="290pt"
 viewBox="0.00 0.00 723.00 290.00" xmlns="http://www.w3.org/2000/svg" xmlns:xlink="http://www.w3.org/1999/xlink">
<g id="graph0" class="graph" transform="scale(1 1) rotate(0) translate(4 286)">
<title>rtype::server::GameServer</title>
<!-- Node1 -->
<g id="node1" class="node">
<title>Node1</title>
<g id="a_node1"><a xlink:title=" ">
<polygon fill="#999999" stroke="#666666" points="715,-156.5 587,-156.5 587,-137.5 715,-137.5 715,-156.5"/>
<text text-anchor="middle" x="651" y="-144.5" font-family="Helvetica,sans-Serif" font-size="10.00">rtype::server::GameServer</text>
</a>
</g>
</g>
<!-- Node2 -->
<g id="node2" class="node">
<title>Node2</title>
<g id="a_node2"><a xlink:title=" ">
<polygon fill="white" stroke="#666666" points="452.5,-282 353.5,-282 353.5,-252 452.5,-252 452.5,-282"/>
<text text-anchor="start" x="361.5" y="-270" font-family="Helvetica,sans-Serif" font-size="10.00">std::shared_ptr&lt; sa</text>
<text text-anchor="middle" x="403" y="-259" font-family="Helvetica,sans-Serif" font-size="10.00">::PacketRegistry &gt;</text>
</a>
</g>
</g>
<!-- Node2&#45;&gt;Node1 -->
<g id="edge1" class="edge">
<title>Node2&#45;&gt;Node1</title>
<path fill="none" stroke="#9a32cd" stroke-dasharray="5,2" d="M463.77,-254.75C496.19,-246.6 536.21,-234.03 569,-216 598.46,-199.8 626.97,-171.76 640.99,-156.9"/>
<polygon fill="#9a32cd" stroke="#9a32cd" points="463,-251.33 454.11,-257.09 464.65,-258.13 463,-251.33"/>
<text text-anchor="middle" x="525" y="-263" font-family="Helvetica,sans-Serif" font-size="10.00"> _tcpPacketRegistry</text>
<text text-anchor="middle" x="525" y="-252" font-family="Helvetica,sans-Serif" font-size="10.00">_udpPacketRegistry</text>
</g>
<!-- Node3 -->
<g id="node3" class="node">
<title>Node3</title>
<g id="a_node3"><a xlink:title=" ">
<polygon fill="white" stroke="#666666" points="452.5,-234 353.5,-234 353.5,-204 452.5,-204 452.5,-234"/>
<text text-anchor="start" x="361.5" y="-222" font-family="Helvetica,sans-Serif" font-size="10.00">std::shared_ptr&lt; sa</text>
<text text-anchor="middle" x="403" y="-211" font-family="Helvetica,sans-Serif" font-size="10.00">::TCPServer &gt;</text>
</a>
</g>
</g>
<!-- Node3&#45;&gt;Node1 -->
<g id="edge2" class="edge">
<title>Node3&#45;&gt;Node1</title>
<path fill="none" stroke="#9a32cd" stroke-dasharray="5,2" d="M463.63,-206.03C495.21,-198.7 534.49,-188.85 569,-178 588.68,-171.81 610.49,-163.37 626.52,-156.86"/>
<polygon fill="#9a32cd" stroke="#9a32cd" points="463.24,-202.53 454.28,-208.18 464.81,-209.35 463.24,-202.53"/>
<text text-anchor="middle" x="525" y="-204" font-family="Helvetica,sans-Serif" font-size="10.00"> _tcpServer</text>
</g>
<!-- Node4 -->
<g id="node4" class="node">
<title>Node4</title>
<g id="a_node4"><a xlink:title=" ">
<polygon fill="white" stroke="#666666" points="452.5,-186 353.5,-186 353.5,-156 452.5,-156 452.5,-186"/>
<text text-anchor="start" x="361.5" y="-174" font-family="Helvetica,sans-Serif" font-size="10.00">std::shared_ptr&lt; sa</text>
<text text-anchor="middle" x="403" y="-163" font-family="Helvetica,sans-Serif" font-size="10.00">::UDPServer &gt;</text>
</a>
</g>
</g>
<!-- Node4&#45;&gt;Node1 -->
<g id="edge3" class="edge">
<title>Node4&#45;&gt;Node1</title>
<path fill="none" stroke="#9a32cd" stroke-dasharray="5,2" d="M464.08,-165.14C501.26,-161.51 548.95,-156.86 586.71,-153.17"/>
<polygon fill="#9a32cd" stroke="#9a32cd" points="464.02,-161.63 454.4,-166.08 464.69,-168.6 464.02,-161.63"/>
<text text-anchor="middle" x="525" y="-166" font-family="Helvetica,sans-Serif" font-size="10.00"> _udpServer</text>
</g>
<!-- Node5 -->
<g id="node5" class="node">
<title>Node5</title>
<g id="a_node5"><a xlink:title=" ">
<polygon fill="white" stroke="#666666" points="461.5,-138 344.5,-138 344.5,-108 461.5,-108 461.5,-138"/>
<text text-anchor="start" x="352.5" y="-126" font-family="Helvetica,sans-Serif" font-size="10.00">std::shared_ptr&lt; spdlog</text>
<text text-anchor="middle" x="403" y="-115" font-family="Helvetica,sans-Serif" font-size="10.00">::logger &gt;</text>
</a>
</g>
</g>
<!-- Node5&#45;&gt;Node1 -->
<g id="edge4" class="edge">
<title>Node5&#45;&gt;Node1</title>
<path fill="none" stroke="#9a32cd" stroke-dasharray="5,2" d="M473.28,-129.76C508.92,-133.24 552.06,-137.45 586.79,-140.83"/>
<polygon fill="#9a32cd" stroke="#9a32cd" points="473.79,-126.29 463.49,-128.8 473.11,-133.26 473.79,-126.29"/>
<text text-anchor="middle" x="525" y="-141" font-family="Helvetica,sans-Serif" font-size="10.00"> _logger</text>
</g>
<!-- Node6 -->
<g id="node6" class="node">
<title>Node6</title>
<g id="a_node6"><a xlink:title=" ">
<polygon fill="white" stroke="#666666" points="432.5,-89.5 373.5,-89.5 373.5,-70.5 432.5,-70.5 432.5,-89.5"/>
<text text-anchor="middle" x="403" y="-77.5" font-family="Helvetica,sans-Serif" font-size="10.00">std::string</text>
</a>
</g>
</g>
<!-- Node6&#45;&gt;Node1 -->
<g id="edge5" class="edge">
<title>Node6&#45;&gt;Node1</title>
<path fill="none" stroke="#9a32cd" stroke-dasharray="5,2" d="M444.22,-86.59C477.93,-92.57 527.11,-102.38 569,-115 589.27,-121.11 611.59,-130.1 627.66,-137"/>
<polygon fill="#9a32cd" stroke="#9a32cd" points="444.93,-83.16 434.47,-84.89 443.73,-90.06 444.93,-83.16"/>
<text text-anchor="middle" x="525" y="-118" font-family="Helvetica,sans-Serif" font-size="10.00"> _host</text>
</g>
<!-- Node7 -->
<g id="node7" class="node">
<title>Node7</title>
<g id="a_node7"><a xlink:title=" ">
<polygon fill="white" stroke="#666666" points="252.5,-95 159.5,-95 159.5,-65 252.5,-65 252.5,-95"/>
<text text-anchor="start" x="167.5" y="-83" font-family="Helvetica,sans-Serif" font-size="10.00">std::basic_string&lt;</text>
<text text-anchor="middle" x="206" y="-72" font-family="Helvetica,sans-Serif" font-size="10.00"> Char &gt;</text>
</a>
</g>
</g>
<!-- Node7&#45;&gt;Node6 -->
<g id="edge6" class="edge">
<title>Node7&#45;&gt;Node6</title>
<path fill="none" stroke="#63b8ff" d="M264.01,-80C299.85,-80 344.55,-80 373.19,-80"/>
<polygon fill="#63b8ff" stroke="#63b8ff" points="264.23,-76.5 254.23,-80 264.23,-83.5 264.23,-76.5"/>
</g>
<!-- Node8 -->
<g id="node8" class="node">
<title>Node8</title>
<g id="a_node8"><a xlink:title=" ">
<polygon fill="white" stroke="#666666" points="463,-52 343,-52 343,0 463,0 463,-52"/>
<text text-anchor="start" x="351" y="-40" font-family="Helvetica,sans-Serif" font-size="10.00">std::unordered_map</text>
<text text-anchor="start" x="351" y="-29" font-family="Helvetica,sans-Serif" font-size="10.00">&lt; std::uint32_t, std</text>
<text text-anchor="start" x="351" y="-18" font-family="Helvetica,sans-Serif" font-size="10.00">::shared_ptr&lt; rtype::</text>
<text text-anchor="middle" x="403" y="-7" font-family="Helvetica,sans-Serif" font-size="10.00">server::game::Player &gt; &gt;</text>
</a>
</g>
</g>
<!-- Node8&#45;&gt;Node1 -->
<g id="edge7" class="edge">
<title>Node8&#45;&gt;Node1</title>
<path fill="none" stroke="#9a32cd" stroke-dasharray="5,2" d="M474.07,-42.03C504.38,-50.58 539.56,-62.74 569,-79 598.25,-95.16 626.85,-122.71 640.94,-137.29"/>
<polygon fill="#9a32cd" stroke="#9a32cd" points="475.18,-38.7 464.61,-39.44 473.33,-45.46 475.18,-38.7"/>
<text text-anchor="middle" x="525" y="-82" font-family="Helvetica,sans-Serif" font-size="10.00"> _players</text>
</g>
<!-- Node9 -->
<g id="node9" class="node">
<title>Node9</title>
<g id="a_node9"><a xlink:title=" ">
<polygon fill="white" stroke="#666666" points="264,-41 148,-41 148,-11 264,-11 264,-41"/>
<text text-anchor="start" x="156" y="-29" font-family="Helvetica,sans-Serif" font-size="10.00">std::shared_ptr&lt; rtype</text>
<text text-anchor="middle" x="206" y="-18" font-family="Helvetica,sans-Serif" font-size="10.00">::server::game::Player &gt;</text>
</a>
</g>
</g>
<!-- Node9&#45;&gt;Node8 -->
<g id="edge8" class="edge">
<title>Node9&#45;&gt;Node8</title>
<path fill="none" stroke="#9a32cd" stroke-dasharray="5,2" d="M275.95,-26C297.72,-26 321.56,-26 342.59,-26"/>
<polygon fill="#9a32cd" stroke="#9a32cd" points="275.97,-22.5 265.97,-26 275.97,-29.5 275.97,-22.5"/>
<text text-anchor="middle" x="303.5" y="-29" font-family="Helvetica,sans-Serif" font-size="10.00"> elements</text>
</g>
<!-- Node10 -->
<g id="node10" class="node">
<title>Node10</title>
<g id="a_node10"><a xlink:href="classrtype_1_1server_1_1game_1_1_player.html" target="_top" xlink:title=" ">
<polygon fill="white" stroke="#bfbfbf" points="98,-41 0,-41 0,-11 98,-11 98,-41"/>
<text text-anchor="start" x="8" y="-29" font-family="Helvetica,sans-Serif" font-size="10.00">rtype::server::game</text>
<text text-anchor="middle" x="49" y="-18" font-family="Helvetica,sans-Serif" font-size="10.00">::Player</text>
</a>
</g>
</g>
<!-- Node10&#45;&gt;Node9 -->
<g id="edge9" class="edge">
<title>Node10&#45;&gt;Node9</title>
<path fill="none" stroke="#9a32cd" stroke-dasharray="5,2" d="M109.46,-26C121.97,-26 135.15,-26 147.59,-26"/>
<polygon fill="#9a32cd" stroke="#9a32cd" points="109.71,-22.5 99.71,-26 109.71,-29.5 109.71,-22.5"/>
<text text-anchor="middle" x="123" y="-29" font-family="Helvetica,sans-Serif" font-size="10.00"> ptr</text>
</g>
</g>
</svg>
