<?xml version="1.0" encoding="UTF-8" standalone="no"?>
<!DOCTYPE svg PUBLIC "-//W3C//DTD SVG 1.1//EN"
 "http://www.w3.org/Graphics/SVG/1.1/DTD/svg11.dtd">
<!-- Generated by graphviz version 7.0.5 (20221223.1930)
 -->
<!-- Title: uranus::ex::Exception Pages: 1 -->
<svg width="125pt" height="148pt"
 viewBox="0.00 0.00 125.00 148.00" xmlns="http://www.w3.org/2000/svg" xmlns:xlink="http://www.w3.org/1999/xlink">
<g id="graph0" class="graph" transform="scale(1 1) rotate(0) translate(4 144)">
<title>uranus::ex::Exception</title>
<!-- Node1 -->
<g id="node1" class="node">
<title>Node1</title>
<g id="a_node1"><a xlink:title="The exception class.">
<polygon fill="#999999" stroke="#666666" points="112,-85 5,-85 5,-66 112,-66 112,-85"/>
<text text-anchor="middle" x="58.5" y="-73" font-family="Helvetica,sans-Serif" font-size="10.00">uranus::ex::Exception</text>
</a>
</g>
</g>
<!-- Node3 -->
<g id="node3" class="node">
<title>Node3</title>
<g id="a_node3"><a xlink:href="classuranus_1_1ex_1_1_invalid_entity_index.html" target="_top" xlink:title="Thrown when an entity has an invalid index.">
<polygon fill="white" stroke="#666666" points="117,-30 0,-30 0,0 117,0 117,-30"/>
<text text-anchor="start" x="8" y="-18" font-family="Helvetica,sans-Serif" font-size="10.00">uranus::ex::InvalidEntity</text>
<text text-anchor="middle" x="58.5" y="-7" font-family="Helvetica,sans-Serif" font-size="10.00">Index</text>
</a>
</g>
</g>
<!-- Node1&#45;&gt;Node3 -->
<g id="edge2" class="edge">
<title>Node1&#45;&gt;Node3</title>
<path fill="none" stroke="#63b8ff" d="M58.5,-54.51C58.5,-46.49 58.5,-37.43 58.5,-30.11"/>
<polygon fill="#63b8ff" stroke="#63b8ff" points="55,-54.35 58.5,-64.35 62,-54.35 55,-54.35"/>
</g>
<!-- Node2 -->
<g id="node2" class="node">
<title>Node2</title>
<g id="a_node2"><a xlink:title=" ">
<polygon fill="white" stroke="#666666" points="96.5,-140 20.5,-140 20.5,-121 96.5,-121 96.5,-140"/>
<text text-anchor="middle" x="58.5" y="-128" font-family="Helvetica,sans-Serif" font-size="10.00">std::exception</text>
</a>
</g>
</g>
<!-- Node2&#45;&gt;Node1 -->
<g id="edge1" class="edge">
<title>Node2&#45;&gt;Node1</title>
<path fill="none" stroke="#63b8ff" d="M58.5,-109.35C58.5,-101.1 58.5,-91.97 58.5,-85.44"/>
<polygon fill="#63b8ff" stroke="#63b8ff" points="55,-109.23 58.5,-119.23 62,-109.23 55,-109.23"/>
</g>
</g>
</svg>
