<?xml version="1.0" encoding="UTF-8" standalone="no"?>
<!DOCTYPE svg PUBLIC "-//W3C//DTD SVG 1.1//EN"
 "http://www.w3.org/Graphics/SVG/1.1/DTD/svg11.dtd">
<!-- Generated by graphviz version 7.0.5 (20221223.1930)
 -->
<!-- Title: rtype::network::packet::S2CPlayerAuthentified Pages: 1 -->
<svg width="283pt" height="171pt"
 viewBox="0.00 0.00 283.00 171.00" xmlns="http://www.w3.org/2000/svg" xmlns:xlink="http://www.w3.org/1999/xlink">
<g id="graph0" class="graph" transform="scale(1 1) rotate(0) translate(4 167)">
<title>rtype::network::packet::S2CPlayerAuthentified</title>
<!-- Node1 -->
<g id="node1" class="node">
<title>Node1</title>
<g id="a_node1"><a xlink:title=" ">
<polygon fill="#999999" stroke="#666666" points="205.5,-30 87.5,-30 87.5,0 205.5,0 205.5,-30"/>
<text text-anchor="start" x="95.5" y="-18" font-family="Helvetica,sans-Serif" font-size="10.00">rtype::network::packet</text>
<text text-anchor="middle" x="146.5" y="-7" font-family="Helvetica,sans-Serif" font-size="10.00">::S2CPlayerAuthentified</text>
</a>
</g>
</g>
<!-- Node2 -->
<g id="node2" class="node">
<title>Node2</title>
<g id="a_node2"><a xlink:title=" ">
<polygon fill="white" stroke="#bfbfbf" points="99,-96 0,-96 0,-77 99,-77 99,-96"/>
<text text-anchor="middle" x="49.5" y="-84" font-family="Helvetica,sans-Serif" font-size="10.00">sa::AbstractPacket</text>
</a>
</g>
</g>
<!-- Node2&#45;&gt;Node1 -->
<g id="edge1" class="edge">
<title>Node2&#45;&gt;Node1</title>
<path fill="none" stroke="#63b8ff" d="M70.74,-70.28C87.36,-58.37 110.31,-41.93 126.58,-30.27"/>
<polygon fill="#63b8ff" stroke="#63b8ff" points="69.11,-67.15 63.02,-75.82 73.18,-72.84 69.11,-67.15"/>
</g>
<!-- Node3 -->
<g id="node3" class="node">
<title>Node3</title>
<g id="a_node3"><a xlink:title=" ">
<polygon fill="white" stroke="#666666" points="176,-96 117,-96 117,-77 176,-77 176,-96"/>
<text text-anchor="middle" x="146.5" y="-84" font-family="Helvetica,sans-Serif" font-size="10.00">std::string</text>
</a>
</g>
</g>
<!-- Node3&#45;&gt;Node1 -->
<g id="edge2" class="edge">
<title>Node3&#45;&gt;Node1</title>
<path fill="none" stroke="#9a32cd" stroke-dasharray="5,2" d="M146.5,-65.39C146.5,-54.15 146.5,-40.41 146.5,-30.27"/>
<polygon fill="#9a32cd" stroke="#9a32cd" points="143,-65.18 146.5,-75.18 150,-65.18 143,-65.18"/>
<text text-anchor="middle" x="160" y="-51" font-family="Helvetica,sans-Serif" font-size="10.00"> name</text>
</g>
<!-- Node4 -->
<g id="node4" class="node">
<title>Node4</title>
<g id="a_node4"><a xlink:title=" ">
<polygon fill="white" stroke="#666666" points="193,-163 100,-163 100,-133 193,-133 193,-163"/>
<text text-anchor="start" x="108" y="-151" font-family="Helvetica,sans-Serif" font-size="10.00">std::basic_string&lt;</text>
<text text-anchor="middle" x="146.5" y="-140" font-family="Helvetica,sans-Serif" font-size="10.00"> Char &gt;</text>
</a>
</g>
</g>
<!-- Node4&#45;&gt;Node3 -->
<g id="edge3" class="edge">
<title>Node4&#45;&gt;Node3</title>
<path fill="none" stroke="#63b8ff" d="M146.5,-121.13C146.5,-112.29 146.5,-102.99 146.5,-96.42"/>
<polygon fill="#63b8ff" stroke="#63b8ff" points="143,-121.08 146.5,-131.08 150,-121.08 143,-121.08"/>
</g>
<!-- Node5 -->
<g id="node5" class="node">
<title>Node5</title>
<g id="a_node5"><a xlink:href="class_u_u_i_dv4_1_1_u_u_i_d.html" target="_top" xlink:title=" ">
<polygon fill="white" stroke="#bfbfbf" points="275,-96 194,-96 194,-77 275,-77 275,-96"/>
<text text-anchor="middle" x="234.5" y="-84" font-family="Helvetica,sans-Serif" font-size="10.00">UUIDv4::UUID</text>
</a>
</g>
</g>
<!-- Node5&#45;&gt;Node1 -->
<g id="edge4" class="edge">
<title>Node5&#45;&gt;Node1</title>
<path fill="none" stroke="#9a32cd" stroke-dasharray="5,2" d="M214.38,-69.61C199.38,-57.76 179.06,-41.72 164.57,-30.27"/>
<polygon fill="#9a32cd" stroke="#9a32cd" points="212.15,-72.31 222.17,-75.76 216.49,-66.82 212.15,-72.31"/>
<text text-anchor="middle" x="209" y="-51" font-family="Helvetica,sans-Serif" font-size="10.00"> uuid</text>
</g>
</g>
</svg>
