<?xml version="1.0" encoding="UTF-8" standalone="no"?>
<!DOCTYPE svg PUBLIC "-//W3C//DTD SVG 1.1//EN"
 "http://www.w3.org/Graphics/SVG/1.1/DTD/svg11.dtd">
<!-- Generated by graphviz version 7.0.5 (20221223.1930)
 -->
<!-- Title: rtype::server::GameServer Pages: 1 -->
<svg width="980pt" height="290pt"
 viewBox="0.00 0.00 980.00 290.00" xmlns="http://www.w3.org/2000/svg" xmlns:xlink="http://www.w3.org/1999/xlink">
<g id="graph0" class="graph" transform="scale(1 1) rotate(0) translate(4 286)">
<title>rtype::server::GameServer</title>
<!-- Node1 -->
<g id="node1" class="node">
<title>Node1</title>
<g id="a_node1"><a xlink:title=" ">
<polygon fill="#999999" stroke="#666666" points="972,-156.5 844,-156.5 844,-137.5 972,-137.5 972,-156.5"/>
<text text-anchor="middle" x="908" y="-144.5" font-family="Helvetica,sans-Serif" font-size="10.00">rtype::server::GameServer</text>
</a>
</g>
</g>
<!-- Node2 -->
<g id="node2" class="node">
<title>Node2</title>
<g id="a_node2"><a xlink:title=" ">
<polygon fill="white" stroke="#666666" points="709.5,-282 610.5,-282 610.5,-252 709.5,-252 709.5,-282"/>
<text text-anchor="start" x="618.5" y="-270" font-family="Helvetica,sans-Serif" font-size="10.00">std::shared_ptr&lt; sa</text>
<text text-anchor="middle" x="660" y="-259" font-family="Helvetica,sans-Serif" font-size="10.00">::PacketRegistry &gt;</text>
</a>
</g>
</g>
<!-- Node2&#45;&gt;Node1 -->
<g id="edge1" class="edge">
<title>Node2&#45;&gt;Node1</title>
<path fill="none" stroke="#9a32cd" stroke-dasharray="5,2" d="M720.77,-254.75C753.19,-246.6 793.21,-234.03 826,-216 855.46,-199.8 883.97,-171.76 897.99,-156.9"/>
<polygon fill="#9a32cd" stroke="#9a32cd" points="720,-251.33 711.11,-257.09 721.65,-258.13 720,-251.33"/>
<text text-anchor="middle" x="782" y="-263" font-family="Helvetica,sans-Serif" font-size="10.00"> _tcpPacketRegistry</text>
<text text-anchor="middle" x="782" y="-252" font-family="Helvetica,sans-Serif" font-size="10.00">_udpPacketRegistry</text>
</g>
<!-- Node3 -->
<g id="node3" class="node">
<title>Node3</title>
<g id="a_node3"><a xlink:title=" ">
<polygon fill="white" stroke="#666666" points="709.5,-234 610.5,-234 610.5,-204 709.5,-204 709.5,-234"/>
<text text-anchor="start" x="618.5" y="-222" font-family="Helvetica,sans-Serif" font-size="10.00">std::shared_ptr&lt; sa</text>
<text text-anchor="middle" x="660" y="-211" font-family="Helvetica,sans-Serif" font-size="10.00">::TCPServer &gt;</text>
</a>
</g>
</g>
<!-- Node3&#45;&gt;Node1 -->
<g id="edge2" class="edge">
<title>Node3&#45;&gt;Node1</title>
<path fill="none" stroke="#9a32cd" stroke-dasharray="5,2" d="M720.63,-206.03C752.21,-198.7 791.49,-188.85 826,-178 845.68,-171.81 867.49,-163.37 883.52,-156.86"/>
<polygon fill="#9a32cd" stroke="#9a32cd" points="720.24,-202.53 711.28,-208.18 721.81,-209.35 720.24,-202.53"/>
<text text-anchor="middle" x="782" y="-204" font-family="Helvetica,sans-Serif" font-size="10.00"> _tcpServer</text>
</g>
<!-- Node4 -->
<g id="node4" class="node">
<title>Node4</title>
<g id="a_node4"><a xlink:title=" ">
<polygon fill="white" stroke="#666666" points="709.5,-186 610.5,-186 610.5,-156 709.5,-156 709.5,-186"/>
<text text-anchor="start" x="618.5" y="-174" font-family="Helvetica,sans-Serif" font-size="10.00">std::shared_ptr&lt; sa</text>
<text text-anchor="middle" x="660" y="-163" font-family="Helvetica,sans-Serif" font-size="10.00">::UDPServer &gt;</text>
</a>
</g>
</g>
<!-- Node4&#45;&gt;Node1 -->
<g id="edge3" class="edge">
<title>Node4&#45;&gt;Node1</title>
<path fill="none" stroke="#9a32cd" stroke-dasharray="5,2" d="M721.08,-165.14C758.26,-161.51 805.95,-156.86 843.71,-153.17"/>
<polygon fill="#9a32cd" stroke="#9a32cd" points="721.02,-161.63 711.4,-166.08 721.69,-168.6 721.02,-161.63"/>
<text text-anchor="middle" x="782" y="-166" font-family="Helvetica,sans-Serif" font-size="10.00"> _udpServer</text>
</g>
<!-- Node5 -->
<g id="node5" class="node">
<title>Node5</title>
<g id="a_node5"><a xlink:title=" ">
<polygon fill="white" stroke="#666666" points="718.5,-138 601.5,-138 601.5,-108 718.5,-108 718.5,-138"/>
<text text-anchor="start" x="609.5" y="-126" font-family="Helvetica,sans-Serif" font-size="10.00">std::shared_ptr&lt; spdlog</text>
<text text-anchor="middle" x="660" y="-115" font-family="Helvetica,sans-Serif" font-size="10.00">::logger &gt;</text>
</a>
</g>
</g>
<!-- Node5&#45;&gt;Node1 -->
<g id="edge4" class="edge">
<title>Node5&#45;&gt;Node1</title>
<path fill="none" stroke="#9a32cd" stroke-dasharray="5,2" d="M730.28,-129.76C765.92,-133.24 809.06,-137.45 843.79,-140.83"/>
<polygon fill="#9a32cd" stroke="#9a32cd" points="730.79,-126.29 720.49,-128.8 730.11,-133.26 730.79,-126.29"/>
<text text-anchor="middle" x="782" y="-141" font-family="Helvetica,sans-Serif" font-size="10.00"> _logger</text>
</g>
<!-- Node6 -->
<g id="node6" class="node">
<title>Node6</title>
<g id="a_node6"><a xlink:title=" ">
<polygon fill="white" stroke="#666666" points="189,-67.5 130,-67.5 130,-48.5 189,-48.5 189,-67.5"/>
<text text-anchor="middle" x="159.5" y="-55.5" font-family="Helvetica,sans-Serif" font-size="10.00">std::string</text>
</a>
</g>
</g>
<!-- Node6&#45;&gt;Node1 -->
<g id="edge5" class="edge">
<title>Node6&#45;&gt;Node1</title>
<path fill="none" stroke="#9a32cd" stroke-dasharray="5,2" d="M200.62,-67.43C229.48,-73.4 269.43,-80 305,-80 305,-80 305,-80 661,-80 746.87,-80 843.87,-118.48 885.81,-137.11"/>
<polygon fill="#9a32cd" stroke="#9a32cd" points="201.36,-64.01 190.84,-65.34 199.89,-70.86 201.36,-64.01"/>
<text text-anchor="middle" x="463" y="-83" font-family="Helvetica,sans-Serif" font-size="10.00"> _host</text>
</g>
<!-- Node10 -->
<g id="node10" class="node">
<title>Node10</title>
<g id="a_node10"><a xlink:href="classrtype_1_1server_1_1game_1_1_player.html" target="_top" xlink:title=" ">
<polygon fill="white" stroke="#bfbfbf" points="355,-50 257,-50 257,-20 355,-20 355,-50"/>
<text text-anchor="start" x="265" y="-38" font-family="Helvetica,sans-Serif" font-size="10.00">rtype::server::game</text>
<text text-anchor="middle" x="306" y="-27" font-family="Helvetica,sans-Serif" font-size="10.00">::Player</text>
</a>
</g>
</g>
<!-- Node6&#45;&gt;Node10 -->
<g id="edge10" class="edge">
<title>Node6&#45;&gt;Node10</title>
<path fill="none" stroke="#9a32cd" stroke-dasharray="5,2" d="M200.31,-51.66C217.7,-48.9 238.25,-45.62 256.52,-42.72"/>
<polygon fill="#9a32cd" stroke="#9a32cd" points="200.21,-48.13 190.89,-53.16 201.32,-55.05 200.21,-48.13"/>
<text text-anchor="middle" x="223" y="-54" font-family="Helvetica,sans-Serif" font-size="10.00"> _name</text>
</g>
<!-- Node7 -->
<g id="node7" class="node">
<title>Node7</title>
<g id="a_node7"><a xlink:title=" ">
<polygon fill="white" stroke="#666666" points="93,-73 0,-73 0,-43 93,-43 93,-73"/>
<text text-anchor="start" x="8" y="-61" font-family="Helvetica,sans-Serif" font-size="10.00">std::basic_string&lt;</text>
<text text-anchor="middle" x="46.5" y="-50" font-family="Helvetica,sans-Serif" font-size="10.00"> Char &gt;</text>
</a>
</g>
</g>
<!-- Node7&#45;&gt;Node6 -->
<g id="edge6" class="edge">
<title>Node7&#45;&gt;Node6</title>
<path fill="none" stroke="#63b8ff" d="M104.65,-58C113.31,-58 121.93,-58 129.65,-58"/>
<polygon fill="#63b8ff" stroke="#63b8ff" points="104.8,-54.5 94.8,-58 104.8,-61.5 104.8,-54.5"/>
</g>
<!-- Node8 -->
<g id="node8" class="node">
<title>Node8</title>
<g id="a_node8"><a xlink:title=" ">
<polygon fill="white" stroke="#666666" points="720,-52 600,-52 600,0 720,0 720,-52"/>
<text text-anchor="start" x="608" y="-40" font-family="Helvetica,sans-Serif" font-size="10.00">std::unordered_map</text>
<text text-anchor="start" x="608" y="-29" font-family="Helvetica,sans-Serif" font-size="10.00">&lt; std::uint32_t, std</text>
<text text-anchor="start" x="608" y="-18" font-family="Helvetica,sans-Serif" font-size="10.00">::shared_ptr&lt; rtype::</text>
<text text-anchor="middle" x="660" y="-7" font-family="Helvetica,sans-Serif" font-size="10.00">server::game::Player &gt; &gt;</text>
</a>
</g>
</g>
<!-- Node8&#45;&gt;Node1 -->
<g id="edge7" class="edge">
<title>Node8&#45;&gt;Node1</title>
<path fill="none" stroke="#9a32cd" stroke-dasharray="5,2" d="M731.38,-28.01C762.04,-31.42 797.42,-38.96 826,-55 862.19,-75.31 890.24,-118.06 901.56,-137.28"/>
<polygon fill="#9a32cd" stroke="#9a32cd" points="732.12,-24.57 721.83,-27.08 731.44,-31.53 732.12,-24.57"/>
<text text-anchor="middle" x="782" y="-58" font-family="Helvetica,sans-Serif" font-size="10.00"> _players</text>
</g>
<!-- Node9 -->
<g id="node9" class="node">
<title>Node9</title>
<g id="a_node9"><a xlink:title=" ">
<polygon fill="white" stroke="#666666" points="521,-43 405,-43 405,-13 521,-13 521,-43"/>
<text text-anchor="start" x="413" y="-31" font-family="Helvetica,sans-Serif" font-size="10.00">std::shared_ptr&lt; rtype</text>
<text text-anchor="middle" x="463" y="-20" font-family="Helvetica,sans-Serif" font-size="10.00">::server::game::Player &gt;</text>
</a>
</g>
</g>
<!-- Node9&#45;&gt;Node8 -->
<g id="edge8" class="edge">
<title>Node9&#45;&gt;Node8</title>
<path fill="none" stroke="#9a32cd" stroke-dasharray="5,2" d="M532.95,-27.29C554.72,-27.07 578.56,-26.83 599.59,-26.61"/>
<polygon fill="#9a32cd" stroke="#9a32cd" points="532.93,-23.79 522.97,-27.4 533,-30.79 532.93,-23.79"/>
<text text-anchor="middle" x="560.5" y="-31" font-family="Helvetica,sans-Serif" font-size="10.00"> elements</text>
</g>
<!-- Node10&#45;&gt;Node9 -->
<g id="edge9" class="edge">
<title>Node10&#45;&gt;Node9</title>
<path fill="none" stroke="#9a32cd" stroke-dasharray="5,2" d="M366.46,-32.31C378.97,-31.75 392.15,-31.15 404.59,-30.59"/>
<polygon fill="#9a32cd" stroke="#9a32cd" points="366.54,-28.81 356.71,-32.76 366.85,-35.8 366.54,-28.81"/>
<text text-anchor="middle" x="380" y="-35" font-family="Helvetica,sans-Serif" font-size="10.00"> ptr</text>
</g>
</g>
</svg>
