<?xml version="1.0" encoding="UTF-8" standalone="no"?>
<!DOCTYPE svg PUBLIC "-//W3C//DTD SVG 1.1//EN"
 "http://www.w3.org/Graphics/SVG/1.1/DTD/svg11.dtd">
<!-- Generated by graphviz version 7.0.5 (20221223.1930)
 -->
<!-- Title: ui::InputText Pages: 1 -->
<svg width="177pt" height="226pt"
 viewBox="0.00 0.00 176.50 226.00" xmlns="http://www.w3.org/2000/svg" xmlns:xlink="http://www.w3.org/1999/xlink">
<g id="graph0" class="graph" transform="scale(1 1) rotate(0) translate(4 222)">
<title>ui::InputText</title>
<!-- Node1 -->
<g id="node1" class="node">
<title>Node1</title>
<g id="a_node1"><a xlink:title=" ">
<polygon fill="#999999" stroke="#666666" points="124,-19 55,-19 55,0 124,0 124,-19"/>
<text text-anchor="middle" x="89.5" y="-7" font-family="Helvetica,sans-Serif" font-size="10.00">ui::InputText</text>
</a>
</g>
</g>
<!-- Node2 -->
<g id="node2" class="node">
<title>Node2</title>
<g id="a_node2"><a xlink:href="classengine_1_1_base.html" target="_top" xlink:title=" ">
<polygon fill="white" stroke="#bfbfbf" points="82.5,-85 10.5,-85 10.5,-66 82.5,-66 82.5,-85"/>
<text text-anchor="middle" x="46.5" y="-73" font-family="Helvetica,sans-Serif" font-size="10.00">engine::Base</text>
</a>
</g>
</g>
<!-- Node2&#45;&gt;Node1 -->
<g id="edge1" class="edge">
<title>Node2&#45;&gt;Node1</title>
<path fill="none" stroke="#63b8ff" d="M58.66,-56.4C66.81,-44.27 77.17,-28.84 83.57,-19.32"/>
<polygon fill="#63b8ff" stroke="#63b8ff" points="55.99,-54.09 53.32,-64.34 61.81,-58 55.99,-54.09"/>
</g>
<!-- Node3 -->
<g id="node3" class="node">
<title>Node3</title>
<g id="a_node3"><a xlink:title=" ">
<polygon fill="white" stroke="#666666" points="76,-151 17,-151 17,-132 76,-132 76,-151"/>
<text text-anchor="middle" x="46.5" y="-139" font-family="Helvetica,sans-Serif" font-size="10.00">std::string</text>
</a>
</g>
</g>
<!-- Node3&#45;&gt;Node2 -->
<g id="edge2" class="edge">
<title>Node3&#45;&gt;Node2</title>
<path fill="none" stroke="#9a32cd" stroke-dasharray="5,2" d="M46.5,-120.18C46.5,-108.44 46.5,-94.27 46.5,-85.32"/>
<polygon fill="#9a32cd" stroke="#9a32cd" points="43,-120.09 46.5,-130.09 50,-120.09 43,-120.09"/>
<text text-anchor="middle" x="78" y="-106" font-family="Helvetica,sans-Serif" font-size="10.00"> _uniqueName</text>
</g>
<!-- Node4 -->
<g id="node4" class="node">
<title>Node4</title>
<g id="a_node4"><a xlink:title=" ">
<polygon fill="white" stroke="#666666" points="93,-218 0,-218 0,-188 93,-188 93,-218"/>
<text text-anchor="start" x="8" y="-206" font-family="Helvetica,sans-Serif" font-size="10.00">std::basic_string&lt;</text>
<text text-anchor="middle" x="46.5" y="-195" font-family="Helvetica,sans-Serif" font-size="10.00"> Char &gt;</text>
</a>
</g>
</g>
<!-- Node4&#45;&gt;Node3 -->
<g id="edge3" class="edge">
<title>Node4&#45;&gt;Node3</title>
<path fill="none" stroke="#63b8ff" d="M46.5,-176.13C46.5,-167.29 46.5,-157.99 46.5,-151.42"/>
<polygon fill="#63b8ff" stroke="#63b8ff" points="43,-176.08 46.5,-186.08 50,-176.08 43,-176.08"/>
</g>
<!-- Node5 -->
<g id="node5" class="node">
<title>Node5</title>
<g id="a_node5"><a xlink:href="classengine_1_1_text.html" target="_top" xlink:title=" ">
<polygon fill="white" stroke="#bfbfbf" points="168.5,-85 100.5,-85 100.5,-66 168.5,-66 168.5,-85"/>
<text text-anchor="middle" x="134.5" y="-73" font-family="Helvetica,sans-Serif" font-size="10.00">engine::Text</text>
</a>
</g>
</g>
<!-- Node5&#45;&gt;Node1 -->
<g id="edge4" class="edge">
<title>Node5&#45;&gt;Node1</title>
<path fill="none" stroke="#9a32cd" stroke-dasharray="5,2" d="M121.77,-56.4C113.25,-44.27 102.4,-28.84 95.7,-19.32"/>
<polygon fill="#9a32cd" stroke="#9a32cd" points="118.76,-58.2 127.37,-64.36 124.48,-54.17 118.76,-58.2"/>
<text text-anchor="middle" x="127.5" y="-40" font-family="Helvetica,sans-Serif" font-size="10.00"> _text</text>
</g>
<!-- Node6 -->
<g id="node6" class="node">
<title>Node6</title>
<g id="a_node6"><a xlink:title=" ">
<polygon fill="white" stroke="#bfbfbf" points="158.5,-151 110.5,-151 110.5,-132 158.5,-132 158.5,-151"/>
<text text-anchor="middle" x="134.5" y="-139" font-family="Helvetica,sans-Serif" font-size="10.00">sf::Text</text>
</a>
</g>
</g>
<!-- Node6&#45;&gt;Node5 -->
<g id="edge5" class="edge">
<title>Node6&#45;&gt;Node5</title>
<path fill="none" stroke="#63b8ff" d="M134.5,-120.18C134.5,-108.44 134.5,-94.27 134.5,-85.32"/>
<polygon fill="#63b8ff" stroke="#63b8ff" points="131,-120.09 134.5,-130.09 138,-120.09 131,-120.09"/>
</g>
</g>
</svg>
