<?xml version="1.0" encoding="UTF-8" standalone="no"?>
<!DOCTYPE svg PUBLIC "-//W3C//DTD SVG 1.1//EN"
 "http://www.w3.org/Graphics/SVG/1.1/DTD/svg11.dtd">
<!-- Generated by graphviz version 7.0.5 (20221223.1930)
 -->
<!-- Title: Enemy Pages: 1 -->
<svg width="146pt" height="137pt"
 viewBox="0.00 0.00 145.50 137.00" xmlns="http://www.w3.org/2000/svg" xmlns:xlink="http://www.w3.org/1999/xlink">
<g id="graph0" class="graph" transform="scale(1 1) rotate(0) translate(4 133)">
<title>Enemy</title>
<!-- Node1 -->
<g id="node1" class="node">
<title>Node1</title>
<g id="a_node1"><a xlink:title=" ">
<polygon fill="#999999" stroke="#666666" points="81.5,-74 35.5,-74 35.5,-55 81.5,-55 81.5,-74"/>
<text text-anchor="middle" x="58.5" y="-62" font-family="Helvetica,sans-Serif" font-size="10.00">Enemy</text>
</a>
</g>
</g>
<!-- Node3 -->
<g id="node3" class="node">
<title>Node3</title>
<g id="a_node3"><a xlink:href="class_boss.html" target="_top" xlink:title=" ">
<polygon fill="white" stroke="#bfbfbf" points="39,-19 0,-19 0,0 39,0 39,-19"/>
<text text-anchor="middle" x="19.5" y="-7" font-family="Helvetica,sans-Serif" font-size="10.00">Boss</text>
</a>
</g>
</g>
<!-- Node1&#45;&gt;Node3 -->
<g id="edge2" class="edge">
<title>Node1&#45;&gt;Node3</title>
<path fill="none" stroke="#63b8ff" d="M45.36,-45.65C38.88,-36.84 31.34,-26.59 26.08,-19.44"/>
<polygon fill="#63b8ff" stroke="#63b8ff" points="42.42,-47.55 51.16,-53.53 48.06,-43.4 42.42,-47.55"/>
</g>
<!-- Node4 -->
<g id="node4" class="node">
<title>Node4</title>
<g id="a_node4"><a xlink:href="class_enemy_shooter.html" target="_top" xlink:title=" ">
<polygon fill="white" stroke="#bfbfbf" points="137.5,-19 57.5,-19 57.5,0 137.5,0 137.5,-19"/>
<text text-anchor="middle" x="97.5" y="-7" font-family="Helvetica,sans-Serif" font-size="10.00">EnemyShooter</text>
</a>
</g>
</g>
<!-- Node1&#45;&gt;Node4 -->
<g id="edge3" class="edge">
<title>Node1&#45;&gt;Node4</title>
<path fill="none" stroke="#63b8ff" d="M71.64,-45.65C78.12,-36.84 85.66,-26.59 90.92,-19.44"/>
<polygon fill="#63b8ff" stroke="#63b8ff" points="68.94,-43.4 65.84,-53.53 74.58,-47.55 68.94,-43.4"/>
</g>
<!-- Node2 -->
<g id="node2" class="node">
<title>Node2</title>
<g id="a_node2"><a xlink:href="classengine_1_1_base.html" target="_top" xlink:title=" ">
<polygon fill="white" stroke="#bfbfbf" points="94.5,-129 22.5,-129 22.5,-110 94.5,-110 94.5,-129"/>
<text text-anchor="middle" x="58.5" y="-117" font-family="Helvetica,sans-Serif" font-size="10.00">engine::Base</text>
</a>
</g>
</g>
<!-- Node2&#45;&gt;Node1 -->
<g id="edge1" class="edge">
<title>Node2&#45;&gt;Node1</title>
<path fill="none" stroke="#63b8ff" d="M58.5,-98.35C58.5,-90.1 58.5,-80.97 58.5,-74.44"/>
<polygon fill="#63b8ff" stroke="#63b8ff" points="55,-98.23 58.5,-108.23 62,-98.23 55,-98.23"/>
</g>
</g>
</svg>
