<?xml version="1.0" encoding="UTF-8" standalone="no"?>
<!DOCTYPE svg PUBLIC "-//W3C//DTD SVG 1.1//EN"
 "http://www.w3.org/Graphics/SVG/1.1/DTD/svg11.dtd">
<!-- Generated by graphviz version 7.0.5 (20221223.1930)
 -->
<!-- Title: engine::Manager Pages: 1 -->
<svg width="2105pt" height="417pt"
 viewBox="0.00 0.00 2105.00 417.00" xmlns="http://www.w3.org/2000/svg" xmlns:xlink="http://www.w3.org/1999/xlink">
<g id="graph0" class="graph" transform="scale(1 1) rotate(0) translate(4 413)">
<title>engine::Manager</title>
<!-- Node1 -->
<g id="node1" class="node">
<title>Node1</title>
<g id="a_node1"><a xlink:title=" ">
<polygon fill="#999999" stroke="#666666" points="2097,-204 2010,-204 2010,-185 2097,-185 2097,-204"/>
<text text-anchor="middle" x="2053.5" y="-192" font-family="Helvetica,sans-Serif" font-size="10.00">engine::Manager</text>
</a>
</g>
</g>
<!-- Node2 -->
<g id="node2" class="node">
<title>Node2</title>
<g id="a_node2"><a xlink:title=" ">
<polygon fill="white" stroke="#666666" points="1906.5,-369.5 1789.5,-369.5 1789.5,-339.5 1906.5,-339.5 1906.5,-369.5"/>
<text text-anchor="start" x="1797.5" y="-357.5" font-family="Helvetica,sans-Serif" font-size="10.00">std::shared_ptr&lt; engine</text>
<text text-anchor="middle" x="1848" y="-346.5" font-family="Helvetica,sans-Serif" font-size="10.00">::RenderWindow &gt;</text>
</a>
</g>
</g>
<!-- Node2&#45;&gt;Node1 -->
<g id="edge1" class="edge">
<title>Node2&#45;&gt;Node1</title>
<path fill="none" stroke="#9a32cd" stroke-dasharray="5,2" d="M1881.31,-332.63C1910.84,-312.27 1955.35,-280.62 1992,-250.5 2010.58,-235.24 2030.83,-215.89 2042.55,-204.39"/>
<polygon fill="#9a32cd" stroke="#9a32cd" points="1879.42,-329.68 1873.16,-338.23 1883.38,-335.45 1879.42,-329.68"/>
<text text-anchor="middle" x="1958.5" y="-303.5" font-family="Helvetica,sans-Serif" font-size="10.00"> window</text>
</g>
<!-- Node3 -->
<g id="node3" class="node">
<title>Node3</title>
<g id="a_node3"><a xlink:href="classengine_1_1_render_window.html" target="_top" xlink:title=" ">
<polygon fill="white" stroke="#bfbfbf" points="1689,-397 1574,-397 1574,-378 1689,-378 1689,-397"/>
<text text-anchor="middle" x="1631.5" y="-385" font-family="Helvetica,sans-Serif" font-size="10.00">engine::RenderWindow</text>
</a>
</g>
</g>
<!-- Node3&#45;&gt;Node2 -->
<g id="edge2" class="edge">
<title>Node3&#45;&gt;Node2</title>
<path fill="none" stroke="#9a32cd" stroke-dasharray="5,2" d="M1700.51,-377.04C1728.99,-372.65 1761.76,-367.61 1789.07,-363.41"/>
<polygon fill="#9a32cd" stroke="#9a32cd" points="1700.27,-373.53 1690.91,-378.51 1701.33,-380.45 1700.27,-373.53"/>
<text text-anchor="middle" x="1739" y="-378.5" font-family="Helvetica,sans-Serif" font-size="10.00"> ptr</text>
</g>
<!-- Node4 -->
<g id="node4" class="node">
<title>Node4</title>
<g id="a_node4"><a xlink:title=" ">
<polygon fill="white" stroke="#bfbfbf" points="1409,-409 1314,-409 1314,-390 1409,-390 1409,-409"/>
<text text-anchor="middle" x="1361.5" y="-397" font-family="Helvetica,sans-Serif" font-size="10.00">sf::RenderWindow</text>
</a>
</g>
</g>
<!-- Node4&#45;&gt;Node3 -->
<g id="edge3" class="edge">
<title>Node4&#45;&gt;Node3</title>
<path fill="none" stroke="#63b8ff" d="M1420.92,-396.88C1466.3,-394.85 1528.85,-392.05 1573.79,-390.04"/>
<polygon fill="#63b8ff" stroke="#63b8ff" points="1420.83,-393.38 1411,-397.33 1421.15,-400.38 1420.83,-393.38"/>
</g>
<!-- Node5 -->
<g id="node5" class="node">
<title>Node5</title>
<g id="a_node5"><a xlink:title=" ">
<polygon fill="white" stroke="#666666" points="1907,-276.5 1789,-276.5 1789,-246.5 1907,-246.5 1907,-276.5"/>
<text text-anchor="start" x="1797" y="-264.5" font-family="Helvetica,sans-Serif" font-size="10.00">std::shared_ptr&lt; uranus</text>
<text text-anchor="middle" x="1848" y="-253.5" font-family="Helvetica,sans-Serif" font-size="10.00">::ecs::Registry &gt;</text>
</a>
</g>
</g>
<!-- Node5&#45;&gt;Node1 -->
<g id="edge4" class="edge">
<title>Node5&#45;&gt;Node1</title>
<path fill="none" stroke="#9a32cd" stroke-dasharray="5,2" d="M1906.76,-242.48C1944.34,-230.11 1991.84,-214.47 2022.2,-204.47"/>
<polygon fill="#9a32cd" stroke="#9a32cd" points="1905.78,-239.12 1897.38,-245.57 1907.97,-245.77 1905.78,-239.12"/>
<text text-anchor="middle" x="1958.5" y="-238.5" font-family="Helvetica,sans-Serif" font-size="10.00"> registry</text>
</g>
<!-- Node6 -->
<g id="node6" class="node">
<title>Node6</title>
<g id="a_node6"><a xlink:href="classuranus_1_1ecs_1_1_registry.html" target="_top" xlink:title="Registry class, used to store and manage entities and their components.">
<polygon fill="white" stroke="#666666" points="1684.5,-289 1578.5,-289 1578.5,-270 1684.5,-270 1684.5,-289"/>
<text text-anchor="middle" x="1631.5" y="-277" font-family="Helvetica,sans-Serif" font-size="10.00">uranus::ecs::Registry</text>
</a>
</g>
</g>
<!-- Node6&#45;&gt;Node5 -->
<g id="edge5" class="edge">
<title>Node6&#45;&gt;Node5</title>
<path fill="none" stroke="#9a32cd" stroke-dasharray="5,2" d="M1696.33,-274.14C1725.61,-271.69 1760.08,-268.79 1788.65,-266.4"/>
<polygon fill="#9a32cd" stroke="#9a32cd" points="1696.15,-270.65 1686.48,-274.97 1696.74,-277.62 1696.15,-270.65"/>
<text text-anchor="middle" x="1739" y="-275.5" font-family="Helvetica,sans-Serif" font-size="10.00"> ptr</text>
</g>
<!-- Node7 -->
<g id="node7" class="node">
<title>Node7</title>
<g id="a_node7"><a xlink:title=" ">
<polygon fill="white" stroke="#666666" points="1415,-372 1308,-372 1308,-331 1415,-331 1415,-372"/>
<text text-anchor="start" x="1316" y="-360" font-family="Helvetica,sans-Serif" font-size="10.00">std::unordered_map</text>
<text text-anchor="start" x="1316" y="-349" font-family="Helvetica,sans-Serif" font-size="10.00">&lt; std::type_index, std</text>
<text text-anchor="middle" x="1361.5" y="-338" font-family="Helvetica,sans-Serif" font-size="10.00">::any &gt;</text>
</a>
</g>
</g>
<!-- Node7&#45;&gt;Node6 -->
<g id="edge6" class="edge">
<title>Node7&#45;&gt;Node6</title>
<path fill="none" stroke="#9a32cd" stroke-dasharray="5,2" d="M1426.27,-334.37C1478.47,-320.34 1550.49,-301 1593.59,-289.42"/>
<polygon fill="#9a32cd" stroke="#9a32cd" points="1425.66,-330.91 1416.91,-336.88 1427.48,-337.67 1425.66,-330.91"/>
<text text-anchor="middle" x="1497.5" y="-332.5" font-family="Helvetica,sans-Serif" font-size="10.00"> _componentsArrays</text>
</g>
<!-- Node8 -->
<g id="node8" class="node">
<title>Node8</title>
<g id="a_node8"><a xlink:title=" ">
<polygon fill="white" stroke="#666666" points="1415,-312.5 1308,-312.5 1308,-260.5 1415,-260.5 1415,-312.5"/>
<text text-anchor="start" x="1316" y="-300.5" font-family="Helvetica,sans-Serif" font-size="10.00">std::unordered_map</text>
<text text-anchor="start" x="1316" y="-289.5" font-family="Helvetica,sans-Serif" font-size="10.00">&lt; std::type_index, std</text>
<text text-anchor="start" x="1316" y="-278.5" font-family="Helvetica,sans-Serif" font-size="10.00">::function&lt; void(size</text>
<text text-anchor="middle" x="1361.5" y="-267.5" font-family="Helvetica,sans-Serif" font-size="10.00">_t const &amp;)&gt; &gt;</text>
</a>
</g>
</g>
<!-- Node8&#45;&gt;Node6 -->
<g id="edge7" class="edge">
<title>Node8&#45;&gt;Node6</title>
<path fill="none" stroke="#9a32cd" stroke-dasharray="5,2" d="M1426.87,-284.82C1473.17,-283.61 1534.82,-282 1578.12,-280.87"/>
<polygon fill="#9a32cd" stroke="#9a32cd" points="1426.87,-281.32 1416.96,-285.08 1427.05,-288.32 1426.87,-281.32"/>
<text text-anchor="middle" x="1497.5" y="-286.5" font-family="Helvetica,sans-Serif" font-size="10.00"> _destroyArrays</text>
</g>
<!-- Node9 -->
<g id="node9" class="node">
<title>Node9</title>
<g id="a_node9"><a xlink:title=" ">
<polygon fill="white" stroke="#666666" points="1406,-242 1317,-242 1317,-223 1406,-223 1406,-242"/>
<text text-anchor="middle" x="1361.5" y="-230" font-family="Helvetica,sans-Serif" font-size="10.00">std::list&lt; size_t &gt;</text>
</a>
</g>
</g>
<!-- Node9&#45;&gt;Node6 -->
<g id="edge8" class="edge">
<title>Node9&#45;&gt;Node6</title>
<path fill="none" stroke="#9a32cd" stroke-dasharray="5,2" d="M1417.67,-242.18C1464.76,-250.43 1532.01,-262.23 1578.24,-270.34"/>
<polygon fill="#9a32cd" stroke="#9a32cd" points="1418.4,-238.75 1407.95,-240.47 1417.19,-245.64 1418.4,-238.75"/>
<text text-anchor="middle" x="1497.5" y="-268.5" font-family="Helvetica,sans-Serif" font-size="10.00"> _freeIds</text>
</g>
<!-- Node10 -->
<g id="node10" class="node">
<title>Node10</title>
<g id="a_node10"><a xlink:title=" ">
<polygon fill="white" stroke="#666666" points="1906.5,-165.5 1789.5,-165.5 1789.5,-135.5 1906.5,-135.5 1906.5,-165.5"/>
<text text-anchor="start" x="1797.5" y="-153.5" font-family="Helvetica,sans-Serif" font-size="10.00">std::shared_ptr&lt; engine</text>
<text text-anchor="middle" x="1848" y="-142.5" font-family="Helvetica,sans-Serif" font-size="10.00">::SceneManager &gt;</text>
</a>
</g>
</g>
<!-- Node10&#45;&gt;Node1 -->
<g id="edge9" class="edge">
<title>Node10&#45;&gt;Node1</title>
<path fill="none" stroke="#9a32cd" stroke-dasharray="5,2" d="M1918.11,-156.02C1941.8,-158.87 1968.3,-163.15 1992,-169.5 2005.83,-173.21 2020.7,-179.32 2032.24,-184.58"/>
<polygon fill="#9a32cd" stroke="#9a32cd" points="1918.56,-152.55 1908.23,-154.9 1917.78,-159.5 1918.56,-152.55"/>
<text text-anchor="middle" x="1958.5" y="-172.5" font-family="Helvetica,sans-Serif" font-size="10.00"> sceneManager</text>
</g>
<!-- Node11 -->
<g id="node11" class="node">
<title>Node11</title>
<g id="a_node11"><a xlink:href="classengine_1_1_scene_manager.html" target="_top" xlink:title=" ">
<polygon fill="white" stroke="#bfbfbf" points="1689,-143 1574,-143 1574,-124 1689,-124 1689,-143"/>
<text text-anchor="middle" x="1631.5" y="-131" font-family="Helvetica,sans-Serif" font-size="10.00">engine::SceneManager</text>
</a>
</g>
</g>
<!-- Node11&#45;&gt;Node10 -->
<g id="edge10" class="edge">
<title>Node11&#45;&gt;Node10</title>
<path fill="none" stroke="#9a32cd" stroke-dasharray="5,2" d="M1700.89,-138.92C1729.28,-141.17 1761.88,-143.75 1789.07,-145.91"/>
<polygon fill="#9a32cd" stroke="#9a32cd" points="1701.17,-135.43 1690.93,-138.13 1700.62,-142.41 1701.17,-135.43"/>
<text text-anchor="middle" x="1739" y="-147.5" font-family="Helvetica,sans-Serif" font-size="10.00"> ptr</text>
</g>
<!-- Node12 -->
<g id="node12" class="node">
<title>Node12</title>
<g id="a_node12"><a xlink:title=" ">
<polygon fill="white" stroke="#666666" points="190.5,-127 131.5,-127 131.5,-108 190.5,-108 190.5,-127"/>
<text text-anchor="middle" x="161" y="-115" font-family="Helvetica,sans-Serif" font-size="10.00">std::string</text>
</a>
</g>
</g>
<!-- Node12&#45;&gt;Node11 -->
<g id="edge11" class="edge">
<title>Node12&#45;&gt;Node11</title>
<path fill="none" stroke="#9a32cd" stroke-dasharray="5,2" d="M198.97,-131.12C232.84,-142.37 284.6,-156.5 331,-156.5 331,-156.5 331,-156.5 1362.5,-156.5 1435.58,-156.5 1519.47,-147.9 1573.64,-141.22"/>
<polygon fill="#9a32cd" stroke="#9a32cd" points="200.23,-127.85 189.64,-127.93 197.97,-134.48 200.23,-127.85"/>
<text text-anchor="middle" x="807" y="-159.5" font-family="Helvetica,sans-Serif" font-size="10.00"> _sceneToSwitch</text>
</g>
<!-- Node15 -->
<g id="node15" class="node">
<title>Node15</title>
<g id="a_node15"><a xlink:href="classengine_1_1_scene.html" target="_top" xlink:title=" ">
<polygon fill="white" stroke="#bfbfbf" points="961,-104 884,-104 884,-85 961,-85 961,-104"/>
<text text-anchor="middle" x="922.5" y="-92" font-family="Helvetica,sans-Serif" font-size="10.00">engine::Scene</text>
</a>
</g>
</g>
<!-- Node12&#45;&gt;Node15 -->
<g id="edge15" class="edge">
<title>Node12&#45;&gt;Node15</title>
<path fill="none" stroke="#9a32cd" stroke-dasharray="5,2" d="M202.1,-117.5C236.34,-117.5 286.91,-117.5 331,-117.5 331,-117.5 331,-117.5 690.5,-117.5 758.81,-117.5 837.93,-107.42 883.6,-100.6"/>
<polygon fill="#9a32cd" stroke="#9a32cd" points="202.22,-114 192.22,-117.5 202.22,-121 202.22,-114"/>
<text text-anchor="middle" x="490.5" y="-120.5" font-family="Helvetica,sans-Serif" font-size="10.00"> _name</text>
</g>
<!-- Node18 -->
<g id="node18" class="node">
<title>Node18</title>
<g id="a_node18"><a xlink:href="classengine_1_1_base.html" target="_top" xlink:title=" ">
<polygon fill="white" stroke="#bfbfbf" points="368,-83 296,-83 296,-64 368,-64 368,-83"/>
<text text-anchor="middle" x="332" y="-71" font-family="Helvetica,sans-Serif" font-size="10.00">engine::Base</text>
</a>
</g>
</g>
<!-- Node12&#45;&gt;Node18 -->
<g id="edge19" class="edge">
<title>Node12&#45;&gt;Node18</title>
<path fill="none" stroke="#9a32cd" stroke-dasharray="5,2" d="M187.57,-102.24C194.64,-98.56 202.44,-94.99 210,-92.5 237.97,-83.29 271.1,-78.49 295.61,-76.01"/>
<polygon fill="#9a32cd" stroke="#9a32cd" points="186.27,-98.96 179.19,-106.84 189.64,-105.09 186.27,-98.96"/>
<text text-anchor="middle" x="241.5" y="-95.5" font-family="Helvetica,sans-Serif" font-size="10.00"> _uniqueName</text>
</g>
<!-- Node24 -->
<g id="node24" class="node">
<title>Node24</title>
<g id="a_node24"><a xlink:href="classengine_1_1_texture.html" target="_top" xlink:title=" ">
<polygon fill="white" stroke="#bfbfbf" points="373,-209 291,-209 291,-190 373,-190 373,-209"/>
<text text-anchor="middle" x="332" y="-197" font-family="Helvetica,sans-Serif" font-size="10.00">engine::Texture</text>
</a>
</g>
</g>
<!-- Node12&#45;&gt;Node24 -->
<g id="edge28" class="edge">
<title>Node12&#45;&gt;Node24</title>
<path fill="none" stroke="#9a32cd" stroke-dasharray="5,2" d="M175.61,-136.11C184.32,-146.76 196.5,-159.55 210,-167.5 223.67,-175.55 261.1,-184.83 290.75,-191.31"/>
<polygon fill="#9a32cd" stroke="#9a32cd" points="178.46,-134.08 169.57,-128.32 172.93,-138.37 178.46,-134.08"/>
<text text-anchor="middle" x="241.5" y="-189.5" font-family="Helvetica,sans-Serif" font-size="10.00"> _name</text>
</g>
<!-- Node28 -->
<g id="node28" class="node">
<title>Node28</title>
<g id="a_node28"><a xlink:title=" ">
<polygon fill="white" stroke="#666666" points="749,-41 630,-41 630,0 749,0 749,-41"/>
<text text-anchor="start" x="638" y="-29" font-family="Helvetica,sans-Serif" font-size="10.00">std::map&lt; std::string,</text>
<text text-anchor="start" x="638" y="-18" font-family="Helvetica,sans-Serif" font-size="10.00"> std::shared_ptr&lt; engine</text>
<text text-anchor="middle" x="689.5" y="-7" font-family="Helvetica,sans-Serif" font-size="10.00">::Base &gt; &gt;</text>
</a>
</g>
</g>
<!-- Node12&#45;&gt;Node28 -->
<g id="edge32" class="edge">
<title>Node12&#45;&gt;Node28</title>
<path fill="none" stroke="#9a32cd" stroke-dasharray="5,2" d="M178.57,-99.53C187.21,-91.13 198.37,-81.64 210,-75.5 242.88,-58.12 254.34,-60.77 291,-54.5 410.13,-34.11 551.54,-25.72 629.51,-22.44"/>
<polygon fill="#9a32cd" stroke="#9a32cd" points="176.12,-97.02 171.64,-106.62 181.13,-101.92 176.12,-97.02"/>
<text text-anchor="middle" x="402.5" y="-43.5" font-family="Helvetica,sans-Serif" font-size="10.00"> keys</text>
</g>
<!-- Node13 -->
<g id="node13" class="node">
<title>Node13</title>
<g id="a_node13"><a xlink:title=" ">
<polygon fill="white" stroke="#666666" points="93,-132.5 0,-132.5 0,-102.5 93,-102.5 93,-132.5"/>
<text text-anchor="start" x="8" y="-120.5" font-family="Helvetica,sans-Serif" font-size="10.00">std::basic_string&lt;</text>
<text text-anchor="middle" x="46.5" y="-109.5" font-family="Helvetica,sans-Serif" font-size="10.00"> Char &gt;</text>
</a>
</g>
</g>
<!-- Node13&#45;&gt;Node12 -->
<g id="edge12" class="edge">
<title>Node13&#45;&gt;Node12</title>
<path fill="none" stroke="#63b8ff" d="M104.76,-117.5C113.88,-117.5 122.97,-117.5 131.06,-117.5"/>
<polygon fill="#63b8ff" stroke="#63b8ff" points="104.77,-114 94.77,-117.5 104.77,-121 104.77,-114"/>
</g>
<!-- Node14 -->
<g id="node14" class="node">
<title>Node14</title>
<g id="a_node14"><a xlink:title=" ">
<polygon fill="white" stroke="#666666" points="1149,-109.5 1032,-109.5 1032,-79.5 1149,-79.5 1149,-109.5"/>
<text text-anchor="start" x="1040" y="-97.5" font-family="Helvetica,sans-Serif" font-size="10.00">std::shared_ptr&lt; engine</text>
<text text-anchor="middle" x="1090.5" y="-86.5" font-family="Helvetica,sans-Serif" font-size="10.00">::Scene &gt;</text>
</a>
</g>
</g>
<!-- Node14&#45;&gt;Node11 -->
<g id="edge13" class="edge">
<title>Node14&#45;&gt;Node11</title>
<path fill="none" stroke="#9a32cd" stroke-dasharray="5,2" d="M1160.41,-100.96C1162.64,-101.14 1164.84,-101.32 1167,-101.5 1313.53,-113.35 1486.34,-124.55 1573.74,-130.01"/>
<polygon fill="#9a32cd" stroke="#9a32cd" points="1160.97,-97.49 1150.71,-100.12 1160.37,-104.47 1160.97,-97.49"/>
<text text-anchor="middle" x="1361.5" y="-123.5" font-family="Helvetica,sans-Serif" font-size="10.00"> _actualScene</text>
</g>
<!-- Node19 -->
<g id="node19" class="node">
<title>Node19</title>
<g id="a_node19"><a xlink:title=" ">
<polygon fill="white" stroke="#666666" points="1421,-81.5 1302,-81.5 1302,-51.5 1421,-51.5 1421,-81.5"/>
<text text-anchor="start" x="1310" y="-69.5" font-family="Helvetica,sans-Serif" font-size="10.00">std::vector&lt; std::shared</text>
<text text-anchor="middle" x="1361.5" y="-58.5" font-family="Helvetica,sans-Serif" font-size="10.00">_ptr&lt; engine::Scene &gt; &gt;</text>
</a>
</g>
</g>
<!-- Node14&#45;&gt;Node19 -->
<g id="edge21" class="edge">
<title>Node14&#45;&gt;Node19</title>
<path fill="none" stroke="#9a32cd" stroke-dasharray="5,2" d="M1160.63,-87.3C1204.41,-82.75 1260.39,-76.92 1301.96,-72.59"/>
<polygon fill="#9a32cd" stroke="#9a32cd" points="1160.3,-83.82 1150.71,-88.34 1161.02,-90.78 1160.3,-83.82"/>
<text text-anchor="middle" x="1225.5" y="-89.5" font-family="Helvetica,sans-Serif" font-size="10.00"> elements</text>
</g>
<!-- Node15&#45;&gt;Node14 -->
<g id="edge14" class="edge">
<title>Node15&#45;&gt;Node14</title>
<path fill="none" stroke="#9a32cd" stroke-dasharray="5,2" d="M972.63,-94.5C991.2,-94.5 1012.5,-94.5 1031.78,-94.5"/>
<polygon fill="#9a32cd" stroke="#9a32cd" points="972.68,-91 962.68,-94.5 972.68,-98 972.68,-91"/>
<text text-anchor="middle" x="1007" y="-97.5" font-family="Helvetica,sans-Serif" font-size="10.00"> ptr</text>
</g>
<!-- Node16 -->
<g id="node16" class="node">
<title>Node16</title>
<g id="a_node16"><a xlink:title=" ">
<polygon fill="white" stroke="#666666" points="748,-89.5 631,-89.5 631,-59.5 748,-59.5 748,-89.5"/>
<text text-anchor="start" x="639" y="-77.5" font-family="Helvetica,sans-Serif" font-size="10.00">std::vector&lt; std::shared</text>
<text text-anchor="middle" x="689.5" y="-66.5" font-family="Helvetica,sans-Serif" font-size="10.00">_ptr&lt; engine::Base &gt; &gt;</text>
</a>
</g>
</g>
<!-- Node16&#45;&gt;Node15 -->
<g id="edge16" class="edge">
<title>Node16&#45;&gt;Node15</title>
<path fill="none" stroke="#9a32cd" stroke-dasharray="5,2" d="M759.96,-80.51C800.59,-84.03 850.31,-88.34 883.77,-91.23"/>
<polygon fill="#9a32cd" stroke="#9a32cd" points="760.27,-77.03 750,-79.65 759.66,-84 760.27,-77.03"/>
<text text-anchor="middle" x="807" y="-90.5" font-family="Helvetica,sans-Serif" font-size="10.00"> _entities</text>
</g>
<!-- Node17 -->
<g id="node17" class="node">
<title>Node17</title>
<g id="a_node17"><a xlink:title=" ">
<polygon fill="white" stroke="#666666" points="549,-81.5 432,-81.5 432,-51.5 549,-51.5 549,-81.5"/>
<text text-anchor="start" x="440" y="-69.5" font-family="Helvetica,sans-Serif" font-size="10.00">std::shared_ptr&lt; engine</text>
<text text-anchor="middle" x="490.5" y="-58.5" font-family="Helvetica,sans-Serif" font-size="10.00">::Base &gt;</text>
</a>
</g>
</g>
<!-- Node17&#45;&gt;Node16 -->
<g id="edge17" class="edge">
<title>Node17&#45;&gt;Node16</title>
<path fill="none" stroke="#9a32cd" stroke-dasharray="5,2" d="M560.65,-69.31C583.55,-70.24 608.78,-71.26 630.73,-72.15"/>
<polygon fill="#9a32cd" stroke="#9a32cd" points="560.92,-65.82 550.79,-68.91 560.64,-72.81 560.92,-65.82"/>
<text text-anchor="middle" x="588.5" y="-74.5" font-family="Helvetica,sans-Serif" font-size="10.00"> elements</text>
</g>
<!-- Node17&#45;&gt;Node28 -->
<g id="edge33" class="edge">
<title>Node17&#45;&gt;Node28</title>
<path fill="none" stroke="#9a32cd" stroke-dasharray="5,2" d="M560.19,-50.46C582.86,-45.17 607.84,-39.33 629.7,-34.23"/>
<polygon fill="#9a32cd" stroke="#9a32cd" points="559.69,-46.98 550.75,-52.67 561.28,-53.8 559.69,-46.98"/>
<text text-anchor="middle" x="588.5" y="-51.5" font-family="Helvetica,sans-Serif" font-size="10.00"> elements</text>
</g>
<!-- Node18&#45;&gt;Node17 -->
<g id="edge18" class="edge">
<title>Node18&#45;&gt;Node17</title>
<path fill="none" stroke="#9a32cd" stroke-dasharray="5,2" d="M379.6,-71.42C395.98,-70.68 414.58,-69.85 431.77,-69.08"/>
<polygon fill="#9a32cd" stroke="#9a32cd" points="379.47,-67.92 369.63,-71.86 379.78,-74.91 379.47,-67.92"/>
<text text-anchor="middle" x="402.5" y="-74.5" font-family="Helvetica,sans-Serif" font-size="10.00"> ptr</text>
</g>
<!-- Node19&#45;&gt;Node11 -->
<g id="edge20" class="edge">
<title>Node19&#45;&gt;Node11</title>
<path fill="none" stroke="#9a32cd" stroke-dasharray="5,2" d="M1432.63,-69.68C1470,-72.91 1516.32,-79.42 1556,-92.5 1578.43,-99.89 1601.93,-114.06 1616.39,-123.65"/>
<polygon fill="#9a32cd" stroke="#9a32cd" points="1433.09,-66.2 1422.84,-68.89 1432.53,-73.18 1433.09,-66.2"/>
<text text-anchor="middle" x="1497.5" y="-95.5" font-family="Helvetica,sans-Serif" font-size="10.00"> _scenes</text>
</g>
<!-- Node20 -->
<g id="node20" class="node">
<title>Node20</title>
<g id="a_node20"><a xlink:title=" ">
<polygon fill="white" stroke="#666666" points="1284,-209.5 1167,-209.5 1167,-179.5 1284,-179.5 1284,-209.5"/>
<text text-anchor="start" x="1175" y="-197.5" font-family="Helvetica,sans-Serif" font-size="10.00">std::shared_ptr&lt; engine</text>
<text text-anchor="middle" x="1225.5" y="-186.5" font-family="Helvetica,sans-Serif" font-size="10.00">::TextureManager &gt;</text>
</a>
</g>
</g>
<!-- Node20&#45;&gt;Node1 -->
<g id="edge22" class="edge">
<title>Node20&#45;&gt;Node1</title>
<path fill="none" stroke="#9a32cd" stroke-dasharray="5,2" d="M1295.71,-194.5C1350.25,-194.5 1428.23,-194.5 1496.5,-194.5 1496.5,-194.5 1496.5,-194.5 1849,-194.5 1904.47,-194.5 1968.44,-194.5 2009.62,-194.5"/>
<polygon fill="#9a32cd" stroke="#9a32cd" points="1295.95,-191 1285.95,-194.5 1295.95,-198 1295.95,-191"/>
<text text-anchor="middle" x="1631.5" y="-197.5" font-family="Helvetica,sans-Serif" font-size="10.00"> textureManager</text>
</g>
<!-- Node21 -->
<g id="node21" class="node">
<title>Node21</title>
<g id="a_node21"><a xlink:href="classengine_1_1_texture_manager.html" target="_top" xlink:title=" ">
<polygon fill="white" stroke="#bfbfbf" points="982,-206 863,-206 863,-187 982,-187 982,-206"/>
<text text-anchor="middle" x="922.5" y="-194" font-family="Helvetica,sans-Serif" font-size="10.00">engine::TextureManager</text>
</a>
</g>
</g>
<!-- Node21&#45;&gt;Node20 -->
<g id="edge23" class="edge">
<title>Node21&#45;&gt;Node20</title>
<path fill="none" stroke="#9a32cd" stroke-dasharray="5,2" d="M993.51,-196.03C1046.11,-195.69 1117.28,-195.21 1166.67,-194.88"/>
<polygon fill="#9a32cd" stroke="#9a32cd" points="993.74,-192.53 983.76,-196.1 993.79,-199.53 993.74,-192.53"/>
<text text-anchor="middle" x="1007" y="-198.5" font-family="Helvetica,sans-Serif" font-size="10.00"> ptr</text>
</g>
<!-- Node22 -->
<g id="node22" class="node">
<title>Node22</title>
<g id="a_node22"><a xlink:title=" ">
<polygon fill="white" stroke="#666666" points="751,-214.5 628,-214.5 628,-184.5 751,-184.5 751,-214.5"/>
<text text-anchor="start" x="636" y="-202.5" font-family="Helvetica,sans-Serif" font-size="10.00">std::vector&lt; std::shared</text>
<text text-anchor="middle" x="689.5" y="-191.5" font-family="Helvetica,sans-Serif" font-size="10.00">_ptr&lt; engine::Texture &gt; &gt;</text>
</a>
</g>
</g>
<!-- Node22&#45;&gt;Node21 -->
<g id="edge24" class="edge">
<title>Node22&#45;&gt;Node21</title>
<path fill="none" stroke="#9a32cd" stroke-dasharray="5,2" d="M762.62,-198.56C794.76,-198.15 832.13,-197.66 862.56,-197.27"/>
<polygon fill="#9a32cd" stroke="#9a32cd" points="762.96,-195.06 753.01,-198.69 763.05,-202.06 762.96,-195.06"/>
<text text-anchor="middle" x="807" y="-200.5" font-family="Helvetica,sans-Serif" font-size="10.00"> _textures</text>
</g>
<!-- Node23 -->
<g id="node23" class="node">
<title>Node23</title>
<g id="a_node23"><a xlink:title=" ">
<polygon fill="white" stroke="#666666" points="549,-214.5 432,-214.5 432,-184.5 549,-184.5 549,-214.5"/>
<text text-anchor="start" x="440" y="-202.5" font-family="Helvetica,sans-Serif" font-size="10.00">std::shared_ptr&lt; engine</text>
<text text-anchor="middle" x="490.5" y="-191.5" font-family="Helvetica,sans-Serif" font-size="10.00">::Texture &gt;</text>
</a>
</g>
</g>
<!-- Node23&#45;&gt;Node22 -->
<g id="edge25" class="edge">
<title>Node23&#45;&gt;Node22</title>
<path fill="none" stroke="#9a32cd" stroke-dasharray="5,2" d="M560.49,-199.5C582.37,-199.5 606.38,-199.5 627.64,-199.5"/>
<polygon fill="#9a32cd" stroke="#9a32cd" points="560.79,-196 550.79,-199.5 560.79,-203 560.79,-196"/>
<text text-anchor="middle" x="588.5" y="-202.5" font-family="Helvetica,sans-Serif" font-size="10.00"> elements</text>
</g>
<!-- Node24&#45;&gt;Node23 -->
<g id="edge26" class="edge">
<title>Node24&#45;&gt;Node23</title>
<path fill="none" stroke="#9a32cd" stroke-dasharray="5,2" d="M384.5,-199.5C399.59,-199.5 416.18,-199.5 431.64,-199.5"/>
<polygon fill="#9a32cd" stroke="#9a32cd" points="384.82,-196 374.82,-199.5 384.82,-203 384.82,-196"/>
<text text-anchor="middle" x="402.5" y="-202.5" font-family="Helvetica,sans-Serif" font-size="10.00"> ptr</text>
</g>
<!-- Node25 -->
<g id="node25" class="node">
<title>Node25</title>
<g id="a_node25"><a xlink:title=" ">
<polygon fill="white" stroke="#bfbfbf" points="192,-225 130,-225 130,-206 192,-206 192,-225"/>
<text text-anchor="middle" x="161" y="-213" font-family="Helvetica,sans-Serif" font-size="10.00">sf::Texture</text>
</a>
</g>
</g>
<!-- Node25&#45;&gt;Node24 -->
<g id="edge27" class="edge">
<title>Node25&#45;&gt;Node24</title>
<path fill="none" stroke="#63b8ff" d="M203.43,-211.58C229.97,-209.07 264.23,-205.82 290.57,-203.33"/>
<polygon fill="#63b8ff" stroke="#63b8ff" points="203.35,-208.07 193.72,-212.5 204.01,-215.04 203.35,-208.07"/>
</g>
<!-- Node26 -->
<g id="node26" class="node">
<title>Node26</title>
<g id="a_node26"><a xlink:title=" ">
<polygon fill="white" stroke="#666666" points="1556,-45.5 1439,-45.5 1439,-15.5 1556,-15.5 1556,-45.5"/>
<text text-anchor="start" x="1447" y="-33.5" font-family="Helvetica,sans-Serif" font-size="10.00">std::shared_ptr&lt; engine</text>
<text text-anchor="middle" x="1497.5" y="-22.5" font-family="Helvetica,sans-Serif" font-size="10.00">::EntityManager &gt;</text>
</a>
</g>
</g>
<!-- Node26&#45;&gt;Node1 -->
<g id="edge29" class="edge">
<title>Node26&#45;&gt;Node1</title>
<path fill="none" stroke="#9a32cd" stroke-dasharray="5,2" d="M1567.41,-45.24C1648.9,-63 1788.44,-94.47 1907,-126.5 1945.14,-136.8 1956.46,-135.25 1992,-152.5 2010.18,-161.32 2028.96,-175.25 2040.68,-184.63"/>
<polygon fill="#9a32cd" stroke="#9a32cd" points="1568.3,-41.85 1557.78,-43.14 1566.81,-48.69 1568.3,-41.85"/>
<text text-anchor="middle" x="1739" y="-95.5" font-family="Helvetica,sans-Serif" font-size="10.00"> entityManager</text>
</g>
<!-- Node27 -->
<g id="node27" class="node">
<title>Node27</title>
<g id="a_node27"><a xlink:href="classengine_1_1_entity_manager.html" target="_top" xlink:title=" ">
<polygon fill="white" stroke="#bfbfbf" points="978,-32 867,-32 867,-13 978,-13 978,-32"/>
<text text-anchor="middle" x="922.5" y="-20" font-family="Helvetica,sans-Serif" font-size="10.00">engine::EntityManager</text>
</a>
</g>
</g>
<!-- Node27&#45;&gt;Node26 -->
<g id="edge30" class="edge">
<title>Node27&#45;&gt;Node26</title>
<path fill="none" stroke="#9a32cd" stroke-dasharray="5,2" d="M989.68,-23.42C1102.84,-25 1331.65,-28.2 1438.75,-29.69"/>
<polygon fill="#9a32cd" stroke="#9a32cd" points="990,-19.93 979.96,-23.29 989.91,-26.93 990,-19.93"/>
<text text-anchor="middle" x="1090.5" y="-29.5" font-family="Helvetica,sans-Serif" font-size="10.00"> ptr</text>
</g>
<!-- Node28&#45;&gt;Node27 -->
<g id="edge31" class="edge">
<title>Node28&#45;&gt;Node27</title>
<path fill="none" stroke="#9a32cd" stroke-dasharray="5,2" d="M760.67,-21.11C794.69,-21.4 834.96,-21.75 866.69,-22.03"/>
<polygon fill="#9a32cd" stroke="#9a32cd" points="760.93,-17.61 750.9,-21.02 760.87,-24.61 760.93,-17.61"/>
<text text-anchor="middle" x="807" y="-25.5" font-family="Helvetica,sans-Serif" font-size="10.00"> _prefabs</text>
</g>
</g>
</svg>
