<?xml version="1.0" encoding="UTF-8" standalone="no"?>
<!DOCTYPE svg PUBLIC "-//W3C//DTD SVG 1.1//EN"
 "http://www.w3.org/Graphics/SVG/1.1/DTD/svg11.dtd">
<!-- Generated by graphviz version 7.0.5 (20221223.1930)
 -->
<!-- Title: engine::Scene Pages: 1 -->
<svg width="255pt" height="82pt"
 viewBox="0.00 0.00 255.00 82.00" xmlns="http://www.w3.org/2000/svg" xmlns:xlink="http://www.w3.org/1999/xlink">
<g id="graph0" class="graph" transform="scale(1 1) rotate(0) translate(4 78)">
<title>engine::Scene</title>
<!-- Node1 -->
<g id="node1" class="node">
<title>Node1</title>
<g id="a_node1"><a xlink:title=" ">
<polygon fill="#999999" stroke="#666666" points="160,-74 83,-74 83,-55 160,-55 160,-74"/>
<text text-anchor="middle" x="121.5" y="-62" font-family="Helvetica,sans-Serif" font-size="10.00">engine::Scene</text>
</a>
</g>
</g>
<!-- Node2 -->
<g id="node2" class="node">
<title>Node2</title>
<g id="a_node2"><a xlink:href="class_scene_game.html" target="_top" xlink:title=" ">
<polygon fill="white" stroke="#bfbfbf" points="71,-19 0,-19 0,0 71,0 71,-19"/>
<text text-anchor="middle" x="35.5" y="-7" font-family="Helvetica,sans-Serif" font-size="10.00">SceneGame</text>
</a>
</g>
</g>
<!-- Node1&#45;&gt;Node2 -->
<g id="edge1" class="edge">
<title>Node1&#45;&gt;Node2</title>
<path fill="none" stroke="#63b8ff" d="M97.53,-48.73C82.21,-39.29 62.85,-27.36 49.87,-19.36"/>
<polygon fill="#63b8ff" stroke="#63b8ff" points="95.27,-51.45 105.62,-53.72 98.95,-45.49 95.27,-51.45"/>
</g>
<!-- Node3 -->
<g id="node3" class="node">
<title>Node3</title>
<g id="a_node3"><a xlink:href="class_scene_main.html" target="_top" xlink:title=" ">
<polygon fill="white" stroke="#bfbfbf" points="154,-19 89,-19 89,0 154,0 154,-19"/>
<text text-anchor="middle" x="121.5" y="-7" font-family="Helvetica,sans-Serif" font-size="10.00">SceneMain</text>
</a>
</g>
</g>
<!-- Node1&#45;&gt;Node3 -->
<g id="edge2" class="edge">
<title>Node1&#45;&gt;Node3</title>
<path fill="none" stroke="#63b8ff" d="M121.5,-43.35C121.5,-35.1 121.5,-25.97 121.5,-19.44"/>
<polygon fill="#63b8ff" stroke="#63b8ff" points="118,-43.23 121.5,-53.23 125,-43.23 118,-43.23"/>
</g>
<!-- Node4 -->
<g id="node4" class="node">
<title>Node4</title>
<g id="a_node4"><a xlink:href="class_scene_stage1.html" target="_top" xlink:title=" ">
<polygon fill="white" stroke="#bfbfbf" points="247,-19 172,-19 172,0 247,0 247,-19"/>
<text text-anchor="middle" x="209.5" y="-7" font-family="Helvetica,sans-Serif" font-size="10.00">SceneStage1</text>
</a>
</g>
</g>
<!-- Node1&#45;&gt;Node4 -->
<g id="edge3" class="edge">
<title>Node1&#45;&gt;Node4</title>
<path fill="none" stroke="#63b8ff" d="M146.02,-48.73C161.7,-39.29 181.51,-27.36 194.79,-19.36"/>
<polygon fill="#63b8ff" stroke="#63b8ff" points="144.49,-45.57 137.72,-53.73 148.1,-51.57 144.49,-45.57"/>
</g>
</g>
</svg>
