<?xml version="1.0" encoding="UTF-8" standalone="no"?>
<!DOCTYPE svg PUBLIC "-//W3C//DTD SVG 1.1//EN"
 "http://www.w3.org/Graphics/SVG/1.1/DTD/svg11.dtd">
<!-- Generated by graphviz version 7.0.5 (20221223.1930)
 -->
<!-- Title: rtype::network::packet::S2CPlayerScore Pages: 1 -->
<svg width="206pt" height="104pt"
 viewBox="0.00 0.00 206.00 104.00" xmlns="http://www.w3.org/2000/svg" xmlns:xlink="http://www.w3.org/1999/xlink">
<g id="graph0" class="graph" transform="scale(1 1) rotate(0) translate(4 100)">
<title>rtype::network::packet::S2CPlayerScore</title>
<!-- Node1 -->
<g id="node1" class="node">
<title>Node1</title>
<g id="a_node1"><a xlink:title=" ">
<polygon fill="#999999" stroke="#666666" points="158.5,-30 48.5,-30 48.5,0 158.5,0 158.5,-30"/>
<text text-anchor="start" x="56.5" y="-18" font-family="Helvetica,sans-Serif" font-size="10.00">rtype::network::packet</text>
<text text-anchor="middle" x="103.5" y="-7" font-family="Helvetica,sans-Serif" font-size="10.00">::S2CPlayerScore</text>
</a>
</g>
</g>
<!-- Node2 -->
<g id="node2" class="node">
<title>Node2</title>
<g id="a_node2"><a xlink:title=" ">
<polygon fill="white" stroke="#bfbfbf" points="99,-96 0,-96 0,-77 99,-77 99,-96"/>
<text text-anchor="middle" x="49.5" y="-84" font-family="Helvetica,sans-Serif" font-size="10.00">sa::AbstractPacket</text>
</a>
</g>
</g>
<!-- Node2&#45;&gt;Node1 -->
<g id="edge1" class="edge">
<title>Node2&#45;&gt;Node1</title>
<path fill="none" stroke="#63b8ff" d="M63.18,-67.89C72.23,-56.24 83.94,-41.17 92.41,-30.27"/>
<polygon fill="#63b8ff" stroke="#63b8ff" points="60.64,-65.46 57.27,-75.5 66.17,-69.75 60.64,-65.46"/>
</g>
<!-- Node3 -->
<g id="node3" class="node">
<title>Node3</title>
<g id="a_node3"><a xlink:href="class_u_u_i_dv4_1_1_u_u_i_d.html" target="_top" xlink:title=" ">
<polygon fill="white" stroke="#bfbfbf" points="198,-96 117,-96 117,-77 198,-77 198,-96"/>
<text text-anchor="middle" x="157.5" y="-84" font-family="Helvetica,sans-Serif" font-size="10.00">UUIDv4::UUID</text>
</a>
</g>
</g>
<!-- Node3&#45;&gt;Node1 -->
<g id="edge2" class="edge">
<title>Node3&#45;&gt;Node1</title>
<path fill="none" stroke="#9a32cd" stroke-dasharray="5,2" d="M143.82,-67.89C134.77,-56.24 123.06,-41.17 114.59,-30.27"/>
<polygon fill="#9a32cd" stroke="#9a32cd" points="140.83,-69.75 149.73,-75.5 146.36,-65.46 140.83,-69.75"/>
<text text-anchor="middle" x="145" y="-51" font-family="Helvetica,sans-Serif" font-size="10.00"> uuid</text>
</g>
</g>
</svg>
