<?xml version="1.0" encoding="UTF-8" standalone="no"?>
<!DOCTYPE svg PUBLIC "-//W3C//DTD SVG 1.1//EN"
 "http://www.w3.org/Graphics/SVG/1.1/DTD/svg11.dtd">
<!-- Generated by graphviz version 7.0.5 (20221223.1930)
 -->
<!-- Title: rtype::network::packet::S2CSpawnPlayer Pages: 1 -->
<svg width="221pt" height="182pt"
 viewBox="0.00 0.00 220.50 182.00" xmlns="http://www.w3.org/2000/svg" xmlns:xlink="http://www.w3.org/1999/xlink">
<g id="graph0" class="graph" transform="scale(1 1) rotate(0) translate(4 178)">
<title>rtype::network::packet::S2CSpawnPlayer</title>
<!-- Node1 -->
<g id="node1" class="node">
<title>Node1</title>
<g id="a_node1"><a xlink:title=" ">
<polygon fill="#999999" stroke="#666666" points="161,-30 51,-30 51,0 161,0 161,-30"/>
<text text-anchor="start" x="59" y="-18" font-family="Helvetica,sans-Serif" font-size="10.00">rtype::network::packet</text>
<text text-anchor="middle" x="106" y="-7" font-family="Helvetica,sans-Serif" font-size="10.00">::S2CSpawnPlayer</text>
</a>
</g>
</g>
<!-- Node2 -->
<g id="node2" class="node">
<title>Node2</title>
<g id="a_node2"><a xlink:href="classrtype_1_1network_1_1packet_1_1_s2_c_entity_spawn.html" target="_top" xlink:title=" ">
<polygon fill="white" stroke="#bfbfbf" points="110,-107 0,-107 0,-77 110,-77 110,-107"/>
<text text-anchor="start" x="8" y="-95" font-family="Helvetica,sans-Serif" font-size="10.00">rtype::network::packet</text>
<text text-anchor="middle" x="55" y="-84" font-family="Helvetica,sans-Serif" font-size="10.00">::S2CEntitySpawn</text>
</a>
</g>
</g>
<!-- Node2&#45;&gt;Node1 -->
<g id="edge1" class="edge">
<title>Node2&#45;&gt;Node1</title>
<path fill="none" stroke="#63b8ff" d="M71.28,-67.05C79.48,-55 89.15,-40.78 96.2,-30.42"/>
<polygon fill="#63b8ff" stroke="#63b8ff" points="68.41,-65.05 65.68,-75.29 74.2,-68.99 68.41,-65.05"/>
</g>
<!-- Node3 -->
<g id="node3" class="node">
<title>Node3</title>
<g id="a_node3"><a xlink:title=" ">
<polygon fill="white" stroke="#bfbfbf" points="101.5,-168.5 2.5,-168.5 2.5,-149.5 101.5,-149.5 101.5,-168.5"/>
<text text-anchor="middle" x="52" y="-156.5" font-family="Helvetica,sans-Serif" font-size="10.00">sa::AbstractPacket</text>
</a>
</g>
</g>
<!-- Node3&#45;&gt;Node2 -->
<g id="edge2" class="edge">
<title>Node3&#45;&gt;Node2</title>
<path fill="none" stroke="#63b8ff" d="M52.93,-137.92C53.39,-127.93 53.93,-116.1 54.35,-107.09"/>
<polygon fill="#63b8ff" stroke="#63b8ff" points="49.44,-137.57 52.47,-147.72 56.43,-137.89 49.44,-137.57"/>
</g>
<!-- Node4 -->
<g id="node4" class="node">
<title>Node4</title>
<g id="a_node4"><a xlink:title=" ">
<polygon fill="white" stroke="#666666" points="192.5,-101.5 133.5,-101.5 133.5,-82.5 192.5,-82.5 192.5,-101.5"/>
<text text-anchor="middle" x="163" y="-89.5" font-family="Helvetica,sans-Serif" font-size="10.00">std::string</text>
</a>
</g>
</g>
<!-- Node4&#45;&gt;Node1 -->
<g id="edge3" class="edge">
<title>Node4&#45;&gt;Node1</title>
<path fill="none" stroke="#9a32cd" stroke-dasharray="5,2" d="M149.4,-73.11C139.44,-60 126.09,-42.44 116.84,-30.27"/>
<polygon fill="#9a32cd" stroke="#9a32cd" points="146.48,-75.05 155.32,-80.9 152.06,-70.82 146.48,-75.05"/>
<text text-anchor="middle" x="151.5" y="-51" font-family="Helvetica,sans-Serif" font-size="10.00"> name</text>
</g>
<!-- Node5 -->
<g id="node5" class="node">
<title>Node5</title>
<g id="a_node5"><a xlink:title=" ">
<polygon fill="white" stroke="#666666" points="212.5,-174 119.5,-174 119.5,-144 212.5,-144 212.5,-174"/>
<text text-anchor="start" x="127.5" y="-162" font-family="Helvetica,sans-Serif" font-size="10.00">std::basic_string&lt;</text>
<text text-anchor="middle" x="166" y="-151" font-family="Helvetica,sans-Serif" font-size="10.00"> Char &gt;</text>
</a>
</g>
</g>
<!-- Node5&#45;&gt;Node4 -->
<g id="edge4" class="edge">
<title>Node5&#45;&gt;Node4</title>
<path fill="none" stroke="#63b8ff" d="M164.81,-132.19C164.32,-121.5 163.77,-109.79 163.41,-101.98"/>
<polygon fill="#63b8ff" stroke="#63b8ff" points="161.31,-132.23 165.26,-142.06 168.3,-131.91 161.31,-132.23"/>
</g>
</g>
</svg>
