<?xml version="1.0" encoding="UTF-8" standalone="no"?>
<!DOCTYPE svg PUBLIC "-//W3C//DTD SVG 1.1//EN"
 "http://www.w3.org/Graphics/SVG/1.1/DTD/svg11.dtd">
<!-- Generated by graphviz version 7.0.5 (20221223.1930)
 -->
<!-- Title: Player Pages: 1 -->
<svg width="369pt" height="226pt"
 viewBox="0.00 0.00 368.50 226.00" xmlns="http://www.w3.org/2000/svg" xmlns:xlink="http://www.w3.org/1999/xlink">
<g id="graph0" class="graph" transform="scale(1 1) rotate(0) translate(4 222)">
<title>Player</title>
<!-- Node1 -->
<g id="node1" class="node">
<title>Node1</title>
<g id="a_node1"><a xlink:title=" ">
<polygon fill="#999999" stroke="#666666" points="239.5,-19 195.5,-19 195.5,0 239.5,0 239.5,-19"/>
<text text-anchor="middle" x="217.5" y="-7" font-family="Helvetica,sans-Serif" font-size="10.00">Player</text>
</a>
</g>
</g>
<!-- Node2 -->
<g id="node2" class="node">
<title>Node2</title>
<g id="a_node2"><a xlink:href="classengine_1_1_base.html" target="_top" xlink:title=" ">
<polygon fill="white" stroke="#bfbfbf" points="190.5,-85 118.5,-85 118.5,-66 190.5,-66 190.5,-85"/>
<text text-anchor="middle" x="154.5" y="-73" font-family="Helvetica,sans-Serif" font-size="10.00">engine::Base</text>
</a>
</g>
</g>
<!-- Node2&#45;&gt;Node1 -->
<g id="edge1" class="edge">
<title>Node2&#45;&gt;Node1</title>
<path fill="none" stroke="#63b8ff" d="M171.26,-57.48C183.34,-45.2 199.16,-29.13 208.81,-19.32"/>
<polygon fill="#63b8ff" stroke="#63b8ff" points="168.84,-54.94 164.32,-64.52 173.83,-59.85 168.84,-54.94"/>
</g>
<!-- Node3 -->
<g id="node3" class="node">
<title>Node3</title>
<g id="a_node3"><a xlink:title=" ">
<polygon fill="white" stroke="#666666" points="76,-151 17,-151 17,-132 76,-132 76,-151"/>
<text text-anchor="middle" x="46.5" y="-139" font-family="Helvetica,sans-Serif" font-size="10.00">std::string</text>
</a>
</g>
</g>
<!-- Node3&#45;&gt;Node1 -->
<g id="edge7" class="edge">
<title>Node3&#45;&gt;Node1</title>
<path fill="none" stroke="#9a32cd" stroke-dasharray="5,2" d="M31.35,-123.01C19.34,-106.93 6.56,-83.07 19.5,-66 40.91,-37.77 148.16,-19.95 195.26,-13.37"/>
<polygon fill="#9a32cd" stroke="#9a32cd" points="28.55,-125.11 37.54,-130.71 34,-120.72 28.55,-125.11"/>
<text text-anchor="middle" x="64.5" y="-73" font-family="Helvetica,sans-Serif" font-size="10.00"> _bulletTextureName</text>
</g>
<!-- Node3&#45;&gt;Node2 -->
<g id="edge2" class="edge">
<title>Node3&#45;&gt;Node2</title>
<path fill="none" stroke="#9a32cd" stroke-dasharray="5,2" d="M71.38,-125.75C92.47,-113.26 122.02,-95.75 139.61,-85.32"/>
<polygon fill="#9a32cd" stroke="#9a32cd" points="69.64,-122.72 62.82,-130.83 73.21,-128.74 69.64,-122.72"/>
<text text-anchor="middle" x="139" y="-106" font-family="Helvetica,sans-Serif" font-size="10.00"> _uniqueName</text>
</g>
<!-- Node4 -->
<g id="node4" class="node">
<title>Node4</title>
<g id="a_node4"><a xlink:title=" ">
<polygon fill="white" stroke="#666666" points="93,-218 0,-218 0,-188 93,-188 93,-218"/>
<text text-anchor="start" x="8" y="-206" font-family="Helvetica,sans-Serif" font-size="10.00">std::basic_string&lt;</text>
<text text-anchor="middle" x="46.5" y="-195" font-family="Helvetica,sans-Serif" font-size="10.00"> Char &gt;</text>
</a>
</g>
</g>
<!-- Node4&#45;&gt;Node3 -->
<g id="edge3" class="edge">
<title>Node4&#45;&gt;Node3</title>
<path fill="none" stroke="#63b8ff" d="M46.5,-176.13C46.5,-167.29 46.5,-157.99 46.5,-151.42"/>
<polygon fill="#63b8ff" stroke="#63b8ff" points="43,-176.08 46.5,-186.08 50,-176.08 43,-176.08"/>
</g>
<!-- Node5 -->
<g id="node5" class="node">
<title>Node5</title>
<g id="a_node5"><a xlink:href="class_damaging.html" target="_top" xlink:title=" ">
<polygon fill="white" stroke="#bfbfbf" points="268.5,-85 208.5,-85 208.5,-66 268.5,-66 268.5,-85"/>
<text text-anchor="middle" x="238.5" y="-73" font-family="Helvetica,sans-Serif" font-size="10.00">Damaging</text>
</a>
</g>
</g>
<!-- Node5&#45;&gt;Node1 -->
<g id="edge4" class="edge">
<title>Node5&#45;&gt;Node1</title>
<path fill="none" stroke="#63b8ff" d="M232.08,-54.93C228.18,-43.05 223.39,-28.46 220.4,-19.32"/>
<polygon fill="#63b8ff" stroke="#63b8ff" points="228.66,-55.75 235.11,-64.16 235.32,-53.57 228.66,-55.75"/>
</g>
<!-- Node6 -->
<g id="node6" class="node">
<title>Node6</title>
<g id="a_node6"><a xlink:href="classengine_1_1_clock.html" target="_top" xlink:title=" ">
<polygon fill="white" stroke="#bfbfbf" points="360.5,-85 286.5,-85 286.5,-66 360.5,-66 360.5,-85"/>
<text text-anchor="middle" x="323.5" y="-73" font-family="Helvetica,sans-Serif" font-size="10.00">engine::Clock</text>
</a>
</g>
</g>
<!-- Node6&#45;&gt;Node1 -->
<g id="edge5" class="edge">
<title>Node6&#45;&gt;Node1</title>
<path fill="none" stroke="#9a32cd" stroke-dasharray="5,2" d="M299.08,-59.75C278.38,-47.26 249.38,-29.75 232.11,-19.32"/>
<polygon fill="#9a32cd" stroke="#9a32cd" points="297.1,-62.65 307.47,-64.82 300.71,-56.65 297.1,-62.65"/>
<text text-anchor="middle" x="314.5" y="-40" font-family="Helvetica,sans-Serif" font-size="10.00"> _clockCooldown</text>
</g>
<!-- Node7 -->
<g id="node7" class="node">
<title>Node7</title>
<g id="a_node7"><a xlink:title=" ">
<polygon fill="white" stroke="#bfbfbf" points="350.5,-151 296.5,-151 296.5,-132 350.5,-132 350.5,-151"/>
<text text-anchor="middle" x="323.5" y="-139" font-family="Helvetica,sans-Serif" font-size="10.00">sf::Clock</text>
</a>
</g>
</g>
<!-- Node7&#45;&gt;Node6 -->
<g id="edge6" class="edge">
<title>Node7&#45;&gt;Node6</title>
<path fill="none" stroke="#63b8ff" d="M323.5,-120.18C323.5,-108.44 323.5,-94.27 323.5,-85.32"/>
<polygon fill="#63b8ff" stroke="#63b8ff" points="320,-120.09 323.5,-130.09 327,-120.09 320,-120.09"/>
</g>
</g>
</svg>
