<?xml version="1.0" encoding="UTF-8" standalone="no"?>
<!DOCTYPE svg PUBLIC "-//W3C//DTD SVG 1.1//EN"
 "http://www.w3.org/Graphics/SVG/1.1/DTD/svg11.dtd">
<!-- Generated by graphviz version 7.0.5 (20221223.1930)
 -->
<!-- Title: engine::EntityManager Pages: 1 -->
<svg width="197pt" height="391pt"
 viewBox="0.00 0.00 197.00 391.00" xmlns="http://www.w3.org/2000/svg" xmlns:xlink="http://www.w3.org/1999/xlink">
<g id="graph0" class="graph" transform="scale(1 1) rotate(0) translate(4 387)">
<title>engine::EntityManager</title>
<!-- Node1 -->
<g id="node1" class="node">
<title>Node1</title>
<g id="a_node1"><a xlink:title=" ">
<polygon fill="#999999" stroke="#666666" points="115,-19 4,-19 4,0 115,0 115,-19"/>
<text text-anchor="middle" x="59.5" y="-7" font-family="Helvetica,sans-Serif" font-size="10.00">engine::EntityManager</text>
</a>
</g>
</g>
<!-- Node2 -->
<g id="node2" class="node">
<title>Node2</title>
<g id="a_node2"><a xlink:title=" ">
<polygon fill="white" stroke="#666666" points="119,-107 0,-107 0,-66 119,-66 119,-107"/>
<text text-anchor="start" x="8" y="-95" font-family="Helvetica,sans-Serif" font-size="10.00">std::map&lt; std::string,</text>
<text text-anchor="start" x="8" y="-84" font-family="Helvetica,sans-Serif" font-size="10.00"> std::shared_ptr&lt; engine</text>
<text text-anchor="middle" x="59.5" y="-73" font-family="Helvetica,sans-Serif" font-size="10.00">::Base &gt; &gt;</text>
</a>
</g>
</g>
<!-- Node2&#45;&gt;Node1 -->
<g id="edge1" class="edge">
<title>Node2&#45;&gt;Node1</title>
<path fill="none" stroke="#9a32cd" stroke-dasharray="5,2" d="M59.5,-54.53C59.5,-41.74 59.5,-27.92 59.5,-19.24"/>
<polygon fill="#9a32cd" stroke="#9a32cd" points="56,-54.28 59.5,-64.28 63,-54.28 56,-54.28"/>
<text text-anchor="middle" x="79.5" y="-40" font-family="Helvetica,sans-Serif" font-size="10.00"> _prefabs</text>
</g>
<!-- Node3 -->
<g id="node3" class="node">
<title>Node3</title>
<g id="a_node3"><a xlink:title=" ">
<polygon fill="white" stroke="#666666" points="89,-316 30,-316 30,-297 89,-297 89,-316"/>
<text text-anchor="middle" x="59.5" y="-304" font-family="Helvetica,sans-Serif" font-size="10.00">std::string</text>
</a>
</g>
</g>
<!-- Node3&#45;&gt;Node2 -->
<g id="edge2" class="edge">
<title>Node3&#45;&gt;Node2</title>
<path fill="none" stroke="#9a32cd" stroke-dasharray="5,2" d="M59.5,-285.39C59.5,-243.74 59.5,-148.5 59.5,-107.2"/>
<polygon fill="#9a32cd" stroke="#9a32cd" points="56,-285.17 59.5,-295.17 63,-285.17 56,-285.17"/>
<text text-anchor="middle" x="71" y="-205" font-family="Helvetica,sans-Serif" font-size="10.00"> keys</text>
</g>
<!-- Node6 -->
<g id="node6" class="node">
<title>Node6</title>
<g id="a_node6"><a xlink:href="classengine_1_1_base.html" target="_top" xlink:title=" ">
<polygon fill="white" stroke="#bfbfbf" points="154.5,-250 82.5,-250 82.5,-231 154.5,-231 154.5,-250"/>
<text text-anchor="middle" x="118.5" y="-238" font-family="Helvetica,sans-Serif" font-size="10.00">engine::Base</text>
</a>
</g>
</g>
<!-- Node3&#45;&gt;Node6 -->
<g id="edge6" class="edge">
<title>Node3&#45;&gt;Node6</title>
<path fill="none" stroke="#9a32cd" stroke-dasharray="5,2" d="M75.19,-288.48C86.51,-276.2 101.33,-260.13 110.37,-250.32"/>
<polygon fill="#9a32cd" stroke="#9a32cd" points="72.93,-285.76 68.73,-295.49 78.08,-290.51 72.93,-285.76"/>
<text text-anchor="middle" x="124" y="-271" font-family="Helvetica,sans-Serif" font-size="10.00"> _uniqueName</text>
</g>
<!-- Node4 -->
<g id="node4" class="node">
<title>Node4</title>
<g id="a_node4"><a xlink:title=" ">
<polygon fill="white" stroke="#666666" points="106,-383 13,-383 13,-353 106,-353 106,-383"/>
<text text-anchor="start" x="21" y="-371" font-family="Helvetica,sans-Serif" font-size="10.00">std::basic_string&lt;</text>
<text text-anchor="middle" x="59.5" y="-360" font-family="Helvetica,sans-Serif" font-size="10.00"> Char &gt;</text>
</a>
</g>
</g>
<!-- Node4&#45;&gt;Node3 -->
<g id="edge3" class="edge">
<title>Node4&#45;&gt;Node3</title>
<path fill="none" stroke="#63b8ff" d="M59.5,-341.13C59.5,-332.29 59.5,-322.99 59.5,-316.42"/>
<polygon fill="#63b8ff" stroke="#63b8ff" points="56,-341.08 59.5,-351.08 63,-341.08 56,-341.08"/>
</g>
<!-- Node5 -->
<g id="node5" class="node">
<title>Node5</title>
<g id="a_node5"><a xlink:title=" ">
<polygon fill="white" stroke="#666666" points="189,-184 72,-184 72,-154 189,-154 189,-184"/>
<text text-anchor="start" x="80" y="-172" font-family="Helvetica,sans-Serif" font-size="10.00">std::shared_ptr&lt; engine</text>
<text text-anchor="middle" x="130.5" y="-161" font-family="Helvetica,sans-Serif" font-size="10.00">::Base &gt;</text>
</a>
</g>
</g>
<!-- Node5&#45;&gt;Node2 -->
<g id="edge4" class="edge">
<title>Node5&#45;&gt;Node2</title>
<path fill="none" stroke="#9a32cd" stroke-dasharray="5,2" d="M110.26,-145.05C99.72,-133.11 86.97,-118.65 76.88,-107.21"/>
<polygon fill="#9a32cd" stroke="#9a32cd" points="107.57,-147.29 116.81,-152.47 112.82,-142.66 107.57,-147.29"/>
<text text-anchor="middle" x="122" y="-128" font-family="Helvetica,sans-Serif" font-size="10.00"> elements</text>
</g>
<!-- Node6&#45;&gt;Node5 -->
<g id="edge5" class="edge">
<title>Node6&#45;&gt;Node5</title>
<path fill="none" stroke="#9a32cd" stroke-dasharray="5,2" d="M121.97,-219.39C123.91,-208.15 126.29,-194.41 128.04,-184.27"/>
<polygon fill="#9a32cd" stroke="#9a32cd" points="118.53,-218.76 120.28,-229.21 125.43,-219.95 118.53,-218.76"/>
<text text-anchor="middle" x="131.5" y="-205" font-family="Helvetica,sans-Serif" font-size="10.00"> ptr</text>
</g>
</g>
</svg>
