<?xml version="1.0" encoding="UTF-8" standalone="no"?>
<!DOCTYPE svg PUBLIC "-//W3C//DTD SVG 1.1//EN"
 "http://www.w3.org/Graphics/SVG/1.1/DTD/svg11.dtd">
<!-- Generated by graphviz version 7.0.5 (20221223.1930)
 -->
<!-- Title: engine::SceneManager Pages: 1 -->
<svg width="1476pt" height="124pt"
 viewBox="0.00 0.00 1476.00 124.00" xmlns="http://www.w3.org/2000/svg" xmlns:xlink="http://www.w3.org/1999/xlink">
<g id="graph0" class="graph" transform="scale(1 1) rotate(0) translate(4 120)">
<title>engine::SceneManager</title>
<!-- Node1 -->
<g id="node1" class="node">
<title>Node1</title>
<g id="a_node1"><a xlink:title=" ">
<polygon fill="#999999" stroke="#666666" points="1468,-75.5 1353,-75.5 1353,-56.5 1468,-56.5 1468,-75.5"/>
<text text-anchor="middle" x="1410.5" y="-63.5" font-family="Helvetica,sans-Serif" font-size="10.00">engine::SceneManager</text>
</a>
</g>
</g>
<!-- Node2 -->
<g id="node2" class="node">
<title>Node2</title>
<g id="a_node2"><a xlink:title=" ">
<polygon fill="white" stroke="#666666" points="189,-75.5 130,-75.5 130,-56.5 189,-56.5 189,-75.5"/>
<text text-anchor="middle" x="159.5" y="-63.5" font-family="Helvetica,sans-Serif" font-size="10.00">std::string</text>
</a>
</g>
</g>
<!-- Node2&#45;&gt;Node1 -->
<g id="edge1" class="edge">
<title>Node2&#45;&gt;Node1</title>
<path fill="none" stroke="#9a32cd" stroke-dasharray="5,2" d="M196.43,-79.77C228.97,-90.99 278.49,-105 323,-105 323,-105 323,-105 1218.5,-105 1276.54,-105 1342.54,-87.5 1379.78,-75.94"/>
<polygon fill="#9a32cd" stroke="#9a32cd" points="197.68,-76.5 187.09,-76.45 195.34,-83.1 197.68,-76.5"/>
<text text-anchor="middle" x="779" y="-108" font-family="Helvetica,sans-Serif" font-size="10.00"> _sceneToSwitch</text>
</g>
<!-- Node5 -->
<g id="node5" class="node">
<title>Node5</title>
<g id="a_node5"><a xlink:href="classengine_1_1_scene.html" target="_top" xlink:title=" ">
<polygon fill="white" stroke="#bfbfbf" points="912,-30.5 835,-30.5 835,-11.5 912,-11.5 912,-30.5"/>
<text text-anchor="middle" x="873.5" y="-18.5" font-family="Helvetica,sans-Serif" font-size="10.00">engine::Scene</text>
</a>
</g>
</g>
<!-- Node2&#45;&gt;Node5 -->
<g id="edge5" class="edge">
<title>Node2&#45;&gt;Node5</title>
<path fill="none" stroke="#9a32cd" stroke-dasharray="5,2" d="M200.67,-66C233.56,-66 281.29,-66 323,-66 323,-66 323,-66 665.5,-66 730.96,-66 805.47,-44.24 844.79,-30.99"/>
<polygon fill="#9a32cd" stroke="#9a32cd" points="200.78,-62.5 190.78,-66 200.78,-69.5 200.78,-62.5"/>
<text text-anchor="middle" x="468.5" y="-69" font-family="Helvetica,sans-Serif" font-size="10.00"> _name</text>
</g>
<!-- Node8 -->
<g id="node8" class="node">
<title>Node8</title>
<g id="a_node8"><a xlink:href="classengine_1_1_base.html" target="_top" xlink:title=" ">
<polygon fill="white" stroke="#bfbfbf" points="360,-34.5 288,-34.5 288,-15.5 360,-15.5 360,-34.5"/>
<text text-anchor="middle" x="324" y="-22.5" font-family="Helvetica,sans-Serif" font-size="10.00">engine::Base</text>
</a>
</g>
</g>
<!-- Node2&#45;&gt;Node8 -->
<g id="edge9" class="edge">
<title>Node2&#45;&gt;Node8</title>
<path fill="none" stroke="#9a32cd" stroke-dasharray="5,2" d="M185.35,-50.54C192.16,-46.9 199.68,-43.39 207,-41 233.29,-32.43 264.38,-28.45 287.76,-26.6"/>
<polygon fill="#9a32cd" stroke="#9a32cd" points="183.65,-47.48 176.7,-55.48 187.12,-53.56 183.65,-47.48"/>
<text text-anchor="middle" x="238.5" y="-44" font-family="Helvetica,sans-Serif" font-size="10.00"> _uniqueName</text>
</g>
<!-- Node3 -->
<g id="node3" class="node">
<title>Node3</title>
<g id="a_node3"><a xlink:title=" ">
<polygon fill="white" stroke="#666666" points="93,-81 0,-81 0,-51 93,-51 93,-81"/>
<text text-anchor="start" x="8" y="-69" font-family="Helvetica,sans-Serif" font-size="10.00">std::basic_string&lt;</text>
<text text-anchor="middle" x="46.5" y="-58" font-family="Helvetica,sans-Serif" font-size="10.00"> Char &gt;</text>
</a>
</g>
</g>
<!-- Node3&#45;&gt;Node2 -->
<g id="edge2" class="edge">
<title>Node3&#45;&gt;Node2</title>
<path fill="none" stroke="#63b8ff" d="M104.65,-66C113.31,-66 121.93,-66 129.65,-66"/>
<polygon fill="#63b8ff" stroke="#63b8ff" points="104.8,-62.5 94.8,-66 104.8,-69.5 104.8,-62.5"/>
</g>
<!-- Node4 -->
<g id="node4" class="node">
<title>Node4</title>
<g id="a_node4"><a xlink:title=" ">
<polygon fill="white" stroke="#666666" points="1079,-36 962,-36 962,-6 1079,-6 1079,-36"/>
<text text-anchor="start" x="970" y="-24" font-family="Helvetica,sans-Serif" font-size="10.00">std::shared_ptr&lt; engine</text>
<text text-anchor="middle" x="1020.5" y="-13" font-family="Helvetica,sans-Serif" font-size="10.00">::Scene &gt;</text>
</a>
</g>
</g>
<!-- Node4&#45;&gt;Node1 -->
<g id="edge3" class="edge">
<title>Node4&#45;&gt;Node1</title>
<path fill="none" stroke="#9a32cd" stroke-dasharray="5,2" d="M1090.39,-33.06C1092.62,-33.39 1094.83,-33.7 1097,-34 1186.02,-46.21 1289.89,-55.96 1352.62,-61.35"/>
<polygon fill="#9a32cd" stroke="#9a32cd" points="1091.06,-29.62 1080.64,-31.57 1090,-36.54 1091.06,-29.62"/>
<text text-anchor="middle" x="1217.5" y="-58" font-family="Helvetica,sans-Serif" font-size="10.00"> _actualScene</text>
</g>
<!-- Node9 -->
<g id="node9" class="node">
<title>Node9</title>
<g id="a_node9"><a xlink:title=" ">
<polygon fill="white" stroke="#666666" points="1277,-30 1158,-30 1158,0 1277,0 1277,-30"/>
<text text-anchor="start" x="1166" y="-18" font-family="Helvetica,sans-Serif" font-size="10.00">std::vector&lt; std::shared</text>
<text text-anchor="middle" x="1217.5" y="-7" font-family="Helvetica,sans-Serif" font-size="10.00">_ptr&lt; engine::Scene &gt; &gt;</text>
</a>
</g>
</g>
<!-- Node4&#45;&gt;Node9 -->
<g id="edge11" class="edge">
<title>Node4&#45;&gt;Node9</title>
<path fill="none" stroke="#9a32cd" stroke-dasharray="5,2" d="M1090.72,-18.87C1112.63,-18.2 1136.63,-17.46 1157.73,-16.81"/>
<polygon fill="#9a32cd" stroke="#9a32cd" points="1090.88,-15.36 1080.99,-19.17 1091.09,-22.36 1090.88,-15.36"/>
<text text-anchor="middle" x="1118.5" y="-22" font-family="Helvetica,sans-Serif" font-size="10.00"> elements</text>
</g>
<!-- Node5&#45;&gt;Node4 -->
<g id="edge4" class="edge">
<title>Node5&#45;&gt;Node4</title>
<path fill="none" stroke="#9a32cd" stroke-dasharray="5,2" d="M923.6,-21C935.85,-21 949.1,-21 961.73,-21"/>
<polygon fill="#9a32cd" stroke="#9a32cd" points="923.73,-17.5 913.73,-21 923.73,-24.5 923.73,-17.5"/>
<text text-anchor="middle" x="937" y="-24" font-family="Helvetica,sans-Serif" font-size="10.00"> ptr</text>
</g>
<!-- Node6 -->
<g id="node6" class="node">
<title>Node6</title>
<g id="a_node6"><a xlink:title=" ">
<polygon fill="white" stroke="#666666" points="723,-36 606,-36 606,-6 723,-6 723,-36"/>
<text text-anchor="start" x="614" y="-24" font-family="Helvetica,sans-Serif" font-size="10.00">std::vector&lt; std::shared</text>
<text text-anchor="middle" x="664.5" y="-13" font-family="Helvetica,sans-Serif" font-size="10.00">_ptr&lt; engine::Base &gt; &gt;</text>
</a>
</g>
</g>
<!-- Node6&#45;&gt;Node5 -->
<g id="edge6" class="edge">
<title>Node6&#45;&gt;Node5</title>
<path fill="none" stroke="#9a32cd" stroke-dasharray="5,2" d="M734.95,-21C768.19,-21 806.71,-21 834.51,-21"/>
<polygon fill="#9a32cd" stroke="#9a32cd" points="734.95,-17.5 724.95,-21 734.95,-24.5 734.95,-17.5"/>
<text text-anchor="middle" x="779" y="-24" font-family="Helvetica,sans-Serif" font-size="10.00"> _entities</text>
</g>
<!-- Node7 -->
<g id="node7" class="node">
<title>Node7</title>
<g id="a_node7"><a xlink:title=" ">
<polygon fill="white" stroke="#666666" points="527,-30 410,-30 410,0 527,0 527,-30"/>
<text text-anchor="start" x="418" y="-18" font-family="Helvetica,sans-Serif" font-size="10.00">std::shared_ptr&lt; engine</text>
<text text-anchor="middle" x="468.5" y="-7" font-family="Helvetica,sans-Serif" font-size="10.00">::Base &gt;</text>
</a>
</g>
</g>
<!-- Node7&#45;&gt;Node6 -->
<g id="edge7" class="edge">
<title>Node7&#45;&gt;Node6</title>
<path fill="none" stroke="#9a32cd" stroke-dasharray="5,2" d="M538.67,-17.14C560.56,-17.82 584.5,-18.56 605.52,-19.21"/>
<polygon fill="#9a32cd" stroke="#9a32cd" points="539.06,-13.65 528.96,-16.84 538.84,-20.65 539.06,-13.65"/>
<text text-anchor="middle" x="566.5" y="-22" font-family="Helvetica,sans-Serif" font-size="10.00"> elements</text>
</g>
<!-- Node8&#45;&gt;Node7 -->
<g id="edge8" class="edge">
<title>Node8&#45;&gt;Node7</title>
<path fill="none" stroke="#9a32cd" stroke-dasharray="5,2" d="M371.51,-21.74C383.69,-20.88 396.98,-19.95 409.67,-19.06"/>
<polygon fill="#9a32cd" stroke="#9a32cd" points="371.46,-18.23 361.73,-22.42 371.96,-25.21 371.46,-18.23"/>
<text text-anchor="middle" x="385" y="-25" font-family="Helvetica,sans-Serif" font-size="10.00"> ptr</text>
</g>
<!-- Node9&#45;&gt;Node1 -->
<g id="edge10" class="edge">
<title>Node9&#45;&gt;Node1</title>
<path fill="none" stroke="#9a32cd" stroke-dasharray="5,2" d="M1288.51,-29.38C1303.9,-32.89 1320.06,-36.84 1335,-41 1350.77,-45.39 1368.13,-51.16 1382.12,-56.05"/>
<polygon fill="#9a32cd" stroke="#9a32cd" points="1289.47,-26.01 1278.94,-27.24 1287.94,-32.84 1289.47,-26.01"/>
<text text-anchor="middle" x="1315" y="-44" font-family="Helvetica,sans-Serif" font-size="10.00"> _scenes</text>
</g>
</g>
</svg>
