<?xml version="1.0" encoding="UTF-8" standalone="no"?>
<!DOCTYPE svg PUBLIC "-//W3C//DTD SVG 1.1//EN"
 "http://www.w3.org/Graphics/SVG/1.1/DTD/svg11.dtd">
<!-- Generated by graphviz version 7.0.5 (20221223.1930)
 -->
<!-- Title: rtype::client::network::NetworkManager Pages: 1 -->
<svg width="764pt" height="244pt"
 viewBox="0.00 0.00 764.00 244.00" xmlns="http://www.w3.org/2000/svg" xmlns:xlink="http://www.w3.org/1999/xlink">
<g id="graph0" class="graph" transform="scale(1 1) rotate(0) translate(4 240)">
<title>rtype::client::network::NetworkManager</title>
<!-- Node1 -->
<g id="node1" class="node">
<title>Node1</title>
<g id="a_node1"><a xlink:title=" ">
<polygon fill="#999999" stroke="#666666" points="475,-126 371,-126 371,-96 475,-96 475,-126"/>
<text text-anchor="start" x="379" y="-114" font-family="Helvetica,sans-Serif" font-size="10.00">rtype::client::network</text>
<text text-anchor="middle" x="423" y="-103" font-family="Helvetica,sans-Serif" font-size="10.00">::NetworkManager</text>
</a>
</g>
</g>
<!-- Node4 -->
<g id="node4" class="node">
<title>Node4</title>
<g id="a_node4"><a xlink:title=" ">
<polygon fill="white" stroke="#666666" points="756,-126 586,-126 586,-96 756,-96 756,-126"/>
<text text-anchor="start" x="594" y="-114" font-family="Helvetica,sans-Serif" font-size="10.00">std::shared_ptr&lt; rtype</text>
<text text-anchor="middle" x="671" y="-103" font-family="Helvetica,sans-Serif" font-size="10.00">::client::network::NetworkManager &gt;</text>
</a>
</g>
</g>
<!-- Node1&#45;&gt;Node4 -->
<g id="edge4" class="edge">
<title>Node1&#45;&gt;Node4</title>
<path fill="none" stroke="#9a32cd" stroke-dasharray="5,2" d="M486.49,-111C516.66,-111 553.29,-111 585.87,-111"/>
<polygon fill="#9a32cd" stroke="#9a32cd" points="486.78,-107.5 476.78,-111 486.78,-114.5 486.78,-107.5"/>
<text text-anchor="middle" x="530.5" y="-114" font-family="Helvetica,sans-Serif" font-size="10.00"> ptr</text>
</g>
<!-- Node2 -->
<g id="node2" class="node">
<title>Node2</title>
<g id="a_node2"><a xlink:title=" ">
<polygon fill="white" stroke="#666666" points="218,-211.5 159,-211.5 159,-192.5 218,-192.5 218,-211.5"/>
<text text-anchor="middle" x="188.5" y="-199.5" font-family="Helvetica,sans-Serif" font-size="10.00">std::string</text>
</a>
</g>
</g>
<!-- Node2&#45;&gt;Node1 -->
<g id="edge1" class="edge">
<title>Node2&#45;&gt;Node1</title>
<path fill="none" stroke="#9a32cd" stroke-dasharray="5,2" d="M229.64,-198.31C263.8,-193.98 313.45,-184.85 353,-166 373.74,-156.11 393.87,-138.93 406.98,-126.39"/>
<polygon fill="#9a32cd" stroke="#9a32cd" points="229.28,-194.83 219.75,-199.47 230.09,-201.78 229.28,-194.83"/>
<text text-anchor="middle" x="309" y="-228" font-family="Helvetica,sans-Serif" font-size="10.00"> imGuiHost</text>
<text text-anchor="middle" x="309" y="-217" font-family="Helvetica,sans-Serif" font-size="10.00">imGuiTcpPort</text>
<text text-anchor="middle" x="309" y="-206" font-family="Helvetica,sans-Serif" font-size="10.00">imGuiUdpPort</text>
<text text-anchor="middle" x="309" y="-195" font-family="Helvetica,sans-Serif" font-size="10.00">imGuiUsername</text>
</g>
<!-- Node3 -->
<g id="node3" class="node">
<title>Node3</title>
<g id="a_node3"><a xlink:title=" ">
<polygon fill="white" stroke="#666666" points="93,-217 0,-217 0,-187 93,-187 93,-217"/>
<text text-anchor="start" x="8" y="-205" font-family="Helvetica,sans-Serif" font-size="10.00">std::basic_string&lt;</text>
<text text-anchor="middle" x="46.5" y="-194" font-family="Helvetica,sans-Serif" font-size="10.00"> Char &gt;</text>
</a>
</g>
</g>
<!-- Node3&#45;&gt;Node2 -->
<g id="edge2" class="edge">
<title>Node3&#45;&gt;Node2</title>
<path fill="none" stroke="#63b8ff" d="M104.7,-202C123.29,-202 143.12,-202 158.71,-202"/>
<polygon fill="#63b8ff" stroke="#63b8ff" points="104.85,-198.5 94.85,-202 104.85,-205.5 104.85,-198.5"/>
</g>
<!-- Node4&#45;&gt;Node1 -->
<g id="edge3" class="edge">
<title>Node4&#45;&gt;Node1</title>
<path fill="none" stroke="#9a32cd" stroke-dasharray="5,2" d="M574.55,-95.23C548.11,-92.8 519.42,-91.98 493,-95 487.26,-95.66 481.3,-96.61 475.39,-97.73"/>
<polygon fill="#9a32cd" stroke="#9a32cd" points="573.93,-98.68 584.23,-96.21 574.63,-91.72 573.93,-98.68"/>
<text text-anchor="middle" x="530.5" y="-98" font-family="Helvetica,sans-Serif" font-size="10.00"> networkManager</text>
</g>
<!-- Node5 -->
<g id="node5" class="node">
<title>Node5</title>
<g id="a_node5"><a xlink:title=" ">
<polygon fill="white" stroke="#666666" points="247,-174 130,-174 130,-144 247,-144 247,-174"/>
<text text-anchor="start" x="138" y="-162" font-family="Helvetica,sans-Serif" font-size="10.00">std::shared_ptr&lt; spdlog</text>
<text text-anchor="middle" x="188.5" y="-151" font-family="Helvetica,sans-Serif" font-size="10.00">::logger &gt;</text>
</a>
</g>
</g>
<!-- Node5&#45;&gt;Node1 -->
<g id="edge5" class="edge">
<title>Node5&#45;&gt;Node1</title>
<path fill="none" stroke="#9a32cd" stroke-dasharray="5,2" d="M258.64,-153.2C288.02,-149.84 322.48,-144.7 353,-137 363.8,-134.28 375.23,-130.4 385.61,-126.47"/>
<polygon fill="#9a32cd" stroke="#9a32cd" points="258.3,-149.72 248.74,-154.29 259.06,-156.68 258.3,-149.72"/>
<text text-anchor="middle" x="309" y="-154" font-family="Helvetica,sans-Serif" font-size="10.00"> _logger</text>
</g>
<!-- Node6 -->
<g id="node6" class="node">
<title>Node6</title>
<g id="a_node6"><a xlink:title=" ">
<polygon fill="white" stroke="#666666" points="238,-126 139,-126 139,-96 238,-96 238,-126"/>
<text text-anchor="start" x="147" y="-114" font-family="Helvetica,sans-Serif" font-size="10.00">std::shared_ptr&lt; sa</text>
<text text-anchor="middle" x="188.5" y="-103" font-family="Helvetica,sans-Serif" font-size="10.00">::PacketRegistry &gt;</text>
</a>
</g>
</g>
<!-- Node6&#45;&gt;Node1 -->
<g id="edge6" class="edge">
<title>Node6&#45;&gt;Node1</title>
<path fill="none" stroke="#9a32cd" stroke-dasharray="5,2" d="M249.52,-111C287,-111 334.75,-111 370.5,-111"/>
<polygon fill="#9a32cd" stroke="#9a32cd" points="249.75,-107.5 239.75,-111 249.75,-114.5 249.75,-107.5"/>
<text text-anchor="middle" x="309" y="-125" font-family="Helvetica,sans-Serif" font-size="10.00"> _tcpPacketRegistry</text>
<text text-anchor="middle" x="309" y="-114" font-family="Helvetica,sans-Serif" font-size="10.00">_udpPacketRegistry</text>
</g>
<!-- Node7 -->
<g id="node7" class="node">
<title>Node7</title>
<g id="a_node7"><a xlink:title=" ">
<polygon fill="white" stroke="#666666" points="238,-78 139,-78 139,-48 238,-48 238,-78"/>
<text text-anchor="start" x="147" y="-66" font-family="Helvetica,sans-Serif" font-size="10.00">std::shared_ptr&lt; sa</text>
<text text-anchor="middle" x="188.5" y="-55" font-family="Helvetica,sans-Serif" font-size="10.00">::TCPClient &gt;</text>
</a>
</g>
</g>
<!-- Node7&#45;&gt;Node1 -->
<g id="edge7" class="edge">
<title>Node7&#45;&gt;Node1</title>
<path fill="none" stroke="#9a32cd" stroke-dasharray="5,2" d="M249.24,-74.84C280.22,-81.03 318.67,-88.8 353,-96 358.76,-97.21 364.78,-98.49 370.77,-99.77"/>
<polygon fill="#9a32cd" stroke="#9a32cd" points="250.16,-71.45 239.67,-72.93 248.79,-78.32 250.16,-71.45"/>
<text text-anchor="middle" x="309" y="-99" font-family="Helvetica,sans-Serif" font-size="10.00"> _tcpClient</text>
</g>
<!-- Node8 -->
<g id="node8" class="node">
<title>Node8</title>
<g id="a_node8"><a xlink:title=" ">
<polygon fill="white" stroke="#666666" points="238,-30 139,-30 139,0 238,0 238,-30"/>
<text text-anchor="start" x="147" y="-18" font-family="Helvetica,sans-Serif" font-size="10.00">std::shared_ptr&lt; sa</text>
<text text-anchor="middle" x="188.5" y="-7" font-family="Helvetica,sans-Serif" font-size="10.00">::UDPClient &gt;</text>
</a>
</g>
</g>
<!-- Node8&#45;&gt;Node1 -->
<g id="edge8" class="edge">
<title>Node8&#45;&gt;Node1</title>
<path fill="none" stroke="#9a32cd" stroke-dasharray="5,2" d="M249.12,-27.59C280.87,-35.5 320.06,-47.22 353,-63 371.29,-71.76 390.06,-85.16 403.4,-95.58"/>
<polygon fill="#9a32cd" stroke="#9a32cd" points="250.23,-24.26 239.69,-25.31 248.59,-31.06 250.23,-24.26"/>
<text text-anchor="middle" x="309" y="-66" font-family="Helvetica,sans-Serif" font-size="10.00"> _udpClient</text>
</g>
</g>
</svg>
