<?xml version="1.0" encoding="UTF-8" standalone="no"?>
<!DOCTYPE svg PUBLIC "-//W3C//DTD SVG 1.1//EN"
 "http://www.w3.org/Graphics/SVG/1.1/DTD/svg11.dtd">
<!-- Generated by graphviz version 7.0.5 (20221223.1930)
 -->
<!-- Title: Player Pages: 1 -->
<svg width="158pt" height="82pt"
 viewBox="0.00 0.00 158.00 82.00" xmlns="http://www.w3.org/2000/svg" xmlns:xlink="http://www.w3.org/1999/xlink">
<g id="graph0" class="graph" transform="scale(1 1) rotate(0) translate(4 78)">
<title>Player</title>
<!-- Node1 -->
<g id="node1" class="node">
<title>Node1</title>
<g id="a_node1"><a xlink:title=" ">
<polygon fill="#999999" stroke="#666666" points="100,-19 56,-19 56,0 100,0 100,-19"/>
<text text-anchor="middle" x="78" y="-7" font-family="Helvetica,sans-Serif" font-size="10.00">Player</text>
</a>
</g>
</g>
<!-- Node2 -->
<g id="node2" class="node">
<title>Node2</title>
<g id="a_node2"><a xlink:href="classengine_1_1_base.html" target="_top" xlink:title=" ">
<polygon fill="white" stroke="#bfbfbf" points="72,-74 0,-74 0,-55 72,-55 72,-74"/>
<text text-anchor="middle" x="36" y="-62" font-family="Helvetica,sans-Serif" font-size="10.00">engine::Base</text>
</a>
</g>
</g>
<!-- Node2&#45;&gt;Node1 -->
<g id="edge1" class="edge">
<title>Node2&#45;&gt;Node1</title>
<path fill="none" stroke="#63b8ff" d="M49.92,-45.93C56.96,-37.06 65.19,-26.67 70.91,-19.44"/>
<polygon fill="#63b8ff" stroke="#63b8ff" points="47.34,-43.55 43.88,-53.56 52.83,-47.9 47.34,-43.55"/>
</g>
<!-- Node3 -->
<g id="node3" class="node">
<title>Node3</title>
<g id="a_node3"><a xlink:href="class_damaging.html" target="_top" xlink:title=" ">
<polygon fill="white" stroke="#bfbfbf" points="150,-74 90,-74 90,-55 150,-55 150,-74"/>
<text text-anchor="middle" x="120" y="-62" font-family="Helvetica,sans-Serif" font-size="10.00">Damaging</text>
</a>
</g>
</g>
<!-- Node3&#45;&gt;Node1 -->
<g id="edge2" class="edge">
<title>Node3&#45;&gt;Node1</title>
<path fill="none" stroke="#63b8ff" d="M106.08,-45.93C99.04,-37.06 90.81,-26.67 85.09,-19.44"/>
<polygon fill="#63b8ff" stroke="#63b8ff" points="103.17,-47.9 112.12,-53.56 108.66,-43.55 103.17,-47.9"/>
</g>
</g>
</svg>
