<?xml version="1.0" encoding="UTF-8" standalone="no"?>
<!DOCTYPE svg PUBLIC "-//W3C//DTD SVG 1.1//EN"
 "http://www.w3.org/Graphics/SVG/1.1/DTD/svg11.dtd">
<!-- Generated by graphviz version 7.0.5 (20221223.1930)
 -->
<!-- Title: rtype::server::GameServer Pages: 1 -->
<svg width="727pt" height="364pt"
 viewBox="0.00 0.00 727.00 364.00" xmlns="http://www.w3.org/2000/svg" xmlns:xlink="http://www.w3.org/1999/xlink">
<g id="graph0" class="graph" transform="scale(1 1) rotate(0) translate(4 360)">
<title>rtype::server::GameServer</title>
<!-- Node1 -->
<g id="node1" class="node">
<title>Node1</title>
<g id="a_node1"><a xlink:title=" ">
<polygon fill="#999999" stroke="#666666" points="719,-206.5 591,-206.5 591,-187.5 719,-187.5 719,-206.5"/>
<text text-anchor="middle" x="655" y="-194.5" font-family="Helvetica,sans-Serif" font-size="10.00">rtype::server::GameServer</text>
</a>
</g>
</g>
<!-- Node2 -->
<g id="node2" class="node">
<title>Node2</title>
<g id="a_node2"><a xlink:title=" ">
<polygon fill="white" stroke="#666666" points="454.5,-356 355.5,-356 355.5,-326 454.5,-326 454.5,-356"/>
<text text-anchor="start" x="363.5" y="-344" font-family="Helvetica,sans-Serif" font-size="10.00">std::shared_ptr&lt; sa</text>
<text text-anchor="middle" x="405" y="-333" font-family="Helvetica,sans-Serif" font-size="10.00">::PacketRegistry &gt;</text>
</a>
</g>
</g>
<!-- Node2&#45;&gt;Node1 -->
<g id="edge1" class="edge">
<title>Node2&#45;&gt;Node1</title>
<path fill="none" stroke="#9a32cd" stroke-dasharray="5,2" d="M465.69,-330.23C499.15,-322.26 540.56,-309.04 573,-288 607.25,-265.79 635.89,-225.34 647.92,-206.79"/>
<polygon fill="#9a32cd" stroke="#9a32cd" points="465.12,-326.77 456.14,-332.4 466.67,-333.59 465.12,-326.77"/>
<text text-anchor="middle" x="529" y="-338" font-family="Helvetica,sans-Serif" font-size="10.00"> _tcpPacketRegistry</text>
<text text-anchor="middle" x="529" y="-327" font-family="Helvetica,sans-Serif" font-size="10.00">_udpPacketRegistry</text>
</g>
<!-- Node3 -->
<g id="node3" class="node">
<title>Node3</title>
<g id="a_node3"><a xlink:title=" ">
<polygon fill="white" stroke="#666666" points="454.5,-308 355.5,-308 355.5,-278 454.5,-278 454.5,-308"/>
<text text-anchor="start" x="363.5" y="-296" font-family="Helvetica,sans-Serif" font-size="10.00">std::shared_ptr&lt; sa</text>
<text text-anchor="middle" x="405" y="-285" font-family="Helvetica,sans-Serif" font-size="10.00">::TCPServer &gt;</text>
</a>
</g>
</g>
<!-- Node3&#45;&gt;Node1 -->
<g id="edge2" class="edge">
<title>Node3&#45;&gt;Node1</title>
<path fill="none" stroke="#9a32cd" stroke-dasharray="5,2" d="M466.04,-279.12C498.39,-270.72 538.6,-258.77 573,-244 597.35,-233.54 623.53,-217.35 639.34,-206.96"/>
<polygon fill="#9a32cd" stroke="#9a32cd" points="465.24,-275.71 456.41,-281.57 466.97,-282.5 465.24,-275.71"/>
<text text-anchor="middle" x="529" y="-276" font-family="Helvetica,sans-Serif" font-size="10.00"> _tcpServer</text>
</g>
<!-- Node4 -->
<g id="node4" class="node">
<title>Node4</title>
<g id="a_node4"><a xlink:title=" ">
<polygon fill="white" stroke="#666666" points="454.5,-260 355.5,-260 355.5,-230 454.5,-230 454.5,-260"/>
<text text-anchor="start" x="363.5" y="-248" font-family="Helvetica,sans-Serif" font-size="10.00">std::shared_ptr&lt; sa</text>
<text text-anchor="middle" x="405" y="-237" font-family="Helvetica,sans-Serif" font-size="10.00">::UDPServer &gt;</text>
</a>
</g>
</g>
<!-- Node4&#45;&gt;Node1 -->
<g id="edge3" class="edge">
<title>Node4&#45;&gt;Node1</title>
<path fill="none" stroke="#9a32cd" stroke-dasharray="5,2" d="M466.12,-233.36C507.84,-225.29 562.84,-214.64 602.54,-206.96"/>
<polygon fill="#9a32cd" stroke="#9a32cd" points="465.64,-229.89 456.48,-235.23 466.97,-236.77 465.64,-229.89"/>
<text text-anchor="middle" x="529" y="-232" font-family="Helvetica,sans-Serif" font-size="10.00"> _udpServer</text>
</g>
<!-- Node5 -->
<g id="node5" class="node">
<title>Node5</title>
<g id="a_node5"><a xlink:title=" ">
<polygon fill="white" stroke="#666666" points="463.5,-212 346.5,-212 346.5,-182 463.5,-182 463.5,-212"/>
<text text-anchor="start" x="354.5" y="-200" font-family="Helvetica,sans-Serif" font-size="10.00">std::shared_ptr&lt; spdlog</text>
<text text-anchor="middle" x="405" y="-189" font-family="Helvetica,sans-Serif" font-size="10.00">::logger &gt;</text>
</a>
</g>
</g>
<!-- Node5&#45;&gt;Node1 -->
<g id="edge4" class="edge">
<title>Node5&#45;&gt;Node1</title>
<path fill="none" stroke="#9a32cd" stroke-dasharray="5,2" d="M475.3,-197C511.54,-197 555.56,-197 590.85,-197"/>
<polygon fill="#9a32cd" stroke="#9a32cd" points="475.35,-193.5 465.35,-197 475.35,-200.5 475.35,-193.5"/>
<text text-anchor="middle" x="529" y="-200" font-family="Helvetica,sans-Serif" font-size="10.00"> _logger</text>
</g>
<!-- Node6 -->
<g id="node6" class="node">
<title>Node6</title>
<g id="a_node6"><a xlink:title=" ">
<polygon fill="white" stroke="#666666" points="434.5,-163.5 375.5,-163.5 375.5,-144.5 434.5,-144.5 434.5,-163.5"/>
<text text-anchor="middle" x="405" y="-151.5" font-family="Helvetica,sans-Serif" font-size="10.00">std::string</text>
</a>
</g>
</g>
<!-- Node6&#45;&gt;Node1 -->
<g id="edge5" class="edge">
<title>Node6&#45;&gt;Node1</title>
<path fill="none" stroke="#9a32cd" stroke-dasharray="5,2" d="M446.26,-160.55C480.11,-166.11 529.75,-174.37 573,-182 582.01,-183.59 591.58,-185.32 600.87,-187.03"/>
<polygon fill="#9a32cd" stroke="#9a32cd" points="446.92,-157.11 436.48,-158.95 445.78,-164.02 446.92,-157.11"/>
<text text-anchor="middle" x="529" y="-185" font-family="Helvetica,sans-Serif" font-size="10.00"> _host</text>
</g>
<!-- Node7 -->
<g id="node7" class="node">
<title>Node7</title>
<g id="a_node7"><a xlink:title=" ">
<polygon fill="white" stroke="#666666" points="252.5,-172 159.5,-172 159.5,-142 252.5,-142 252.5,-172"/>
<text text-anchor="start" x="167.5" y="-160" font-family="Helvetica,sans-Serif" font-size="10.00">std::basic_string&lt;</text>
<text text-anchor="middle" x="206" y="-149" font-family="Helvetica,sans-Serif" font-size="10.00"> Char &gt;</text>
</a>
</g>
</g>
<!-- Node7&#45;&gt;Node6 -->
<g id="edge6" class="edge">
<title>Node7&#45;&gt;Node6</title>
<path fill="none" stroke="#63b8ff" d="M264.13,-156.13C300.47,-155.58 345.99,-154.88 375.04,-154.44"/>
<polygon fill="#63b8ff" stroke="#63b8ff" points="264.15,-152.63 254.2,-156.28 264.26,-159.63 264.15,-152.63"/>
</g>
<!-- Node8 -->
<g id="node8" class="node">
<title>Node8</title>
<g id="a_node8"><a xlink:href="class_u_u_i_dv4_1_1_u_u_i_d_generator.html" target="_top" xlink:title=" ">
<polygon fill="white" stroke="#bfbfbf" points="467,-126 343,-126 343,-96 467,-96 467,-126"/>
<text text-anchor="start" x="351" y="-114" font-family="Helvetica,sans-Serif" font-size="10.00">UUIDv4::UUIDGenerator</text>
<text text-anchor="middle" x="405" y="-103" font-family="Helvetica,sans-Serif" font-size="10.00">&lt; std::mt19937 &gt;</text>
</a>
</g>
</g>
<!-- Node8&#45;&gt;Node1 -->
<g id="edge7" class="edge">
<title>Node8&#45;&gt;Node1</title>
<path fill="none" stroke="#9a32cd" stroke-dasharray="5,2" d="M478.67,-124.42C508.46,-131.06 542.94,-140.2 573,-152 597.26,-161.52 623.25,-177.01 639.07,-187.1"/>
<polygon fill="#9a32cd" stroke="#9a32cd" points="479.49,-121.02 468.98,-122.33 478.01,-127.86 479.49,-121.02"/>
<text text-anchor="middle" x="529" y="-155" font-family="Helvetica,sans-Serif" font-size="10.00"> _uuidGenerator</text>
</g>
<!-- Node9 -->
<g id="node9" class="node">
<title>Node9</title>
<g id="a_node9"><a xlink:title=" ">
<polygon fill="white" stroke="#666666" points="257,-124 155,-124 155,-94 257,-94 257,-124"/>
<text text-anchor="start" x="163" y="-112" font-family="Helvetica,sans-Serif" font-size="10.00">std::shared_ptr&lt; std</text>
<text text-anchor="middle" x="206" y="-101" font-family="Helvetica,sans-Serif" font-size="10.00">::mt19937 &gt;</text>
</a>
</g>
</g>
<!-- Node9&#45;&gt;Node8 -->
<g id="edge8" class="edge">
<title>Node9&#45;&gt;Node8</title>
<path fill="none" stroke="#9a32cd" stroke-dasharray="5,2" d="M268.76,-109.63C292.35,-109.87 319.22,-110.14 342.76,-110.38"/>
<polygon fill="#9a32cd" stroke="#9a32cd" points="269.03,-106.13 258.99,-109.53 268.95,-113.13 269.03,-106.13"/>
<text text-anchor="middle" x="303.5" y="-113" font-family="Helvetica,sans-Serif" font-size="10.00"> generator</text>
</g>
<!-- Node10 -->
<g id="node10" class="node">
<title>Node10</title>
<g id="a_node10"><a xlink:title=" ">
<polygon fill="white" stroke="#666666" points="465,-78 345,-78 345,-26 465,-26 465,-78"/>
<text text-anchor="start" x="353" y="-66" font-family="Helvetica,sans-Serif" font-size="10.00">std::unordered_map</text>
<text text-anchor="start" x="353" y="-55" font-family="Helvetica,sans-Serif" font-size="10.00">&lt; UUIDv4::UUID, std</text>
<text text-anchor="start" x="353" y="-44" font-family="Helvetica,sans-Serif" font-size="10.00">::shared_ptr&lt; rtype::</text>
<text text-anchor="middle" x="405" y="-33" font-family="Helvetica,sans-Serif" font-size="10.00">server::game::Player &gt; &gt;</text>
</a>
</g>
</g>
<!-- Node10&#45;&gt;Node1 -->
<g id="edge9" class="edge">
<title>Node10&#45;&gt;Node1</title>
<path fill="none" stroke="#9a32cd" stroke-dasharray="5,2" d="M475.99,-68.64C507.27,-78.06 543.62,-91.85 573,-111 605.65,-132.27 634.45,-169.34 647.14,-187.04"/>
<polygon fill="#9a32cd" stroke="#9a32cd" points="477.19,-65.35 466.61,-65.92 475.24,-72.07 477.19,-65.35"/>
<text text-anchor="middle" x="529" y="-114" font-family="Helvetica,sans-Serif" font-size="10.00"> _players</text>
</g>
<!-- Node11 -->
<g id="node11" class="node">
<title>Node11</title>
<g id="a_node11"><a xlink:href="class_u_u_i_dv4_1_1_u_u_i_d.html" target="_top" xlink:title=" ">
<polygon fill="white" stroke="#bfbfbf" points="246.5,-67.5 165.5,-67.5 165.5,-48.5 246.5,-48.5 246.5,-67.5"/>
<text text-anchor="middle" x="206" y="-55.5" font-family="Helvetica,sans-Serif" font-size="10.00">UUIDv4::UUID</text>
</a>
</g>
</g>
<!-- Node11&#45;&gt;Node10 -->
<g id="edge10" class="edge">
<title>Node11&#45;&gt;Node10</title>
<path fill="none" stroke="#9a32cd" stroke-dasharray="5,2" d="M258.2,-56.44C284.69,-55.63 317.18,-54.64 344.75,-53.8"/>
<polygon fill="#9a32cd" stroke="#9a32cd" points="258.27,-52.94 248.38,-56.74 258.48,-59.93 258.27,-52.94"/>
<text text-anchor="middle" x="303.5" y="-58" font-family="Helvetica,sans-Serif" font-size="10.00"> keys</text>
</g>
<!-- Node12 -->
<g id="node12" class="node">
<title>Node12</title>
<g id="a_node12"><a xlink:title=" ">
<polygon fill="white" stroke="#666666" points="264,-30 148,-30 148,0 264,0 264,-30"/>
<text text-anchor="start" x="156" y="-18" font-family="Helvetica,sans-Serif" font-size="10.00">std::shared_ptr&lt; rtype</text>
<text text-anchor="middle" x="206" y="-7" font-family="Helvetica,sans-Serif" font-size="10.00">::server::game::Player &gt;</text>
</a>
</g>
</g>
<!-- Node12&#45;&gt;Node10 -->
<g id="edge11" class="edge">
<title>Node12&#45;&gt;Node10</title>
<path fill="none" stroke="#9a32cd" stroke-dasharray="5,2" d="M275.43,-27.85C297.94,-32.08 322.77,-36.74 344.56,-40.84"/>
<polygon fill="#9a32cd" stroke="#9a32cd" points="276.21,-24.44 265.73,-26.03 274.91,-31.32 276.21,-24.44"/>
<text text-anchor="middle" x="303.5" y="-40" font-family="Helvetica,sans-Serif" font-size="10.00"> elements</text>
</g>
<!-- Node13 -->
<g id="node13" class="node">
<title>Node13</title>
<g id="a_node13"><a xlink:href="classrtype_1_1server_1_1game_1_1_player.html" target="_top" xlink:title=" ">
<polygon fill="white" stroke="#bfbfbf" points="98,-30 0,-30 0,0 98,0 98,-30"/>
<text text-anchor="start" x="8" y="-18" font-family="Helvetica,sans-Serif" font-size="10.00">rtype::server::game</text>
<text text-anchor="middle" x="49" y="-7" font-family="Helvetica,sans-Serif" font-size="10.00">::Player</text>
</a>
</g>
</g>
<!-- Node13&#45;&gt;Node12 -->
<g id="edge12" class="edge">
<title>Node13&#45;&gt;Node12</title>
<path fill="none" stroke="#9a32cd" stroke-dasharray="5,2" d="M109.46,-15C121.97,-15 135.15,-15 147.59,-15"/>
<polygon fill="#9a32cd" stroke="#9a32cd" points="109.71,-11.5 99.71,-15 109.71,-18.5 109.71,-11.5"/>
<text text-anchor="middle" x="123" y="-18" font-family="Helvetica,sans-Serif" font-size="10.00"> ptr</text>
</g>
</g>
</svg>
