<?xml version="1.0" encoding="UTF-8" standalone="no"?>
<!DOCTYPE svg PUBLIC "-//W3C//DTD SVG 1.1//EN"
 "http://www.w3.org/Graphics/SVG/1.1/DTD/svg11.dtd">
<!-- Generated by graphviz version 7.0.5 (20221223.1930)
 -->
<!-- Title: engine::Scene Pages: 1 -->
<svg width="206pt" height="380pt"
 viewBox="0.00 0.00 206.00 380.00" xmlns="http://www.w3.org/2000/svg" xmlns:xlink="http://www.w3.org/1999/xlink">
<g id="graph0" class="graph" transform="scale(1 1) rotate(0) translate(4 376)">
<title>engine::Scene</title>
<!-- Node1 -->
<g id="node1" class="node">
<title>Node1</title>
<g id="a_node1"><a xlink:title=" ">
<polygon fill="#999999" stroke="#666666" points="85,-19 8,-19 8,0 85,0 85,-19"/>
<text text-anchor="middle" x="46.5" y="-7" font-family="Helvetica,sans-Serif" font-size="10.00">engine::Scene</text>
</a>
</g>
</g>
<!-- Node2 -->
<g id="node2" class="node">
<title>Node2</title>
<g id="a_node2"><a xlink:title=" ">
<polygon fill="white" stroke="#666666" points="76,-305 17,-305 17,-286 76,-286 76,-305"/>
<text text-anchor="middle" x="46.5" y="-293" font-family="Helvetica,sans-Serif" font-size="10.00">std::string</text>
</a>
</g>
</g>
<!-- Node2&#45;&gt;Node1 -->
<g id="edge1" class="edge">
<title>Node2&#45;&gt;Node1</title>
<path fill="none" stroke="#9a32cd" stroke-dasharray="5,2" d="M39,-275.03C34.84,-262.51 30.5,-245.78 30.5,-230.5 30.5,-230.5 30.5,-230.5 30.5,-80 30.5,-57.71 38.41,-32.41 43.11,-19.35"/>
<polygon fill="#9a32cd" stroke="#9a32cd" points="35.6,-275.91 42.28,-284.14 42.19,-273.54 35.6,-275.91"/>
<text text-anchor="middle" x="46.5" y="-155.5" font-family="Helvetica,sans-Serif" font-size="10.00"> _name</text>
</g>
<!-- Node6 -->
<g id="node6" class="node">
<title>Node6</title>
<g id="a_node6"><a xlink:href="classengine_1_1_base.html" target="_top" xlink:title=" ">
<polygon fill="white" stroke="#bfbfbf" points="152.5,-239 80.5,-239 80.5,-220 152.5,-220 152.5,-239"/>
<text text-anchor="middle" x="116.5" y="-227" font-family="Helvetica,sans-Serif" font-size="10.00">engine::Base</text>
</a>
</g>
</g>
<!-- Node2&#45;&gt;Node6 -->
<g id="edge6" class="edge">
<title>Node2&#45;&gt;Node6</title>
<path fill="none" stroke="#9a32cd" stroke-dasharray="5,2" d="M64.73,-277.83C78.2,-265.52 96.02,-249.23 106.85,-239.32"/>
<polygon fill="#9a32cd" stroke="#9a32cd" points="62.37,-275.25 57.35,-284.58 67.09,-280.42 62.37,-275.25"/>
<text text-anchor="middle" x="117" y="-260" font-family="Helvetica,sans-Serif" font-size="10.00"> _uniqueName</text>
</g>
<!-- Node3 -->
<g id="node3" class="node">
<title>Node3</title>
<g id="a_node3"><a xlink:title=" ">
<polygon fill="white" stroke="#666666" points="93,-372 0,-372 0,-342 93,-342 93,-372"/>
<text text-anchor="start" x="8" y="-360" font-family="Helvetica,sans-Serif" font-size="10.00">std::basic_string&lt;</text>
<text text-anchor="middle" x="46.5" y="-349" font-family="Helvetica,sans-Serif" font-size="10.00"> Char &gt;</text>
</a>
</g>
</g>
<!-- Node3&#45;&gt;Node2 -->
<g id="edge2" class="edge">
<title>Node3&#45;&gt;Node2</title>
<path fill="none" stroke="#63b8ff" d="M46.5,-330.13C46.5,-321.29 46.5,-311.99 46.5,-305.42"/>
<polygon fill="#63b8ff" stroke="#63b8ff" points="43,-330.08 46.5,-340.08 50,-330.08 43,-330.08"/>
</g>
<!-- Node4 -->
<g id="node4" class="node">
<title>Node4</title>
<g id="a_node4"><a xlink:title=" ">
<polygon fill="white" stroke="#666666" points="187,-96 70,-96 70,-66 187,-66 187,-96"/>
<text text-anchor="start" x="78" y="-84" font-family="Helvetica,sans-Serif" font-size="10.00">std::vector&lt; std::shared</text>
<text text-anchor="middle" x="128.5" y="-73" font-family="Helvetica,sans-Serif" font-size="10.00">_ptr&lt; engine::Base &gt; &gt;</text>
</a>
</g>
</g>
<!-- Node4&#45;&gt;Node1 -->
<g id="edge3" class="edge">
<title>Node4&#45;&gt;Node1</title>
<path fill="none" stroke="#9a32cd" stroke-dasharray="5,2" d="M102.82,-58.23C87.24,-45.03 68.21,-28.9 56.74,-19.18"/>
<polygon fill="#9a32cd" stroke="#9a32cd" points="100.46,-60.83 110.35,-64.62 104.99,-55.49 100.46,-60.83"/>
<text text-anchor="middle" x="109.5" y="-40" font-family="Helvetica,sans-Serif" font-size="10.00"> _entities</text>
</g>
<!-- Node5 -->
<g id="node5" class="node">
<title>Node5</title>
<g id="a_node5"><a xlink:title=" ">
<polygon fill="white" stroke="#666666" points="198,-173 81,-173 81,-143 198,-143 198,-173"/>
<text text-anchor="start" x="89" y="-161" font-family="Helvetica,sans-Serif" font-size="10.00">std::shared_ptr&lt; engine</text>
<text text-anchor="middle" x="139.5" y="-150" font-family="Helvetica,sans-Serif" font-size="10.00">::Base &gt;</text>
</a>
</g>
</g>
<!-- Node5&#45;&gt;Node4 -->
<g id="edge4" class="edge">
<title>Node5&#45;&gt;Node4</title>
<path fill="none" stroke="#9a32cd" stroke-dasharray="5,2" d="M135.72,-131.23C134.01,-119.58 132.06,-106.26 130.61,-96.42"/>
<polygon fill="#9a32cd" stroke="#9a32cd" points="132.25,-131.66 137.16,-141.04 139.17,-130.64 132.25,-131.66"/>
<text text-anchor="middle" x="156" y="-117" font-family="Helvetica,sans-Serif" font-size="10.00"> elements</text>
</g>
<!-- Node6&#45;&gt;Node5 -->
<g id="edge5" class="edge">
<title>Node6&#45;&gt;Node5</title>
<path fill="none" stroke="#9a32cd" stroke-dasharray="5,2" d="M122.91,-209.12C126.68,-197.75 131.35,-183.63 134.78,-173.27"/>
<polygon fill="#9a32cd" stroke="#9a32cd" points="119.71,-207.67 119.89,-218.26 126.35,-209.87 119.71,-207.67"/>
<text text-anchor="middle" x="135.5" y="-194" font-family="Helvetica,sans-Serif" font-size="10.00"> ptr</text>
</g>
</g>
</svg>
