<?xml version="1.0" encoding="UTF-8" standalone="no"?>
<!DOCTYPE svg PUBLIC "-//W3C//DTD SVG 1.1//EN"
 "http://www.w3.org/Graphics/SVG/1.1/DTD/svg11.dtd">
<!-- Generated by graphviz version 7.0.5 (20221223.1930)
 -->
<!-- Title: EnemyShooter Pages: 1 -->
<svg width="158pt" height="137pt"
 viewBox="0.00 0.00 158.00 137.00" xmlns="http://www.w3.org/2000/svg" xmlns:xlink="http://www.w3.org/1999/xlink">
<g id="graph0" class="graph" transform="scale(1 1) rotate(0) translate(4 133)">
<title>EnemyShooter</title>
<!-- Node1 -->
<g id="node1" class="node">
<title>Node1</title>
<g id="a_node1"><a xlink:title=" ">
<polygon fill="#999999" stroke="#666666" points="118,-19 38,-19 38,0 118,0 118,-19"/>
<text text-anchor="middle" x="78" y="-7" font-family="Helvetica,sans-Serif" font-size="10.00">EnemyShooter</text>
</a>
</g>
</g>
<!-- Node2 -->
<g id="node2" class="node">
<title>Node2</title>
<g id="a_node2"><a xlink:href="class_enemy.html" target="_top" xlink:title=" ">
<polygon fill="white" stroke="#bfbfbf" points="101,-74 55,-74 55,-55 101,-55 101,-74"/>
<text text-anchor="middle" x="78" y="-62" font-family="Helvetica,sans-Serif" font-size="10.00">Enemy</text>
</a>
</g>
</g>
<!-- Node2&#45;&gt;Node1 -->
<g id="edge1" class="edge">
<title>Node2&#45;&gt;Node1</title>
<path fill="none" stroke="#63b8ff" d="M78,-43.35C78,-35.1 78,-25.97 78,-19.44"/>
<polygon fill="#63b8ff" stroke="#63b8ff" points="74.5,-43.23 78,-53.23 81.5,-43.23 74.5,-43.23"/>
</g>
<!-- Node3 -->
<g id="node3" class="node">
<title>Node3</title>
<g id="a_node3"><a xlink:href="classengine_1_1_base.html" target="_top" xlink:title=" ">
<polygon fill="white" stroke="#bfbfbf" points="72,-129 0,-129 0,-110 72,-110 72,-129"/>
<text text-anchor="middle" x="36" y="-117" font-family="Helvetica,sans-Serif" font-size="10.00">engine::Base</text>
</a>
</g>
</g>
<!-- Node3&#45;&gt;Node2 -->
<g id="edge2" class="edge">
<title>Node3&#45;&gt;Node2</title>
<path fill="none" stroke="#63b8ff" d="M49.92,-100.93C56.96,-92.06 65.19,-81.67 70.91,-74.44"/>
<polygon fill="#63b8ff" stroke="#63b8ff" points="47.34,-98.55 43.88,-108.56 52.83,-102.9 47.34,-98.55"/>
</g>
<!-- Node4 -->
<g id="node4" class="node">
<title>Node4</title>
<g id="a_node4"><a xlink:href="class_damaging.html" target="_top" xlink:title=" ">
<polygon fill="white" stroke="#bfbfbf" points="150,-129 90,-129 90,-110 150,-110 150,-129"/>
<text text-anchor="middle" x="120" y="-117" font-family="Helvetica,sans-Serif" font-size="10.00">Damaging</text>
</a>
</g>
</g>
<!-- Node4&#45;&gt;Node2 -->
<g id="edge3" class="edge">
<title>Node4&#45;&gt;Node2</title>
<path fill="none" stroke="#63b8ff" d="M106.08,-100.93C99.04,-92.06 90.81,-81.67 85.09,-74.44"/>
<polygon fill="#63b8ff" stroke="#63b8ff" points="103.17,-102.9 112.12,-108.56 108.66,-98.55 103.17,-102.9"/>
</g>
</g>
</svg>
