<?xml version="1.0" encoding="UTF-8" standalone="no"?>
<!DOCTYPE svg PUBLIC "-//W3C//DTD SVG 1.1//EN"
 "http://www.w3.org/Graphics/SVG/1.1/DTD/svg11.dtd">
<!-- Generated by graphviz version 7.0.5 (20221223.1930)
 -->
<!-- Title: engine::Manager Pages: 1 -->
<svg width="1364pt" height="435pt"
 viewBox="0.00 0.00 1364.00 435.00" xmlns="http://www.w3.org/2000/svg" xmlns:xlink="http://www.w3.org/1999/xlink">
<g id="graph0" class="graph" transform="scale(1 1) rotate(0) translate(4 431)">
<title>engine::Manager</title>
<!-- Node1 -->
<g id="node1" class="node">
<title>Node1</title>
<g id="a_node1"><a xlink:title=" ">
<polygon fill="#999999" stroke="#666666" points="1356,-217 1269,-217 1269,-198 1356,-198 1356,-217"/>
<text text-anchor="middle" x="1312.5" y="-205" font-family="Helvetica,sans-Serif" font-size="10.00">engine::Manager</text>
</a>
</g>
</g>
<!-- Node2 -->
<g id="node2" class="node">
<title>Node2</title>
<g id="a_node2"><a xlink:title=" ">
<polygon fill="white" stroke="#666666" points="1162.5,-344.5 1045.5,-344.5 1045.5,-314.5 1162.5,-314.5 1162.5,-344.5"/>
<text text-anchor="start" x="1053.5" y="-332.5" font-family="Helvetica,sans-Serif" font-size="10.00">std::shared_ptr&lt; engine</text>
<text text-anchor="middle" x="1104" y="-321.5" font-family="Helvetica,sans-Serif" font-size="10.00">::RenderWindow &gt;</text>
</a>
</g>
</g>
<!-- Node2&#45;&gt;Node1 -->
<g id="edge1" class="edge">
<title>Node2&#45;&gt;Node1</title>
<path fill="none" stroke="#9a32cd" stroke-dasharray="5,2" d="M1158.01,-309.8C1186.66,-298.04 1222.01,-281.66 1251,-262.5 1271.13,-249.19 1291.21,-229.31 1302.42,-217.45"/>
<polygon fill="#9a32cd" stroke="#9a32cd" points="1156.75,-306.54 1148.78,-313.52 1159.37,-313.03 1156.75,-306.54"/>
<text text-anchor="middle" x="1216" y="-302.5" font-family="Helvetica,sans-Serif" font-size="10.00"> window</text>
</g>
<!-- Node3 -->
<g id="node3" class="node">
<title>Node3</title>
<g id="a_node3"><a xlink:href="classengine_1_1_render_window.html" target="_top" xlink:title=" ">
<polygon fill="white" stroke="#bfbfbf" points="993,-391 878,-391 878,-372 993,-372 993,-391"/>
<text text-anchor="middle" x="935.5" y="-379" font-family="Helvetica,sans-Serif" font-size="10.00">engine::RenderWindow</text>
</a>
</g>
</g>
<!-- Node3&#45;&gt;Node2 -->
<g id="edge2" class="edge">
<title>Node3&#45;&gt;Node2</title>
<path fill="none" stroke="#9a32cd" stroke-dasharray="5,2" d="M979.19,-368.17C1001.84,-361.09 1029.79,-352.37 1053.4,-344.99"/>
<polygon fill="#9a32cd" stroke="#9a32cd" points="978.16,-364.82 969.65,-371.15 980.24,-371.51 978.16,-364.82"/>
<text text-anchor="middle" x="1020" y="-359.5" font-family="Helvetica,sans-Serif" font-size="10.00"> ptr</text>
</g>
<!-- Node4 -->
<g id="node4" class="node">
<title>Node4</title>
<g id="a_node4"><a xlink:title=" ">
<polygon fill="white" stroke="#bfbfbf" points="737,-427 642,-427 642,-408 737,-408 737,-427"/>
<text text-anchor="middle" x="689.5" y="-415" font-family="Helvetica,sans-Serif" font-size="10.00">sf::RenderWindow</text>
</a>
</g>
</g>
<!-- Node4&#45;&gt;Node3 -->
<g id="edge3" class="edge">
<title>Node4&#45;&gt;Node3</title>
<path fill="none" stroke="#63b8ff" d="M748.44,-408.95C787.49,-403.19 838.77,-395.62 877.6,-389.89"/>
<polygon fill="#63b8ff" stroke="#63b8ff" points="748.14,-405.46 738.75,-410.38 749.16,-412.38 748.14,-405.46"/>
</g>
<!-- Node5 -->
<g id="node5" class="node">
<title>Node5</title>
<g id="a_node5"><a xlink:title=" ">
<polygon fill="white" stroke="#666666" points="1163,-287.5 1045,-287.5 1045,-257.5 1163,-257.5 1163,-287.5"/>
<text text-anchor="start" x="1053" y="-275.5" font-family="Helvetica,sans-Serif" font-size="10.00">std::shared_ptr&lt; uranus</text>
<text text-anchor="middle" x="1104" y="-264.5" font-family="Helvetica,sans-Serif" font-size="10.00">::ecs::Registry &gt;</text>
</a>
</g>
</g>
<!-- Node5&#45;&gt;Node1 -->
<g id="edge4" class="edge">
<title>Node5&#45;&gt;Node1</title>
<path fill="none" stroke="#9a32cd" stroke-dasharray="5,2" d="M1165.04,-253.6C1202.63,-241.77 1249.56,-227 1280.01,-217.41"/>
<polygon fill="#9a32cd" stroke="#9a32cd" points="1164.13,-250.22 1155.64,-256.56 1166.23,-256.9 1164.13,-250.22"/>
<text text-anchor="middle" x="1216" y="-250.5" font-family="Helvetica,sans-Serif" font-size="10.00"> registry</text>
</g>
<!-- Node6 -->
<g id="node6" class="node">
<title>Node6</title>
<g id="a_node6"><a xlink:href="classuranus_1_1ecs_1_1_registry.html" target="_top" xlink:title="Registry class, used to store and manage entities and their components.">
<polygon fill="white" stroke="#666666" points="988.5,-311 882.5,-311 882.5,-292 988.5,-292 988.5,-311"/>
<text text-anchor="middle" x="935.5" y="-299" font-family="Helvetica,sans-Serif" font-size="10.00">uranus::ecs::Registry</text>
</a>
</g>
</g>
<!-- Node6&#45;&gt;Node5 -->
<g id="edge5" class="edge">
<title>Node6&#45;&gt;Node5</title>
<path fill="none" stroke="#9a32cd" stroke-dasharray="5,2" d="M999.77,-290.48C1014.49,-287.92 1030.09,-285.2 1044.59,-282.67"/>
<polygon fill="#9a32cd" stroke="#9a32cd" points="999.47,-286.98 990.22,-292.14 1000.67,-293.88 999.47,-286.98"/>
<text text-anchor="middle" x="1020" y="-290.5" font-family="Helvetica,sans-Serif" font-size="10.00"> ptr</text>
</g>
<!-- Node7 -->
<g id="node7" class="node">
<title>Node7</title>
<g id="a_node7"><a xlink:title=" ">
<polygon fill="white" stroke="#666666" points="743,-390 636,-390 636,-349 743,-349 743,-390"/>
<text text-anchor="start" x="644" y="-378" font-family="Helvetica,sans-Serif" font-size="10.00">std::unordered_map</text>
<text text-anchor="start" x="644" y="-367" font-family="Helvetica,sans-Serif" font-size="10.00">&lt; std::type_index, std</text>
<text text-anchor="middle" x="689.5" y="-356" font-family="Helvetica,sans-Serif" font-size="10.00">::any &gt;</text>
</a>
</g>
</g>
<!-- Node7&#45;&gt;Node6 -->
<g id="edge6" class="edge">
<title>Node7&#45;&gt;Node6</title>
<path fill="none" stroke="#9a32cd" stroke-dasharray="5,2" d="M754.51,-351.66C800.5,-338.84 860.82,-322.03 898.62,-311.5"/>
<polygon fill="#9a32cd" stroke="#9a32cd" points="753.6,-348.28 744.9,-354.34 755.47,-355.03 753.6,-348.28"/>
<text text-anchor="middle" x="813.5" y="-350.5" font-family="Helvetica,sans-Serif" font-size="10.00"> _componentsArrays</text>
</g>
<!-- Node8 -->
<g id="node8" class="node">
<title>Node8</title>
<g id="a_node8"><a xlink:title=" ">
<polygon fill="white" stroke="#666666" points="743,-330.5 636,-330.5 636,-278.5 743,-278.5 743,-330.5"/>
<text text-anchor="start" x="644" y="-318.5" font-family="Helvetica,sans-Serif" font-size="10.00">std::unordered_map</text>
<text text-anchor="start" x="644" y="-307.5" font-family="Helvetica,sans-Serif" font-size="10.00">&lt; std::type_index, std</text>
<text text-anchor="start" x="644" y="-296.5" font-family="Helvetica,sans-Serif" font-size="10.00">::function&lt; void(size</text>
<text text-anchor="middle" x="689.5" y="-285.5" font-family="Helvetica,sans-Serif" font-size="10.00">_t const &amp;)&gt; &gt;</text>
</a>
</g>
</g>
<!-- Node8&#45;&gt;Node6 -->
<g id="edge7" class="edge">
<title>Node8&#45;&gt;Node6</title>
<path fill="none" stroke="#9a32cd" stroke-dasharray="5,2" d="M754.87,-303.71C794.56,-303.22 844.82,-302.6 882.08,-302.14"/>
<polygon fill="#9a32cd" stroke="#9a32cd" points="754.91,-300.21 744.96,-303.83 755,-307.21 754.91,-300.21"/>
<text text-anchor="middle" x="813.5" y="-306.5" font-family="Helvetica,sans-Serif" font-size="10.00"> _destroyArrays</text>
</g>
<!-- Node9 -->
<g id="node9" class="node">
<title>Node9</title>
<g id="a_node9"><a xlink:title=" ">
<polygon fill="white" stroke="#666666" points="734,-260 645,-260 645,-241 734,-241 734,-260"/>
<text text-anchor="middle" x="689.5" y="-248" font-family="Helvetica,sans-Serif" font-size="10.00">std::list&lt; size_t &gt;</text>
</a>
</g>
</g>
<!-- Node9&#45;&gt;Node6 -->
<g id="edge8" class="edge">
<title>Node9&#45;&gt;Node6</title>
<path fill="none" stroke="#9a32cd" stroke-dasharray="5,2" d="M745.67,-262.03C788.16,-270.91 846.28,-283.06 886.78,-291.53"/>
<polygon fill="#9a32cd" stroke="#9a32cd" points="746.39,-258.61 735.89,-259.99 744.96,-265.46 746.39,-258.61"/>
<text text-anchor="middle" x="813.5" y="-287.5" font-family="Helvetica,sans-Serif" font-size="10.00"> _freeIds</text>
</g>
<!-- Node10 -->
<g id="node10" class="node">
<title>Node10</title>
<g id="a_node10"><a xlink:title=" ">
<polygon fill="white" stroke="#666666" points="1162.5,-173.5 1045.5,-173.5 1045.5,-143.5 1162.5,-143.5 1162.5,-173.5"/>
<text text-anchor="start" x="1053.5" y="-161.5" font-family="Helvetica,sans-Serif" font-size="10.00">std::shared_ptr&lt; engine</text>
<text text-anchor="middle" x="1104" y="-150.5" font-family="Helvetica,sans-Serif" font-size="10.00">::SceneManager &gt;</text>
</a>
</g>
</g>
<!-- Node10&#45;&gt;Node1 -->
<g id="edge9" class="edge">
<title>Node10&#45;&gt;Node1</title>
<path fill="none" stroke="#9a32cd" stroke-dasharray="5,2" d="M1173.9,-174.33C1198.28,-179.99 1225.87,-186.46 1251,-192.5 1257.73,-194.12 1264.88,-195.87 1271.82,-197.58"/>
<polygon fill="#9a32cd" stroke="#9a32cd" points="1174.96,-170.99 1164.42,-172.14 1173.38,-177.8 1174.96,-170.99"/>
<text text-anchor="middle" x="1216" y="-195.5" font-family="Helvetica,sans-Serif" font-size="10.00"> sceneManager</text>
</g>
<!-- Node11 -->
<g id="node11" class="node">
<title>Node11</title>
<g id="a_node11"><a xlink:href="classengine_1_1_scene_manager.html" target="_top" xlink:title=" ">
<polygon fill="white" stroke="#bfbfbf" points="993,-152 878,-152 878,-133 993,-133 993,-152"/>
<text text-anchor="middle" x="935.5" y="-140" font-family="Helvetica,sans-Serif" font-size="10.00">engine::SceneManager</text>
</a>
</g>
</g>
<!-- Node11&#45;&gt;Node10 -->
<g id="edge10" class="edge">
<title>Node11&#45;&gt;Node10</title>
<path fill="none" stroke="#9a32cd" stroke-dasharray="5,2" d="M1004.47,-149.03C1017.92,-150.32 1031.92,-151.67 1045.01,-152.93"/>
<polygon fill="#9a32cd" stroke="#9a32cd" points="1005.13,-145.58 994.84,-148.11 1004.46,-152.55 1005.13,-145.58"/>
<text text-anchor="middle" x="1020" y="-153.5" font-family="Helvetica,sans-Serif" font-size="10.00"> ptr</text>
</g>
<!-- Node12 -->
<g id="node12" class="node">
<title>Node12</title>
<g id="a_node12"><a xlink:title=" ">
<polygon fill="white" stroke="#666666" points="190.5,-121 131.5,-121 131.5,-102 190.5,-102 190.5,-121"/>
<text text-anchor="middle" x="161" y="-109" font-family="Helvetica,sans-Serif" font-size="10.00">std::string</text>
</a>
</g>
</g>
<!-- Node12&#45;&gt;Node11 -->
<g id="edge11" class="edge">
<title>Node12&#45;&gt;Node11</title>
<path fill="none" stroke="#9a32cd" stroke-dasharray="5,2" d="M190.92,-126.49C223.91,-142.16 279.89,-164.5 331,-164.5 331,-164.5 331,-164.5 690.5,-164.5 754.94,-164.5 828.56,-156.8 877.93,-150.5"/>
<polygon fill="#9a32cd" stroke="#9a32cd" points="192.54,-123.38 182.02,-122.13 189.47,-129.67 192.54,-123.38"/>
<text text-anchor="middle" x="490.5" y="-167.5" font-family="Helvetica,sans-Serif" font-size="10.00"> _sceneToSwitch</text>
</g>
<!-- Node15 -->
<g id="node15" class="node">
<title>Node15</title>
<g id="a_node15"><a xlink:href="classengine_1_1_scene.html" target="_top" xlink:title=" ">
<polygon fill="white" stroke="#bfbfbf" points="370.5,-121 293.5,-121 293.5,-102 370.5,-102 370.5,-121"/>
<text text-anchor="middle" x="332" y="-109" font-family="Helvetica,sans-Serif" font-size="10.00">engine::Scene</text>
</a>
</g>
</g>
<!-- Node12&#45;&gt;Node15 -->
<g id="edge15" class="edge">
<title>Node12&#45;&gt;Node15</title>
<path fill="none" stroke="#9a32cd" stroke-dasharray="5,2" d="M201.92,-111.5C229.56,-111.5 266.12,-111.5 293.28,-111.5"/>
<polygon fill="#9a32cd" stroke="#9a32cd" points="202.18,-108 192.18,-111.5 202.18,-115 202.18,-108"/>
<text text-anchor="middle" x="241.5" y="-114.5" font-family="Helvetica,sans-Serif" font-size="10.00"> _name</text>
</g>
<!-- Node21 -->
<g id="node21" class="node">
<title>Node21</title>
<g id="a_node21"><a xlink:href="classengine_1_1_texture.html" target="_top" xlink:title=" ">
<polygon fill="white" stroke="#bfbfbf" points="373,-218 291,-218 291,-199 373,-199 373,-218"/>
<text text-anchor="middle" x="332" y="-206" font-family="Helvetica,sans-Serif" font-size="10.00">engine::Texture</text>
</a>
</g>
</g>
<!-- Node12&#45;&gt;Node21 -->
<g id="edge24" class="edge">
<title>Node12&#45;&gt;Node21</title>
<path fill="none" stroke="#9a32cd" stroke-dasharray="5,2" d="M172.12,-131.25C180.44,-145.56 193.52,-164.3 210,-175.5 223.19,-184.46 260.91,-193.97 290.77,-200.47"/>
<polygon fill="#9a32cd" stroke="#9a32cd" points="175.31,-129.78 167.44,-122.69 169.17,-133.14 175.31,-129.78"/>
<text text-anchor="middle" x="241.5" y="-198.5" font-family="Helvetica,sans-Serif" font-size="10.00"> _name</text>
</g>
<!-- Node25 -->
<g id="node25" class="node">
<title>Node25</title>
<g id="a_node25"><a xlink:title=" ">
<polygon fill="white" stroke="#666666" points="749,-41 630,-41 630,0 749,0 749,-41"/>
<text text-anchor="start" x="638" y="-29" font-family="Helvetica,sans-Serif" font-size="10.00">std::map&lt; std::string,</text>
<text text-anchor="start" x="638" y="-18" font-family="Helvetica,sans-Serif" font-size="10.00"> std::shared_ptr&lt; engine</text>
<text text-anchor="middle" x="689.5" y="-7" font-family="Helvetica,sans-Serif" font-size="10.00">::Base &gt; &gt;</text>
</a>
</g>
</g>
<!-- Node12&#45;&gt;Node25 -->
<g id="edge28" class="edge">
<title>Node12&#45;&gt;Node25</title>
<path fill="none" stroke="#9a32cd" stroke-dasharray="5,2" d="M202.2,-105.54C280.77,-93.75 460.11,-66.09 610,-37.5 616.44,-36.27 623.16,-34.92 629.84,-33.54"/>
<polygon fill="#9a32cd" stroke="#9a32cd" points="201.78,-102.07 192.41,-107.01 202.82,-108.99 201.78,-102.07"/>
<text text-anchor="middle" x="402.5" y="-78.5" font-family="Helvetica,sans-Serif" font-size="10.00"> keys</text>
</g>
<!-- Node27 -->
<g id="node27" class="node">
<title>Node27</title>
<g id="a_node27"><a xlink:href="classengine_1_1_base.html" target="_top" xlink:title=" ">
<polygon fill="white" stroke="#bfbfbf" points="368,-35 296,-35 296,-16 368,-16 368,-35"/>
<text text-anchor="middle" x="332" y="-23" font-family="Helvetica,sans-Serif" font-size="10.00">engine::Base</text>
</a>
</g>
</g>
<!-- Node12&#45;&gt;Node27 -->
<g id="edge31" class="edge">
<title>Node12&#45;&gt;Node27</title>
<path fill="none" stroke="#9a32cd" stroke-dasharray="5,2" d="M169.91,-91.43C177.56,-74.87 190.83,-52.25 210,-40.5 235.63,-24.79 270.05,-21.9 295.63,-22.43"/>
<polygon fill="#9a32cd" stroke="#9a32cd" points="166.82,-89.76 166.11,-100.33 173.26,-92.51 166.82,-89.76"/>
<text text-anchor="middle" x="241.5" y="-43.5" font-family="Helvetica,sans-Serif" font-size="10.00"> _uniqueName</text>
</g>
<!-- Node13 -->
<g id="node13" class="node">
<title>Node13</title>
<g id="a_node13"><a xlink:title=" ">
<polygon fill="white" stroke="#666666" points="93,-126.5 0,-126.5 0,-96.5 93,-96.5 93,-126.5"/>
<text text-anchor="start" x="8" y="-114.5" font-family="Helvetica,sans-Serif" font-size="10.00">std::basic_string&lt;</text>
<text text-anchor="middle" x="46.5" y="-103.5" font-family="Helvetica,sans-Serif" font-size="10.00"> Char &gt;</text>
</a>
</g>
</g>
<!-- Node13&#45;&gt;Node12 -->
<g id="edge12" class="edge">
<title>Node13&#45;&gt;Node12</title>
<path fill="none" stroke="#63b8ff" d="M104.76,-111.5C113.88,-111.5 122.97,-111.5 131.06,-111.5"/>
<polygon fill="#63b8ff" stroke="#63b8ff" points="104.77,-108 94.77,-111.5 104.77,-115 104.77,-108"/>
</g>
<!-- Node14 -->
<g id="node14" class="node">
<title>Node14</title>
<g id="a_node14"><a xlink:title=" ">
<polygon fill="white" stroke="#666666" points="549,-126.5 432,-126.5 432,-96.5 549,-96.5 549,-126.5"/>
<text text-anchor="start" x="440" y="-114.5" font-family="Helvetica,sans-Serif" font-size="10.00">std::shared_ptr&lt; engine</text>
<text text-anchor="middle" x="490.5" y="-103.5" font-family="Helvetica,sans-Serif" font-size="10.00">::Scene &gt;</text>
</a>
</g>
</g>
<!-- Node14&#45;&gt;Node11 -->
<g id="edge13" class="edge">
<title>Node14&#45;&gt;Node11</title>
<path fill="none" stroke="#9a32cd" stroke-dasharray="5,2" d="M560.8,-116.35C648.13,-122.46 796.61,-132.85 877.62,-138.52"/>
<polygon fill="#9a32cd" stroke="#9a32cd" points="561.14,-112.87 550.92,-115.66 560.66,-119.85 561.14,-112.87"/>
<text text-anchor="middle" x="689.5" y="-133.5" font-family="Helvetica,sans-Serif" font-size="10.00"> _actualScene</text>
</g>
<!-- Node16 -->
<g id="node16" class="node">
<title>Node16</title>
<g id="a_node16"><a xlink:title=" ">
<polygon fill="white" stroke="#666666" points="749,-89.5 630,-89.5 630,-59.5 749,-59.5 749,-89.5"/>
<text text-anchor="start" x="638" y="-77.5" font-family="Helvetica,sans-Serif" font-size="10.00">std::vector&lt; std::shared</text>
<text text-anchor="middle" x="689.5" y="-66.5" font-family="Helvetica,sans-Serif" font-size="10.00">_ptr&lt; engine::Scene &gt; &gt;</text>
</a>
</g>
</g>
<!-- Node14&#45;&gt;Node16 -->
<g id="edge17" class="edge">
<title>Node14&#45;&gt;Node16</title>
<path fill="none" stroke="#9a32cd" stroke-dasharray="5,2" d="M560.5,-98.54C583.08,-94.3 607.94,-89.63 629.7,-85.54"/>
<polygon fill="#9a32cd" stroke="#9a32cd" points="559.95,-95.08 550.76,-100.37 561.24,-101.96 559.95,-95.08"/>
<text text-anchor="middle" x="588.5" y="-99.5" font-family="Helvetica,sans-Serif" font-size="10.00"> elements</text>
</g>
<!-- Node15&#45;&gt;Node14 -->
<g id="edge14" class="edge">
<title>Node15&#45;&gt;Node14</title>
<path fill="none" stroke="#9a32cd" stroke-dasharray="5,2" d="M382.01,-111.5C397.8,-111.5 415.45,-111.5 431.8,-111.5"/>
<polygon fill="#9a32cd" stroke="#9a32cd" points="382.4,-108 372.4,-111.5 382.4,-115 382.4,-108"/>
<text text-anchor="middle" x="402.5" y="-114.5" font-family="Helvetica,sans-Serif" font-size="10.00"> ptr</text>
</g>
<!-- Node16&#45;&gt;Node11 -->
<g id="edge16" class="edge">
<title>Node16&#45;&gt;Node11</title>
<path fill="none" stroke="#9a32cd" stroke-dasharray="5,2" d="M760.84,-79.92C791.3,-83.66 827,-89.95 858,-100.5 870.12,-104.62 899.58,-121.61 918.2,-132.67"/>
<polygon fill="#9a32cd" stroke="#9a32cd" points="761.29,-76.44 750.95,-78.78 760.48,-83.4 761.29,-76.44"/>
<text text-anchor="middle" x="813.5" y="-103.5" font-family="Helvetica,sans-Serif" font-size="10.00"> _scenes</text>
</g>
<!-- Node17 -->
<g id="node17" class="node">
<title>Node17</title>
<g id="a_node17"><a xlink:title=" ">
<polygon fill="white" stroke="#666666" points="1162.5,-222.5 1045.5,-222.5 1045.5,-192.5 1162.5,-192.5 1162.5,-222.5"/>
<text text-anchor="start" x="1053.5" y="-210.5" font-family="Helvetica,sans-Serif" font-size="10.00">std::shared_ptr&lt; engine</text>
<text text-anchor="middle" x="1104" y="-199.5" font-family="Helvetica,sans-Serif" font-size="10.00">::TextureManager &gt;</text>
</a>
</g>
</g>
<!-- Node17&#45;&gt;Node1 -->
<g id="edge18" class="edge">
<title>Node17&#45;&gt;Node1</title>
<path fill="none" stroke="#9a32cd" stroke-dasharray="5,2" d="M1174.1,-207.5C1205.43,-207.5 1241.49,-207.5 1268.81,-207.5"/>
<polygon fill="#9a32cd" stroke="#9a32cd" points="1174.31,-204 1164.31,-207.5 1174.31,-211 1174.31,-204"/>
<text text-anchor="middle" x="1216" y="-210.5" font-family="Helvetica,sans-Serif" font-size="10.00"> textureManager</text>
</g>
<!-- Node18 -->
<g id="node18" class="node">
<title>Node18</title>
<g id="a_node18"><a xlink:href="classengine_1_1_texture_manager.html" target="_top" xlink:title=" ">
<polygon fill="white" stroke="#bfbfbf" points="995,-217 876,-217 876,-198 995,-198 995,-217"/>
<text text-anchor="middle" x="935.5" y="-205" font-family="Helvetica,sans-Serif" font-size="10.00">engine::TextureManager</text>
</a>
</g>
</g>
<!-- Node18&#45;&gt;Node17 -->
<g id="edge19" class="edge">
<title>Node18&#45;&gt;Node17</title>
<path fill="none" stroke="#9a32cd" stroke-dasharray="5,2" d="M1006.39,-207.5C1019.28,-207.5 1032.62,-207.5 1045.11,-207.5"/>
<polygon fill="#9a32cd" stroke="#9a32cd" points="1006.72,-204 996.72,-207.5 1006.72,-211 1006.72,-204"/>
<text text-anchor="middle" x="1020" y="-210.5" font-family="Helvetica,sans-Serif" font-size="10.00"> ptr</text>
</g>
<!-- Node19 -->
<g id="node19" class="node">
<title>Node19</title>
<g id="a_node19"><a xlink:title=" ">
<polygon fill="white" stroke="#666666" points="751,-222.5 628,-222.5 628,-192.5 751,-192.5 751,-222.5"/>
<text text-anchor="start" x="636" y="-210.5" font-family="Helvetica,sans-Serif" font-size="10.00">std::vector&lt; std::shared</text>
<text text-anchor="middle" x="689.5" y="-199.5" font-family="Helvetica,sans-Serif" font-size="10.00">_ptr&lt; engine::Texture &gt; &gt;</text>
</a>
</g>
</g>
<!-- Node19&#45;&gt;Node18 -->
<g id="edge20" class="edge">
<title>Node19&#45;&gt;Node18</title>
<path fill="none" stroke="#9a32cd" stroke-dasharray="5,2" d="M762.85,-207.5C798.8,-207.5 841.68,-207.5 875.6,-207.5"/>
<polygon fill="#9a32cd" stroke="#9a32cd" points="762.96,-204 752.96,-207.5 762.96,-211 762.96,-204"/>
<text text-anchor="middle" x="813.5" y="-210.5" font-family="Helvetica,sans-Serif" font-size="10.00"> _textures</text>
</g>
<!-- Node20 -->
<g id="node20" class="node">
<title>Node20</title>
<g id="a_node20"><a xlink:title=" ">
<polygon fill="white" stroke="#666666" points="549,-223.5 432,-223.5 432,-193.5 549,-193.5 549,-223.5"/>
<text text-anchor="start" x="440" y="-211.5" font-family="Helvetica,sans-Serif" font-size="10.00">std::shared_ptr&lt; engine</text>
<text text-anchor="middle" x="490.5" y="-200.5" font-family="Helvetica,sans-Serif" font-size="10.00">::Texture &gt;</text>
</a>
</g>
</g>
<!-- Node20&#45;&gt;Node19 -->
<g id="edge21" class="edge">
<title>Node20&#45;&gt;Node19</title>
<path fill="none" stroke="#9a32cd" stroke-dasharray="5,2" d="M560.49,-208.15C582.37,-208.04 606.38,-207.92 627.64,-207.81"/>
<polygon fill="#9a32cd" stroke="#9a32cd" points="560.77,-204.65 550.79,-208.2 560.81,-211.65 560.77,-204.65"/>
<text text-anchor="middle" x="588.5" y="-210.5" font-family="Helvetica,sans-Serif" font-size="10.00"> elements</text>
</g>
<!-- Node21&#45;&gt;Node20 -->
<g id="edge22" class="edge">
<title>Node21&#45;&gt;Node20</title>
<path fill="none" stroke="#9a32cd" stroke-dasharray="5,2" d="M384.5,-208.5C399.59,-208.5 416.18,-208.5 431.64,-208.5"/>
<polygon fill="#9a32cd" stroke="#9a32cd" points="384.82,-205 374.82,-208.5 384.82,-212 384.82,-205"/>
<text text-anchor="middle" x="402.5" y="-211.5" font-family="Helvetica,sans-Serif" font-size="10.00"> ptr</text>
</g>
<!-- Node22 -->
<g id="node22" class="node">
<title>Node22</title>
<g id="a_node22"><a xlink:title=" ">
<polygon fill="white" stroke="#bfbfbf" points="192,-233 130,-233 130,-214 192,-214 192,-233"/>
<text text-anchor="middle" x="161" y="-221" font-family="Helvetica,sans-Serif" font-size="10.00">sf::Texture</text>
</a>
</g>
</g>
<!-- Node22&#45;&gt;Node21 -->
<g id="edge23" class="edge">
<title>Node22&#45;&gt;Node21</title>
<path fill="none" stroke="#63b8ff" d="M203.43,-219.82C229.97,-217.47 264.23,-214.43 290.57,-212.09"/>
<polygon fill="#63b8ff" stroke="#63b8ff" points="203.37,-216.31 193.72,-220.68 203.99,-223.29 203.37,-216.31"/>
</g>
<!-- Node23 -->
<g id="node23" class="node">
<title>Node23</title>
<g id="a_node23"><a xlink:title=" ">
<polygon fill="white" stroke="#666666" points="1162.5,-122.5 1045.5,-122.5 1045.5,-92.5 1162.5,-92.5 1162.5,-122.5"/>
<text text-anchor="start" x="1053.5" y="-110.5" font-family="Helvetica,sans-Serif" font-size="10.00">std::shared_ptr&lt; engine</text>
<text text-anchor="middle" x="1104" y="-99.5" font-family="Helvetica,sans-Serif" font-size="10.00">::EntityManager &gt;</text>
</a>
</g>
</g>
<!-- Node23&#45;&gt;Node1 -->
<g id="edge25" class="edge">
<title>Node23&#45;&gt;Node1</title>
<path fill="none" stroke="#9a32cd" stroke-dasharray="5,2" d="M1170.63,-126.46C1196.47,-135.16 1225.9,-146.65 1251,-160.5 1270.1,-171.04 1289.56,-187.36 1301.07,-197.74"/>
<polygon fill="#9a32cd" stroke="#9a32cd" points="1171.83,-123.17 1161.24,-123.38 1169.65,-129.82 1171.83,-123.17"/>
<text text-anchor="middle" x="1216" y="-163.5" font-family="Helvetica,sans-Serif" font-size="10.00"> entityManager</text>
</g>
<!-- Node24 -->
<g id="node24" class="node">
<title>Node24</title>
<g id="a_node24"><a xlink:href="classengine_1_1_entity_manager.html" target="_top" xlink:title=" ">
<polygon fill="white" stroke="#bfbfbf" points="991,-100 880,-100 880,-81 991,-81 991,-100"/>
<text text-anchor="middle" x="935.5" y="-88" font-family="Helvetica,sans-Serif" font-size="10.00">engine::EntityManager</text>
</a>
</g>
</g>
<!-- Node24&#45;&gt;Node23 -->
<g id="edge26" class="edge">
<title>Node24&#45;&gt;Node23</title>
<path fill="none" stroke="#9a32cd" stroke-dasharray="5,2" d="M1002.6,-97.25C1016.69,-98.69 1031.47,-100.2 1045.22,-101.6"/>
<polygon fill="#9a32cd" stroke="#9a32cd" points="1003.29,-93.8 992.99,-96.27 1002.58,-100.77 1003.29,-93.8"/>
<text text-anchor="middle" x="1020" y="-103.5" font-family="Helvetica,sans-Serif" font-size="10.00"> ptr</text>
</g>
<!-- Node25&#45;&gt;Node24 -->
<g id="edge27" class="edge">
<title>Node25&#45;&gt;Node24</title>
<path fill="none" stroke="#9a32cd" stroke-dasharray="5,2" d="M760.02,-38.99C790.21,-47.17 825.92,-57.07 858,-66.5 873.09,-70.94 889.76,-76.13 903.68,-80.55"/>
<polygon fill="#9a32cd" stroke="#9a32cd" points="761.2,-35.68 750.63,-36.45 759.37,-42.44 761.2,-35.68"/>
<text text-anchor="middle" x="813.5" y="-69.5" font-family="Helvetica,sans-Serif" font-size="10.00"> _prefabs</text>
</g>
<!-- Node26 -->
<g id="node26" class="node">
<title>Node26</title>
<g id="a_node26"><a xlink:title=" ">
<polygon fill="white" stroke="#666666" points="549,-37.5 432,-37.5 432,-7.5 549,-7.5 549,-37.5"/>
<text text-anchor="start" x="440" y="-25.5" font-family="Helvetica,sans-Serif" font-size="10.00">std::shared_ptr&lt; engine</text>
<text text-anchor="middle" x="490.5" y="-14.5" font-family="Helvetica,sans-Serif" font-size="10.00">::Base &gt;</text>
</a>
</g>
</g>
<!-- Node26&#45;&gt;Node25 -->
<g id="edge29" class="edge">
<title>Node26&#45;&gt;Node25</title>
<path fill="none" stroke="#9a32cd" stroke-dasharray="5,2" d="M560.5,-21.8C583.08,-21.57 607.94,-21.32 629.7,-21.1"/>
<polygon fill="#9a32cd" stroke="#9a32cd" points="560.75,-18.3 550.79,-21.9 560.82,-25.3 560.75,-18.3"/>
<text text-anchor="middle" x="588.5" y="-25.5" font-family="Helvetica,sans-Serif" font-size="10.00"> elements</text>
</g>
<!-- Node27&#45;&gt;Node26 -->
<g id="edge30" class="edge">
<title>Node27&#45;&gt;Node26</title>
<path fill="none" stroke="#9a32cd" stroke-dasharray="5,2" d="M379.6,-24.61C395.98,-24.29 414.58,-23.94 431.77,-23.61"/>
<polygon fill="#9a32cd" stroke="#9a32cd" points="379.57,-21.11 369.63,-24.8 379.7,-28.11 379.57,-21.11"/>
<text text-anchor="middle" x="402.5" y="-27.5" font-family="Helvetica,sans-Serif" font-size="10.00"> ptr</text>
</g>
</g>
</svg>
