<?xml version="1.0" encoding="UTF-8" standalone="no"?>
<!DOCTYPE svg PUBLIC "-//W3C//DTD SVG 1.1//EN"
 "http://www.w3.org/Graphics/SVG/1.1/DTD/svg11.dtd">
<!-- Generated by graphviz version 7.0.5 (20221223.1930)
 -->
<!-- Title: engine::SceneManager Pages: 1 -->
<svg width="898pt" height="124pt"
 viewBox="0.00 0.00 898.00 124.00" xmlns="http://www.w3.org/2000/svg" xmlns:xlink="http://www.w3.org/1999/xlink">
<g id="graph0" class="graph" transform="scale(1 1) rotate(0) translate(4 120)">
<title>engine::SceneManager</title>
<!-- Node1 -->
<g id="node1" class="node">
<title>Node1</title>
<g id="a_node1"><a xlink:title=" ">
<polygon fill="#999999" stroke="#666666" points="890,-75.5 775,-75.5 775,-56.5 890,-56.5 890,-75.5"/>
<text text-anchor="middle" x="832.5" y="-63.5" font-family="Helvetica,sans-Serif" font-size="10.00">engine::SceneManager</text>
</a>
</g>
</g>
<!-- Node2 -->
<g id="node2" class="node">
<title>Node2</title>
<g id="a_node2"><a xlink:title=" ">
<polygon fill="white" stroke="#666666" points="189,-94.5 130,-94.5 130,-75.5 189,-75.5 189,-94.5"/>
<text text-anchor="middle" x="159.5" y="-82.5" font-family="Helvetica,sans-Serif" font-size="10.00">std::string</text>
</a>
</g>
</g>
<!-- Node2&#45;&gt;Node1 -->
<g id="edge1" class="edge">
<title>Node2&#45;&gt;Node1</title>
<path fill="none" stroke="#9a32cd" stroke-dasharray="5,2" d="M200.46,-94.13C226.98,-99.4 262.64,-105 294.5,-105 294.5,-105 294.5,-105 640.5,-105 698.54,-105 764.54,-87.5 801.78,-75.94"/>
<polygon fill="#9a32cd" stroke="#9a32cd" points="201.31,-90.73 190.81,-92.13 199.9,-97.58 201.31,-90.73"/>
<text text-anchor="middle" x="442.5" y="-108" font-family="Helvetica,sans-Serif" font-size="10.00"> _sceneToSwitch</text>
</g>
<!-- Node5 -->
<g id="node5" class="node">
<title>Node5</title>
<g id="a_node5"><a xlink:href="classengine_1_1_scene.html" target="_top" xlink:title=" ">
<polygon fill="white" stroke="#bfbfbf" points="334,-73.5 257,-73.5 257,-54.5 334,-54.5 334,-73.5"/>
<text text-anchor="middle" x="295.5" y="-61.5" font-family="Helvetica,sans-Serif" font-size="10.00">engine::Scene</text>
</a>
</g>
</g>
<!-- Node2&#45;&gt;Node5 -->
<g id="edge5" class="edge">
<title>Node2&#45;&gt;Node5</title>
<path fill="none" stroke="#9a32cd" stroke-dasharray="5,2" d="M200.43,-78.74C218.23,-75.95 239.09,-72.68 256.64,-69.93"/>
<polygon fill="#9a32cd" stroke="#9a32cd" points="200.08,-75.25 190.74,-80.26 201.16,-82.17 200.08,-75.25"/>
<text text-anchor="middle" x="223" y="-81" font-family="Helvetica,sans-Serif" font-size="10.00"> _name</text>
</g>
<!-- Node3 -->
<g id="node3" class="node">
<title>Node3</title>
<g id="a_node3"><a xlink:title=" ">
<polygon fill="white" stroke="#666666" points="93,-100 0,-100 0,-70 93,-70 93,-100"/>
<text text-anchor="start" x="8" y="-88" font-family="Helvetica,sans-Serif" font-size="10.00">std::basic_string&lt;</text>
<text text-anchor="middle" x="46.5" y="-77" font-family="Helvetica,sans-Serif" font-size="10.00"> Char &gt;</text>
</a>
</g>
</g>
<!-- Node3&#45;&gt;Node2 -->
<g id="edge2" class="edge">
<title>Node3&#45;&gt;Node2</title>
<path fill="none" stroke="#63b8ff" d="M104.65,-85C113.31,-85 121.93,-85 129.65,-85"/>
<polygon fill="#63b8ff" stroke="#63b8ff" points="104.8,-81.5 94.8,-85 104.8,-88.5 104.8,-81.5"/>
</g>
<!-- Node4 -->
<g id="node4" class="node">
<title>Node4</title>
<g id="a_node4"><a xlink:title=" ">
<polygon fill="white" stroke="#666666" points="501,-69 384,-69 384,-39 501,-39 501,-69"/>
<text text-anchor="start" x="392" y="-57" font-family="Helvetica,sans-Serif" font-size="10.00">std::shared_ptr&lt; engine</text>
<text text-anchor="middle" x="442.5" y="-46" font-family="Helvetica,sans-Serif" font-size="10.00">::Scene &gt;</text>
</a>
</g>
</g>
<!-- Node4&#45;&gt;Node1 -->
<g id="edge3" class="edge">
<title>Node4&#45;&gt;Node1</title>
<path fill="none" stroke="#9a32cd" stroke-dasharray="5,2" d="M512.33,-56.13C587.09,-58.44 705.14,-62.09 774.78,-64.25"/>
<polygon fill="#9a32cd" stroke="#9a32cd" points="512.78,-52.64 502.68,-55.83 512.57,-59.64 512.78,-52.64"/>
<text text-anchor="middle" x="639.5" y="-65" font-family="Helvetica,sans-Serif" font-size="10.00"> _actualScene</text>
</g>
<!-- Node6 -->
<g id="node6" class="node">
<title>Node6</title>
<g id="a_node6"><a xlink:title=" ">
<polygon fill="white" stroke="#666666" points="699,-30 580,-30 580,0 699,0 699,-30"/>
<text text-anchor="start" x="588" y="-18" font-family="Helvetica,sans-Serif" font-size="10.00">std::vector&lt; std::shared</text>
<text text-anchor="middle" x="639.5" y="-7" font-family="Helvetica,sans-Serif" font-size="10.00">_ptr&lt; engine::Scene &gt; &gt;</text>
</a>
</g>
</g>
<!-- Node4&#45;&gt;Node6 -->
<g id="edge7" class="edge">
<title>Node4&#45;&gt;Node6</title>
<path fill="none" stroke="#9a32cd" stroke-dasharray="5,2" d="M512.72,-40.16C534.63,-35.77 558.63,-30.97 579.73,-26.75"/>
<polygon fill="#9a32cd" stroke="#9a32cd" points="512.08,-36.71 502.96,-42.11 513.45,-43.58 512.08,-36.71"/>
<text text-anchor="middle" x="540.5" y="-41" font-family="Helvetica,sans-Serif" font-size="10.00"> elements</text>
</g>
<!-- Node5&#45;&gt;Node4 -->
<g id="edge4" class="edge">
<title>Node5&#45;&gt;Node4</title>
<path fill="none" stroke="#9a32cd" stroke-dasharray="5,2" d="M345.6,-60.61C357.85,-59.77 371.1,-58.86 383.73,-57.98"/>
<polygon fill="#9a32cd" stroke="#9a32cd" points="345.46,-57.11 335.73,-61.29 345.95,-64.1 345.46,-57.11"/>
<text text-anchor="middle" x="359" y="-63" font-family="Helvetica,sans-Serif" font-size="10.00"> ptr</text>
</g>
<!-- Node6&#45;&gt;Node1 -->
<g id="edge6" class="edge">
<title>Node6&#45;&gt;Node1</title>
<path fill="none" stroke="#9a32cd" stroke-dasharray="5,2" d="M710.51,-29.38C725.9,-32.89 742.06,-36.84 757,-41 772.77,-45.39 790.13,-51.16 804.12,-56.05"/>
<polygon fill="#9a32cd" stroke="#9a32cd" points="711.47,-26.01 700.94,-27.24 709.94,-32.84 711.47,-26.01"/>
<text text-anchor="middle" x="737" y="-44" font-family="Helvetica,sans-Serif" font-size="10.00"> _scenes</text>
</g>
</g>
</svg>
