<?xml version="1.0" encoding="UTF-8" standalone="no"?>
<!DOCTYPE svg PUBLIC "-//W3C//DTD SVG 1.1//EN"
 "http://www.w3.org/Graphics/SVG/1.1/DTD/svg11.dtd">
<!-- Generated by graphviz version 7.0.5 (20221223.1930)
 -->
<!-- Title: Graphical Class Hierarchy Pages: 1 -->
<svg width="407pt" height="278pt"
 viewBox="0.00 0.00 407.00 278.00" xmlns="http://www.w3.org/2000/svg" xmlns:xlink="http://www.w3.org/1999/xlink">
<g id="graph0" class="graph" transform="scale(1 1) rotate(0) translate(4 274)">
<title>Graphical Class Hierarchy</title>
<!-- Node0 -->
<g id="node1" class="node">
<title>Node0</title>
<g id="a_node1"><a xlink:title=" ">
<polygon fill="#e0e0e0" stroke="#999999" points="99,-144.5 0,-144.5 0,-125.5 99,-125.5 99,-144.5"/>
<text text-anchor="middle" x="49.5" y="-132.5" font-family="Helvetica,sans-Serif" font-size="10.00">sa::AbstractPacket</text>
</a>
</g>
</g>
<!-- Node1 -->
<g id="node2" class="node">
<title>Node1</title>
<g id="a_node2"><a xlink:href="classrtype_1_1network_1_1packet_1_1_c2_s_client_connected.html" target="_top" xlink:title=" ">
<polygon fill="white" stroke="#666666" points="249.5,-270 138.5,-270 138.5,-240 249.5,-240 249.5,-270"/>
<text text-anchor="start" x="146.5" y="-258" font-family="Helvetica,sans-Serif" font-size="10.00">rtype::network::packet</text>
<text text-anchor="middle" x="194" y="-247" font-family="Helvetica,sans-Serif" font-size="10.00">::C2SClientConnected</text>
</a>
</g>
</g>
<!-- Node0&#45;&gt;Node1 -->
<g id="edge1" class="edge">
<title>Node0&#45;&gt;Node1</title>
<path fill="none" stroke="#63b8ff" d="M63.18,-154.03C78.16,-175.27 104.89,-209.47 135,-231 139.43,-234.17 144.35,-237.02 149.38,-239.54"/>
<polygon fill="#63b8ff" stroke="#63b8ff" points="66.21,-152.26 57.66,-146 60.44,-156.23 66.21,-152.26"/>
</g>
<!-- Node2 -->
<g id="node3" class="node">
<title>Node2</title>
<g id="a_node3"><a xlink:href="classrtype_1_1network_1_1packet_1_1_c2_s_player_handshake.html" target="_top" xlink:title=" ">
<polygon fill="white" stroke="#666666" points="252,-222 136,-222 136,-192 252,-192 252,-222"/>
<text text-anchor="start" x="144" y="-210" font-family="Helvetica,sans-Serif" font-size="10.00">rtype::network::packet</text>
<text text-anchor="middle" x="194" y="-199" font-family="Helvetica,sans-Serif" font-size="10.00">::C2SPlayerHandshake</text>
</a>
</g>
</g>
<!-- Node0&#45;&gt;Node2 -->
<g id="edge2" class="edge">
<title>Node0&#45;&gt;Node2</title>
<path fill="none" stroke="#63b8ff" d="M76.19,-150.7C92.71,-160.52 114.79,-173.13 135,-183 140.97,-185.92 147.39,-188.81 153.71,-191.52"/>
<polygon fill="#63b8ff" stroke="#63b8ff" points="78.36,-147.92 67.99,-145.78 74.76,-153.92 78.36,-147.92"/>
</g>
<!-- Node3 -->
<g id="node4" class="node">
<title>Node3</title>
<g id="a_node4"><a xlink:href="classrtype_1_1network_1_1packet_1_1_c2_s_player_shoot.html" target="_top" xlink:title=" ">
<polygon fill="white" stroke="#666666" points="249,-174 139,-174 139,-144 249,-144 249,-174"/>
<text text-anchor="start" x="147" y="-162" font-family="Helvetica,sans-Serif" font-size="10.00">rtype::network::packet</text>
<text text-anchor="middle" x="194" y="-151" font-family="Helvetica,sans-Serif" font-size="10.00">::C2SPlayerShoot</text>
</a>
</g>
</g>
<!-- Node0&#45;&gt;Node3 -->
<g id="edge3" class="edge">
<title>Node0&#45;&gt;Node3</title>
<path fill="none" stroke="#63b8ff" d="M110.41,-145.09C119.8,-146.67 129.46,-148.3 138.71,-149.86"/>
<polygon fill="#63b8ff" stroke="#63b8ff" points="111.08,-141.65 100.63,-143.44 109.91,-148.56 111.08,-141.65"/>
</g>
<!-- Node4 -->
<g id="node5" class="node">
<title>Node4</title>
<g id="a_node5"><a xlink:href="classrtype_1_1network_1_1packet_1_1_c2_s_prepare_shoot.html" target="_top" xlink:title=" ">
<polygon fill="white" stroke="#666666" points="249,-126 139,-126 139,-96 249,-96 249,-126"/>
<text text-anchor="start" x="147" y="-114" font-family="Helvetica,sans-Serif" font-size="10.00">rtype::network::packet</text>
<text text-anchor="middle" x="194" y="-103" font-family="Helvetica,sans-Serif" font-size="10.00">::C2SPrepareShoot</text>
</a>
</g>
</g>
<!-- Node0&#45;&gt;Node4 -->
<g id="edge4" class="edge">
<title>Node0&#45;&gt;Node4</title>
<path fill="none" stroke="#63b8ff" d="M110.41,-124.91C119.8,-123.33 129.46,-121.7 138.71,-120.14"/>
<polygon fill="#63b8ff" stroke="#63b8ff" points="109.91,-121.44 100.63,-126.56 111.08,-128.35 109.91,-121.44"/>
</g>
<!-- Node5 -->
<g id="node6" class="node">
<title>Node5</title>
<g id="a_node6"><a xlink:href="classrtype_1_1network_1_1packet_1_1_s2_c_entity_spawn.html" target="_top" xlink:title=" ">
<polygon fill="white" stroke="#666666" points="249,-78 139,-78 139,-48 249,-48 249,-78"/>
<text text-anchor="start" x="147" y="-66" font-family="Helvetica,sans-Serif" font-size="10.00">rtype::network::packet</text>
<text text-anchor="middle" x="194" y="-55" font-family="Helvetica,sans-Serif" font-size="10.00">::S2CEntitySpawn</text>
</a>
</g>
</g>
<!-- Node0&#45;&gt;Node5 -->
<g id="edge5" class="edge">
<title>Node0&#45;&gt;Node5</title>
<path fill="none" stroke="#63b8ff" d="M76.19,-119.3C92.71,-109.48 114.79,-96.87 135,-87 140.97,-84.08 147.39,-81.19 153.71,-78.48"/>
<polygon fill="#63b8ff" stroke="#63b8ff" points="74.76,-116.08 67.99,-124.22 78.36,-122.08 74.76,-116.08"/>
</g>
<!-- Node8 -->
<g id="node9" class="node">
<title>Node8</title>
<g id="a_node9"><a xlink:href="classrtype_1_1network_1_1packet_1_1_s2_c_player_authentified.html" target="_top" xlink:title=" ">
<polygon fill="white" stroke="#666666" points="253,-30 135,-30 135,0 253,0 253,-30"/>
<text text-anchor="start" x="143" y="-18" font-family="Helvetica,sans-Serif" font-size="10.00">rtype::network::packet</text>
<text text-anchor="middle" x="194" y="-7" font-family="Helvetica,sans-Serif" font-size="10.00">::S2CPlayerAuthentified</text>
</a>
</g>
</g>
<!-- Node0&#45;&gt;Node8 -->
<g id="edge8" class="edge">
<title>Node0&#45;&gt;Node8</title>
<path fill="none" stroke="#63b8ff" d="M63.18,-115.97C78.16,-94.73 104.89,-60.53 135,-39 139.43,-35.83 144.35,-32.98 149.38,-30.46"/>
<polygon fill="#63b8ff" stroke="#63b8ff" points="60.44,-113.77 57.66,-124 66.21,-117.74 60.44,-113.77"/>
</g>
<!-- Node6 -->
<g id="node7" class="node">
<title>Node6</title>
<g id="a_node7"><a xlink:href="classrtype_1_1network_1_1packet_1_1_s2_c_player_spawn.html" target="_top" xlink:title=" ">
<polygon fill="white" stroke="#666666" points="399,-102 289,-102 289,-72 399,-72 399,-102"/>
<text text-anchor="start" x="297" y="-90" font-family="Helvetica,sans-Serif" font-size="10.00">rtype::network::packet</text>
<text text-anchor="middle" x="344" y="-79" font-family="Helvetica,sans-Serif" font-size="10.00">::S2CPlayerSpawn</text>
</a>
</g>
</g>
<!-- Node5&#45;&gt;Node6 -->
<g id="edge6" class="edge">
<title>Node5&#45;&gt;Node6</title>
<path fill="none" stroke="#63b8ff" d="M260.6,-73.64C270,-75.16 279.59,-76.72 288.74,-78.2"/>
<polygon fill="#63b8ff" stroke="#63b8ff" points="261.19,-70.19 250.76,-72.04 260.07,-77.1 261.19,-70.19"/>
</g>
<!-- Node7 -->
<g id="node8" class="node">
<title>Node7</title>
<g id="a_node8"><a xlink:href="classrtype_1_1network_1_1packet_1_1_s2_c_spawn_bullet.html" target="_top" xlink:title=" ">
<polygon fill="white" stroke="#666666" points="399,-54 289,-54 289,-24 399,-24 399,-54"/>
<text text-anchor="start" x="297" y="-42" font-family="Helvetica,sans-Serif" font-size="10.00">rtype::network::packet</text>
<text text-anchor="middle" x="344" y="-31" font-family="Helvetica,sans-Serif" font-size="10.00">::S2CSpawnBullet</text>
</a>
</g>
</g>
<!-- Node5&#45;&gt;Node7 -->
<g id="edge7" class="edge">
<title>Node5&#45;&gt;Node7</title>
<path fill="none" stroke="#63b8ff" d="M260.6,-52.36C270,-50.84 279.59,-49.28 288.74,-47.8"/>
<polygon fill="#63b8ff" stroke="#63b8ff" points="260.07,-48.9 250.76,-53.96 261.19,-55.81 260.07,-48.9"/>
</g>
</g>
</svg>
