<?xml version="1.0" encoding="UTF-8" standalone="no"?>
<!DOCTYPE svg PUBLIC "-//W3C//DTD SVG 1.1//EN"
 "http://www.w3.org/Graphics/SVG/1.1/DTD/svg11.dtd">
<!-- Generated by graphviz version 7.0.5 (20221223.1930)
 -->
<!-- Title: Graphical Class Hierarchy Pages: 1 -->
<svg width="413pt" height="518pt"
 viewBox="0.00 0.00 413.00 518.00" xmlns="http://www.w3.org/2000/svg" xmlns:xlink="http://www.w3.org/1999/xlink">
<g id="graph0" class="graph" transform="scale(1 1) rotate(0) translate(4 514)">
<title>Graphical Class Hierarchy</title>
<!-- Node0 -->
<g id="node1" class="node">
<title>Node0</title>
<g id="a_node1"><a xlink:title=" ">
<polygon fill="#e0e0e0" stroke="#999999" points="99,-264.5 0,-264.5 0,-245.5 99,-245.5 99,-264.5"/>
<text text-anchor="middle" x="49.5" y="-252.5" font-family="Helvetica,sans-Serif" font-size="10.00">sa::AbstractPacket</text>
</a>
</g>
</g>
<!-- Node1 -->
<g id="node2" class="node">
<title>Node1</title>
<g id="a_node2"><a xlink:href="classrtype_1_1network_1_1packet_1_1_c2_s_client_connected.html" target="_top" xlink:title=" ">
<polygon fill="white" stroke="#666666" points="252.5,-510 141.5,-510 141.5,-480 252.5,-480 252.5,-510"/>
<text text-anchor="start" x="149.5" y="-498" font-family="Helvetica,sans-Serif" font-size="10.00">rtype::network::packet</text>
<text text-anchor="middle" x="197" y="-487" font-family="Helvetica,sans-Serif" font-size="10.00">::C2SClientConnected</text>
</a>
</g>
</g>
<!-- Node0&#45;&gt;Node1 -->
<g id="edge1" class="edge">
<title>Node0&#45;&gt;Node1</title>
<path fill="none" stroke="#63b8ff" d="M53.09,-275.99C59.38,-318.45 79.32,-415.21 135,-471 138.3,-474.3 142.1,-477.16 146.17,-479.64"/>
<polygon fill="#63b8ff" stroke="#63b8ff" points="56.56,-275.6 51.75,-266.16 49.63,-276.54 56.56,-275.6"/>
</g>
<!-- Node2 -->
<g id="node3" class="node">
<title>Node2</title>
<g id="a_node3"><a xlink:href="classrtype_1_1network_1_1packet_1_1_c2_s_client_disconnected.html" target="_top" xlink:title=" ">
<polygon fill="white" stroke="#666666" points="259,-462 135,-462 135,-432 259,-432 259,-462"/>
<text text-anchor="start" x="143" y="-450" font-family="Helvetica,sans-Serif" font-size="10.00">rtype::network::packet</text>
<text text-anchor="middle" x="197" y="-439" font-family="Helvetica,sans-Serif" font-size="10.00">::C2SClientDisconnected</text>
</a>
</g>
</g>
<!-- Node0&#45;&gt;Node2 -->
<g id="edge2" class="edge">
<title>Node0&#45;&gt;Node2</title>
<path fill="none" stroke="#63b8ff" d="M55.65,-275.59C65.38,-310.53 89.7,-381.65 135,-423 138.61,-426.3 142.74,-429.17 147.09,-431.66"/>
<polygon fill="#63b8ff" stroke="#63b8ff" points="59.13,-275.08 53.19,-266.31 52.37,-276.87 59.13,-275.08"/>
</g>
<!-- Node3 -->
<g id="node4" class="node">
<title>Node3</title>
<g id="a_node4"><a xlink:href="classrtype_1_1network_1_1packet_1_1_c2_s_player_handshake.html" target="_top" xlink:title=" ">
<polygon fill="white" stroke="#666666" points="255,-414 139,-414 139,-384 255,-384 255,-414"/>
<text text-anchor="start" x="147" y="-402" font-family="Helvetica,sans-Serif" font-size="10.00">rtype::network::packet</text>
<text text-anchor="middle" x="197" y="-391" font-family="Helvetica,sans-Serif" font-size="10.00">::C2SPlayerHandshake</text>
</a>
</g>
</g>
<!-- Node0&#45;&gt;Node3 -->
<g id="edge3" class="edge">
<title>Node0&#45;&gt;Node3</title>
<path fill="none" stroke="#63b8ff" d="M59.98,-275.12C73.3,-301.44 99.92,-347.43 135,-375 139.12,-378.23 143.72,-381.08 148.51,-383.58"/>
<polygon fill="#63b8ff" stroke="#63b8ff" points="63.15,-273.66 55.61,-266.21 56.87,-276.73 63.15,-273.66"/>
</g>
<!-- Node4 -->
<g id="node5" class="node">
<title>Node4</title>
<g id="a_node5"><a xlink:href="classrtype_1_1network_1_1packet_1_1_c2_s_player_shoot.html" target="_top" xlink:title=" ">
<polygon fill="white" stroke="#666666" points="252,-366 142,-366 142,-336 252,-336 252,-366"/>
<text text-anchor="start" x="150" y="-354" font-family="Helvetica,sans-Serif" font-size="10.00">rtype::network::packet</text>
<text text-anchor="middle" x="197" y="-343" font-family="Helvetica,sans-Serif" font-size="10.00">::C2SPlayerShoot</text>
</a>
</g>
</g>
<!-- Node0&#45;&gt;Node4 -->
<g id="edge4" class="edge">
<title>Node0&#45;&gt;Node4</title>
<path fill="none" stroke="#63b8ff" d="M67.8,-272.79C84,-288.66 109.48,-311.69 135,-327 140.17,-330.1 145.82,-332.95 151.52,-335.51"/>
<polygon fill="#63b8ff" stroke="#63b8ff" points="70.43,-270.47 60.89,-265.87 65.48,-275.42 70.43,-270.47"/>
</g>
<!-- Node5 -->
<g id="node6" class="node">
<title>Node5</title>
<g id="a_node6"><a xlink:href="classrtype_1_1network_1_1packet_1_1_c2_s_prepare_shoot.html" target="_top" xlink:title=" ">
<polygon fill="white" stroke="#666666" points="252,-318 142,-318 142,-288 252,-288 252,-318"/>
<text text-anchor="start" x="150" y="-306" font-family="Helvetica,sans-Serif" font-size="10.00">rtype::network::packet</text>
<text text-anchor="middle" x="197" y="-295" font-family="Helvetica,sans-Serif" font-size="10.00">::C2SPrepareShoot</text>
</a>
</g>
</g>
<!-- Node0&#45;&gt;Node5 -->
<g id="edge5" class="edge">
<title>Node0&#45;&gt;Node5</title>
<path fill="none" stroke="#63b8ff" d="M91.39,-268.49C109.39,-274.43 130.64,-281.44 149.27,-287.58"/>
<polygon fill="#63b8ff" stroke="#63b8ff" points="92.68,-265.23 82.09,-265.42 90.49,-271.88 92.68,-265.23"/>
</g>
<!-- Node6 -->
<g id="node7" class="node">
<title>Node6</title>
<g id="a_node7"><a xlink:href="classrtype_1_1network_1_1packet_1_1_c2_s_skill_entity.html" target="_top" xlink:title=" ">
<polygon fill="white" stroke="#666666" points="252,-270 142,-270 142,-240 252,-240 252,-270"/>
<text text-anchor="start" x="150" y="-258" font-family="Helvetica,sans-Serif" font-size="10.00">rtype::network::packet</text>
<text text-anchor="middle" x="197" y="-247" font-family="Helvetica,sans-Serif" font-size="10.00">::C2SSkillEntity</text>
</a>
</g>
</g>
<!-- Node0&#45;&gt;Node6 -->
<g id="edge6" class="edge">
<title>Node0&#45;&gt;Node6</title>
<path fill="none" stroke="#63b8ff" d="M110.69,-255C120.91,-255 131.46,-255 141.51,-255"/>
<polygon fill="#63b8ff" stroke="#63b8ff" points="110.87,-251.5 100.87,-255 110.87,-258.5 110.87,-251.5"/>
</g>
<!-- Node8 -->
<g id="node9" class="node">
<title>Node8</title>
<g id="a_node9"><a xlink:href="classrtype_1_1network_1_1packet_1_1_s2_c_entity_move.html" target="_top" xlink:title=" ">
<polygon fill="white" stroke="#666666" points="252,-222 142,-222 142,-192 252,-192 252,-222"/>
<text text-anchor="start" x="150" y="-210" font-family="Helvetica,sans-Serif" font-size="10.00">rtype::network::packet</text>
<text text-anchor="middle" x="197" y="-199" font-family="Helvetica,sans-Serif" font-size="10.00">::S2CEntityMove</text>
</a>
</g>
</g>
<!-- Node0&#45;&gt;Node8 -->
<g id="edge8" class="edge">
<title>Node0&#45;&gt;Node8</title>
<path fill="none" stroke="#63b8ff" d="M91.39,-241.51C109.39,-235.57 130.64,-228.56 149.27,-222.42"/>
<polygon fill="#63b8ff" stroke="#63b8ff" points="90.49,-238.12 82.09,-244.58 92.68,-244.77 90.49,-238.12"/>
</g>
<!-- Node10 -->
<g id="node11" class="node">
<title>Node10</title>
<g id="a_node11"><a xlink:href="classrtype_1_1network_1_1packet_1_1_s2_c_entity_spawn.html" target="_top" xlink:title=" ">
<polygon fill="white" stroke="#666666" points="252,-174 142,-174 142,-144 252,-144 252,-174"/>
<text text-anchor="start" x="150" y="-162" font-family="Helvetica,sans-Serif" font-size="10.00">rtype::network::packet</text>
<text text-anchor="middle" x="197" y="-151" font-family="Helvetica,sans-Serif" font-size="10.00">::S2CEntitySpawn</text>
</a>
</g>
</g>
<!-- Node0&#45;&gt;Node10 -->
<g id="edge10" class="edge">
<title>Node0&#45;&gt;Node10</title>
<path fill="none" stroke="#63b8ff" d="M67.8,-237.21C84,-221.34 109.48,-198.31 135,-183 140.17,-179.9 145.82,-177.05 151.52,-174.49"/>
<polygon fill="#63b8ff" stroke="#63b8ff" points="65.48,-234.58 60.89,-244.13 70.43,-239.53 65.48,-234.58"/>
</g>
<!-- Node13 -->
<g id="node14" class="node">
<title>Node13</title>
<g id="a_node14"><a xlink:href="classrtype_1_1network_1_1packet_1_1_s2_c_player_authentified.html" target="_top" xlink:title=" ">
<polygon fill="white" stroke="#666666" points="256,-126 138,-126 138,-96 256,-96 256,-126"/>
<text text-anchor="start" x="146" y="-114" font-family="Helvetica,sans-Serif" font-size="10.00">rtype::network::packet</text>
<text text-anchor="middle" x="197" y="-103" font-family="Helvetica,sans-Serif" font-size="10.00">::S2CPlayerAuthentified</text>
</a>
</g>
</g>
<!-- Node0&#45;&gt;Node13 -->
<g id="edge13" class="edge">
<title>Node0&#45;&gt;Node13</title>
<path fill="none" stroke="#63b8ff" d="M59.98,-234.88C73.3,-208.56 99.92,-162.57 135,-135 139.12,-131.77 143.72,-128.92 148.51,-126.42"/>
<polygon fill="#63b8ff" stroke="#63b8ff" points="56.87,-233.27 55.61,-243.79 63.15,-236.34 56.87,-233.27"/>
</g>
<!-- Node14 -->
<g id="node15" class="node">
<title>Node14</title>
<g id="a_node15"><a xlink:href="classrtype_1_1network_1_1packet_1_1_s2_c_player_score.html" target="_top" xlink:title=" ">
<polygon fill="white" stroke="#666666" points="252,-78 142,-78 142,-48 252,-48 252,-78"/>
<text text-anchor="start" x="150" y="-66" font-family="Helvetica,sans-Serif" font-size="10.00">rtype::network::packet</text>
<text text-anchor="middle" x="197" y="-55" font-family="Helvetica,sans-Serif" font-size="10.00">::S2CPlayerScore</text>
</a>
</g>
</g>
<!-- Node0&#45;&gt;Node14 -->
<g id="edge14" class="edge">
<title>Node0&#45;&gt;Node14</title>
<path fill="none" stroke="#63b8ff" d="M55.65,-234.41C65.38,-199.47 89.7,-128.35 135,-87 138.61,-83.7 142.74,-80.83 147.09,-78.34"/>
<polygon fill="#63b8ff" stroke="#63b8ff" points="52.37,-233.13 53.19,-243.69 59.13,-234.92 52.37,-233.13"/>
</g>
<!-- Node15 -->
<g id="node16" class="node">
<title>Node15</title>
<g id="a_node16"><a xlink:href="classrtype_1_1network_1_1packet_1_1_s2_c_remove_entity.html" target="_top" xlink:title=" ">
<polygon fill="white" stroke="#666666" points="252,-30 142,-30 142,0 252,0 252,-30"/>
<text text-anchor="start" x="150" y="-18" font-family="Helvetica,sans-Serif" font-size="10.00">rtype::network::packet</text>
<text text-anchor="middle" x="197" y="-7" font-family="Helvetica,sans-Serif" font-size="10.00">::S2CRemoveEntity</text>
</a>
</g>
</g>
<!-- Node0&#45;&gt;Node15 -->
<g id="edge15" class="edge">
<title>Node0&#45;&gt;Node15</title>
<path fill="none" stroke="#63b8ff" d="M53.09,-234.01C59.38,-191.55 79.32,-94.79 135,-39 138.3,-35.7 142.1,-32.84 146.17,-30.36"/>
<polygon fill="#63b8ff" stroke="#63b8ff" points="49.63,-233.46 51.75,-243.84 56.56,-234.4 49.63,-233.46"/>
</g>
<!-- Node7 -->
<g id="node8" class="node">
<title>Node7</title>
<g id="a_node8"><a xlink:href="classrtype_1_1network_1_1packet_1_1_c2_s_skill_player.html" target="_top" xlink:title=" ">
<polygon fill="white" stroke="#666666" points="405,-270 295,-270 295,-240 405,-240 405,-270"/>
<text text-anchor="start" x="303" y="-258" font-family="Helvetica,sans-Serif" font-size="10.00">rtype::network::packet</text>
<text text-anchor="middle" x="350" y="-247" font-family="Helvetica,sans-Serif" font-size="10.00">::C2SSkillPlayer</text>
</a>
</g>
</g>
<!-- Node6&#45;&gt;Node7 -->
<g id="edge7" class="edge">
<title>Node6&#45;&gt;Node7</title>
<path fill="none" stroke="#63b8ff" d="M263.59,-255C273.92,-255 284.49,-255 294.53,-255"/>
<polygon fill="#63b8ff" stroke="#63b8ff" points="263.6,-251.5 253.6,-255 263.6,-258.5 263.6,-251.5"/>
</g>
<!-- Node9 -->
<g id="node10" class="node">
<title>Node9</title>
<g id="a_node10"><a xlink:href="classrtype_1_1network_1_1packet_1_1_s2_c_player_move.html" target="_top" xlink:title=" ">
<polygon fill="white" stroke="#666666" points="405,-222 295,-222 295,-192 405,-192 405,-222"/>
<text text-anchor="start" x="303" y="-210" font-family="Helvetica,sans-Serif" font-size="10.00">rtype::network::packet</text>
<text text-anchor="middle" x="350" y="-199" font-family="Helvetica,sans-Serif" font-size="10.00">::S2CPlayerMove</text>
</a>
</g>
</g>
<!-- Node8&#45;&gt;Node9 -->
<g id="edge9" class="edge">
<title>Node8&#45;&gt;Node9</title>
<path fill="none" stroke="#63b8ff" d="M263.59,-207C273.92,-207 284.49,-207 294.53,-207"/>
<polygon fill="#63b8ff" stroke="#63b8ff" points="263.6,-203.5 253.6,-207 263.6,-210.5 263.6,-203.5"/>
</g>
<!-- Node11 -->
<g id="node12" class="node">
<title>Node11</title>
<g id="a_node12"><a xlink:href="classrtype_1_1network_1_1packet_1_1_s2_c_spawn_bullet.html" target="_top" xlink:title=" ">
<polygon fill="white" stroke="#666666" points="405,-174 295,-174 295,-144 405,-144 405,-174"/>
<text text-anchor="start" x="303" y="-162" font-family="Helvetica,sans-Serif" font-size="10.00">rtype::network::packet</text>
<text text-anchor="middle" x="350" y="-151" font-family="Helvetica,sans-Serif" font-size="10.00">::S2CSpawnBullet</text>
</a>
</g>
</g>
<!-- Node10&#45;&gt;Node11 -->
<g id="edge11" class="edge">
<title>Node10&#45;&gt;Node11</title>
<path fill="none" stroke="#63b8ff" d="M263.59,-159C273.92,-159 284.49,-159 294.53,-159"/>
<polygon fill="#63b8ff" stroke="#63b8ff" points="263.6,-155.5 253.6,-159 263.6,-162.5 263.6,-155.5"/>
</g>
<!-- Node12 -->
<g id="node13" class="node">
<title>Node12</title>
<g id="a_node13"><a xlink:href="classrtype_1_1network_1_1packet_1_1_s2_c_spawn_player.html" target="_top" xlink:title=" ">
<polygon fill="white" stroke="#666666" points="405,-126 295,-126 295,-96 405,-96 405,-126"/>
<text text-anchor="start" x="303" y="-114" font-family="Helvetica,sans-Serif" font-size="10.00">rtype::network::packet</text>
<text text-anchor="middle" x="350" y="-103" font-family="Helvetica,sans-Serif" font-size="10.00">::S2CSpawnPlayer</text>
</a>
</g>
</g>
<!-- Node10&#45;&gt;Node12 -->
<g id="edge12" class="edge">
<title>Node10&#45;&gt;Node12</title>
<path fill="none" stroke="#63b8ff" d="M257.35,-140.13C271.64,-135.59 286.75,-130.79 300.48,-126.42"/>
<polygon fill="#63b8ff" stroke="#63b8ff" points="256.52,-136.72 248.05,-143.09 258.64,-143.4 256.52,-136.72"/>
</g>
<!-- Node16 -->
<g id="node17" class="node">
<title>Node16</title>
<g id="a_node17"><a xlink:href="classrtype_1_1network_1_1packet_1_1_s2_c_remove_player.html" target="_top" xlink:title=" ">
<polygon fill="white" stroke="#666666" points="405,-30 295,-30 295,0 405,0 405,-30"/>
<text text-anchor="start" x="303" y="-18" font-family="Helvetica,sans-Serif" font-size="10.00">rtype::network::packet</text>
<text text-anchor="middle" x="350" y="-7" font-family="Helvetica,sans-Serif" font-size="10.00">::S2CRemovePlayer</text>
</a>
</g>
</g>
<!-- Node15&#45;&gt;Node16 -->
<g id="edge16" class="edge">
<title>Node15&#45;&gt;Node16</title>
<path fill="none" stroke="#63b8ff" d="M263.59,-15C273.92,-15 284.49,-15 294.53,-15"/>
<polygon fill="#63b8ff" stroke="#63b8ff" points="263.6,-11.5 253.6,-15 263.6,-18.5 263.6,-11.5"/>
</g>
</g>
</svg>
