<?xml version="1.0" encoding="UTF-8" standalone="no"?>
<!DOCTYPE svg PUBLIC "-//W3C//DTD SVG 1.1//EN"
 "http://www.w3.org/Graphics/SVG/1.1/DTD/svg11.dtd">
<!-- Generated by graphviz version 7.0.5 (20221223.1930)
 -->
<!-- Title: Graphical Class Hierarchy Pages: 1 -->
<svg width="196pt" height="101pt"
 viewBox="0.00 0.00 196.00 101.00" xmlns="http://www.w3.org/2000/svg" xmlns:xlink="http://www.w3.org/1999/xlink">
<g id="graph0" class="graph" transform="scale(1 1) rotate(0) translate(4 97)">
<title>Graphical Class Hierarchy</title>
<!-- Node0 -->
<g id="node1" class="node">
<title>Node0</title>
<g id="a_node1"><a xlink:href="classengine_1_1_scene.html" target="_top" xlink:title=" ">
<polygon fill="white" stroke="#666666" points="77,-56 0,-56 0,-37 77,-37 77,-56"/>
<text text-anchor="middle" x="38.5" y="-44" font-family="Helvetica,sans-Serif" font-size="10.00">engine::Scene</text>
</a>
</g>
</g>
<!-- Node1 -->
<g id="node2" class="node">
<title>Node1</title>
<g id="a_node2"><a xlink:href="class_scene_game.html" target="_top" xlink:title=" ">
<polygon fill="white" stroke="#666666" points="186,-93 115,-93 115,-74 186,-74 186,-93"/>
<text text-anchor="middle" x="150.5" y="-81" font-family="Helvetica,sans-Serif" font-size="10.00">SceneGame</text>
</a>
</g>
</g>
<!-- Node0&#45;&gt;Node1 -->
<g id="edge1" class="edge">
<title>Node0&#45;&gt;Node1</title>
<path fill="none" stroke="#63b8ff" d="M79.78,-60.05C93.07,-64.52 107.6,-69.41 119.94,-73.56"/>
<polygon fill="#63b8ff" stroke="#63b8ff" points="81.01,-56.77 70.41,-56.9 78.77,-63.4 81.01,-56.77"/>
</g>
<!-- Node2 -->
<g id="node3" class="node">
<title>Node2</title>
<g id="a_node3"><a xlink:href="class_scene_main.html" target="_top" xlink:title=" ">
<polygon fill="white" stroke="#666666" points="183,-56 118,-56 118,-37 183,-37 183,-56"/>
<text text-anchor="middle" x="150.5" y="-44" font-family="Helvetica,sans-Serif" font-size="10.00">SceneMain</text>
</a>
</g>
</g>
<!-- Node0&#45;&gt;Node2 -->
<g id="edge2" class="edge">
<title>Node0&#45;&gt;Node2</title>
<path fill="none" stroke="#63b8ff" d="M88.74,-46.5C98.6,-46.5 108.72,-46.5 117.79,-46.5"/>
<polygon fill="#63b8ff" stroke="#63b8ff" points="88.87,-43 78.87,-46.5 88.87,-50 88.87,-43"/>
</g>
<!-- Node3 -->
<g id="node4" class="node">
<title>Node3</title>
<g id="a_node4"><a xlink:href="class_scene_stage1.html" target="_top" xlink:title=" ">
<polygon fill="white" stroke="#666666" points="188,-19 113,-19 113,0 188,0 188,-19"/>
<text text-anchor="middle" x="150.5" y="-7" font-family="Helvetica,sans-Serif" font-size="10.00">SceneStage1</text>
</a>
</g>
</g>
<!-- Node0&#45;&gt;Node3 -->
<g id="edge3" class="edge">
<title>Node0&#45;&gt;Node3</title>
<path fill="none" stroke="#63b8ff" d="M79.78,-32.95C93.07,-28.48 107.6,-23.59 119.94,-19.44"/>
<polygon fill="#63b8ff" stroke="#63b8ff" points="78.77,-29.6 70.41,-36.1 81.01,-36.23 78.77,-29.6"/>
</g>
</g>
</svg>
