<?xml version="1.0" encoding="UTF-8" standalone="no"?>
<!DOCTYPE svg PUBLIC "-//W3C//DTD SVG 1.1//EN"
 "http://www.w3.org/Graphics/SVG/1.1/DTD/svg11.dtd">
<!-- Generated by graphviz version 7.0.5 (20221223.1930)
 -->
<!-- Title: Graphical Class Hierarchy Pages: 1 -->
<svg width="415pt" height="518pt"
 viewBox="0.00 0.00 415.00 518.00" xmlns="http://www.w3.org/2000/svg" xmlns:xlink="http://www.w3.org/1999/xlink">
<g id="graph0" class="graph" transform="scale(1 1) rotate(0) translate(4 514)">
<title>Graphical Class Hierarchy</title>
<!-- Node0 -->
<g id="node1" class="node">
<title>Node0</title>
<g id="a_node1"><a xlink:title=" ">
<polygon fill="#e0e0e0" stroke="#999999" points="99,-264.5 0,-264.5 0,-245.5 99,-245.5 99,-264.5"/>
<text text-anchor="middle" x="49.5" y="-252.5" font-family="Helvetica,sans-Serif" font-size="10.00">sa::AbstractPacket</text>
</a>
</g>
</g>
<!-- Node1 -->
<g id="node2" class="node">
<title>Node1</title>
<g id="a_node2"><a xlink:href="classrtype_1_1network_1_1packet_1_1_c2_s_client_connected.html" target="_top" xlink:title=" ">
<polygon fill="white" stroke="#666666" points="253.5,-510 142.5,-510 142.5,-480 253.5,-480 253.5,-510"/>
<text text-anchor="start" x="150.5" y="-498" font-family="Helvetica,sans-Serif" font-size="10.00">rtype::network::packet</text>
<text text-anchor="middle" x="198" y="-487" font-family="Helvetica,sans-Serif" font-size="10.00">::C2SClientConnected</text>
</a>
</g>
</g>
<!-- Node0&#45;&gt;Node1 -->
<g id="edge1" class="edge">
<title>Node0&#45;&gt;Node1</title>
<path fill="none" stroke="#63b8ff" d="M53.06,-276.02C59.31,-318.52 79.16,-415.36 135,-471 138.27,-474.26 142.03,-477.09 146.05,-479.53"/>
<polygon fill="#63b8ff" stroke="#63b8ff" points="56.54,-275.62 51.73,-266.18 49.6,-276.55 56.54,-275.62"/>
</g>
<!-- Node2 -->
<g id="node3" class="node">
<title>Node2</title>
<g id="a_node3"><a xlink:href="classrtype_1_1network_1_1packet_1_1_c2_s_client_disconnecting.html" target="_top" xlink:title=" ">
<polygon fill="white" stroke="#666666" points="261,-462 135,-462 135,-432 261,-432 261,-462"/>
<text text-anchor="start" x="143" y="-450" font-family="Helvetica,sans-Serif" font-size="10.00">rtype::network::packet</text>
<text text-anchor="middle" x="198" y="-439" font-family="Helvetica,sans-Serif" font-size="10.00">::C2SClientDisconnecting</text>
</a>
</g>
</g>
<!-- Node0&#45;&gt;Node2 -->
<g id="edge2" class="edge">
<title>Node0&#45;&gt;Node2</title>
<path fill="none" stroke="#63b8ff" d="M55.62,-275.61C65.32,-310.59 89.59,-381.78 135,-423 138.59,-426.26 142.67,-429.09 146.98,-431.56"/>
<polygon fill="#63b8ff" stroke="#63b8ff" points="59.11,-275.1 53.17,-266.32 52.34,-276.89 59.11,-275.1"/>
</g>
<!-- Node3 -->
<g id="node4" class="node">
<title>Node3</title>
<g id="a_node4"><a xlink:href="classrtype_1_1network_1_1packet_1_1_c2_s_kill_entity.html" target="_top" xlink:title=" ">
<polygon fill="white" stroke="#666666" points="253,-414 143,-414 143,-384 253,-384 253,-414"/>
<text text-anchor="start" x="151" y="-402" font-family="Helvetica,sans-Serif" font-size="10.00">rtype::network::packet</text>
<text text-anchor="middle" x="198" y="-391" font-family="Helvetica,sans-Serif" font-size="10.00">::C2SKillEntity</text>
</a>
</g>
</g>
<!-- Node0&#45;&gt;Node3 -->
<g id="edge3" class="edge">
<title>Node0&#45;&gt;Node3</title>
<path fill="none" stroke="#63b8ff" d="M59.95,-275.15C73.25,-301.5 99.85,-347.53 135,-375 139.18,-378.27 143.87,-381.14 148.73,-383.65"/>
<polygon fill="#63b8ff" stroke="#63b8ff" points="63.13,-273.68 55.6,-266.23 56.84,-276.75 63.13,-273.68"/>
</g>
<!-- Node5 -->
<g id="node6" class="node">
<title>Node5</title>
<g id="a_node6"><a xlink:href="classrtype_1_1network_1_1packet_1_1_c2_s_player_handshake.html" target="_top" xlink:title=" ">
<polygon fill="white" stroke="#666666" points="256,-366 140,-366 140,-336 256,-336 256,-366"/>
<text text-anchor="start" x="148" y="-354" font-family="Helvetica,sans-Serif" font-size="10.00">rtype::network::packet</text>
<text text-anchor="middle" x="198" y="-343" font-family="Helvetica,sans-Serif" font-size="10.00">::C2SPlayerHandshake</text>
</a>
</g>
</g>
<!-- Node0&#45;&gt;Node5 -->
<g id="edge5" class="edge">
<title>Node0&#45;&gt;Node5</title>
<path fill="none" stroke="#63b8ff" d="M67.78,-272.82C83.97,-288.71 109.44,-311.76 135,-327 140.25,-330.13 145.99,-333 151.78,-335.57"/>
<polygon fill="#63b8ff" stroke="#63b8ff" points="70.41,-270.5 60.87,-265.89 65.46,-275.44 70.41,-270.5"/>
</g>
<!-- Node6 -->
<g id="node7" class="node">
<title>Node6</title>
<g id="a_node7"><a xlink:href="classrtype_1_1network_1_1packet_1_1_c2_s_player_shoot.html" target="_top" xlink:title=" ">
<polygon fill="white" stroke="#666666" points="253,-318 143,-318 143,-288 253,-288 253,-318"/>
<text text-anchor="start" x="151" y="-306" font-family="Helvetica,sans-Serif" font-size="10.00">rtype::network::packet</text>
<text text-anchor="middle" x="198" y="-295" font-family="Helvetica,sans-Serif" font-size="10.00">::C2SPlayerShoot</text>
</a>
</g>
</g>
<!-- Node0&#45;&gt;Node6 -->
<g id="edge6" class="edge">
<title>Node0&#45;&gt;Node6</title>
<path fill="none" stroke="#63b8ff" d="M91.67,-268.49C109.8,-274.43 131.19,-281.44 149.95,-287.58"/>
<polygon fill="#63b8ff" stroke="#63b8ff" points="92.89,-265.2 82.29,-265.42 90.71,-271.86 92.89,-265.2"/>
</g>
<!-- Node7 -->
<g id="node8" class="node">
<title>Node7</title>
<g id="a_node8"><a xlink:href="classrtype_1_1network_1_1packet_1_1_c2_s_prepare_shoot.html" target="_top" xlink:title=" ">
<polygon fill="white" stroke="#666666" points="253,-270 143,-270 143,-240 253,-240 253,-270"/>
<text text-anchor="start" x="151" y="-258" font-family="Helvetica,sans-Serif" font-size="10.00">rtype::network::packet</text>
<text text-anchor="middle" x="198" y="-247" font-family="Helvetica,sans-Serif" font-size="10.00">::C2SPrepareShoot</text>
</a>
</g>
</g>
<!-- Node0&#45;&gt;Node7 -->
<g id="edge7" class="edge">
<title>Node0&#45;&gt;Node7</title>
<path fill="none" stroke="#63b8ff" d="M110.6,-255C121.2,-255 132.19,-255 142.62,-255"/>
<polygon fill="#63b8ff" stroke="#63b8ff" points="110.8,-251.5 100.8,-255 110.8,-258.5 110.8,-251.5"/>
</g>
<!-- Node8 -->
<g id="node9" class="node">
<title>Node8</title>
<g id="a_node9"><a xlink:href="classrtype_1_1network_1_1packet_1_1_s2_c_entity_move.html" target="_top" xlink:title=" ">
<polygon fill="white" stroke="#666666" points="253,-222 143,-222 143,-192 253,-192 253,-222"/>
<text text-anchor="start" x="151" y="-210" font-family="Helvetica,sans-Serif" font-size="10.00">rtype::network::packet</text>
<text text-anchor="middle" x="198" y="-199" font-family="Helvetica,sans-Serif" font-size="10.00">::S2CEntityMove</text>
</a>
</g>
</g>
<!-- Node0&#45;&gt;Node8 -->
<g id="edge8" class="edge">
<title>Node0&#45;&gt;Node8</title>
<path fill="none" stroke="#63b8ff" d="M91.67,-241.51C109.8,-235.57 131.19,-228.56 149.95,-222.42"/>
<polygon fill="#63b8ff" stroke="#63b8ff" points="90.71,-238.14 82.29,-244.58 92.89,-244.8 90.71,-238.14"/>
</g>
<!-- Node10 -->
<g id="node11" class="node">
<title>Node10</title>
<g id="a_node11"><a xlink:href="classrtype_1_1network_1_1packet_1_1_s2_c_entity_spawn.html" target="_top" xlink:title=" ">
<polygon fill="white" stroke="#666666" points="253,-174 143,-174 143,-144 253,-144 253,-174"/>
<text text-anchor="start" x="151" y="-162" font-family="Helvetica,sans-Serif" font-size="10.00">rtype::network::packet</text>
<text text-anchor="middle" x="198" y="-151" font-family="Helvetica,sans-Serif" font-size="10.00">::S2CEntitySpawn</text>
</a>
</g>
</g>
<!-- Node0&#45;&gt;Node10 -->
<g id="edge10" class="edge">
<title>Node0&#45;&gt;Node10</title>
<path fill="none" stroke="#63b8ff" d="M67.78,-237.18C83.97,-221.29 109.44,-198.24 135,-183 140.25,-179.87 145.99,-177 151.78,-174.43"/>
<polygon fill="#63b8ff" stroke="#63b8ff" points="65.46,-234.56 60.87,-244.11 70.41,-239.5 65.46,-234.56"/>
</g>
<!-- Node13 -->
<g id="node14" class="node">
<title>Node13</title>
<g id="a_node14"><a xlink:href="classrtype_1_1network_1_1packet_1_1_s2_c_player_authentified.html" target="_top" xlink:title=" ">
<polygon fill="white" stroke="#666666" points="257,-126 139,-126 139,-96 257,-96 257,-126"/>
<text text-anchor="start" x="147" y="-114" font-family="Helvetica,sans-Serif" font-size="10.00">rtype::network::packet</text>
<text text-anchor="middle" x="198" y="-103" font-family="Helvetica,sans-Serif" font-size="10.00">::S2CPlayerAuthentified</text>
</a>
</g>
</g>
<!-- Node0&#45;&gt;Node13 -->
<g id="edge13" class="edge">
<title>Node0&#45;&gt;Node13</title>
<path fill="none" stroke="#63b8ff" d="M59.95,-234.85C73.25,-208.5 99.85,-162.47 135,-135 139.18,-131.73 143.87,-128.86 148.73,-126.35"/>
<polygon fill="#63b8ff" stroke="#63b8ff" points="56.84,-233.25 55.6,-243.77 63.13,-236.32 56.84,-233.25"/>
</g>
<!-- Node14 -->
<g id="node15" class="node">
<title>Node14</title>
<g id="a_node15"><a xlink:href="classrtype_1_1network_1_1packet_1_1_s2_c_player_score.html" target="_top" xlink:title=" ">
<polygon fill="white" stroke="#666666" points="253,-78 143,-78 143,-48 253,-48 253,-78"/>
<text text-anchor="start" x="151" y="-66" font-family="Helvetica,sans-Serif" font-size="10.00">rtype::network::packet</text>
<text text-anchor="middle" x="198" y="-55" font-family="Helvetica,sans-Serif" font-size="10.00">::S2CPlayerScore</text>
</a>
</g>
</g>
<!-- Node0&#45;&gt;Node14 -->
<g id="edge14" class="edge">
<title>Node0&#45;&gt;Node14</title>
<path fill="none" stroke="#63b8ff" d="M55.62,-234.39C65.32,-199.41 89.59,-128.22 135,-87 138.59,-83.74 142.67,-80.91 146.98,-78.44"/>
<polygon fill="#63b8ff" stroke="#63b8ff" points="52.34,-233.11 53.17,-243.68 59.11,-234.9 52.34,-233.11"/>
</g>
<!-- Node15 -->
<g id="node16" class="node">
<title>Node15</title>
<g id="a_node16"><a xlink:href="classrtype_1_1network_1_1packet_1_1_s2_c_remove_entity.html" target="_top" xlink:title=" ">
<polygon fill="white" stroke="#666666" points="253,-30 143,-30 143,0 253,0 253,-30"/>
<text text-anchor="start" x="151" y="-18" font-family="Helvetica,sans-Serif" font-size="10.00">rtype::network::packet</text>
<text text-anchor="middle" x="198" y="-7" font-family="Helvetica,sans-Serif" font-size="10.00">::S2CRemoveEntity</text>
</a>
</g>
</g>
<!-- Node0&#45;&gt;Node15 -->
<g id="edge15" class="edge">
<title>Node0&#45;&gt;Node15</title>
<path fill="none" stroke="#63b8ff" d="M53.06,-233.98C59.31,-191.48 79.16,-94.64 135,-39 138.27,-35.74 142.03,-32.91 146.05,-30.47"/>
<polygon fill="#63b8ff" stroke="#63b8ff" points="49.6,-233.45 51.73,-243.82 56.54,-234.38 49.6,-233.45"/>
</g>
<!-- Node4 -->
<g id="node5" class="node">
<title>Node4</title>
<g id="a_node5"><a xlink:href="classrtype_1_1network_1_1packet_1_1_c2_s_kill_player.html" target="_top" xlink:title=" ">
<polygon fill="white" stroke="#666666" points="407,-414 297,-414 297,-384 407,-384 407,-414"/>
<text text-anchor="start" x="305" y="-402" font-family="Helvetica,sans-Serif" font-size="10.00">rtype::network::packet</text>
<text text-anchor="middle" x="352" y="-391" font-family="Helvetica,sans-Serif" font-size="10.00">::C2SKillPlayer</text>
</a>
</g>
</g>
<!-- Node3&#45;&gt;Node4 -->
<g id="edge4" class="edge">
<title>Node3&#45;&gt;Node4</title>
<path fill="none" stroke="#63b8ff" d="M264.83,-399C275.46,-399 286.36,-399 296.68,-399"/>
<polygon fill="#63b8ff" stroke="#63b8ff" points="264.96,-395.5 254.96,-399 264.96,-402.5 264.96,-395.5"/>
</g>
<!-- Node9 -->
<g id="node10" class="node">
<title>Node9</title>
<g id="a_node10"><a xlink:href="classrtype_1_1network_1_1packet_1_1_s2_c_player_move.html" target="_top" xlink:title=" ">
<polygon fill="white" stroke="#666666" points="407,-222 297,-222 297,-192 407,-192 407,-222"/>
<text text-anchor="start" x="305" y="-210" font-family="Helvetica,sans-Serif" font-size="10.00">rtype::network::packet</text>
<text text-anchor="middle" x="352" y="-199" font-family="Helvetica,sans-Serif" font-size="10.00">::S2CPlayerMove</text>
</a>
</g>
</g>
<!-- Node8&#45;&gt;Node9 -->
<g id="edge9" class="edge">
<title>Node8&#45;&gt;Node9</title>
<path fill="none" stroke="#63b8ff" d="M264.83,-207C275.46,-207 286.36,-207 296.68,-207"/>
<polygon fill="#63b8ff" stroke="#63b8ff" points="264.96,-203.5 254.96,-207 264.96,-210.5 264.96,-203.5"/>
</g>
<!-- Node11 -->
<g id="node12" class="node">
<title>Node11</title>
<g id="a_node12"><a xlink:href="classrtype_1_1network_1_1packet_1_1_s2_c_spawn_bullet.html" target="_top" xlink:title=" ">
<polygon fill="white" stroke="#666666" points="407,-174 297,-174 297,-144 407,-144 407,-174"/>
<text text-anchor="start" x="305" y="-162" font-family="Helvetica,sans-Serif" font-size="10.00">rtype::network::packet</text>
<text text-anchor="middle" x="352" y="-151" font-family="Helvetica,sans-Serif" font-size="10.00">::S2CSpawnBullet</text>
</a>
</g>
</g>
<!-- Node10&#45;&gt;Node11 -->
<g id="edge11" class="edge">
<title>Node10&#45;&gt;Node11</title>
<path fill="none" stroke="#63b8ff" d="M264.83,-159C275.46,-159 286.36,-159 296.68,-159"/>
<polygon fill="#63b8ff" stroke="#63b8ff" points="264.96,-155.5 254.96,-159 264.96,-162.5 264.96,-155.5"/>
</g>
<!-- Node12 -->
<g id="node13" class="node">
<title>Node12</title>
<g id="a_node13"><a xlink:href="classrtype_1_1network_1_1packet_1_1_s2_c_spawn_player.html" target="_top" xlink:title=" ">
<polygon fill="white" stroke="#666666" points="407,-126 297,-126 297,-96 407,-96 407,-126"/>
<text text-anchor="start" x="305" y="-114" font-family="Helvetica,sans-Serif" font-size="10.00">rtype::network::packet</text>
<text text-anchor="middle" x="352" y="-103" font-family="Helvetica,sans-Serif" font-size="10.00">::S2CSpawnPlayer</text>
</a>
</g>
</g>
<!-- Node10&#45;&gt;Node12 -->
<g id="edge12" class="edge">
<title>Node10&#45;&gt;Node12</title>
<path fill="none" stroke="#63b8ff" d="M258.74,-140.13C273.13,-135.59 288.34,-130.79 302.16,-126.42"/>
<polygon fill="#63b8ff" stroke="#63b8ff" points="257.86,-136.74 249.37,-143.09 259.96,-143.42 257.86,-136.74"/>
</g>
<!-- Node16 -->
<g id="node17" class="node">
<title>Node16</title>
<g id="a_node17"><a xlink:href="classrtype_1_1network_1_1packet_1_1_s2_c_remove_player.html" target="_top" xlink:title=" ">
<polygon fill="white" stroke="#666666" points="407,-30 297,-30 297,0 407,0 407,-30"/>
<text text-anchor="start" x="305" y="-18" font-family="Helvetica,sans-Serif" font-size="10.00">rtype::network::packet</text>
<text text-anchor="middle" x="352" y="-7" font-family="Helvetica,sans-Serif" font-size="10.00">::S2CRemovePlayer</text>
</a>
</g>
</g>
<!-- Node15&#45;&gt;Node16 -->
<g id="edge16" class="edge">
<title>Node15&#45;&gt;Node16</title>
<path fill="none" stroke="#63b8ff" d="M264.83,-15C275.46,-15 286.36,-15 296.68,-15"/>
<polygon fill="#63b8ff" stroke="#63b8ff" points="264.96,-11.5 254.96,-15 264.96,-18.5 264.96,-11.5"/>
</g>
</g>
</svg>
