<?xml version="1.0" encoding="UTF-8" standalone="no"?>
<!DOCTYPE svg PUBLIC "-//W3C//DTD SVG 1.1//EN"
 "http://www.w3.org/Graphics/SVG/1.1/DTD/svg11.dtd">
<!-- Generated by graphviz version 7.0.5 (20221223.1930)
 -->
<!-- Title: Graphical Class Hierarchy Pages: 1 -->
<svg width="282pt" height="86pt"
 viewBox="0.00 0.00 282.00 86.00" xmlns="http://www.w3.org/2000/svg" xmlns:xlink="http://www.w3.org/1999/xlink">
<g id="graph0" class="graph" transform="scale(1 1) rotate(0) translate(4 82)">
<title>Graphical Class Hierarchy</title>
<!-- Node0 -->
<g id="node1" class="node">
<title>Node0</title>
<g id="a_node1"><a xlink:href="structuranus_1_1ecs_1_1component_1_1_drawable.html" target="_top" xlink:title=" ">
<polygon fill="white" stroke="#666666" points="119,-54 0,-54 0,-24 119,-24 119,-54"/>
<text text-anchor="start" x="8" y="-42" font-family="Helvetica,sans-Serif" font-size="10.00">uranus::ecs::component</text>
<text text-anchor="middle" x="59.5" y="-31" font-family="Helvetica,sans-Serif" font-size="10.00">::Drawable</text>
</a>
</g>
</g>
<!-- Node1 -->
<g id="node2" class="node">
<title>Node1</title>
<g id="a_node2"><a xlink:href="structuranus_1_1ecs_1_1component_1_1_shape.html" target="_top" xlink:title=" ">
<polygon fill="white" stroke="#666666" points="274,-78 155,-78 155,-48 274,-48 274,-78"/>
<text text-anchor="start" x="163" y="-66" font-family="Helvetica,sans-Serif" font-size="10.00">uranus::ecs::component</text>
<text text-anchor="middle" x="214.5" y="-55" font-family="Helvetica,sans-Serif" font-size="10.00">::Shape</text>
</a>
</g>
</g>
<!-- Node0&#45;&gt;Node1 -->
<g id="edge1" class="edge">
<title>Node0&#45;&gt;Node1</title>
<path fill="none" stroke="#63b8ff" d="M130.53,-49.99C138.61,-51.25 146.78,-52.53 154.69,-53.77"/>
<polygon fill="#63b8ff" stroke="#63b8ff" points="131.13,-46.54 120.71,-48.44 130.05,-53.45 131.13,-46.54"/>
</g>
<!-- Node2 -->
<g id="node3" class="node">
<title>Node2</title>
<g id="a_node3"><a xlink:href="structuranus_1_1ecs_1_1component_1_1_sprite.html" target="_top" xlink:title=" ">
<polygon fill="white" stroke="#666666" points="274,-30 155,-30 155,0 274,0 274,-30"/>
<text text-anchor="start" x="163" y="-18" font-family="Helvetica,sans-Serif" font-size="10.00">uranus::ecs::component</text>
<text text-anchor="middle" x="214.5" y="-7" font-family="Helvetica,sans-Serif" font-size="10.00">::Sprite</text>
</a>
</g>
</g>
<!-- Node0&#45;&gt;Node2 -->
<g id="edge2" class="edge">
<title>Node0&#45;&gt;Node2</title>
<path fill="none" stroke="#63b8ff" d="M130.53,-28.01C138.61,-26.75 146.78,-25.47 154.69,-24.23"/>
<polygon fill="#63b8ff" stroke="#63b8ff" points="130.05,-24.55 120.71,-29.56 131.13,-31.46 130.05,-24.55"/>
</g>
</g>
</svg>
