<?xml version="1.0" encoding="UTF-8" standalone="no"?>
<!DOCTYPE svg PUBLIC "-//W3C//DTD SVG 1.1//EN"
 "http://www.w3.org/Graphics/SVG/1.1/DTD/svg11.dtd">
<!-- Generated by graphviz version 7.0.5 (20221223.1930)
 -->
<!-- Title: Graphical Class Hierarchy Pages: 1 -->
<svg width="380pt" height="38pt"
 viewBox="0.00 0.00 380.00 38.00" xmlns="http://www.w3.org/2000/svg" xmlns:xlink="http://www.w3.org/1999/xlink">
<g id="graph0" class="graph" transform="scale(1 1) rotate(0) translate(4 34)">
<title>Graphical Class Hierarchy</title>
<!-- Node0 -->
<g id="node1" class="node">
<title>Node0</title>
<g id="a_node1"><a xlink:title=" ">
<polygon fill="#e0e0e0" stroke="#999999" points="76,-24.5 0,-24.5 0,-5.5 76,-5.5 76,-24.5"/>
<text text-anchor="middle" x="38" y="-12.5" font-family="Helvetica,sans-Serif" font-size="10.00">std::exception</text>
</a>
</g>
</g>
<!-- Node1 -->
<g id="node2" class="node">
<title>Node1</title>
<g id="a_node2"><a xlink:href="classuranus_1_1ex_1_1_exception.html" target="_top" xlink:title="The exception class.">
<polygon fill="white" stroke="#666666" points="219,-24.5 112,-24.5 112,-5.5 219,-5.5 219,-24.5"/>
<text text-anchor="middle" x="165.5" y="-12.5" font-family="Helvetica,sans-Serif" font-size="10.00">uranus::ex::Exception</text>
</a>
</g>
</g>
<!-- Node0&#45;&gt;Node1 -->
<g id="edge1" class="edge">
<title>Node0&#45;&gt;Node1</title>
<path fill="none" stroke="#63b8ff" d="M87.62,-15C95.53,-15 103.76,-15 111.77,-15"/>
<polygon fill="#63b8ff" stroke="#63b8ff" points="87.83,-11.5 77.83,-15 87.83,-18.5 87.83,-11.5"/>
</g>
<!-- Node2 -->
<g id="node3" class="node">
<title>Node2</title>
<g id="a_node3"><a xlink:href="classuranus_1_1ex_1_1_invalid_entity_index.html" target="_top" xlink:title="Thrown when an entity has an invalid index.">
<polygon fill="white" stroke="#666666" points="372,-30 255,-30 255,0 372,0 372,-30"/>
<text text-anchor="start" x="263" y="-18" font-family="Helvetica,sans-Serif" font-size="10.00">uranus::ex::InvalidEntity</text>
<text text-anchor="middle" x="313.5" y="-7" font-family="Helvetica,sans-Serif" font-size="10.00">Index</text>
</a>
</g>
</g>
<!-- Node1&#45;&gt;Node2 -->
<g id="edge2" class="edge">
<title>Node1&#45;&gt;Node2</title>
<path fill="none" stroke="#63b8ff" d="M230.54,-15C238.66,-15 246.92,-15 254.93,-15"/>
<polygon fill="#63b8ff" stroke="#63b8ff" points="230.72,-11.5 220.72,-15 230.72,-18.5 230.72,-11.5"/>
</g>
</g>
</svg>
