<?xml version="1.0" encoding="UTF-8" standalone="no"?>
<!DOCTYPE svg PUBLIC "-//W3C//DTD SVG 1.1//EN"
 "http://www.w3.org/Graphics/SVG/1.1/DTD/svg11.dtd">
<!-- Generated by graphviz version 7.0.5 (20221223.1930)
 -->
<!-- Title: Graphical Class Hierarchy Pages: 1 -->
<svg width="426pt" height="854pt"
 viewBox="0.00 0.00 426.00 854.00" xmlns="http://www.w3.org/2000/svg" xmlns:xlink="http://www.w3.org/1999/xlink">
<g id="graph0" class="graph" transform="scale(1 1) rotate(0) translate(4 850)">
<title>Graphical Class Hierarchy</title>
<!-- Node0 -->
<g id="node1" class="node">
<title>Node0</title>
<g id="a_node1"><a xlink:title=" ">
<polygon fill="#e0e0e0" stroke="#999999" points="99,-432.5 0,-432.5 0,-413.5 99,-413.5 99,-432.5"/>
<text text-anchor="middle" x="49.5" y="-420.5" font-family="Helvetica,sans-Serif" font-size="10.00">sa::AbstractPacket</text>
</a>
</g>
</g>
<!-- Node1 -->
<g id="node2" class="node">
<title>Node1</title>
<g id="a_node2"><a xlink:href="classrtype_1_1network_1_1packet_1_1_c2_s_client_connect.html" target="_top" xlink:title=" ">
<polygon fill="white" stroke="#666666" points="255,-846 145,-846 145,-816 255,-816 255,-846"/>
<text text-anchor="start" x="153" y="-834" font-family="Helvetica,sans-Serif" font-size="10.00">rtype::network::packet</text>
<text text-anchor="middle" x="200" y="-823" font-family="Helvetica,sans-Serif" font-size="10.00">::C2SClientConnect</text>
</a>
</g>
</g>
<!-- Node0&#45;&gt;Node1 -->
<g id="edge1" class="edge">
<title>Node0&#45;&gt;Node1</title>
<path fill="none" stroke="#63b8ff" d="M52.5,-444.09C59.74,-516.15 86.7,-751.29 135,-807 137.88,-810.32 141.26,-813.18 144.94,-815.64"/>
<polygon fill="#63b8ff" stroke="#63b8ff" points="56.02,-444.06 51.56,-434.45 49.05,-444.74 56.02,-444.06"/>
</g>
<!-- Node2 -->
<g id="node3" class="node">
<title>Node2</title>
<g id="a_node3"><a xlink:href="classrtype_1_1network_1_1packet_1_1_c2_s_client_disconnecting.html" target="_top" xlink:title=" ">
<polygon fill="white" stroke="#666666" points="263,-798 137,-798 137,-768 263,-768 263,-798"/>
<text text-anchor="start" x="145" y="-786" font-family="Helvetica,sans-Serif" font-size="10.00">rtype::network::packet</text>
<text text-anchor="middle" x="200" y="-775" font-family="Helvetica,sans-Serif" font-size="10.00">::C2SClientDisconnecting</text>
</a>
</g>
</g>
<!-- Node0&#45;&gt;Node2 -->
<g id="edge2" class="edge">
<title>Node0&#45;&gt;Node2</title>
<path fill="none" stroke="#63b8ff" d="M53.26,-444.39C62.22,-510.7 92.36,-711.27 135,-759 137.93,-762.27 141.34,-765.1 145.05,-767.55"/>
<polygon fill="#63b8ff" stroke="#63b8ff" points="56.74,-443.95 51.95,-434.5 49.8,-444.87 56.74,-443.95"/>
</g>
<!-- Node3 -->
<g id="node4" class="node">
<title>Node3</title>
<g id="a_node4"><a xlink:href="classrtype_1_1network_1_1packet_1_1_c2_s_client_move.html" target="_top" xlink:title=" ">
<polygon fill="white" stroke="#666666" points="255,-750 145,-750 145,-720 255,-720 255,-750"/>
<text text-anchor="start" x="153" y="-738" font-family="Helvetica,sans-Serif" font-size="10.00">rtype::network::packet</text>
<text text-anchor="middle" x="200" y="-727" font-family="Helvetica,sans-Serif" font-size="10.00">::C2SClientMove</text>
</a>
</g>
</g>
<!-- Node0&#45;&gt;Node3 -->
<g id="edge3" class="edge">
<title>Node0&#45;&gt;Node3</title>
<path fill="none" stroke="#63b8ff" d="M50.59,-444.39C51.97,-496.84 62.74,-633.23 135,-711 138.07,-714.3 141.64,-717.15 145.49,-719.62"/>
<polygon fill="#63b8ff" stroke="#63b8ff" points="54.09,-444.4 50.43,-434.46 47.09,-444.51 54.09,-444.4"/>
</g>
<!-- Node4 -->
<g id="node5" class="node">
<title>Node4</title>
<g id="a_node5"><a xlink:href="classrtype_1_1network_1_1packet_1_1_c2_s_kill_entity.html" target="_top" xlink:title=" ">
<polygon fill="white" stroke="#666666" points="255,-702 145,-702 145,-672 255,-672 255,-702"/>
<text text-anchor="start" x="153" y="-690" font-family="Helvetica,sans-Serif" font-size="10.00">rtype::network::packet</text>
<text text-anchor="middle" x="200" y="-679" font-family="Helvetica,sans-Serif" font-size="10.00">::C2SKillEntity</text>
</a>
</g>
</g>
<!-- Node0&#45;&gt;Node4 -->
<g id="edge4" class="edge">
<title>Node0&#45;&gt;Node4</title>
<path fill="none" stroke="#63b8ff" d="M52.06,-444.17C56.57,-490.2 73.52,-600.27 135,-663 138.24,-666.31 141.98,-669.16 145.99,-671.63"/>
<polygon fill="#63b8ff" stroke="#63b8ff" points="55.55,-443.92 51.21,-434.26 48.58,-444.52 55.55,-443.92"/>
</g>
<!-- Node6 -->
<g id="node7" class="node">
<title>Node6</title>
<g id="a_node7"><a xlink:href="classrtype_1_1network_1_1packet_1_1_c2_s_player_handshake.html" target="_top" xlink:title=" ">
<polygon fill="white" stroke="#666666" points="258,-654 142,-654 142,-624 258,-624 258,-654"/>
<text text-anchor="start" x="150" y="-642" font-family="Helvetica,sans-Serif" font-size="10.00">rtype::network::packet</text>
<text text-anchor="middle" x="200" y="-631" font-family="Helvetica,sans-Serif" font-size="10.00">::C2SPlayerHandshake</text>
</a>
</g>
</g>
<!-- Node0&#45;&gt;Node6 -->
<g id="edge6" class="edge">
<title>Node0&#45;&gt;Node6</title>
<path fill="none" stroke="#63b8ff" d="M54.2,-444.12C62.12,-483.17 84.25,-567.01 135,-615 138.45,-618.26 142.38,-621.09 146.56,-623.54"/>
<polygon fill="#63b8ff" stroke="#63b8ff" points="57.66,-443.58 52.36,-434.41 50.79,-444.88 57.66,-443.58"/>
</g>
<!-- Node7 -->
<g id="node8" class="node">
<title>Node7</title>
<g id="a_node8"><a xlink:href="classrtype_1_1network_1_1packet_1_1_c2_s_player_ready.html" target="_top" xlink:title=" ">
<polygon fill="white" stroke="#666666" points="255,-606 145,-606 145,-576 255,-576 255,-606"/>
<text text-anchor="start" x="153" y="-594" font-family="Helvetica,sans-Serif" font-size="10.00">rtype::network::packet</text>
<text text-anchor="middle" x="200" y="-583" font-family="Helvetica,sans-Serif" font-size="10.00">::C2SPlayerReady</text>
</a>
</g>
</g>
<!-- Node0&#45;&gt;Node7 -->
<g id="edge7" class="edge">
<title>Node0&#45;&gt;Node7</title>
<path fill="none" stroke="#63b8ff" d="M57.51,-443.7C68.99,-474.67 94.66,-533.06 135,-567 138.9,-570.29 143.3,-573.14 147.92,-575.63"/>
<polygon fill="#63b8ff" stroke="#63b8ff" points="60.84,-442.61 54.19,-434.36 54.24,-444.96 60.84,-442.61"/>
</g>
<!-- Node8 -->
<g id="node9" class="node">
<title>Node8</title>
<g id="a_node9"><a xlink:href="classrtype_1_1network_1_1packet_1_1_c2_s_player_shoot.html" target="_top" xlink:title=" ">
<polygon fill="white" stroke="#666666" points="255,-558 145,-558 145,-528 255,-528 255,-558"/>
<text text-anchor="start" x="153" y="-546" font-family="Helvetica,sans-Serif" font-size="10.00">rtype::network::packet</text>
<text text-anchor="middle" x="200" y="-535" font-family="Helvetica,sans-Serif" font-size="10.00">::C2SPlayerShoot</text>
</a>
</g>
</g>
<!-- Node0&#45;&gt;Node8 -->
<g id="edge8" class="edge">
<title>Node0&#45;&gt;Node8</title>
<path fill="none" stroke="#63b8ff" d="M63.05,-442.21C77.91,-463.62 104.53,-497.98 135,-519 139.69,-522.23 144.87,-525.1 150.19,-527.62"/>
<polygon fill="#63b8ff" stroke="#63b8ff" points="66.07,-440.44 57.58,-434.12 60.27,-444.36 66.07,-440.44"/>
</g>
<!-- Node9 -->
<g id="node10" class="node">
<title>Node9</title>
<g id="a_node10"><a xlink:href="classrtype_1_1network_1_1packet_1_1_c2_s_prepare_shoot.html" target="_top" xlink:title=" ">
<polygon fill="white" stroke="#666666" points="255,-510 145,-510 145,-480 255,-480 255,-510"/>
<text text-anchor="start" x="153" y="-498" font-family="Helvetica,sans-Serif" font-size="10.00">rtype::network::packet</text>
<text text-anchor="middle" x="200" y="-487" font-family="Helvetica,sans-Serif" font-size="10.00">::C2SPrepareShoot</text>
</a>
</g>
</g>
<!-- Node0&#45;&gt;Node9 -->
<g id="edge9" class="edge">
<title>Node0&#45;&gt;Node9</title>
<path fill="none" stroke="#63b8ff" d="M75.77,-438.75C92.28,-448.69 114.5,-461.41 135,-471 141.34,-473.97 148.16,-476.84 154.9,-479.51"/>
<polygon fill="#63b8ff" stroke="#63b8ff" points="77.95,-435.98 67.59,-433.76 74.31,-441.96 77.95,-435.98"/>
</g>
<!-- Node10 -->
<g id="node11" class="node">
<title>Node10</title>
<g id="a_node11"><a xlink:href="classrtype_1_1network_1_1packet_1_1_c2_s_scene_loaded.html" target="_top" xlink:title=" ">
<polygon fill="white" stroke="#666666" points="255,-462 145,-462 145,-432 255,-432 255,-462"/>
<text text-anchor="start" x="153" y="-450" font-family="Helvetica,sans-Serif" font-size="10.00">rtype::network::packet</text>
<text text-anchor="middle" x="200" y="-439" font-family="Helvetica,sans-Serif" font-size="10.00">::C2SSceneLoaded</text>
</a>
</g>
</g>
<!-- Node0&#45;&gt;Node10 -->
<g id="edge10" class="edge">
<title>Node0&#45;&gt;Node10</title>
<path fill="none" stroke="#63b8ff" d="M110.28,-432.66C121.62,-434.49 133.44,-436.4 144.61,-438.21"/>
<polygon fill="#63b8ff" stroke="#63b8ff" points="111.05,-429.24 100.62,-431.1 109.93,-436.15 111.05,-429.24"/>
</g>
<!-- Node11 -->
<g id="node12" class="node">
<title>Node11</title>
<g id="a_node12"><a xlink:href="classrtype_1_1network_1_1packet_1_1_s2_c_client_connected.html" target="_top" xlink:title="Response to C2SClientConnect packet.">
<polygon fill="white" stroke="#666666" points="255.5,-414 144.5,-414 144.5,-384 255.5,-384 255.5,-414"/>
<text text-anchor="start" x="152.5" y="-402" font-family="Helvetica,sans-Serif" font-size="10.00">rtype::network::packet</text>
<text text-anchor="middle" x="200" y="-391" font-family="Helvetica,sans-Serif" font-size="10.00">::S2CClientConnected</text>
</a>
</g>
</g>
<!-- Node0&#45;&gt;Node11 -->
<g id="edge11" class="edge">
<title>Node0&#45;&gt;Node11</title>
<path fill="none" stroke="#63b8ff" d="M110.14,-413.36C121.36,-411.55 133.03,-409.66 144.09,-407.87"/>
<polygon fill="#63b8ff" stroke="#63b8ff" points="109.93,-409.85 100.62,-414.9 111.05,-416.76 109.93,-409.85"/>
</g>
<!-- Node12 -->
<g id="node13" class="node">
<title>Node12</title>
<g id="a_node13"><a xlink:href="classrtype_1_1network_1_1packet_1_1_s2_c_entity_move.html" target="_top" xlink:title=" ">
<polygon fill="white" stroke="#666666" points="255,-366 145,-366 145,-336 255,-336 255,-366"/>
<text text-anchor="start" x="153" y="-354" font-family="Helvetica,sans-Serif" font-size="10.00">rtype::network::packet</text>
<text text-anchor="middle" x="200" y="-343" font-family="Helvetica,sans-Serif" font-size="10.00">::S2CEntityMove</text>
</a>
</g>
</g>
<!-- Node0&#45;&gt;Node12 -->
<g id="edge12" class="edge">
<title>Node0&#45;&gt;Node12</title>
<path fill="none" stroke="#63b8ff" d="M75.77,-407.25C92.28,-397.31 114.5,-384.59 135,-375 141.34,-372.03 148.16,-369.16 154.9,-366.49"/>
<polygon fill="#63b8ff" stroke="#63b8ff" points="74.31,-404.04 67.59,-412.24 77.95,-410.02 74.31,-404.04"/>
</g>
<!-- Node14 -->
<g id="node15" class="node">
<title>Node14</title>
<g id="a_node15"><a xlink:href="classrtype_1_1network_1_1packet_1_1_s2_c_entity_spawn.html" target="_top" xlink:title=" ">
<polygon fill="white" stroke="#666666" points="255,-318 145,-318 145,-288 255,-288 255,-318"/>
<text text-anchor="start" x="153" y="-306" font-family="Helvetica,sans-Serif" font-size="10.00">rtype::network::packet</text>
<text text-anchor="middle" x="200" y="-295" font-family="Helvetica,sans-Serif" font-size="10.00">::S2CEntitySpawn</text>
</a>
</g>
</g>
<!-- Node0&#45;&gt;Node14 -->
<g id="edge14" class="edge">
<title>Node0&#45;&gt;Node14</title>
<path fill="none" stroke="#63b8ff" d="M63.05,-403.79C77.91,-382.38 104.53,-348.02 135,-327 139.69,-323.77 144.87,-320.9 150.19,-318.38"/>
<polygon fill="#63b8ff" stroke="#63b8ff" points="60.27,-401.64 57.58,-411.88 66.07,-405.56 60.27,-401.64"/>
</g>
<!-- Node17 -->
<g id="node18" class="node">
<title>Node17</title>
<g id="a_node18"><a xlink:href="classrtype_1_1network_1_1packet_1_1_s2_c_game_started.html" target="_top" xlink:title=" ">
<polygon fill="white" stroke="#666666" points="255,-270 145,-270 145,-240 255,-240 255,-270"/>
<text text-anchor="start" x="153" y="-258" font-family="Helvetica,sans-Serif" font-size="10.00">rtype::network::packet</text>
<text text-anchor="middle" x="200" y="-247" font-family="Helvetica,sans-Serif" font-size="10.00">::S2CGameStarted</text>
</a>
</g>
</g>
<!-- Node0&#45;&gt;Node17 -->
<g id="edge17" class="edge">
<title>Node0&#45;&gt;Node17</title>
<path fill="none" stroke="#63b8ff" d="M57.51,-402.3C68.99,-371.33 94.66,-312.94 135,-279 138.9,-275.71 143.3,-272.86 147.92,-270.37"/>
<polygon fill="#63b8ff" stroke="#63b8ff" points="54.24,-401.04 54.19,-411.64 60.84,-403.39 54.24,-401.04"/>
</g>
<!-- Node18 -->
<g id="node19" class="node">
<title>Node18</title>
<g id="a_node19"><a xlink:href="classrtype_1_1network_1_1packet_1_1_s2_c_player_authentified.html" target="_top" xlink:title=" ">
<polygon fill="white" stroke="#666666" points="259,-222 141,-222 141,-192 259,-192 259,-222"/>
<text text-anchor="start" x="149" y="-210" font-family="Helvetica,sans-Serif" font-size="10.00">rtype::network::packet</text>
<text text-anchor="middle" x="200" y="-199" font-family="Helvetica,sans-Serif" font-size="10.00">::S2CPlayerAuthentified</text>
</a>
</g>
</g>
<!-- Node0&#45;&gt;Node18 -->
<g id="edge18" class="edge">
<title>Node0&#45;&gt;Node18</title>
<path fill="none" stroke="#63b8ff" d="M54.2,-401.88C62.12,-362.83 84.25,-278.99 135,-231 138.45,-227.74 142.38,-224.91 146.56,-222.46"/>
<polygon fill="#63b8ff" stroke="#63b8ff" points="50.79,-401.12 52.36,-411.59 57.66,-402.42 50.79,-401.12"/>
</g>
<!-- Node19 -->
<g id="node20" class="node">
<title>Node19</title>
<g id="a_node20"><a xlink:href="classrtype_1_1network_1_1packet_1_1_s2_c_player_charging_bullet.html" target="_top" xlink:title=" ">
<polygon fill="white" stroke="#666666" points="265,-174 135,-174 135,-144 265,-144 265,-174"/>
<text text-anchor="start" x="143" y="-162" font-family="Helvetica,sans-Serif" font-size="10.00">rtype::network::packet</text>
<text text-anchor="middle" x="200" y="-151" font-family="Helvetica,sans-Serif" font-size="10.00">::S2CPlayerChargingBullet</text>
</a>
</g>
</g>
<!-- Node0&#45;&gt;Node19 -->
<g id="edge19" class="edge">
<title>Node0&#45;&gt;Node19</title>
<path fill="none" stroke="#63b8ff" d="M52.06,-401.83C56.57,-355.8 73.52,-245.73 135,-183 138.24,-179.69 141.98,-176.84 145.99,-174.37"/>
<polygon fill="#63b8ff" stroke="#63b8ff" points="48.58,-401.48 51.21,-411.74 55.55,-402.08 48.58,-401.48"/>
</g>
<!-- Node21 -->
<g id="node22" class="node">
<title>Node21</title>
<g id="a_node22"><a xlink:href="classrtype_1_1network_1_1packet_1_1_s2_c_player_score.html" target="_top" xlink:title=" ">
<polygon fill="white" stroke="#666666" points="255,-126 145,-126 145,-96 255,-96 255,-126"/>
<text text-anchor="start" x="153" y="-114" font-family="Helvetica,sans-Serif" font-size="10.00">rtype::network::packet</text>
<text text-anchor="middle" x="200" y="-103" font-family="Helvetica,sans-Serif" font-size="10.00">::S2CPlayerScore</text>
</a>
</g>
</g>
<!-- Node0&#45;&gt;Node21 -->
<g id="edge21" class="edge">
<title>Node0&#45;&gt;Node21</title>
<path fill="none" stroke="#63b8ff" d="M50.59,-401.61C51.97,-349.16 62.74,-212.77 135,-135 138.07,-131.7 141.64,-128.85 145.49,-126.38"/>
<polygon fill="#63b8ff" stroke="#63b8ff" points="47.09,-401.49 50.43,-411.54 54.09,-401.6 47.09,-401.49"/>
</g>
<!-- Node22 -->
<g id="node23" class="node">
<title>Node22</title>
<g id="a_node23"><a xlink:href="classrtype_1_1network_1_1packet_1_1_s2_c_remove_entity.html" target="_top" xlink:title=" ">
<polygon fill="white" stroke="#666666" points="255,-78 145,-78 145,-48 255,-48 255,-78"/>
<text text-anchor="start" x="153" y="-66" font-family="Helvetica,sans-Serif" font-size="10.00">rtype::network::packet</text>
<text text-anchor="middle" x="200" y="-55" font-family="Helvetica,sans-Serif" font-size="10.00">::S2CRemoveEntity</text>
</a>
</g>
</g>
<!-- Node0&#45;&gt;Node22 -->
<g id="edge22" class="edge">
<title>Node0&#45;&gt;Node22</title>
<path fill="none" stroke="#63b8ff" d="M53.26,-401.61C62.22,-335.3 92.36,-134.73 135,-87 137.93,-83.73 141.34,-80.9 145.05,-78.45"/>
<polygon fill="#63b8ff" stroke="#63b8ff" points="49.8,-401.13 51.95,-411.5 56.74,-402.05 49.8,-401.13"/>
</g>
<!-- Node24 -->
<g id="node25" class="node">
<title>Node24</title>
<g id="a_node25"><a xlink:href="classrtype_1_1network_1_1packet_1_1_s2_c_sync_player.html" target="_top" xlink:title=" ">
<polygon fill="white" stroke="#666666" points="255,-30 145,-30 145,0 255,0 255,-30"/>
<text text-anchor="start" x="153" y="-18" font-family="Helvetica,sans-Serif" font-size="10.00">rtype::network::packet</text>
<text text-anchor="middle" x="200" y="-7" font-family="Helvetica,sans-Serif" font-size="10.00">::S2CSyncPlayer</text>
</a>
</g>
</g>
<!-- Node0&#45;&gt;Node24 -->
<g id="edge24" class="edge">
<title>Node0&#45;&gt;Node24</title>
<path fill="none" stroke="#63b8ff" d="M52.5,-401.91C59.74,-329.85 86.7,-94.71 135,-39 137.88,-35.68 141.26,-32.82 144.94,-30.36"/>
<polygon fill="#63b8ff" stroke="#63b8ff" points="49.05,-401.26 51.56,-411.55 56.02,-401.94 49.05,-401.26"/>
</g>
<!-- Node5 -->
<g id="node6" class="node">
<title>Node5</title>
<g id="a_node6"><a xlink:href="classrtype_1_1network_1_1packet_1_1_c2_s_kill_player.html" target="_top" xlink:title=" ">
<polygon fill="white" stroke="#666666" points="414.5,-702 304.5,-702 304.5,-672 414.5,-672 414.5,-702"/>
<text text-anchor="start" x="312.5" y="-690" font-family="Helvetica,sans-Serif" font-size="10.00">rtype::network::packet</text>
<text text-anchor="middle" x="359.5" y="-679" font-family="Helvetica,sans-Serif" font-size="10.00">::C2SKillPlayer</text>
</a>
</g>
</g>
<!-- Node4&#45;&gt;Node5 -->
<g id="edge5" class="edge">
<title>Node4&#45;&gt;Node5</title>
<path fill="none" stroke="#63b8ff" d="M266.54,-687C279.08,-687 292.07,-687 304.2,-687"/>
<polygon fill="#63b8ff" stroke="#63b8ff" points="266.72,-683.5 256.72,-687 266.72,-690.5 266.72,-683.5"/>
</g>
<!-- Node13 -->
<g id="node14" class="node">
<title>Node13</title>
<g id="a_node14"><a xlink:href="classrtype_1_1network_1_1packet_1_1_s2_c_player_move.html" target="_top" xlink:title=" ">
<polygon fill="white" stroke="#666666" points="414.5,-366 304.5,-366 304.5,-336 414.5,-336 414.5,-366"/>
<text text-anchor="start" x="312.5" y="-354" font-family="Helvetica,sans-Serif" font-size="10.00">rtype::network::packet</text>
<text text-anchor="middle" x="359.5" y="-343" font-family="Helvetica,sans-Serif" font-size="10.00">::S2CPlayerMove</text>
</a>
</g>
</g>
<!-- Node12&#45;&gt;Node13 -->
<g id="edge13" class="edge">
<title>Node12&#45;&gt;Node13</title>
<path fill="none" stroke="#63b8ff" d="M266.54,-351C279.08,-351 292.07,-351 304.2,-351"/>
<polygon fill="#63b8ff" stroke="#63b8ff" points="266.72,-347.5 256.72,-351 266.72,-354.5 266.72,-347.5"/>
</g>
<!-- Node15 -->
<g id="node16" class="node">
<title>Node15</title>
<g id="a_node16"><a xlink:href="classrtype_1_1network_1_1packet_1_1_s2_c_spawn_bullet.html" target="_top" xlink:title=" ">
<polygon fill="white" stroke="#666666" points="414.5,-318 304.5,-318 304.5,-288 414.5,-288 414.5,-318"/>
<text text-anchor="start" x="312.5" y="-306" font-family="Helvetica,sans-Serif" font-size="10.00">rtype::network::packet</text>
<text text-anchor="middle" x="359.5" y="-295" font-family="Helvetica,sans-Serif" font-size="10.00">::S2CSpawnBullet</text>
</a>
</g>
</g>
<!-- Node14&#45;&gt;Node15 -->
<g id="edge15" class="edge">
<title>Node14&#45;&gt;Node15</title>
<path fill="none" stroke="#63b8ff" d="M266.54,-303C279.08,-303 292.07,-303 304.2,-303"/>
<polygon fill="#63b8ff" stroke="#63b8ff" points="266.72,-299.5 256.72,-303 266.72,-306.5 266.72,-299.5"/>
</g>
<!-- Node16 -->
<g id="node17" class="node">
<title>Node16</title>
<g id="a_node17"><a xlink:href="classrtype_1_1network_1_1packet_1_1_s2_c_spawn_player.html" target="_top" xlink:title=" ">
<polygon fill="white" stroke="#666666" points="414.5,-270 304.5,-270 304.5,-240 414.5,-240 414.5,-270"/>
<text text-anchor="start" x="312.5" y="-258" font-family="Helvetica,sans-Serif" font-size="10.00">rtype::network::packet</text>
<text text-anchor="middle" x="359.5" y="-247" font-family="Helvetica,sans-Serif" font-size="10.00">::S2CSpawnPlayer</text>
</a>
</g>
</g>
<!-- Node14&#45;&gt;Node16 -->
<g id="edge16" class="edge">
<title>Node14&#45;&gt;Node16</title>
<path fill="none" stroke="#63b8ff" d="M262.46,-284.27C277.5,-279.68 293.43,-274.83 307.89,-270.42"/>
<polygon fill="#63b8ff" stroke="#63b8ff" points="261.69,-280.84 253.15,-287.11 263.73,-287.54 261.69,-280.84"/>
</g>
<!-- Node20 -->
<g id="node21" class="node">
<title>Node20</title>
<g id="a_node21"><a xlink:href="classrtype_1_1network_1_1packet_1_1_s2_c_player_shoot_bullet.html" target="_top" xlink:title=" ">
<polygon fill="white" stroke="#666666" points="418,-174 301,-174 301,-144 418,-144 418,-174"/>
<text text-anchor="start" x="309" y="-162" font-family="Helvetica,sans-Serif" font-size="10.00">rtype::network::packet</text>
<text text-anchor="middle" x="359.5" y="-151" font-family="Helvetica,sans-Serif" font-size="10.00">::S2CPlayerShootBullet</text>
</a>
</g>
</g>
<!-- Node19&#45;&gt;Node20 -->
<g id="edge20" class="edge">
<title>Node19&#45;&gt;Node20</title>
<path fill="none" stroke="#63b8ff" d="M276.46,-159C284.57,-159 292.72,-159 300.58,-159"/>
<polygon fill="#63b8ff" stroke="#63b8ff" points="276.57,-155.5 266.57,-159 276.57,-162.5 276.57,-155.5"/>
</g>
<!-- Node23 -->
<g id="node24" class="node">
<title>Node23</title>
<g id="a_node24"><a xlink:href="classrtype_1_1network_1_1packet_1_1_s2_c_remove_player.html" target="_top" xlink:title=" ">
<polygon fill="white" stroke="#666666" points="414.5,-78 304.5,-78 304.5,-48 414.5,-48 414.5,-78"/>
<text text-anchor="start" x="312.5" y="-66" font-family="Helvetica,sans-Serif" font-size="10.00">rtype::network::packet</text>
<text text-anchor="middle" x="359.5" y="-55" font-family="Helvetica,sans-Serif" font-size="10.00">::S2CRemovePlayer</text>
</a>
</g>
</g>
<!-- Node22&#45;&gt;Node23 -->
<g id="edge23" class="edge">
<title>Node22&#45;&gt;Node23</title>
<path fill="none" stroke="#63b8ff" d="M266.54,-63C279.08,-63 292.07,-63 304.2,-63"/>
<polygon fill="#63b8ff" stroke="#63b8ff" points="266.72,-59.5 256.72,-63 266.72,-66.5 266.72,-59.5"/>
</g>
</g>
</svg>
