<?xml version="1.0" encoding="UTF-8" standalone="no"?>
<!DOCTYPE svg PUBLIC "-//W3C//DTD SVG 1.1//EN"
 "http://www.w3.org/Graphics/SVG/1.1/DTD/svg11.dtd">
<!-- Generated by graphviz version 7.0.5 (20221223.1930)
 -->
<!-- Title: Graphical Class Hierarchy Pages: 1 -->
<svg width="171pt" height="64pt"
 viewBox="0.00 0.00 171.00 64.00" xmlns="http://www.w3.org/2000/svg" xmlns:xlink="http://www.w3.org/1999/xlink">
<g id="graph0" class="graph" transform="scale(1 1) rotate(0) translate(4 60)">
<title>Graphical Class Hierarchy</title>
<!-- Node0 -->
<g id="node1" class="node">
<title>Node0</title>
<g id="a_node1"><a xlink:title=" ">
<polygon fill="#e0e0e0" stroke="#999999" points="81,-56 11,-56 11,-37 81,-37 81,-56"/>
<text text-anchor="middle" x="46" y="-44" font-family="Helvetica,sans-Serif" font-size="10.00">sf::Drawable</text>
</a>
</g>
</g>
<!-- Node1 -->
<g id="node2" class="node">
<title>Node1</title>
<g id="a_node2"><a xlink:href="class_map.html" target="_top" xlink:title=" ">
<polygon fill="white" stroke="#666666" points="163,-37 128,-37 128,-18 163,-18 163,-37"/>
<text text-anchor="middle" x="145.5" y="-25" font-family="Helvetica,sans-Serif" font-size="10.00">Map</text>
</a>
</g>
</g>
<!-- Node0&#45;&gt;Node1 -->
<g id="edge1" class="edge">
<title>Node0&#45;&gt;Node1</title>
<path fill="none" stroke="#63b8ff" d="M92.66,-37.6C105.14,-35.17 117.89,-32.68 127.63,-30.79"/>
<polygon fill="#63b8ff" stroke="#63b8ff" points="92.01,-34.16 82.86,-39.51 93.35,-41.03 92.01,-34.16"/>
</g>
<!-- Node2 -->
<g id="node3" class="node">
<title>Node2</title>
<g id="a_node3"><a xlink:title=" ">
<polygon fill="#e0e0e0" stroke="#999999" points="92,-19 0,-19 0,0 92,0 92,-19"/>
<text text-anchor="middle" x="46" y="-7" font-family="Helvetica,sans-Serif" font-size="10.00">sf::Transformable</text>
</a>
</g>
</g>
<!-- Node2&#45;&gt;Node1 -->
<g id="edge2" class="edge">
<title>Node2&#45;&gt;Node1</title>
<path fill="none" stroke="#63b8ff" d="M103.36,-19.9C112.33,-21.56 120.95,-23.15 127.96,-24.45"/>
<polygon fill="#63b8ff" stroke="#63b8ff" points="104.28,-16.52 93.81,-18.14 103.01,-23.4 104.28,-16.52"/>
</g>
</g>
</svg>
