<?xml version="1.0" encoding="UTF-8" standalone="no"?>
<!DOCTYPE svg PUBLIC "-//W3C//DTD SVG 1.1//EN"
 "http://www.w3.org/Graphics/SVG/1.1/DTD/svg11.dtd">
<!-- Generated by graphviz version 7.0.5 (20221223.1930)
 -->
<!-- Title: InputTextCallback_UserData Pages: 1 -->
<svg width="243pt" height="160pt"
 viewBox="0.00 0.00 243.00 160.00" xmlns="http://www.w3.org/2000/svg" xmlns:xlink="http://www.w3.org/1999/xlink">
<g id="graph0" class="graph" transform="scale(1 1) rotate(0) translate(4 156)">
<title>InputTextCallback_UserData</title>
<!-- Node1 -->
<g id="node1" class="node">
<title>Node1</title>
<g id="a_node1"><a xlink:title=" ">
<polygon fill="#999999" stroke="#666666" points="205,-19 64,-19 64,0 205,0 205,-19"/>
<text text-anchor="middle" x="134.5" y="-7" font-family="Helvetica,sans-Serif" font-size="10.00">InputTextCallback_UserData</text>
</a>
</g>
</g>
<!-- Node2 -->
<g id="node2" class="node">
<title>Node2</title>
<g id="a_node2"><a xlink:title=" ">
<polygon fill="white" stroke="#666666" points="76,-85 17,-85 17,-66 76,-66 76,-85"/>
<text text-anchor="middle" x="46.5" y="-73" font-family="Helvetica,sans-Serif" font-size="10.00">std::string</text>
</a>
</g>
</g>
<!-- Node2&#45;&gt;Node1 -->
<g id="edge1" class="edge">
<title>Node2&#45;&gt;Node1</title>
<path fill="none" stroke="#9a32cd" stroke-dasharray="5,2" d="M67.96,-58.89C85.05,-46.46 108.36,-29.51 122.37,-19.32"/>
<polygon fill="#9a32cd" stroke="#9a32cd" points="65.99,-56 59.96,-64.71 70.11,-61.66 65.99,-56"/>
<text text-anchor="middle" x="104.5" y="-40" font-family="Helvetica,sans-Serif" font-size="10.00"> Str</text>
</g>
<!-- Node3 -->
<g id="node3" class="node">
<title>Node3</title>
<g id="a_node3"><a xlink:title=" ">
<polygon fill="white" stroke="#666666" points="93,-152 0,-152 0,-122 93,-122 93,-152"/>
<text text-anchor="start" x="8" y="-140" font-family="Helvetica,sans-Serif" font-size="10.00">std::basic_string&lt;</text>
<text text-anchor="middle" x="46.5" y="-129" font-family="Helvetica,sans-Serif" font-size="10.00"> Char &gt;</text>
</a>
</g>
</g>
<!-- Node3&#45;&gt;Node2 -->
<g id="edge2" class="edge">
<title>Node3&#45;&gt;Node2</title>
<path fill="none" stroke="#63b8ff" d="M46.5,-110.13C46.5,-101.29 46.5,-91.99 46.5,-85.42"/>
<polygon fill="#63b8ff" stroke="#63b8ff" points="43,-110.08 46.5,-120.08 50,-110.08 43,-110.08"/>
</g>
<!-- Node4 -->
<g id="node4" class="node">
<title>Node4</title>
<g id="a_node4"><a xlink:href="struct_im_gui_input_text_callback_data.html" target="_top" xlink:title=" ">
<polygon fill="white" stroke="#bfbfbf" points="235,-85 94,-85 94,-66 235,-66 235,-85"/>
<text text-anchor="middle" x="164.5" y="-73" font-family="Helvetica,sans-Serif" font-size="10.00">ImGuiInputTextCallbackData</text>
</a>
</g>
</g>
<!-- Node4&#45;&gt;Node1 -->
<g id="edge3" class="edge">
<title>Node4&#45;&gt;Node1</title>
<path fill="none" stroke="#9a32cd" stroke-dasharray="5,2" d="M155.5,-55.3C149.9,-43.35 142.97,-28.56 138.64,-19.32"/>
<polygon fill="#9a32cd" stroke="#9a32cd" points="152.27,-56.66 159.69,-64.23 158.61,-53.69 152.27,-56.66"/>
<text text-anchor="middle" x="183" y="-40" font-family="Helvetica,sans-Serif" font-size="10.00"> ChainCallback</text>
</g>
</g>
</svg>
