<?xml version="1.0" encoding="UTF-8" standalone="no"?>
<!DOCTYPE svg PUBLIC "-//W3C//DTD SVG 1.1//EN"
 "http://www.w3.org/Graphics/SVG/1.1/DTD/svg11.dtd">
<!-- Generated by graphviz version 7.0.5 (20221223.1930)
 -->
<!-- Title: ImGuiStyle Pages: 1 -->
<svg width="197pt" height="203pt"
 viewBox="0.00 0.00 197.00 203.00" xmlns="http://www.w3.org/2000/svg" xmlns:xlink="http://www.w3.org/1999/xlink">
<g id="graph0" class="graph" transform="scale(1 1) rotate(0) translate(4 199)">
<title>ImGuiStyle</title>
<!-- Node1 -->
<g id="node1" class="node">
<title>Node1</title>
<g id="a_node1"><a xlink:title=" ">
<polygon fill="#999999" stroke="#666666" points="122.5,-19 57.5,-19 57.5,0 122.5,0 122.5,-19"/>
<text text-anchor="middle" x="90" y="-7" font-family="Helvetica,sans-Serif" font-size="10.00">ImGuiStyle</text>
</a>
</g>
</g>
<!-- Node2 -->
<g id="node2" class="node">
<title>Node2</title>
<g id="a_node2"><a xlink:href="struct_im_vec2.html" target="_top" xlink:title=" ">
<polygon fill="white" stroke="#bfbfbf" points="50,-195 0,-195 0,-176 50,-176 50,-195"/>
<text text-anchor="middle" x="25" y="-183" font-family="Helvetica,sans-Serif" font-size="10.00">ImVec2</text>
</a>
</g>
</g>
<!-- Node2&#45;&gt;Node1 -->
<g id="edge1" class="edge">
<title>Node2&#45;&gt;Node1</title>
<path fill="none" stroke="#9a32cd" stroke-dasharray="5,2" d="M18.79,-164.75C10.54,-134.42 -0.14,-75.84 26,-37 33.12,-26.43 45.31,-20.06 57.16,-16.24"/>
<polygon fill="#9a32cd" stroke="#9a32cd" points="15.36,-165.48 21.53,-174.1 22.07,-163.51 15.36,-165.48"/>
<text text-anchor="middle" x="80" y="-150" font-family="Helvetica,sans-Serif" font-size="10.00"> ButtonTextAlign</text>
<text text-anchor="middle" x="80" y="-139" font-family="Helvetica,sans-Serif" font-size="10.00">CellPadding</text>
<text text-anchor="middle" x="80" y="-128" font-family="Helvetica,sans-Serif" font-size="10.00">DisplaySafeAreaPadding</text>
<text text-anchor="middle" x="80" y="-117" font-family="Helvetica,sans-Serif" font-size="10.00">DisplayWindowPadding</text>
<text text-anchor="middle" x="80" y="-106" font-family="Helvetica,sans-Serif" font-size="10.00">FramePadding</text>
<text text-anchor="middle" x="80" y="-95" font-family="Helvetica,sans-Serif" font-size="10.00">ItemInnerSpacing</text>
<text text-anchor="middle" x="80" y="-84" font-family="Helvetica,sans-Serif" font-size="10.00">ItemSpacing</text>
<text text-anchor="middle" x="80" y="-73" font-family="Helvetica,sans-Serif" font-size="10.00">SelectableTextAlign</text>
<text text-anchor="middle" x="80" y="-62" font-family="Helvetica,sans-Serif" font-size="10.00">SeparatorTextAlign</text>
<text text-anchor="middle" x="80" y="-51" font-family="Helvetica,sans-Serif" font-size="10.00">SeparatorTextPadding</text>
<text text-anchor="middle" x="80" y="-40" font-family="Helvetica,sans-Serif" font-size="10.00">...</text>
</g>
<!-- Node3 -->
<g id="node3" class="node">
<title>Node3</title>
<g id="a_node3"><a xlink:href="struct_im_vec4.html" target="_top" xlink:title=" ">
<polygon fill="white" stroke="#bfbfbf" points="181,-195 131,-195 131,-176 181,-176 181,-195"/>
<text text-anchor="middle" x="156" y="-183" font-family="Helvetica,sans-Serif" font-size="10.00">ImVec4</text>
</a>
</g>
</g>
<!-- Node3&#45;&gt;Node1 -->
<g id="edge2" class="edge">
<title>Node3&#45;&gt;Node1</title>
<path fill="none" stroke="#9a32cd" stroke-dasharray="5,2" d="M158.1,-164.48C160.24,-134.21 160.15,-76.2 134,-37 128.85,-29.29 120.63,-23.47 112.67,-19.27"/>
<polygon fill="#9a32cd" stroke="#9a32cd" points="154.65,-163.84 157.26,-174.1 161.62,-164.45 154.65,-163.84"/>
<text text-anchor="middle" x="173.5" y="-95" font-family="Helvetica,sans-Serif" font-size="10.00"> Colors</text>
</g>
</g>
</svg>
