<?xml version="1.0" encoding="UTF-8" standalone="no"?>
<!DOCTYPE svg PUBLIC "-//W3C//DTD SVG 1.1//EN"
 "http://www.w3.org/Graphics/SVG/1.1/DTD/svg11.dtd">
<!-- Generated by graphviz version 7.0.5 (20221223.1930)
 -->
<!-- Title: ImDrawListSharedData Pages: 1 -->
<svg width="964pt" height="459pt"
 viewBox="0.00 0.00 964.00 458.50" xmlns="http://www.w3.org/2000/svg" xmlns:xlink="http://www.w3.org/1999/xlink">
<g id="graph0" class="graph" transform="scale(1 1) rotate(0) translate(4 454.5)">
<title>ImDrawListSharedData</title>
<!-- Node1 -->
<g id="node1" class="node">
<title>Node1</title>
<g id="a_node1"><a xlink:title=" ">
<polygon fill="#999999" stroke="#666666" points="742,-396 624,-396 624,-377 742,-377 742,-396"/>
<text text-anchor="middle" x="683" y="-384" font-family="Helvetica,sans-Serif" font-size="10.00">ImDrawListSharedData</text>
</a>
</g>
</g>
<!-- Node2 -->
<g id="node2" class="node">
<title>Node2</title>
<g id="a_node2"><a xlink:href="struct_im_vec2.html" target="_top" xlink:title=" ">
<polygon fill="white" stroke="#bfbfbf" points="69,-369 19,-369 19,-350 69,-350 69,-369"/>
<text text-anchor="middle" x="44" y="-357" font-family="Helvetica,sans-Serif" font-size="10.00">ImVec2</text>
</a>
</g>
</g>
<!-- Node2&#45;&gt;Node1 -->
<g id="edge1" class="edge">
<title>Node2&#45;&gt;Node1</title>
<path fill="none" stroke="#9a32cd" stroke-dasharray="5,2" d="M65.16,-376.38C76.45,-384.84 91.19,-394.36 106,-399.5 251.55,-450.01 298.08,-427.11 452,-420.5 519.3,-417.61 536.64,-419.09 603,-407.5 618.52,-404.79 635.43,-400.48 649.61,-396.47"/>
<polygon fill="#9a32cd" stroke="#9a32cd" points="67.44,-373.72 57.41,-370.29 63.11,-379.22 67.44,-373.72"/>
<text text-anchor="middle" x="398.5" y="-442.5" font-family="Helvetica,sans-Serif" font-size="10.00"> ArcFastVtx</text>
<text text-anchor="middle" x="398.5" y="-431.5" font-family="Helvetica,sans-Serif" font-size="10.00">TexUvWhitePixel</text>
</g>
<!-- Node8 -->
<g id="node8" class="node">
<title>Node8</title>
<g id="a_node8"><a xlink:href="struct_im_font_atlas.html" target="_top" xlink:title=" ">
<polygon fill="white" stroke="#bfbfbf" points="298,-92 228,-92 228,-73 298,-73 298,-92"/>
<text text-anchor="middle" x="263" y="-80" font-family="Helvetica,sans-Serif" font-size="10.00">ImFontAtlas</text>
</a>
</g>
</g>
<!-- Node2&#45;&gt;Node8 -->
<g id="edge9" class="edge">
<title>Node2&#45;&gt;Node8</title>
<path fill="none" stroke="#9a32cd" stroke-dasharray="5,2" d="M61.16,-341.38C72.95,-328.66 89.66,-311.64 106,-298.5 136.84,-273.7 159.92,-284 181,-250.5 216.06,-194.79 157.33,-154.45 199,-103.5 206.15,-94.75 217.06,-89.63 227.8,-86.63"/>
<polygon fill="#9a32cd" stroke="#9a32cd" points="58.68,-338.89 54.54,-348.64 63.86,-343.61 58.68,-338.89"/>
<text text-anchor="middle" x="143.5" y="-312.5" font-family="Helvetica,sans-Serif" font-size="10.00"> TexUvScale</text>
<text text-anchor="middle" x="143.5" y="-301.5" font-family="Helvetica,sans-Serif" font-size="10.00">TexUvWhitePixel</text>
</g>
<!-- Node11 -->
<g id="node11" class="node">
<title>Node11</title>
<g id="a_node11"><a xlink:href="struct_im_font_atlas_custom_rect.html" target="_top" xlink:title=" ">
<polygon fill="white" stroke="#bfbfbf" points="745,-239 621,-239 621,-220 745,-220 745,-239"/>
<text text-anchor="middle" x="683" y="-227" font-family="Helvetica,sans-Serif" font-size="10.00">ImFontAtlasCustomRect</text>
</a>
</g>
</g>
<!-- Node2&#45;&gt;Node11 -->
<g id="edge14" class="edge">
<title>Node2&#45;&gt;Node11</title>
<path fill="none" stroke="#9a32cd" stroke-dasharray="5,2" d="M80.48,-356.14C107.94,-353.46 146.91,-349.52 181,-345.5 192.74,-344.12 592.07,-294 603,-289.5 631.66,-277.69 659.08,-252.83 672.83,-239.1"/>
<polygon fill="#9a32cd" stroke="#9a32cd" points="80.22,-352.64 70.61,-357.09 80.9,-359.61 80.22,-352.64"/>
<text text-anchor="middle" x="398.5" y="-328.5" font-family="Helvetica,sans-Serif" font-size="10.00"> GlyphOffset</text>
</g>
<!-- Node13 -->
<g id="node13" class="node">
<title>Node13</title>
<g id="a_node13"><a xlink:href="struct_im_font_config.html" target="_top" xlink:title=" ">
<polygon fill="white" stroke="#bfbfbf" points="720,-180 646,-180 646,-161 720,-161 720,-180"/>
<text text-anchor="middle" x="683" y="-168" font-family="Helvetica,sans-Serif" font-size="10.00">ImFontConfig</text>
</a>
</g>
</g>
<!-- Node2&#45;&gt;Node13 -->
<g id="edge18" class="edge">
<title>Node2&#45;&gt;Node13</title>
<path fill="none" stroke="#9a32cd" stroke-dasharray="5,2" d="M80.55,-350.48C136.65,-336.3 249.21,-308.08 345,-285.5 459.39,-258.54 499.24,-282.71 603,-227.5 612.71,-222.33 612.37,-217.32 621,-210.5 635.21,-199.27 652.58,-188.11 665.14,-180.44"/>
<polygon fill="#9a32cd" stroke="#9a32cd" points="79.76,-347.07 70.92,-352.91 81.48,-353.85 79.76,-347.07"/>
<text text-anchor="middle" x="398.5" y="-299.5" font-family="Helvetica,sans-Serif" font-size="10.00"> GlyphExtraSpacing</text>
<text text-anchor="middle" x="398.5" y="-288.5" font-family="Helvetica,sans-Serif" font-size="10.00">GlyphOffset</text>
</g>
<!-- Node16 -->
<g id="node16" class="node">
<title>Node16</title>
<g id="a_node16"><a xlink:href="struct_im_vector.html" target="_top" xlink:title=" ">
<polygon fill="white" stroke="#bfbfbf" points="452,-412 345,-412 345,-393 452,-393 452,-412"/>
<text text-anchor="middle" x="398.5" y="-400" font-family="Helvetica,sans-Serif" font-size="10.00">ImVector&lt; ImVec2 &gt;</text>
</a>
</g>
</g>
<!-- Node2&#45;&gt;Node16 -->
<g id="edge25" class="edge">
<title>Node2&#45;&gt;Node16</title>
<path fill="none" stroke="#9a32cd" stroke-dasharray="5,2" d="M80.43,-368.43C88.78,-370.31 97.67,-372.14 106,-373.5 188.81,-387.07 285.97,-395.19 344.58,-399.25"/>
<polygon fill="#9a32cd" stroke="#9a32cd" points="81.5,-365.08 70.97,-366.21 79.91,-371.9 81.5,-365.08"/>
<text text-anchor="middle" x="143.5" y="-387.5" font-family="Helvetica,sans-Serif" font-size="10.00"> Data</text>
</g>
<!-- Node3 -->
<g id="node3" class="node">
<title>Node3</title>
<g id="a_node3"><a xlink:href="struct_im_font.html" target="_top" xlink:title=" ">
<polygon fill="white" stroke="#bfbfbf" points="520,-195 473,-195 473,-176 520,-176 520,-195"/>
<text text-anchor="middle" x="496.5" y="-183" font-family="Helvetica,sans-Serif" font-size="10.00">ImFont</text>
</a>
</g>
</g>
<!-- Node3&#45;&gt;Node1 -->
<g id="edge2" class="edge">
<title>Node3&#45;&gt;Node1</title>
<path fill="none" stroke="#9a32cd" stroke-dasharray="5,2" d="M514.33,-203.84C552.48,-245.39 644.44,-345.58 673.23,-376.94"/>
<polygon fill="#9a32cd" stroke="#9a32cd" points="517.01,-201.58 507.67,-196.58 511.86,-206.32 517.01,-201.58"/>
<text text-anchor="middle" x="572" y="-301.5" font-family="Helvetica,sans-Serif" font-size="10.00"> Font</text>
</g>
<!-- Node9 -->
<g id="node9" class="node">
<title>Node9</title>
<g id="a_node9"><a xlink:href="struct_im_vector.html" target="_top" xlink:title=" ">
<polygon fill="white" stroke="#bfbfbf" points="738,-128 628,-128 628,-109 738,-109 738,-128"/>
<text text-anchor="middle" x="683" y="-116" font-family="Helvetica,sans-Serif" font-size="10.00">ImVector&lt; ImFont * &gt;</text>
</a>
</g>
</g>
<!-- Node3&#45;&gt;Node9 -->
<g id="edge11" class="edge">
<title>Node3&#45;&gt;Node9</title>
<path fill="none" stroke="#9a32cd" stroke-dasharray="5,2" d="M511.89,-166.69C519.57,-157.96 529.76,-148.27 541,-142.5 567.62,-128.84 600.42,-122.72 627.69,-120.07"/>
<polygon fill="#9a32cd" stroke="#9a32cd" points="509.21,-164.43 505.56,-174.37 514.62,-168.88 509.21,-164.43"/>
<text text-anchor="middle" x="572" y="-145.5" font-family="Helvetica,sans-Serif" font-size="10.00"> Data</text>
</g>
<!-- Node3&#45;&gt;Node11 -->
<g id="edge15" class="edge">
<title>Node3&#45;&gt;Node11</title>
<path fill="none" stroke="#9a32cd" stroke-dasharray="5,2" d="M531.36,-195C534.61,-195.87 537.87,-196.71 541,-197.5 572.4,-205.39 607.96,-213.45 635.51,-219.51"/>
<polygon fill="#9a32cd" stroke="#9a32cd" points="532.5,-191.69 521.94,-192.45 530.67,-198.44 532.5,-191.69"/>
<text text-anchor="middle" x="572" y="-215.5" font-family="Helvetica,sans-Serif" font-size="10.00"> Font</text>
</g>
<!-- Node3&#45;&gt;Node13 -->
<g id="edge19" class="edge">
<title>Node3&#45;&gt;Node13</title>
<path fill="none" stroke="#9a32cd" stroke-dasharray="5,2" d="M521.34,-170.25C527.51,-167.06 534.31,-164.16 541,-162.5 575.74,-153.88 616.72,-157.69 645.52,-162.56"/>
<polygon fill="#9a32cd" stroke="#9a32cd" points="519.96,-167.01 512.99,-174.99 523.42,-173.1 519.96,-167.01"/>
<text text-anchor="middle" x="572" y="-165.5" font-family="Helvetica,sans-Serif" font-size="10.00"> DstFont</text>
</g>
<!-- Node4 -->
<g id="node4" class="node">
<title>Node4</title>
<g id="a_node4"><a xlink:href="struct_im_vector.html" target="_top" xlink:title=" ">
<polygon fill="white" stroke="#bfbfbf" points="308.5,-169 217.5,-169 217.5,-150 308.5,-150 308.5,-169"/>
<text text-anchor="middle" x="263" y="-157" font-family="Helvetica,sans-Serif" font-size="10.00">ImVector&lt; float &gt;</text>
</a>
</g>
</g>
<!-- Node4&#45;&gt;Node3 -->
<g id="edge3" class="edge">
<title>Node4&#45;&gt;Node3</title>
<path fill="none" stroke="#9a32cd" stroke-dasharray="5,2" d="M320,-165.71C357.38,-169.86 407.64,-175.47 452,-180.5 458.8,-181.27 466.19,-182.12 472.92,-182.89"/>
<polygon fill="#9a32cd" stroke="#9a32cd" points="320.66,-162.26 310.33,-164.63 319.88,-169.22 320.66,-162.26"/>
<text text-anchor="middle" x="398.5" y="-183.5" font-family="Helvetica,sans-Serif" font-size="10.00"> IndexAdvanceX</text>
</g>
<!-- Node5 -->
<g id="node5" class="node">
<title>Node5</title>
<g id="a_node5"><a xlink:href="struct_im_vector.html" target="_top" xlink:title=" ">
<polygon fill="white" stroke="#bfbfbf" points="319,-132 207,-132 207,-113 319,-113 319,-132"/>
<text text-anchor="middle" x="263" y="-120" font-family="Helvetica,sans-Serif" font-size="10.00">ImVector&lt; ImWchar &gt;</text>
</a>
</g>
</g>
<!-- Node5&#45;&gt;Node3 -->
<g id="edge4" class="edge">
<title>Node5&#45;&gt;Node3</title>
<path fill="none" stroke="#9a32cd" stroke-dasharray="5,2" d="M330.43,-126.49C367.36,-130.49 413.49,-138.49 452,-154.5 464.16,-159.55 476.21,-168.54 484.54,-175.54"/>
<polygon fill="#9a32cd" stroke="#9a32cd" points="331.09,-123.04 320.79,-125.53 330.39,-130.01 331.09,-123.04"/>
<text text-anchor="middle" x="398.5" y="-157.5" font-family="Helvetica,sans-Serif" font-size="10.00"> IndexLookup</text>
</g>
<!-- Node6 -->
<g id="node6" class="node">
<title>Node6</title>
<g id="a_node6"><a xlink:href="struct_im_vector.html" target="_top" xlink:title=" ">
<polygon fill="white" stroke="#bfbfbf" points="327,-254 199,-254 199,-235 327,-235 327,-254"/>
<text text-anchor="middle" x="263" y="-242" font-family="Helvetica,sans-Serif" font-size="10.00">ImVector&lt; ImFontGlyph &gt;</text>
</a>
</g>
</g>
<!-- Node6&#45;&gt;Node3 -->
<g id="edge5" class="edge">
<title>Node6&#45;&gt;Node3</title>
<path fill="none" stroke="#9a32cd" stroke-dasharray="5,2" d="M338.73,-242.88C374.17,-239.95 416.44,-233.25 452,-218.5 464.96,-213.12 477.47,-202.93 485.73,-195.29"/>
<polygon fill="#9a32cd" stroke="#9a32cd" points="338.7,-239.37 328.99,-243.59 339.21,-246.36 338.7,-239.37"/>
<text text-anchor="middle" x="398.5" y="-245.5" font-family="Helvetica,sans-Serif" font-size="10.00"> Glyphs</text>
</g>
<!-- Node7 -->
<g id="node7" class="node">
<title>Node7</title>
<g id="a_node7"><a xlink:href="struct_im_font_glyph.html" target="_top" xlink:title=" ">
<polygon fill="white" stroke="#bfbfbf" points="80,-232 8,-232 8,-213 80,-213 80,-232"/>
<text text-anchor="middle" x="44" y="-220" font-family="Helvetica,sans-Serif" font-size="10.00">ImFontGlyph</text>
</a>
</g>
</g>
<!-- Node7&#45;&gt;Node3 -->
<g id="edge7" class="edge">
<title>Node7&#45;&gt;Node3</title>
<path fill="none" stroke="#9a32cd" stroke-dasharray="5,2" d="M91.94,-219.86C167.77,-215.38 321.91,-205.41 452,-191.5 458.67,-190.79 465.9,-189.85 472.51,-188.94"/>
<polygon fill="#9a32cd" stroke="#9a32cd" points="91.74,-216.36 81.96,-220.44 92.15,-223.35 91.74,-216.36"/>
<text text-anchor="middle" x="263" y="-216.5" font-family="Helvetica,sans-Serif" font-size="10.00"> FallbackGlyph</text>
</g>
<!-- Node7&#45;&gt;Node6 -->
<g id="edge6" class="edge">
<title>Node7&#45;&gt;Node6</title>
<path fill="none" stroke="#9a32cd" stroke-dasharray="5,2" d="M91.78,-227.24C123,-230.41 164.44,-234.61 198.62,-238.07"/>
<polygon fill="#9a32cd" stroke="#9a32cd" points="92.16,-223.76 81.85,-226.24 91.45,-230.73 92.16,-223.76"/>
<text text-anchor="middle" x="143.5" y="-239.5" font-family="Helvetica,sans-Serif" font-size="10.00"> Data</text>
</g>
<!-- Node8&#45;&gt;Node3 -->
<g id="edge8" class="edge">
<title>Node8&#45;&gt;Node3</title>
<path fill="none" stroke="#9a32cd" stroke-dasharray="5,2" d="M309.48,-85.92C357.5,-90.29 429.33,-99.16 452,-114.5 474.27,-129.57 487.14,-160.22 492.52,-175.86"/>
<polygon fill="#9a32cd" stroke="#9a32cd" points="309.91,-82.45 299.64,-85.07 309.3,-89.42 309.91,-82.45"/>
<text text-anchor="middle" x="398.5" y="-117.5" font-family="Helvetica,sans-Serif" font-size="10.00"> ContainerAtlas</text>
</g>
<!-- Node9&#45;&gt;Node8 -->
<g id="edge10" class="edge">
<title>Node9&#45;&gt;Node8</title>
<path fill="none" stroke="#9a32cd" stroke-dasharray="5,2" d="M616.41,-110.04C570.46,-104.36 507.56,-97.11 452,-92.5 398.42,-88.05 336.07,-85.19 298.35,-83.71"/>
<polygon fill="#9a32cd" stroke="#9a32cd" points="615.86,-113.49 626.22,-111.26 616.72,-106.55 615.86,-113.49"/>
<text text-anchor="middle" x="496.5" y="-102.5" font-family="Helvetica,sans-Serif" font-size="10.00"> Fonts</text>
</g>
<!-- Node10 -->
<g id="node10" class="node">
<title>Node10</title>
<g id="a_node10"><a xlink:href="struct_im_vector.html" target="_top" xlink:title=" ">
<polygon fill="white" stroke="#bfbfbf" points="956,-75.5 804,-75.5 804,-45.5 956,-45.5 956,-75.5"/>
<text text-anchor="start" x="812" y="-63.5" font-family="Helvetica,sans-Serif" font-size="10.00">ImVector&lt; ImFontAtlasCustom</text>
<text text-anchor="middle" x="880" y="-52.5" font-family="Helvetica,sans-Serif" font-size="10.00">Rect &gt;</text>
</a>
</g>
</g>
<!-- Node10&#45;&gt;Node8 -->
<g id="edge12" class="edge">
<title>Node10&#45;&gt;Node8</title>
<path fill="none" stroke="#9a32cd" stroke-dasharray="5,2" d="M792.31,-63.6C654.68,-68.52 392.19,-77.91 298.38,-81.27"/>
<polygon fill="#9a32cd" stroke="#9a32cd" points="792.23,-67.11 802.1,-63.25 791.98,-60.11 792.23,-67.11"/>
<text text-anchor="middle" x="572" y="-76.5" font-family="Helvetica,sans-Serif" font-size="10.00"> CustomRects</text>
</g>
<!-- Node11&#45;&gt;Node10 -->
<g id="edge13" class="edge">
<title>Node11&#45;&gt;Node10</title>
<path fill="none" stroke="#9a32cd" stroke-dasharray="5,2" d="M709.91,-213.48C721.02,-206.26 733.96,-197.38 745,-188.5 791.39,-151.21 840.71,-100.97 864.5,-75.97"/>
<polygon fill="#9a32cd" stroke="#9a32cd" points="708.15,-210.46 701.6,-218.78 711.92,-216.36 708.15,-210.46"/>
<text text-anchor="middle" x="774.5" y="-175.5" font-family="Helvetica,sans-Serif" font-size="10.00"> Data</text>
</g>
<!-- Node12 -->
<g id="node12" class="node">
<title>Node12</title>
<g id="a_node12"><a xlink:href="struct_im_vector.html" target="_top" xlink:title=" ">
<polygon fill="white" stroke="#bfbfbf" points="945.5,-19 814.5,-19 814.5,0 945.5,0 945.5,-19"/>
<text text-anchor="middle" x="880" y="-7" font-family="Helvetica,sans-Serif" font-size="10.00">ImVector&lt; ImFontConfig &gt;</text>
</a>
</g>
</g>
<!-- Node12&#45;&gt;Node8 -->
<g id="edge16" class="edge">
<title>Node12&#45;&gt;Node8</title>
<path fill="none" stroke="#9a32cd" stroke-dasharray="5,2" d="M802.77,-18.36C699.14,-30.44 508.03,-52.82 345,-72.5 329.67,-74.35 312.71,-76.44 298.28,-78.23"/>
<polygon fill="#9a32cd" stroke="#9a32cd" points="803.02,-21.86 812.54,-17.22 802.21,-14.9 803.02,-21.86"/>
<text text-anchor="middle" x="572" y="-52.5" font-family="Helvetica,sans-Serif" font-size="10.00"> ConfigData</text>
</g>
<!-- Node13&#45;&gt;Node3 -->
<g id="edge22" class="edge">
<title>Node13&#45;&gt;Node3</title>
<path fill="none" stroke="#9a32cd" stroke-dasharray="5,2" d="M634.26,-174.38C597.69,-177.35 548.82,-181.33 520.49,-183.63"/>
<polygon fill="#9a32cd" stroke="#9a32cd" points="634.48,-177.88 644.16,-173.58 633.91,-170.9 634.48,-177.88"/>
<text text-anchor="middle" x="572" y="-185.5" font-family="Helvetica,sans-Serif" font-size="10.00"> ConfigData</text>
</g>
<!-- Node13&#45;&gt;Node12 -->
<g id="edge17" class="edge">
<title>Node13&#45;&gt;Node12</title>
<path fill="none" stroke="#9a32cd" stroke-dasharray="5,2" d="M718.72,-155.28C727.95,-150.18 737.43,-143.88 745,-136.5 781.93,-100.46 764.26,-69.41 804,-36.5 813.17,-28.91 824.64,-23.37 835.83,-19.36"/>
<polygon fill="#9a32cd" stroke="#9a32cd" points="717.18,-152.13 709.89,-159.82 720.38,-158.36 717.18,-152.13"/>
<text text-anchor="middle" x="774.5" y="-114.5" font-family="Helvetica,sans-Serif" font-size="10.00"> Data</text>
</g>
<!-- Node14 -->
<g id="node14" class="node">
<title>Node14</title>
<g id="a_node14"><a xlink:href="struct_im_vec4.html" target="_top" xlink:title=" ">
<polygon fill="white" stroke="#bfbfbf" points="69,-184 19,-184 19,-165 69,-165 69,-184"/>
<text text-anchor="middle" x="44" y="-172" font-family="Helvetica,sans-Serif" font-size="10.00">ImVec4</text>
</a>
</g>
</g>
<!-- Node14&#45;&gt;Node1 -->
<g id="edge23" class="edge">
<title>Node14&#45;&gt;Node1</title>
<path fill="none" stroke="#9a32cd" stroke-dasharray="5,2" d="M75.51,-190.56C80.29,-194.24 84.73,-198.56 88,-203.5 111.02,-238.23 76.2,-266.38 106,-295.5 124.51,-313.59 481.01,-360.85 623.69,-379.13"/>
<polygon fill="#9a32cd" stroke="#9a32cd" points="77.62,-187.76 67.37,-185.09 73.72,-193.57 77.62,-187.76"/>
<text text-anchor="middle" x="398.5" y="-370.5" font-family="Helvetica,sans-Serif" font-size="10.00"> ClipRectFullscreen</text>
<text text-anchor="middle" x="398.5" y="-359.5" font-family="Helvetica,sans-Serif" font-size="10.00">TexUvLines</text>
</g>
<!-- Node14&#45;&gt;Node8 -->
<g id="edge20" class="edge">
<title>Node14&#45;&gt;Node8</title>
<path fill="none" stroke="#9a32cd" stroke-dasharray="5,2" d="M74.67,-159.64C105.37,-144.53 154.92,-120.95 199,-103.5 208.97,-99.55 220.01,-95.7 230.03,-92.4"/>
<polygon fill="#9a32cd" stroke="#9a32cd" points="73.4,-156.36 65.99,-163.93 76.5,-162.63 73.4,-156.36"/>
<text text-anchor="middle" x="143.5" y="-147.5" font-family="Helvetica,sans-Serif" font-size="10.00"> TexUvLines</text>
</g>
<!-- Node15 -->
<g id="node15" class="node">
<title>Node15</title>
<g id="a_node15"><a xlink:href="struct_im_font_builder_i_o.html" target="_top" xlink:title=" ">
<polygon fill="white" stroke="#bfbfbf" points="88,-92 0,-92 0,-73 88,-73 88,-92"/>
<text text-anchor="middle" x="44" y="-80" font-family="Helvetica,sans-Serif" font-size="10.00">ImFontBuilderIO</text>
</a>
</g>
</g>
<!-- Node15&#45;&gt;Node8 -->
<g id="edge21" class="edge">
<title>Node15&#45;&gt;Node8</title>
<path fill="none" stroke="#9a32cd" stroke-dasharray="5,2" d="M99.87,-82.5C140.03,-82.5 193.28,-82.5 227.6,-82.5"/>
<polygon fill="#9a32cd" stroke="#9a32cd" points="99.91,-79 89.91,-82.5 99.91,-86 99.91,-79"/>
<text text-anchor="middle" x="143.5" y="-85.5" font-family="Helvetica,sans-Serif" font-size="10.00"> FontBuilderIO</text>
</g>
<!-- Node16&#45;&gt;Node1 -->
<g id="edge24" class="edge">
<title>Node16&#45;&gt;Node1</title>
<path fill="none" stroke="#9a32cd" stroke-dasharray="5,2" d="M463.52,-398.87C511.61,-396.15 576.94,-392.45 623.61,-389.81"/>
<polygon fill="#9a32cd" stroke="#9a32cd" points="463.6,-395.36 453.82,-399.42 464,-402.35 463.6,-395.36"/>
<text text-anchor="middle" x="496.5" y="-401.5" font-family="Helvetica,sans-Serif" font-size="10.00"> TempBuffer</text>
</g>
</g>
</svg>
