<?xml version="1.0" encoding="UTF-8" standalone="no"?>
<!DOCTYPE svg PUBLIC "-//W3C//DTD SVG 1.1//EN"
 "http://www.w3.org/Graphics/SVG/1.1/DTD/svg11.dtd">
<!-- Generated by graphviz version 7.0.5 (20221223.1930)
 -->
<!-- Title: ImGuiLastItemData Pages: 1 -->
<svg width="114pt" height="192pt"
 viewBox="0.00 0.00 114.00 192.00" xmlns="http://www.w3.org/2000/svg" xmlns:xlink="http://www.w3.org/1999/xlink">
<g id="graph0" class="graph" transform="scale(1 1) rotate(0) translate(4 188)">
<title>ImGuiLastItemData</title>
<!-- Node1 -->
<g id="node1" class="node">
<title>Node1</title>
<g id="a_node1"><a xlink:title=" ">
<polygon fill="#999999" stroke="#666666" points="102,-19 0,-19 0,0 102,0 102,-19"/>
<text text-anchor="middle" x="51" y="-7" font-family="Helvetica,sans-Serif" font-size="10.00">ImGuiLastItemData</text>
</a>
</g>
</g>
<!-- Node2 -->
<g id="node2" class="node">
<title>Node2</title>
<g id="a_node2"><a xlink:href="struct_im_rect.html" target="_top" xlink:title=" ">
<polygon fill="white" stroke="#bfbfbf" points="75,-107 27,-107 27,-88 75,-88 75,-107"/>
<text text-anchor="middle" x="51" y="-95" font-family="Helvetica,sans-Serif" font-size="10.00">ImRect</text>
</a>
</g>
</g>
<!-- Node2&#45;&gt;Node1 -->
<g id="edge1" class="edge">
<title>Node2&#45;&gt;Node1</title>
<path fill="none" stroke="#9a32cd" stroke-dasharray="5,2" d="M51,-76.37C51,-58.37 51,-32.83 51,-19.46"/>
<polygon fill="#9a32cd" stroke="#9a32cd" points="47.5,-76.11 51,-86.11 54.5,-76.11 47.5,-76.11"/>
<text text-anchor="middle" x="78.5" y="-62" font-family="Helvetica,sans-Serif" font-size="10.00"> DisplayRect</text>
<text text-anchor="middle" x="78.5" y="-51" font-family="Helvetica,sans-Serif" font-size="10.00">NavRect</text>
<text text-anchor="middle" x="78.5" y="-40" font-family="Helvetica,sans-Serif" font-size="10.00">Rect</text>
</g>
<!-- Node3 -->
<g id="node3" class="node">
<title>Node3</title>
<g id="a_node3"><a xlink:href="struct_im_vec2.html" target="_top" xlink:title=" ">
<polygon fill="white" stroke="#bfbfbf" points="76,-184 26,-184 26,-165 76,-165 76,-184"/>
<text text-anchor="middle" x="51" y="-172" font-family="Helvetica,sans-Serif" font-size="10.00">ImVec2</text>
</a>
</g>
</g>
<!-- Node3&#45;&gt;Node2 -->
<g id="edge2" class="edge">
<title>Node3&#45;&gt;Node2</title>
<path fill="none" stroke="#9a32cd" stroke-dasharray="5,2" d="M51,-153.42C51,-138.43 51,-118.66 51,-107.39"/>
<polygon fill="#9a32cd" stroke="#9a32cd" points="47.5,-153.09 51,-163.09 54.5,-153.09 47.5,-153.09"/>
<text text-anchor="middle" x="61.5" y="-139" font-family="Helvetica,sans-Serif" font-size="10.00"> Max</text>
<text text-anchor="middle" x="61.5" y="-128" font-family="Helvetica,sans-Serif" font-size="10.00">Min</text>
</g>
</g>
</svg>
