<?xml version="1.0" encoding="UTF-8" standalone="no"?>
<!DOCTYPE svg PUBLIC "-//W3C//DTD SVG 1.1//EN"
 "http://www.w3.org/Graphics/SVG/1.1/DTD/svg11.dtd">
<!-- Generated by graphviz version 7.0.5 (20221223.1930)
 -->
<!-- Title: ImGuiKeyRoutingTable Pages: 1 -->
<svg width="148pt" height="181pt"
 viewBox="0.00 0.00 148.00 181.00" xmlns="http://www.w3.org/2000/svg" xmlns:xlink="http://www.w3.org/1999/xlink">
<g id="graph0" class="graph" transform="scale(1 1) rotate(0) translate(4 177)">
<title>ImGuiKeyRoutingTable</title>
<!-- Node1 -->
<g id="node1" class="node">
<title>Node1</title>
<g id="a_node1"><a xlink:title=" ">
<polygon fill="#999999" stroke="#666666" points="128,-19 12,-19 12,0 128,0 128,-19"/>
<text text-anchor="middle" x="70" y="-7" font-family="Helvetica,sans-Serif" font-size="10.00">ImGuiKeyRoutingTable</text>
</a>
</g>
</g>
<!-- Node2 -->
<g id="node2" class="node">
<title>Node2</title>
<g id="a_node2"><a xlink:href="struct_im_vector.html" target="_top" xlink:title=" ">
<polygon fill="white" stroke="#bfbfbf" points="140,-107 0,-107 0,-77 140,-77 140,-107"/>
<text text-anchor="start" x="8" y="-95" font-family="Helvetica,sans-Serif" font-size="10.00">ImVector&lt; ImGuiKeyRouting</text>
<text text-anchor="middle" x="70" y="-84" font-family="Helvetica,sans-Serif" font-size="10.00">Data &gt;</text>
</a>
</g>
</g>
<!-- Node2&#45;&gt;Node1 -->
<g id="edge1" class="edge">
<title>Node2&#45;&gt;Node1</title>
<path fill="none" stroke="#9a32cd" stroke-dasharray="5,2" d="M70,-65.4C70,-49.59 70,-30.29 70,-19.3"/>
<polygon fill="#9a32cd" stroke="#9a32cd" points="66.5,-65.09 70,-75.09 73.5,-65.09 66.5,-65.09"/>
<text text-anchor="middle" x="95.5" y="-51" font-family="Helvetica,sans-Serif" font-size="10.00"> Entries</text>
<text text-anchor="middle" x="95.5" y="-40" font-family="Helvetica,sans-Serif" font-size="10.00">EntriesNext</text>
</g>
<!-- Node3 -->
<g id="node3" class="node">
<title>Node3</title>
<g id="a_node3"><a xlink:href="struct_im_gui_key_routing_data.html" target="_top" xlink:title=" ">
<polygon fill="white" stroke="#bfbfbf" points="126.5,-173 13.5,-173 13.5,-154 126.5,-154 126.5,-173"/>
<text text-anchor="middle" x="70" y="-161" font-family="Helvetica,sans-Serif" font-size="10.00">ImGuiKeyRoutingData</text>
</a>
</g>
</g>
<!-- Node3&#45;&gt;Node2 -->
<g id="edge2" class="edge">
<title>Node3&#45;&gt;Node2</title>
<path fill="none" stroke="#9a32cd" stroke-dasharray="5,2" d="M70,-142.39C70,-131.15 70,-117.41 70,-107.27"/>
<polygon fill="#9a32cd" stroke="#9a32cd" points="66.5,-142.18 70,-152.18 73.5,-142.18 66.5,-142.18"/>
<text text-anchor="middle" x="81.5" y="-128" font-family="Helvetica,sans-Serif" font-size="10.00"> Data</text>
</g>
</g>
</svg>
