<?xml version="1.0" encoding="UTF-8" standalone="no"?>
<!DOCTYPE svg PUBLIC "-//W3C//DTD SVG 1.1//EN"
 "http://www.w3.org/Graphics/SVG/1.1/DTD/svg11.dtd">
<!-- Generated by graphviz version 7.0.5 (20221223.1930)
 -->
<!-- Title: ImFontAtlasCustomRect Pages: 1 -->
<svg width="1324pt" height="324pt"
 viewBox="0.00 0.00 1324.00 323.50" xmlns="http://www.w3.org/2000/svg" xmlns:xlink="http://www.w3.org/1999/xlink">
<g id="graph0" class="graph" transform="scale(1 1) rotate(0) translate(4 319.5)">
<title>ImFontAtlasCustomRect</title>
<!-- Node1 -->
<g id="node1" class="node">
<title>Node1</title>
<g id="a_node1"><a xlink:title=" ">
<polygon fill="#999999" stroke="#666666" points="264,-205 140,-205 140,-186 264,-186 264,-205"/>
<text text-anchor="middle" x="202" y="-193" font-family="Helvetica,sans-Serif" font-size="10.00">ImFontAtlasCustomRect</text>
</a>
</g>
</g>
<!-- Node10 -->
<g id="node10" class="node">
<title>Node10</title>
<g id="a_node10"><a xlink:href="struct_im_vector.html" target="_top" xlink:title=" ">
<polygon fill="white" stroke="#bfbfbf" points="527,-144.5 375,-144.5 375,-114.5 527,-114.5 527,-144.5"/>
<text text-anchor="start" x="383" y="-132.5" font-family="Helvetica,sans-Serif" font-size="10.00">ImVector&lt; ImFontAtlasCustom</text>
<text text-anchor="middle" x="451" y="-121.5" font-family="Helvetica,sans-Serif" font-size="10.00">Rect &gt;</text>
</a>
</g>
</g>
<!-- Node1&#45;&gt;Node10 -->
<g id="edge13" class="edge">
<title>Node1&#45;&gt;Node10</title>
<path fill="none" stroke="#9a32cd" stroke-dasharray="5,2" d="M251.15,-182.63C291.54,-171.84 349.34,-156.4 392.22,-144.94"/>
<polygon fill="#9a32cd" stroke="#9a32cd" points="250.47,-179.19 241.71,-185.16 252.27,-185.96 250.47,-179.19"/>
<text text-anchor="middle" x="319.5" y="-176.5" font-family="Helvetica,sans-Serif" font-size="10.00"> Data</text>
</g>
<!-- Node2 -->
<g id="node2" class="node">
<title>Node2</title>
<g id="a_node2"><a xlink:href="struct_im_vec2.html" target="_top" xlink:title=" ">
<polygon fill="white" stroke="#bfbfbf" points="50,-205 0,-205 0,-186 50,-186 50,-205"/>
<text text-anchor="middle" x="25" y="-193" font-family="Helvetica,sans-Serif" font-size="10.00">ImVec2</text>
</a>
</g>
</g>
<!-- Node2&#45;&gt;Node1 -->
<g id="edge1" class="edge">
<title>Node2&#45;&gt;Node1</title>
<path fill="none" stroke="#9a32cd" stroke-dasharray="5,2" d="M61.66,-195.5C84.05,-195.5 113.52,-195.5 139.59,-195.5"/>
<polygon fill="#9a32cd" stroke="#9a32cd" points="61.85,-192 51.85,-195.5 61.85,-199 61.85,-192"/>
<text text-anchor="middle" x="95" y="-198.5" font-family="Helvetica,sans-Serif" font-size="10.00"> GlyphOffset</text>
</g>
<!-- Node8 -->
<g id="node8" class="node">
<title>Node8</title>
<g id="a_node8"><a xlink:href="struct_im_font_atlas.html" target="_top" xlink:title=" ">
<polygon fill="white" stroke="#bfbfbf" points="747,-57 677,-57 677,-38 747,-38 747,-57"/>
<text text-anchor="middle" x="712" y="-45" font-family="Helvetica,sans-Serif" font-size="10.00">ImFontAtlas</text>
</a>
</g>
</g>
<!-- Node2&#45;&gt;Node8 -->
<g id="edge9" class="edge">
<title>Node2&#45;&gt;Node8</title>
<path fill="none" stroke="#9a32cd" stroke-dasharray="5,2" d="M56.41,-180.73C115.91,-152.62 252.66,-91.97 375,-66.5 483.39,-43.93 615.42,-44.36 676.7,-46.11"/>
<polygon fill="#9a32cd" stroke="#9a32cd" points="55.1,-177.47 47.58,-184.93 58.11,-183.79 55.1,-177.47"/>
<text text-anchor="middle" x="319.5" y="-103.5" font-family="Helvetica,sans-Serif" font-size="10.00"> TexUvScale</text>
<text text-anchor="middle" x="319.5" y="-92.5" font-family="Helvetica,sans-Serif" font-size="10.00">TexUvWhitePixel</text>
</g>
<!-- Node12 -->
<g id="node12" class="node">
<title>Node12</title>
<g id="a_node12"><a xlink:href="struct_im_font_config.html" target="_top" xlink:title=" ">
<polygon fill="white" stroke="#bfbfbf" points="1108,-160 1034,-160 1034,-141 1108,-141 1108,-160"/>
<text text-anchor="middle" x="1071" y="-148" font-family="Helvetica,sans-Serif" font-size="10.00">ImFontConfig</text>
</a>
</g>
</g>
<!-- Node2&#45;&gt;Node12 -->
<g id="edge16" class="edge">
<title>Node2&#45;&gt;Node12</title>
<path fill="none" stroke="#9a32cd" stroke-dasharray="5,2" d="M43.24,-213.16C72.73,-241.38 135.99,-293.5 201,-293.5 201,-293.5 201,-293.5 907.5,-293.5 988.3,-293.5 1048,-192.64 1065.05,-160.33"/>
<polygon fill="#9a32cd" stroke="#9a32cd" points="45.87,-210.84 36.29,-206.32 40.96,-215.83 45.87,-210.84"/>
<text text-anchor="middle" x="587.5" y="-307.5" font-family="Helvetica,sans-Serif" font-size="10.00"> GlyphExtraSpacing</text>
<text text-anchor="middle" x="587.5" y="-296.5" font-family="Helvetica,sans-Serif" font-size="10.00">GlyphOffset</text>
</g>
<!-- Node3 -->
<g id="node3" class="node">
<title>Node3</title>
<g id="a_node3"><a xlink:href="struct_im_font.html" target="_top" xlink:title=" ">
<polygon fill="white" stroke="#bfbfbf" points="930,-150 883,-150 883,-131 930,-131 930,-150"/>
<text text-anchor="middle" x="906.5" y="-138" font-family="Helvetica,sans-Serif" font-size="10.00">ImFont</text>
</a>
</g>
</g>
<!-- Node3&#45;&gt;Node1 -->
<g id="edge2" class="edge">
<title>Node3&#45;&gt;Node1</title>
<path fill="none" stroke="#9a32cd" stroke-dasharray="5,2" d="M892.13,-159.6C885.06,-168.26 875.64,-177.81 865,-183.5 829.63,-202.42 815.97,-195.16 776,-198.5 590.12,-214.05 369.15,-205.21 264.2,-199.37"/>
<polygon fill="#9a32cd" stroke="#9a32cd" points="894.89,-161.76 898.14,-151.67 889.31,-157.53 894.89,-161.76"/>
<text text-anchor="middle" x="587.5" y="-209.5" font-family="Helvetica,sans-Serif" font-size="10.00"> Font</text>
</g>
<!-- Node9 -->
<g id="node9" class="node">
<title>Node9</title>
<g id="a_node9"><a xlink:href="struct_im_vector.html" target="_top" xlink:title=" ">
<polygon fill="white" stroke="#bfbfbf" points="1126,-72 1016,-72 1016,-53 1126,-53 1126,-72"/>
<text text-anchor="middle" x="1071" y="-60" font-family="Helvetica,sans-Serif" font-size="10.00">ImVector&lt; ImFont * &gt;</text>
</a>
</g>
</g>
<!-- Node3&#45;&gt;Node9 -->
<g id="edge11" class="edge">
<title>Node3&#45;&gt;Node9</title>
<path fill="none" stroke="#9a32cd" stroke-dasharray="5,2" d="M931.78,-124.74C937.04,-121.54 942.64,-118.3 948,-115.5 980.34,-98.6 1019.23,-82.38 1044.27,-72.43"/>
<polygon fill="#9a32cd" stroke="#9a32cd" points="930.11,-121.65 923.49,-129.92 933.82,-127.58 930.11,-121.65"/>
<text text-anchor="middle" x="973" y="-118.5" font-family="Helvetica,sans-Serif" font-size="10.00"> Data</text>
</g>
<!-- Node3&#45;&gt;Node12 -->
<g id="edge17" class="edge">
<title>Node3&#45;&gt;Node12</title>
<path fill="none" stroke="#9a32cd" stroke-dasharray="5,2" d="M941.34,-144.89C943.59,-145.11 945.83,-145.32 948,-145.5 976.73,-147.86 1009.37,-149.12 1033.65,-149.79"/>
<polygon fill="#9a32cd" stroke="#9a32cd" points="942,-141.44 931.68,-143.8 941.22,-148.4 942,-141.44"/>
<text text-anchor="middle" x="973" y="-150.5" font-family="Helvetica,sans-Serif" font-size="10.00"> DstFont</text>
</g>
<!-- Node4 -->
<g id="node4" class="node">
<title>Node4</title>
<g id="a_node4"><a xlink:href="struct_im_vector.html" target="_top" xlink:title=" ">
<polygon fill="white" stroke="#bfbfbf" points="757.5,-104 666.5,-104 666.5,-85 757.5,-85 757.5,-104"/>
<text text-anchor="middle" x="712" y="-92" font-family="Helvetica,sans-Serif" font-size="10.00">ImVector&lt; float &gt;</text>
</a>
</g>
</g>
<!-- Node4&#45;&gt;Node3 -->
<g id="edge3" class="edge">
<title>Node4&#45;&gt;Node3</title>
<path fill="none" stroke="#9a32cd" stroke-dasharray="5,2" d="M769.01,-96.68C798.3,-99.2 834.35,-104.48 865,-115.5 874.95,-119.08 885.08,-125.33 892.71,-130.68"/>
<polygon fill="#9a32cd" stroke="#9a32cd" points="769.47,-93.21 759.24,-95.94 768.94,-100.19 769.47,-93.21"/>
<text text-anchor="middle" x="829.5" y="-118.5" font-family="Helvetica,sans-Serif" font-size="10.00"> IndexAdvanceX</text>
</g>
<!-- Node5 -->
<g id="node5" class="node">
<title>Node5</title>
<g id="a_node5"><a xlink:href="struct_im_vector.html" target="_top" xlink:title=" ">
<polygon fill="white" stroke="#bfbfbf" points="768,-265 656,-265 656,-246 768,-246 768,-265"/>
<text text-anchor="middle" x="712" y="-253" font-family="Helvetica,sans-Serif" font-size="10.00">ImVector&lt; ImWchar &gt;</text>
</a>
</g>
</g>
<!-- Node5&#45;&gt;Node3 -->
<g id="edge4" class="edge">
<title>Node5&#45;&gt;Node3</title>
<path fill="none" stroke="#9a32cd" stroke-dasharray="5,2" d="M779.54,-258.62C808.37,-256.76 840.95,-249.95 865,-231.5 891.62,-211.08 901.15,-169.35 904.21,-150.33"/>
<polygon fill="#9a32cd" stroke="#9a32cd" points="779.63,-255.11 769.8,-259.05 779.94,-262.11 779.63,-255.11"/>
<text text-anchor="middle" x="829.5" y="-259.5" font-family="Helvetica,sans-Serif" font-size="10.00"> IndexLookup</text>
</g>
<!-- Node6 -->
<g id="node6" class="node">
<title>Node6</title>
<g id="a_node6"><a xlink:href="struct_im_vector.html" target="_top" xlink:title=" ">
<polygon fill="white" stroke="#bfbfbf" points="776,-189 648,-189 648,-170 776,-170 776,-189"/>
<text text-anchor="middle" x="712" y="-177" font-family="Helvetica,sans-Serif" font-size="10.00">ImVector&lt; ImFontGlyph &gt;</text>
</a>
</g>
</g>
<!-- Node6&#45;&gt;Node3 -->
<g id="edge5" class="edge">
<title>Node6&#45;&gt;Node3</title>
<path fill="none" stroke="#9a32cd" stroke-dasharray="5,2" d="M787.54,-169.82C812.37,-165.92 840.04,-160.82 865,-154.5 870.77,-153.04 876.89,-151.12 882.57,-149.18"/>
<polygon fill="#9a32cd" stroke="#9a32cd" points="787.21,-166.33 777.85,-171.31 788.27,-173.25 787.21,-166.33"/>
<text text-anchor="middle" x="829.5" y="-171.5" font-family="Helvetica,sans-Serif" font-size="10.00"> Glyphs</text>
</g>
<!-- Node7 -->
<g id="node7" class="node">
<title>Node7</title>
<g id="a_node7"><a xlink:href="struct_im_font_glyph.html" target="_top" xlink:title=" ">
<polygon fill="white" stroke="#bfbfbf" points="487,-184 415,-184 415,-165 487,-165 487,-184"/>
<text text-anchor="middle" x="451" y="-172" font-family="Helvetica,sans-Serif" font-size="10.00">ImFontGlyph</text>
</a>
</g>
</g>
<!-- Node7&#45;&gt;Node3 -->
<g id="edge7" class="edge">
<title>Node7&#45;&gt;Node3</title>
<path fill="none" stroke="#9a32cd" stroke-dasharray="5,2" d="M498.48,-167.71C538.12,-162.17 596.68,-154.63 648,-150.5 734.51,-143.54 837.78,-141.38 882.73,-140.75"/>
<polygon fill="#9a32cd" stroke="#9a32cd" points="498.23,-164.21 488.82,-169.07 499.21,-171.14 498.23,-164.21"/>
<text text-anchor="middle" x="712" y="-153.5" font-family="Helvetica,sans-Serif" font-size="10.00"> FallbackGlyph</text>
</g>
<!-- Node7&#45;&gt;Node6 -->
<g id="edge6" class="edge">
<title>Node7&#45;&gt;Node6</title>
<path fill="none" stroke="#9a32cd" stroke-dasharray="5,2" d="M498.92,-175.41C540.54,-176.21 601.67,-177.39 647.62,-178.28"/>
<polygon fill="#9a32cd" stroke="#9a32cd" points="499.05,-171.91 488.98,-175.21 498.91,-178.91 499.05,-171.91"/>
<text text-anchor="middle" x="587.5" y="-180.5" font-family="Helvetica,sans-Serif" font-size="10.00"> Data</text>
</g>
<!-- Node8&#45;&gt;Node3 -->
<g id="edge8" class="edge">
<title>Node8&#45;&gt;Node3</title>
<path fill="none" stroke="#9a32cd" stroke-dasharray="5,2" d="M758.37,-54.97C796.59,-61.91 847.71,-72.88 865,-84.5 882.33,-96.15 894.81,-117.83 901.03,-130.53"/>
<polygon fill="#9a32cd" stroke="#9a32cd" points="759.43,-51.6 748.97,-53.3 758.2,-58.5 759.43,-51.6"/>
<text text-anchor="middle" x="829.5" y="-87.5" font-family="Helvetica,sans-Serif" font-size="10.00"> ContainerAtlas</text>
</g>
<!-- Node9&#45;&gt;Node8 -->
<g id="edge10" class="edge">
<title>Node9&#45;&gt;Node8</title>
<path fill="none" stroke="#9a32cd" stroke-dasharray="5,2" d="M1004.36,-59.74C928.43,-56.55 806.33,-51.42 747.23,-48.94"/>
<polygon fill="#9a32cd" stroke="#9a32cd" points="1004.02,-63.23 1014.16,-60.15 1004.31,-56.24 1004.02,-63.23"/>
<text text-anchor="middle" x="906.5" y="-59.5" font-family="Helvetica,sans-Serif" font-size="10.00"> Fonts</text>
</g>
<!-- Node10&#45;&gt;Node8 -->
<g id="edge12" class="edge">
<title>Node10&#45;&gt;Node8</title>
<path fill="none" stroke="#9a32cd" stroke-dasharray="5,2" d="M538.28,-112.23C567.79,-105.26 600.73,-96.28 630,-85.5 638.39,-82.41 639.94,-80.37 648,-76.5 661.57,-69.99 676.91,-62.92 689.05,-57.39"/>
<polygon fill="#9a32cd" stroke="#9a32cd" points="537.58,-108.8 528.63,-114.46 539.16,-115.62 537.58,-108.8"/>
<text text-anchor="middle" x="587.5" y="-112.5" font-family="Helvetica,sans-Serif" font-size="10.00"> CustomRects</text>
</g>
<!-- Node11 -->
<g id="node11" class="node">
<title>Node11</title>
<g id="a_node11"><a xlink:href="struct_im_vector.html" target="_top" xlink:title=" ">
<polygon fill="white" stroke="#bfbfbf" points="1316,-27 1185,-27 1185,-8 1316,-8 1316,-27"/>
<text text-anchor="middle" x="1250.5" y="-15" font-family="Helvetica,sans-Serif" font-size="10.00">ImVector&lt; ImFontConfig &gt;</text>
</a>
</g>
</g>
<!-- Node11&#45;&gt;Node8 -->
<g id="edge14" class="edge">
<title>Node11&#45;&gt;Node8</title>
<path fill="none" stroke="#9a32cd" stroke-dasharray="5,2" d="M1173.11,-21.77C1054.93,-28.38 832.54,-40.82 747.38,-45.58"/>
<polygon fill="#9a32cd" stroke="#9a32cd" points="1173.26,-25.27 1183.05,-21.22 1172.87,-18.28 1173.26,-25.27"/>
<text text-anchor="middle" x="973" y="-37.5" font-family="Helvetica,sans-Serif" font-size="10.00"> ConfigData</text>
</g>
<!-- Node12&#45;&gt;Node3 -->
<g id="edge20" class="edge">
<title>Node12&#45;&gt;Node3</title>
<path fill="none" stroke="#9a32cd" stroke-dasharray="5,2" d="M1026.35,-137.77C1017.07,-135.58 1007.27,-133.64 998,-132.5 975.94,-129.78 970.12,-130.34 948,-132.5 942.15,-133.07 935.89,-134.1 930.09,-135.23"/>
<polygon fill="#9a32cd" stroke="#9a32cd" points="1025.32,-141.12 1035.88,-140.17 1027.03,-134.34 1025.32,-141.12"/>
<text text-anchor="middle" x="973" y="-135.5" font-family="Helvetica,sans-Serif" font-size="10.00"> ConfigData</text>
</g>
<!-- Node12&#45;&gt;Node11 -->
<g id="edge15" class="edge">
<title>Node12&#45;&gt;Node11</title>
<path fill="none" stroke="#9a32cd" stroke-dasharray="5,2" d="M1094.47,-133.66C1132.05,-105.5 1206.46,-49.75 1236.49,-27.25"/>
<polygon fill="#9a32cd" stroke="#9a32cd" points="1092.46,-130.8 1086.55,-139.6 1096.65,-136.4 1092.46,-130.8"/>
<text text-anchor="middle" x="1155.5" y="-98.5" font-family="Helvetica,sans-Serif" font-size="10.00"> Data</text>
</g>
<!-- Node13 -->
<g id="node13" class="node">
<title>Node13</title>
<g id="a_node13"><a xlink:href="struct_im_vec4.html" target="_top" xlink:title=" ">
<polygon fill="white" stroke="#bfbfbf" points="476,-95 426,-95 426,-76 476,-76 476,-95"/>
<text text-anchor="middle" x="451" y="-83" font-family="Helvetica,sans-Serif" font-size="10.00">ImVec4</text>
</a>
</g>
</g>
<!-- Node13&#45;&gt;Node8 -->
<g id="edge18" class="edge">
<title>Node13&#45;&gt;Node8</title>
<path fill="none" stroke="#9a32cd" stroke-dasharray="5,2" d="M487.54,-80.28C537.43,-72.97 627.59,-59.74 676.76,-52.52"/>
<polygon fill="#9a32cd" stroke="#9a32cd" points="487.25,-76.79 477.86,-81.71 488.27,-83.72 487.25,-76.79"/>
<text text-anchor="middle" x="587.5" y="-73.5" font-family="Helvetica,sans-Serif" font-size="10.00"> TexUvLines</text>
</g>
<!-- Node14 -->
<g id="node14" class="node">
<title>Node14</title>
<g id="a_node14"><a xlink:href="struct_im_font_builder_i_o.html" target="_top" xlink:title=" ">
<polygon fill="white" stroke="#bfbfbf" points="495,-19 407,-19 407,0 495,0 495,-19"/>
<text text-anchor="middle" x="451" y="-7" font-family="Helvetica,sans-Serif" font-size="10.00">ImFontBuilderIO</text>
</a>
</g>
</g>
<!-- Node14&#45;&gt;Node8 -->
<g id="edge19" class="edge">
<title>Node14&#45;&gt;Node8</title>
<path fill="none" stroke="#9a32cd" stroke-dasharray="5,2" d="M506.23,-10.28C541.71,-11.57 588.92,-14.76 630,-22.5 648.51,-25.99 668.76,-32.24 684.38,-37.61"/>
<polygon fill="#9a32cd" stroke="#9a32cd" points="506.77,-6.8 496.66,-9.98 506.55,-13.79 506.77,-6.8"/>
<text text-anchor="middle" x="587.5" y="-25.5" font-family="Helvetica,sans-Serif" font-size="10.00"> FontBuilderIO</text>
</g>
</g>
</svg>
