<?xml version="1.0" encoding="UTF-8" standalone="no"?>
<!DOCTYPE svg PUBLIC "-//W3C//DTD SVG 1.1//EN"
 "http://www.w3.org/Graphics/SVG/1.1/DTD/svg11.dtd">
<!-- Generated by graphviz version 7.0.5 (20221223.1930)
 -->
<!-- Title: ExampleAppLog Pages: 1 -->
<svg width="320pt" height="247pt"
 viewBox="0.00 0.00 319.50 247.00" xmlns="http://www.w3.org/2000/svg" xmlns:xlink="http://www.w3.org/1999/xlink">
<g id="graph0" class="graph" transform="scale(1 1) rotate(0) translate(4 243)">
<title>ExampleAppLog</title>
<!-- Node1 -->
<g id="node1" class="node">
<title>Node1</title>
<g id="a_node1"><a xlink:title=" ">
<polygon fill="#999999" stroke="#666666" points="212.5,-19 125.5,-19 125.5,0 212.5,0 212.5,-19"/>
<text text-anchor="middle" x="169" y="-7" font-family="Helvetica,sans-Serif" font-size="10.00">ExampleAppLog</text>
</a>
</g>
</g>
<!-- Node2 -->
<g id="node2" class="node">
<title>Node2</title>
<g id="a_node2"><a xlink:href="struct_im_gui_text_buffer.html" target="_top" xlink:title=" ">
<polygon fill="white" stroke="#bfbfbf" points="102.5,-85 15.5,-85 15.5,-66 102.5,-66 102.5,-85"/>
<text text-anchor="middle" x="59" y="-73" font-family="Helvetica,sans-Serif" font-size="10.00">ImGuiTextBuffer</text>
</a>
</g>
</g>
<!-- Node2&#45;&gt;Node1 -->
<g id="edge1" class="edge">
<title>Node2&#45;&gt;Node1</title>
<path fill="none" stroke="#9a32cd" stroke-dasharray="5,2" d="M84.05,-59.92C105.55,-47.42 135.83,-29.8 153.83,-19.32"/>
<polygon fill="#9a32cd" stroke="#9a32cd" points="82.49,-56.79 75.6,-64.84 86.01,-62.84 82.49,-56.79"/>
<text text-anchor="middle" x="130" y="-40" font-family="Helvetica,sans-Serif" font-size="10.00"> Buf</text>
</g>
<!-- Node3 -->
<g id="node3" class="node">
<title>Node3</title>
<g id="a_node3"><a xlink:href="struct_im_vector.html" target="_top" xlink:title=" ">
<polygon fill="white" stroke="#bfbfbf" points="92,-156.5 0,-156.5 0,-137.5 92,-137.5 92,-156.5"/>
<text text-anchor="middle" x="46" y="-144.5" font-family="Helvetica,sans-Serif" font-size="10.00">ImVector&lt; char &gt;</text>
</a>
</g>
</g>
<!-- Node3&#45;&gt;Node2 -->
<g id="edge2" class="edge">
<title>Node3&#45;&gt;Node2</title>
<path fill="none" stroke="#9a32cd" stroke-dasharray="5,2" d="M49.7,-126.21C52.21,-112.79 55.41,-95.7 57.33,-85.45"/>
<polygon fill="#9a32cd" stroke="#9a32cd" points="46.32,-125.24 47.92,-135.71 53.2,-126.52 46.32,-125.24"/>
<text text-anchor="middle" x="63" y="-106" font-family="Helvetica,sans-Serif" font-size="10.00"> Buf</text>
</g>
<!-- Node4 -->
<g id="node4" class="node">
<title>Node4</title>
<g id="a_node4"><a xlink:href="struct_im_gui_text_filter.html" target="_top" xlink:title=" ">
<polygon fill="white" stroke="#bfbfbf" points="210.5,-85 127.5,-85 127.5,-66 210.5,-66 210.5,-85"/>
<text text-anchor="middle" x="169" y="-73" font-family="Helvetica,sans-Serif" font-size="10.00">ImGuiTextFilter</text>
</a>
</g>
</g>
<!-- Node4&#45;&gt;Node1 -->
<g id="edge3" class="edge">
<title>Node4&#45;&gt;Node1</title>
<path fill="none" stroke="#9a32cd" stroke-dasharray="5,2" d="M169,-54.18C169,-42.44 169,-28.27 169,-19.32"/>
<polygon fill="#9a32cd" stroke="#9a32cd" points="165.5,-54.09 169,-64.09 172.5,-54.09 165.5,-54.09"/>
<text text-anchor="middle" x="181.5" y="-40" font-family="Helvetica,sans-Serif" font-size="10.00"> Filter</text>
</g>
<!-- Node5 -->
<g id="node5" class="node">
<title>Node5</title>
<g id="a_node5"><a xlink:href="struct_im_vector.html" target="_top" xlink:title=" ">
<polygon fill="white" stroke="#bfbfbf" points="241.5,-162 110.5,-162 110.5,-132 241.5,-132 241.5,-162"/>
<text text-anchor="start" x="118.5" y="-150" font-family="Helvetica,sans-Serif" font-size="10.00">ImVector&lt; ImGuiTextFilter</text>
<text text-anchor="middle" x="176" y="-139" font-family="Helvetica,sans-Serif" font-size="10.00">::ImGuiTextRange &gt;</text>
</a>
</g>
</g>
<!-- Node5&#45;&gt;Node4 -->
<g id="edge4" class="edge">
<title>Node5&#45;&gt;Node4</title>
<path fill="none" stroke="#9a32cd" stroke-dasharray="5,2" d="M173.43,-120.46C172.18,-108.07 170.76,-93.99 169.87,-85.18"/>
<polygon fill="#9a32cd" stroke="#9a32cd" points="169.91,-120.49 174.4,-130.09 176.88,-119.79 169.91,-120.49"/>
<text text-anchor="middle" x="188" y="-106" font-family="Helvetica,sans-Serif" font-size="10.00"> Filters</text>
</g>
<!-- Node6 -->
<g id="node6" class="node">
<title>Node6</title>
<g id="a_node6"><a xlink:href="struct_im_gui_text_filter_1_1_im_gui_text_range.html" target="_top" xlink:title=" ">
<polygon fill="white" stroke="#bfbfbf" points="242.5,-239 109.5,-239 109.5,-209 242.5,-209 242.5,-239"/>
<text text-anchor="start" x="117.5" y="-227" font-family="Helvetica,sans-Serif" font-size="10.00">ImGuiTextFilter::ImGuiText</text>
<text text-anchor="middle" x="176" y="-216" font-family="Helvetica,sans-Serif" font-size="10.00">Range</text>
</a>
</g>
</g>
<!-- Node6&#45;&gt;Node5 -->
<g id="edge5" class="edge">
<title>Node6&#45;&gt;Node5</title>
<path fill="none" stroke="#9a32cd" stroke-dasharray="5,2" d="M176,-197.23C176,-185.58 176,-172.26 176,-162.42"/>
<polygon fill="#9a32cd" stroke="#9a32cd" points="172.5,-197.03 176,-207.03 179.5,-197.03 172.5,-197.03"/>
<text text-anchor="middle" x="187.5" y="-183" font-family="Helvetica,sans-Serif" font-size="10.00"> Data</text>
</g>
<!-- Node7 -->
<g id="node7" class="node">
<title>Node7</title>
<g id="a_node7"><a xlink:href="struct_im_vector.html" target="_top" xlink:title=" ">
<polygon fill="white" stroke="#bfbfbf" points="311.5,-85 228.5,-85 228.5,-66 311.5,-66 311.5,-85"/>
<text text-anchor="middle" x="270" y="-73" font-family="Helvetica,sans-Serif" font-size="10.00">ImVector&lt; int &gt;</text>
</a>
</g>
</g>
<!-- Node7&#45;&gt;Node1 -->
<g id="edge6" class="edge">
<title>Node7&#45;&gt;Node1</title>
<path fill="none" stroke="#9a32cd" stroke-dasharray="5,2" d="M246.46,-59.58C226.75,-47.1 199.3,-29.7 182.92,-19.32"/>
<polygon fill="#9a32cd" stroke="#9a32cd" points="244.36,-62.39 254.68,-64.79 248.1,-56.48 244.36,-62.39"/>
<text text-anchor="middle" x="251.5" y="-40" font-family="Helvetica,sans-Serif" font-size="10.00"> LineOffsets</text>
</g>
</g>
</svg>
