<?xml version="1.0" encoding="UTF-8" standalone="no"?>
<!DOCTYPE svg PUBLIC "-//W3C//DTD SVG 1.1//EN"
 "http://www.w3.org/Graphics/SVG/1.1/DTD/svg11.dtd">
<!-- Generated by graphviz version 7.0.5 (20221223.1930)
 -->
<!-- Title: ImGuiOldColumns Pages: 1 -->
<svg width="2333pt" height="775pt"
 viewBox="0.00 0.00 2333.00 775.00" xmlns="http://www.w3.org/2000/svg" xmlns:xlink="http://www.w3.org/1999/xlink">
<g id="graph0" class="graph" transform="scale(1 1) rotate(0) translate(4 771)">
<title>ImGuiOldColumns</title>
<!-- Node1 -->
<g id="node1" class="node">
<title>Node1</title>
<g id="a_node1"><a xlink:title=" ">
<polygon fill="#999999" stroke="#666666" points="2325,-441.5 2229,-441.5 2229,-422.5 2325,-422.5 2325,-441.5"/>
<text text-anchor="middle" x="2277" y="-429.5" font-family="Helvetica,sans-Serif" font-size="10.00">ImGuiOldColumns</text>
</a>
</g>
</g>
<!-- Node2 -->
<g id="node2" class="node">
<title>Node2</title>
<g id="a_node2"><a xlink:href="struct_im_rect.html" target="_top" xlink:title=" ">
<polygon fill="white" stroke="#bfbfbf" points="1614,-484.5 1566,-484.5 1566,-465.5 1614,-465.5 1614,-484.5"/>
<text text-anchor="middle" x="1590" y="-472.5" font-family="Helvetica,sans-Serif" font-size="10.00">ImRect</text>
</a>
</g>
</g>
<!-- Node2&#45;&gt;Node1 -->
<g id="edge1" class="edge">
<title>Node2&#45;&gt;Node1</title>
<path fill="none" stroke="#9a32cd" stroke-dasharray="5,2" d="M1625.72,-475.24C1713.88,-475.54 1953.44,-474.44 2152,-456 2180.06,-453.39 2211.19,-447.36 2235.24,-441.99"/>
<polygon fill="#9a32cd" stroke="#9a32cd" points="1625.84,-471.74 1615.82,-475.2 1625.81,-478.74 1625.84,-471.74"/>
<text text-anchor="middle" x="1932" y="-497" font-family="Helvetica,sans-Serif" font-size="10.00"> HostBackupClipRect</text>
<text text-anchor="middle" x="1932" y="-486" font-family="Helvetica,sans-Serif" font-size="10.00">HostBackupParentWorkRect</text>
<text text-anchor="middle" x="1932" y="-475" font-family="Helvetica,sans-Serif" font-size="10.00">HostInitialClipRect</text>
</g>
<!-- Node5 -->
<g id="node5" class="node">
<title>Node5</title>
<g id="a_node5"><a xlink:href="struct_im_gui_old_column_data.html" target="_top" xlink:title=" ">
<polygon fill="white" stroke="#bfbfbf" points="1835.5,-445.5 1724.5,-445.5 1724.5,-426.5 1835.5,-426.5 1835.5,-445.5"/>
<text text-anchor="middle" x="1780" y="-433.5" font-family="Helvetica,sans-Serif" font-size="10.00">ImGuiOldColumnData</text>
</a>
</g>
</g>
<!-- Node2&#45;&gt;Node5 -->
<g id="edge5" class="edge">
<title>Node2&#45;&gt;Node5</title>
<path fill="none" stroke="#9a32cd" stroke-dasharray="5,2" d="M1621.16,-460.46C1630.53,-456.48 1641.02,-452.57 1651,-450 1674.6,-443.93 1701.31,-440.49 1724.2,-438.54"/>
<polygon fill="#9a32cd" stroke="#9a32cd" points="1619.88,-457.2 1612.16,-464.46 1622.72,-463.6 1619.88,-457.2"/>
<text text-anchor="middle" x="1671" y="-453" font-family="Helvetica,sans-Serif" font-size="10.00"> ClipRect</text>
</g>
<!-- Node3 -->
<g id="node3" class="node">
<title>Node3</title>
<g id="a_node3"><a xlink:href="struct_im_vec2.html" target="_top" xlink:title=" ">
<polygon fill="white" stroke="#bfbfbf" points="69,-387.5 19,-387.5 19,-368.5 69,-368.5 69,-387.5"/>
<text text-anchor="middle" x="44" y="-375.5" font-family="Helvetica,sans-Serif" font-size="10.00">ImVec2</text>
</a>
</g>
</g>
<!-- Node3&#45;&gt;Node2 -->
<g id="edge2" class="edge">
<title>Node3&#45;&gt;Node2</title>
<path fill="none" stroke="#9a32cd" stroke-dasharray="5,2" d="M61.43,-396.19C70.69,-407.45 81.64,-422.65 88,-438 106.79,-483.36 82.21,-504.05 106,-547 148.13,-623.04 175.07,-665 262,-665 262,-665 262,-665 1394.5,-665 1498.59,-665 1567.66,-524.04 1584.82,-484.95"/>
<polygon fill="#9a32cd" stroke="#9a32cd" points="64.34,-394.21 55.17,-388.89 59.02,-398.76 64.34,-394.21"/>
<text text-anchor="middle" x="896" y="-679" font-family="Helvetica,sans-Serif" font-size="10.00"> Max</text>
<text text-anchor="middle" x="896" y="-668" font-family="Helvetica,sans-Serif" font-size="10.00">Min</text>
</g>
<!-- Node15 -->
<g id="node15" class="node">
<title>Node15</title>
<g id="a_node15"><a xlink:href="struct_im_draw_vert.html" target="_top" xlink:title=" ">
<polygon fill="white" stroke="#bfbfbf" points="557.5,-197.5 489.5,-197.5 489.5,-178.5 557.5,-178.5 557.5,-197.5"/>
<text text-anchor="middle" x="523.5" y="-185.5" font-family="Helvetica,sans-Serif" font-size="10.00">ImDrawVert</text>
</a>
</g>
</g>
<!-- Node3&#45;&gt;Node15 -->
<g id="edge17" class="edge">
<title>Node3&#45;&gt;Node15</title>
<path fill="none" stroke="#9a32cd" stroke-dasharray="5,2" d="M49.52,-357.14C56.63,-329.47 73.15,-281.1 106,-255 221.26,-163.43 412.29,-174.35 489.05,-183.27"/>
<polygon fill="#9a32cd" stroke="#9a32cd" points="46.14,-356.23 47.24,-366.76 52.95,-357.84 46.14,-356.23"/>
<text text-anchor="middle" x="263" y="-219" font-family="Helvetica,sans-Serif" font-size="10.00"> pos</text>
<text text-anchor="middle" x="263" y="-208" font-family="Helvetica,sans-Serif" font-size="10.00">uv</text>
</g>
<!-- Node16 -->
<g id="node16" class="node">
<title>Node16</title>
<g id="a_node16"><a xlink:href="struct_im_draw_list_shared_data.html" target="_top" xlink:title=" ">
<polygon fill="white" stroke="#bfbfbf" points="837,-255.5 719,-255.5 719,-236.5 837,-236.5 837,-255.5"/>
<text text-anchor="middle" x="778" y="-243.5" font-family="Helvetica,sans-Serif" font-size="10.00">ImDrawListSharedData</text>
</a>
</g>
</g>
<!-- Node3&#45;&gt;Node16 -->
<g id="edge19" class="edge">
<title>Node3&#45;&gt;Node16</title>
<path fill="none" stroke="#9a32cd" stroke-dasharray="5,2" d="M51.74,-357.51C60.38,-334.88 77.72,-299.48 106,-283 209.01,-222.98 575.21,-235.21 718.71,-242.59"/>
<polygon fill="#9a32cd" stroke="#9a32cd" points="48.47,-356.26 48.42,-366.86 55.06,-358.61 48.47,-356.26"/>
<text text-anchor="middle" x="398.5" y="-253" font-family="Helvetica,sans-Serif" font-size="10.00"> ArcFastVtx</text>
<text text-anchor="middle" x="398.5" y="-242" font-family="Helvetica,sans-Serif" font-size="10.00">TexUvWhitePixel</text>
</g>
<!-- Node22 -->
<g id="node22" class="node">
<title>Node22</title>
<g id="a_node22"><a xlink:href="struct_im_font_atlas.html" target="_top" xlink:title=" ">
<polygon fill="white" stroke="#bfbfbf" points="298,-449.5 228,-449.5 228,-430.5 298,-430.5 298,-449.5"/>
<text text-anchor="middle" x="263" y="-437.5" font-family="Helvetica,sans-Serif" font-size="10.00">ImFontAtlas</text>
</a>
</g>
</g>
<!-- Node3&#45;&gt;Node22 -->
<g id="edge27" class="edge">
<title>Node3&#45;&gt;Node22</title>
<path fill="none" stroke="#9a32cd" stroke-dasharray="5,2" d="M80.48,-388.14C121.17,-399.76 187.43,-418.69 227.65,-430.18"/>
<polygon fill="#9a32cd" stroke="#9a32cd" points="81.5,-384.79 70.93,-385.41 79.58,-391.52 81.5,-384.79"/>
<text text-anchor="middle" x="143.5" y="-430" font-family="Helvetica,sans-Serif" font-size="10.00"> TexUvScale</text>
<text text-anchor="middle" x="143.5" y="-419" font-family="Helvetica,sans-Serif" font-size="10.00">TexUvWhitePixel</text>
</g>
<!-- Node25 -->
<g id="node25" class="node">
<title>Node25</title>
<g id="a_node25"><a xlink:href="struct_im_font_atlas_custom_rect.html" target="_top" xlink:title=" ">
<polygon fill="white" stroke="#bfbfbf" points="840,-416.5 716,-416.5 716,-397.5 840,-397.5 840,-416.5"/>
<text text-anchor="middle" x="778" y="-404.5" font-family="Helvetica,sans-Serif" font-size="10.00">ImFontAtlasCustomRect</text>
</a>
</g>
</g>
<!-- Node3&#45;&gt;Node25 -->
<g id="edge32" class="edge">
<title>Node3&#45;&gt;Node25</title>
<path fill="none" stroke="#9a32cd" stroke-dasharray="5,2" d="M80.77,-379.42C197.53,-384.04 568.39,-398.74 715.77,-404.57"/>
<polygon fill="#9a32cd" stroke="#9a32cd" points="81,-375.92 70.87,-379.02 80.72,-382.92 81,-375.92"/>
<text text-anchor="middle" x="398.5" y="-396" font-family="Helvetica,sans-Serif" font-size="10.00"> GlyphOffset</text>
</g>
<!-- Node27 -->
<g id="node27" class="node">
<title>Node27</title>
<g id="a_node27"><a xlink:href="struct_im_font_config.html" target="_top" xlink:title=" ">
<polygon fill="white" stroke="#bfbfbf" points="815,-595.5 741,-595.5 741,-576.5 815,-576.5 815,-595.5"/>
<text text-anchor="middle" x="778" y="-583.5" font-family="Helvetica,sans-Serif" font-size="10.00">ImFontConfig</text>
</a>
</g>
</g>
<!-- Node3&#45;&gt;Node27 -->
<g id="edge36" class="edge">
<title>Node3&#45;&gt;Node27</title>
<path fill="none" stroke="#9a32cd" stroke-dasharray="5,2" d="M58.9,-396.88C67.45,-408.61 78.53,-424.06 88,-438 138.7,-512.65 119.62,-565.1 199,-608 227.69,-623.5 361.21,-635.41 697,-601 711.34,-599.53 726.95,-596.85 740.55,-594.16"/>
<polygon fill="#9a32cd" stroke="#9a32cd" points="61.78,-394.88 53.05,-388.88 56.13,-399.02 61.78,-394.88"/>
<text text-anchor="middle" x="398.5" y="-637" font-family="Helvetica,sans-Serif" font-size="10.00"> GlyphExtraSpacing</text>
<text text-anchor="middle" x="398.5" y="-626" font-family="Helvetica,sans-Serif" font-size="10.00">GlyphOffset</text>
</g>
<!-- Node29 -->
<g id="node29" class="node">
<title>Node29</title>
<g id="a_node29"><a xlink:href="struct_im_vector.html" target="_top" xlink:title=" ">
<polygon fill="white" stroke="#bfbfbf" points="577,-319.5 470,-319.5 470,-300.5 577,-300.5 577,-319.5"/>
<text text-anchor="middle" x="523.5" y="-307.5" font-family="Helvetica,sans-Serif" font-size="10.00">ImVector&lt; ImVec2 &gt;</text>
</a>
</g>
</g>
<!-- Node3&#45;&gt;Node29 -->
<g id="edge43" class="edge">
<title>Node3&#45;&gt;Node29</title>
<path fill="none" stroke="#9a32cd" stroke-dasharray="5,2" d="M80.24,-369.3C88.65,-367.4 97.62,-365.5 106,-364 235.91,-340.73 390.32,-323.37 469.65,-315.2"/>
<polygon fill="#9a32cd" stroke="#9a32cd" points="79.65,-365.85 70.7,-371.53 81.24,-372.66 79.65,-365.85"/>
<text text-anchor="middle" x="263" y="-351" font-family="Helvetica,sans-Serif" font-size="10.00"> Data</text>
</g>
<!-- Node4 -->
<g id="node4" class="node">
<title>Node4</title>
<g id="a_node4"><a xlink:href="struct_im_vector.html" target="_top" xlink:title=" ">
<polygon fill="white" stroke="#bfbfbf" points="2152,-447 2013,-447 2013,-417 2152,-417 2152,-447"/>
<text text-anchor="start" x="2021" y="-435" font-family="Helvetica,sans-Serif" font-size="10.00">ImVector&lt; ImGuiOldColumn</text>
<text text-anchor="middle" x="2082.5" y="-424" font-family="Helvetica,sans-Serif" font-size="10.00">Data &gt;</text>
</a>
</g>
</g>
<!-- Node4&#45;&gt;Node1 -->
<g id="edge3" class="edge">
<title>Node4&#45;&gt;Node1</title>
<path fill="none" stroke="#9a32cd" stroke-dasharray="5,2" d="M2163.85,-432C2185.89,-432 2209.08,-432 2228.61,-432"/>
<polygon fill="#9a32cd" stroke="#9a32cd" points="2163.97,-428.5 2153.97,-432 2163.97,-435.5 2163.97,-428.5"/>
<text text-anchor="middle" x="2190.5" y="-435" font-family="Helvetica,sans-Serif" font-size="10.00"> Columns</text>
</g>
<!-- Node5&#45;&gt;Node4 -->
<g id="edge4" class="edge">
<title>Node5&#45;&gt;Node4</title>
<path fill="none" stroke="#9a32cd" stroke-dasharray="5,2" d="M1847.2,-435.12C1896.25,-434.47 1962.91,-433.58 2012.58,-432.92"/>
<polygon fill="#9a32cd" stroke="#9a32cd" points="1847.23,-431.62 1837.28,-435.25 1847.33,-438.62 1847.23,-431.62"/>
<text text-anchor="middle" x="1932" y="-437" font-family="Helvetica,sans-Serif" font-size="10.00"> Data</text>
</g>
<!-- Node6 -->
<g id="node6" class="node">
<title>Node6</title>
<g id="a_node6"><a xlink:href="struct_im_draw_list_splitter.html" target="_top" xlink:title=" ">
<polygon fill="white" stroke="#bfbfbf" points="2131.5,-190.5 2033.5,-190.5 2033.5,-171.5 2131.5,-171.5 2131.5,-190.5"/>
<text text-anchor="middle" x="2082.5" y="-178.5" font-family="Helvetica,sans-Serif" font-size="10.00">ImDrawListSplitter</text>
</a>
</g>
</g>
<!-- Node6&#45;&gt;Node1 -->
<g id="edge6" class="edge">
<title>Node6&#45;&gt;Node1</title>
<path fill="none" stroke="#9a32cd" stroke-dasharray="5,2" d="M2098.02,-199.93C2136.44,-250.02 2239.79,-384.78 2268.51,-422.23"/>
<polygon fill="#9a32cd" stroke="#9a32cd" points="2100.83,-197.85 2091.97,-192.04 2095.28,-202.11 2100.83,-197.85"/>
<text text-anchor="middle" x="2190.5" y="-346" font-family="Helvetica,sans-Serif" font-size="10.00"> Splitter</text>
</g>
<!-- Node12 -->
<g id="node12" class="node">
<title>Node12</title>
<g id="a_node12"><a xlink:href="struct_im_draw_list.html" target="_top" xlink:title=" ">
<polygon fill="white" stroke="#bfbfbf" points="1060.5,-170.5 993.5,-170.5 993.5,-151.5 1060.5,-151.5 1060.5,-170.5"/>
<text text-anchor="middle" x="1027" y="-158.5" font-family="Helvetica,sans-Serif" font-size="10.00">ImDrawList</text>
</a>
</g>
</g>
<!-- Node6&#45;&gt;Node12 -->
<g id="edge51" class="edge">
<title>Node6&#45;&gt;Node12</title>
<path fill="none" stroke="#9a32cd" stroke-dasharray="5,2" d="M2021.84,-181C1961.2,-181 1864.56,-181 1781,-181 1234.5,-181 1234.5,-181 1234.5,-181 1172.91,-181 1101.46,-172.08 1060.81,-166.15"/>
<polygon fill="#9a32cd" stroke="#9a32cd" points="2021.58,-184.5 2031.58,-181 2021.58,-177.5 2021.58,-184.5"/>
<text text-anchor="middle" x="1502" y="-184" font-family="Helvetica,sans-Serif" font-size="10.00"> _Splitter</text>
</g>
<!-- Node7 -->
<g id="node7" class="node">
<title>Node7</title>
<g id="a_node7"><a xlink:href="struct_im_vector.html" target="_top" xlink:title=" ">
<polygon fill="white" stroke="#bfbfbf" points="1851,-152.5 1709,-152.5 1709,-133.5 1851,-133.5 1851,-152.5"/>
<text text-anchor="middle" x="1780" y="-140.5" font-family="Helvetica,sans-Serif" font-size="10.00">ImVector&lt; ImDrawChannel &gt;</text>
</a>
</g>
</g>
<!-- Node7&#45;&gt;Node6 -->
<g id="edge7" class="edge">
<title>Node7&#45;&gt;Node6</title>
<path fill="none" stroke="#9a32cd" stroke-dasharray="5,2" d="M1862.66,-143.74C1902.77,-145.17 1951.68,-148.52 1995,-156 2014.72,-159.41 2036.34,-165.66 2053.04,-171.05"/>
<polygon fill="#9a32cd" stroke="#9a32cd" points="1862.95,-140.25 1852.84,-143.43 1862.72,-147.24 1862.95,-140.25"/>
<text text-anchor="middle" x="1932" y="-159" font-family="Helvetica,sans-Serif" font-size="10.00"> _Channels</text>
</g>
<!-- Node8 -->
<g id="node8" class="node">
<title>Node8</title>
<g id="a_node8"><a xlink:href="struct_im_draw_channel.html" target="_top" xlink:title=" ">
<polygon fill="white" stroke="#bfbfbf" points="1633,-128.5 1547,-128.5 1547,-109.5 1633,-109.5 1633,-128.5"/>
<text text-anchor="middle" x="1590" y="-116.5" font-family="Helvetica,sans-Serif" font-size="10.00">ImDrawChannel</text>
</a>
</g>
</g>
<!-- Node8&#45;&gt;Node7 -->
<g id="edge8" class="edge">
<title>Node8&#45;&gt;Node7</title>
<path fill="none" stroke="#9a32cd" stroke-dasharray="5,2" d="M1644.53,-125.83C1664.44,-128.38 1687.34,-131.3 1708.54,-134"/>
<polygon fill="#9a32cd" stroke="#9a32cd" points="1645.05,-122.37 1634.69,-124.58 1644.17,-129.32 1645.05,-122.37"/>
<text text-anchor="middle" x="1671" y="-135" font-family="Helvetica,sans-Serif" font-size="10.00"> Data</text>
</g>
<!-- Node9 -->
<g id="node9" class="node">
<title>Node9</title>
<g id="a_node9"><a xlink:href="struct_im_vector.html" target="_top" xlink:title=" ">
<polygon fill="white" stroke="#bfbfbf" points="1457,-128.5 1330,-128.5 1330,-109.5 1457,-109.5 1457,-128.5"/>
<text text-anchor="middle" x="1393.5" y="-116.5" font-family="Helvetica,sans-Serif" font-size="10.00">ImVector&lt; ImDrawCmd &gt;</text>
</a>
</g>
</g>
<!-- Node9&#45;&gt;Node8 -->
<g id="edge9" class="edge">
<title>Node9&#45;&gt;Node8</title>
<path fill="none" stroke="#9a32cd" stroke-dasharray="5,2" d="M1468.88,-119C1495.19,-119 1523.87,-119 1546.6,-119"/>
<polygon fill="#9a32cd" stroke="#9a32cd" points="1468.89,-115.5 1458.89,-119 1468.89,-122.5 1468.89,-115.5"/>
<text text-anchor="middle" x="1502" y="-122" font-family="Helvetica,sans-Serif" font-size="10.00"> _CmdBuffer</text>
</g>
<!-- Node9&#45;&gt;Node12 -->
<g id="edge13" class="edge">
<title>Node9&#45;&gt;Node12</title>
<path fill="none" stroke="#9a32cd" stroke-dasharray="5,2" d="M1318.38,-127.54C1239.66,-136.61 1118.78,-150.54 1060.99,-157.2"/>
<polygon fill="#9a32cd" stroke="#9a32cd" points="1318.64,-131.03 1328.17,-126.41 1317.84,-124.08 1318.64,-131.03"/>
<text text-anchor="middle" x="1235.5" y="-144" font-family="Helvetica,sans-Serif" font-size="10.00"> CmdBuffer</text>
</g>
<!-- Node10 -->
<g id="node10" class="node">
<title>Node10</title>
<g id="a_node10"><a xlink:href="struct_im_draw_cmd.html" target="_top" xlink:title=" ">
<polygon fill="white" stroke="#bfbfbf" points="1271,-105.5 1200,-105.5 1200,-86.5 1271,-86.5 1271,-105.5"/>
<text text-anchor="middle" x="1235.5" y="-93.5" font-family="Helvetica,sans-Serif" font-size="10.00">ImDrawCmd</text>
</a>
</g>
</g>
<!-- Node10&#45;&gt;Node9 -->
<g id="edge10" class="edge">
<title>Node10&#45;&gt;Node9</title>
<path fill="none" stroke="#9a32cd" stroke-dasharray="5,2" d="M1282.09,-102.72C1296.98,-104.92 1313.79,-107.4 1329.72,-109.74"/>
<polygon fill="#9a32cd" stroke="#9a32cd" points="1283.02,-99.32 1272.62,-101.33 1282,-106.25 1283.02,-99.32"/>
<text text-anchor="middle" x="1300.5" y="-110" font-family="Helvetica,sans-Serif" font-size="10.00"> Data</text>
</g>
<!-- Node11 -->
<g id="node11" class="node">
<title>Node11</title>
<g id="a_node11"><a xlink:href="struct_im_vec4.html" target="_top" xlink:title=" ">
<polygon fill="white" stroke="#bfbfbf" points="69,-131.5 19,-131.5 19,-112.5 69,-112.5 69,-131.5"/>
<text text-anchor="middle" x="44" y="-119.5" font-family="Helvetica,sans-Serif" font-size="10.00">ImVec4</text>
</a>
</g>
</g>
<!-- Node11&#45;&gt;Node10 -->
<g id="edge11" class="edge">
<title>Node11&#45;&gt;Node10</title>
<path fill="none" stroke="#9a32cd" stroke-dasharray="5,2" d="M61.99,-104.27C96.34,-70.44 177.93,0 262,0 262,0 262,0 897,0 1021.88,0 1163.18,-61.56 1214.52,-86.09"/>
<polygon fill="#9a32cd" stroke="#9a32cd" points="59.93,-101.38 55.37,-110.94 64.9,-106.31 59.93,-101.38"/>
<text text-anchor="middle" x="646" y="-3" font-family="Helvetica,sans-Serif" font-size="10.00"> ClipRect</text>
</g>
<!-- Node11&#45;&gt;Node16 -->
<g id="edge41" class="edge">
<title>Node11&#45;&gt;Node16</title>
<path fill="none" stroke="#9a32cd" stroke-dasharray="5,2" d="M80.32,-130.31C88.72,-132.23 97.67,-134.23 106,-136 186.62,-153.11 388.63,-193.91 470,-207 556.2,-220.87 656.66,-232.84 718.55,-239.74"/>
<polygon fill="#9a32cd" stroke="#9a32cd" points="81.31,-126.95 70.77,-128.11 79.73,-133.77 81.31,-126.95"/>
<text text-anchor="middle" x="398.5" y="-217" font-family="Helvetica,sans-Serif" font-size="10.00"> ClipRectFullscreen</text>
<text text-anchor="middle" x="398.5" y="-206" font-family="Helvetica,sans-Serif" font-size="10.00">TexUvLines</text>
</g>
<!-- Node11&#45;&gt;Node22 -->
<g id="edge38" class="edge">
<title>Node11&#45;&gt;Node22</title>
<path fill="none" stroke="#9a32cd" stroke-dasharray="5,2" d="M57.61,-141.09C83.71,-180.51 145.66,-273.7 199,-351 219,-379.98 243.19,-413.83 254.93,-430.18"/>
<polygon fill="#9a32cd" stroke="#9a32cd" points="60.64,-139.33 52.21,-132.92 54.81,-143.19 60.64,-139.33"/>
<text text-anchor="middle" x="143.5" y="-323" font-family="Helvetica,sans-Serif" font-size="10.00"> TexUvLines</text>
</g>
<!-- Node30 -->
<g id="node30" class="node">
<title>Node30</title>
<g id="a_node30"><a xlink:href="struct_im_vector.html" target="_top" xlink:title=" ">
<polygon fill="white" stroke="#bfbfbf" points="452,-85.5 345,-85.5 345,-66.5 452,-66.5 452,-85.5"/>
<text text-anchor="middle" x="398.5" y="-73.5" font-family="Helvetica,sans-Serif" font-size="10.00">ImVector&lt; ImVec4 &gt;</text>
</a>
</g>
</g>
<!-- Node11&#45;&gt;Node30 -->
<g id="edge46" class="edge">
<title>Node11&#45;&gt;Node30</title>
<path fill="none" stroke="#9a32cd" stroke-dasharray="5,2" d="M75.09,-107.46C84.75,-103.4 95.64,-99.43 106,-97 187.75,-77.82 285.63,-74.66 344.62,-74.83"/>
<polygon fill="#9a32cd" stroke="#9a32cd" points="73.92,-104.15 66.19,-111.4 76.75,-110.55 73.92,-104.15"/>
<text text-anchor="middle" x="143.5" y="-100" font-family="Helvetica,sans-Serif" font-size="10.00"> Data</text>
</g>
<!-- Node32 -->
<g id="node32" class="node">
<title>Node32</title>
<g id="a_node32"><a xlink:href="struct_im_draw_cmd_header.html" target="_top" xlink:title=" ">
<polygon fill="white" stroke="#bfbfbf" points="697,-131.5 595,-131.5 595,-112.5 697,-112.5 697,-131.5"/>
<text text-anchor="middle" x="646" y="-119.5" font-family="Helvetica,sans-Serif" font-size="10.00">ImDrawCmdHeader</text>
</a>
</g>
</g>
<!-- Node11&#45;&gt;Node32 -->
<g id="edge50" class="edge">
<title>Node11&#45;&gt;Node32</title>
<path fill="none" stroke="#9a32cd" stroke-dasharray="5,2" d="M80.76,-122C183,-122 476.77,-122 594.91,-122"/>
<polygon fill="#9a32cd" stroke="#9a32cd" points="80.78,-118.5 70.78,-122 80.78,-125.5 80.78,-118.5"/>
<text text-anchor="middle" x="263" y="-125" font-family="Helvetica,sans-Serif" font-size="10.00"> ClipRect</text>
</g>
<!-- Node12&#45;&gt;Node10 -->
<g id="edge12" class="edge">
<title>Node12&#45;&gt;Node10</title>
<path fill="none" stroke="#9a32cd" stroke-dasharray="5,2" d="M1055.4,-145.73C1073.52,-136.21 1098.09,-124.4 1121,-117 1146.74,-108.68 1176.9,-103.3 1199.65,-100.07"/>
<polygon fill="#9a32cd" stroke="#9a32cd" points="1053.76,-142.63 1046.6,-150.44 1057.07,-148.8 1053.76,-142.63"/>
<text text-anchor="middle" x="1151.5" y="-120" font-family="Helvetica,sans-Serif" font-size="10.00"> UserCallback</text>
</g>
<!-- Node13 -->
<g id="node13" class="node">
<title>Node13</title>
<g id="a_node13"><a xlink:href="struct_im_vector.html" target="_top" xlink:title=" ">
<polygon fill="white" stroke="#bfbfbf" points="837.5,-47.5 718.5,-47.5 718.5,-28.5 837.5,-28.5 837.5,-47.5"/>
<text text-anchor="middle" x="778" y="-35.5" font-family="Helvetica,sans-Serif" font-size="10.00">ImVector&lt; ImDrawIdx &gt;</text>
</a>
</g>
</g>
<!-- Node13&#45;&gt;Node8 -->
<g id="edge52" class="edge">
<title>Node13&#45;&gt;Node8</title>
<path fill="none" stroke="#9a32cd" stroke-dasharray="5,2" d="M849.1,-38C898.54,-38 966.33,-38 1026,-38 1026,-38 1026,-38 1394.5,-38 1467.66,-38 1545.22,-87.44 1575.65,-109.07"/>
<polygon fill="#9a32cd" stroke="#9a32cd" points="849.4,-34.5 839.4,-38 849.4,-41.5 849.4,-34.5"/>
<text text-anchor="middle" x="1235.5" y="-41" font-family="Helvetica,sans-Serif" font-size="10.00"> _IdxBuffer</text>
</g>
<!-- Node13&#45;&gt;Node12 -->
<g id="edge14" class="edge">
<title>Node13&#45;&gt;Node12</title>
<path fill="none" stroke="#9a32cd" stroke-dasharray="5,2" d="M849.15,-49.7C882.49,-56.02 918.24,-64.12 933,-72 971.05,-92.31 1004.59,-132.58 1018.79,-151.17"/>
<polygon fill="#9a32cd" stroke="#9a32cd" points="849.92,-46.28 839.45,-47.9 848.65,-53.17 849.92,-46.28"/>
<text text-anchor="middle" x="896" y="-75" font-family="Helvetica,sans-Serif" font-size="10.00"> IdxBuffer</text>
</g>
<!-- Node14 -->
<g id="node14" class="node">
<title>Node14</title>
<g id="a_node14"><a xlink:href="struct_im_vector.html" target="_top" xlink:title=" ">
<polygon fill="white" stroke="#bfbfbf" points="840.5,-170.5 715.5,-170.5 715.5,-151.5 840.5,-151.5 840.5,-170.5"/>
<text text-anchor="middle" x="778" y="-158.5" font-family="Helvetica,sans-Serif" font-size="10.00">ImVector&lt; ImDrawVert &gt;</text>
</a>
</g>
</g>
<!-- Node14&#45;&gt;Node12 -->
<g id="edge15" class="edge">
<title>Node14&#45;&gt;Node12</title>
<path fill="none" stroke="#9a32cd" stroke-dasharray="5,2" d="M852,-161C898.78,-161 957.23,-161 993.07,-161"/>
<polygon fill="#9a32cd" stroke="#9a32cd" points="852.2,-157.5 842.2,-161 852.2,-164.5 852.2,-157.5"/>
<text text-anchor="middle" x="896" y="-164" font-family="Helvetica,sans-Serif" font-size="10.00"> VtxBuffer</text>
</g>
<!-- Node15&#45;&gt;Node12 -->
<g id="edge44" class="edge">
<title>Node15&#45;&gt;Node12</title>
<path fill="none" stroke="#9a32cd" stroke-dasharray="5,2" d="M569.35,-188.84C644.69,-189.77 801.37,-189.64 933,-176 953.17,-173.91 975.62,-170.33 993.41,-167.18"/>
<polygon fill="#9a32cd" stroke="#9a32cd" points="569.53,-185.34 559.48,-188.71 569.43,-192.34 569.53,-185.34"/>
<text text-anchor="middle" x="778" y="-191" font-family="Helvetica,sans-Serif" font-size="10.00"> _VtxWritePtr</text>
</g>
<!-- Node15&#45;&gt;Node14 -->
<g id="edge16" class="edge">
<title>Node15&#45;&gt;Node14</title>
<path fill="none" stroke="#9a32cd" stroke-dasharray="5,2" d="M568.85,-179.85C577.5,-178.43 586.52,-177.07 595,-176 634.95,-170.96 680.05,-167.23 715.36,-164.75"/>
<polygon fill="#9a32cd" stroke="#9a32cd" points="568.53,-176.36 559.26,-181.48 569.7,-183.26 568.53,-176.36"/>
<text text-anchor="middle" x="646" y="-179" font-family="Helvetica,sans-Serif" font-size="10.00"> Data</text>
</g>
<!-- Node16&#45;&gt;Node12 -->
<g id="edge18" class="edge">
<title>Node16&#45;&gt;Node12</title>
<path fill="none" stroke="#9a32cd" stroke-dasharray="5,2" d="M848.49,-240.86C875.52,-237.29 906.34,-231.25 933,-221 964.92,-208.73 997.42,-184.52 1014.25,-170.9"/>
<polygon fill="#9a32cd" stroke="#9a32cd" points="848.16,-237.38 838.66,-242.06 849.01,-244.32 848.16,-237.38"/>
<text text-anchor="middle" x="896" y="-241" font-family="Helvetica,sans-Serif" font-size="10.00"> _Data</text>
</g>
<!-- Node17 -->
<g id="node17" class="node">
<title>Node17</title>
<g id="a_node17"><a xlink:href="struct_im_font.html" target="_top" xlink:title=" ">
<polygon fill="white" stroke="#bfbfbf" points="547,-570.5 500,-570.5 500,-551.5 547,-551.5 547,-570.5"/>
<text text-anchor="middle" x="523.5" y="-558.5" font-family="Helvetica,sans-Serif" font-size="10.00">ImFont</text>
</a>
</g>
</g>
<!-- Node17&#45;&gt;Node16 -->
<g id="edge20" class="edge">
<title>Node17&#45;&gt;Node16</title>
<path fill="none" stroke="#9a32cd" stroke-dasharray="5,2" d="M547.4,-543.91C558.05,-534.73 569.91,-522.54 577,-509 598.36,-468.22 567.04,-443.57 595,-407 625.43,-367.2 666.07,-398.42 697,-359 721.91,-327.25 688.99,-300.85 715,-270 720.13,-263.91 727,-259.36 734.3,-255.96"/>
<polygon fill="#9a32cd" stroke="#9a32cd" points="545.22,-541.17 539.67,-550.19 549.64,-546.6 545.22,-541.17"/>
<text text-anchor="middle" x="646" y="-410" font-family="Helvetica,sans-Serif" font-size="10.00"> Font</text>
</g>
<!-- Node23 -->
<g id="node23" class="node">
<title>Node23</title>
<g id="a_node23"><a xlink:href="struct_im_vector.html" target="_top" xlink:title=" ">
<polygon fill="white" stroke="#bfbfbf" points="833,-526.5 723,-526.5 723,-507.5 833,-507.5 833,-526.5"/>
<text text-anchor="middle" x="778" y="-514.5" font-family="Helvetica,sans-Serif" font-size="10.00">ImVector&lt; ImFont * &gt;</text>
</a>
</g>
</g>
<!-- Node17&#45;&gt;Node23 -->
<g id="edge29" class="edge">
<title>Node17&#45;&gt;Node23</title>
<path fill="none" stroke="#9a32cd" stroke-dasharray="5,2" d="M558.25,-552.21C569.85,-549.37 582.95,-546.34 595,-544 637.64,-535.71 686.34,-528.61 722.63,-523.77"/>
<polygon fill="#9a32cd" stroke="#9a32cd" points="557.57,-548.78 548.72,-554.6 559.27,-555.57 557.57,-548.78"/>
<text text-anchor="middle" x="646" y="-547" font-family="Helvetica,sans-Serif" font-size="10.00"> Data</text>
</g>
<!-- Node17&#45;&gt;Node25 -->
<g id="edge33" class="edge">
<title>Node17&#45;&gt;Node25</title>
<path fill="none" stroke="#9a32cd" stroke-dasharray="5,2" d="M547.17,-544.52C560.84,-534.77 578.69,-522.34 595,-512 625.88,-492.41 720.03,-439.1 759.4,-416.9"/>
<polygon fill="#9a32cd" stroke="#9a32cd" points="545.36,-541.51 539.28,-550.19 549.44,-547.2 545.36,-541.51"/>
<text text-anchor="middle" x="646" y="-515" font-family="Helvetica,sans-Serif" font-size="10.00"> Font</text>
</g>
<!-- Node17&#45;&gt;Node27 -->
<g id="edge37" class="edge">
<title>Node17&#45;&gt;Node27</title>
<path fill="none" stroke="#9a32cd" stroke-dasharray="5,2" d="M558.36,-571.19C569.88,-574.24 582.91,-577.24 595,-579 645.07,-586.27 703.64,-587.19 740.54,-586.85"/>
<polygon fill="#9a32cd" stroke="#9a32cd" points="559.46,-567.86 548.89,-568.57 557.59,-574.61 559.46,-567.86"/>
<text text-anchor="middle" x="646" y="-589" font-family="Helvetica,sans-Serif" font-size="10.00"> DstFont</text>
</g>
<!-- Node18 -->
<g id="node18" class="node">
<title>Node18</title>
<g id="a_node18"><a xlink:href="struct_im_vector.html" target="_top" xlink:title=" ">
<polygon fill="white" stroke="#bfbfbf" points="308.5,-598.5 217.5,-598.5 217.5,-579.5 308.5,-579.5 308.5,-598.5"/>
<text text-anchor="middle" x="263" y="-586.5" font-family="Helvetica,sans-Serif" font-size="10.00">ImVector&lt; float &gt;</text>
</a>
</g>
</g>
<!-- Node18&#45;&gt;Node17 -->
<g id="edge21" class="edge">
<title>Node18&#45;&gt;Node17</title>
<path fill="none" stroke="#9a32cd" stroke-dasharray="5,2" d="M319.9,-582.95C375.94,-576.88 459.48,-567.83 499.5,-563.49"/>
<polygon fill="#9a32cd" stroke="#9a32cd" points="319.8,-579.44 310.24,-583.99 320.56,-586.39 319.8,-579.44"/>
<text text-anchor="middle" x="398.5" y="-582" font-family="Helvetica,sans-Serif" font-size="10.00"> IndexAdvanceX</text>
</g>
<!-- Node19 -->
<g id="node19" class="node">
<title>Node19</title>
<g id="a_node19"><a xlink:href="struct_im_vector.html" target="_top" xlink:title=" ">
<polygon fill="white" stroke="#bfbfbf" points="319,-561.5 207,-561.5 207,-542.5 319,-542.5 319,-561.5"/>
<text text-anchor="middle" x="263" y="-549.5" font-family="Helvetica,sans-Serif" font-size="10.00">ImVector&lt; ImWchar &gt;</text>
</a>
</g>
</g>
<!-- Node19&#45;&gt;Node17 -->
<g id="edge22" class="edge">
<title>Node19&#45;&gt;Node17</title>
<path fill="none" stroke="#9a32cd" stroke-dasharray="5,2" d="M330.48,-552.61C366.47,-553.15 411.69,-554.14 452,-556 467.93,-556.73 485.87,-558.01 499.66,-559.09"/>
<polygon fill="#9a32cd" stroke="#9a32cd" points="330.7,-549.12 320.65,-552.48 330.6,-556.11 330.7,-549.12"/>
<text text-anchor="middle" x="398.5" y="-559" font-family="Helvetica,sans-Serif" font-size="10.00"> IndexLookup</text>
</g>
<!-- Node20 -->
<g id="node20" class="node">
<title>Node20</title>
<g id="a_node20"><a xlink:href="struct_im_vector.html" target="_top" xlink:title=" ">
<polygon fill="white" stroke="#bfbfbf" points="327,-759.5 199,-759.5 199,-740.5 327,-740.5 327,-759.5"/>
<text text-anchor="middle" x="263" y="-747.5" font-family="Helvetica,sans-Serif" font-size="10.00">ImVector&lt; ImFontGlyph &gt;</text>
</a>
</g>
</g>
<!-- Node20&#45;&gt;Node17 -->
<g id="edge23" class="edge">
<title>Node20&#45;&gt;Node17</title>
<path fill="none" stroke="#9a32cd" stroke-dasharray="5,2" d="M338.81,-756.56C376.19,-756.01 420.13,-749.15 452,-725 504.12,-685.5 518.22,-599.7 521.56,-570.76"/>
<polygon fill="#9a32cd" stroke="#9a32cd" points="338.96,-753.06 328.95,-756.54 338.94,-760.06 338.96,-753.06"/>
<text text-anchor="middle" x="398.5" y="-759" font-family="Helvetica,sans-Serif" font-size="10.00"> Glyphs</text>
</g>
<!-- Node21 -->
<g id="node21" class="node">
<title>Node21</title>
<g id="a_node21"><a xlink:href="struct_im_font_glyph.html" target="_top" xlink:title=" ">
<polygon fill="white" stroke="#bfbfbf" points="80,-738.5 8,-738.5 8,-719.5 80,-719.5 80,-738.5"/>
<text text-anchor="middle" x="44" y="-726.5" font-family="Helvetica,sans-Serif" font-size="10.00">ImFontGlyph</text>
</a>
</g>
</g>
<!-- Node21&#45;&gt;Node17 -->
<g id="edge25" class="edge">
<title>Node21&#45;&gt;Node17</title>
<path fill="none" stroke="#9a32cd" stroke-dasharray="5,2" d="M91.54,-724.52C185.05,-714.86 391.94,-689.89 452,-653 485.26,-632.57 508.6,-590.27 517.95,-570.98"/>
<polygon fill="#9a32cd" stroke="#9a32cd" points="91.28,-721.03 81.69,-725.53 91.99,-728 91.28,-721.03"/>
<text text-anchor="middle" x="263" y="-714" font-family="Helvetica,sans-Serif" font-size="10.00"> FallbackGlyph</text>
</g>
<!-- Node21&#45;&gt;Node20 -->
<g id="edge24" class="edge">
<title>Node21&#45;&gt;Node20</title>
<path fill="none" stroke="#9a32cd" stroke-dasharray="5,2" d="M91.78,-733.53C123,-736.55 164.44,-740.56 198.62,-743.87"/>
<polygon fill="#9a32cd" stroke="#9a32cd" points="92.14,-730.05 81.85,-732.57 91.47,-737.01 92.14,-730.05"/>
<text text-anchor="middle" x="143.5" y="-744" font-family="Helvetica,sans-Serif" font-size="10.00"> Data</text>
</g>
<!-- Node22&#45;&gt;Node17 -->
<g id="edge26" class="edge">
<title>Node22&#45;&gt;Node17</title>
<path fill="none" stroke="#9a32cd" stroke-dasharray="5,2" d="M284.17,-457.29C299.93,-470.13 322.8,-487.36 345,-499 352.12,-502.73 453.39,-537.44 499.7,-553.23"/>
<polygon fill="#9a32cd" stroke="#9a32cd" points="286.44,-454.63 276.52,-450.92 281.97,-460.01 286.44,-454.63"/>
<text text-anchor="middle" x="398.5" y="-538" font-family="Helvetica,sans-Serif" font-size="10.00"> ContainerAtlas</text>
</g>
<!-- Node23&#45;&gt;Node22 -->
<g id="edge28" class="edge">
<title>Node23&#45;&gt;Node22</title>
<path fill="none" stroke="#9a32cd" stroke-dasharray="5,2" d="M711.47,-507.99C626.75,-496.22 474.7,-474.66 345,-454 329.64,-451.55 312.67,-448.65 298.26,-446.13"/>
<polygon fill="#9a32cd" stroke="#9a32cd" points="710.83,-511.44 721.21,-509.34 711.79,-504.5 710.83,-511.44"/>
<text text-anchor="middle" x="523.5" y="-491" font-family="Helvetica,sans-Serif" font-size="10.00"> Fonts</text>
</g>
<!-- Node24 -->
<g id="node24" class="node">
<title>Node24</title>
<g id="a_node24"><a xlink:href="struct_im_vector.html" target="_top" xlink:title=" ">
<polygon fill="white" stroke="#bfbfbf" points="1103,-402 951,-402 951,-372 1103,-372 1103,-402"/>
<text text-anchor="start" x="959" y="-390" font-family="Helvetica,sans-Serif" font-size="10.00">ImVector&lt; ImFontAtlasCustom</text>
<text text-anchor="middle" x="1027" y="-379" font-family="Helvetica,sans-Serif" font-size="10.00">Rect &gt;</text>
</a>
</g>
</g>
<!-- Node24&#45;&gt;Node22 -->
<g id="edge30" class="edge">
<title>Node24&#45;&gt;Node22</title>
<path fill="none" stroke="#9a32cd" stroke-dasharray="5,2" d="M939.2,-379.03C876.64,-372.71 790.32,-362.82 715,-350 706.92,-348.63 705.15,-346.89 697,-346 651.94,-341.05 639.83,-339.26 595,-346 529.24,-355.89 515.92,-371.67 452,-390 398.59,-405.31 336.2,-421.59 298.41,-431.27"/>
<polygon fill="#9a32cd" stroke="#9a32cd" points="938.8,-382.5 949.09,-380.02 939.49,-375.54 938.8,-382.5"/>
<text text-anchor="middle" x="646" y="-349" font-family="Helvetica,sans-Serif" font-size="10.00"> CustomRects</text>
</g>
<!-- Node25&#45;&gt;Node24 -->
<g id="edge31" class="edge">
<title>Node25&#45;&gt;Node24</title>
<path fill="none" stroke="#9a32cd" stroke-dasharray="5,2" d="M851.62,-401.12C882.84,-398.59 919.32,-395.64 950.82,-393.09"/>
<polygon fill="#9a32cd" stroke="#9a32cd" points="851.57,-397.61 841.88,-401.91 852.13,-404.59 851.57,-397.61"/>
<text text-anchor="middle" x="896" y="-402" font-family="Helvetica,sans-Serif" font-size="10.00"> Data</text>
</g>
<!-- Node26 -->
<g id="node26" class="node">
<title>Node26</title>
<g id="a_node26"><a xlink:href="struct_im_vector.html" target="_top" xlink:title=" ">
<polygon fill="white" stroke="#bfbfbf" points="1092.5,-495.5 961.5,-495.5 961.5,-476.5 1092.5,-476.5 1092.5,-495.5"/>
<text text-anchor="middle" x="1027" y="-483.5" font-family="Helvetica,sans-Serif" font-size="10.00">ImVector&lt; ImFontConfig &gt;</text>
</a>
</g>
</g>
<!-- Node26&#45;&gt;Node22 -->
<g id="edge34" class="edge">
<title>Node26&#45;&gt;Node22</title>
<path fill="none" stroke="#9a32cd" stroke-dasharray="5,2" d="M961.62,-474.04C895.51,-462.41 789.49,-445.57 697,-439 548.91,-428.48 371.6,-434.79 298.3,-438.22"/>
<polygon fill="#9a32cd" stroke="#9a32cd" points="960.74,-477.44 971.19,-475.74 961.96,-470.55 960.74,-477.44"/>
<text text-anchor="middle" x="646" y="-442" font-family="Helvetica,sans-Serif" font-size="10.00"> ConfigData</text>
</g>
<!-- Node27&#45;&gt;Node17 -->
<g id="edge40" class="edge">
<title>Node27&#45;&gt;Node17</title>
<path fill="none" stroke="#9a32cd" stroke-dasharray="5,2" d="M733.05,-573.2C721.43,-570.32 708.82,-567.63 697,-566 643.72,-558.66 580.35,-559.15 547.23,-560.11"/>
<polygon fill="#9a32cd" stroke="#9a32cd" points="731.82,-576.5 742.38,-575.62 733.57,-569.72 731.82,-576.5"/>
<text text-anchor="middle" x="646" y="-569" font-family="Helvetica,sans-Serif" font-size="10.00"> ConfigData</text>
</g>
<!-- Node27&#45;&gt;Node26 -->
<g id="edge35" class="edge">
<title>Node27&#45;&gt;Node26</title>
<path fill="none" stroke="#9a32cd" stroke-dasharray="5,2" d="M814.04,-571.81C864.79,-551.27 957.48,-513.74 1001.51,-495.91"/>
<polygon fill="#9a32cd" stroke="#9a32cd" points="812.94,-568.48 804.99,-575.48 815.57,-574.97 812.94,-568.48"/>
<text text-anchor="middle" x="896" y="-553" font-family="Helvetica,sans-Serif" font-size="10.00"> Data</text>
</g>
<!-- Node28 -->
<g id="node28" class="node">
<title>Node28</title>
<g id="a_node28"><a xlink:href="struct_im_font_builder_i_o.html" target="_top" xlink:title=" ">
<polygon fill="white" stroke="#bfbfbf" points="88,-465.5 0,-465.5 0,-446.5 88,-446.5 88,-465.5"/>
<text text-anchor="middle" x="44" y="-453.5" font-family="Helvetica,sans-Serif" font-size="10.00">ImFontBuilderIO</text>
</a>
</g>
</g>
<!-- Node28&#45;&gt;Node22 -->
<g id="edge39" class="edge">
<title>Node28&#45;&gt;Node22</title>
<path fill="none" stroke="#9a32cd" stroke-dasharray="5,2" d="M99.87,-451.95C140.03,-448.99 193.28,-445.07 227.6,-442.54"/>
<polygon fill="#9a32cd" stroke="#9a32cd" points="99.62,-448.46 89.9,-452.69 100.13,-455.44 99.62,-448.46"/>
<text text-anchor="middle" x="143.5" y="-454" font-family="Helvetica,sans-Serif" font-size="10.00"> FontBuilderIO</text>
</g>
<!-- Node29&#45;&gt;Node12 -->
<g id="edge48" class="edge">
<title>Node29&#45;&gt;Node12</title>
<path fill="none" stroke="#9a32cd" stroke-dasharray="5,2" d="M588.67,-306.28C688.2,-299.64 874.43,-283.5 933,-253 972.08,-232.65 1005.34,-190.31 1019.15,-170.99"/>
<polygon fill="#9a32cd" stroke="#9a32cd" points="588.53,-302.78 578.78,-306.92 588.99,-309.77 588.53,-302.78"/>
<text text-anchor="middle" x="778" y="-298" font-family="Helvetica,sans-Serif" font-size="10.00"> _Path</text>
</g>
<!-- Node29&#45;&gt;Node16 -->
<g id="edge42" class="edge">
<title>Node29&#45;&gt;Node16</title>
<path fill="none" stroke="#9a32cd" stroke-dasharray="5,2" d="M560.53,-296.21C571.5,-292.29 583.66,-288.21 595,-285 619.33,-278.11 681.93,-265.07 726.92,-255.97"/>
<polygon fill="#9a32cd" stroke="#9a32cd" points="559.64,-292.81 551.45,-299.53 562.04,-299.38 559.64,-292.81"/>
<text text-anchor="middle" x="646" y="-288" font-family="Helvetica,sans-Serif" font-size="10.00"> TempBuffer</text>
</g>
<!-- Node30&#45;&gt;Node12 -->
<g id="edge45" class="edge">
<title>Node30&#45;&gt;Node12</title>
<path fill="none" stroke="#9a32cd" stroke-dasharray="5,2" d="M463.43,-76.73C564.54,-79.17 766.94,-89.24 933,-130 955.97,-135.64 981.42,-144.29 999.88,-151.03"/>
<polygon fill="#9a32cd" stroke="#9a32cd" points="463.79,-73.24 453.71,-76.52 463.63,-80.24 463.79,-73.24"/>
<text text-anchor="middle" x="646" y="-95" font-family="Helvetica,sans-Serif" font-size="10.00"> _ClipRectStack</text>
</g>
<!-- Node31 -->
<g id="node31" class="node">
<title>Node31</title>
<g id="a_node31"><a xlink:href="struct_im_vector.html" target="_top" xlink:title=" ">
<polygon fill="white" stroke="#bfbfbf" points="841,-340.5 715,-340.5 715,-321.5 841,-321.5 841,-340.5"/>
<text text-anchor="middle" x="778" y="-328.5" font-family="Helvetica,sans-Serif" font-size="10.00">ImVector&lt; ImTextureID &gt;</text>
</a>
</g>
</g>
<!-- Node31&#45;&gt;Node12 -->
<g id="edge47" class="edge">
<title>Node31&#45;&gt;Node12</title>
<path fill="none" stroke="#9a32cd" stroke-dasharray="5,2" d="M852.74,-331.34C879.8,-328.44 909.52,-321.41 933,-306 985.01,-271.87 1013.9,-197.48 1022.9,-170.78"/>
<polygon fill="#9a32cd" stroke="#9a32cd" points="852.49,-327.85 842.84,-332.22 853.11,-334.83 852.49,-327.85"/>
<text text-anchor="middle" x="896" y="-333" font-family="Helvetica,sans-Serif" font-size="10.00"> _TextureIdStack</text>
</g>
<!-- Node32&#45;&gt;Node12 -->
<g id="edge49" class="edge">
<title>Node32&#45;&gt;Node12</title>
<path fill="none" stroke="#9a32cd" stroke-dasharray="5,2" d="M708.81,-123.07C746.99,-124.17 796.93,-126.42 841,-131 894.56,-136.57 956.19,-147.47 993.07,-154.49"/>
<polygon fill="#9a32cd" stroke="#9a32cd" points="708.97,-119.57 698.88,-122.8 708.78,-126.57 708.97,-119.57"/>
<text text-anchor="middle" x="778" y="-134" font-family="Helvetica,sans-Serif" font-size="10.00"> _CmdHeader</text>
</g>
</g>
</svg>
