<?xml version="1.0" encoding="UTF-8" standalone="no"?>
<!DOCTYPE svg PUBLIC "-//W3C//DTD SVG 1.1//EN"
 "http://www.w3.org/Graphics/SVG/1.1/DTD/svg11.dtd">
<!-- Generated by graphviz version 7.0.5 (20221223.1930)
 -->
<!-- Title: ImDrawCmd Pages: 1 -->
<svg width="1490pt" height="810pt"
 viewBox="0.00 0.00 1490.00 809.50" xmlns="http://www.w3.org/2000/svg" xmlns:xlink="http://www.w3.org/1999/xlink">
<g id="graph0" class="graph" transform="scale(1 1) rotate(0) translate(4 805.5)">
<title>ImDrawCmd</title>
<!-- Node1 -->
<g id="node1" class="node">
<title>Node1</title>
<g id="a_node1"><a xlink:title=" ">
<polygon fill="#999999" stroke="#666666" points="197,-701 126,-701 126,-682 197,-682 197,-701"/>
<text text-anchor="middle" x="161.5" y="-689" font-family="Helvetica,sans-Serif" font-size="10.00">ImDrawCmd</text>
</a>
</g>
</g>
<!-- Node4 -->
<g id="node4" class="node">
<title>Node4</title>
<g id="a_node4"><a xlink:href="struct_im_vector.html" target="_top" xlink:title=" ">
<polygon fill="white" stroke="#bfbfbf" points="462,-701 335,-701 335,-682 462,-682 462,-701"/>
<text text-anchor="middle" x="398.5" y="-689" font-family="Helvetica,sans-Serif" font-size="10.00">ImVector&lt; ImDrawCmd &gt;</text>
</a>
</g>
</g>
<!-- Node1&#45;&gt;Node4 -->
<g id="edge4" class="edge">
<title>Node1&#45;&gt;Node4</title>
<path fill="none" stroke="#9a32cd" stroke-dasharray="5,2" d="M208.6,-691.5C244.68,-691.5 295.22,-691.5 334.95,-691.5"/>
<polygon fill="#9a32cd" stroke="#9a32cd" points="208.94,-688 198.94,-691.5 208.94,-695 208.94,-688"/>
<text text-anchor="middle" x="266" y="-694.5" font-family="Helvetica,sans-Serif" font-size="10.00"> Data</text>
</g>
<!-- Node2 -->
<g id="node2" class="node">
<title>Node2</title>
<g id="a_node2"><a xlink:href="struct_im_vec4.html" target="_top" xlink:title=" ">
<polygon fill="white" stroke="#bfbfbf" points="50,-564 0,-564 0,-545 50,-545 50,-564"/>
<text text-anchor="middle" x="25" y="-552" font-family="Helvetica,sans-Serif" font-size="10.00">ImVec4</text>
</a>
</g>
</g>
<!-- Node2&#45;&gt;Node1 -->
<g id="edge1" class="edge">
<title>Node2&#45;&gt;Node1</title>
<path fill="none" stroke="#9a32cd" stroke-dasharray="5,2" d="M43.66,-572.49C72.45,-601.81 128.51,-658.92 150.91,-681.74"/>
<polygon fill="#9a32cd" stroke="#9a32cd" points="46.24,-570.12 36.73,-565.43 41.24,-575.02 46.24,-570.12"/>
<text text-anchor="middle" x="88" y="-637.5" font-family="Helvetica,sans-Serif" font-size="10.00"> ClipRect</text>
</g>
<!-- Node9 -->
<g id="node9" class="node">
<title>Node9</title>
<g id="a_node9"><a xlink:href="struct_im_draw_list_shared_data.html" target="_top" xlink:title=" ">
<polygon fill="white" stroke="#bfbfbf" points="1216,-395 1098,-395 1098,-376 1216,-376 1216,-395"/>
<text text-anchor="middle" x="1157" y="-383" font-family="Helvetica,sans-Serif" font-size="10.00">ImDrawListSharedData</text>
</a>
</g>
</g>
<!-- Node2&#45;&gt;Node9 -->
<g id="edge32" class="edge">
<title>Node2&#45;&gt;Node9</title>
<path fill="none" stroke="#9a32cd" stroke-dasharray="5,2" d="M61.73,-548.67C152.36,-534.04 398.63,-495.25 605,-471.5 778.29,-451.56 823.47,-463.23 996,-437.5 1031.95,-432.14 1041.39,-431.62 1076,-420.5 1097.22,-413.68 1120.45,-403.15 1136.38,-395.42"/>
<polygon fill="#9a32cd" stroke="#9a32cd" points="61.29,-545.2 51.98,-550.25 62.41,-552.11 61.29,-545.2"/>
<text text-anchor="middle" x="533.5" y="-500.5" font-family="Helvetica,sans-Serif" font-size="10.00"> ClipRectFullscreen</text>
<text text-anchor="middle" x="533.5" y="-489.5" font-family="Helvetica,sans-Serif" font-size="10.00">TexUvLines</text>
</g>
<!-- Node15 -->
<g id="node15" class="node">
<title>Node15</title>
<g id="a_node15"><a xlink:href="struct_im_font_atlas.html" target="_top" xlink:title=" ">
<polygon fill="white" stroke="#bfbfbf" points="704,-235 634,-235 634,-216 704,-216 704,-235"/>
<text text-anchor="middle" x="669" y="-223" font-family="Helvetica,sans-Serif" font-size="10.00">ImFontAtlas</text>
</a>
</g>
</g>
<!-- Node2&#45;&gt;Node15 -->
<g id="edge29" class="edge">
<title>Node2&#45;&gt;Node15</title>
<path fill="none" stroke="#9a32cd" stroke-dasharray="5,2" d="M34.18,-534.38C41.31,-518.77 52.87,-497.34 68,-482.5 213.99,-339.26 285.81,-341.68 480,-277.5 533.05,-259.97 595.82,-243.43 633.73,-233.89"/>
<polygon fill="#9a32cd" stroke="#9a32cd" points="31.14,-532.6 30.39,-543.16 37.57,-535.37 31.14,-532.6"/>
<text text-anchor="middle" x="266" y="-371.5" font-family="Helvetica,sans-Serif" font-size="10.00"> TexUvLines</text>
</g>
<!-- Node23 -->
<g id="node23" class="node">
<title>Node23</title>
<g id="a_node23"><a xlink:href="struct_im_vector.html" target="_top" xlink:title=" ">
<polygon fill="white" stroke="#bfbfbf" points="587,-798 480,-798 480,-779 587,-779 587,-798"/>
<text text-anchor="middle" x="533.5" y="-786" font-family="Helvetica,sans-Serif" font-size="10.00">ImVector&lt; ImVec4 &gt;</text>
</a>
</g>
</g>
<!-- Node2&#45;&gt;Node23 -->
<g id="edge37" class="edge">
<title>Node2&#45;&gt;Node23</title>
<path fill="none" stroke="#9a32cd" stroke-dasharray="5,2" d="M32.68,-574.84C39.75,-594.81 52.1,-625.66 68,-649.5 113.13,-717.16 137.16,-734.9 215,-758.5 305.07,-785.81 415.53,-790.08 479.58,-789.86"/>
<polygon fill="#9a32cd" stroke="#9a32cd" points="36.09,-573.99 29.54,-565.65 29.46,-576.25 36.09,-573.99"/>
<text text-anchor="middle" x="161.5" y="-755.5" font-family="Helvetica,sans-Serif" font-size="10.00"> Data</text>
</g>
<!-- Node25 -->
<g id="node25" class="node">
<title>Node25</title>
<g id="a_node25"><a xlink:href="struct_im_draw_cmd_header.html" target="_top" xlink:title=" ">
<polygon fill="white" stroke="#bfbfbf" points="317,-564 215,-564 215,-545 317,-545 317,-564"/>
<text text-anchor="middle" x="266" y="-552" font-family="Helvetica,sans-Serif" font-size="10.00">ImDrawCmdHeader</text>
</a>
</g>
</g>
<!-- Node2&#45;&gt;Node25 -->
<g id="edge41" class="edge">
<title>Node2&#45;&gt;Node25</title>
<path fill="none" stroke="#9a32cd" stroke-dasharray="5,2" d="M61.72,-554.5C102.38,-554.5 169.11,-554.5 214.95,-554.5"/>
<polygon fill="#9a32cd" stroke="#9a32cd" points="61.75,-551 51.75,-554.5 61.75,-558 61.75,-551"/>
<text text-anchor="middle" x="88" y="-557.5" font-family="Helvetica,sans-Serif" font-size="10.00"> ClipRect</text>
</g>
<!-- Node3 -->
<g id="node3" class="node">
<title>Node3</title>
<g id="a_node3"><a xlink:href="struct_im_draw_list.html" target="_top" xlink:title=" ">
<polygon fill="white" stroke="#bfbfbf" points="1439.5,-603 1372.5,-603 1372.5,-584 1439.5,-584 1439.5,-603"/>
<text text-anchor="middle" x="1406" y="-591" font-family="Helvetica,sans-Serif" font-size="10.00">ImDrawList</text>
</a>
</g>
</g>
<!-- Node3&#45;&gt;Node1 -->
<g id="edge2" class="edge">
<title>Node3&#45;&gt;Node1</title>
<path fill="none" stroke="#9a32cd" stroke-dasharray="5,2" d="M1391.05,-612.45C1374.4,-633.86 1344.67,-668.46 1312,-689.5 1250.9,-728.85 1230.68,-744.5 1158,-744.5 397.5,-744.5 397.5,-744.5 397.5,-744.5 320.13,-744.5 231.86,-716.82 188.85,-701.47"/>
<polygon fill="#9a32cd" stroke="#9a32cd" points="1393.76,-614.66 1397.02,-604.58 1388.19,-610.43 1393.76,-614.66"/>
<text text-anchor="middle" x="793.5" y="-747.5" font-family="Helvetica,sans-Serif" font-size="10.00"> UserCallback</text>
</g>
<!-- Node4&#45;&gt;Node3 -->
<g id="edge3" class="edge">
<title>Node4&#45;&gt;Node3</title>
<path fill="none" stroke="#9a32cd" stroke-dasharray="5,2" d="M473.62,-696.55C617.9,-705.2 946.33,-719.01 1220,-687.5 1261.67,-682.7 1274.14,-684.55 1312,-666.5 1346.28,-650.16 1379.58,-619.31 1395.42,-603.46"/>
<polygon fill="#9a32cd" stroke="#9a32cd" points="474.02,-693.07 463.82,-695.96 473.59,-700.06 474.02,-693.07"/>
<text text-anchor="middle" x="925" y="-709.5" font-family="Helvetica,sans-Serif" font-size="10.00"> CmdBuffer</text>
</g>
<!-- Node28 -->
<g id="node28" class="node">
<title>Node28</title>
<g id="a_node28"><a xlink:href="struct_im_draw_channel.html" target="_top" xlink:title=" ">
<polygon fill="white" stroke="#bfbfbf" points="712,-649 626,-649 626,-630 712,-630 712,-649"/>
<text text-anchor="middle" x="669" y="-637" font-family="Helvetica,sans-Serif" font-size="10.00">ImDrawChannel</text>
</a>
</g>
</g>
<!-- Node4&#45;&gt;Node28 -->
<g id="edge45" class="edge">
<title>Node4&#45;&gt;Node28</title>
<path fill="none" stroke="#9a32cd" stroke-dasharray="5,2" d="M462.01,-679.39C512.28,-669.66 581.55,-656.24 625.56,-647.72"/>
<polygon fill="#9a32cd" stroke="#9a32cd" points="461.59,-675.91 452.44,-681.25 462.92,-682.78 461.59,-675.91"/>
<text text-anchor="middle" x="533.5" y="-677.5" font-family="Helvetica,sans-Serif" font-size="10.00"> _CmdBuffer</text>
</g>
<!-- Node5 -->
<g id="node5" class="node">
<title>Node5</title>
<g id="a_node5"><a xlink:href="struct_im_vector.html" target="_top" xlink:title=" ">
<polygon fill="white" stroke="#bfbfbf" points="458,-627 339,-627 339,-608 458,-608 458,-627"/>
<text text-anchor="middle" x="398.5" y="-615" font-family="Helvetica,sans-Serif" font-size="10.00">ImVector&lt; ImDrawIdx &gt;</text>
</a>
</g>
</g>
<!-- Node5&#45;&gt;Node3 -->
<g id="edge5" class="edge">
<title>Node5&#45;&gt;Node3</title>
<path fill="none" stroke="#9a32cd" stroke-dasharray="5,2" d="M469.72,-615.82C668.59,-611.08 1230.38,-597.67 1372.18,-594.28"/>
<polygon fill="#9a32cd" stroke="#9a32cd" points="469.7,-612.32 459.79,-616.06 469.87,-619.32 469.7,-612.32"/>
<text text-anchor="middle" x="925" y="-609.5" font-family="Helvetica,sans-Serif" font-size="10.00"> IdxBuffer</text>
</g>
<!-- Node5&#45;&gt;Node28 -->
<g id="edge46" class="edge">
<title>Node5&#45;&gt;Node28</title>
<path fill="none" stroke="#9a32cd" stroke-dasharray="5,2" d="M469.71,-623.25C519.29,-627.32 584.08,-632.62 625.87,-636.05"/>
<polygon fill="#9a32cd" stroke="#9a32cd" points="470.18,-619.78 459.93,-622.45 469.61,-626.76 470.18,-619.78"/>
<text text-anchor="middle" x="533.5" y="-634.5" font-family="Helvetica,sans-Serif" font-size="10.00"> _IdxBuffer</text>
</g>
<!-- Node6 -->
<g id="node6" class="node">
<title>Node6</title>
<g id="a_node6"><a xlink:href="struct_im_vector.html" target="_top" xlink:title=" ">
<polygon fill="white" stroke="#bfbfbf" points="1219.5,-480 1094.5,-480 1094.5,-461 1219.5,-461 1219.5,-480"/>
<text text-anchor="middle" x="1157" y="-468" font-family="Helvetica,sans-Serif" font-size="10.00">ImVector&lt; ImDrawVert &gt;</text>
</a>
</g>
</g>
<!-- Node6&#45;&gt;Node3 -->
<g id="edge6" class="edge">
<title>Node6&#45;&gt;Node3</title>
<path fill="none" stroke="#9a32cd" stroke-dasharray="5,2" d="M1231.05,-470.2C1257.77,-472.68 1287.44,-478.6 1312,-491.5 1354.01,-513.56 1386.67,-562.51 1399.31,-583.56"/>
<polygon fill="#9a32cd" stroke="#9a32cd" points="1231.55,-466.73 1221.31,-469.46 1231.02,-473.71 1231.55,-466.73"/>
<text text-anchor="middle" x="1275" y="-494.5" font-family="Helvetica,sans-Serif" font-size="10.00"> VtxBuffer</text>
</g>
<!-- Node7 -->
<g id="node7" class="node">
<title>Node7</title>
<g id="a_node7"><a xlink:href="struct_im_draw_vert.html" target="_top" xlink:title=" ">
<polygon fill="white" stroke="#bfbfbf" points="959,-513 891,-513 891,-494 959,-494 959,-513"/>
<text text-anchor="middle" x="925" y="-501" font-family="Helvetica,sans-Serif" font-size="10.00">ImDrawVert</text>
</a>
</g>
</g>
<!-- Node7&#45;&gt;Node3 -->
<g id="edge35" class="edge">
<title>Node7&#45;&gt;Node3</title>
<path fill="none" stroke="#9a32cd" stroke-dasharray="5,2" d="M970.62,-505.48C1058.21,-509.77 1249.55,-521.19 1312,-541.5 1342.26,-551.34 1373.84,-571.43 1391.31,-583.56"/>
<polygon fill="#9a32cd" stroke="#9a32cd" points="970.89,-501.99 960.74,-505.01 970.56,-508.98 970.89,-501.99"/>
<text text-anchor="middle" x="1157" y="-527.5" font-family="Helvetica,sans-Serif" font-size="10.00"> _VtxWritePtr</text>
</g>
<!-- Node7&#45;&gt;Node6 -->
<g id="edge7" class="edge">
<title>Node7&#45;&gt;Node6</title>
<path fill="none" stroke="#9a32cd" stroke-dasharray="5,2" d="M970.8,-497.07C1006.01,-492.02 1055.44,-484.93 1094.37,-479.34"/>
<polygon fill="#9a32cd" stroke="#9a32cd" points="970.34,-493.6 960.94,-498.49 971.34,-500.53 970.34,-493.6"/>
<text text-anchor="middle" x="1045" y="-492.5" font-family="Helvetica,sans-Serif" font-size="10.00"> Data</text>
</g>
<!-- Node8 -->
<g id="node8" class="node">
<title>Node8</title>
<g id="a_node8"><a xlink:href="struct_im_vec2.html" target="_top" xlink:title=" ">
<polygon fill="white" stroke="#bfbfbf" points="423.5,-362 373.5,-362 373.5,-343 423.5,-343 423.5,-362"/>
<text text-anchor="middle" x="398.5" y="-350" font-family="Helvetica,sans-Serif" font-size="10.00">ImVec2</text>
</a>
</g>
</g>
<!-- Node8&#45;&gt;Node7 -->
<g id="edge8" class="edge">
<title>Node8&#45;&gt;Node7</title>
<path fill="none" stroke="#9a32cd" stroke-dasharray="5,2" d="M418.65,-369.87C434.12,-382.97 457.03,-400.37 480,-410.5 624.3,-474.15 814.52,-495.13 890.53,-501.24"/>
<polygon fill="#9a32cd" stroke="#9a32cd" points="421.02,-367.29 411.19,-363.36 416.42,-372.57 421.02,-367.29"/>
<text text-anchor="middle" x="669" y="-494.5" font-family="Helvetica,sans-Serif" font-size="10.00"> pos</text>
<text text-anchor="middle" x="669" y="-483.5" font-family="Helvetica,sans-Serif" font-size="10.00">uv</text>
</g>
<!-- Node8&#45;&gt;Node9 -->
<g id="edge10" class="edge">
<title>Node8&#45;&gt;Node9</title>
<path fill="none" stroke="#9a32cd" stroke-dasharray="5,2" d="M435.25,-354.06C555.82,-359.32 948.24,-376.44 1097.58,-382.95"/>
<polygon fill="#9a32cd" stroke="#9a32cd" points="435.47,-350.57 425.33,-353.63 435.16,-357.56 435.47,-350.57"/>
<text text-anchor="middle" x="793.5" y="-385.5" font-family="Helvetica,sans-Serif" font-size="10.00"> ArcFastVtx</text>
<text text-anchor="middle" x="793.5" y="-374.5" font-family="Helvetica,sans-Serif" font-size="10.00">TexUvWhitePixel</text>
</g>
<!-- Node8&#45;&gt;Node15 -->
<g id="edge18" class="edge">
<title>Node8&#45;&gt;Node15</title>
<path fill="none" stroke="#9a32cd" stroke-dasharray="5,2" d="M419.62,-335.46C435.16,-323.15 457.72,-307.07 480,-297.5 524.7,-278.31 541.79,-292.45 587,-274.5 612.51,-264.37 639.21,-246.61 654.69,-235.48"/>
<polygon fill="#9a32cd" stroke="#9a32cd" points="417.63,-332.57 412.09,-341.59 422.05,-337.99 417.63,-332.57"/>
<text text-anchor="middle" x="533.5" y="-311.5" font-family="Helvetica,sans-Serif" font-size="10.00"> TexUvScale</text>
<text text-anchor="middle" x="533.5" y="-300.5" font-family="Helvetica,sans-Serif" font-size="10.00">TexUvWhitePixel</text>
</g>
<!-- Node18 -->
<g id="node18" class="node">
<title>Node18</title>
<g id="a_node18"><a xlink:href="struct_im_font_atlas_custom_rect.html" target="_top" xlink:title=" ">
<polygon fill="white" stroke="#bfbfbf" points="1219,-284 1095,-284 1095,-265 1219,-265 1219,-284"/>
<text text-anchor="middle" x="1157" y="-272" font-family="Helvetica,sans-Serif" font-size="10.00">ImFontAtlasCustomRect</text>
</a>
</g>
</g>
<!-- Node8&#45;&gt;Node18 -->
<g id="edge23" class="edge">
<title>Node8&#45;&gt;Node18</title>
<path fill="none" stroke="#9a32cd" stroke-dasharray="5,2" d="M435.18,-348.82C554.9,-336.48 943.32,-296.43 1094.76,-280.81"/>
<polygon fill="#9a32cd" stroke="#9a32cd" points="434.91,-345.33 425.32,-349.84 435.63,-352.29 434.91,-345.33"/>
<text text-anchor="middle" x="793.5" y="-319.5" font-family="Helvetica,sans-Serif" font-size="10.00"> GlyphOffset</text>
</g>
<!-- Node20 -->
<g id="node20" class="node">
<title>Node20</title>
<g id="a_node20"><a xlink:href="struct_im_font_config.html" target="_top" xlink:title=" ">
<polygon fill="white" stroke="#bfbfbf" points="1194,-127 1120,-127 1120,-108 1194,-108 1194,-127"/>
<text text-anchor="middle" x="1157" y="-115" font-family="Helvetica,sans-Serif" font-size="10.00">ImFontConfig</text>
</a>
</g>
</g>
<!-- Node8&#45;&gt;Node20 -->
<g id="edge27" class="edge">
<title>Node8&#45;&gt;Node20</title>
<path fill="none" stroke="#9a32cd" stroke-dasharray="5,2" d="M410.76,-333.1C425.91,-307.26 453.97,-260.29 480,-221.5 532.46,-143.33 521.06,-93.12 605,-50.5 698.62,-2.97 974.11,-62.18 1076,-87.5 1096.01,-92.47 1117.88,-100.89 1133.68,-107.55"/>
<polygon fill="#9a32cd" stroke="#9a32cd" points="407.88,-331.09 405.86,-341.49 413.93,-334.62 407.88,-331.09"/>
<text text-anchor="middle" x="793.5" y="-55.5" font-family="Helvetica,sans-Serif" font-size="10.00"> GlyphExtraSpacing</text>
<text text-anchor="middle" x="793.5" y="-44.5" font-family="Helvetica,sans-Serif" font-size="10.00">GlyphOffset</text>
</g>
<!-- Node22 -->
<g id="node22" class="node">
<title>Node22</title>
<g id="a_node22"><a xlink:href="struct_im_vector.html" target="_top" xlink:title=" ">
<polygon fill="white" stroke="#bfbfbf" points="978.5,-428 871.5,-428 871.5,-409 978.5,-409 978.5,-428"/>
<text text-anchor="middle" x="925" y="-416" font-family="Helvetica,sans-Serif" font-size="10.00">ImVector&lt; ImVec2 &gt;</text>
</a>
</g>
</g>
<!-- Node8&#45;&gt;Node22 -->
<g id="edge34" class="edge">
<title>Node8&#45;&gt;Node22</title>
<path fill="none" stroke="#9a32cd" stroke-dasharray="5,2" d="M428.27,-367.37C443.28,-374.42 462.19,-382.22 480,-386.5 618.27,-419.72 787.15,-421.72 871.2,-420.21"/>
<polygon fill="#9a32cd" stroke="#9a32cd" points="429.98,-364.31 419.46,-363.09 426.92,-370.6 429.98,-364.31"/>
<text text-anchor="middle" x="669" y="-421.5" font-family="Helvetica,sans-Serif" font-size="10.00"> Data</text>
</g>
<!-- Node9&#45;&gt;Node3 -->
<g id="edge9" class="edge">
<title>Node9&#45;&gt;Node3</title>
<path fill="none" stroke="#9a32cd" stroke-dasharray="5,2" d="M1227.33,-381.3C1255.86,-382.84 1287.81,-389.14 1312,-406.5 1375.04,-451.74 1397.67,-552.02 1403.4,-583.7"/>
<polygon fill="#9a32cd" stroke="#9a32cd" points="1227.8,-377.81 1217.69,-380.97 1227.57,-384.81 1227.8,-377.81"/>
<text text-anchor="middle" x="1275" y="-409.5" font-family="Helvetica,sans-Serif" font-size="10.00"> _Data</text>
</g>
<!-- Node10 -->
<g id="node10" class="node">
<title>Node10</title>
<g id="a_node10"><a xlink:href="struct_im_font.html" target="_top" xlink:title=" ">
<polygon fill="white" stroke="#bfbfbf" points="948.5,-143 901.5,-143 901.5,-124 948.5,-124 948.5,-143"/>
<text text-anchor="middle" x="925" y="-131" font-family="Helvetica,sans-Serif" font-size="10.00">ImFont</text>
</a>
</g>
</g>
<!-- Node10&#45;&gt;Node9 -->
<g id="edge11" class="edge">
<title>Node10&#45;&gt;Node9</title>
<path fill="none" stroke="#9a32cd" stroke-dasharray="5,2" d="M959.84,-140.73C973.17,-145.31 987.34,-152.7 996,-164.5 1038.33,-222.2 969.91,-268.14 1014,-324.5 1032.11,-347.65 1048.92,-336.07 1076,-347.5 1096.97,-356.35 1120.43,-367.67 1136.49,-375.64"/>
<polygon fill="#9a32cd" stroke="#9a32cd" points="961.01,-137.42 950.43,-137.93 959.02,-144.13 961.01,-137.42"/>
<text text-anchor="middle" x="1045" y="-350.5" font-family="Helvetica,sans-Serif" font-size="10.00"> Font</text>
</g>
<!-- Node16 -->
<g id="node16" class="node">
<title>Node16</title>
<g id="a_node16"><a xlink:href="struct_im_vector.html" target="_top" xlink:title=" ">
<polygon fill="white" stroke="#bfbfbf" points="1212,-179 1102,-179 1102,-160 1212,-160 1212,-179"/>
<text text-anchor="middle" x="1157" y="-167" font-family="Helvetica,sans-Serif" font-size="10.00">ImVector&lt; ImFont * &gt;</text>
</a>
</g>
</g>
<!-- Node10&#45;&gt;Node16 -->
<g id="edge20" class="edge">
<title>Node10&#45;&gt;Node16</title>
<path fill="none" stroke="#9a32cd" stroke-dasharray="5,2" d="M960.15,-138.85C997.48,-144.69 1057.8,-154.13 1101.64,-160.99"/>
<polygon fill="#9a32cd" stroke="#9a32cd" points="960.81,-135.41 950.39,-137.32 959.73,-142.32 960.81,-135.41"/>
<text text-anchor="middle" x="1045" y="-160.5" font-family="Helvetica,sans-Serif" font-size="10.00"> Data</text>
</g>
<!-- Node10&#45;&gt;Node18 -->
<g id="edge24" class="edge">
<title>Node10&#45;&gt;Node18</title>
<path fill="none" stroke="#9a32cd" stroke-dasharray="5,2" d="M959.56,-141.59C972.59,-146.3 986.61,-153.54 996,-164.5 1016.06,-187.92 992.54,-209.36 1014,-231.5 1021.3,-239.04 1076.88,-254.41 1116.29,-264.58"/>
<polygon fill="#9a32cd" stroke="#9a32cd" points="961,-138.38 950.41,-138.67 958.87,-145.05 961,-138.38"/>
<text text-anchor="middle" x="1045" y="-256.5" font-family="Helvetica,sans-Serif" font-size="10.00"> Font</text>
</g>
<!-- Node10&#45;&gt;Node20 -->
<g id="edge28" class="edge">
<title>Node10&#45;&gt;Node20</title>
<path fill="none" stroke="#9a32cd" stroke-dasharray="5,2" d="M951.87,-118.18C968.89,-109.02 992,-98.27 1014,-93.5 1054.69,-84.69 1102.52,-97.49 1130.99,-107.52"/>
<polygon fill="#9a32cd" stroke="#9a32cd" points="950.49,-114.95 943.46,-122.87 953.89,-121.06 950.49,-114.95"/>
<text text-anchor="middle" x="1045" y="-96.5" font-family="Helvetica,sans-Serif" font-size="10.00"> DstFont</text>
</g>
<!-- Node11 -->
<g id="node11" class="node">
<title>Node11</title>
<g id="a_node11"><a xlink:href="struct_im_vector.html" target="_top" xlink:title=" ">
<polygon fill="white" stroke="#bfbfbf" points="714.5,-153 623.5,-153 623.5,-134 714.5,-134 714.5,-153"/>
<text text-anchor="middle" x="669" y="-141" font-family="Helvetica,sans-Serif" font-size="10.00">ImVector&lt; float &gt;</text>
</a>
</g>
</g>
<!-- Node11&#45;&gt;Node10 -->
<g id="edge12" class="edge">
<title>Node11&#45;&gt;Node10</title>
<path fill="none" stroke="#9a32cd" stroke-dasharray="5,2" d="M726.14,-141.29C781.11,-139.13 862.14,-135.94 901.24,-134.4"/>
<polygon fill="#9a32cd" stroke="#9a32cd" points="726.19,-137.78 716.34,-141.68 726.47,-144.78 726.19,-137.78"/>
<text text-anchor="middle" x="793.5" y="-143.5" font-family="Helvetica,sans-Serif" font-size="10.00"> IndexAdvanceX</text>
</g>
<!-- Node12 -->
<g id="node12" class="node">
<title>Node12</title>
<g id="a_node12"><a xlink:href="struct_im_vector.html" target="_top" xlink:title=" ">
<polygon fill="white" stroke="#bfbfbf" points="725,-116 613,-116 613,-97 725,-97 725,-116"/>
<text text-anchor="middle" x="669" y="-104" font-family="Helvetica,sans-Serif" font-size="10.00">ImVector&lt; ImWchar &gt;</text>
</a>
</g>
</g>
<!-- Node12&#45;&gt;Node10 -->
<g id="edge13" class="edge">
<title>Node12&#45;&gt;Node10</title>
<path fill="none" stroke="#9a32cd" stroke-dasharray="5,2" d="M736.68,-112.49C767.01,-115.33 803.34,-118.89 836,-122.5 858.19,-124.96 883.47,-128.16 901.23,-130.47"/>
<polygon fill="#9a32cd" stroke="#9a32cd" points="737.16,-109.02 726.88,-111.58 736.51,-115.99 737.16,-109.02"/>
<text text-anchor="middle" x="793.5" y="-125.5" font-family="Helvetica,sans-Serif" font-size="10.00"> IndexLookup</text>
</g>
<!-- Node13 -->
<g id="node13" class="node">
<title>Node13</title>
<g id="a_node13"><a xlink:href="struct_im_vector.html" target="_top" xlink:title=" ">
<polygon fill="white" stroke="#bfbfbf" points="733,-79 605,-79 605,-60 733,-60 733,-79"/>
<text text-anchor="middle" x="669" y="-67" font-family="Helvetica,sans-Serif" font-size="10.00">ImVector&lt; ImFontGlyph &gt;</text>
</a>
</g>
</g>
<!-- Node13&#45;&gt;Node10 -->
<g id="edge14" class="edge">
<title>Node13&#45;&gt;Node10</title>
<path fill="none" stroke="#9a32cd" stroke-dasharray="5,2" d="M744.55,-79.88C773.39,-84.69 806.5,-91.22 836,-99.5 859.02,-105.96 884.41,-116.11 901.97,-123.64"/>
<polygon fill="#9a32cd" stroke="#9a32cd" points="745.23,-76.44 734.8,-78.29 744.11,-83.35 745.23,-76.44"/>
<text text-anchor="middle" x="793.5" y="-102.5" font-family="Helvetica,sans-Serif" font-size="10.00"> Glyphs</text>
</g>
<!-- Node14 -->
<g id="node14" class="node">
<title>Node14</title>
<g id="a_node14"><a xlink:href="struct_im_font_glyph.html" target="_top" xlink:title=" ">
<polygon fill="white" stroke="#bfbfbf" points="434.5,-19 362.5,-19 362.5,0 434.5,0 434.5,-19"/>
<text text-anchor="middle" x="398.5" y="-7" font-family="Helvetica,sans-Serif" font-size="10.00">ImFontGlyph</text>
</a>
</g>
</g>
<!-- Node14&#45;&gt;Node10 -->
<g id="edge16" class="edge">
<title>Node14&#45;&gt;Node10</title>
<path fill="none" stroke="#9a32cd" stroke-dasharray="5,2" d="M445.96,-13.33C483.91,-16.49 538.94,-21.15 587,-25.5 651.92,-31.38 669.51,-24.72 733,-39.5 780.67,-50.6 792.14,-56.76 836,-78.5 863.44,-92.1 893.24,-111.89 910.17,-123.66"/>
<polygon fill="#9a32cd" stroke="#9a32cd" points="446.52,-9.86 436.27,-12.52 445.94,-16.84 446.52,-9.86"/>
<text text-anchor="middle" x="669" y="-42.5" font-family="Helvetica,sans-Serif" font-size="10.00"> FallbackGlyph</text>
</g>
<!-- Node14&#45;&gt;Node13 -->
<g id="edge15" class="edge">
<title>Node14&#45;&gt;Node13</title>
<path fill="none" stroke="#9a32cd" stroke-dasharray="5,2" d="M445.98,-19.89C495.87,-31.04 574.54,-48.62 623.61,-59.58"/>
<polygon fill="#9a32cd" stroke="#9a32cd" points="446.88,-16.5 436.35,-17.74 445.35,-23.33 446.88,-16.5"/>
<text text-anchor="middle" x="533.5" y="-53.5" font-family="Helvetica,sans-Serif" font-size="10.00"> Data</text>
</g>
<!-- Node15&#45;&gt;Node10 -->
<g id="edge17" class="edge">
<title>Node15&#45;&gt;Node10</title>
<path fill="none" stroke="#9a32cd" stroke-dasharray="5,2" d="M692.41,-208.98C708.12,-198.09 729.98,-184.28 751,-175.5 764.87,-169.71 857.53,-148.47 901.25,-138.6"/>
<polygon fill="#9a32cd" stroke="#9a32cd" points="690.41,-206.11 684.29,-214.75 694.47,-211.82 690.41,-206.11"/>
<text text-anchor="middle" x="793.5" y="-178.5" font-family="Helvetica,sans-Serif" font-size="10.00"> ContainerAtlas</text>
</g>
<!-- Node16&#45;&gt;Node15 -->
<g id="edge19" class="edge">
<title>Node16&#45;&gt;Node15</title>
<path fill="none" stroke="#9a32cd" stroke-dasharray="5,2" d="M1090.24,-175.62C1029.02,-181.47 935.25,-190.81 854,-200.5 801.66,-206.74 741.12,-215.21 704.21,-220.51"/>
<polygon fill="#9a32cd" stroke="#9a32cd" points="1090.53,-179.11 1100.15,-174.68 1089.86,-172.14 1090.53,-179.11"/>
<text text-anchor="middle" x="925" y="-203.5" font-family="Helvetica,sans-Serif" font-size="10.00"> Fonts</text>
</g>
<!-- Node17 -->
<g id="node17" class="node">
<title>Node17</title>
<g id="a_node17"><a xlink:href="struct_im_vector.html" target="_top" xlink:title=" ">
<polygon fill="white" stroke="#bfbfbf" points="1482,-311.5 1330,-311.5 1330,-281.5 1482,-281.5 1482,-311.5"/>
<text text-anchor="start" x="1338" y="-299.5" font-family="Helvetica,sans-Serif" font-size="10.00">ImVector&lt; ImFontAtlasCustom</text>
<text text-anchor="middle" x="1406" y="-288.5" font-family="Helvetica,sans-Serif" font-size="10.00">Rect &gt;</text>
</a>
</g>
</g>
<!-- Node17&#45;&gt;Node15 -->
<g id="edge21" class="edge">
<title>Node17&#45;&gt;Node15</title>
<path fill="none" stroke="#9a32cd" stroke-dasharray="5,2" d="M1318.46,-298.62C1292.58,-298.96 1264.14,-299.04 1238,-298.5 1173.96,-297.17 1157.74,-298.84 1094,-292.5 948.28,-278 776.45,-246.28 704.45,-232.33"/>
<polygon fill="#9a32cd" stroke="#9a32cd" points="1318.3,-302.12 1328.25,-298.47 1318.2,-295.12 1318.3,-302.12"/>
<text text-anchor="middle" x="1045" y="-293.5" font-family="Helvetica,sans-Serif" font-size="10.00"> CustomRects</text>
</g>
<!-- Node18&#45;&gt;Node17 -->
<g id="edge22" class="edge">
<title>Node18&#45;&gt;Node17</title>
<path fill="none" stroke="#9a32cd" stroke-dasharray="5,2" d="M1230.63,-280.45C1256.34,-282.6 1285.46,-285.1 1312,-287.5 1317.74,-288.02 1323.67,-288.57 1329.63,-289.13"/>
<polygon fill="#9a32cd" stroke="#9a32cd" points="1231.23,-276.98 1220.97,-279.64 1230.65,-283.96 1231.23,-276.98"/>
<text text-anchor="middle" x="1275" y="-290.5" font-family="Helvetica,sans-Serif" font-size="10.00"> Data</text>
</g>
<!-- Node19 -->
<g id="node19" class="node">
<title>Node19</title>
<g id="a_node19"><a xlink:href="struct_im_vector.html" target="_top" xlink:title=" ">
<polygon fill="white" stroke="#bfbfbf" points="1471.5,-199 1340.5,-199 1340.5,-180 1471.5,-180 1471.5,-199"/>
<text text-anchor="middle" x="1406" y="-187" font-family="Helvetica,sans-Serif" font-size="10.00">ImVector&lt; ImFontConfig &gt;</text>
</a>
</g>
</g>
<!-- Node19&#45;&gt;Node15 -->
<g id="edge25" class="edge">
<title>Node19&#45;&gt;Node15</title>
<path fill="none" stroke="#9a32cd" stroke-dasharray="5,2" d="M1328.71,-193.85C1246.57,-198.48 1112.05,-205.89 996,-211.5 889.62,-216.64 763.67,-221.78 704.27,-224.15"/>
<polygon fill="#9a32cd" stroke="#9a32cd" points="1328.9,-197.35 1338.68,-193.29 1328.5,-190.36 1328.9,-197.35"/>
<text text-anchor="middle" x="1045" y="-213.5" font-family="Helvetica,sans-Serif" font-size="10.00"> ConfigData</text>
</g>
<!-- Node20&#45;&gt;Node10 -->
<g id="edge31" class="edge">
<title>Node20&#45;&gt;Node10</title>
<path fill="none" stroke="#9a32cd" stroke-dasharray="5,2" d="M1108.47,-120.81C1059.71,-124.2 985.92,-129.33 948.89,-131.91"/>
<polygon fill="#9a32cd" stroke="#9a32cd" points="1108.44,-124.32 1118.17,-120.13 1107.95,-117.33 1108.44,-124.32"/>
<text text-anchor="middle" x="1045" y="-130.5" font-family="Helvetica,sans-Serif" font-size="10.00"> ConfigData</text>
</g>
<!-- Node20&#45;&gt;Node19 -->
<g id="edge26" class="edge">
<title>Node20&#45;&gt;Node19</title>
<path fill="none" stroke="#9a32cd" stroke-dasharray="5,2" d="M1202.86,-130.58C1251.22,-144.67 1327.14,-166.8 1370.87,-179.55"/>
<polygon fill="#9a32cd" stroke="#9a32cd" points="1204.12,-127.3 1193.54,-127.86 1202.16,-134.02 1204.12,-127.3"/>
<text text-anchor="middle" x="1275" y="-165.5" font-family="Helvetica,sans-Serif" font-size="10.00"> Data</text>
</g>
<!-- Node21 -->
<g id="node21" class="node">
<title>Node21</title>
<g id="a_node21"><a xlink:href="struct_im_font_builder_i_o.html" target="_top" xlink:title=" ">
<polygon fill="white" stroke="#bfbfbf" points="442.5,-235 354.5,-235 354.5,-216 442.5,-216 442.5,-235"/>
<text text-anchor="middle" x="398.5" y="-223" font-family="Helvetica,sans-Serif" font-size="10.00">ImFontBuilderIO</text>
</a>
</g>
</g>
<!-- Node21&#45;&gt;Node15 -->
<g id="edge30" class="edge">
<title>Node21&#45;&gt;Node15</title>
<path fill="none" stroke="#9a32cd" stroke-dasharray="5,2" d="M454.31,-225.5C508.03,-225.5 588.26,-225.5 633.59,-225.5"/>
<polygon fill="#9a32cd" stroke="#9a32cd" points="454.45,-222 444.45,-225.5 454.45,-229 454.45,-222"/>
<text text-anchor="middle" x="533.5" y="-228.5" font-family="Helvetica,sans-Serif" font-size="10.00"> FontBuilderIO</text>
</g>
<!-- Node22&#45;&gt;Node3 -->
<g id="edge39" class="edge">
<title>Node22&#45;&gt;Node3</title>
<path fill="none" stroke="#9a32cd" stroke-dasharray="5,2" d="M990.12,-419.45C1086.06,-422.03 1261.12,-431.54 1312,-466.5 1357.95,-498.07 1389.72,-559.97 1400.73,-583.82"/>
<polygon fill="#9a32cd" stroke="#9a32cd" points="990.43,-415.96 980.34,-419.21 990.25,-422.96 990.43,-415.96"/>
<text text-anchor="middle" x="1157" y="-440.5" font-family="Helvetica,sans-Serif" font-size="10.00"> _Path</text>
</g>
<!-- Node22&#45;&gt;Node9 -->
<g id="edge33" class="edge">
<title>Node22&#45;&gt;Node9</title>
<path fill="none" stroke="#9a32cd" stroke-dasharray="5,2" d="M989.92,-409.33C1023.73,-404.48 1064.92,-398.57 1097.83,-393.85"/>
<polygon fill="#9a32cd" stroke="#9a32cd" points="989.67,-405.83 980.26,-410.71 990.66,-412.76 989.67,-405.83"/>
<text text-anchor="middle" x="1045" y="-408.5" font-family="Helvetica,sans-Serif" font-size="10.00"> TempBuffer</text>
</g>
<!-- Node23&#45;&gt;Node3 -->
<g id="edge36" class="edge">
<title>Node23&#45;&gt;Node3</title>
<path fill="none" stroke="#9a32cd" stroke-dasharray="5,2" d="M598.8,-789.27C650.99,-789.84 726.5,-790.5 792.5,-790.5 792.5,-790.5 792.5,-790.5 1158,-790.5 1227.91,-790.5 1255.56,-799.75 1312,-758.5 1368.01,-717.56 1394.87,-632.02 1402.58,-603.21"/>
<polygon fill="#9a32cd" stroke="#9a32cd" points="598.92,-785.78 588.88,-789.17 598.84,-792.78 598.92,-785.78"/>
<text text-anchor="middle" x="925" y="-793.5" font-family="Helvetica,sans-Serif" font-size="10.00"> _ClipRectStack</text>
</g>
<!-- Node24 -->
<g id="node24" class="node">
<title>Node24</title>
<g id="a_node24"><a xlink:href="struct_im_vector.html" target="_top" xlink:title=" ">
<polygon fill="white" stroke="#bfbfbf" points="1220,-678 1094,-678 1094,-659 1220,-659 1220,-678"/>
<text text-anchor="middle" x="1157" y="-666" font-family="Helvetica,sans-Serif" font-size="10.00">ImVector&lt; ImTextureID &gt;</text>
</a>
</g>
</g>
<!-- Node24&#45;&gt;Node3 -->
<g id="edge38" class="edge">
<title>Node24&#45;&gt;Node3</title>
<path fill="none" stroke="#9a32cd" stroke-dasharray="5,2" d="M1221.17,-656.23C1249.28,-650.14 1282.6,-642.03 1312,-632.5 1337.48,-624.24 1365.72,-611.92 1384.33,-603.35"/>
<polygon fill="#9a32cd" stroke="#9a32cd" points="1220.81,-652.73 1211.76,-658.24 1222.27,-659.58 1220.81,-652.73"/>
<text text-anchor="middle" x="1275" y="-654.5" font-family="Helvetica,sans-Serif" font-size="10.00"> _TextureIdStack</text>
</g>
<!-- Node25&#45;&gt;Node3 -->
<g id="edge40" class="edge">
<title>Node25&#45;&gt;Node3</title>
<path fill="none" stroke="#9a32cd" stroke-dasharray="5,2" d="M328.72,-556.62C537.81,-563.78 1215.11,-586.99 1372.23,-592.38"/>
<polygon fill="#9a32cd" stroke="#9a32cd" points="328.99,-553.12 318.88,-556.28 328.75,-560.12 328.99,-553.12"/>
<text text-anchor="middle" x="793.5" y="-576.5" font-family="Helvetica,sans-Serif" font-size="10.00"> _CmdHeader</text>
</g>
<!-- Node26 -->
<g id="node26" class="node">
<title>Node26</title>
<g id="a_node26"><a xlink:href="struct_im_draw_list_splitter.html" target="_top" xlink:title=" ">
<polygon fill="white" stroke="#bfbfbf" points="1206,-641 1108,-641 1108,-622 1206,-622 1206,-641"/>
<text text-anchor="middle" x="1157" y="-629" font-family="Helvetica,sans-Serif" font-size="10.00">ImDrawListSplitter</text>
</a>
</g>
</g>
<!-- Node26&#45;&gt;Node3 -->
<g id="edge42" class="edge">
<title>Node26&#45;&gt;Node3</title>
<path fill="none" stroke="#9a32cd" stroke-dasharray="5,2" d="M1217.52,-622.34C1266.1,-614.87 1332.93,-604.59 1372.28,-598.53"/>
<polygon fill="#9a32cd" stroke="#9a32cd" points="1217.06,-618.87 1207.71,-623.85 1218.12,-625.79 1217.06,-618.87"/>
<text text-anchor="middle" x="1275" y="-620.5" font-family="Helvetica,sans-Serif" font-size="10.00"> _Splitter</text>
</g>
<!-- Node27 -->
<g id="node27" class="node">
<title>Node27</title>
<g id="a_node27"><a xlink:href="struct_im_vector.html" target="_top" xlink:title=" ">
<polygon fill="white" stroke="#bfbfbf" points="996,-649 854,-649 854,-630 996,-630 996,-649"/>
<text text-anchor="middle" x="925" y="-637" font-family="Helvetica,sans-Serif" font-size="10.00">ImVector&lt; ImDrawChannel &gt;</text>
</a>
</g>
</g>
<!-- Node27&#45;&gt;Node26 -->
<g id="edge43" class="edge">
<title>Node27&#45;&gt;Node26</title>
<path fill="none" stroke="#9a32cd" stroke-dasharray="5,2" d="M1007.44,-636.67C1040.95,-635.5 1078.62,-634.19 1107.65,-633.18"/>
<polygon fill="#9a32cd" stroke="#9a32cd" points="1007.64,-633.16 997.77,-637 1007.89,-640.15 1007.64,-633.16"/>
<text text-anchor="middle" x="1045" y="-638.5" font-family="Helvetica,sans-Serif" font-size="10.00"> _Channels</text>
</g>
<!-- Node28&#45;&gt;Node27 -->
<g id="edge44" class="edge">
<title>Node28&#45;&gt;Node27</title>
<path fill="none" stroke="#9a32cd" stroke-dasharray="5,2" d="M723.54,-639.5C761.44,-639.5 812.65,-639.5 853.82,-639.5"/>
<polygon fill="#9a32cd" stroke="#9a32cd" points="723.74,-636 713.74,-639.5 723.74,-643 723.74,-636"/>
<text text-anchor="middle" x="793.5" y="-642.5" font-family="Helvetica,sans-Serif" font-size="10.00"> Data</text>
</g>
</g>
</svg>
