<?xml version="1.0" encoding="UTF-8" standalone="no"?>
<!DOCTYPE svg PUBLIC "-//W3C//DTD SVG 1.1//EN"
 "http://www.w3.org/Graphics/SVG/1.1/DTD/svg11.dtd">
<!-- Generated by graphviz version 7.0.5 (20221223.1930)
 -->
<!-- Title: ImGuiTabBar Pages: 1 -->
<svg width="436pt" height="173pt"
 viewBox="0.00 0.00 435.50 173.00" xmlns="http://www.w3.org/2000/svg" xmlns:xlink="http://www.w3.org/1999/xlink">
<g id="graph0" class="graph" transform="scale(1 1) rotate(0) translate(4 169)">
<title>ImGuiTabBar</title>
<!-- Node1 -->
<g id="node1" class="node">
<title>Node1</title>
<g id="a_node1"><a xlink:title=" ">
<polygon fill="#999999" stroke="#666666" points="247.5,-19 173.5,-19 173.5,0 247.5,0 247.5,-19"/>
<text text-anchor="middle" x="210.5" y="-7" font-family="Helvetica,sans-Serif" font-size="10.00">ImGuiTabBar</text>
</a>
</g>
</g>
<!-- Node2 -->
<g id="node2" class="node">
<title>Node2</title>
<g id="a_node2"><a xlink:href="struct_im_vector.html" target="_top" xlink:title=" ">
<polygon fill="white" stroke="#bfbfbf" points="135,-86.5 0,-86.5 0,-67.5 135,-67.5 135,-86.5"/>
<text text-anchor="middle" x="67.5" y="-74.5" font-family="Helvetica,sans-Serif" font-size="10.00">ImVector&lt; ImGuiTabItem &gt;</text>
</a>
</g>
</g>
<!-- Node2&#45;&gt;Node1 -->
<g id="edge1" class="edge">
<title>Node2&#45;&gt;Node1</title>
<path fill="none" stroke="#9a32cd" stroke-dasharray="5,2" d="M89.88,-60.95C102.12,-53.14 117.76,-43.83 132.5,-37 147.42,-30.08 164.68,-24.03 179.16,-19.47"/>
<polygon fill="#9a32cd" stroke="#9a32cd" points="88.22,-57.85 81.76,-66.25 92.05,-63.72 88.22,-57.85"/>
<text text-anchor="middle" x="145" y="-40" font-family="Helvetica,sans-Serif" font-size="10.00"> Tabs</text>
</g>
<!-- Node3 -->
<g id="node3" class="node">
<title>Node3</title>
<g id="a_node3"><a xlink:href="struct_im_gui_tab_item.html" target="_top" xlink:title=" ">
<polygon fill="white" stroke="#bfbfbf" points="107,-165 28,-165 28,-146 107,-146 107,-165"/>
<text text-anchor="middle" x="67.5" y="-153" font-family="Helvetica,sans-Serif" font-size="10.00">ImGuiTabItem</text>
</a>
</g>
</g>
<!-- Node3&#45;&gt;Node2 -->
<g id="edge2" class="edge">
<title>Node3&#45;&gt;Node2</title>
<path fill="none" stroke="#9a32cd" stroke-dasharray="5,2" d="M67.5,-134.22C67.5,-118.73 67.5,-98.15 67.5,-86.67"/>
<polygon fill="#9a32cd" stroke="#9a32cd" points="64,-134.21 67.5,-144.21 71,-134.21 64,-134.21"/>
<text text-anchor="middle" x="79" y="-114.5" font-family="Helvetica,sans-Serif" font-size="10.00"> Data</text>
</g>
<!-- Node4 -->
<g id="node4" class="node">
<title>Node4</title>
<g id="a_node4"><a xlink:href="struct_im_rect.html" target="_top" xlink:title=" ">
<polygon fill="white" stroke="#bfbfbf" points="319.5,-86.5 271.5,-86.5 271.5,-67.5 319.5,-67.5 319.5,-86.5"/>
<text text-anchor="middle" x="295.5" y="-74.5" font-family="Helvetica,sans-Serif" font-size="10.00">ImRect</text>
</a>
</g>
</g>
<!-- Node4&#45;&gt;Node1 -->
<g id="edge3" class="edge">
<title>Node4&#45;&gt;Node1</title>
<path fill="none" stroke="#9a32cd" stroke-dasharray="5,2" d="M275.1,-60.28C258.49,-47.48 235.66,-29.88 222.05,-19.4"/>
<polygon fill="#9a32cd" stroke="#9a32cd" points="272.78,-62.91 282.84,-66.24 277.05,-57.37 272.78,-62.91"/>
<text text-anchor="middle" x="277.5" y="-40" font-family="Helvetica,sans-Serif" font-size="10.00"> BarRect</text>
</g>
<!-- Node5 -->
<g id="node5" class="node">
<title>Node5</title>
<g id="a_node5"><a xlink:href="struct_im_vec2.html" target="_top" xlink:title=" ">
<polygon fill="white" stroke="#bfbfbf" points="235.5,-165 185.5,-165 185.5,-146 235.5,-146 235.5,-165"/>
<text text-anchor="middle" x="210.5" y="-153" font-family="Helvetica,sans-Serif" font-size="10.00">ImVec2</text>
</a>
</g>
</g>
<!-- Node5&#45;&gt;Node1 -->
<g id="edge5" class="edge">
<title>Node5&#45;&gt;Node1</title>
<path fill="none" stroke="#9a32cd" stroke-dasharray="5,2" d="M197.61,-135.94C186.87,-118.21 174.27,-90.62 180.5,-66 185.01,-48.16 196.52,-29.83 203.9,-19.34"/>
<polygon fill="#9a32cd" stroke="#9a32cd" points="194.67,-137.84 203.04,-144.33 200.54,-134.03 194.67,-137.84"/>
<text text-anchor="middle" x="221.5" y="-80" font-family="Helvetica,sans-Serif" font-size="10.00"> BackupCursorPos</text>
<text text-anchor="middle" x="221.5" y="-69" font-family="Helvetica,sans-Serif" font-size="10.00">FramePadding</text>
</g>
<!-- Node5&#45;&gt;Node4 -->
<g id="edge4" class="edge">
<title>Node5&#45;&gt;Node4</title>
<path fill="none" stroke="#9a32cd" stroke-dasharray="5,2" d="M228.49,-138.31C245.89,-122.65 271.63,-99.48 285.6,-86.91"/>
<polygon fill="#9a32cd" stroke="#9a32cd" points="226.47,-135.42 221.38,-144.71 231.15,-140.62 226.47,-135.42"/>
<text text-anchor="middle" x="274" y="-120" font-family="Helvetica,sans-Serif" font-size="10.00"> Max</text>
<text text-anchor="middle" x="274" y="-109" font-family="Helvetica,sans-Serif" font-size="10.00">Min</text>
</g>
<!-- Node6 -->
<g id="node6" class="node">
<title>Node6</title>
<g id="a_node6"><a xlink:href="struct_im_gui_text_buffer.html" target="_top" xlink:title=" ">
<polygon fill="white" stroke="#bfbfbf" points="425,-86.5 338,-86.5 338,-67.5 425,-67.5 425,-86.5"/>
<text text-anchor="middle" x="381.5" y="-74.5" font-family="Helvetica,sans-Serif" font-size="10.00">ImGuiTextBuffer</text>
</a>
</g>
</g>
<!-- Node6&#45;&gt;Node1 -->
<g id="edge6" class="edge">
<title>Node6&#45;&gt;Node1</title>
<path fill="none" stroke="#9a32cd" stroke-dasharray="5,2" d="M355.12,-61.95C339.51,-53.99 319.2,-44.2 300.5,-37 282.72,-30.15 262.39,-24.03 245.56,-19.4"/>
<polygon fill="#9a32cd" stroke="#9a32cd" points="353.26,-64.93 363.75,-66.43 356.48,-58.72 353.26,-64.93"/>
<text text-anchor="middle" x="354.5" y="-40" font-family="Helvetica,sans-Serif" font-size="10.00"> TabsNames</text>
</g>
<!-- Node7 -->
<g id="node7" class="node">
<title>Node7</title>
<g id="a_node7"><a xlink:href="struct_im_vector.html" target="_top" xlink:title=" ">
<polygon fill="white" stroke="#bfbfbf" points="427.5,-165 335.5,-165 335.5,-146 427.5,-146 427.5,-165"/>
<text text-anchor="middle" x="381.5" y="-153" font-family="Helvetica,sans-Serif" font-size="10.00">ImVector&lt; char &gt;</text>
</a>
</g>
</g>
<!-- Node7&#45;&gt;Node6 -->
<g id="edge7" class="edge">
<title>Node7&#45;&gt;Node6</title>
<path fill="none" stroke="#9a32cd" stroke-dasharray="5,2" d="M381.5,-134.22C381.5,-118.73 381.5,-98.15 381.5,-86.67"/>
<polygon fill="#9a32cd" stroke="#9a32cd" points="378,-134.21 381.5,-144.21 385,-134.21 378,-134.21"/>
<text text-anchor="middle" x="390.5" y="-114.5" font-family="Helvetica,sans-Serif" font-size="10.00"> Buf</text>
</g>
</g>
</svg>
