<?xml version="1.0" encoding="UTF-8" standalone="no"?>
<!DOCTYPE svg PUBLIC "-//W3C//DTD SVG 1.1//EN"
 "http://www.w3.org/Graphics/SVG/1.1/DTD/svg11.dtd">
<!-- Generated by graphviz version 7.0.5 (20221223.1930)
 -->
<!-- Title: ImFontAtlas Pages: 1 -->
<svg width="936pt" height="359pt"
 viewBox="0.00 0.00 936.00 358.57" xmlns="http://www.w3.org/2000/svg" xmlns:xlink="http://www.w3.org/1999/xlink">
<g id="graph0" class="graph" transform="scale(1 1) rotate(0) translate(4 354.57)">
<title>ImFontAtlas</title>
<!-- Node1 -->
<g id="node1" class="node">
<title>Node1</title>
<g id="a_node1"><a xlink:title=" ">
<polygon fill="#999999" stroke="#666666" points="298,-305.07 228,-305.07 228,-286.07 298,-286.07 298,-305.07"/>
<text text-anchor="middle" x="263" y="-293.07" font-family="Helvetica,sans-Serif" font-size="10.00">ImFontAtlas</text>
</a>
</g>
</g>
<!-- Node4 -->
<g id="node4" class="node">
<title>Node4</title>
<g id="a_node4"><a xlink:href="struct_im_font.html" target="_top" xlink:title=" ">
<polygon fill="white" stroke="#bfbfbf" points="495,-211.07 448,-211.07 448,-192.07 495,-192.07 495,-211.07"/>
<text text-anchor="middle" x="471.5" y="-199.07" font-family="Helvetica,sans-Serif" font-size="10.00">ImFont</text>
</a>
</g>
</g>
<!-- Node1&#45;&gt;Node4 -->
<g id="edge9" class="edge">
<title>Node1&#45;&gt;Node4</title>
<path fill="none" stroke="#9a32cd" stroke-dasharray="5,2" d="M306.83,-282.24C319.14,-278.44 332.59,-274.31 345,-270.57 382.7,-259.21 396.56,-266.37 430,-245.57 444.28,-236.69 456.71,-221.43 463.91,-211.42"/>
<polygon fill="#9a32cd" stroke="#9a32cd" points="305.87,-278.87 297.35,-285.17 307.93,-285.56 305.87,-278.87"/>
<text text-anchor="middle" x="387.5" y="-273.57" font-family="Helvetica,sans-Serif" font-size="10.00"> ContainerAtlas</text>
</g>
<!-- Node2 -->
<g id="node2" class="node">
<title>Node2</title>
<g id="a_node2"><a xlink:href="struct_im_vec2.html" target="_top" xlink:title=" ">
<polygon fill="white" stroke="#bfbfbf" points="69,-74.07 19,-74.07 19,-55.07 69,-55.07 69,-74.07"/>
<text text-anchor="middle" x="44" y="-62.07" font-family="Helvetica,sans-Serif" font-size="10.00">ImVec2</text>
</a>
</g>
</g>
<!-- Node2&#45;&gt;Node1 -->
<g id="edge1" class="edge">
<title>Node2&#45;&gt;Node1</title>
<path fill="none" stroke="#9a32cd" stroke-dasharray="5,2" d="M80.21,-71.2C116.04,-78.71 168.09,-91.93 181,-107.57 225.15,-161.06 159.73,-205.41 199,-262.57 206.27,-273.16 218.03,-280.59 229.43,-285.68"/>
<polygon fill="#9a32cd" stroke="#9a32cd" points="81.19,-67.83 70.7,-69.28 79.8,-74.69 81.19,-67.83"/>
<text text-anchor="middle" x="143.5" y="-121.57" font-family="Helvetica,sans-Serif" font-size="10.00"> TexUvScale</text>
<text text-anchor="middle" x="143.5" y="-110.57" font-family="Helvetica,sans-Serif" font-size="10.00">TexUvWhitePixel</text>
</g>
<!-- Node9 -->
<g id="node9" class="node">
<title>Node9</title>
<g id="a_node9"><a xlink:href="struct_im_font_config.html" target="_top" xlink:title=" ">
<polygon fill="white" stroke="#bfbfbf" points="692,-232.07 618,-232.07 618,-213.07 692,-213.07 692,-232.07"/>
<text text-anchor="middle" x="655" y="-220.07" font-family="Helvetica,sans-Serif" font-size="10.00">ImFontConfig</text>
</a>
</g>
</g>
<!-- Node2&#45;&gt;Node9 -->
<g id="edge11" class="edge">
<title>Node2&#45;&gt;Node9</title>
<path fill="none" stroke="#9a32cd" stroke-dasharray="5,2" d="M80.82,-63.19C149.69,-61.44 304.86,-61.91 430,-94.57 498.69,-112.5 516.2,-121.79 575,-161.57 584.11,-167.74 584.52,-171.56 593,-178.57 608.1,-191.05 626.44,-204.01 639.05,-212.61"/>
<polygon fill="#9a32cd" stroke="#9a32cd" points="80.77,-59.69 70.88,-63.48 80.98,-66.69 80.77,-59.69"/>
<text text-anchor="middle" x="387.5" y="-108.57" font-family="Helvetica,sans-Serif" font-size="10.00"> GlyphExtraSpacing</text>
<text text-anchor="middle" x="387.5" y="-97.57" font-family="Helvetica,sans-Serif" font-size="10.00">GlyphOffset</text>
</g>
<!-- Node11 -->
<g id="node11" class="node">
<title>Node11</title>
<g id="a_node11"><a xlink:href="struct_im_font_atlas_custom_rect.html" target="_top" xlink:title=" ">
<polygon fill="white" stroke="#bfbfbf" points="717,-170.07 593,-170.07 593,-151.07 717,-151.07 717,-170.07"/>
<text text-anchor="middle" x="655" y="-158.07" font-family="Helvetica,sans-Serif" font-size="10.00">ImFontAtlasCustomRect</text>
</a>
</g>
</g>
<!-- Node2&#45;&gt;Node11 -->
<g id="edge15" class="edge">
<title>Node2&#45;&gt;Node11</title>
<path fill="none" stroke="#9a32cd" stroke-dasharray="5,2" d="M80.15,-51.69C170.09,-21.1 412.9,46.41 575,-50.57 615.56,-74.83 641.13,-128.81 650.24,-150.88"/>
<polygon fill="#9a32cd" stroke="#9a32cd" points="79.2,-48.32 70.9,-54.9 81.49,-54.93 79.2,-48.32"/>
<text text-anchor="middle" x="387.5" y="-6.57" font-family="Helvetica,sans-Serif" font-size="10.00"> GlyphOffset</text>
</g>
<!-- Node3 -->
<g id="node3" class="node">
<title>Node3</title>
<g id="a_node3"><a xlink:href="struct_im_vector.html" target="_top" xlink:title=" ">
<polygon fill="white" stroke="#bfbfbf" points="710,-277.07 600,-277.07 600,-258.07 710,-258.07 710,-277.07"/>
<text text-anchor="middle" x="655" y="-265.07" font-family="Helvetica,sans-Serif" font-size="10.00">ImVector&lt; ImFont * &gt;</text>
</a>
</g>
</g>
<!-- Node3&#45;&gt;Node1 -->
<g id="edge2" class="edge">
<title>Node3&#45;&gt;Node1</title>
<path fill="none" stroke="#9a32cd" stroke-dasharray="5,2" d="M588.23,-272.29C504.54,-278.3 363.06,-288.46 298.27,-293.11"/>
<polygon fill="#9a32cd" stroke="#9a32cd" points="588.41,-275.79 598.14,-271.58 587.91,-268.81 588.41,-275.79"/>
<text text-anchor="middle" x="471.5" y="-285.57" font-family="Helvetica,sans-Serif" font-size="10.00"> Fonts</text>
</g>
<!-- Node4&#45;&gt;Node3 -->
<g id="edge3" class="edge">
<title>Node4&#45;&gt;Node3</title>
<path fill="none" stroke="#9a32cd" stroke-dasharray="5,2" d="M493.13,-217.84C499.27,-222.12 506.18,-226.41 513,-229.57 540.6,-242.37 573.31,-251.52 600.27,-257.63"/>
<polygon fill="#9a32cd" stroke="#9a32cd" points="495.59,-215.31 485.47,-212.2 491.45,-220.95 495.59,-215.31"/>
<text text-anchor="middle" x="544" y="-254.57" font-family="Helvetica,sans-Serif" font-size="10.00"> Data</text>
</g>
<!-- Node4&#45;&gt;Node9 -->
<g id="edge12" class="edge">
<title>Node4&#45;&gt;Node9</title>
<path fill="none" stroke="#9a32cd" stroke-dasharray="5,2" d="M506.36,-205.78C508.61,-206.05 510.84,-206.32 513,-206.57 548.6,-210.79 589.28,-215.38 617.76,-218.56"/>
<polygon fill="#9a32cd" stroke="#9a32cd" points="507.05,-202.34 496.7,-204.6 506.2,-209.28 507.05,-202.34"/>
<text text-anchor="middle" x="544" y="-217.57" font-family="Helvetica,sans-Serif" font-size="10.00"> DstFont</text>
</g>
<!-- Node4&#45;&gt;Node11 -->
<g id="edge16" class="edge">
<title>Node4&#45;&gt;Node11</title>
<path fill="none" stroke="#9a32cd" stroke-dasharray="5,2" d="M496.39,-185.99C501.68,-183.12 507.39,-180.44 513,-178.57 538.4,-170.11 567.6,-165.58 592.81,-163.18"/>
<polygon fill="#9a32cd" stroke="#9a32cd" points="495.01,-182.74 488.16,-190.83 498.55,-188.78 495.01,-182.74"/>
<text text-anchor="middle" x="544" y="-181.57" font-family="Helvetica,sans-Serif" font-size="10.00"> Font</text>
</g>
<!-- Node5 -->
<g id="node5" class="node">
<title>Node5</title>
<g id="a_node5"><a xlink:href="struct_im_vector.html" target="_top" xlink:title=" ">
<polygon fill="white" stroke="#bfbfbf" points="308.5,-254.07 217.5,-254.07 217.5,-235.07 308.5,-235.07 308.5,-254.07"/>
<text text-anchor="middle" x="263" y="-242.07" font-family="Helvetica,sans-Serif" font-size="10.00">ImVector&lt; float &gt;</text>
</a>
</g>
</g>
<!-- Node5&#45;&gt;Node4 -->
<g id="edge4" class="edge">
<title>Node5&#45;&gt;Node4</title>
<path fill="none" stroke="#9a32cd" stroke-dasharray="5,2" d="M319.7,-235.65C352.07,-230.1 393.54,-222.35 430,-213.57 435.85,-212.16 442.1,-210.43 447.91,-208.72"/>
<polygon fill="#9a32cd" stroke="#9a32cd" points="319.42,-232.15 310.14,-237.27 320.59,-239.05 319.42,-232.15"/>
<text text-anchor="middle" x="387.5" y="-233.57" font-family="Helvetica,sans-Serif" font-size="10.00"> IndexAdvanceX</text>
</g>
<!-- Node6 -->
<g id="node6" class="node">
<title>Node6</title>
<g id="a_node6"><a xlink:href="struct_im_vector.html" target="_top" xlink:title=" ">
<polygon fill="white" stroke="#bfbfbf" points="319,-217.07 207,-217.07 207,-198.07 319,-198.07 319,-217.07"/>
<text text-anchor="middle" x="263" y="-205.07" font-family="Helvetica,sans-Serif" font-size="10.00">ImVector&lt; ImWchar &gt;</text>
</a>
</g>
</g>
<!-- Node6&#45;&gt;Node4 -->
<g id="edge5" class="edge">
<title>Node6&#45;&gt;Node4</title>
<path fill="none" stroke="#9a32cd" stroke-dasharray="5,2" d="M330.65,-203.17C335.5,-202.94 340.33,-202.74 345,-202.57 380.93,-201.32 422.68,-201.27 447.82,-201.39"/>
<polygon fill="#9a32cd" stroke="#9a32cd" points="330.63,-199.67 320.83,-203.68 331,-206.66 330.63,-199.67"/>
<text text-anchor="middle" x="387.5" y="-205.57" font-family="Helvetica,sans-Serif" font-size="10.00"> IndexLookup</text>
</g>
<!-- Node7 -->
<g id="node7" class="node">
<title>Node7</title>
<g id="a_node7"><a xlink:href="struct_im_vector.html" target="_top" xlink:title=" ">
<polygon fill="white" stroke="#bfbfbf" points="327,-132.07 199,-132.07 199,-113.07 327,-113.07 327,-132.07"/>
<text text-anchor="middle" x="263" y="-120.07" font-family="Helvetica,sans-Serif" font-size="10.00">ImVector&lt; ImFontGlyph &gt;</text>
</a>
</g>
</g>
<!-- Node7&#45;&gt;Node4 -->
<g id="edge6" class="edge">
<title>Node7&#45;&gt;Node4</title>
<path fill="none" stroke="#9a32cd" stroke-dasharray="5,2" d="M338.85,-119.21C369.02,-121 402.99,-127.25 430,-143.57 448.71,-154.88 460.98,-178.5 466.72,-191.85"/>
<polygon fill="#9a32cd" stroke="#9a32cd" points="339.15,-115.72 329.01,-118.8 338.85,-122.72 339.15,-115.72"/>
<text text-anchor="middle" x="387.5" y="-146.57" font-family="Helvetica,sans-Serif" font-size="10.00"> Glyphs</text>
</g>
<!-- Node8 -->
<g id="node8" class="node">
<title>Node8</title>
<g id="a_node8"><a xlink:href="struct_im_font_glyph.html" target="_top" xlink:title=" ">
<polygon fill="white" stroke="#bfbfbf" points="80,-165.07 8,-165.07 8,-146.07 80,-146.07 80,-165.07"/>
<text text-anchor="middle" x="44" y="-153.07" font-family="Helvetica,sans-Serif" font-size="10.00">ImFontGlyph</text>
</a>
</g>
</g>
<!-- Node8&#45;&gt;Node4 -->
<g id="edge8" class="edge">
<title>Node8&#45;&gt;Node4</title>
<path fill="none" stroke="#9a32cd" stroke-dasharray="5,2" d="M91.58,-157.95C147.6,-161.1 244.41,-167.46 327,-177.57 369.87,-182.82 419.5,-191.77 447.72,-197.13"/>
<polygon fill="#9a32cd" stroke="#9a32cd" points="91.96,-154.47 81.78,-157.41 91.57,-161.45 91.96,-154.47"/>
<text text-anchor="middle" x="263" y="-180.57" font-family="Helvetica,sans-Serif" font-size="10.00"> FallbackGlyph</text>
</g>
<!-- Node8&#45;&gt;Node7 -->
<g id="edge7" class="edge">
<title>Node8&#45;&gt;Node7</title>
<path fill="none" stroke="#9a32cd" stroke-dasharray="5,2" d="M91.62,-146.1C96.47,-145.21 101.33,-144.35 106,-143.57 136.47,-138.53 170.43,-133.85 198.87,-130.19"/>
<polygon fill="#9a32cd" stroke="#9a32cd" points="91.07,-142.64 81.9,-147.95 92.38,-149.52 91.07,-142.64"/>
<text text-anchor="middle" x="143.5" y="-146.57" font-family="Helvetica,sans-Serif" font-size="10.00"> Data</text>
</g>
<!-- Node9&#45;&gt;Node4 -->
<g id="edge10" class="edge">
<title>Node9&#45;&gt;Node4</title>
<path fill="none" stroke="#9a32cd" stroke-dasharray="5,2" d="M620.84,-208.52C606.95,-203.35 590.46,-198.14 575,-195.57 547.82,-191.06 540.48,-193.55 513,-195.57 507.19,-196 500.94,-196.77 495.14,-197.62"/>
<polygon fill="#9a32cd" stroke="#9a32cd" points="619.36,-211.7 629.95,-212.06 621.89,-205.17 619.36,-211.7"/>
<text text-anchor="middle" x="544" y="-198.57" font-family="Helvetica,sans-Serif" font-size="10.00"> ConfigData</text>
</g>
<!-- Node12 -->
<g id="node12" class="node">
<title>Node12</title>
<g id="a_node12"><a xlink:href="struct_im_vector.html" target="_top" xlink:title=" ">
<polygon fill="white" stroke="#bfbfbf" points="917.5,-349.07 786.5,-349.07 786.5,-330.07 917.5,-330.07 917.5,-349.07"/>
<text text-anchor="middle" x="852" y="-337.07" font-family="Helvetica,sans-Serif" font-size="10.00">ImVector&lt; ImFontConfig &gt;</text>
</a>
</g>
</g>
<!-- Node9&#45;&gt;Node12 -->
<g id="edge18" class="edge">
<title>Node9&#45;&gt;Node12</title>
<path fill="none" stroke="#9a32cd" stroke-dasharray="5,2" d="M692.74,-236.87C700.87,-240.41 709.34,-244.39 717,-248.57 729.4,-255.34 804.94,-307.58 836.82,-329.71"/>
<polygon fill="#9a32cd" stroke="#9a32cd" points="694.32,-233.74 683.74,-233.08 691.6,-240.19 694.32,-233.74"/>
<text text-anchor="middle" x="746.5" y="-277.57" font-family="Helvetica,sans-Serif" font-size="10.00"> Data</text>
</g>
<!-- Node10 -->
<g id="node10" class="node">
<title>Node10</title>
<g id="a_node10"><a xlink:href="struct_im_vector.html" target="_top" xlink:title=" ">
<polygon fill="white" stroke="#bfbfbf" points="928,-278.57 776,-278.57 776,-248.57 928,-248.57 928,-278.57"/>
<text text-anchor="start" x="784" y="-266.57" font-family="Helvetica,sans-Serif" font-size="10.00">ImVector&lt; ImFontAtlasCustom</text>
<text text-anchor="middle" x="852" y="-255.57" font-family="Helvetica,sans-Serif" font-size="10.00">Rect &gt;</text>
</a>
</g>
</g>
<!-- Node10&#45;&gt;Node1 -->
<g id="edge13" class="edge">
<title>Node10&#45;&gt;Node1</title>
<path fill="none" stroke="#9a32cd" stroke-dasharray="5,2" d="M793.28,-281.98C781.71,-285.02 769.55,-287.77 758,-289.57 587.23,-316.18 379.24,-304.62 298.42,-298.49"/>
<polygon fill="#9a32cd" stroke="#9a32cd" points="793.99,-285.41 802.7,-279.39 792.13,-278.66 793.99,-285.41"/>
<text text-anchor="middle" x="544" y="-309.57" font-family="Helvetica,sans-Serif" font-size="10.00"> CustomRects</text>
</g>
<!-- Node11&#45;&gt;Node10 -->
<g id="edge14" class="edge">
<title>Node11&#45;&gt;Node10</title>
<path fill="none" stroke="#9a32cd" stroke-dasharray="5,2" d="M684.75,-175.76C721.46,-195.15 784.67,-228.54 821.67,-248.08"/>
<polygon fill="#9a32cd" stroke="#9a32cd" points="686.51,-172.73 676.04,-171.16 683.24,-178.92 686.51,-172.73"/>
<text text-anchor="middle" x="746.5" y="-215.57" font-family="Helvetica,sans-Serif" font-size="10.00"> Data</text>
</g>
<!-- Node12&#45;&gt;Node1 -->
<g id="edge17" class="edge">
<title>Node12&#45;&gt;Node1</title>
<path fill="none" stroke="#9a32cd" stroke-dasharray="5,2" d="M774.81,-341.49C675.33,-342.8 496.06,-341.07 345,-317.57 328.01,-314.93 309.47,-310.05 294.42,-305.55"/>
<polygon fill="#9a32cd" stroke="#9a32cd" points="774.79,-344.99 784.74,-341.34 774.69,-337.99 774.79,-344.99"/>
<text text-anchor="middle" x="544" y="-342.57" font-family="Helvetica,sans-Serif" font-size="10.00"> ConfigData</text>
</g>
<!-- Node13 -->
<g id="node13" class="node">
<title>Node13</title>
<g id="a_node13"><a xlink:href="struct_im_vec4.html" target="_top" xlink:title=" ">
<polygon fill="white" stroke="#bfbfbf" points="69,-323.07 19,-323.07 19,-304.07 69,-304.07 69,-323.07"/>
<text text-anchor="middle" x="44" y="-311.07" font-family="Helvetica,sans-Serif" font-size="10.00">ImVec4</text>
</a>
</g>
</g>
<!-- Node13&#45;&gt;Node1 -->
<g id="edge19" class="edge">
<title>Node13&#45;&gt;Node1</title>
<path fill="none" stroke="#9a32cd" stroke-dasharray="5,2" d="M80.74,-310.61C121.45,-307.23 187.52,-301.75 227.65,-298.42"/>
<polygon fill="#9a32cd" stroke="#9a32cd" points="80.66,-307.1 70.98,-311.42 81.23,-314.08 80.66,-307.1"/>
<text text-anchor="middle" x="143.5" y="-311.57" font-family="Helvetica,sans-Serif" font-size="10.00"> TexUvLines</text>
</g>
<!-- Node14 -->
<g id="node14" class="node">
<title>Node14</title>
<g id="a_node14"><a xlink:href="struct_im_font_builder_i_o.html" target="_top" xlink:title=" ">
<polygon fill="white" stroke="#bfbfbf" points="88,-286.07 0,-286.07 0,-267.07 88,-267.07 88,-286.07"/>
<text text-anchor="middle" x="44" y="-274.07" font-family="Helvetica,sans-Serif" font-size="10.00">ImFontBuilderIO</text>
</a>
</g>
</g>
<!-- Node14&#45;&gt;Node1 -->
<g id="edge20" class="edge">
<title>Node14&#45;&gt;Node1</title>
<path fill="none" stroke="#9a32cd" stroke-dasharray="5,2" d="M99.6,-280.77C124.44,-282.73 154.22,-285.17 181,-287.57 196.34,-288.95 213.3,-290.61 227.72,-292.05"/>
<polygon fill="#9a32cd" stroke="#9a32cd" points="99.95,-277.28 89.71,-279.99 99.4,-284.26 99.95,-277.28"/>
<text text-anchor="middle" x="143.5" y="-290.57" font-family="Helvetica,sans-Serif" font-size="10.00"> FontBuilderIO</text>
</g>
</g>
</svg>
