<?xml version="1.0" encoding="UTF-8" standalone="no"?>
<!DOCTYPE svg PUBLIC "-//W3C//DTD SVG 1.1//EN"
 "http://www.w3.org/Graphics/SVG/1.1/DTD/svg11.dtd">
<!-- Generated by graphviz version 7.0.5 (20221223.1930)
 -->
<!-- Title: ImGuiNextWindowData Pages: 1 -->
<svg width="310pt" height="228pt"
 viewBox="0.00 0.00 309.96 228.00" xmlns="http://www.w3.org/2000/svg" xmlns:xlink="http://www.w3.org/1999/xlink">
<g id="graph0" class="graph" transform="scale(1 1) rotate(0) translate(4 224)">
<title>ImGuiNextWindowData</title>
<!-- Node1 -->
<g id="node1" class="node">
<title>Node1</title>
<g id="a_node1"><a xlink:title=" ">
<polygon fill="#999999" stroke="#666666" points="192.46,-19 74.46,-19 74.46,0 192.46,0 192.46,-19"/>
<text text-anchor="middle" x="133.46" y="-7" font-family="Helvetica,sans-Serif" font-size="10.00">ImGuiNextWindowData</text>
</a>
</g>
</g>
<!-- Node2 -->
<g id="node2" class="node">
<title>Node2</title>
<g id="a_node2"><a xlink:href="struct_im_vec2.html" target="_top" xlink:title=" ">
<polygon fill="white" stroke="#bfbfbf" points="165.46,-220 115.46,-220 115.46,-201 165.46,-201 165.46,-220"/>
<text text-anchor="middle" x="140.46" y="-208" font-family="Helvetica,sans-Serif" font-size="10.00">ImVec2</text>
</a>
</g>
</g>
<!-- Node2&#45;&gt;Node1 -->
<g id="edge1" class="edge">
<title>Node2&#45;&gt;Node1</title>
<path fill="none" stroke="#9a32cd" stroke-dasharray="5,2" d="M104.29,-198.9C73.48,-187.73 31.17,-166.83 11.46,-132 -2.98,-106.47 -4.42,-90.67 11.46,-66 27.58,-40.96 58.08,-27.08 84.55,-19.47"/>
<polygon fill="#9a32cd" stroke="#9a32cd" points="103.03,-202.16 113.62,-202.09 105.29,-195.54 103.03,-202.16"/>
<text text-anchor="middle" x="59.46" y="-124" font-family="Helvetica,sans-Serif" font-size="10.00"> ContentSizeVal</text>
<text text-anchor="middle" x="59.46" y="-113" font-family="Helvetica,sans-Serif" font-size="10.00">MenuBarOffsetMinVal</text>
<text text-anchor="middle" x="59.46" y="-102" font-family="Helvetica,sans-Serif" font-size="10.00">PosPivotVal</text>
<text text-anchor="middle" x="59.46" y="-91" font-family="Helvetica,sans-Serif" font-size="10.00">PosVal</text>
<text text-anchor="middle" x="59.46" y="-80" font-family="Helvetica,sans-Serif" font-size="10.00">ScrollVal</text>
<text text-anchor="middle" x="59.46" y="-69" font-family="Helvetica,sans-Serif" font-size="10.00">SizeVal</text>
</g>
<!-- Node3 -->
<g id="node3" class="node">
<title>Node3</title>
<g id="a_node3"><a xlink:href="struct_im_rect.html" target="_top" xlink:title=" ">
<polygon fill="white" stroke="#bfbfbf" points="164.46,-108.5 116.46,-108.5 116.46,-89.5 164.46,-89.5 164.46,-108.5"/>
<text text-anchor="middle" x="140.46" y="-96.5" font-family="Helvetica,sans-Serif" font-size="10.00">ImRect</text>
</a>
</g>
</g>
<!-- Node2&#45;&gt;Node3 -->
<g id="edge3" class="edge">
<title>Node2&#45;&gt;Node3</title>
<path fill="none" stroke="#9a32cd" stroke-dasharray="5,2" d="M140.46,-189.23C140.46,-165.17 140.46,-126.12 140.46,-108.78"/>
<polygon fill="#9a32cd" stroke="#9a32cd" points="136.96,-189.03 140.46,-199.03 143.96,-189.03 136.96,-189.03"/>
<text text-anchor="middle" x="150.96" y="-169.5" font-family="Helvetica,sans-Serif" font-size="10.00"> Max</text>
<text text-anchor="middle" x="150.96" y="-158.5" font-family="Helvetica,sans-Serif" font-size="10.00">Min</text>
</g>
<!-- Node4 -->
<g id="node4" class="node">
<title>Node4</title>
<g id="a_node4"><a xlink:href="struct_im_gui_size_callback_data.html" target="_top" xlink:title=" ">
<polygon fill="white" stroke="#bfbfbf" points="301.96,-108.5 182.96,-108.5 182.96,-89.5 301.96,-89.5 301.96,-108.5"/>
<text text-anchor="middle" x="242.46" y="-96.5" font-family="Helvetica,sans-Serif" font-size="10.00">ImGuiSizeCallbackData</text>
</a>
</g>
</g>
<!-- Node2&#45;&gt;Node4 -->
<g id="edge5" class="edge">
<title>Node2&#45;&gt;Node4</title>
<path fill="none" stroke="#9a32cd" stroke-dasharray="5,2" d="M156.62,-192.41C159.57,-189.29 162.61,-186.05 165.46,-183 190.71,-156.02 220.4,-123.9 234.39,-108.75"/>
<polygon fill="#9a32cd" stroke="#9a32cd" points="154.17,-189.91 149.85,-199.58 159.26,-194.71 154.17,-189.91"/>
<text text-anchor="middle" x="221.96" y="-175" font-family="Helvetica,sans-Serif" font-size="10.00"> CurrentSize</text>
<text text-anchor="middle" x="221.96" y="-164" font-family="Helvetica,sans-Serif" font-size="10.00">DesiredSize</text>
<text text-anchor="middle" x="221.96" y="-153" font-family="Helvetica,sans-Serif" font-size="10.00">Pos</text>
</g>
<!-- Node3&#45;&gt;Node1 -->
<g id="edge2" class="edge">
<title>Node3&#45;&gt;Node1</title>
<path fill="none" stroke="#9a32cd" stroke-dasharray="5,2" d="M137.6,-77.81C136.43,-68.72 135.18,-57.84 134.46,-48 133.75,-38.26 133.53,-27.06 133.47,-19.45"/>
<polygon fill="#9a32cd" stroke="#9a32cd" points="134.13,-78.24 138.95,-87.67 141.07,-77.29 134.13,-78.24"/>
<text text-anchor="middle" x="177.46" y="-40" font-family="Helvetica,sans-Serif" font-size="10.00"> SizeConstraintRect</text>
</g>
<!-- Node4&#45;&gt;Node1 -->
<g id="edge4" class="edge">
<title>Node4&#45;&gt;Node1</title>
<path fill="none" stroke="#9a32cd" stroke-dasharray="5,2" d="M239.92,-77.87C237.23,-64.58 231.71,-47.7 220.46,-37 211.99,-28.95 201.15,-23.34 190.01,-19.43"/>
<polygon fill="#9a32cd" stroke="#9a32cd" points="236.46,-78.38 241.49,-87.7 243.37,-77.27 236.46,-78.38"/>
<text text-anchor="middle" x="258.96" y="-40" font-family="Helvetica,sans-Serif" font-size="10.00"> SizeCallback</text>
</g>
</g>
</svg>
