<?xml version="1.0" encoding="UTF-8" standalone="no"?>
<!DOCTYPE svg PUBLIC "-//W3C//DTD SVG 1.1//EN"
 "http://www.w3.org/Graphics/SVG/1.1/DTD/svg11.dtd">
<!-- Generated by graphviz version 7.0.5 (20221223.1930)
 -->
<!-- Title: ExampleAppDocuments Pages: 1 -->
<svg width="138pt" height="225pt"
 viewBox="0.00 0.00 138.00 225.00" xmlns="http://www.w3.org/2000/svg" xmlns:xlink="http://www.w3.org/1999/xlink">
<g id="graph0" class="graph" transform="scale(1 1) rotate(0) translate(4 221)">
<title>ExampleAppDocuments</title>
<!-- Node1 -->
<g id="node1" class="node">
<title>Node1</title>
<g id="a_node1"><a xlink:title=" ">
<polygon fill="#999999" stroke="#666666" points="125,-19 5,-19 5,0 125,0 125,-19"/>
<text text-anchor="middle" x="65" y="-7" font-family="Helvetica,sans-Serif" font-size="10.00">ExampleAppDocuments</text>
</a>
</g>
</g>
<!-- Node2 -->
<g id="node2" class="node">
<title>Node2</title>
<g id="a_node2"><a xlink:href="struct_im_vector.html" target="_top" xlink:title=" ">
<polygon fill="white" stroke="#bfbfbf" points="130,-85 0,-85 0,-66 130,-66 130,-85"/>
<text text-anchor="middle" x="65" y="-73" font-family="Helvetica,sans-Serif" font-size="10.00">ImVector&lt; MyDocument &gt;</text>
</a>
</g>
</g>
<!-- Node2&#45;&gt;Node1 -->
<g id="edge1" class="edge">
<title>Node2&#45;&gt;Node1</title>
<path fill="none" stroke="#9a32cd" stroke-dasharray="5,2" d="M65,-54.18C65,-42.44 65,-28.27 65,-19.32"/>
<polygon fill="#9a32cd" stroke="#9a32cd" points="61.5,-54.09 65,-64.09 68.5,-54.09 61.5,-54.09"/>
<text text-anchor="middle" x="91" y="-40" font-family="Helvetica,sans-Serif" font-size="10.00"> Documents</text>
</g>
<!-- Node3 -->
<g id="node3" class="node">
<title>Node3</title>
<g id="a_node3"><a xlink:href="struct_my_document.html" target="_top" xlink:title=" ">
<polygon fill="white" stroke="#bfbfbf" points="102,-151 28,-151 28,-132 102,-132 102,-151"/>
<text text-anchor="middle" x="65" y="-139" font-family="Helvetica,sans-Serif" font-size="10.00">MyDocument</text>
</a>
</g>
</g>
<!-- Node3&#45;&gt;Node2 -->
<g id="edge2" class="edge">
<title>Node3&#45;&gt;Node2</title>
<path fill="none" stroke="#9a32cd" stroke-dasharray="5,2" d="M65,-120.18C65,-108.44 65,-94.27 65,-85.32"/>
<polygon fill="#9a32cd" stroke="#9a32cd" points="61.5,-120.09 65,-130.09 68.5,-120.09 61.5,-120.09"/>
<text text-anchor="middle" x="76.5" y="-106" font-family="Helvetica,sans-Serif" font-size="10.00"> Data</text>
</g>
<!-- Node4 -->
<g id="node4" class="node">
<title>Node4</title>
<g id="a_node4"><a xlink:href="struct_im_vec4.html" target="_top" xlink:title=" ">
<polygon fill="white" stroke="#bfbfbf" points="90,-217 40,-217 40,-198 90,-198 90,-217"/>
<text text-anchor="middle" x="65" y="-205" font-family="Helvetica,sans-Serif" font-size="10.00">ImVec4</text>
</a>
</g>
</g>
<!-- Node4&#45;&gt;Node3 -->
<g id="edge3" class="edge">
<title>Node4&#45;&gt;Node3</title>
<path fill="none" stroke="#9a32cd" stroke-dasharray="5,2" d="M65,-186.18C65,-174.44 65,-160.27 65,-151.32"/>
<polygon fill="#9a32cd" stroke="#9a32cd" points="61.5,-186.09 65,-196.09 68.5,-186.09 61.5,-186.09"/>
<text text-anchor="middle" x="77.5" y="-172" font-family="Helvetica,sans-Serif" font-size="10.00"> Color</text>
</g>
</g>
</svg>
