<?xml version="1.0" encoding="UTF-8" standalone="no"?>
<!DOCTYPE svg PUBLIC "-//W3C//DTD SVG 1.1//EN"
 "http://www.w3.org/Graphics/SVG/1.1/DTD/svg11.dtd">
<!-- Generated by graphviz version 7.0.5 (20221223.1930)
 -->
<!-- Title: ImGuiIO Pages: 1 -->
<svg width="1015pt" height="540pt"
 viewBox="0.00 0.00 1015.00 539.72" xmlns="http://www.w3.org/2000/svg" xmlns:xlink="http://www.w3.org/1999/xlink">
<g id="graph0" class="graph" transform="scale(1 1) rotate(0) translate(4 535.72)">
<title>ImGuiIO</title>
<!-- Node1 -->
<g id="node1" class="node">
<title>Node1</title>
<g id="a_node1"><a xlink:title=" ">
<polygon fill="#999999" stroke="#666666" points="760.5,-427.22 707.5,-427.22 707.5,-408.22 760.5,-408.22 760.5,-427.22"/>
<text text-anchor="middle" x="734" y="-415.22" font-family="Helvetica,sans-Serif" font-size="10.00">ImGuiIO</text>
</a>
</g>
</g>
<!-- Node2 -->
<g id="node2" class="node">
<title>Node2</title>
<g id="a_node2"><a xlink:href="struct_im_vec2.html" target="_top" xlink:title=" ">
<polygon fill="white" stroke="#bfbfbf" points="69,-394.22 19,-394.22 19,-375.22 69,-375.22 69,-394.22"/>
<text text-anchor="middle" x="44" y="-382.22" font-family="Helvetica,sans-Serif" font-size="10.00">ImVec2</text>
</a>
</g>
</g>
<!-- Node2&#45;&gt;Node1 -->
<g id="edge1" class="edge">
<title>Node2&#45;&gt;Node1</title>
<path fill="none" stroke="#9a32cd" stroke-dasharray="5,2" d="M61.76,-402.8C73.08,-413.67 89.01,-426.55 106,-432.72 301.57,-503.73 366.04,-450.21 574,-443.72 609.61,-442.61 618.84,-444.44 654,-438.72 672.07,-435.79 691.99,-430.48 707.3,-425.93"/>
<polygon fill="#9a32cd" stroke="#9a32cd" points="64.32,-400.42 54.8,-395.76 59.34,-405.34 64.32,-400.42"/>
<text text-anchor="middle" x="400.5" y="-523.72" font-family="Helvetica,sans-Serif" font-size="10.00"> DisplayFramebufferScale</text>
<text text-anchor="middle" x="400.5" y="-512.72" font-family="Helvetica,sans-Serif" font-size="10.00">DisplaySize</text>
<text text-anchor="middle" x="400.5" y="-501.72" font-family="Helvetica,sans-Serif" font-size="10.00">MouseClickedPos</text>
<text text-anchor="middle" x="400.5" y="-490.72" font-family="Helvetica,sans-Serif" font-size="10.00">MouseDelta</text>
<text text-anchor="middle" x="400.5" y="-479.72" font-family="Helvetica,sans-Serif" font-size="10.00">MousePos</text>
<text text-anchor="middle" x="400.5" y="-468.72" font-family="Helvetica,sans-Serif" font-size="10.00">MousePosPrev</text>
</g>
<!-- Node3 -->
<g id="node3" class="node">
<title>Node3</title>
<g id="a_node3"><a xlink:href="struct_im_font_atlas.html" target="_top" xlink:title=" ">
<polygon fill="white" stroke="#bfbfbf" points="298,-310.22 228,-310.22 228,-291.22 298,-291.22 298,-310.22"/>
<text text-anchor="middle" x="263" y="-298.22" font-family="Helvetica,sans-Serif" font-size="10.00">ImFontAtlas</text>
</a>
</g>
</g>
<!-- Node2&#45;&gt;Node3 -->
<g id="edge3" class="edge">
<title>Node2&#45;&gt;Node3</title>
<path fill="none" stroke="#9a32cd" stroke-dasharray="5,2" d="M80.17,-371.11C123.89,-354.18 197.48,-325.7 236.28,-310.68"/>
<polygon fill="#9a32cd" stroke="#9a32cd" points="78.94,-367.83 70.88,-374.7 81.47,-374.36 78.94,-367.83"/>
<text text-anchor="middle" x="143.5" y="-373.72" font-family="Helvetica,sans-Serif" font-size="10.00"> TexUvScale</text>
<text text-anchor="middle" x="143.5" y="-362.72" font-family="Helvetica,sans-Serif" font-size="10.00">TexUvWhitePixel</text>
</g>
<!-- Node10 -->
<g id="node10" class="node">
<title>Node10</title>
<g id="a_node10"><a xlink:href="struct_im_font_config.html" target="_top" xlink:title=" ">
<polygon fill="white" stroke="#bfbfbf" points="771,-131.22 697,-131.22 697,-112.22 771,-112.22 771,-131.22"/>
<text text-anchor="middle" x="734" y="-119.22" font-family="Helvetica,sans-Serif" font-size="10.00">ImFontConfig</text>
</a>
</g>
</g>
<!-- Node2&#45;&gt;Node10 -->
<g id="edge13" class="edge">
<title>Node2&#45;&gt;Node10</title>
<path fill="none" stroke="#9a32cd" stroke-dasharray="5,2" d="M61.41,-366.11C70.19,-355.43 80.68,-341.46 88,-327.72 99.5,-306.14 97.15,-298.52 106,-275.72 136.46,-197.21 150.99,-180.41 181,-101.72 190.02,-78.08 178.48,-62.51 199,-47.72 367.56,73.77 645.35,-71.1 716.16,-111.72"/>
<polygon fill="#9a32cd" stroke="#9a32cd" points="58.75,-363.84 54.94,-373.73 64.08,-368.37 58.75,-363.84"/>
<text text-anchor="middle" x="400.5" y="-24.72" font-family="Helvetica,sans-Serif" font-size="10.00"> GlyphExtraSpacing</text>
<text text-anchor="middle" x="400.5" y="-13.72" font-family="Helvetica,sans-Serif" font-size="10.00">GlyphOffset</text>
</g>
<!-- Node12 -->
<g id="node12" class="node">
<title>Node12</title>
<g id="a_node12"><a xlink:href="struct_im_font_atlas_custom_rect.html" target="_top" xlink:title=" ">
<polygon fill="white" stroke="#bfbfbf" points="796,-330.22 672,-330.22 672,-311.22 796,-311.22 796,-330.22"/>
<text text-anchor="middle" x="734" y="-318.22" font-family="Helvetica,sans-Serif" font-size="10.00">ImFontAtlasCustomRect</text>
</a>
</g>
</g>
<!-- Node2&#45;&gt;Node12 -->
<g id="edge17" class="edge">
<title>Node2&#45;&gt;Node12</title>
<path fill="none" stroke="#9a32cd" stroke-dasharray="5,2" d="M80.48,-386.26C107.94,-387.14 146.92,-387.72 181,-385.72 275.4,-380.18 548.82,-345.02 671.8,-328.85"/>
<polygon fill="#9a32cd" stroke="#9a32cd" points="80.73,-382.77 70.61,-385.91 80.48,-389.76 80.73,-382.77"/>
<text text-anchor="middle" x="400.5" y="-371.72" font-family="Helvetica,sans-Serif" font-size="10.00"> GlyphOffset</text>
</g>
<!-- Node3&#45;&gt;Node1 -->
<g id="edge2" class="edge">
<title>Node3&#45;&gt;Node1</title>
<path fill="none" stroke="#9a32cd" stroke-dasharray="5,2" d="M279.82,-318.79C294.98,-334.99 319.29,-358.23 345,-371.72 390.05,-395.37 411.75,-374.61 456,-399.72 465.84,-405.31 463.68,-413.08 474,-417.72 521.92,-439.26 539.49,-423.17 592,-424.72 619.54,-425.54 626.47,-425.94 654,-424.72 671.74,-423.94 691.67,-422.17 707.06,-420.6"/>
<polygon fill="#9a32cd" stroke="#9a32cd" points="282.72,-316.78 273.41,-311.74 277.54,-321.49 282.72,-316.78"/>
<text text-anchor="middle" x="524" y="-431.72" font-family="Helvetica,sans-Serif" font-size="10.00"> Fonts</text>
</g>
<!-- Node5 -->
<g id="node5" class="node">
<title>Node5</title>
<g id="a_node5"><a xlink:href="struct_im_font.html" target="_top" xlink:title=" ">
<polygon fill="white" stroke="#bfbfbf" points="547.5,-155.22 500.5,-155.22 500.5,-136.22 547.5,-136.22 547.5,-155.22"/>
<text text-anchor="middle" x="524" y="-143.22" font-family="Helvetica,sans-Serif" font-size="10.00">ImFont</text>
</a>
</g>
</g>
<!-- Node3&#45;&gt;Node5 -->
<g id="edge11" class="edge">
<title>Node3&#45;&gt;Node5</title>
<path fill="none" stroke="#9a32cd" stroke-dasharray="5,2" d="M280.53,-282.7C293.76,-267.9 312.44,-246.13 327,-225.72 336.03,-213.06 332.32,-204.72 345,-195.72 386.08,-166.56 407.78,-187.31 456,-172.72 471.49,-168.04 488.38,-161.22 501.33,-155.61"/>
<polygon fill="#9a32cd" stroke="#9a32cd" points="278.21,-280.05 274.1,-289.82 283.4,-284.75 278.21,-280.05"/>
<text text-anchor="middle" x="400.5" y="-198.72" font-family="Helvetica,sans-Serif" font-size="10.00"> ContainerAtlas</text>
</g>
<!-- Node4 -->
<g id="node4" class="node">
<title>Node4</title>
<g id="a_node4"><a xlink:href="struct_im_vector.html" target="_top" xlink:title=" ">
<polygon fill="white" stroke="#bfbfbf" points="789,-194.22 679,-194.22 679,-175.22 789,-175.22 789,-194.22"/>
<text text-anchor="middle" x="734" y="-182.22" font-family="Helvetica,sans-Serif" font-size="10.00">ImVector&lt; ImFont * &gt;</text>
</a>
</g>
</g>
<!-- Node4&#45;&gt;Node3 -->
<g id="edge4" class="edge">
<title>Node4&#45;&gt;Node3</title>
<path fill="none" stroke="#9a32cd" stroke-dasharray="5,2" d="M667.35,-186.59C614.43,-189.34 538.47,-196.11 474,-212.72 400.12,-231.76 318.28,-272.11 282.47,-290.82"/>
<polygon fill="#9a32cd" stroke="#9a32cd" points="667.28,-190.1 677.1,-186.12 666.95,-183.11 667.28,-190.1"/>
<text text-anchor="middle" x="524" y="-215.72" font-family="Helvetica,sans-Serif" font-size="10.00"> Fonts</text>
</g>
<!-- Node5&#45;&gt;Node1 -->
<g id="edge23" class="edge">
<title>Node5&#45;&gt;Node1</title>
<path fill="none" stroke="#9a32cd" stroke-dasharray="5,2" d="M557.3,-160.74C563.69,-165.07 569.74,-170.38 574,-176.72 599.43,-214.57 568.39,-238.71 592,-277.72 610.04,-307.54 628.74,-301.71 654,-325.72 682.84,-353.14 712.16,-390.22 725.53,-407.75"/>
<polygon fill="#9a32cd" stroke="#9a32cd" points="559.53,-158 549.15,-155.87 555.94,-164.01 559.53,-158"/>
<text text-anchor="middle" x="623" y="-328.72" font-family="Helvetica,sans-Serif" font-size="10.00"> FontDefault</text>
</g>
<!-- Node5&#45;&gt;Node4 -->
<g id="edge5" class="edge">
<title>Node5&#45;&gt;Node4</title>
<path fill="none" stroke="#9a32cd" stroke-dasharray="5,2" d="M558.88,-152.07C591.63,-158.21 641.73,-167.61 679.8,-174.75"/>
<polygon fill="#9a32cd" stroke="#9a32cd" points="559.62,-148.65 549.14,-150.25 558.33,-155.53 559.62,-148.65"/>
<text text-anchor="middle" x="623" y="-173.72" font-family="Helvetica,sans-Serif" font-size="10.00"> Data</text>
</g>
<!-- Node5&#45;&gt;Node10 -->
<g id="edge14" class="edge">
<title>Node5&#45;&gt;Node10</title>
<path fill="none" stroke="#9a32cd" stroke-dasharray="5,2" d="M552.61,-130.75C564.39,-125.17 578.51,-119.52 592,-116.72 627.02,-109.47 667.96,-112.11 696.67,-115.73"/>
<polygon fill="#9a32cd" stroke="#9a32cd" points="551.29,-127.5 543.9,-135.09 554.41,-133.76 551.29,-127.5"/>
<text text-anchor="middle" x="623" y="-119.72" font-family="Helvetica,sans-Serif" font-size="10.00"> DstFont</text>
</g>
<!-- Node5&#45;&gt;Node12 -->
<g id="edge18" class="edge">
<title>Node5&#45;&gt;Node12</title>
<path fill="none" stroke="#9a32cd" stroke-dasharray="5,2" d="M557.68,-161.55C563.81,-165.76 569.65,-170.82 574,-176.72 592.28,-201.55 571.23,-220.93 592,-243.72 611.8,-265.45 627.9,-253.22 654,-266.72 679.08,-279.7 705.69,-299.25 720.74,-310.93"/>
<polygon fill="#9a32cd" stroke="#9a32cd" points="559.63,-158.64 549.27,-156.42 555.98,-164.62 559.63,-158.64"/>
<text text-anchor="middle" x="623" y="-269.72" font-family="Helvetica,sans-Serif" font-size="10.00"> Font</text>
</g>
<!-- Node6 -->
<g id="node6" class="node">
<title>Node6</title>
<g id="a_node6"><a xlink:href="struct_im_vector.html" target="_top" xlink:title=" ">
<polygon fill="white" stroke="#bfbfbf" points="308.5,-105.22 217.5,-105.22 217.5,-86.22 308.5,-86.22 308.5,-105.22"/>
<text text-anchor="middle" x="263" y="-93.22" font-family="Helvetica,sans-Serif" font-size="10.00">ImVector&lt; float &gt;</text>
</a>
</g>
</g>
<!-- Node6&#45;&gt;Node5 -->
<g id="edge6" class="edge">
<title>Node6&#45;&gt;Node5</title>
<path fill="none" stroke="#9a32cd" stroke-dasharray="5,2" d="M320.12,-93.7C359,-93.76 411.55,-96.8 456,-109.72 475.53,-115.4 495.81,-127.27 508.87,-135.83"/>
<polygon fill="#9a32cd" stroke="#9a32cd" points="320.27,-90.19 310.29,-93.75 320.31,-97.19 320.27,-90.19"/>
<text text-anchor="middle" x="400.5" y="-112.72" font-family="Helvetica,sans-Serif" font-size="10.00"> IndexAdvanceX</text>
</g>
<!-- Node7 -->
<g id="node7" class="node">
<title>Node7</title>
<g id="a_node7"><a xlink:href="struct_im_vector.html" target="_top" xlink:title=" ">
<polygon fill="white" stroke="#bfbfbf" points="319,-217.22 207,-217.22 207,-198.22 319,-198.22 319,-217.22"/>
<text text-anchor="middle" x="263" y="-205.22" font-family="Helvetica,sans-Serif" font-size="10.00">ImVector&lt; ImWchar &gt;</text>
</a>
</g>
</g>
<!-- Node7&#45;&gt;Node1 -->
<g id="edge25" class="edge">
<title>Node7&#45;&gt;Node1</title>
<path fill="none" stroke="#9a32cd" stroke-dasharray="5,2" d="M291.53,-223.05C347.15,-253.65 477.42,-323.43 592,-370.72 631.35,-386.97 678.55,-401.8 707.14,-410.29"/>
<polygon fill="#9a32cd" stroke="#9a32cd" points="293.5,-220.14 283.05,-218.37 290.11,-226.26 293.5,-220.14"/>
<text text-anchor="middle" x="524" y="-364.72" font-family="Helvetica,sans-Serif" font-size="10.00"> InputQueueCharacters</text>
</g>
<!-- Node7&#45;&gt;Node5 -->
<g id="edge7" class="edge">
<title>Node7&#45;&gt;Node5</title>
<path fill="none" stroke="#9a32cd" stroke-dasharray="5,2" d="M286.53,-191.43C302.15,-181.04 323.86,-168.33 345,-161.72 398.75,-144.92 465.76,-143.9 500.21,-144.73"/>
<polygon fill="#9a32cd" stroke="#9a32cd" points="284.72,-188.42 278.46,-196.97 288.69,-194.19 284.72,-188.42"/>
<text text-anchor="middle" x="400.5" y="-164.72" font-family="Helvetica,sans-Serif" font-size="10.00"> IndexLookup</text>
</g>
<!-- Node8 -->
<g id="node8" class="node">
<title>Node8</title>
<g id="a_node8"><a xlink:href="struct_im_vector.html" target="_top" xlink:title=" ">
<polygon fill="white" stroke="#bfbfbf" points="327,-142.22 199,-142.22 199,-123.22 327,-123.22 327,-142.22"/>
<text text-anchor="middle" x="263" y="-130.22" font-family="Helvetica,sans-Serif" font-size="10.00">ImVector&lt; ImFontGlyph &gt;</text>
</a>
</g>
</g>
<!-- Node8&#45;&gt;Node5 -->
<g id="edge8" class="edge">
<title>Node8&#45;&gt;Node5</title>
<path fill="none" stroke="#9a32cd" stroke-dasharray="5,2" d="M338.68,-125.35C374.34,-123.22 417.52,-122.64 456,-127.72 470.93,-129.69 487.25,-134.03 500.05,-137.95"/>
<polygon fill="#9a32cd" stroke="#9a32cd" points="338.65,-121.85 328.9,-126 339.11,-128.83 338.65,-121.85"/>
<text text-anchor="middle" x="400.5" y="-130.72" font-family="Helvetica,sans-Serif" font-size="10.00"> Glyphs</text>
</g>
<!-- Node9 -->
<g id="node9" class="node">
<title>Node9</title>
<g id="a_node9"><a xlink:href="struct_im_font_glyph.html" target="_top" xlink:title=" ">
<polygon fill="white" stroke="#bfbfbf" points="80,-82.22 8,-82.22 8,-63.22 80,-63.22 80,-82.22"/>
<text text-anchor="middle" x="44" y="-70.22" font-family="Helvetica,sans-Serif" font-size="10.00">ImFontGlyph</text>
</a>
</g>
</g>
<!-- Node9&#45;&gt;Node5 -->
<g id="edge10" class="edge">
<title>Node9&#45;&gt;Node5</title>
<path fill="none" stroke="#9a32cd" stroke-dasharray="5,2" d="M91.47,-63.67C170.62,-50.58 334.79,-33.75 456,-90.72 479.7,-101.86 502.13,-123.27 514.08,-135.84"/>
<polygon fill="#9a32cd" stroke="#9a32cd" points="91.18,-60.17 81.91,-65.31 92.36,-67.07 91.18,-60.17"/>
<text text-anchor="middle" x="263" y="-58.72" font-family="Helvetica,sans-Serif" font-size="10.00"> FallbackGlyph</text>
</g>
<!-- Node9&#45;&gt;Node8 -->
<g id="edge9" class="edge">
<title>Node9&#45;&gt;Node8</title>
<path fill="none" stroke="#9a32cd" stroke-dasharray="5,2" d="M91.21,-85.5C131.46,-96.63 189.01,-112.54 225.94,-122.75"/>
<polygon fill="#9a32cd" stroke="#9a32cd" points="92.38,-82.19 81.81,-82.9 90.51,-88.94 92.38,-82.19"/>
<text text-anchor="middle" x="143.5" y="-113.72" font-family="Helvetica,sans-Serif" font-size="10.00"> Data</text>
</g>
<!-- Node10&#45;&gt;Node5 -->
<g id="edge12" class="edge">
<title>Node10&#45;&gt;Node5</title>
<path fill="none" stroke="#9a32cd" stroke-dasharray="5,2" d="M685.44,-127.21C642.29,-132.19 580.54,-139.31 547.66,-143.11"/>
<polygon fill="#9a32cd" stroke="#9a32cd" points="685.77,-130.7 695.3,-126.07 684.96,-123.74 685.77,-130.7"/>
<text text-anchor="middle" x="623" y="-141.72" font-family="Helvetica,sans-Serif" font-size="10.00"> ConfigData</text>
</g>
<!-- Node13 -->
<g id="node13" class="node">
<title>Node13</title>
<g id="a_node13"><a xlink:href="struct_im_vector.html" target="_top" xlink:title=" ">
<polygon fill="white" stroke="#bfbfbf" points="996.5,-228.22 865.5,-228.22 865.5,-209.22 996.5,-209.22 996.5,-228.22"/>
<text text-anchor="middle" x="931" y="-216.22" font-family="Helvetica,sans-Serif" font-size="10.00">ImVector&lt; ImFontConfig &gt;</text>
</a>
</g>
</g>
<!-- Node10&#45;&gt;Node13 -->
<g id="edge20" class="edge">
<title>Node10&#45;&gt;Node13</title>
<path fill="none" stroke="#9a32cd" stroke-dasharray="5,2" d="M765.05,-136.67C805.38,-156.73 875.9,-191.81 910.18,-208.86"/>
<polygon fill="#9a32cd" stroke="#9a32cd" points="766.64,-133.55 756.13,-132.23 763.52,-139.82 766.64,-133.55"/>
<text text-anchor="middle" x="825.5" y="-173.72" font-family="Helvetica,sans-Serif" font-size="10.00"> Data</text>
</g>
<!-- Node11 -->
<g id="node11" class="node">
<title>Node11</title>
<g id="a_node11"><a xlink:href="struct_im_vector.html" target="_top" xlink:title=" ">
<polygon fill="white" stroke="#bfbfbf" points="1007,-357.72 855,-357.72 855,-327.72 1007,-327.72 1007,-357.72"/>
<text text-anchor="start" x="863" y="-345.72" font-family="Helvetica,sans-Serif" font-size="10.00">ImVector&lt; ImFontAtlasCustom</text>
<text text-anchor="middle" x="931" y="-334.72" font-family="Helvetica,sans-Serif" font-size="10.00">Rect &gt;</text>
</a>
</g>
</g>
<!-- Node11&#45;&gt;Node3 -->
<g id="edge15" class="edge">
<title>Node11&#45;&gt;Node3</title>
<path fill="none" stroke="#9a32cd" stroke-dasharray="5,2" d="M843.59,-344.88C833.61,-344.93 823.58,-344.89 814,-344.72 750.86,-343.61 735.11,-342.02 672,-339.72 636.44,-338.43 627.48,-339.33 592,-336.72 484.59,-328.82 358.05,-313.11 298.4,-305.32"/>
<polygon fill="#9a32cd" stroke="#9a32cd" points="843.32,-348.38 853.3,-344.79 843.27,-341.38 843.32,-348.38"/>
<text text-anchor="middle" x="623" y="-341.72" font-family="Helvetica,sans-Serif" font-size="10.00"> CustomRects</text>
</g>
<!-- Node12&#45;&gt;Node11 -->
<g id="edge16" class="edge">
<title>Node12&#45;&gt;Node11</title>
<path fill="none" stroke="#9a32cd" stroke-dasharray="5,2" d="M807.5,-328.9C822.95,-330.64 839.29,-332.49 854.84,-334.24"/>
<polygon fill="#9a32cd" stroke="#9a32cd" points="808.26,-325.47 797.94,-327.82 807.48,-332.42 808.26,-325.47"/>
<text text-anchor="middle" x="825.5" y="-334.72" font-family="Helvetica,sans-Serif" font-size="10.00"> Data</text>
</g>
<!-- Node13&#45;&gt;Node3 -->
<g id="edge19" class="edge">
<title>Node13&#45;&gt;Node3</title>
<path fill="none" stroke="#9a32cd" stroke-dasharray="5,2" d="M853.93,-212.36C767.54,-206.69 633.22,-203.02 592,-230.72 575.82,-241.6 589.84,-259.36 574,-270.72 530.61,-301.84 369.66,-302.8 298.37,-301.61"/>
<polygon fill="#9a32cd" stroke="#9a32cd" points="853.54,-215.85 863.75,-213.04 854.01,-208.86 853.54,-215.85"/>
<text text-anchor="middle" x="623" y="-233.72" font-family="Helvetica,sans-Serif" font-size="10.00"> ConfigData</text>
</g>
<!-- Node14 -->
<g id="node14" class="node">
<title>Node14</title>
<g id="a_node14"><a xlink:href="struct_im_vec4.html" target="_top" xlink:title=" ">
<polygon fill="white" stroke="#bfbfbf" points="69,-318.22 19,-318.22 19,-299.22 69,-299.22 69,-318.22"/>
<text text-anchor="middle" x="44" y="-306.22" font-family="Helvetica,sans-Serif" font-size="10.00">ImVec4</text>
</a>
</g>
</g>
<!-- Node14&#45;&gt;Node3 -->
<g id="edge21" class="edge">
<title>Node14&#45;&gt;Node3</title>
<path fill="none" stroke="#9a32cd" stroke-dasharray="5,2" d="M80.74,-307.4C121.45,-305.9 187.52,-303.47 227.65,-301.99"/>
<polygon fill="#9a32cd" stroke="#9a32cd" points="80.85,-303.9 70.98,-307.76 81.11,-310.89 80.85,-303.9"/>
<text text-anchor="middle" x="143.5" y="-308.72" font-family="Helvetica,sans-Serif" font-size="10.00"> TexUvLines</text>
</g>
<!-- Node15 -->
<g id="node15" class="node">
<title>Node15</title>
<g id="a_node15"><a xlink:href="struct_im_font_builder_i_o.html" target="_top" xlink:title=" ">
<polygon fill="white" stroke="#bfbfbf" points="88,-281.22 0,-281.22 0,-262.22 88,-262.22 88,-281.22"/>
<text text-anchor="middle" x="44" y="-269.22" font-family="Helvetica,sans-Serif" font-size="10.00">ImFontBuilderIO</text>
</a>
</g>
</g>
<!-- Node15&#45;&gt;Node3 -->
<g id="edge22" class="edge">
<title>Node15&#45;&gt;Node3</title>
<path fill="none" stroke="#9a32cd" stroke-dasharray="5,2" d="M99.62,-278.26C124.47,-281.31 154.24,-285.07 181,-288.72 196.35,-290.82 213.32,-293.31 227.74,-295.47"/>
<polygon fill="#9a32cd" stroke="#9a32cd" points="100.07,-274.79 89.72,-277.05 99.22,-281.74 100.07,-274.79"/>
<text text-anchor="middle" x="143.5" y="-291.72" font-family="Helvetica,sans-Serif" font-size="10.00"> FontBuilderIO</text>
</g>
<!-- Node16 -->
<g id="node16" class="node">
<title>Node16</title>
<g id="a_node16"><a xlink:href="struct_im_gui_key_data.html" target="_top" xlink:title=" ">
<polygon fill="white" stroke="#bfbfbf" points="564,-408.22 484,-408.22 484,-389.22 564,-389.22 564,-408.22"/>
<text text-anchor="middle" x="524" y="-396.22" font-family="Helvetica,sans-Serif" font-size="10.00">ImGuiKeyData</text>
</a>
</g>
</g>
<!-- Node16&#45;&gt;Node1 -->
<g id="edge24" class="edge">
<title>Node16&#45;&gt;Node1</title>
<path fill="none" stroke="#9a32cd" stroke-dasharray="5,2" d="M575.41,-403.33C617.02,-407.13 674.38,-412.37 707.19,-415.36"/>
<polygon fill="#9a32cd" stroke="#9a32cd" points="575.91,-399.86 565.63,-402.43 575.27,-406.83 575.91,-399.86"/>
<text text-anchor="middle" x="623" y="-412.72" font-family="Helvetica,sans-Serif" font-size="10.00"> KeysData</text>
</g>
</g>
</svg>
