<?xml version="1.0" encoding="UTF-8" standalone="no"?>
<!DOCTYPE svg PUBLIC "-//W3C//DTD SVG 1.1//EN"
 "http://www.w3.org/Graphics/SVG/1.1/DTD/svg11.dtd">
<!-- Generated by graphviz version 7.0.5 (20221223.1930)
 -->
<!-- Title: STB_TexteditState Pages: 1 -->
<svg width="107pt" height="159pt"
 viewBox="0.00 0.00 107.00 159.00" xmlns="http://www.w3.org/2000/svg" xmlns:xlink="http://www.w3.org/1999/xlink">
<g id="graph0" class="graph" transform="scale(1 1) rotate(0) translate(4 155)">
<title>STB_TexteditState</title>
<!-- Node1 -->
<g id="node1" class="node">
<title>Node1</title>
<g id="a_node1"><a xlink:title=" ">
<polygon fill="#999999" stroke="#666666" points="99,-19 0,-19 0,0 99,0 99,-19"/>
<text text-anchor="middle" x="49.5" y="-7" font-family="Helvetica,sans-Serif" font-size="10.00">STB_TexteditState</text>
</a>
</g>
</g>
<!-- Node2 -->
<g id="node2" class="node">
<title>Node2</title>
<g id="a_node2"><a xlink:href="struct_stb_undo_state.html" target="_top" xlink:title=" ">
<polygon fill="white" stroke="#bfbfbf" points="88.5,-85 10.5,-85 10.5,-66 88.5,-66 88.5,-85"/>
<text text-anchor="middle" x="49.5" y="-73" font-family="Helvetica,sans-Serif" font-size="10.00">StbUndoState</text>
</a>
</g>
</g>
<!-- Node2&#45;&gt;Node1 -->
<g id="edge1" class="edge">
<title>Node2&#45;&gt;Node1</title>
<path fill="none" stroke="#9a32cd" stroke-dasharray="5,2" d="M49.5,-54.18C49.5,-42.44 49.5,-28.27 49.5,-19.32"/>
<polygon fill="#9a32cd" stroke="#9a32cd" points="46,-54.09 49.5,-64.09 53,-54.09 46,-54.09"/>
<text text-anchor="middle" x="72.5" y="-40" font-family="Helvetica,sans-Serif" font-size="10.00"> undostate</text>
</g>
<!-- Node3 -->
<g id="node3" class="node">
<title>Node3</title>
<g id="a_node3"><a xlink:href="struct_stb_undo_record.html" target="_top" xlink:title=" ">
<polygon fill="white" stroke="#bfbfbf" points="92.5,-151 6.5,-151 6.5,-132 92.5,-132 92.5,-151"/>
<text text-anchor="middle" x="49.5" y="-139" font-family="Helvetica,sans-Serif" font-size="10.00">StbUndoRecord</text>
</a>
</g>
</g>
<!-- Node3&#45;&gt;Node2 -->
<g id="edge2" class="edge">
<title>Node3&#45;&gt;Node2</title>
<path fill="none" stroke="#9a32cd" stroke-dasharray="5,2" d="M49.5,-120.18C49.5,-108.44 49.5,-94.27 49.5,-85.32"/>
<polygon fill="#9a32cd" stroke="#9a32cd" points="46,-120.09 49.5,-130.09 53,-120.09 46,-120.09"/>
<text text-anchor="middle" x="71" y="-106" font-family="Helvetica,sans-Serif" font-size="10.00"> undo_rec</text>
</g>
</g>
</svg>
