<?xml version="1.0" encoding="UTF-8" standalone="no"?>
<!DOCTYPE svg PUBLIC "-//W3C//DTD SVG 1.1//EN"
 "http://www.w3.org/Graphics/SVG/1.1/DTD/svg11.dtd">
<!-- Generated by graphviz version 7.0.5 (20221223.1930)
 -->
<!-- Title: ImDrawList Pages: 1 -->
<svg width="2025pt" height="750pt"
 viewBox="0.00 0.00 2025.00 750.21" xmlns="http://www.w3.org/2000/svg" xmlns:xlink="http://www.w3.org/1999/xlink">
<g id="graph0" class="graph" transform="scale(1 1) rotate(0) translate(4 746.21)">
<title>ImDrawList</title>
<!-- Node1 -->
<g id="node1" class="node">
<title>Node1</title>
<g id="a_node1"><a xlink:title=" ">
<polygon fill="#999999" stroke="#666666" points="1060.5,-573.71 993.5,-573.71 993.5,-554.71 1060.5,-554.71 1060.5,-573.71"/>
<text text-anchor="middle" x="1027" y="-561.71" font-family="Helvetica,sans-Serif" font-size="10.00">ImDrawList</text>
</a>
</g>
</g>
<!-- Node3 -->
<g id="node3" class="node">
<title>Node3</title>
<g id="a_node3"><a xlink:href="struct_im_draw_cmd.html" target="_top" xlink:title=" ">
<polygon fill="white" stroke="#bfbfbf" points="1271,-656.71 1200,-656.71 1200,-637.71 1271,-637.71 1271,-656.71"/>
<text text-anchor="middle" x="1235.5" y="-644.71" font-family="Helvetica,sans-Serif" font-size="10.00">ImDrawCmd</text>
</a>
</g>
</g>
<!-- Node1&#45;&gt;Node3 -->
<g id="edge4" class="edge">
<title>Node1&#45;&gt;Node3</title>
<path fill="none" stroke="#9a32cd" stroke-dasharray="5,2" d="M1049.89,-580.88C1068.04,-593.93 1094.98,-611.6 1121,-622.21 1146.32,-632.53 1176.63,-638.93 1199.56,-642.67"/>
<polygon fill="#9a32cd" stroke="#9a32cd" points="1052.13,-578.18 1042,-575.08 1047.98,-583.82 1052.13,-578.18"/>
<text text-anchor="middle" x="1151.5" y="-642.21" font-family="Helvetica,sans-Serif" font-size="10.00"> UserCallback</text>
</g>
<!-- Node2 -->
<g id="node2" class="node">
<title>Node2</title>
<g id="a_node2"><a xlink:href="struct_im_vector.html" target="_top" xlink:title=" ">
<polygon fill="white" stroke="#bfbfbf" points="1457,-643.71 1330,-643.71 1330,-624.71 1457,-624.71 1457,-643.71"/>
<text text-anchor="middle" x="1393.5" y="-631.71" font-family="Helvetica,sans-Serif" font-size="10.00">ImVector&lt; ImDrawCmd &gt;</text>
</a>
</g>
</g>
<!-- Node2&#45;&gt;Node1 -->
<g id="edge1" class="edge">
<title>Node2&#45;&gt;Node1</title>
<path fill="none" stroke="#9a32cd" stroke-dasharray="5,2" d="M1329.34,-622.08C1251.33,-607.1 1121.54,-582.17 1060.99,-570.55"/>
<polygon fill="#9a32cd" stroke="#9a32cd" points="1328.49,-625.48 1338.98,-623.93 1329.81,-618.61 1328.49,-625.48"/>
<text text-anchor="middle" x="1235.5" y="-613.21" font-family="Helvetica,sans-Serif" font-size="10.00"> CmdBuffer</text>
</g>
<!-- Node28 -->
<g id="node28" class="node">
<title>Node28</title>
<g id="a_node28"><a xlink:href="struct_im_draw_channel.html" target="_top" xlink:title=" ">
<polygon fill="white" stroke="#bfbfbf" points="1633,-643.71 1547,-643.71 1547,-624.71 1633,-624.71 1633,-643.71"/>
<text text-anchor="middle" x="1590" y="-631.71" font-family="Helvetica,sans-Serif" font-size="10.00">ImDrawChannel</text>
</a>
</g>
</g>
<!-- Node2&#45;&gt;Node28 -->
<g id="edge45" class="edge">
<title>Node2&#45;&gt;Node28</title>
<path fill="none" stroke="#9a32cd" stroke-dasharray="5,2" d="M1468.88,-634.21C1495.19,-634.21 1523.87,-634.21 1546.6,-634.21"/>
<polygon fill="#9a32cd" stroke="#9a32cd" points="1468.89,-630.71 1458.89,-634.21 1468.89,-637.71 1468.89,-630.71"/>
<text text-anchor="middle" x="1502" y="-637.21" font-family="Helvetica,sans-Serif" font-size="10.00"> _CmdBuffer</text>
</g>
<!-- Node3&#45;&gt;Node2 -->
<g id="edge2" class="edge">
<title>Node3&#45;&gt;Node2</title>
<path fill="none" stroke="#9a32cd" stroke-dasharray="5,2" d="M1282.53,-643.37C1297.31,-642.14 1313.95,-640.76 1329.72,-639.44"/>
<polygon fill="#9a32cd" stroke="#9a32cd" points="1282.3,-639.88 1272.63,-644.2 1282.89,-646.86 1282.3,-639.88"/>
<text text-anchor="middle" x="1300.5" y="-645.21" font-family="Helvetica,sans-Serif" font-size="10.00"> Data</text>
</g>
<!-- Node4 -->
<g id="node4" class="node">
<title>Node4</title>
<g id="a_node4"><a xlink:href="struct_im_vec4.html" target="_top" xlink:title=" ">
<polygon fill="white" stroke="#bfbfbf" points="69,-612.71 19,-612.71 19,-593.71 69,-593.71 69,-612.71"/>
<text text-anchor="middle" x="44" y="-600.71" font-family="Helvetica,sans-Serif" font-size="10.00">ImVec4</text>
</a>
</g>
</g>
<!-- Node4&#45;&gt;Node3 -->
<g id="edge3" class="edge">
<title>Node4&#45;&gt;Node3</title>
<path fill="none" stroke="#9a32cd" stroke-dasharray="5,2" d="M60.86,-620.81C94.31,-655.9 176.11,-731.21 262,-731.21 262,-731.21 262,-731.21 1028,-731.21 1105.79,-731.21 1188.73,-679.43 1220.77,-657.18"/>
<polygon fill="#9a32cd" stroke="#9a32cd" points="63.83,-618.87 54.46,-613.94 58.71,-623.64 63.83,-618.87"/>
<text text-anchor="middle" x="643.5" y="-734.21" font-family="Helvetica,sans-Serif" font-size="10.00"> ClipRect</text>
</g>
<!-- Node9 -->
<g id="node9" class="node">
<title>Node9</title>
<g id="a_node9"><a xlink:href="struct_im_draw_list_shared_data.html" target="_top" xlink:title=" ">
<polygon fill="white" stroke="#bfbfbf" points="837,-527.71 719,-527.71 719,-508.71 837,-508.71 837,-527.71"/>
<text text-anchor="middle" x="778" y="-515.71" font-family="Helvetica,sans-Serif" font-size="10.00">ImDrawListSharedData</text>
</a>
</g>
</g>
<!-- Node4&#45;&gt;Node9 -->
<g id="edge32" class="edge">
<title>Node4&#45;&gt;Node9</title>
<path fill="none" stroke="#9a32cd" stroke-dasharray="5,2" d="M80.55,-598.01C136.66,-589.91 249.22,-574.08 345,-563.21 501.13,-545.49 541.02,-549.21 697,-530.21 703.97,-529.36 711.27,-528.39 718.5,-527.37"/>
<polygon fill="#9a32cd" stroke="#9a32cd" points="80.35,-594.5 70.96,-599.4 81.36,-601.43 80.35,-594.5"/>
<text text-anchor="middle" x="396" y="-577.21" font-family="Helvetica,sans-Serif" font-size="10.00"> ClipRectFullscreen</text>
<text text-anchor="middle" x="396" y="-566.21" font-family="Helvetica,sans-Serif" font-size="10.00">TexUvLines</text>
</g>
<!-- Node15 -->
<g id="node15" class="node">
<title>Node15</title>
<g id="a_node15"><a xlink:href="struct_im_font_atlas.html" target="_top" xlink:title=" ">
<polygon fill="white" stroke="#bfbfbf" points="298,-269.71 228,-269.71 228,-250.71 298,-250.71 298,-269.71"/>
<text text-anchor="middle" x="263" y="-257.71" font-family="Helvetica,sans-Serif" font-size="10.00">ImFontAtlas</text>
</a>
</g>
</g>
<!-- Node4&#45;&gt;Node15 -->
<g id="edge29" class="edge">
<title>Node4&#45;&gt;Node15</title>
<path fill="none" stroke="#9a32cd" stroke-dasharray="5,2" d="M57.39,-583.63C97.94,-519.54 225.84,-317.37 255.71,-270.15"/>
<polygon fill="#9a32cd" stroke="#9a32cd" points="54.46,-581.71 52.07,-592.04 60.37,-585.46 54.46,-581.71"/>
<text text-anchor="middle" x="143.5" y="-504.21" font-family="Helvetica,sans-Serif" font-size="10.00"> TexUvLines</text>
</g>
<!-- Node23 -->
<g id="node23" class="node">
<title>Node23</title>
<g id="a_node23"><a xlink:href="struct_im_vector.html" target="_top" xlink:title=" ">
<polygon fill="white" stroke="#bfbfbf" points="697,-658.71 590,-658.71 590,-639.71 697,-639.71 697,-658.71"/>
<text text-anchor="middle" x="643.5" y="-646.71" font-family="Helvetica,sans-Serif" font-size="10.00">ImVector&lt; ImVec4 &gt;</text>
</a>
</g>
</g>
<!-- Node4&#45;&gt;Node23 -->
<g id="edge37" class="edge">
<title>Node4&#45;&gt;Node23</title>
<path fill="none" stroke="#9a32cd" stroke-dasharray="5,2" d="M80.36,-613.07C88.71,-615.07 97.62,-616.95 106,-618.21 281.75,-644.67 493.02,-648.92 589.62,-649.36"/>
<polygon fill="#9a32cd" stroke="#9a32cd" points="81.45,-609.73 70.9,-610.68 79.73,-616.52 81.45,-609.73"/>
<text text-anchor="middle" x="263" y="-643.21" font-family="Helvetica,sans-Serif" font-size="10.00"> Data</text>
</g>
<!-- Node25 -->
<g id="node25" class="node">
<title>Node25</title>
<g id="a_node25"><a xlink:href="struct_im_draw_cmd_header.html" target="_top" xlink:title=" ">
<polygon fill="white" stroke="#bfbfbf" points="447,-612.71 345,-612.71 345,-593.71 447,-593.71 447,-612.71"/>
<text text-anchor="middle" x="396" y="-600.71" font-family="Helvetica,sans-Serif" font-size="10.00">ImDrawCmdHeader</text>
</a>
</g>
</g>
<!-- Node4&#45;&gt;Node25 -->
<g id="edge41" class="edge">
<title>Node4&#45;&gt;Node25</title>
<path fill="none" stroke="#9a32cd" stroke-dasharray="5,2" d="M80.56,-603.21C143.14,-603.21 273.12,-603.21 344.81,-603.21"/>
<polygon fill="#9a32cd" stroke="#9a32cd" points="80.85,-599.71 70.85,-603.21 80.85,-606.71 80.85,-599.71"/>
<text text-anchor="middle" x="143.5" y="-606.21" font-family="Helvetica,sans-Serif" font-size="10.00"> ClipRect</text>
</g>
<!-- Node5 -->
<g id="node5" class="node">
<title>Node5</title>
<g id="a_node5"><a xlink:href="struct_im_vector.html" target="_top" xlink:title=" ">
<polygon fill="white" stroke="#bfbfbf" points="837.5,-700.71 718.5,-700.71 718.5,-681.71 837.5,-681.71 837.5,-700.71"/>
<text text-anchor="middle" x="778" y="-688.71" font-family="Helvetica,sans-Serif" font-size="10.00">ImVector&lt; ImDrawIdx &gt;</text>
</a>
</g>
</g>
<!-- Node5&#45;&gt;Node1 -->
<g id="edge5" class="edge">
<title>Node5&#45;&gt;Node1</title>
<path fill="none" stroke="#9a32cd" stroke-dasharray="5,2" d="M824.49,-678.13C868.11,-665.51 928.07,-647.93 933,-645.21 968.26,-625.79 1001.89,-591.21 1017.26,-574.21"/>
<polygon fill="#9a32cd" stroke="#9a32cd" points="823.61,-674.74 814.97,-680.88 825.55,-681.47 823.61,-674.74"/>
<text text-anchor="middle" x="896" y="-669.21" font-family="Helvetica,sans-Serif" font-size="10.00"> IdxBuffer</text>
</g>
<!-- Node5&#45;&gt;Node28 -->
<g id="edge46" class="edge">
<title>Node5&#45;&gt;Node28</title>
<path fill="none" stroke="#9a32cd" stroke-dasharray="5,2" d="M849.1,-692.08C898.54,-692.62 966.32,-693.21 1026,-693.21 1026,-693.21 1026,-693.21 1394.5,-693.21 1461.37,-693.21 1535.82,-660.88 1569.98,-644.09"/>
<polygon fill="#9a32cd" stroke="#9a32cd" points="849.44,-688.58 839.4,-691.97 849.36,-695.58 849.44,-688.58"/>
<text text-anchor="middle" x="1235.5" y="-696.21" font-family="Helvetica,sans-Serif" font-size="10.00"> _IdxBuffer</text>
</g>
<!-- Node6 -->
<g id="node6" class="node">
<title>Node6</title>
<g id="a_node6"><a xlink:href="struct_im_vector.html" target="_top" xlink:title=" ">
<polygon fill="white" stroke="#bfbfbf" points="840.5,-490.71 715.5,-490.71 715.5,-471.71 840.5,-471.71 840.5,-490.71"/>
<text text-anchor="middle" x="778" y="-478.71" font-family="Helvetica,sans-Serif" font-size="10.00">ImVector&lt; ImDrawVert &gt;</text>
</a>
</g>
</g>
<!-- Node6&#45;&gt;Node1 -->
<g id="edge6" class="edge">
<title>Node6&#45;&gt;Node1</title>
<path fill="none" stroke="#9a32cd" stroke-dasharray="5,2" d="M852.23,-491.15C878.22,-495.93 907.38,-502.73 933,-512.21 962.49,-523.12 993.83,-542.47 1011.55,-554.24"/>
<polygon fill="#9a32cd" stroke="#9a32cd" points="852.86,-487.71 842.41,-489.42 851.65,-494.6 852.86,-487.71"/>
<text text-anchor="middle" x="896" y="-515.21" font-family="Helvetica,sans-Serif" font-size="10.00"> VtxBuffer</text>
</g>
<!-- Node7 -->
<g id="node7" class="node">
<title>Node7</title>
<g id="a_node7"><a xlink:href="struct_im_draw_vert.html" target="_top" xlink:title=" ">
<polygon fill="white" stroke="#bfbfbf" points="552.5,-414.71 484.5,-414.71 484.5,-395.71 552.5,-395.71 552.5,-414.71"/>
<text text-anchor="middle" x="518.5" y="-402.71" font-family="Helvetica,sans-Serif" font-size="10.00">ImDrawVert</text>
</a>
</g>
</g>
<!-- Node7&#45;&gt;Node1 -->
<g id="edge35" class="edge">
<title>Node7&#45;&gt;Node1</title>
<path fill="none" stroke="#9a32cd" stroke-dasharray="5,2" d="M564.12,-402.24C626.64,-399.06 743.59,-396.7 841,-415.21 883.68,-423.32 897.64,-422.98 933,-448.21 975.02,-478.19 1008.15,-532.13 1020.63,-554.29"/>
<polygon fill="#9a32cd" stroke="#9a32cd" points="564.04,-398.74 554.24,-402.78 564.42,-405.73 564.04,-398.74"/>
<text text-anchor="middle" x="778" y="-418.21" font-family="Helvetica,sans-Serif" font-size="10.00"> _VtxWritePtr</text>
</g>
<!-- Node7&#45;&gt;Node6 -->
<g id="edge7" class="edge">
<title>Node7&#45;&gt;Node6</title>
<path fill="none" stroke="#9a32cd" stroke-dasharray="5,2" d="M563.67,-413.4C614.34,-422.91 691.26,-437.75 697,-441.21 707.82,-447.73 704.46,-456.25 715,-463.21 719.86,-466.42 725.31,-469.07 730.9,-471.26"/>
<polygon fill="#9a32cd" stroke="#9a32cd" points="564.62,-410.02 554.15,-411.62 563.33,-416.9 564.62,-410.02"/>
<text text-anchor="middle" x="643.5" y="-444.21" font-family="Helvetica,sans-Serif" font-size="10.00"> Data</text>
</g>
<!-- Node8 -->
<g id="node8" class="node">
<title>Node8</title>
<g id="a_node8"><a xlink:href="struct_im_vec2.html" target="_top" xlink:title=" ">
<polygon fill="white" stroke="#bfbfbf" points="69,-387.71 19,-387.71 19,-368.71 69,-368.71 69,-387.71"/>
<text text-anchor="middle" x="44" y="-375.71" font-family="Helvetica,sans-Serif" font-size="10.00">ImVec2</text>
</a>
</g>
</g>
<!-- Node8&#45;&gt;Node7 -->
<g id="edge8" class="edge">
<title>Node8&#45;&gt;Node7</title>
<path fill="none" stroke="#9a32cd" stroke-dasharray="5,2" d="M80.7,-380.25C169.26,-385.31 398.06,-398.39 484.11,-403.3"/>
<polygon fill="#9a32cd" stroke="#9a32cd" points="81.1,-376.77 70.92,-379.69 80.7,-383.76 81.1,-376.77"/>
<text text-anchor="middle" x="263" y="-407.21" font-family="Helvetica,sans-Serif" font-size="10.00"> pos</text>
<text text-anchor="middle" x="263" y="-396.21" font-family="Helvetica,sans-Serif" font-size="10.00">uv</text>
</g>
<!-- Node8&#45;&gt;Node9 -->
<g id="edge10" class="edge">
<title>Node8&#45;&gt;Node9</title>
<path fill="none" stroke="#9a32cd" stroke-dasharray="5,2" d="M55.21,-397.8C65.49,-415.32 83.1,-440.06 106,-452.21 197.89,-500.96 468.49,-485.94 572,-496.21 627.58,-501.72 641.47,-503.2 697,-509.21 704.09,-509.98 711.52,-510.8 718.89,-511.62"/>
<polygon fill="#9a32cd" stroke="#9a32cd" points="58.42,-396.36 50.51,-389.32 52.3,-399.76 58.42,-396.36"/>
<text text-anchor="middle" x="396" y="-505.21" font-family="Helvetica,sans-Serif" font-size="10.00"> ArcFastVtx</text>
<text text-anchor="middle" x="396" y="-494.21" font-family="Helvetica,sans-Serif" font-size="10.00">TexUvWhitePixel</text>
</g>
<!-- Node8&#45;&gt;Node15 -->
<g id="edge18" class="edge">
<title>Node8&#45;&gt;Node15</title>
<path fill="none" stroke="#9a32cd" stroke-dasharray="5,2" d="M59.94,-359.39C71.35,-346.07 88.12,-328.62 106,-317.21 144.41,-292.71 194.83,-276.74 227.81,-268.1"/>
<polygon fill="#9a32cd" stroke="#9a32cd" points="57.28,-357.11 53.6,-367.05 62.68,-361.58 57.28,-357.11"/>
<text text-anchor="middle" x="143.5" y="-331.21" font-family="Helvetica,sans-Serif" font-size="10.00"> TexUvScale</text>
<text text-anchor="middle" x="143.5" y="-320.21" font-family="Helvetica,sans-Serif" font-size="10.00">TexUvWhitePixel</text>
</g>
<!-- Node18 -->
<g id="node18" class="node">
<title>Node18</title>
<g id="a_node18"><a xlink:href="struct_im_font_atlas_custom_rect.html" target="_top" xlink:title=" ">
<polygon fill="white" stroke="#bfbfbf" points="840,-321.71 716,-321.71 716,-302.71 840,-302.71 840,-321.71"/>
<text text-anchor="middle" x="778" y="-309.71" font-family="Helvetica,sans-Serif" font-size="10.00">ImFontAtlasCustomRect</text>
</a>
</g>
</g>
<!-- Node8&#45;&gt;Node18 -->
<g id="edge23" class="edge">
<title>Node8&#45;&gt;Node18</title>
<path fill="none" stroke="#9a32cd" stroke-dasharray="5,2" d="M80.75,-374.55C167.8,-365.67 397.79,-342.57 590,-326.21 632.01,-322.63 679.37,-319.09 715.92,-316.47"/>
<polygon fill="#9a32cd" stroke="#9a32cd" points="80.53,-371.05 70.93,-375.55 81.24,-378.01 80.53,-371.05"/>
<text text-anchor="middle" x="396" y="-351.21" font-family="Helvetica,sans-Serif" font-size="10.00"> GlyphOffset</text>
</g>
<!-- Node20 -->
<g id="node20" class="node">
<title>Node20</title>
<g id="a_node20"><a xlink:href="struct_im_font_config.html" target="_top" xlink:title=" ">
<polygon fill="white" stroke="#bfbfbf" points="815,-159.71 741,-159.71 741,-140.71 815,-140.71 815,-159.71"/>
<text text-anchor="middle" x="778" y="-147.71" font-family="Helvetica,sans-Serif" font-size="10.00">ImFontConfig</text>
</a>
</g>
</g>
<!-- Node8&#45;&gt;Node20 -->
<g id="edge27" class="edge">
<title>Node8&#45;&gt;Node20</title>
<path fill="none" stroke="#9a32cd" stroke-dasharray="5,2" d="M55.34,-358.05C65.11,-338.21 79.5,-306.83 88,-278.21 101.36,-233.24 88.36,-217.68 106,-174.21 133.54,-106.36 135.32,-74.36 199,-38.21 398.56,75.07 692.62,-96.47 761.96,-140.39"/>
<polygon fill="#9a32cd" stroke="#9a32cd" points="52.24,-356.42 50.88,-366.93 58.5,-359.56 52.24,-356.42"/>
<text text-anchor="middle" x="396" y="-23.21" font-family="Helvetica,sans-Serif" font-size="10.00"> GlyphExtraSpacing</text>
<text text-anchor="middle" x="396" y="-12.21" font-family="Helvetica,sans-Serif" font-size="10.00">GlyphOffset</text>
</g>
<!-- Node22 -->
<g id="node22" class="node">
<title>Node22</title>
<g id="a_node22"><a xlink:href="struct_im_vector.html" target="_top" xlink:title=" ">
<polygon fill="white" stroke="#bfbfbf" points="572,-523.71 465,-523.71 465,-504.71 572,-504.71 572,-523.71"/>
<text text-anchor="middle" x="518.5" y="-511.71" font-family="Helvetica,sans-Serif" font-size="10.00">ImVector&lt; ImVec2 &gt;</text>
</a>
</g>
</g>
<!-- Node8&#45;&gt;Node22 -->
<g id="edge34" class="edge">
<title>Node8&#45;&gt;Node22</title>
<path fill="none" stroke="#9a32cd" stroke-dasharray="5,2" d="M50.91,-398.63C59.05,-422.66 76.19,-461.64 106,-480.21 217.95,-549.95 381.56,-537 464.73,-524.2"/>
<polygon fill="#9a32cd" stroke="#9a32cd" points="54.33,-397.83 48,-389.34 47.65,-399.93 54.33,-397.83"/>
<text text-anchor="middle" x="263" y="-537.21" font-family="Helvetica,sans-Serif" font-size="10.00"> Data</text>
</g>
<!-- Node9&#45;&gt;Node1 -->
<g id="edge9" class="edge">
<title>Node9&#45;&gt;Node1</title>
<path fill="none" stroke="#9a32cd" stroke-dasharray="5,2" d="M848.55,-525.79C875.1,-529.18 905.57,-533.68 933,-539.21 953.16,-543.28 975.41,-549.21 993.1,-554.27"/>
<polygon fill="#9a32cd" stroke="#9a32cd" points="849.29,-522.36 838.93,-524.59 848.42,-529.3 849.29,-522.36"/>
<text text-anchor="middle" x="896" y="-542.21" font-family="Helvetica,sans-Serif" font-size="10.00"> _Data</text>
</g>
<!-- Node10 -->
<g id="node10" class="node">
<title>Node10</title>
<g id="a_node10"><a xlink:href="struct_im_font.html" target="_top" xlink:title=" ">
<polygon fill="white" stroke="#bfbfbf" points="542,-175.71 495,-175.71 495,-156.71 542,-156.71 542,-175.71"/>
<text text-anchor="middle" x="518.5" y="-163.71" font-family="Helvetica,sans-Serif" font-size="10.00">ImFont</text>
</a>
</g>
</g>
<!-- Node10&#45;&gt;Node9 -->
<g id="edge11" class="edge">
<title>Node10&#45;&gt;Node9</title>
<path fill="none" stroke="#9a32cd" stroke-dasharray="5,2" d="M552.51,-179.83C559.95,-184.34 567.08,-190.08 572,-197.21 598.87,-236.19 560.4,-265.25 590,-302.21 622.14,-342.35 665.94,-305.23 697,-346.21 738.62,-401.13 670.49,-447.61 715,-500.21 717.75,-503.46 721.05,-506.14 724.68,-508.36"/>
<polygon fill="#9a32cd" stroke="#9a32cd" points="554.18,-176.75 543.71,-175.14 550.89,-182.93 554.18,-176.75"/>
<text text-anchor="middle" x="643.5" y="-349.21" font-family="Helvetica,sans-Serif" font-size="10.00"> Font</text>
</g>
<!-- Node16 -->
<g id="node16" class="node">
<title>Node16</title>
<g id="a_node16"><a xlink:href="struct_im_vector.html" target="_top" xlink:title=" ">
<polygon fill="white" stroke="#bfbfbf" points="833,-211.71 723,-211.71 723,-192.71 833,-192.71 833,-211.71"/>
<text text-anchor="middle" x="778" y="-199.71" font-family="Helvetica,sans-Serif" font-size="10.00">ImVector&lt; ImFont * &gt;</text>
</a>
</g>
</g>
<!-- Node10&#45;&gt;Node16 -->
<g id="edge20" class="edge">
<title>Node10&#45;&gt;Node16</title>
<path fill="none" stroke="#9a32cd" stroke-dasharray="5,2" d="M553.64,-170.98C596.83,-177.02 671.69,-187.49 722.74,-194.62"/>
<polygon fill="#9a32cd" stroke="#9a32cd" points="554.24,-167.53 543.85,-169.61 553.27,-174.47 554.24,-167.53"/>
<text text-anchor="middle" x="643.5" y="-194.21" font-family="Helvetica,sans-Serif" font-size="10.00"> Data</text>
</g>
<!-- Node10&#45;&gt;Node18 -->
<g id="edge24" class="edge">
<title>Node10&#45;&gt;Node18</title>
<path fill="none" stroke="#9a32cd" stroke-dasharray="5,2" d="M552.44,-180.39C559.75,-184.85 566.85,-190.43 572,-197.21 590.66,-221.76 567.65,-242.97 590,-264.21 625.26,-297.72 649.96,-274.83 697,-287.21 713.89,-291.65 732.52,-297.42 747.55,-302.3"/>
<polygon fill="#9a32cd" stroke="#9a32cd" points="554.28,-177.41 543.83,-175.71 550.94,-183.56 554.28,-177.41"/>
<text text-anchor="middle" x="643.5" y="-290.21" font-family="Helvetica,sans-Serif" font-size="10.00"> Font</text>
</g>
<!-- Node10&#45;&gt;Node20 -->
<g id="edge28" class="edge">
<title>Node10&#45;&gt;Node20</title>
<path fill="none" stroke="#9a32cd" stroke-dasharray="5,2" d="M541.35,-149.88C554.66,-140.98 572.43,-130.85 590,-126.21 635.98,-114.07 649.95,-119.3 697,-126.21 715.36,-128.91 735.36,-134.91 750.77,-140.23"/>
<polygon fill="#9a32cd" stroke="#9a32cd" points="539.54,-146.87 533.36,-155.48 543.56,-152.61 539.54,-146.87"/>
<text text-anchor="middle" x="643.5" y="-129.21" font-family="Helvetica,sans-Serif" font-size="10.00"> DstFont</text>
</g>
<!-- Node11 -->
<g id="node11" class="node">
<title>Node11</title>
<g id="a_node11"><a xlink:href="struct_im_vector.html" target="_top" xlink:title=" ">
<polygon fill="white" stroke="#bfbfbf" points="308.5,-103.71 217.5,-103.71 217.5,-84.71 308.5,-84.71 308.5,-103.71"/>
<text text-anchor="middle" x="263" y="-91.71" font-family="Helvetica,sans-Serif" font-size="10.00">ImVector&lt; float &gt;</text>
</a>
</g>
</g>
<!-- Node11&#45;&gt;Node10 -->
<g id="edge12" class="edge">
<title>Node11&#45;&gt;Node10</title>
<path fill="none" stroke="#9a32cd" stroke-dasharray="5,2" d="M319.89,-93.34C357.06,-94.5 406.34,-99.43 447,-115.21 471.22,-124.61 494.72,-144.4 507.53,-156.38"/>
<polygon fill="#9a32cd" stroke="#9a32cd" points="320.35,-89.85 310.28,-93.13 320.2,-96.85 320.35,-89.85"/>
<text text-anchor="middle" x="396" y="-118.21" font-family="Helvetica,sans-Serif" font-size="10.00"> IndexAdvanceX</text>
</g>
<!-- Node12 -->
<g id="node12" class="node">
<title>Node12</title>
<g id="a_node12"><a xlink:href="struct_im_vector.html" target="_top" xlink:title=" ">
<polygon fill="white" stroke="#bfbfbf" points="319,-66.71 207,-66.71 207,-47.71 319,-47.71 319,-66.71"/>
<text text-anchor="middle" x="263" y="-54.71" font-family="Helvetica,sans-Serif" font-size="10.00">ImVector&lt; ImWchar &gt;</text>
</a>
</g>
</g>
<!-- Node12&#45;&gt;Node10 -->
<g id="edge13" class="edge">
<title>Node12&#45;&gt;Node10</title>
<path fill="none" stroke="#9a32cd" stroke-dasharray="5,2" d="M330.82,-53.9C367.21,-54.88 411.84,-60.79 447,-80.21 479.62,-98.22 503.12,-137.96 512.72,-156.42"/>
<polygon fill="#9a32cd" stroke="#9a32cd" points="330.88,-50.4 320.83,-53.77 330.78,-57.4 330.88,-50.4"/>
<text text-anchor="middle" x="396" y="-83.21" font-family="Helvetica,sans-Serif" font-size="10.00"> IndexLookup</text>
</g>
<!-- Node13 -->
<g id="node13" class="node">
<title>Node13</title>
<g id="a_node13"><a xlink:href="struct_im_vector.html" target="_top" xlink:title=" ">
<polygon fill="white" stroke="#bfbfbf" points="327,-197.71 199,-197.71 199,-178.71 327,-178.71 327,-197.71"/>
<text text-anchor="middle" x="263" y="-185.71" font-family="Helvetica,sans-Serif" font-size="10.00">ImVector&lt; ImFontGlyph &gt;</text>
</a>
</g>
</g>
<!-- Node13&#45;&gt;Node10 -->
<g id="edge14" class="edge">
<title>Node13&#45;&gt;Node10</title>
<path fill="none" stroke="#9a32cd" stroke-dasharray="5,2" d="M327.47,-176.47C333.38,-175.61 339.29,-174.83 345,-174.21 398.35,-168.39 461.43,-166.8 494.55,-166.37"/>
<polygon fill="#9a32cd" stroke="#9a32cd" points="327,-173 317.65,-177.98 328.06,-179.92 327,-173"/>
<text text-anchor="middle" x="396" y="-177.21" font-family="Helvetica,sans-Serif" font-size="10.00"> Glyphs</text>
</g>
<!-- Node14 -->
<g id="node14" class="node">
<title>Node14</title>
<g id="a_node14"><a xlink:href="struct_im_font_glyph.html" target="_top" xlink:title=" ">
<polygon fill="white" stroke="#bfbfbf" points="80,-173.71 8,-173.71 8,-154.71 80,-154.71 80,-173.71"/>
<text text-anchor="middle" x="44" y="-161.71" font-family="Helvetica,sans-Serif" font-size="10.00">ImFontGlyph</text>
</a>
</g>
</g>
<!-- Node14&#45;&gt;Node10 -->
<g id="edge16" class="edge">
<title>Node14&#45;&gt;Node10</title>
<path fill="none" stroke="#9a32cd" stroke-dasharray="5,2" d="M91.63,-161.92C122.17,-160.54 162.94,-158.91 199,-158.21 255.88,-157.1 270.12,-157.02 327,-158.21 387.56,-159.48 458.89,-163.02 494.64,-164.94"/>
<polygon fill="#9a32cd" stroke="#9a32cd" points="91.8,-158.41 81.98,-162.37 92.13,-165.4 91.8,-158.41"/>
<text text-anchor="middle" x="263" y="-161.21" font-family="Helvetica,sans-Serif" font-size="10.00"> FallbackGlyph</text>
</g>
<!-- Node14&#45;&gt;Node13 -->
<g id="edge15" class="edge">
<title>Node14&#45;&gt;Node13</title>
<path fill="none" stroke="#9a32cd" stroke-dasharray="5,2" d="M91.78,-169.38C123,-172.84 164.44,-177.42 198.62,-181.2"/>
<polygon fill="#9a32cd" stroke="#9a32cd" points="92.18,-165.91 81.85,-168.29 91.41,-172.86 92.18,-165.91"/>
<text text-anchor="middle" x="143.5" y="-182.21" font-family="Helvetica,sans-Serif" font-size="10.00"> Data</text>
</g>
<!-- Node15&#45;&gt;Node10 -->
<g id="edge17" class="edge">
<title>Node15&#45;&gt;Node10</title>
<path fill="none" stroke="#9a32cd" stroke-dasharray="5,2" d="M285.27,-243.61C300.97,-232.11 323.3,-217.29 345,-208.21 387.87,-190.27 401.89,-196.37 447,-185.21 463,-181.25 480.93,-176.42 494.7,-172.61"/>
<polygon fill="#9a32cd" stroke="#9a32cd" points="283.51,-240.55 277.62,-249.35 287.72,-246.14 283.51,-240.55"/>
<text text-anchor="middle" x="396" y="-211.21" font-family="Helvetica,sans-Serif" font-size="10.00"> ContainerAtlas</text>
</g>
<!-- Node16&#45;&gt;Node15 -->
<g id="edge19" class="edge">
<title>Node16&#45;&gt;Node15</title>
<path fill="none" stroke="#9a32cd" stroke-dasharray="5,2" d="M711.38,-207.65C626.58,-215.01 474.43,-229.28 345,-247.21 329.62,-249.34 312.66,-252.01 298.24,-254.38"/>
<polygon fill="#9a32cd" stroke="#9a32cd" points="711.47,-211.16 721.13,-206.81 710.87,-204.18 711.47,-211.16"/>
<text text-anchor="middle" x="518.5" y="-235.21" font-family="Helvetica,sans-Serif" font-size="10.00"> Fonts</text>
</g>
<!-- Node17 -->
<g id="node17" class="node">
<title>Node17</title>
<g id="a_node17"><a xlink:href="struct_im_vector.html" target="_top" xlink:title=" ">
<polygon fill="white" stroke="#bfbfbf" points="1103,-356.21 951,-356.21 951,-326.21 1103,-326.21 1103,-356.21"/>
<text text-anchor="start" x="959" y="-344.21" font-family="Helvetica,sans-Serif" font-size="10.00">ImVector&lt; ImFontAtlasCustom</text>
<text text-anchor="middle" x="1027" y="-333.21" font-family="Helvetica,sans-Serif" font-size="10.00">Rect &gt;</text>
</a>
</g>
</g>
<!-- Node17&#45;&gt;Node15 -->
<g id="edge21" class="edge">
<title>Node17&#45;&gt;Node15</title>
<path fill="none" stroke="#9a32cd" stroke-dasharray="5,2" d="M939.41,-353.55C851.08,-364 710.28,-374.72 590,-357.21 474.01,-340.32 341.89,-291.3 288.4,-270.14"/>
<polygon fill="#9a32cd" stroke="#9a32cd" points="939.71,-357.04 949.22,-352.36 938.87,-350.09 939.71,-357.04"/>
<text text-anchor="middle" x="643.5" y="-369.21" font-family="Helvetica,sans-Serif" font-size="10.00"> CustomRects</text>
</g>
<!-- Node18&#45;&gt;Node17 -->
<g id="edge22" class="edge">
<title>Node18&#45;&gt;Node17</title>
<path fill="none" stroke="#9a32cd" stroke-dasharray="5,2" d="M851.62,-320.74C882.84,-324.4 919.32,-328.69 950.82,-332.38"/>
<polygon fill="#9a32cd" stroke="#9a32cd" points="852.22,-317.28 841.88,-319.59 851.4,-324.23 852.22,-317.28"/>
<text text-anchor="middle" x="896" y="-333.21" font-family="Helvetica,sans-Serif" font-size="10.00"> Data</text>
</g>
<!-- Node19 -->
<g id="node19" class="node">
<title>Node19</title>
<g id="a_node19"><a xlink:href="struct_im_vector.html" target="_top" xlink:title=" ">
<polygon fill="white" stroke="#bfbfbf" points="1092.5,-231.71 961.5,-231.71 961.5,-212.71 1092.5,-212.71 1092.5,-231.71"/>
<text text-anchor="middle" x="1027" y="-219.71" font-family="Helvetica,sans-Serif" font-size="10.00">ImVector&lt; ImFontConfig &gt;</text>
</a>
</g>
</g>
<!-- Node19&#45;&gt;Node15 -->
<g id="edge25" class="edge">
<title>Node19&#45;&gt;Node15</title>
<path fill="none" stroke="#9a32cd" stroke-dasharray="5,2" d="M949.71,-226.01C787.38,-234.11 413.18,-252.77 298.22,-258.5"/>
<polygon fill="#9a32cd" stroke="#9a32cd" points="949.7,-229.52 959.52,-225.53 949.35,-222.53 949.7,-229.52"/>
<text text-anchor="middle" x="643.5" y="-247.21" font-family="Helvetica,sans-Serif" font-size="10.00"> ConfigData</text>
</g>
<!-- Node20&#45;&gt;Node10 -->
<g id="edge31" class="edge">
<title>Node20&#45;&gt;Node10</title>
<path fill="none" stroke="#9a32cd" stroke-dasharray="5,2" d="M729.6,-152.33C691.78,-154.12 637.47,-156.92 590,-160.21 574.07,-161.31 556.14,-162.84 542.35,-164.08"/>
<polygon fill="#9a32cd" stroke="#9a32cd" points="729.44,-155.84 739.27,-151.88 729.12,-148.85 729.44,-155.84"/>
<text text-anchor="middle" x="643.5" y="-163.21" font-family="Helvetica,sans-Serif" font-size="10.00"> ConfigData</text>
</g>
<!-- Node20&#45;&gt;Node19 -->
<g id="edge26" class="edge">
<title>Node20&#45;&gt;Node19</title>
<path fill="none" stroke="#9a32cd" stroke-dasharray="5,2" d="M823.86,-163.29C872.22,-177.38 948.14,-199.51 991.87,-212.26"/>
<polygon fill="#9a32cd" stroke="#9a32cd" points="825.12,-160.01 814.54,-160.57 823.16,-166.73 825.12,-160.01"/>
<text text-anchor="middle" x="896" y="-198.21" font-family="Helvetica,sans-Serif" font-size="10.00"> Data</text>
</g>
<!-- Node21 -->
<g id="node21" class="node">
<title>Node21</title>
<g id="a_node21"><a xlink:href="struct_im_font_builder_i_o.html" target="_top" xlink:title=" ">
<polygon fill="white" stroke="#bfbfbf" points="88,-269.71 0,-269.71 0,-250.71 88,-250.71 88,-269.71"/>
<text text-anchor="middle" x="44" y="-257.71" font-family="Helvetica,sans-Serif" font-size="10.00">ImFontBuilderIO</text>
</a>
</g>
</g>
<!-- Node21&#45;&gt;Node15 -->
<g id="edge30" class="edge">
<title>Node21&#45;&gt;Node15</title>
<path fill="none" stroke="#9a32cd" stroke-dasharray="5,2" d="M99.87,-260.21C140.03,-260.21 193.28,-260.21 227.6,-260.21"/>
<polygon fill="#9a32cd" stroke="#9a32cd" points="99.91,-256.71 89.91,-260.21 99.91,-263.71 99.91,-256.71"/>
<text text-anchor="middle" x="143.5" y="-263.21" font-family="Helvetica,sans-Serif" font-size="10.00"> FontBuilderIO</text>
</g>
<!-- Node22&#45;&gt;Node1 -->
<g id="edge39" class="edge">
<title>Node22&#45;&gt;Node1</title>
<path fill="none" stroke="#9a32cd" stroke-dasharray="5,2" d="M583.4,-525.32C585.62,-525.63 587.83,-525.93 590,-526.21 739.95,-545.63 920.23,-557.82 993.08,-562.29"/>
<polygon fill="#9a32cd" stroke="#9a32cd" points="584.08,-521.88 573.67,-523.87 583.05,-528.8 584.08,-521.88"/>
<text text-anchor="middle" x="778" y="-554.21" font-family="Helvetica,sans-Serif" font-size="10.00"> _Path</text>
</g>
<!-- Node22&#45;&gt;Node9 -->
<g id="edge33" class="edge">
<title>Node22&#45;&gt;Node9</title>
<path fill="none" stroke="#9a32cd" stroke-dasharray="5,2" d="M583.43,-514.08C617.21,-514.13 659.35,-514.4 697,-515.21 704.09,-515.36 711.52,-515.57 718.89,-515.81"/>
<polygon fill="#9a32cd" stroke="#9a32cd" points="583.84,-510.58 573.83,-514.07 583.83,-517.58 583.84,-510.58"/>
<text text-anchor="middle" x="643.5" y="-518.21" font-family="Helvetica,sans-Serif" font-size="10.00"> TempBuffer</text>
</g>
<!-- Node23&#45;&gt;Node1 -->
<g id="edge36" class="edge">
<title>Node23&#45;&gt;Node1</title>
<path fill="none" stroke="#9a32cd" stroke-dasharray="5,2" d="M708.92,-649.48C768.44,-648 858.64,-641.38 933,-617.21 963.58,-607.27 995.3,-586.56 1012.65,-574.18"/>
<polygon fill="#9a32cd" stroke="#9a32cd" points="708.88,-645.98 698.95,-649.67 709.02,-652.97 708.88,-645.98"/>
<text text-anchor="middle" x="778" y="-652.21" font-family="Helvetica,sans-Serif" font-size="10.00"> _ClipRectStack</text>
</g>
<!-- Node24 -->
<g id="node24" class="node">
<title>Node24</title>
<g id="a_node24"><a xlink:href="struct_im_vector.html" target="_top" xlink:title=" ">
<polygon fill="white" stroke="#bfbfbf" points="841,-453.71 715,-453.71 715,-434.71 841,-434.71 841,-453.71"/>
<text text-anchor="middle" x="778" y="-441.71" font-family="Helvetica,sans-Serif" font-size="10.00">ImVector&lt; ImTextureID &gt;</text>
</a>
</g>
</g>
<!-- Node24&#45;&gt;Node1 -->
<g id="edge38" class="edge">
<title>Node24&#45;&gt;Node1</title>
<path fill="none" stroke="#9a32cd" stroke-dasharray="5,2" d="M852.35,-451.65C878.85,-456.44 908.3,-464.3 933,-477.21 970.62,-496.87 1004.12,-535.98 1018.52,-554.3"/>
<polygon fill="#9a32cd" stroke="#9a32cd" points="853.13,-448.23 842.69,-450.03 851.98,-455.14 853.13,-448.23"/>
<text text-anchor="middle" x="896" y="-480.21" font-family="Helvetica,sans-Serif" font-size="10.00"> _TextureIdStack</text>
</g>
<!-- Node25&#45;&gt;Node1 -->
<g id="edge40" class="edge">
<title>Node25&#45;&gt;Node1</title>
<path fill="none" stroke="#9a32cd" stroke-dasharray="5,2" d="M458.81,-599.38C590.05,-591.24 892.7,-572.48 993.02,-566.25"/>
<polygon fill="#9a32cd" stroke="#9a32cd" points="458.69,-595.88 448.92,-599.99 459.12,-602.87 458.69,-595.88"/>
<text text-anchor="middle" x="643.5" y="-593.21" font-family="Helvetica,sans-Serif" font-size="10.00"> _CmdHeader</text>
</g>
<!-- Node26 -->
<g id="node26" class="node">
<title>Node26</title>
<g id="a_node26"><a xlink:href="struct_im_draw_list_splitter.html" target="_top" xlink:title=" ">
<polygon fill="white" stroke="#bfbfbf" points="2017,-587.71 1919,-587.71 1919,-568.71 2017,-568.71 2017,-587.71"/>
<text text-anchor="middle" x="1968" y="-575.71" font-family="Helvetica,sans-Serif" font-size="10.00">ImDrawListSplitter</text>
</a>
</g>
</g>
<!-- Node26&#45;&gt;Node1 -->
<g id="edge42" class="edge">
<title>Node26&#45;&gt;Node1</title>
<path fill="none" stroke="#9a32cd" stroke-dasharray="5,2" d="M1907.42,-571.04C1867.02,-566.78 1812.37,-562.21 1764,-562.21 1234.5,-562.21 1234.5,-562.21 1234.5,-562.21 1173.19,-562.21 1101.65,-563.1 1060.9,-563.7"/>
<polygon fill="#9a32cd" stroke="#9a32cd" points="1906.86,-574.5 1917.18,-572.09 1907.61,-567.54 1906.86,-574.5"/>
<text text-anchor="middle" x="1502" y="-565.21" font-family="Helvetica,sans-Serif" font-size="10.00"> _Splitter</text>
</g>
<!-- Node27 -->
<g id="node27" class="node">
<title>Node27</title>
<g id="a_node27"><a xlink:href="struct_im_vector.html" target="_top" xlink:title=" ">
<polygon fill="white" stroke="#bfbfbf" points="1834,-632.71 1692,-632.71 1692,-613.71 1834,-613.71 1834,-632.71"/>
<text text-anchor="middle" x="1763" y="-620.71" font-family="Helvetica,sans-Serif" font-size="10.00">ImVector&lt; ImDrawChannel &gt;</text>
</a>
</g>
</g>
<!-- Node27&#45;&gt;Node26 -->
<g id="edge43" class="edge">
<title>Node27&#45;&gt;Node26</title>
<path fill="none" stroke="#9a32cd" stroke-dasharray="5,2" d="M1820.07,-610.78C1852.21,-603.66 1892.01,-594.83 1922.07,-588.17"/>
<polygon fill="#9a32cd" stroke="#9a32cd" points="1819.54,-607.31 1810.53,-612.9 1821.05,-614.15 1819.54,-607.31"/>
<text text-anchor="middle" x="1876.5" y="-606.21" font-family="Helvetica,sans-Serif" font-size="10.00"> _Channels</text>
</g>
<!-- Node28&#45;&gt;Node27 -->
<g id="edge44" class="edge">
<title>Node28&#45;&gt;Node27</title>
<path fill="none" stroke="#9a32cd" stroke-dasharray="5,2" d="M1644.37,-630.78C1659.33,-629.81 1675.82,-628.75 1691.6,-627.74"/>
<polygon fill="#9a32cd" stroke="#9a32cd" points="1644.53,-627.26 1634.78,-631.39 1644.98,-634.24 1644.53,-627.26"/>
<text text-anchor="middle" x="1662.5" y="-633.21" font-family="Helvetica,sans-Serif" font-size="10.00"> Data</text>
</g>
</g>
</svg>
