<?xml version="1.0" encoding="UTF-8" standalone="no"?>
<!DOCTYPE svg PUBLIC "-//W3C//DTD SVG 1.1//EN"
 "http://www.w3.org/Graphics/SVG/1.1/DTD/svg11.dtd">
<!-- Generated by graphviz version 7.0.5 (20221223.1930)
 -->
<!-- Title: ImGuiComboPreviewData Pages: 1 -->
<svg width="209pt" height="184pt"
 viewBox="0.00 0.00 208.50 184.00" xmlns="http://www.w3.org/2000/svg" xmlns:xlink="http://www.w3.org/1999/xlink">
<g id="graph0" class="graph" transform="scale(1 1) rotate(0) translate(4 180)">
<title>ImGuiComboPreviewData</title>
<!-- Node1 -->
<g id="node1" class="node">
<title>Node1</title>
<g id="a_node1"><a xlink:title=" ">
<polygon fill="#999999" stroke="#666666" points="129,-19 0,-19 0,0 129,0 129,-19"/>
<text text-anchor="middle" x="64.5" y="-7" font-family="Helvetica,sans-Serif" font-size="10.00">ImGuiComboPreviewData</text>
</a>
</g>
</g>
<!-- Node2 -->
<g id="node2" class="node">
<title>Node2</title>
<g id="a_node2"><a xlink:href="struct_im_rect.html" target="_top" xlink:title=" ">
<polygon fill="white" stroke="#bfbfbf" points="200.5,-92 152.5,-92 152.5,-73 200.5,-73 200.5,-92"/>
<text text-anchor="middle" x="176.5" y="-80" font-family="Helvetica,sans-Serif" font-size="10.00">ImRect</text>
</a>
</g>
</g>
<!-- Node2&#45;&gt;Node1 -->
<g id="edge1" class="edge">
<title>Node2&#45;&gt;Node1</title>
<path fill="none" stroke="#9a32cd" stroke-dasharray="5,2" d="M152.81,-66.48C130.29,-52.21 97.19,-31.22 78.57,-19.42"/>
<polygon fill="#9a32cd" stroke="#9a32cd" points="150.72,-69.3 161.04,-71.7 154.46,-63.39 150.72,-69.3"/>
<text text-anchor="middle" x="149.5" y="-40" font-family="Helvetica,sans-Serif" font-size="10.00"> PreviewRect</text>
</g>
<!-- Node3 -->
<g id="node3" class="node">
<title>Node3</title>
<g id="a_node3"><a xlink:href="struct_im_vec2.html" target="_top" xlink:title=" ">
<polygon fill="white" stroke="#bfbfbf" points="57.5,-176 7.5,-176 7.5,-157 57.5,-157 57.5,-176"/>
<text text-anchor="middle" x="32.5" y="-164" font-family="Helvetica,sans-Serif" font-size="10.00">ImVec2</text>
</a>
</g>
</g>
<!-- Node3&#45;&gt;Node1 -->
<g id="edge3" class="edge">
<title>Node3&#45;&gt;Node1</title>
<path fill="none" stroke="#9a32cd" stroke-dasharray="5,2" d="M26.89,-145.73C22.06,-125.28 17.07,-92.66 25.5,-66 31.39,-47.36 46.04,-29.56 55.61,-19.34"/>
<polygon fill="#9a32cd" stroke="#9a32cd" points="23.47,-146.47 29.38,-155.26 30.24,-144.7 23.47,-146.47"/>
<text text-anchor="middle" x="84.5" y="-91" font-family="Helvetica,sans-Serif" font-size="10.00"> BackupCursorMaxPos</text>
<text text-anchor="middle" x="84.5" y="-80" font-family="Helvetica,sans-Serif" font-size="10.00">BackupCursorPos</text>
<text text-anchor="middle" x="84.5" y="-69" font-family="Helvetica,sans-Serif" font-size="10.00">BackupCursorPosPrevLine</text>
</g>
<!-- Node3&#45;&gt;Node2 -->
<g id="edge2" class="edge">
<title>Node3&#45;&gt;Node2</title>
<path fill="none" stroke="#9a32cd" stroke-dasharray="5,2" d="M57.87,-151.06C87.63,-134.1 136.07,-106.52 160.83,-92.42"/>
<polygon fill="#9a32cd" stroke="#9a32cd" points="56.46,-147.83 49.5,-155.82 59.92,-153.91 56.46,-147.83"/>
<text text-anchor="middle" x="127" y="-131" font-family="Helvetica,sans-Serif" font-size="10.00"> Max</text>
<text text-anchor="middle" x="127" y="-120" font-family="Helvetica,sans-Serif" font-size="10.00">Min</text>
</g>
</g>
</svg>
