<?xml version="1.0" encoding="UTF-8" standalone="no"?>
<!DOCTYPE svg PUBLIC "-//W3C//DTD SVG 1.1//EN"
 "http://www.w3.org/Graphics/SVG/1.1/DTD/svg11.dtd">
<!-- Generated by graphviz version 7.0.5 (20221223.1930)
 -->
<!-- Title: ImGuiListClipperData Pages: 1 -->
<svg width="252pt" height="170pt"
 viewBox="0.00 0.00 252.00 170.00" xmlns="http://www.w3.org/2000/svg" xmlns:xlink="http://www.w3.org/1999/xlink">
<g id="graph0" class="graph" transform="scale(1 1) rotate(0) translate(4 166)">
<title>ImGuiListClipperData</title>
<!-- Node1 -->
<g id="node1" class="node">
<title>Node1</title>
<g id="a_node1"><a xlink:title=" ">
<polygon fill="#999999" stroke="#666666" points="149.5,-19 39.5,-19 39.5,0 149.5,0 149.5,-19"/>
<text text-anchor="middle" x="94.5" y="-7" font-family="Helvetica,sans-Serif" font-size="10.00">ImGuiListClipperData</text>
</a>
</g>
</g>
<!-- Node2 -->
<g id="node2" class="node">
<title>Node2</title>
<g id="a_node2"><a xlink:href="struct_im_gui_list_clipper.html" target="_top" xlink:title=" ">
<polygon fill="white" stroke="#bfbfbf" points="89,-90.5 0,-90.5 0,-71.5 89,-71.5 89,-90.5"/>
<text text-anchor="middle" x="44.5" y="-78.5" font-family="Helvetica,sans-Serif" font-size="10.00">ImGuiListClipper</text>
</a>
</g>
</g>
<!-- Node2&#45;&gt;Node1 -->
<g id="edge1" class="edge">
<title>Node2&#45;&gt;Node1</title>
<path fill="none" stroke="#9a32cd" stroke-dasharray="5,2" d="M57.11,-61.61C62.41,-53.96 68.69,-45 74.5,-37 78.83,-31.03 83.83,-24.4 87.75,-19.27"/>
<polygon fill="#9a32cd" stroke="#9a32cd" points="54.26,-59.57 51.47,-69.79 60.02,-63.54 54.26,-59.57"/>
<text text-anchor="middle" x="99" y="-40" font-family="Helvetica,sans-Serif" font-size="10.00"> ListClipper</text>
</g>
<!-- Node3 -->
<g id="node3" class="node">
<title>Node3</title>
<g id="a_node3"><a xlink:href="struct_im_vector.html" target="_top" xlink:title=" ">
<polygon fill="white" stroke="#bfbfbf" points="244,-96 107,-96 107,-66 244,-66 244,-96"/>
<text text-anchor="start" x="115" y="-84" font-family="Helvetica,sans-Serif" font-size="10.00">ImVector&lt; ImGuiListClipper</text>
<text text-anchor="middle" x="175.5" y="-73" font-family="Helvetica,sans-Serif" font-size="10.00">Range &gt;</text>
</a>
</g>
</g>
<!-- Node3&#45;&gt;Node1 -->
<g id="edge2" class="edge">
<title>Node3&#45;&gt;Node1</title>
<path fill="none" stroke="#9a32cd" stroke-dasharray="5,2" d="M150.13,-58.23C134.74,-45.03 115.95,-28.9 104.62,-19.18"/>
<polygon fill="#9a32cd" stroke="#9a32cd" points="147.7,-60.76 157.57,-64.61 152.26,-55.45 147.7,-60.76"/>
<text text-anchor="middle" x="154.5" y="-40" font-family="Helvetica,sans-Serif" font-size="10.00"> Ranges</text>
</g>
<!-- Node4 -->
<g id="node4" class="node">
<title>Node4</title>
<g id="a_node4"><a xlink:href="struct_im_gui_list_clipper_range.html" target="_top" xlink:title=" ">
<polygon fill="white" stroke="#bfbfbf" points="234,-162 117,-162 117,-143 234,-143 234,-162"/>
<text text-anchor="middle" x="175.5" y="-150" font-family="Helvetica,sans-Serif" font-size="10.00">ImGuiListClipperRange</text>
</a>
</g>
</g>
<!-- Node4&#45;&gt;Node3 -->
<g id="edge3" class="edge">
<title>Node4&#45;&gt;Node3</title>
<path fill="none" stroke="#9a32cd" stroke-dasharray="5,2" d="M175.5,-131.39C175.5,-120.15 175.5,-106.41 175.5,-96.27"/>
<polygon fill="#9a32cd" stroke="#9a32cd" points="172,-131.18 175.5,-141.18 179,-131.18 172,-131.18"/>
<text text-anchor="middle" x="187" y="-117" font-family="Helvetica,sans-Serif" font-size="10.00"> Data</text>
</g>
</g>
</svg>
