<?xml version="1.0" encoding="UTF-8" standalone="no"?>
<!DOCTYPE svg PUBLIC "-//W3C//DTD SVG 1.1//EN"
 "http://www.w3.org/Graphics/SVG/1.1/DTD/svg11.dtd">
<!-- Generated by graphviz version 7.0.5 (20221223.1930)
 -->
<!-- Title: uranus::ecs::component::Sprite Pages: 1 -->
<svg width="262pt" height="237pt"
 viewBox="0.00 0.00 262.00 237.00" xmlns="http://www.w3.org/2000/svg" xmlns:xlink="http://www.w3.org/1999/xlink">
<g id="graph0" class="graph" transform="scale(1 1) rotate(0) translate(4 233)">
<title>uranus::ecs::component::Sprite</title>
<!-- Node1 -->
<g id="node1" class="node">
<title>Node1</title>
<g id="a_node1"><a xlink:title=" ">
<polygon fill="#999999" stroke="#666666" points="161,-30 42,-30 42,0 161,0 161,-30"/>
<text text-anchor="start" x="50" y="-18" font-family="Helvetica,sans-Serif" font-size="10.00">uranus::ecs::component</text>
<text text-anchor="middle" x="101.5" y="-7" font-family="Helvetica,sans-Serif" font-size="10.00">::Sprite</text>
</a>
</g>
</g>
<!-- Node2 -->
<g id="node2" class="node">
<title>Node2</title>
<g id="a_node2"><a xlink:href="structuranus_1_1ecs_1_1component_1_1_drawable.html" target="_top" xlink:title=" ">
<polygon fill="white" stroke="#bfbfbf" points="119,-107 0,-107 0,-77 119,-77 119,-107"/>
<text text-anchor="start" x="8" y="-95" font-family="Helvetica,sans-Serif" font-size="10.00">uranus::ecs::component</text>
<text text-anchor="middle" x="59.5" y="-84" font-family="Helvetica,sans-Serif" font-size="10.00">::Drawable</text>
</a>
</g>
</g>
<!-- Node2&#45;&gt;Node1 -->
<g id="edge1" class="edge">
<title>Node2&#45;&gt;Node1</title>
<path fill="none" stroke="#63b8ff" d="M73.11,-66.69C79.82,-54.71 87.68,-40.68 93.43,-30.42"/>
<polygon fill="#63b8ff" stroke="#63b8ff" points="70.17,-64.78 68.34,-75.22 76.28,-68.2 70.17,-64.78"/>
</g>
<!-- Node3 -->
<g id="node3" class="node">
<title>Node3</title>
<g id="a_node3"><a xlink:title=" ">
<polygon fill="white" stroke="#666666" points="254,-107 137,-107 137,-77 254,-77 254,-107"/>
<text text-anchor="start" x="145" y="-95" font-family="Helvetica,sans-Serif" font-size="10.00">std::shared_ptr&lt; engine</text>
<text text-anchor="middle" x="195.5" y="-84" font-family="Helvetica,sans-Serif" font-size="10.00">::Sprite &gt;</text>
</a>
</g>
</g>
<!-- Node3&#45;&gt;Node1 -->
<g id="edge2" class="edge">
<title>Node3&#45;&gt;Node1</title>
<path fill="none" stroke="#9a32cd" stroke-dasharray="5,2" d="M168.62,-69.55C152.89,-57.01 133.47,-41.51 119.57,-30.42"/>
<polygon fill="#9a32cd" stroke="#9a32cd" points="166.19,-72.09 176.19,-75.6 170.56,-66.62 166.19,-72.09"/>
<text text-anchor="middle" x="167" y="-51" font-family="Helvetica,sans-Serif" font-size="10.00"> sprite</text>
</g>
<!-- Node4 -->
<g id="node4" class="node">
<title>Node4</title>
<g id="a_node4"><a xlink:href="classengine_1_1_sprite.html" target="_top" xlink:title=" ">
<polygon fill="white" stroke="#bfbfbf" points="233,-173 158,-173 158,-154 233,-154 233,-173"/>
<text text-anchor="middle" x="195.5" y="-161" font-family="Helvetica,sans-Serif" font-size="10.00">engine::Sprite</text>
</a>
</g>
</g>
<!-- Node4&#45;&gt;Node3 -->
<g id="edge3" class="edge">
<title>Node4&#45;&gt;Node3</title>
<path fill="none" stroke="#9a32cd" stroke-dasharray="5,2" d="M195.5,-142.39C195.5,-131.15 195.5,-117.41 195.5,-107.27"/>
<polygon fill="#9a32cd" stroke="#9a32cd" points="192,-142.18 195.5,-152.18 199,-142.18 192,-142.18"/>
<text text-anchor="middle" x="202.5" y="-128" font-family="Helvetica,sans-Serif" font-size="10.00"> ptr</text>
</g>
<!-- Node5 -->
<g id="node5" class="node">
<title>Node5</title>
<g id="a_node5"><a xlink:title=" ">
<polygon fill="white" stroke="#bfbfbf" points="223,-229 168,-229 168,-210 223,-210 223,-229"/>
<text text-anchor="middle" x="195.5" y="-217" font-family="Helvetica,sans-Serif" font-size="10.00">sf::Sprite</text>
</a>
</g>
</g>
<!-- Node5&#45;&gt;Node4 -->
<g id="edge4" class="edge">
<title>Node5&#45;&gt;Node4</title>
<path fill="none" stroke="#63b8ff" d="M195.5,-198.11C195.5,-189.52 195.5,-179.97 195.5,-173.25"/>
<polygon fill="#63b8ff" stroke="#63b8ff" points="192,-198.07 195.5,-208.07 199,-198.07 192,-198.07"/>
</g>
</g>
</svg>
