<?xml version="1.0" encoding="UTF-8" standalone="no"?>
<!DOCTYPE svg PUBLIC "-//W3C//DTD SVG 1.1//EN"
 "http://www.w3.org/Graphics/SVG/1.1/DTD/svg11.dtd">
<!-- Generated by graphviz version 7.0.5 (20221223.1930)
 -->
<!-- Title: ImDrawListSplitter Pages: 1 -->
<svg width="1868pt" height="736pt"
 viewBox="0.00 0.00 1868.00 735.88" xmlns="http://www.w3.org/2000/svg" xmlns:xlink="http://www.w3.org/1999/xlink">
<g id="graph0" class="graph" transform="scale(1 1) rotate(0) translate(4 731.88)">
<title>ImDrawListSplitter</title>
<!-- Node1 -->
<g id="node1" class="node">
<title>Node1</title>
<g id="a_node1"><a xlink:title=" ">
<polygon fill="#999999" stroke="#666666" points="827,-685.38 729,-685.38 729,-666.38 827,-666.38 827,-685.38"/>
<text text-anchor="middle" x="778" y="-673.38" font-family="Helvetica,sans-Serif" font-size="10.00">ImDrawListSplitter</text>
</a>
</g>
</g>
<!-- Node7 -->
<g id="node7" class="node">
<title>Node7</title>
<g id="a_node7"><a xlink:href="struct_im_draw_list.html" target="_top" xlink:title=" ">
<polygon fill="white" stroke="#bfbfbf" points="1060.5,-543.38 993.5,-543.38 993.5,-524.38 1060.5,-524.38 1060.5,-543.38"/>
<text text-anchor="middle" x="1027" y="-531.38" font-family="Helvetica,sans-Serif" font-size="10.00">ImDrawList</text>
</a>
</g>
</g>
<!-- Node1&#45;&gt;Node7 -->
<g id="edge45" class="edge">
<title>Node1&#45;&gt;Node7</title>
<path fill="none" stroke="#9a32cd" stroke-dasharray="5,2" d="M825.66,-662.87C869.22,-650.64 928.24,-633.77 933,-630.88 971.89,-607.28 1005.5,-563.35 1019.3,-543.75"/>
<polygon fill="#9a32cd" stroke="#9a32cd" points="824.83,-659.47 816.14,-665.54 826.72,-666.21 824.83,-659.47"/>
<text text-anchor="middle" x="896" y="-654.88" font-family="Helvetica,sans-Serif" font-size="10.00"> _Splitter</text>
</g>
<!-- Node2 -->
<g id="node2" class="node">
<title>Node2</title>
<g id="a_node2"><a xlink:href="struct_im_vector.html" target="_top" xlink:title=" ">
<polygon fill="white" stroke="#bfbfbf" points="1860,-604.38 1718,-604.38 1718,-585.38 1860,-585.38 1860,-604.38"/>
<text text-anchor="middle" x="1789" y="-592.38" font-family="Helvetica,sans-Serif" font-size="10.00">ImVector&lt; ImDrawChannel &gt;</text>
</a>
</g>
</g>
<!-- Node2&#45;&gt;Node1 -->
<g id="edge1" class="edge">
<title>Node2&#45;&gt;Node1</title>
<path fill="none" stroke="#9a32cd" stroke-dasharray="5,2" d="M1768.17,-612.13C1737.81,-636.71 1676.99,-678.88 1617,-678.88 1026,-678.88 1026,-678.88 1026,-678.88 956.95,-678.88 877.06,-677.69 827.27,-676.81"/>
<polygon fill="#9a32cd" stroke="#9a32cd" points="1770.31,-614.9 1775.76,-605.81 1765.83,-609.52 1770.31,-614.9"/>
<text text-anchor="middle" x="1313.5" y="-681.88" font-family="Helvetica,sans-Serif" font-size="10.00"> _Channels</text>
</g>
<!-- Node3 -->
<g id="node3" class="node">
<title>Node3</title>
<g id="a_node3"><a xlink:href="struct_im_draw_channel.html" target="_top" xlink:title=" ">
<polygon fill="white" stroke="#bfbfbf" points="1659,-562.38 1573,-562.38 1573,-543.38 1659,-543.38 1659,-562.38"/>
<text text-anchor="middle" x="1616" y="-550.38" font-family="Helvetica,sans-Serif" font-size="10.00">ImDrawChannel</text>
</a>
</g>
</g>
<!-- Node3&#45;&gt;Node2 -->
<g id="edge2" class="edge">
<title>Node3&#45;&gt;Node2</title>
<path fill="none" stroke="#9a32cd" stroke-dasharray="5,2" d="M1668.41,-565.5C1693.73,-571.72 1723.81,-579.11 1747.47,-584.92"/>
<polygon fill="#9a32cd" stroke="#9a32cd" points="1669.54,-562.18 1658.99,-563.19 1667.87,-568.97 1669.54,-562.18"/>
<text text-anchor="middle" x="1688.5" y="-574.88" font-family="Helvetica,sans-Serif" font-size="10.00"> Data</text>
</g>
<!-- Node4 -->
<g id="node4" class="node">
<title>Node4</title>
<g id="a_node4"><a xlink:href="struct_im_vector.html" target="_top" xlink:title=" ">
<polygon fill="white" stroke="#bfbfbf" points="1483,-562.38 1356,-562.38 1356,-543.38 1483,-543.38 1483,-562.38"/>
<text text-anchor="middle" x="1419.5" y="-550.38" font-family="Helvetica,sans-Serif" font-size="10.00">ImVector&lt; ImDrawCmd &gt;</text>
</a>
</g>
</g>
<!-- Node4&#45;&gt;Node3 -->
<g id="edge3" class="edge">
<title>Node4&#45;&gt;Node3</title>
<path fill="none" stroke="#9a32cd" stroke-dasharray="5,2" d="M1494.88,-552.88C1521.19,-552.88 1549.87,-552.88 1572.6,-552.88"/>
<polygon fill="#9a32cd" stroke="#9a32cd" points="1494.89,-549.38 1484.89,-552.88 1494.89,-556.38 1494.89,-549.38"/>
<text text-anchor="middle" x="1528" y="-555.88" font-family="Helvetica,sans-Serif" font-size="10.00"> _CmdBuffer</text>
</g>
<!-- Node4&#45;&gt;Node7 -->
<g id="edge7" class="edge">
<title>Node4&#45;&gt;Node7</title>
<path fill="none" stroke="#9a32cd" stroke-dasharray="5,2" d="M1344.42,-548.07C1320.95,-546.62 1294.89,-545.1 1271,-543.88 1195.73,-540.03 1107.28,-536.69 1060.63,-535.01"/>
<polygon fill="#9a32cd" stroke="#9a32cd" points="1344.01,-551.55 1354.2,-548.68 1344.44,-544.56 1344.01,-551.55"/>
<text text-anchor="middle" x="1235.5" y="-546.88" font-family="Helvetica,sans-Serif" font-size="10.00"> CmdBuffer</text>
</g>
<!-- Node5 -->
<g id="node5" class="node">
<title>Node5</title>
<g id="a_node5"><a xlink:href="struct_im_draw_cmd.html" target="_top" xlink:title=" ">
<polygon fill="white" stroke="#bfbfbf" points="1271,-582.38 1200,-582.38 1200,-563.38 1271,-563.38 1271,-582.38"/>
<text text-anchor="middle" x="1235.5" y="-570.38" font-family="Helvetica,sans-Serif" font-size="10.00">ImDrawCmd</text>
</a>
</g>
</g>
<!-- Node5&#45;&gt;Node4 -->
<g id="edge4" class="edge">
<title>Node5&#45;&gt;Node4</title>
<path fill="none" stroke="#9a32cd" stroke-dasharray="5,2" d="M1282.6,-567.81C1304.74,-565.38 1331.61,-562.42 1355.6,-559.79"/>
<polygon fill="#9a32cd" stroke="#9a32cd" points="1282.22,-564.33 1272.67,-568.9 1282.99,-571.29 1282.22,-564.33"/>
<text text-anchor="middle" x="1313.5" y="-569.88" font-family="Helvetica,sans-Serif" font-size="10.00"> Data</text>
</g>
<!-- Node6 -->
<g id="node6" class="node">
<title>Node6</title>
<g id="a_node6"><a xlink:href="struct_im_vec4.html" target="_top" xlink:title=" ">
<polygon fill="white" stroke="#bfbfbf" points="69,-591.38 19,-591.38 19,-572.38 69,-572.38 69,-591.38"/>
<text text-anchor="middle" x="44" y="-579.38" font-family="Helvetica,sans-Serif" font-size="10.00">ImVec4</text>
</a>
</g>
</g>
<!-- Node6&#45;&gt;Node5 -->
<g id="edge5" class="edge">
<title>Node6&#45;&gt;Node5</title>
<path fill="none" stroke="#9a32cd" stroke-dasharray="5,2" d="M60.2,-599.92C92.98,-636.7 174.47,-716.88 262,-716.88 262,-716.88 262,-716.88 1028,-716.88 1121.97,-716.88 1203.75,-615.31 1227.54,-582.77"/>
<polygon fill="#9a32cd" stroke="#9a32cd" points="63.14,-597.97 53.93,-592.73 57.86,-602.57 63.14,-597.97"/>
<text text-anchor="middle" x="643.5" y="-719.88" font-family="Helvetica,sans-Serif" font-size="10.00"> ClipRect</text>
</g>
<!-- Node12 -->
<g id="node12" class="node">
<title>Node12</title>
<g id="a_node12"><a xlink:href="struct_im_draw_list_shared_data.html" target="_top" xlink:title=" ">
<polygon fill="white" stroke="#bfbfbf" points="837,-474.38 719,-474.38 719,-455.38 837,-455.38 837,-474.38"/>
<text text-anchor="middle" x="778" y="-462.38" font-family="Helvetica,sans-Serif" font-size="10.00">ImDrawListSharedData</text>
</a>
</g>
</g>
<!-- Node6&#45;&gt;Node12 -->
<g id="edge35" class="edge">
<title>Node6&#45;&gt;Node12</title>
<path fill="none" stroke="#9a32cd" stroke-dasharray="5,2" d="M80.63,-577.75C212.52,-562.43 666.98,-509.29 697,-500.88 719.29,-494.63 743.31,-483.11 759.16,-474.78"/>
<polygon fill="#9a32cd" stroke="#9a32cd" points="80.27,-574.27 70.74,-578.9 81.08,-581.22 80.27,-574.27"/>
<text text-anchor="middle" x="396" y="-559.88" font-family="Helvetica,sans-Serif" font-size="10.00"> ClipRectFullscreen</text>
<text text-anchor="middle" x="396" y="-548.88" font-family="Helvetica,sans-Serif" font-size="10.00">TexUvLines</text>
</g>
<!-- Node18 -->
<g id="node18" class="node">
<title>Node18</title>
<g id="a_node18"><a xlink:href="struct_im_font_atlas.html" target="_top" xlink:title=" ">
<polygon fill="white" stroke="#bfbfbf" points="298,-305.38 228,-305.38 228,-286.38 298,-286.38 298,-305.38"/>
<text text-anchor="middle" x="263" y="-293.38" font-family="Helvetica,sans-Serif" font-size="10.00">ImFontAtlas</text>
</a>
</g>
</g>
<!-- Node6&#45;&gt;Node18 -->
<g id="edge32" class="edge">
<title>Node6&#45;&gt;Node18</title>
<path fill="none" stroke="#9a32cd" stroke-dasharray="5,2" d="M55.28,-562.23C77.81,-520.19 134.73,-419.49 199,-347.88 213.87,-331.3 234.2,-315.5 247.69,-305.76"/>
<polygon fill="#9a32cd" stroke="#9a32cd" points="52.27,-560.44 50.67,-570.91 58.45,-563.72 52.27,-560.44"/>
<text text-anchor="middle" x="143.5" y="-472.88" font-family="Helvetica,sans-Serif" font-size="10.00"> TexUvLines</text>
</g>
<!-- Node26 -->
<g id="node26" class="node">
<title>Node26</title>
<g id="a_node26"><a xlink:href="struct_im_vector.html" target="_top" xlink:title=" ">
<polygon fill="white" stroke="#bfbfbf" points="697,-581.38 590,-581.38 590,-562.38 697,-562.38 697,-581.38"/>
<text text-anchor="middle" x="643.5" y="-569.38" font-family="Helvetica,sans-Serif" font-size="10.00">ImVector&lt; ImVec4 &gt;</text>
</a>
</g>
</g>
<!-- Node6&#45;&gt;Node26 -->
<g id="edge40" class="edge">
<title>Node6&#45;&gt;Node26</title>
<path fill="none" stroke="#9a32cd" stroke-dasharray="5,2" d="M80.52,-581.28C181.47,-579.59 470.47,-574.75 589.89,-572.76"/>
<polygon fill="#9a32cd" stroke="#9a32cd" points="80.62,-577.78 70.68,-581.45 80.73,-584.78 80.62,-577.78"/>
<text text-anchor="middle" x="263" y="-581.88" font-family="Helvetica,sans-Serif" font-size="10.00"> Data</text>
</g>
<!-- Node28 -->
<g id="node28" class="node">
<title>Node28</title>
<g id="a_node28"><a xlink:href="struct_im_draw_cmd_header.html" target="_top" xlink:title=" ">
<polygon fill="white" stroke="#bfbfbf" points="447,-641.38 345,-641.38 345,-622.38 447,-622.38 447,-641.38"/>
<text text-anchor="middle" x="396" y="-629.38" font-family="Helvetica,sans-Serif" font-size="10.00">ImDrawCmdHeader</text>
</a>
</g>
</g>
<!-- Node6&#45;&gt;Node28 -->
<g id="edge44" class="edge">
<title>Node6&#45;&gt;Node28</title>
<path fill="none" stroke="#9a32cd" stroke-dasharray="5,2" d="M80.24,-590.6C88.65,-592.51 97.61,-594.39 106,-595.88 189.15,-610.56 286.8,-621.4 344.65,-627.17"/>
<polygon fill="#9a32cd" stroke="#9a32cd" points="81.23,-587.24 70.7,-588.38 79.64,-594.06 81.23,-587.24"/>
<text text-anchor="middle" x="143.5" y="-609.88" font-family="Helvetica,sans-Serif" font-size="10.00"> ClipRect</text>
</g>
<!-- Node7&#45;&gt;Node5 -->
<g id="edge6" class="edge">
<title>Node7&#45;&gt;Node5</title>
<path fill="none" stroke="#9a32cd" stroke-dasharray="5,2" d="M1071.97,-542.18C1110.03,-549.37 1164.35,-559.63 1199.52,-566.27"/>
<polygon fill="#9a32cd" stroke="#9a32cd" points="1072.68,-538.75 1062.21,-540.34 1071.38,-545.63 1072.68,-538.75"/>
<text text-anchor="middle" x="1151.5" y="-564.88" font-family="Helvetica,sans-Serif" font-size="10.00"> UserCallback</text>
</g>
<!-- Node8 -->
<g id="node8" class="node">
<title>Node8</title>
<g id="a_node8"><a xlink:href="struct_im_vector.html" target="_top" xlink:title=" ">
<polygon fill="white" stroke="#bfbfbf" points="837.5,-352.38 718.5,-352.38 718.5,-333.38 837.5,-333.38 837.5,-352.38"/>
<text text-anchor="middle" x="778" y="-340.38" font-family="Helvetica,sans-Serif" font-size="10.00">ImVector&lt; ImDrawIdx &gt;</text>
</a>
</g>
</g>
<!-- Node8&#45;&gt;Node3 -->
<g id="edge46" class="edge">
<title>Node8&#45;&gt;Node3</title>
<path fill="none" stroke="#9a32cd" stroke-dasharray="5,2" d="M849.07,-338.53C898.5,-335.83 966.28,-332.88 1026,-332.88 1026,-332.88 1026,-332.88 1420.5,-332.88 1534.44,-332.88 1597.68,-500.56 1611.9,-543.14"/>
<polygon fill="#9a32cd" stroke="#9a32cd" points="849.16,-335.02 839.37,-339.07 849.55,-342.01 849.16,-335.02"/>
<text text-anchor="middle" x="1235.5" y="-335.88" font-family="Helvetica,sans-Serif" font-size="10.00"> _IdxBuffer</text>
</g>
<!-- Node8&#45;&gt;Node7 -->
<g id="edge8" class="edge">
<title>Node8&#45;&gt;Node7</title>
<path fill="none" stroke="#9a32cd" stroke-dasharray="5,2" d="M849,-346.83C882.94,-349.94 919.28,-355.39 933,-364.88 991.4,-405.25 1016.85,-494.65 1023.88,-524.19"/>
<polygon fill="#9a32cd" stroke="#9a32cd" points="849.39,-343.35 839.13,-345.99 848.8,-350.33 849.39,-343.35"/>
<text text-anchor="middle" x="896" y="-367.88" font-family="Helvetica,sans-Serif" font-size="10.00"> IdxBuffer</text>
</g>
<!-- Node9 -->
<g id="node9" class="node">
<title>Node9</title>
<g id="a_node9"><a xlink:href="struct_im_vector.html" target="_top" xlink:title=" ">
<polygon fill="white" stroke="#bfbfbf" points="840.5,-389.38 715.5,-389.38 715.5,-370.38 840.5,-370.38 840.5,-389.38"/>
<text text-anchor="middle" x="778" y="-377.38" font-family="Helvetica,sans-Serif" font-size="10.00">ImVector&lt; ImDrawVert &gt;</text>
</a>
</g>
</g>
<!-- Node9&#45;&gt;Node7 -->
<g id="edge9" class="edge">
<title>Node9&#45;&gt;Node7</title>
<path fill="none" stroke="#9a32cd" stroke-dasharray="5,2" d="M852.31,-377.85C879.32,-380.08 909.12,-386.3 933,-400.88 982.54,-431.12 1012.57,-498.81 1022.41,-524.1"/>
<polygon fill="#9a32cd" stroke="#9a32cd" points="852.65,-374.36 842.45,-377.22 852.2,-381.35 852.65,-374.36"/>
<text text-anchor="middle" x="896" y="-403.88" font-family="Helvetica,sans-Serif" font-size="10.00"> VtxBuffer</text>
</g>
<!-- Node10 -->
<g id="node10" class="node">
<title>Node10</title>
<g id="a_node10"><a xlink:href="struct_im_draw_vert.html" target="_top" xlink:title=" ">
<polygon fill="white" stroke="#bfbfbf" points="552.5,-389.38 484.5,-389.38 484.5,-370.38 552.5,-370.38 552.5,-389.38"/>
<text text-anchor="middle" x="518.5" y="-377.38" font-family="Helvetica,sans-Serif" font-size="10.00">ImDrawVert</text>
</a>
</g>
</g>
<!-- Node10&#45;&gt;Node7 -->
<g id="edge38" class="edge">
<title>Node10&#45;&gt;Node7</title>
<path fill="none" stroke="#9a32cd" stroke-dasharray="5,2" d="M563.87,-389.65C572.52,-391.46 581.53,-393.28 590,-394.88 743.09,-423.65 794.45,-395.68 933,-466.88 964.86,-483.25 997.89,-509.72 1014.7,-524"/>
<polygon fill="#9a32cd" stroke="#9a32cd" points="564.78,-386.27 554.27,-387.61 563.32,-393.11 564.78,-386.27"/>
<text text-anchor="middle" x="778" y="-431.88" font-family="Helvetica,sans-Serif" font-size="10.00"> _VtxWritePtr</text>
</g>
<!-- Node10&#45;&gt;Node9 -->
<g id="edge10" class="edge">
<title>Node10&#45;&gt;Node9</title>
<path fill="none" stroke="#9a32cd" stroke-dasharray="5,2" d="M564.35,-379.88C606.06,-379.88 668.59,-379.88 715.06,-379.88"/>
<polygon fill="#9a32cd" stroke="#9a32cd" points="564.41,-376.38 554.41,-379.88 564.41,-383.38 564.41,-376.38"/>
<text text-anchor="middle" x="643.5" y="-382.88" font-family="Helvetica,sans-Serif" font-size="10.00"> Data</text>
</g>
<!-- Node11 -->
<g id="node11" class="node">
<title>Node11</title>
<g id="a_node11"><a xlink:href="struct_im_vec2.html" target="_top" xlink:title=" ">
<polygon fill="white" stroke="#bfbfbf" points="69,-363.38 19,-363.38 19,-344.38 69,-344.38 69,-363.38"/>
<text text-anchor="middle" x="44" y="-351.38" font-family="Helvetica,sans-Serif" font-size="10.00">ImVec2</text>
</a>
</g>
</g>
<!-- Node11&#45;&gt;Node10 -->
<g id="edge11" class="edge">
<title>Node11&#45;&gt;Node10</title>
<path fill="none" stroke="#9a32cd" stroke-dasharray="5,2" d="M80.7,-355.84C169.26,-360.71 398.06,-373.3 484.11,-378.04"/>
<polygon fill="#9a32cd" stroke="#9a32cd" points="81.1,-352.36 70.92,-355.3 80.71,-359.35 81.1,-352.36"/>
<text text-anchor="middle" x="263" y="-383.88" font-family="Helvetica,sans-Serif" font-size="10.00"> pos</text>
<text text-anchor="middle" x="263" y="-372.88" font-family="Helvetica,sans-Serif" font-size="10.00">uv</text>
</g>
<!-- Node11&#45;&gt;Node12 -->
<g id="edge13" class="edge">
<title>Node11&#45;&gt;Node12</title>
<path fill="none" stroke="#9a32cd" stroke-dasharray="5,2" d="M53.56,-374.28C63.12,-394.18 80.67,-423.38 106,-436.88 159.26,-465.24 565.1,-466.04 718.52,-465.31"/>
<polygon fill="#9a32cd" stroke="#9a32cd" points="56.77,-372.88 49.47,-365.2 50.38,-375.75 56.77,-372.88"/>
<text text-anchor="middle" x="396" y="-476.88" font-family="Helvetica,sans-Serif" font-size="10.00"> ArcFastVtx</text>
<text text-anchor="middle" x="396" y="-465.88" font-family="Helvetica,sans-Serif" font-size="10.00">TexUvWhitePixel</text>
</g>
<!-- Node11&#45;&gt;Node18 -->
<g id="edge21" class="edge">
<title>Node11&#45;&gt;Node18</title>
<path fill="none" stroke="#9a32cd" stroke-dasharray="5,2" d="M79.93,-341.91C88.42,-339.14 97.5,-336.3 106,-333.88 147.55,-322.02 195.97,-310.59 227.72,-303.42"/>
<polygon fill="#9a32cd" stroke="#9a32cd" points="79.03,-338.51 70.64,-344.98 81.24,-345.16 79.03,-338.51"/>
<text text-anchor="middle" x="143.5" y="-347.88" font-family="Helvetica,sans-Serif" font-size="10.00"> TexUvScale</text>
<text text-anchor="middle" x="143.5" y="-336.88" font-family="Helvetica,sans-Serif" font-size="10.00">TexUvWhitePixel</text>
</g>
<!-- Node21 -->
<g id="node21" class="node">
<title>Node21</title>
<g id="a_node21"><a xlink:href="struct_im_font_atlas_custom_rect.html" target="_top" xlink:title=" ">
<polygon fill="white" stroke="#bfbfbf" points="840,-90.38 716,-90.38 716,-71.38 840,-71.38 840,-90.38"/>
<text text-anchor="middle" x="778" y="-78.38" font-family="Helvetica,sans-Serif" font-size="10.00">ImFontAtlasCustomRect</text>
</a>
</g>
</g>
<!-- Node11&#45;&gt;Node21 -->
<g id="edge26" class="edge">
<title>Node11&#45;&gt;Node21</title>
<path fill="none" stroke="#9a32cd" stroke-dasharray="5,2" d="M52.07,-333.28C61.61,-304.77 78.48,-251.5 88,-204.88 94.58,-172.63 86.62,-84.47 106,-57.88 132.82,-21.07 154.53,-24.66 199,-14.88 406.39,30.75 663,-43.09 748.09,-70.93"/>
<polygon fill="#9a32cd" stroke="#9a32cd" points="48.86,-331.87 48.97,-342.46 55.49,-334.11 48.86,-331.87"/>
<text text-anchor="middle" x="396" y="-8.88" font-family="Helvetica,sans-Serif" font-size="10.00"> GlyphOffset</text>
</g>
<!-- Node23 -->
<g id="node23" class="node">
<title>Node23</title>
<g id="a_node23"><a xlink:href="struct_im_font_config.html" target="_top" xlink:title=" ">
<polygon fill="white" stroke="#bfbfbf" points="815,-171.38 741,-171.38 741,-152.38 815,-152.38 815,-171.38"/>
<text text-anchor="middle" x="778" y="-159.38" font-family="Helvetica,sans-Serif" font-size="10.00">ImFontConfig</text>
</a>
</g>
</g>
<!-- Node11&#45;&gt;Node23 -->
<g id="edge30" class="edge">
<title>Node11&#45;&gt;Node23</title>
<path fill="none" stroke="#9a32cd" stroke-dasharray="5,2" d="M66.59,-337.09C77.91,-328.8 92.25,-319.06 106,-311.88 145.14,-291.42 156.82,-289.96 199,-276.88 369.12,-224.09 414.64,-220.11 590,-188.88 642.15,-179.59 702.93,-171.27 740.69,-166.4"/>
<polygon fill="#9a32cd" stroke="#9a32cd" points="64.62,-334.2 58.72,-343 68.82,-339.8 64.62,-334.2"/>
<text text-anchor="middle" x="396" y="-249.88" font-family="Helvetica,sans-Serif" font-size="10.00"> GlyphExtraSpacing</text>
<text text-anchor="middle" x="396" y="-238.88" font-family="Helvetica,sans-Serif" font-size="10.00">GlyphOffset</text>
</g>
<!-- Node25 -->
<g id="node25" class="node">
<title>Node25</title>
<g id="a_node25"><a xlink:href="struct_im_vector.html" target="_top" xlink:title=" ">
<polygon fill="white" stroke="#bfbfbf" points="572,-506.38 465,-506.38 465,-487.38 572,-487.38 572,-506.38"/>
<text text-anchor="middle" x="518.5" y="-494.38" font-family="Helvetica,sans-Serif" font-size="10.00">ImVector&lt; ImVec2 &gt;</text>
</a>
</g>
</g>
<!-- Node11&#45;&gt;Node25 -->
<g id="edge37" class="edge">
<title>Node11&#45;&gt;Node25</title>
<path fill="none" stroke="#9a32cd" stroke-dasharray="5,2" d="M49.93,-374.58C57.31,-400.55 73.94,-444.19 106,-464.88 163.96,-502.27 367.43,-501.52 464.8,-498.85"/>
<polygon fill="#9a32cd" stroke="#9a32cd" points="53.39,-373.98 47.48,-365.19 46.62,-375.75 53.39,-373.98"/>
<text text-anchor="middle" x="263" y="-501.88" font-family="Helvetica,sans-Serif" font-size="10.00"> Data</text>
</g>
<!-- Node12&#45;&gt;Node7 -->
<g id="edge12" class="edge">
<title>Node12&#45;&gt;Node7</title>
<path fill="none" stroke="#9a32cd" stroke-dasharray="5,2" d="M848.67,-469.3C875.48,-472.32 906.1,-477.38 933,-485.88 962.11,-495.07 993.06,-512.87 1010.91,-524.02"/>
<polygon fill="#9a32cd" stroke="#9a32cd" points="849.25,-465.85 838.94,-468.29 848.52,-472.81 849.25,-465.85"/>
<text text-anchor="middle" x="896" y="-488.88" font-family="Helvetica,sans-Serif" font-size="10.00"> _Data</text>
</g>
<!-- Node13 -->
<g id="node13" class="node">
<title>Node13</title>
<g id="a_node13"><a xlink:href="struct_im_font.html" target="_top" xlink:title=" ">
<polygon fill="white" stroke="#bfbfbf" points="542,-139.38 495,-139.38 495,-120.38 542,-120.38 542,-139.38"/>
<text text-anchor="middle" x="518.5" y="-127.38" font-family="Helvetica,sans-Serif" font-size="10.00">ImFont</text>
</a>
</g>
</g>
<!-- Node13&#45;&gt;Node12 -->
<g id="edge14" class="edge">
<title>Node13&#45;&gt;Node12</title>
<path fill="none" stroke="#9a32cd" stroke-dasharray="5,2" d="M523.25,-150.61C530.28,-183.2 548.64,-246.09 590,-278.88 628.12,-309.09 664.06,-266.08 697,-301.88 739.18,-347.71 676.56,-391.86 715,-440.88 719.77,-446.96 726.29,-451.5 733.32,-454.9"/>
<polygon fill="#9a32cd" stroke="#9a32cd" points="526.77,-150.34 521.38,-141.21 519.9,-151.7 526.77,-150.34"/>
<text text-anchor="middle" x="643.5" y="-304.88" font-family="Helvetica,sans-Serif" font-size="10.00"> Font</text>
</g>
<!-- Node19 -->
<g id="node19" class="node">
<title>Node19</title>
<g id="a_node19"><a xlink:href="struct_im_vector.html" target="_top" xlink:title=" ">
<polygon fill="white" stroke="#bfbfbf" points="833,-227.38 723,-227.38 723,-208.38 833,-208.38 833,-227.38"/>
<text text-anchor="middle" x="778" y="-215.38" font-family="Helvetica,sans-Serif" font-size="10.00">ImVector&lt; ImFont * &gt;</text>
</a>
</g>
</g>
<!-- Node13&#45;&gt;Node19 -->
<g id="edge23" class="edge">
<title>Node13&#45;&gt;Node19</title>
<path fill="none" stroke="#9a32cd" stroke-dasharray="5,2" d="M547.08,-145.04C559.88,-151.7 575.46,-159.26 590,-164.88 637.85,-183.35 694.8,-198.57 733.18,-207.89"/>
<polygon fill="#9a32cd" stroke="#9a32cd" points="548.87,-142.03 538.39,-140.44 545.58,-148.22 548.87,-142.03"/>
<text text-anchor="middle" x="643.5" y="-201.88" font-family="Helvetica,sans-Serif" font-size="10.00"> Data</text>
</g>
<!-- Node13&#45;&gt;Node21 -->
<g id="edge27" class="edge">
<title>Node13&#45;&gt;Node21</title>
<path fill="none" stroke="#9a32cd" stroke-dasharray="5,2" d="M544.68,-114.4C557.72,-107.17 574.19,-99.21 590,-94.88 630.97,-83.63 678.77,-80.22 715.78,-79.57"/>
<polygon fill="#9a32cd" stroke="#9a32cd" points="543.26,-111.18 536.35,-119.2 546.76,-117.24 543.26,-111.18"/>
<text text-anchor="middle" x="643.5" y="-97.88" font-family="Helvetica,sans-Serif" font-size="10.00"> Font</text>
</g>
<!-- Node13&#45;&gt;Node23 -->
<g id="edge31" class="edge">
<title>Node13&#45;&gt;Node23</title>
<path fill="none" stroke="#9a32cd" stroke-dasharray="5,2" d="M553.27,-120.58C589.44,-112.14 648.22,-102.85 697,-115.88 723.16,-122.86 749.64,-140.67 764.63,-151.97"/>
<polygon fill="#9a32cd" stroke="#9a32cd" points="552.71,-117.11 543.83,-122.9 554.38,-123.91 552.71,-117.11"/>
<text text-anchor="middle" x="643.5" y="-118.88" font-family="Helvetica,sans-Serif" font-size="10.00"> DstFont</text>
</g>
<!-- Node14 -->
<g id="node14" class="node">
<title>Node14</title>
<g id="a_node14"><a xlink:href="struct_im_vector.html" target="_top" xlink:title=" ">
<polygon fill="white" stroke="#bfbfbf" points="308.5,-117.38 217.5,-117.38 217.5,-98.38 308.5,-98.38 308.5,-117.38"/>
<text text-anchor="middle" x="263" y="-105.38" font-family="Helvetica,sans-Serif" font-size="10.00">ImVector&lt; float &gt;</text>
</a>
</g>
</g>
<!-- Node14&#45;&gt;Node13 -->
<g id="edge15" class="edge">
<title>Node14&#45;&gt;Node13</title>
<path fill="none" stroke="#9a32cd" stroke-dasharray="5,2" d="M320.14,-111.05C356.38,-113.3 404.53,-116.66 447,-120.88 462.96,-122.46 480.89,-124.76 494.68,-126.63"/>
<polygon fill="#9a32cd" stroke="#9a32cd" points="320.51,-107.56 310.32,-110.45 320.09,-114.55 320.51,-107.56"/>
<text text-anchor="middle" x="396" y="-123.88" font-family="Helvetica,sans-Serif" font-size="10.00"> IndexAdvanceX</text>
</g>
<!-- Node15 -->
<g id="node15" class="node">
<title>Node15</title>
<g id="a_node15"><a xlink:href="struct_im_vector.html" target="_top" xlink:title=" ">
<polygon fill="white" stroke="#bfbfbf" points="319,-80.38 207,-80.38 207,-61.38 319,-61.38 319,-80.38"/>
<text text-anchor="middle" x="263" y="-68.38" font-family="Helvetica,sans-Serif" font-size="10.00">ImVector&lt; ImWchar &gt;</text>
</a>
</g>
</g>
<!-- Node15&#45;&gt;Node13 -->
<g id="edge16" class="edge">
<title>Node15&#45;&gt;Node13</title>
<path fill="none" stroke="#9a32cd" stroke-dasharray="5,2" d="M330.42,-76.16C365.58,-80.08 409.19,-86.75 447,-97.88 465.57,-103.34 485.55,-112.78 499.49,-120"/>
<polygon fill="#9a32cd" stroke="#9a32cd" points="331.13,-72.72 320.82,-75.14 330.39,-79.68 331.13,-72.72"/>
<text text-anchor="middle" x="396" y="-100.88" font-family="Helvetica,sans-Serif" font-size="10.00"> IndexLookup</text>
</g>
<!-- Node16 -->
<g id="node16" class="node">
<title>Node16</title>
<g id="a_node16"><a xlink:href="struct_im_vector.html" target="_top" xlink:title=" ">
<polygon fill="white" stroke="#bfbfbf" points="327,-43.38 199,-43.38 199,-24.38 327,-24.38 327,-43.38"/>
<text text-anchor="middle" x="263" y="-31.38" font-family="Helvetica,sans-Serif" font-size="10.00">ImVector&lt; ImFontGlyph &gt;</text>
</a>
</g>
</g>
<!-- Node16&#45;&gt;Node13 -->
<g id="edge17" class="edge">
<title>Node16&#45;&gt;Node13</title>
<path fill="none" stroke="#9a32cd" stroke-dasharray="5,2" d="M338.76,-36.23C373.17,-39.75 413.65,-47.46 447,-63.88 474.38,-77.35 498.46,-105.03 510.1,-119.9"/>
<polygon fill="#9a32cd" stroke="#9a32cd" points="339.13,-32.75 328.85,-35.33 338.49,-39.72 339.13,-32.75"/>
<text text-anchor="middle" x="396" y="-66.88" font-family="Helvetica,sans-Serif" font-size="10.00"> Glyphs</text>
</g>
<!-- Node17 -->
<g id="node17" class="node">
<title>Node17</title>
<g id="a_node17"><a xlink:href="struct_im_font_glyph.html" target="_top" xlink:title=" ">
<polygon fill="white" stroke="#bfbfbf" points="80,-148.38 8,-148.38 8,-129.38 80,-129.38 80,-148.38"/>
<text text-anchor="middle" x="44" y="-136.38" font-family="Helvetica,sans-Serif" font-size="10.00">ImFontGlyph</text>
</a>
</g>
</g>
<!-- Node17&#45;&gt;Node13 -->
<g id="edge19" class="edge">
<title>Node17&#45;&gt;Node13</title>
<path fill="none" stroke="#9a32cd" stroke-dasharray="5,2" d="M91.86,-138.23C166.86,-137.15 318.49,-134.82 447,-131.88 462.91,-131.51 480.85,-131 494.64,-130.59"/>
<polygon fill="#9a32cd" stroke="#9a32cd" points="91.96,-134.72 82.01,-138.37 92.06,-141.72 91.96,-134.72"/>
<text text-anchor="middle" x="263" y="-139.88" font-family="Helvetica,sans-Serif" font-size="10.00"> FallbackGlyph</text>
</g>
<!-- Node17&#45;&gt;Node16 -->
<g id="edge18" class="edge">
<title>Node17&#45;&gt;Node16</title>
<path fill="none" stroke="#9a32cd" stroke-dasharray="5,2" d="M69.18,-122.83C98.76,-103.76 150.85,-72.02 199,-51.88 206.24,-48.85 214.15,-46.14 221.85,-43.81"/>
<polygon fill="#9a32cd" stroke="#9a32cd" points="67.44,-119.78 60.97,-128.17 71.26,-125.65 67.44,-119.78"/>
<text text-anchor="middle" x="143.5" y="-101.88" font-family="Helvetica,sans-Serif" font-size="10.00"> Data</text>
</g>
<!-- Node18&#45;&gt;Node13 -->
<g id="edge20" class="edge">
<title>Node18&#45;&gt;Node13</title>
<path fill="none" stroke="#9a32cd" stroke-dasharray="5,2" d="M272.46,-275.62C284.54,-249.3 309.3,-203.86 345,-179.88 383.58,-153.96 402.52,-170.33 447,-156.88 463.18,-151.98 480.96,-145.16 494.61,-139.6"/>
<polygon fill="#9a32cd" stroke="#9a32cd" points="269.36,-273.98 268.54,-284.54 275.77,-276.79 269.36,-273.98"/>
<text text-anchor="middle" x="396" y="-182.88" font-family="Helvetica,sans-Serif" font-size="10.00"> ContainerAtlas</text>
</g>
<!-- Node19&#45;&gt;Node18 -->
<g id="edge22" class="edge">
<title>Node19&#45;&gt;Node18</title>
<path fill="none" stroke="#9a32cd" stroke-dasharray="5,2" d="M711.26,-227.87C601.07,-244.63 382.86,-277.8 298.46,-290.64"/>
<polygon fill="#9a32cd" stroke="#9a32cd" points="711.69,-231.35 721.05,-226.38 710.64,-224.43 711.69,-231.35"/>
<text text-anchor="middle" x="518.5" y="-267.88" font-family="Helvetica,sans-Serif" font-size="10.00"> Fonts</text>
</g>
<!-- Node20 -->
<g id="node20" class="node">
<title>Node20</title>
<g id="a_node20"><a xlink:href="struct_im_vector.html" target="_top" xlink:title=" ">
<polygon fill="white" stroke="#bfbfbf" points="1103,-202.88 951,-202.88 951,-172.88 1103,-172.88 1103,-202.88"/>
<text text-anchor="start" x="959" y="-190.88" font-family="Helvetica,sans-Serif" font-size="10.00">ImVector&lt; ImFontAtlasCustom</text>
<text text-anchor="middle" x="1027" y="-179.88" font-family="Helvetica,sans-Serif" font-size="10.00">Rect &gt;</text>
</a>
</g>
</g>
<!-- Node20&#45;&gt;Node18 -->
<g id="edge24" class="edge">
<title>Node20&#45;&gt;Node18</title>
<path fill="none" stroke="#9a32cd" stroke-dasharray="5,2" d="M992.27,-208.6C975.15,-218.05 953.65,-228.34 933,-233.88 731.67,-287.8 672.15,-240.8 465,-263.88 406.18,-270.43 338.28,-282.11 298.37,-289.4"/>
<polygon fill="#9a32cd" stroke="#9a32cd" points="993.52,-211.92 1000.48,-203.93 990.06,-205.83 993.52,-211.92"/>
<text text-anchor="middle" x="643.5" y="-263.88" font-family="Helvetica,sans-Serif" font-size="10.00"> CustomRects</text>
</g>
<!-- Node21&#45;&gt;Node20 -->
<g id="edge25" class="edge">
<title>Node21&#45;&gt;Node20</title>
<path fill="none" stroke="#9a32cd" stroke-dasharray="5,2" d="M812.19,-95.25C858.6,-115.36 942.51,-151.71 990.25,-172.39"/>
<polygon fill="#9a32cd" stroke="#9a32cd" points="813.75,-92.12 803.18,-91.35 810.97,-98.54 813.75,-92.12"/>
<text text-anchor="middle" x="896" y="-150.88" font-family="Helvetica,sans-Serif" font-size="10.00"> Data</text>
</g>
<!-- Node22 -->
<g id="node22" class="node">
<title>Node22</title>
<g id="a_node22"><a xlink:href="struct_im_vector.html" target="_top" xlink:title=" ">
<polygon fill="white" stroke="#bfbfbf" points="1092.5,-262.38 961.5,-262.38 961.5,-243.38 1092.5,-243.38 1092.5,-262.38"/>
<text text-anchor="middle" x="1027" y="-250.38" font-family="Helvetica,sans-Serif" font-size="10.00">ImVector&lt; ImFontConfig &gt;</text>
</a>
</g>
</g>
<!-- Node22&#45;&gt;Node18 -->
<g id="edge28" class="edge">
<title>Node22&#45;&gt;Node18</title>
<path fill="none" stroke="#9a32cd" stroke-dasharray="5,2" d="M986.56,-266.25C970.15,-271.42 950.81,-277.01 933,-280.88 783.37,-313.33 743.05,-316.86 590,-312.88 483.49,-310.1 357.6,-302.23 298.24,-298.25"/>
<polygon fill="#9a32cd" stroke="#9a32cd" points="987.51,-269.62 995.96,-263.23 985.37,-262.96 987.51,-269.62"/>
<text text-anchor="middle" x="643.5" y="-317.88" font-family="Helvetica,sans-Serif" font-size="10.00"> ConfigData</text>
</g>
<!-- Node23&#45;&gt;Node13 -->
<g id="edge34" class="edge">
<title>Node23&#45;&gt;Node13</title>
<path fill="none" stroke="#9a32cd" stroke-dasharray="5,2" d="M729.51,-154.46C718.83,-152.87 707.53,-151.26 697,-149.88 641.5,-142.59 576.02,-135.63 542.23,-132.17"/>
<polygon fill="#9a32cd" stroke="#9a32cd" points="728.89,-157.91 739.3,-155.93 729.94,-150.98 728.89,-157.91"/>
<text text-anchor="middle" x="643.5" y="-152.88" font-family="Helvetica,sans-Serif" font-size="10.00"> ConfigData</text>
</g>
<!-- Node23&#45;&gt;Node22 -->
<g id="edge29" class="edge">
<title>Node23&#45;&gt;Node22</title>
<path fill="none" stroke="#9a32cd" stroke-dasharray="5,2" d="M816.64,-175.74C866.98,-194.29 954.98,-226.71 999.13,-242.98"/>
<polygon fill="#9a32cd" stroke="#9a32cd" points="817.92,-172.48 807.32,-172.31 815.5,-179.05 817.92,-172.48"/>
<text text-anchor="middle" x="896" y="-221.88" font-family="Helvetica,sans-Serif" font-size="10.00"> Data</text>
</g>
<!-- Node24 -->
<g id="node24" class="node">
<title>Node24</title>
<g id="a_node24"><a xlink:href="struct_im_font_builder_i_o.html" target="_top" xlink:title=" ">
<polygon fill="white" stroke="#bfbfbf" points="88,-196.38 0,-196.38 0,-177.38 88,-177.38 88,-196.38"/>
<text text-anchor="middle" x="44" y="-184.38" font-family="Helvetica,sans-Serif" font-size="10.00">ImFontBuilderIO</text>
</a>
</g>
</g>
<!-- Node24&#45;&gt;Node18 -->
<g id="edge33" class="edge">
<title>Node24&#45;&gt;Node18</title>
<path fill="none" stroke="#9a32cd" stroke-dasharray="5,2" d="M74.66,-201.77C119.67,-224.38 204.01,-266.75 242.25,-285.95"/>
<polygon fill="#9a32cd" stroke="#9a32cd" points="76.5,-198.78 65.99,-197.42 73.36,-205.04 76.5,-198.78"/>
<text text-anchor="middle" x="143.5" y="-257.88" font-family="Helvetica,sans-Serif" font-size="10.00"> FontBuilderIO</text>
</g>
<!-- Node25&#45;&gt;Node7 -->
<g id="edge42" class="edge">
<title>Node25&#45;&gt;Node7</title>
<path fill="none" stroke="#9a32cd" stroke-dasharray="5,2" d="M583.75,-501.57C692.82,-509.54 910.42,-525.43 993.09,-531.47"/>
<polygon fill="#9a32cd" stroke="#9a32cd" points="584.01,-498.08 573.78,-500.84 583.5,-505.06 584.01,-498.08"/>
<text text-anchor="middle" x="778" y="-522.88" font-family="Helvetica,sans-Serif" font-size="10.00"> _Path</text>
</g>
<!-- Node25&#45;&gt;Node12 -->
<g id="edge36" class="edge">
<title>Node25&#45;&gt;Node12</title>
<path fill="none" stroke="#9a32cd" stroke-dasharray="5,2" d="M583.41,-486.78C585.64,-486.47 587.84,-486.17 590,-485.88 633.06,-480.1 681.86,-474.66 718.8,-470.76"/>
<polygon fill="#9a32cd" stroke="#9a32cd" points="583.1,-483.29 573.7,-488.18 584.1,-490.22 583.1,-483.29"/>
<text text-anchor="middle" x="643.5" y="-488.88" font-family="Helvetica,sans-Serif" font-size="10.00"> TempBuffer</text>
</g>
<!-- Node26&#45;&gt;Node7 -->
<g id="edge39" class="edge">
<title>Node26&#45;&gt;Node7</title>
<path fill="none" stroke="#9a32cd" stroke-dasharray="5,2" d="M708.59,-565.49C790.76,-557.31 930.13,-543.43 993.23,-537.14"/>
<polygon fill="#9a32cd" stroke="#9a32cd" points="708.26,-562.01 698.65,-566.48 708.95,-568.97 708.26,-562.01"/>
<text text-anchor="middle" x="778" y="-566.88" font-family="Helvetica,sans-Serif" font-size="10.00"> _ClipRectStack</text>
</g>
<!-- Node27 -->
<g id="node27" class="node">
<title>Node27</title>
<g id="a_node27"><a xlink:href="struct_im_vector.html" target="_top" xlink:title=" ">
<polygon fill="white" stroke="#bfbfbf" points="841,-606.38 715,-606.38 715,-587.38 841,-587.38 841,-606.38"/>
<text text-anchor="middle" x="778" y="-594.38" font-family="Helvetica,sans-Serif" font-size="10.00">ImVector&lt; ImTextureID &gt;</text>
</a>
</g>
</g>
<!-- Node27&#45;&gt;Node7 -->
<g id="edge41" class="edge">
<title>Node27&#45;&gt;Node7</title>
<path fill="none" stroke="#9a32cd" stroke-dasharray="5,2" d="M852.36,-588.44C878.13,-584.56 907.11,-579.16 933,-571.88 958.69,-564.64 986.89,-552.48 1005.42,-543.87"/>
<polygon fill="#9a32cd" stroke="#9a32cd" points="852.04,-584.94 842.65,-589.84 853.04,-591.87 852.04,-584.94"/>
<text text-anchor="middle" x="896" y="-589.88" font-family="Helvetica,sans-Serif" font-size="10.00"> _TextureIdStack</text>
</g>
<!-- Node28&#45;&gt;Node7 -->
<g id="edge43" class="edge">
<title>Node28&#45;&gt;Node7</title>
<path fill="none" stroke="#9a32cd" stroke-dasharray="5,2" d="M458.83,-641.13C561.69,-653.81 772.47,-668.09 933,-601.88 967.02,-587.84 1000.18,-558.85 1016.14,-543.66"/>
<polygon fill="#9a32cd" stroke="#9a32cd" points="459.3,-637.66 448.93,-639.87 458.41,-644.61 459.3,-637.66"/>
<text text-anchor="middle" x="643.5" y="-654.88" font-family="Helvetica,sans-Serif" font-size="10.00"> _CmdHeader</text>
</g>
</g>
</svg>
