<?xml version="1.0" encoding="UTF-8" standalone="no"?>
<!DOCTYPE svg PUBLIC "-//W3C//DTD SVG 1.1//EN"
 "http://www.w3.org/Graphics/SVG/1.1/DTD/svg11.dtd">
<!-- Generated by graphviz version 7.0.5 (20221223.1930)
 -->
<!-- Title: ImGuiViewportP Pages: 1 -->
<svg width="2148pt" height="903pt"
 viewBox="0.00 0.00 2148.00 902.50" xmlns="http://www.w3.org/2000/svg" xmlns:xlink="http://www.w3.org/1999/xlink">
<g id="graph0" class="graph" transform="scale(1 1) rotate(0) translate(4 898.5)">
<title>ImGuiViewportP</title>
<!-- Node1 -->
<g id="node1" class="node">
<title>Node1</title>
<g id="a_node1"><a xlink:title=" ">
<polygon fill="#999999" stroke="#666666" points="1756,-738 1668,-738 1668,-719 1756,-719 1756,-738"/>
<text text-anchor="middle" x="1712" y="-726" font-family="Helvetica,sans-Serif" font-size="10.00">ImGuiViewportP</text>
</a>
</g>
</g>
<!-- Node2 -->
<g id="node2" class="node">
<title>Node2</title>
<g id="a_node2"><a xlink:href="struct_im_gui_viewport.html" target="_top" xlink:title=" ">
<polygon fill="white" stroke="#bfbfbf" points="945,-871 864,-871 864,-852 945,-852 945,-871"/>
<text text-anchor="middle" x="904.5" y="-859" font-family="Helvetica,sans-Serif" font-size="10.00">ImGuiViewport</text>
</a>
</g>
</g>
<!-- Node2&#45;&gt;Node1 -->
<g id="edge1" class="edge">
<title>Node2&#45;&gt;Node1</title>
<path fill="none" stroke="#63b8ff" d="M956.84,-858.07C1009.65,-854.84 1094.28,-850.5 1167.5,-850.5 1167.5,-850.5 1167.5,-850.5 1493.5,-850.5 1564.68,-850.5 1590.83,-856.06 1650,-816.5 1679.83,-796.56 1699.35,-756.67 1707.15,-738.24"/>
<polygon fill="#63b8ff" stroke="#63b8ff" points="956.7,-854.57 946.94,-858.69 957.14,-861.56 956.7,-854.57"/>
</g>
<!-- Node3 -->
<g id="node3" class="node">
<title>Node3</title>
<g id="a_node3"><a xlink:href="struct_im_vec2.html" target="_top" xlink:title=" ">
<polygon fill="white" stroke="#bfbfbf" points="69,-654 19,-654 19,-635 69,-635 69,-654"/>
<text text-anchor="middle" x="44" y="-642" font-family="Helvetica,sans-Serif" font-size="10.00">ImVec2</text>
</a>
</g>
</g>
<!-- Node3&#45;&gt;Node1 -->
<g id="edge56" class="edge">
<title>Node3&#45;&gt;Node1</title>
<path fill="none" stroke="#9a32cd" stroke-dasharray="5,2" d="M58.01,-663.58C88.4,-705.61 168.58,-802.5 262,-802.5 262,-802.5 262,-802.5 1493.5,-802.5 1572.08,-802.5 1658.52,-758.68 1694.19,-738.48"/>
<polygon fill="#9a32cd" stroke="#9a32cd" points="61.03,-661.78 52.41,-655.62 55.31,-665.81 61.03,-661.78"/>
<text text-anchor="middle" x="904.5" y="-838.5" font-family="Helvetica,sans-Serif" font-size="10.00"> BuildWorkOffsetMax</text>
<text text-anchor="middle" x="904.5" y="-827.5" font-family="Helvetica,sans-Serif" font-size="10.00">BuildWorkOffsetMin</text>
<text text-anchor="middle" x="904.5" y="-816.5" font-family="Helvetica,sans-Serif" font-size="10.00">WorkOffsetMax</text>
<text text-anchor="middle" x="904.5" y="-805.5" font-family="Helvetica,sans-Serif" font-size="10.00">WorkOffsetMin</text>
</g>
<!-- Node3&#45;&gt;Node2 -->
<g id="edge2" class="edge">
<title>Node3&#45;&gt;Node2</title>
<path fill="none" stroke="#9a32cd" stroke-dasharray="5,2" d="M46.13,-665.69C49.27,-702.23 61.13,-776.97 106,-816.5 159.24,-863.41 191.04,-850.5 262,-850.5 262,-850.5 262,-850.5 644.5,-850.5 722.14,-850.5 812.74,-855.49 863.59,-858.75"/>
<polygon fill="#9a32cd" stroke="#9a32cd" points="49.64,-665.72 45.45,-655.99 42.66,-666.21 49.64,-665.72"/>
<text text-anchor="middle" x="396" y="-886.5" font-family="Helvetica,sans-Serif" font-size="10.00"> Pos</text>
<text text-anchor="middle" x="396" y="-875.5" font-family="Helvetica,sans-Serif" font-size="10.00">Size</text>
<text text-anchor="middle" x="396" y="-864.5" font-family="Helvetica,sans-Serif" font-size="10.00">WorkPos</text>
<text text-anchor="middle" x="396" y="-853.5" font-family="Helvetica,sans-Serif" font-size="10.00">WorkSize</text>
</g>
<!-- Node10 -->
<g id="node10" class="node">
<title>Node10</title>
<g id="a_node10"><a xlink:href="struct_im_draw_vert.html" target="_top" xlink:title=" ">
<polygon fill="white" stroke="#bfbfbf" points="552.5,-701 484.5,-701 484.5,-682 552.5,-682 552.5,-701"/>
<text text-anchor="middle" x="518.5" y="-689" font-family="Helvetica,sans-Serif" font-size="10.00">ImDrawVert</text>
</a>
</g>
</g>
<!-- Node3&#45;&gt;Node10 -->
<g id="edge11" class="edge">
<title>Node3&#45;&gt;Node10</title>
<path fill="none" stroke="#9a32cd" stroke-dasharray="5,2" d="M80.41,-653.54C88.76,-655.42 97.66,-657.22 106,-658.5 245.55,-679.99 414,-687.95 484.24,-690.47"/>
<polygon fill="#9a32cd" stroke="#9a32cd" points="81.49,-650.2 70.95,-651.32 79.89,-657.02 81.49,-650.2"/>
<text text-anchor="middle" x="263" y="-695.5" font-family="Helvetica,sans-Serif" font-size="10.00"> pos</text>
<text text-anchor="middle" x="263" y="-684.5" font-family="Helvetica,sans-Serif" font-size="10.00">uv</text>
</g>
<!-- Node11 -->
<g id="node11" class="node">
<title>Node11</title>
<g id="a_node11"><a xlink:href="struct_im_draw_list_shared_data.html" target="_top" xlink:title=" ">
<polygon fill="white" stroke="#bfbfbf" points="837,-600 719,-600 719,-581 837,-581 837,-600"/>
<text text-anchor="middle" x="778" y="-588" font-family="Helvetica,sans-Serif" font-size="10.00">ImDrawListSharedData</text>
</a>
</g>
</g>
<!-- Node3&#45;&gt;Node11 -->
<g id="edge13" class="edge">
<title>Node3&#45;&gt;Node11</title>
<path fill="none" stroke="#9a32cd" stroke-dasharray="5,2" d="M80.94,-641.18C137.22,-636.04 249.58,-625.94 345,-618.5 453.82,-610.01 481.07,-608.48 590,-601.5 633.16,-598.73 681.95,-595.87 718.87,-593.76"/>
<polygon fill="#9a32cd" stroke="#9a32cd" points="80.63,-637.7 70.99,-642.1 81.27,-644.67 80.63,-637.7"/>
<text text-anchor="middle" x="396" y="-632.5" font-family="Helvetica,sans-Serif" font-size="10.00"> ArcFastVtx</text>
<text text-anchor="middle" x="396" y="-621.5" font-family="Helvetica,sans-Serif" font-size="10.00">TexUvWhitePixel</text>
</g>
<!-- Node17 -->
<g id="node17" class="node">
<title>Node17</title>
<g id="a_node17"><a xlink:href="struct_im_font_atlas.html" target="_top" xlink:title=" ">
<polygon fill="white" stroke="#bfbfbf" points="298,-345 228,-345 228,-326 298,-326 298,-345"/>
<text text-anchor="middle" x="263" y="-333" font-family="Helvetica,sans-Serif" font-size="10.00">ImFontAtlas</text>
</a>
</g>
</g>
<!-- Node3&#45;&gt;Node17 -->
<g id="edge21" class="edge">
<title>Node3&#45;&gt;Node17</title>
<path fill="none" stroke="#9a32cd" stroke-dasharray="5,2" d="M53.6,-624.27C64.38,-599.79 84.12,-557.71 106,-524.5 134.64,-481.02 147.85,-474.65 181,-434.5 207.87,-401.96 239.47,-363.19 253.98,-345.36"/>
<polygon fill="#9a32cd" stroke="#9a32cd" points="50.42,-622.81 49.66,-633.37 56.84,-625.59 50.42,-622.81"/>
<text text-anchor="middle" x="143.5" y="-538.5" font-family="Helvetica,sans-Serif" font-size="10.00"> TexUvScale</text>
<text text-anchor="middle" x="143.5" y="-527.5" font-family="Helvetica,sans-Serif" font-size="10.00">TexUvWhitePixel</text>
</g>
<!-- Node20 -->
<g id="node20" class="node">
<title>Node20</title>
<g id="a_node20"><a xlink:href="struct_im_font_atlas_custom_rect.html" target="_top" xlink:title=" ">
<polygon fill="white" stroke="#bfbfbf" points="840,-402 716,-402 716,-383 840,-383 840,-402"/>
<text text-anchor="middle" x="778" y="-390" font-family="Helvetica,sans-Serif" font-size="10.00">ImFontAtlasCustomRect</text>
</a>
</g>
</g>
<!-- Node3&#45;&gt;Node20 -->
<g id="edge26" class="edge">
<title>Node3&#45;&gt;Node20</title>
<path fill="none" stroke="#9a32cd" stroke-dasharray="5,2" d="M80.33,-634.55C88.74,-632.21 97.68,-629.74 106,-627.5 171.54,-609.81 648.41,-519.91 697,-472.5 717.54,-452.46 694.71,-430.79 715,-410.5 718.25,-407.25 722.05,-404.58 726.14,-402.39"/>
<polygon fill="#9a32cd" stroke="#9a32cd" points="79.46,-631.16 70.77,-637.22 81.35,-637.9 79.46,-631.16"/>
<text text-anchor="middle" x="396" y="-577.5" font-family="Helvetica,sans-Serif" font-size="10.00"> GlyphOffset</text>
</g>
<!-- Node22 -->
<g id="node22" class="node">
<title>Node22</title>
<g id="a_node22"><a xlink:href="struct_im_font_config.html" target="_top" xlink:title=" ">
<polygon fill="white" stroke="#bfbfbf" points="815,-192 741,-192 741,-173 815,-173 815,-192"/>
<text text-anchor="middle" x="778" y="-180" font-family="Helvetica,sans-Serif" font-size="10.00">ImFontConfig</text>
</a>
</g>
</g>
<!-- Node3&#45;&gt;Node22 -->
<g id="edge30" class="edge">
<title>Node3&#45;&gt;Node22</title>
<path fill="none" stroke="#9a32cd" stroke-dasharray="5,2" d="M49.59,-623.83C57.77,-586.78 75.18,-506.56 88,-438.5 111.04,-316.23 91.98,-244.96 199,-181.5 381.33,-73.37 656.33,-144.38 746.9,-172.51"/>
<polygon fill="#9a32cd" stroke="#9a32cd" points="46.27,-622.67 47.52,-633.19 53.1,-624.18 46.27,-622.67"/>
<text text-anchor="middle" x="396" y="-144.5" font-family="Helvetica,sans-Serif" font-size="10.00"> GlyphExtraSpacing</text>
<text text-anchor="middle" x="396" y="-133.5" font-family="Helvetica,sans-Serif" font-size="10.00">GlyphOffset</text>
</g>
<!-- Node24 -->
<g id="node24" class="node">
<title>Node24</title>
<g id="a_node24"><a xlink:href="struct_im_vector.html" target="_top" xlink:title=" ">
<polygon fill="white" stroke="#bfbfbf" points="572,-654 465,-654 465,-635 572,-635 572,-654"/>
<text text-anchor="middle" x="518.5" y="-642" font-family="Helvetica,sans-Serif" font-size="10.00">ImVector&lt; ImVec2 &gt;</text>
</a>
</g>
</g>
<!-- Node3&#45;&gt;Node24 -->
<g id="edge37" class="edge">
<title>Node3&#45;&gt;Node24</title>
<path fill="none" stroke="#9a32cd" stroke-dasharray="5,2" d="M80.67,-644.5C163.19,-644.5 367.59,-644.5 464.68,-644.5"/>
<polygon fill="#9a32cd" stroke="#9a32cd" points="80.92,-641 70.92,-644.5 80.92,-648 80.92,-641"/>
<text text-anchor="middle" x="263" y="-647.5" font-family="Helvetica,sans-Serif" font-size="10.00"> Data</text>
</g>
<!-- Node31 -->
<g id="node31" class="node">
<title>Node31</title>
<g id="a_node31"><a xlink:href="struct_im_draw_data.html" target="_top" xlink:title=" ">
<polygon fill="white" stroke="#bfbfbf" points="1317,-699 1246,-699 1246,-680 1317,-680 1317,-699"/>
<text text-anchor="middle" x="1281.5" y="-687" font-family="Helvetica,sans-Serif" font-size="10.00">ImDrawData</text>
</a>
</g>
</g>
<!-- Node3&#45;&gt;Node31 -->
<g id="edge52" class="edge">
<title>Node3&#45;&gt;Node31</title>
<path fill="none" stroke="#9a32cd" stroke-dasharray="5,2" d="M71.8,-659.75C82.28,-665.4 94.53,-671.62 106,-676.5 146.09,-693.56 156.26,-699.03 199,-707.5 479.33,-763.07 555.75,-760.96 841,-743.5 992.35,-734.24 1171.39,-707.19 1245.6,-695.26"/>
<polygon fill="#9a32cd" stroke="#9a32cd" points="73.77,-656.84 63.32,-655.09 70.4,-662.98 73.77,-656.84"/>
<text text-anchor="middle" x="643.5" y="-778.5" font-family="Helvetica,sans-Serif" font-size="10.00"> DisplayPos</text>
<text text-anchor="middle" x="643.5" y="-767.5" font-family="Helvetica,sans-Serif" font-size="10.00">DisplaySize</text>
<text text-anchor="middle" x="643.5" y="-756.5" font-family="Helvetica,sans-Serif" font-size="10.00">FramebufferScale</text>
</g>
<!-- Node4 -->
<g id="node4" class="node">
<title>Node4</title>
<g id="a_node4"><a xlink:href="struct_im_draw_list.html" target="_top" xlink:title=" ">
<polygon fill="white" stroke="#bfbfbf" points="1077.5,-575 1010.5,-575 1010.5,-556 1077.5,-556 1077.5,-575"/>
<text text-anchor="middle" x="1044" y="-563" font-family="Helvetica,sans-Serif" font-size="10.00">ImDrawList</text>
</a>
</g>
</g>
<!-- Node4&#45;&gt;Node1 -->
<g id="edge3" class="edge">
<title>Node4&#45;&gt;Node1</title>
<path fill="none" stroke="#9a32cd" stroke-dasharray="5,2" d="M1058.85,-584.26C1085.11,-617.92 1145.94,-687.05 1217,-708.5 1377.23,-756.88 1579.99,-743.16 1667.51,-733.88"/>
<polygon fill="#9a32cd" stroke="#9a32cd" points="1061.87,-582.44 1053.02,-576.61 1056.3,-586.69 1061.87,-582.44"/>
<text text-anchor="middle" x="1387.5" y="-742.5" font-family="Helvetica,sans-Serif" font-size="10.00"> DrawLists</text>
</g>
<!-- Node6 -->
<g id="node6" class="node">
<title>Node6</title>
<g id="a_node6"><a xlink:href="struct_im_draw_cmd.html" target="_top" xlink:title=" ">
<polygon fill="white" stroke="#bfbfbf" points="1317,-397 1246,-397 1246,-378 1317,-378 1317,-397"/>
<text text-anchor="middle" x="1281.5" y="-385" font-family="Helvetica,sans-Serif" font-size="10.00">ImDrawCmd</text>
</a>
</g>
</g>
<!-- Node4&#45;&gt;Node6 -->
<g id="edge7" class="edge">
<title>Node4&#45;&gt;Node6</title>
<path fill="none" stroke="#9a32cd" stroke-dasharray="5,2" d="M1051.39,-545C1062.91,-511.64 1090.51,-446.07 1138,-413.5 1169.84,-391.67 1214.73,-386.67 1245.57,-386.17"/>
<polygon fill="#9a32cd" stroke="#9a32cd" points="1048.14,-543.68 1048.33,-554.27 1054.79,-545.87 1048.14,-543.68"/>
<text text-anchor="middle" x="1168.5" y="-416.5" font-family="Helvetica,sans-Serif" font-size="10.00"> UserCallback</text>
</g>
<!-- Node4&#45;&gt;Node31 -->
<g id="edge51" class="edge">
<title>Node4&#45;&gt;Node31</title>
<path fill="none" stroke="#9a32cd" stroke-dasharray="5,2" d="M1073.79,-580.66C1122.62,-606.37 1220.37,-657.84 1261.54,-679.51"/>
<polygon fill="#9a32cd" stroke="#9a32cd" points="1075.69,-577.71 1065.21,-576.14 1072.43,-583.9 1075.69,-577.71"/>
<text text-anchor="middle" x="1168.5" y="-648.5" font-family="Helvetica,sans-Serif" font-size="10.00"> CmdLists</text>
</g>
<!-- Node33 -->
<g id="node33" class="node">
<title>Node33</title>
<g id="a_node33"><a xlink:href="struct_im_vector.html" target="_top" xlink:title=" ">
<polygon fill="white" stroke="#bfbfbf" points="1346,-599 1217,-599 1217,-580 1346,-580 1346,-599"/>
<text text-anchor="middle" x="1281.5" y="-587" font-family="Helvetica,sans-Serif" font-size="10.00">ImVector&lt; ImDrawList * &gt;</text>
</a>
</g>
</g>
<!-- Node4&#45;&gt;Node33 -->
<g id="edge55" class="edge">
<title>Node4&#45;&gt;Node33</title>
<path fill="none" stroke="#9a32cd" stroke-dasharray="5,2" d="M1088.83,-569.97C1124.75,-573.63 1176.07,-578.86 1216.57,-582.98"/>
<polygon fill="#9a32cd" stroke="#9a32cd" points="1089.55,-566.52 1079.25,-568.99 1088.84,-573.49 1089.55,-566.52"/>
<text text-anchor="middle" x="1168.5" y="-583.5" font-family="Helvetica,sans-Serif" font-size="10.00"> Data</text>
</g>
<!-- Node5 -->
<g id="node5" class="node">
<title>Node5</title>
<g id="a_node5"><a xlink:href="struct_im_vector.html" target="_top" xlink:title=" ">
<polygon fill="white" stroke="#bfbfbf" points="1556,-445 1429,-445 1429,-426 1556,-426 1556,-445"/>
<text text-anchor="middle" x="1492.5" y="-433" font-family="Helvetica,sans-Serif" font-size="10.00">ImVector&lt; ImDrawCmd &gt;</text>
</a>
</g>
</g>
<!-- Node5&#45;&gt;Node4 -->
<g id="edge4" class="edge">
<title>Node5&#45;&gt;Node4</title>
<path fill="none" stroke="#9a32cd" stroke-dasharray="5,2" d="M1417.36,-428.71C1360.97,-426.03 1282.21,-427.73 1217,-449.5 1147.65,-472.65 1080.13,-532.03 1055.15,-555.62"/>
<polygon fill="#9a32cd" stroke="#9a32cd" points="1417.01,-432.19 1427.18,-429.23 1417.38,-425.2 1417.01,-432.19"/>
<text text-anchor="middle" x="1281.5" y="-452.5" font-family="Helvetica,sans-Serif" font-size="10.00"> CmdBuffer</text>
</g>
<!-- Node30 -->
<g id="node30" class="node">
<title>Node30</title>
<g id="a_node30"><a xlink:href="struct_im_draw_channel.html" target="_top" xlink:title=" ">
<polygon fill="white" stroke="#bfbfbf" points="1755,-492 1669,-492 1669,-473 1755,-473 1755,-492"/>
<text text-anchor="middle" x="1712" y="-480" font-family="Helvetica,sans-Serif" font-size="10.00">ImDrawChannel</text>
</a>
</g>
</g>
<!-- Node5&#45;&gt;Node30 -->
<g id="edge48" class="edge">
<title>Node5&#45;&gt;Node30</title>
<path fill="none" stroke="#9a32cd" stroke-dasharray="5,2" d="M1567.72,-442.09C1594,-445.43 1623.58,-450.35 1650,-457.5 1663.92,-461.27 1678.91,-467.38 1690.55,-472.62"/>
<polygon fill="#9a32cd" stroke="#9a32cd" points="1568.14,-438.62 1557.79,-440.89 1567.3,-445.57 1568.14,-438.62"/>
<text text-anchor="middle" x="1612" y="-460.5" font-family="Helvetica,sans-Serif" font-size="10.00"> _CmdBuffer</text>
</g>
<!-- Node6&#45;&gt;Node5 -->
<g id="edge5" class="edge">
<title>Node6&#45;&gt;Node5</title>
<path fill="none" stroke="#9a32cd" stroke-dasharray="5,2" d="M1328.57,-394.33C1353.19,-398.33 1383.91,-403.9 1411,-410.5 1428.35,-414.73 1447.44,-420.6 1462.68,-425.6"/>
<polygon fill="#9a32cd" stroke="#9a32cd" points="1329.3,-390.9 1318.87,-392.78 1328.2,-397.81 1329.3,-390.9"/>
<text text-anchor="middle" x="1387.5" y="-413.5" font-family="Helvetica,sans-Serif" font-size="10.00"> Data</text>
</g>
<!-- Node7 -->
<g id="node7" class="node">
<title>Node7</title>
<g id="a_node7"><a xlink:href="struct_im_vec4.html" target="_top" xlink:title=" ">
<polygon fill="white" stroke="#bfbfbf" points="69,-429 19,-429 19,-410 69,-410 69,-429"/>
<text text-anchor="middle" x="44" y="-417" font-family="Helvetica,sans-Serif" font-size="10.00">ImVec4</text>
</a>
</g>
</g>
<!-- Node7&#45;&gt;Node6 -->
<g id="edge6" class="edge">
<title>Node7&#45;&gt;Node6</title>
<path fill="none" stroke="#9a32cd" stroke-dasharray="5,2" d="M60.76,-400.61C70.31,-388.07 81.82,-370.77 88,-353.5 112.69,-284.45 67.21,-251.73 106,-189.5 148.94,-120.61 180.82,-94.5 262,-94.5 262,-94.5 262,-94.5 1045,-94.5 1193.8,-94.5 1264.35,-326.91 1278,-377.75"/>
<polygon fill="#9a32cd" stroke="#9a32cd" points="58.06,-398.38 54.59,-408.39 63.55,-402.73 58.06,-398.38"/>
<text text-anchor="middle" x="643.5" y="-97.5" font-family="Helvetica,sans-Serif" font-size="10.00"> ClipRect</text>
</g>
<!-- Node7&#45;&gt;Node11 -->
<g id="edge35" class="edge">
<title>Node7&#45;&gt;Node11</title>
<path fill="none" stroke="#9a32cd" stroke-dasharray="5,2" d="M53.63,-439.65C63.25,-459.31 80.84,-488.16 106,-501.5 240.02,-572.57 297.17,-492.71 447,-516.5 455.2,-517.8 456.94,-519.49 465,-521.5 557.58,-544.58 666.6,-567.79 728.17,-580.54"/>
<polygon fill="#9a32cd" stroke="#9a32cd" points="56.87,-438.32 49.52,-430.7 50.51,-441.24 56.87,-438.32"/>
<text text-anchor="middle" x="396" y="-530.5" font-family="Helvetica,sans-Serif" font-size="10.00"> ClipRectFullscreen</text>
<text text-anchor="middle" x="396" y="-519.5" font-family="Helvetica,sans-Serif" font-size="10.00">TexUvLines</text>
</g>
<!-- Node7&#45;&gt;Node17 -->
<g id="edge32" class="edge">
<title>Node7&#45;&gt;Node17</title>
<path fill="none" stroke="#9a32cd" stroke-dasharray="5,2" d="M71.28,-403.94C81.86,-398.03 94.3,-391.53 106,-386.5 146.71,-369 195.52,-353.95 227.57,-344.82"/>
<polygon fill="#9a32cd" stroke="#9a32cd" points="69.69,-400.82 62.74,-408.81 73.16,-406.9 69.69,-400.82"/>
<text text-anchor="middle" x="143.5" y="-389.5" font-family="Helvetica,sans-Serif" font-size="10.00"> TexUvLines</text>
</g>
<!-- Node25 -->
<g id="node25" class="node">
<title>Node25</title>
<g id="a_node25"><a xlink:href="struct_im_vector.html" target="_top" xlink:title=" ">
<polygon fill="white" stroke="#bfbfbf" points="697,-543 590,-543 590,-524 697,-524 697,-543"/>
<text text-anchor="middle" x="643.5" y="-531" font-family="Helvetica,sans-Serif" font-size="10.00">ImVector&lt; ImVec4 &gt;</text>
</a>
</g>
</g>
<!-- Node7&#45;&gt;Node25 -->
<g id="edge40" class="edge">
<title>Node7&#45;&gt;Node25</title>
<path fill="none" stroke="#9a32cd" stroke-dasharray="5,2" d="M80.34,-426.54C88.75,-428.19 97.69,-429.93 106,-431.5 257.35,-460.15 295.76,-464.28 447,-493.5 497.68,-503.29 555.6,-515.24 595.15,-523.51"/>
<polygon fill="#9a32cd" stroke="#9a32cd" points="81.3,-423.16 70.81,-424.66 79.94,-430.03 81.3,-423.16"/>
<text text-anchor="middle" x="263" y="-473.5" font-family="Helvetica,sans-Serif" font-size="10.00"> Data</text>
</g>
<!-- Node27 -->
<g id="node27" class="node">
<title>Node27</title>
<g id="a_node27"><a xlink:href="struct_im_draw_cmd_header.html" target="_top" xlink:title=" ">
<polygon fill="white" stroke="#bfbfbf" points="447,-438 345,-438 345,-419 447,-419 447,-438"/>
<text text-anchor="middle" x="396" y="-426" font-family="Helvetica,sans-Serif" font-size="10.00">ImDrawCmdHeader</text>
</a>
</g>
</g>
<!-- Node7&#45;&gt;Node27 -->
<g id="edge44" class="edge">
<title>Node7&#45;&gt;Node27</title>
<path fill="none" stroke="#9a32cd" stroke-dasharray="5,2" d="M80.45,-419.47C107.9,-419.52 146.87,-419.74 181,-420.5 237.13,-421.76 301.49,-424.31 344.86,-426.2"/>
<polygon fill="#9a32cd" stroke="#9a32cd" points="80.6,-415.97 70.59,-419.46 80.59,-422.97 80.6,-415.97"/>
<text text-anchor="middle" x="143.5" y="-423.5" font-family="Helvetica,sans-Serif" font-size="10.00"> ClipRect</text>
</g>
<!-- Node8 -->
<g id="node8" class="node">
<title>Node8</title>
<g id="a_node8"><a xlink:href="struct_im_vector.html" target="_top" xlink:title=" ">
<polygon fill="white" stroke="#bfbfbf" points="837.5,-439 718.5,-439 718.5,-420 837.5,-420 837.5,-439"/>
<text text-anchor="middle" x="778" y="-427" font-family="Helvetica,sans-Serif" font-size="10.00">ImVector&lt; ImDrawIdx &gt;</text>
</a>
</g>
</g>
<!-- Node8&#45;&gt;Node4 -->
<g id="edge8" class="edge">
<title>Node8&#45;&gt;Node4</title>
<path fill="none" stroke="#9a32cd" stroke-dasharray="5,2" d="M849.04,-424.75C881.54,-425.48 919.6,-430.73 950,-447.5 996.36,-473.08 1027.68,-532.29 1038.65,-555.71"/>
<polygon fill="#9a32cd" stroke="#9a32cd" points="849.34,-421.25 839.32,-424.68 849.29,-428.25 849.34,-421.25"/>
<text text-anchor="middle" x="904.5" y="-450.5" font-family="Helvetica,sans-Serif" font-size="10.00"> IdxBuffer</text>
</g>
<!-- Node8&#45;&gt;Node30 -->
<g id="edge49" class="edge">
<title>Node8&#45;&gt;Node30</title>
<path fill="none" stroke="#9a32cd" stroke-dasharray="5,2" d="M848.76,-426.38C879.79,-425.58 916.75,-425.45 950,-427.5 1069.34,-434.85 1097.85,-450.5 1217,-460.5 1383.82,-474.5 1583.13,-479.94 1668.64,-481.73"/>
<polygon fill="#9a32cd" stroke="#9a32cd" points="849.03,-422.87 839.13,-426.65 849.23,-429.87 849.03,-422.87"/>
<text text-anchor="middle" x="1281.5" y="-471.5" font-family="Helvetica,sans-Serif" font-size="10.00"> _IdxBuffer</text>
</g>
<!-- Node9 -->
<g id="node9" class="node">
<title>Node9</title>
<g id="a_node9"><a xlink:href="struct_im_vector.html" target="_top" xlink:title=" ">
<polygon fill="white" stroke="#bfbfbf" points="840.5,-685 715.5,-685 715.5,-666 840.5,-666 840.5,-685"/>
<text text-anchor="middle" x="778" y="-673" font-family="Helvetica,sans-Serif" font-size="10.00">ImVector&lt; ImDrawVert &gt;</text>
</a>
</g>
</g>
<!-- Node9&#45;&gt;Node4 -->
<g id="edge9" class="edge">
<title>Node9&#45;&gt;Node4</title>
<path fill="none" stroke="#9a32cd" stroke-dasharray="5,2" d="M852.19,-674.28C883.55,-671.4 919.82,-664.81 950,-650.5 987.95,-632.5 1021.29,-593.69 1035.58,-575.41"/>
<polygon fill="#9a32cd" stroke="#9a32cd" points="852.08,-670.78 842.39,-675.06 852.64,-677.76 852.08,-670.78"/>
<text text-anchor="middle" x="904.5" y="-676.5" font-family="Helvetica,sans-Serif" font-size="10.00"> VtxBuffer</text>
</g>
<!-- Node10&#45;&gt;Node4 -->
<g id="edge38" class="edge">
<title>Node10&#45;&gt;Node4</title>
<path fill="none" stroke="#9a32cd" stroke-dasharray="5,2" d="M563.91,-703.9C645.82,-724.14 823.79,-755.69 950,-688.5 998.21,-662.84 1028.64,-599.97 1039.01,-575.49"/>
<polygon fill="#9a32cd" stroke="#9a32cd" points="564.8,-700.51 554.24,-701.44 563.07,-707.3 564.8,-700.51"/>
<text text-anchor="middle" x="778" y="-731.5" font-family="Helvetica,sans-Serif" font-size="10.00"> _VtxWritePtr</text>
</g>
<!-- Node10&#45;&gt;Node9 -->
<g id="edge10" class="edge">
<title>Node10&#45;&gt;Node9</title>
<path fill="none" stroke="#9a32cd" stroke-dasharray="5,2" d="M564.35,-688.71C606.06,-686.12 668.59,-682.24 715.06,-679.35"/>
<polygon fill="#9a32cd" stroke="#9a32cd" points="564.17,-685.22 554.41,-689.33 564.61,-692.2 564.17,-685.22"/>
<text text-anchor="middle" x="643.5" y="-689.5" font-family="Helvetica,sans-Serif" font-size="10.00"> Data</text>
</g>
<!-- Node11&#45;&gt;Node4 -->
<g id="edge12" class="edge">
<title>Node11&#45;&gt;Node4</title>
<path fill="none" stroke="#9a32cd" stroke-dasharray="5,2" d="M848.47,-583.92C900.73,-578.97 969.99,-572.41 1010.2,-568.61"/>
<polygon fill="#9a32cd" stroke="#9a32cd" points="848.4,-580.41 838.77,-584.84 849.05,-587.38 848.4,-580.41"/>
<text text-anchor="middle" x="904.5" y="-584.5" font-family="Helvetica,sans-Serif" font-size="10.00"> _Data</text>
</g>
<!-- Node12 -->
<g id="node12" class="node">
<title>Node12</title>
<g id="a_node12"><a xlink:href="struct_im_font.html" target="_top" xlink:title=" ">
<polygon fill="white" stroke="#bfbfbf" points="542,-227 495,-227 495,-208 542,-208 542,-227"/>
<text text-anchor="middle" x="518.5" y="-215" font-family="Helvetica,sans-Serif" font-size="10.00">ImFont</text>
</a>
</g>
</g>
<!-- Node12&#45;&gt;Node11 -->
<g id="edge14" class="edge">
<title>Node12&#45;&gt;Node11</title>
<path fill="none" stroke="#9a32cd" stroke-dasharray="5,2" d="M542.48,-234.55C553.15,-243.71 565.01,-255.91 572,-269.5 594.88,-313.93 556.7,-343.23 590,-380.5 622.9,-417.33 664.95,-372.92 697,-410.5 742.29,-463.6 672.31,-511.29 715,-566.5 719.73,-572.62 726.23,-577.18 733.25,-580.58"/>
<polygon fill="#9a32cd" stroke="#9a32cd" points="544.7,-231.85 534.73,-228.27 540.3,-237.29 544.7,-231.85"/>
<text text-anchor="middle" x="643.5" y="-413.5" font-family="Helvetica,sans-Serif" font-size="10.00"> Font</text>
</g>
<!-- Node18 -->
<g id="node18" class="node">
<title>Node18</title>
<g id="a_node18"><a xlink:href="struct_im_vector.html" target="_top" xlink:title=" ">
<polygon fill="white" stroke="#bfbfbf" points="833,-263 723,-263 723,-244 833,-244 833,-263"/>
<text text-anchor="middle" x="778" y="-251" font-family="Helvetica,sans-Serif" font-size="10.00">ImVector&lt; ImFont * &gt;</text>
</a>
</g>
</g>
<!-- Node12&#45;&gt;Node18 -->
<g id="edge23" class="edge">
<title>Node12&#45;&gt;Node18</title>
<path fill="none" stroke="#9a32cd" stroke-dasharray="5,2" d="M553.6,-219.37C589.47,-221.66 647.47,-226.29 697,-234.5 711.08,-236.84 726.37,-240.25 739.77,-243.53"/>
<polygon fill="#9a32cd" stroke="#9a32cd" points="554.03,-215.89 543.84,-218.77 553.6,-222.87 554.03,-215.89"/>
<text text-anchor="middle" x="643.5" y="-237.5" font-family="Helvetica,sans-Serif" font-size="10.00"> Data</text>
</g>
<!-- Node12&#45;&gt;Node20 -->
<g id="edge27" class="edge">
<title>Node12&#45;&gt;Node20</title>
<path fill="none" stroke="#9a32cd" stroke-dasharray="5,2" d="M552.85,-231.37C600.79,-251.47 684.8,-287.28 697,-296.5 730.4,-321.75 758.91,-363.49 770.92,-382.51"/>
<polygon fill="#9a32cd" stroke="#9a32cd" points="554.32,-228.2 543.75,-227.57 551.62,-234.66 554.32,-228.2"/>
<text text-anchor="middle" x="643.5" y="-299.5" font-family="Helvetica,sans-Serif" font-size="10.00"> Font</text>
</g>
<!-- Node12&#45;&gt;Node22 -->
<g id="edge31" class="edge">
<title>Node12&#45;&gt;Node22</title>
<path fill="none" stroke="#9a32cd" stroke-dasharray="5,2" d="M553.19,-208.36C564.78,-205.48 577.89,-202.53 590,-200.5 641.95,-191.78 702.77,-186.9 740.6,-184.48"/>
<polygon fill="#9a32cd" stroke="#9a32cd" points="552.48,-204.92 543.66,-210.79 554.21,-211.71 552.48,-204.92"/>
<text text-anchor="middle" x="643.5" y="-203.5" font-family="Helvetica,sans-Serif" font-size="10.00"> DstFont</text>
</g>
<!-- Node13 -->
<g id="node13" class="node">
<title>Node13</title>
<g id="a_node13"><a xlink:href="struct_im_vector.html" target="_top" xlink:title=" ">
<polygon fill="white" stroke="#bfbfbf" points="308.5,-247 217.5,-247 217.5,-228 308.5,-228 308.5,-247"/>
<text text-anchor="middle" x="263" y="-235" font-family="Helvetica,sans-Serif" font-size="10.00">ImVector&lt; float &gt;</text>
</a>
</g>
</g>
<!-- Node13&#45;&gt;Node12 -->
<g id="edge15" class="edge">
<title>Node13&#45;&gt;Node12</title>
<path fill="none" stroke="#9a32cd" stroke-dasharray="5,2" d="M320.03,-233.08C374.89,-228.75 455.76,-222.37 494.79,-219.29"/>
<polygon fill="#9a32cd" stroke="#9a32cd" points="319.94,-229.58 310.25,-233.85 320.49,-236.55 319.94,-229.58"/>
<text text-anchor="middle" x="396" y="-234.5" font-family="Helvetica,sans-Serif" font-size="10.00"> IndexAdvanceX</text>
</g>
<!-- Node14 -->
<g id="node14" class="node">
<title>Node14</title>
<g id="a_node14"><a xlink:href="struct_im_vector.html" target="_top" xlink:title=" ">
<polygon fill="white" stroke="#bfbfbf" points="319,-210 207,-210 207,-191 319,-191 319,-210"/>
<text text-anchor="middle" x="263" y="-198" font-family="Helvetica,sans-Serif" font-size="10.00">ImVector&lt; ImWchar &gt;</text>
</a>
</g>
</g>
<!-- Node14&#45;&gt;Node12 -->
<g id="edge16" class="edge">
<title>Node14&#45;&gt;Node12</title>
<path fill="none" stroke="#9a32cd" stroke-dasharray="5,2" d="M330.85,-198.72C365.59,-198.53 408.68,-199.41 447,-203.5 463.13,-205.22 481.06,-208.8 494.8,-211.91"/>
<polygon fill="#9a32cd" stroke="#9a32cd" points="330.89,-195.22 320.93,-198.82 330.96,-202.22 330.89,-195.22"/>
<text text-anchor="middle" x="396" y="-206.5" font-family="Helvetica,sans-Serif" font-size="10.00"> IndexLookup</text>
</g>
<!-- Node15 -->
<g id="node15" class="node">
<title>Node15</title>
<g id="a_node15"><a xlink:href="struct_im_vector.html" target="_top" xlink:title=" ">
<polygon fill="white" stroke="#bfbfbf" points="327,-19 199,-19 199,0 327,0 327,-19"/>
<text text-anchor="middle" x="263" y="-7" font-family="Helvetica,sans-Serif" font-size="10.00">ImVector&lt; ImFontGlyph &gt;</text>
</a>
</g>
</g>
<!-- Node15&#45;&gt;Node12 -->
<g id="edge17" class="edge">
<title>Node15&#45;&gt;Node12</title>
<path fill="none" stroke="#9a32cd" stroke-dasharray="5,2" d="M309.66,-23.06C349.84,-36.9 407.88,-61.75 447,-99.5 481.35,-132.64 505.06,-186.02 513.79,-207.79"/>
<polygon fill="#9a32cd" stroke="#9a32cd" points="310.86,-19.78 300.27,-19.93 308.65,-26.42 310.86,-19.78"/>
<text text-anchor="middle" x="396" y="-102.5" font-family="Helvetica,sans-Serif" font-size="10.00"> Glyphs</text>
</g>
<!-- Node16 -->
<g id="node16" class="node">
<title>Node16</title>
<g id="a_node16"><a xlink:href="struct_im_font_glyph.html" target="_top" xlink:title=" ">
<polygon fill="white" stroke="#bfbfbf" points="80,-52 8,-52 8,-33 80,-33 80,-52"/>
<text text-anchor="middle" x="44" y="-40" font-family="Helvetica,sans-Serif" font-size="10.00">ImFontGlyph</text>
</a>
</g>
</g>
<!-- Node16&#45;&gt;Node12 -->
<g id="edge19" class="edge">
<title>Node16&#45;&gt;Node12</title>
<path fill="none" stroke="#9a32cd" stroke-dasharray="5,2" d="M81.56,-56.48C137.99,-78 249.76,-120.45 345,-155.5 398.46,-175.17 461.5,-197.65 494.58,-209.39"/>
<polygon fill="#9a32cd" stroke="#9a32cd" points="83.04,-53.29 72.45,-53 80.54,-59.83 83.04,-53.29"/>
<text text-anchor="middle" x="263" y="-152.5" font-family="Helvetica,sans-Serif" font-size="10.00"> FallbackGlyph</text>
</g>
<!-- Node16&#45;&gt;Node15 -->
<g id="edge18" class="edge">
<title>Node16&#45;&gt;Node15</title>
<path fill="none" stroke="#9a32cd" stroke-dasharray="5,2" d="M91.62,-33.03C96.47,-32.13 101.33,-31.27 106,-30.5 136.47,-25.46 170.43,-20.77 198.87,-17.12"/>
<polygon fill="#9a32cd" stroke="#9a32cd" points="91.07,-29.57 81.9,-34.87 92.38,-36.45 91.07,-29.57"/>
<text text-anchor="middle" x="143.5" y="-33.5" font-family="Helvetica,sans-Serif" font-size="10.00"> Data</text>
</g>
<!-- Node17&#45;&gt;Node12 -->
<g id="edge20" class="edge">
<title>Node17&#45;&gt;Node12</title>
<path fill="none" stroke="#9a32cd" stroke-dasharray="5,2" d="M281.59,-317.88C297.04,-303.37 320.77,-283.34 345,-271.5 386.94,-251.01 402.63,-260.97 447,-246.5 463.73,-241.04 482.11,-233.43 495.9,-227.37"/>
<polygon fill="#9a32cd" stroke="#9a32cd" points="279.37,-315.16 274.6,-324.62 284.23,-320.2 279.37,-315.16"/>
<text text-anchor="middle" x="396" y="-274.5" font-family="Helvetica,sans-Serif" font-size="10.00"> ContainerAtlas</text>
</g>
<!-- Node18&#45;&gt;Node17 -->
<g id="edge22" class="edge">
<title>Node18&#45;&gt;Node17</title>
<path fill="none" stroke="#9a32cd" stroke-dasharray="5,2" d="M740.31,-267.21C726.86,-271.76 711.4,-276.44 697,-279.5 543.13,-312.21 500.1,-290.26 345,-316.5 329.62,-319.1 312.8,-322.89 298.49,-326.4"/>
<polygon fill="#9a32cd" stroke="#9a32cd" points="741.36,-270.55 749.64,-263.95 739.05,-263.94 741.36,-270.55"/>
<text text-anchor="middle" x="518.5" y="-306.5" font-family="Helvetica,sans-Serif" font-size="10.00"> Fonts</text>
</g>
<!-- Node19 -->
<g id="node19" class="node">
<title>Node19</title>
<g id="a_node19"><a xlink:href="struct_im_vector.html" target="_top" xlink:title=" ">
<polygon fill="white" stroke="#bfbfbf" points="1120,-377.5 968,-377.5 968,-347.5 1120,-347.5 1120,-377.5"/>
<text text-anchor="start" x="976" y="-365.5" font-family="Helvetica,sans-Serif" font-size="10.00">ImVector&lt; ImFontAtlasCustom</text>
<text text-anchor="middle" x="1044" y="-354.5" font-family="Helvetica,sans-Serif" font-size="10.00">Rect &gt;</text>
</a>
</g>
</g>
<!-- Node19&#45;&gt;Node17 -->
<g id="edge24" class="edge">
<title>Node19&#45;&gt;Node17</title>
<path fill="none" stroke="#9a32cd" stroke-dasharray="5,2" d="M956.28,-362.63C824.2,-362.28 564.75,-359.51 345,-344.5 329.61,-343.45 312.65,-341.66 298.23,-339.95"/>
<polygon fill="#9a32cd" stroke="#9a32cd" points="955.98,-366.12 965.99,-362.65 955.99,-359.12 955.98,-366.12"/>
<text text-anchor="middle" x="643.5" y="-362.5" font-family="Helvetica,sans-Serif" font-size="10.00"> CustomRects</text>
</g>
<!-- Node20&#45;&gt;Node19 -->
<g id="edge25" class="edge">
<title>Node20&#45;&gt;Node19</title>
<path fill="none" stroke="#9a32cd" stroke-dasharray="5,2" d="M851.22,-384.29C887.47,-380.17 931.34,-375.19 967.97,-371.03"/>
<polygon fill="#9a32cd" stroke="#9a32cd" points="851.28,-380.76 841.73,-385.37 852.07,-387.72 851.28,-380.76"/>
<text text-anchor="middle" x="904.5" y="-386.5" font-family="Helvetica,sans-Serif" font-size="10.00"> Data</text>
</g>
<!-- Node21 -->
<g id="node21" class="node">
<title>Node21</title>
<g id="a_node21"><a xlink:href="struct_im_vector.html" target="_top" xlink:title=" ">
<polygon fill="white" stroke="#bfbfbf" points="1109.5,-268 978.5,-268 978.5,-249 1109.5,-249 1109.5,-268"/>
<text text-anchor="middle" x="1044" y="-256" font-family="Helvetica,sans-Serif" font-size="10.00">ImVector&lt; ImFontConfig &gt;</text>
</a>
</g>
</g>
<!-- Node21&#45;&gt;Node17 -->
<g id="edge28" class="edge">
<title>Node21&#45;&gt;Node17</title>
<path fill="none" stroke="#9a32cd" stroke-dasharray="5,2" d="M966.74,-269.6C873.74,-282.75 711.66,-304.38 572,-316.5 472.73,-325.12 355.12,-331.24 298.22,-333.95"/>
<polygon fill="#9a32cd" stroke="#9a32cd" points="967.11,-273.09 976.51,-268.22 966.12,-266.16 967.11,-273.09"/>
<text text-anchor="middle" x="643.5" y="-318.5" font-family="Helvetica,sans-Serif" font-size="10.00"> ConfigData</text>
</g>
<!-- Node22&#45;&gt;Node12 -->
<g id="edge34" class="edge">
<title>Node22&#45;&gt;Node12</title>
<path fill="none" stroke="#9a32cd" stroke-dasharray="5,2" d="M729.85,-171.96C691.45,-165.32 636.21,-160.26 590,-173.5 566.7,-180.17 543.62,-197.04 530.5,-207.84"/>
<polygon fill="#9a32cd" stroke="#9a32cd" points="728.75,-175.32 739.22,-173.68 730.01,-168.43 728.75,-175.32"/>
<text text-anchor="middle" x="643.5" y="-176.5" font-family="Helvetica,sans-Serif" font-size="10.00"> ConfigData</text>
</g>
<!-- Node22&#45;&gt;Node21 -->
<g id="edge29" class="edge">
<title>Node22&#45;&gt;Node21</title>
<path fill="none" stroke="#9a32cd" stroke-dasharray="5,2" d="M824.47,-195.59C876.73,-210.63 961.34,-234.99 1008.48,-248.56"/>
<polygon fill="#9a32cd" stroke="#9a32cd" points="825.55,-192.26 814.97,-192.85 823.61,-198.98 825.55,-192.26"/>
<text text-anchor="middle" x="904.5" y="-233.5" font-family="Helvetica,sans-Serif" font-size="10.00"> Data</text>
</g>
<!-- Node23 -->
<g id="node23" class="node">
<title>Node23</title>
<g id="a_node23"><a xlink:href="struct_im_font_builder_i_o.html" target="_top" xlink:title=" ">
<polygon fill="white" stroke="#bfbfbf" points="88,-345 0,-345 0,-326 88,-326 88,-345"/>
<text text-anchor="middle" x="44" y="-333" font-family="Helvetica,sans-Serif" font-size="10.00">ImFontBuilderIO</text>
</a>
</g>
</g>
<!-- Node23&#45;&gt;Node17 -->
<g id="edge33" class="edge">
<title>Node23&#45;&gt;Node17</title>
<path fill="none" stroke="#9a32cd" stroke-dasharray="5,2" d="M99.87,-335.5C140.03,-335.5 193.28,-335.5 227.6,-335.5"/>
<polygon fill="#9a32cd" stroke="#9a32cd" points="99.91,-332 89.91,-335.5 99.91,-339 99.91,-332"/>
<text text-anchor="middle" x="143.5" y="-338.5" font-family="Helvetica,sans-Serif" font-size="10.00"> FontBuilderIO</text>
</g>
<!-- Node24&#45;&gt;Node4 -->
<g id="edge42" class="edge">
<title>Node24&#45;&gt;Node4</title>
<path fill="none" stroke="#9a32cd" stroke-dasharray="5,2" d="M583.46,-642.18C668.26,-638.01 822.11,-626.65 950,-596.5 973.19,-591.03 998.83,-582.27 1017.3,-575.46"/>
<polygon fill="#9a32cd" stroke="#9a32cd" points="583.55,-638.67 573.72,-642.63 583.88,-645.66 583.55,-638.67"/>
<text text-anchor="middle" x="778" y="-634.5" font-family="Helvetica,sans-Serif" font-size="10.00"> _Path</text>
</g>
<!-- Node24&#45;&gt;Node11 -->
<g id="edge36" class="edge">
<title>Node24&#45;&gt;Node11</title>
<path fill="none" stroke="#9a32cd" stroke-dasharray="5,2" d="M557.55,-630.92C567.98,-627.52 579.35,-624.11 590,-621.5 632.68,-611.06 681.7,-603.08 718.84,-597.83"/>
<polygon fill="#9a32cd" stroke="#9a32cd" points="556.48,-627.59 548.11,-634.09 558.71,-634.23 556.48,-627.59"/>
<text text-anchor="middle" x="643.5" y="-624.5" font-family="Helvetica,sans-Serif" font-size="10.00"> TempBuffer</text>
</g>
<!-- Node25&#45;&gt;Node4 -->
<g id="edge39" class="edge">
<title>Node25&#45;&gt;Node4</title>
<path fill="none" stroke="#9a32cd" stroke-dasharray="5,2" d="M708.87,-538.67C794.96,-545.58 944.35,-557.58 1010.21,-562.87"/>
<polygon fill="#9a32cd" stroke="#9a32cd" points="709.17,-535.18 698.93,-537.87 708.61,-542.16 709.17,-535.18"/>
<text text-anchor="middle" x="778" y="-551.5" font-family="Helvetica,sans-Serif" font-size="10.00"> _ClipRectStack</text>
</g>
<!-- Node26 -->
<g id="node26" class="node">
<title>Node26</title>
<g id="a_node26"><a xlink:href="struct_im_vector.html" target="_top" xlink:title=" ">
<polygon fill="white" stroke="#bfbfbf" points="841,-515 715,-515 715,-496 841,-496 841,-515"/>
<text text-anchor="middle" x="778" y="-503" font-family="Helvetica,sans-Serif" font-size="10.00">ImVector&lt; ImTextureID &gt;</text>
</a>
</g>
</g>
<!-- Node26&#45;&gt;Node4 -->
<g id="edge41" class="edge">
<title>Node26&#45;&gt;Node4</title>
<path fill="none" stroke="#9a32cd" stroke-dasharray="5,2" d="M852.55,-510.07C883.06,-513.12 918.6,-518.16 950,-526.5 976.4,-533.51 1005.16,-546.46 1023.6,-555.51"/>
<polygon fill="#9a32cd" stroke="#9a32cd" points="852.91,-506.59 842.62,-509.14 852.25,-513.56 852.91,-506.59"/>
<text text-anchor="middle" x="904.5" y="-529.5" font-family="Helvetica,sans-Serif" font-size="10.00"> _TextureIdStack</text>
</g>
<!-- Node27&#45;&gt;Node4 -->
<g id="edge43" class="edge">
<title>Node27&#45;&gt;Node4</title>
<path fill="none" stroke="#9a32cd" stroke-dasharray="5,2" d="M458.58,-433.64C583.25,-444.61 861.21,-472.17 950,-506.5 981.57,-518.71 1013.94,-542.24 1030.92,-555.6"/>
<polygon fill="#9a32cd" stroke="#9a32cd" points="459.14,-430.17 448.87,-432.79 458.53,-437.15 459.14,-430.17"/>
<text text-anchor="middle" x="643.5" y="-460.5" font-family="Helvetica,sans-Serif" font-size="10.00"> _CmdHeader</text>
</g>
<!-- Node28 -->
<g id="node28" class="node">
<title>Node28</title>
<g id="a_node28"><a xlink:href="struct_im_draw_list_splitter.html" target="_top" xlink:title=" ">
<polygon fill="white" stroke="#bfbfbf" points="2140,-527 2042,-527 2042,-508 2140,-508 2140,-527"/>
<text text-anchor="middle" x="2091" y="-515" font-family="Helvetica,sans-Serif" font-size="10.00">ImDrawListSplitter</text>
</a>
</g>
</g>
<!-- Node28&#45;&gt;Node4 -->
<g id="edge45" class="edge">
<title>Node28&#45;&gt;Node4</title>
<path fill="none" stroke="#9a32cd" stroke-dasharray="5,2" d="M2030.46,-526.02C1990.08,-531.07 1935.43,-536.5 1887,-536.5 1280.5,-536.5 1280.5,-536.5 1280.5,-536.5 1207.79,-536.5 1123.4,-550.29 1077.99,-558.85"/>
<polygon fill="#9a32cd" stroke="#9a32cd" points="2030.75,-529.51 2040.22,-524.77 2029.85,-522.57 2030.75,-529.51"/>
<text text-anchor="middle" x="1612" y="-539.5" font-family="Helvetica,sans-Serif" font-size="10.00"> _Splitter</text>
</g>
<!-- Node29 -->
<g id="node29" class="node">
<title>Node29</title>
<g id="a_node29"><a xlink:href="struct_im_vector.html" target="_top" xlink:title=" ">
<polygon fill="white" stroke="#bfbfbf" points="1957,-508 1815,-508 1815,-489 1957,-489 1957,-508"/>
<text text-anchor="middle" x="1886" y="-496" font-family="Helvetica,sans-Serif" font-size="10.00">ImVector&lt; ImDrawChannel &gt;</text>
</a>
</g>
</g>
<!-- Node29&#45;&gt;Node28 -->
<g id="edge46" class="edge">
<title>Node29&#45;&gt;Node28</title>
<path fill="none" stroke="#9a32cd" stroke-dasharray="5,2" d="M1968.68,-506.14C1993.46,-508.46 2019.88,-510.94 2041.71,-512.98"/>
<polygon fill="#9a32cd" stroke="#9a32cd" points="1969.22,-502.68 1958.94,-505.23 1968.57,-509.65 1969.22,-502.68"/>
<text text-anchor="middle" x="1999.5" y="-513.5" font-family="Helvetica,sans-Serif" font-size="10.00"> _Channels</text>
</g>
<!-- Node30&#45;&gt;Node29 -->
<g id="edge47" class="edge">
<title>Node30&#45;&gt;Node29</title>
<path fill="none" stroke="#9a32cd" stroke-dasharray="5,2" d="M1766.38,-487.47C1781.61,-488.88 1798.45,-490.45 1814.54,-491.95"/>
<polygon fill="#9a32cd" stroke="#9a32cd" points="1766.86,-484 1756.58,-486.55 1766.22,-490.97 1766.86,-484"/>
<text text-anchor="middle" x="1785.5" y="-492.5" font-family="Helvetica,sans-Serif" font-size="10.00"> Data</text>
</g>
<!-- Node31&#45;&gt;Node1 -->
<g id="edge50" class="edge">
<title>Node31&#45;&gt;Node1</title>
<path fill="none" stroke="#9a32cd" stroke-dasharray="5,2" d="M1328.97,-689.6C1399.06,-690.45 1535.77,-694.77 1650,-714.5 1656.64,-715.65 1663.64,-717.06 1670.44,-718.54"/>
<polygon fill="#9a32cd" stroke="#9a32cd" points="1329.04,-686.1 1319.01,-689.5 1328.97,-693.1 1329.04,-686.1"/>
<text text-anchor="middle" x="1492.5" y="-704.5" font-family="Helvetica,sans-Serif" font-size="10.00"> DrawDataP</text>
</g>
<!-- Node32 -->
<g id="node32" class="node">
<title>Node32</title>
<g id="a_node32"><a xlink:href="struct_im_draw_data_builder.html" target="_top" xlink:title=" ">
<polygon fill="white" stroke="#bfbfbf" points="1543,-607 1442,-607 1442,-588 1543,-588 1543,-607"/>
<text text-anchor="middle" x="1492.5" y="-595" font-family="Helvetica,sans-Serif" font-size="10.00">ImDrawDataBuilder</text>
</a>
</g>
</g>
<!-- Node32&#45;&gt;Node1 -->
<g id="edge53" class="edge">
<title>Node32&#45;&gt;Node1</title>
<path fill="none" stroke="#9a32cd" stroke-dasharray="5,2" d="M1537.56,-610.98C1570.33,-622.24 1615.21,-640.34 1650,-664.5 1672.44,-680.08 1693.17,-704.94 1703.71,-718.64"/>
<polygon fill="#9a32cd" stroke="#9a32cd" points="1538.97,-607.76 1528.38,-607.9 1536.75,-614.4 1538.97,-607.76"/>
<text text-anchor="middle" x="1612" y="-667.5" font-family="Helvetica,sans-Serif" font-size="10.00"> DrawDataBuilder</text>
</g>
<!-- Node33&#45;&gt;Node32 -->
<g id="edge54" class="edge">
<title>Node33&#45;&gt;Node32</title>
<path fill="none" stroke="#9a32cd" stroke-dasharray="5,2" d="M1357.68,-592.38C1385.59,-593.45 1416.54,-594.63 1441.63,-595.59"/>
<polygon fill="#9a32cd" stroke="#9a32cd" points="1357.98,-588.89 1347.85,-592 1357.71,-595.88 1357.98,-588.89"/>
<text text-anchor="middle" x="1387.5" y="-596.5" font-family="Helvetica,sans-Serif" font-size="10.00"> Layers</text>
</g>
</g>
</svg>
