<?xml version="1.0" encoding="UTF-8" standalone="no"?>
<!DOCTYPE svg PUBLIC "-//W3C//DTD SVG 1.1//EN"
 "http://www.w3.org/Graphics/SVG/1.1/DTD/svg11.dtd">
<!-- Generated by graphviz version 7.0.5 (20221223.1930)
 -->
<!-- Title: ImGuiOldColumnData Pages: 1 -->
<svg width="119pt" height="170pt"
 viewBox="0.00 0.00 119.00 170.00" xmlns="http://www.w3.org/2000/svg" xmlns:xlink="http://www.w3.org/1999/xlink">
<g id="graph0" class="graph" transform="scale(1 1) rotate(0) translate(4 166)">
<title>ImGuiOldColumnData</title>
<!-- Node1 -->
<g id="node1" class="node">
<title>Node1</title>
<g id="a_node1"><a xlink:title=" ">
<polygon fill="#999999" stroke="#666666" points="111,-19 0,-19 0,0 111,0 111,-19"/>
<text text-anchor="middle" x="55.5" y="-7" font-family="Helvetica,sans-Serif" font-size="10.00">ImGuiOldColumnData</text>
</a>
</g>
</g>
<!-- Node2 -->
<g id="node2" class="node">
<title>Node2</title>
<g id="a_node2"><a xlink:href="struct_im_rect.html" target="_top" xlink:title=" ">
<polygon fill="white" stroke="#bfbfbf" points="79.5,-85 31.5,-85 31.5,-66 79.5,-66 79.5,-85"/>
<text text-anchor="middle" x="55.5" y="-73" font-family="Helvetica,sans-Serif" font-size="10.00">ImRect</text>
</a>
</g>
</g>
<!-- Node2&#45;&gt;Node1 -->
<g id="edge1" class="edge">
<title>Node2&#45;&gt;Node1</title>
<path fill="none" stroke="#9a32cd" stroke-dasharray="5,2" d="M55.5,-54.18C55.5,-42.44 55.5,-28.27 55.5,-19.32"/>
<polygon fill="#9a32cd" stroke="#9a32cd" points="52,-54.09 55.5,-64.09 59,-54.09 52,-54.09"/>
<text text-anchor="middle" x="75.5" y="-40" font-family="Helvetica,sans-Serif" font-size="10.00"> ClipRect</text>
</g>
<!-- Node3 -->
<g id="node3" class="node">
<title>Node3</title>
<g id="a_node3"><a xlink:href="struct_im_vec2.html" target="_top" xlink:title=" ">
<polygon fill="white" stroke="#bfbfbf" points="80.5,-162 30.5,-162 30.5,-143 80.5,-143 80.5,-162"/>
<text text-anchor="middle" x="55.5" y="-150" font-family="Helvetica,sans-Serif" font-size="10.00">ImVec2</text>
</a>
</g>
</g>
<!-- Node3&#45;&gt;Node2 -->
<g id="edge2" class="edge">
<title>Node3&#45;&gt;Node2</title>
<path fill="none" stroke="#9a32cd" stroke-dasharray="5,2" d="M55.5,-131.42C55.5,-116.43 55.5,-96.66 55.5,-85.39"/>
<polygon fill="#9a32cd" stroke="#9a32cd" points="52,-131.09 55.5,-141.09 59,-131.09 52,-131.09"/>
<text text-anchor="middle" x="66" y="-117" font-family="Helvetica,sans-Serif" font-size="10.00"> Max</text>
<text text-anchor="middle" x="66" y="-106" font-family="Helvetica,sans-Serif" font-size="10.00">Min</text>
</g>
</g>
</svg>
