<?xml version="1.0" encoding="UTF-8" standalone="no"?>
<!DOCTYPE svg PUBLIC "-//W3C//DTD SVG 1.1//EN"
 "http://www.w3.org/Graphics/SVG/1.1/DTD/svg11.dtd">
<!-- Generated by graphviz version 7.0.5 (20221223.1930)
 -->
<!-- Title: stbrp_context Pages: 1 -->
<svg width="117pt" height="115pt"
 viewBox="0.00 0.00 117.00 115.00" xmlns="http://www.w3.org/2000/svg" xmlns:xlink="http://www.w3.org/1999/xlink">
<g id="graph0" class="graph" transform="scale(1 1) rotate(0) translate(4 111)">
<title>stbrp_context</title>
<!-- Node1 -->
<g id="node1" class="node">
<title>Node1</title>
<g id="a_node1"><a xlink:title=" ">
<polygon fill="#999999" stroke="#666666" points="75,-19 0,-19 0,0 75,0 75,-19"/>
<text text-anchor="middle" x="37.5" y="-7" font-family="Helvetica,sans-Serif" font-size="10.00">stbrp_context</text>
</a>
</g>
</g>
<!-- Node2 -->
<g id="node2" class="node">
<title>Node2</title>
<g id="a_node2"><a xlink:href="structstbrp__node.html" target="_top" xlink:title=" ">
<polygon fill="white" stroke="#bfbfbf" points="70,-107 5,-107 5,-88 70,-88 70,-107"/>
<text text-anchor="middle" x="37.5" y="-95" font-family="Helvetica,sans-Serif" font-size="10.00">stbrp_node</text>
</a>
</g>
</g>
<!-- Node2&#45;&gt;Node1 -->
<g id="edge1" class="edge">
<title>Node2&#45;&gt;Node1</title>
<path fill="none" stroke="#9a32cd" stroke-dasharray="5,2" d="M37.5,-76.37C37.5,-58.37 37.5,-32.83 37.5,-19.46"/>
<polygon fill="#9a32cd" stroke="#9a32cd" points="34,-76.11 37.5,-86.11 41,-76.11 34,-76.11"/>
<text text-anchor="middle" x="65" y="-62" font-family="Helvetica,sans-Serif" font-size="10.00"> active_head</text>
<text text-anchor="middle" x="65" y="-51" font-family="Helvetica,sans-Serif" font-size="10.00">extra</text>
<text text-anchor="middle" x="65" y="-40" font-family="Helvetica,sans-Serif" font-size="10.00">free_head</text>
</g>
<!-- Node2&#45;&gt;Node2 -->
<g id="edge2" class="edge">
<title>Node2&#45;&gt;Node2</title>
<path fill="none" stroke="#9a32cd" stroke-dasharray="5,2" d="M81.19,-104.15C85.36,-102.8 88,-100.58 88,-97.5 88,-92.17 80.1,-89.42 70.04,-89.26"/>
<polygon fill="#9a32cd" stroke="#9a32cd" points="80.95,-100.65 71.54,-105.53 81.93,-107.58 80.95,-100.65"/>
<text text-anchor="middle" x="98.5" y="-95" font-family="Helvetica,sans-Serif" font-size="10.00"> next</text>
</g>
</g>
</svg>
