<?xml version="1.0" encoding="UTF-8" standalone="no"?>
<!DOCTYPE svg PUBLIC "-//W3C//DTD SVG 1.1//EN"
 "http://www.w3.org/Graphics/SVG/1.1/DTD/svg11.dtd">
<!-- Generated by graphviz version 7.0.5 (20221223.1930)
 -->
<!-- Title: anonymous_namespace{imgui_demo.cpp}::MyItem Pages: 1 -->
<svg width="178pt" height="170pt"
 viewBox="0.00 0.00 178.00 170.00" xmlns="http://www.w3.org/2000/svg" xmlns:xlink="http://www.w3.org/1999/xlink">
<g id="graph0" class="graph" transform="scale(1 1) rotate(0) translate(4 166)">
<title>anonymous_namespace{imgui_demo.cpp}::MyItem</title>
<!-- Node1 -->
<g id="node1" class="node">
<title>Node1</title>
<g id="a_node1"><a xlink:title=" ">
<polygon fill="#999999" stroke="#666666" points="138,-30 8,-30 8,0 138,0 138,-30"/>
<text text-anchor="start" x="16" y="-18" font-family="Helvetica,sans-Serif" font-size="10.00">anonymous_namespace</text>
<text text-anchor="middle" x="73" y="-7" font-family="Helvetica,sans-Serif" font-size="10.00">{imgui_demo.cpp}::MyItem</text>
</a>
</g>
</g>
<!-- Node2 -->
<g id="node2" class="node">
<title>Node2</title>
<g id="a_node2"><a xlink:href="struct_im_gui_table_sort_specs.html" target="_top" xlink:title=" ">
<polygon fill="white" stroke="#bfbfbf" points="129.5,-96 16.5,-96 16.5,-77 129.5,-77 129.5,-96"/>
<text text-anchor="middle" x="73" y="-84" font-family="Helvetica,sans-Serif" font-size="10.00">ImGuiTableSortSpecs</text>
</a>
</g>
</g>
<!-- Node2&#45;&gt;Node1 -->
<g id="edge1" class="edge">
<title>Node2&#45;&gt;Node1</title>
<path fill="none" stroke="#9a32cd" stroke-dasharray="5,2" d="M73,-65.39C73,-54.15 73,-40.41 73,-30.27"/>
<polygon fill="#9a32cd" stroke="#9a32cd" points="69.5,-65.18 73,-75.18 76.5,-65.18 69.5,-65.18"/>
<text text-anchor="middle" x="121.5" y="-51" font-family="Helvetica,sans-Serif" font-size="10.00"> s_current_sort_specs</text>
</g>
<!-- Node3 -->
<g id="node3" class="node">
<title>Node3</title>
<g id="a_node3"><a xlink:href="struct_im_gui_table_column_sort_specs.html" target="_top" xlink:title=" ">
<polygon fill="white" stroke="#bfbfbf" points="146,-162 0,-162 0,-143 146,-143 146,-162"/>
<text text-anchor="middle" x="73" y="-150" font-family="Helvetica,sans-Serif" font-size="10.00">ImGuiTableColumnSortSpecs</text>
</a>
</g>
</g>
<!-- Node3&#45;&gt;Node2 -->
<g id="edge2" class="edge">
<title>Node3&#45;&gt;Node2</title>
<path fill="none" stroke="#9a32cd" stroke-dasharray="5,2" d="M73,-131.18C73,-119.44 73,-105.27 73,-96.32"/>
<polygon fill="#9a32cd" stroke="#9a32cd" points="69.5,-131.09 73,-141.09 76.5,-131.09 69.5,-131.09"/>
<text text-anchor="middle" x="88.5" y="-117" font-family="Helvetica,sans-Serif" font-size="10.00"> Specs</text>
</g>
</g>
</svg>
