<?xml version="1.0" encoding="UTF-8" standalone="no"?>
<!DOCTYPE svg PUBLIC "-//W3C//DTD SVG 1.1//EN"
 "http://www.w3.org/Graphics/SVG/1.1/DTD/svg11.dtd">
<!-- Generated by graphviz version 7.0.5 (20221223.1930)
 -->
<!-- Title: ImGuiGroupData Pages: 1 -->
<svg width="234pt" height="115pt"
 viewBox="0.00 0.00 234.00 115.00" xmlns="http://www.w3.org/2000/svg" xmlns:xlink="http://www.w3.org/1999/xlink">
<g id="graph0" class="graph" transform="scale(1 1) rotate(0) translate(4 111)">
<title>ImGuiGroupData</title>
<!-- Node1 -->
<g id="node1" class="node">
<title>Node1</title>
<g id="a_node1"><a xlink:title=" ">
<polygon fill="#999999" stroke="#666666" points="129.5,-19 40.5,-19 40.5,0 129.5,0 129.5,-19"/>
<text text-anchor="middle" x="85" y="-7" font-family="Helvetica,sans-Serif" font-size="10.00">ImGuiGroupData</text>
</a>
</g>
</g>
<!-- Node2 -->
<g id="node2" class="node">
<title>Node2</title>
<g id="a_node2"><a xlink:href="struct_im_vec2.html" target="_top" xlink:title=" ">
<polygon fill="white" stroke="#bfbfbf" points="50,-107 0,-107 0,-88 50,-88 50,-107"/>
<text text-anchor="middle" x="25" y="-95" font-family="Helvetica,sans-Serif" font-size="10.00">ImVec2</text>
</a>
</g>
</g>
<!-- Node2&#45;&gt;Node1 -->
<g id="edge1" class="edge">
<title>Node2&#45;&gt;Node1</title>
<path fill="none" stroke="#9a32cd" stroke-dasharray="5,2" d="M20.25,-76.58C18.46,-64.2 18.41,-48.52 26,-37 31.31,-28.94 39.72,-23.3 48.53,-19.37"/>
<polygon fill="#9a32cd" stroke="#9a32cd" points="16.76,-76.94 22.11,-86.09 23.63,-75.6 16.76,-76.94"/>
<text text-anchor="middle" x="74.5" y="-62" font-family="Helvetica,sans-Serif" font-size="10.00"> BackupCurrLineSize</text>
<text text-anchor="middle" x="74.5" y="-51" font-family="Helvetica,sans-Serif" font-size="10.00">BackupCursorMaxPos</text>
<text text-anchor="middle" x="74.5" y="-40" font-family="Helvetica,sans-Serif" font-size="10.00">BackupCursorPos</text>
</g>
<!-- Node3 -->
<g id="node3" class="node">
<title>Node3</title>
<g id="a_node3"><a xlink:href="struct_im_vec1.html" target="_top" xlink:title=" ">
<polygon fill="white" stroke="#bfbfbf" points="170,-107 120,-107 120,-88 170,-88 170,-107"/>
<text text-anchor="middle" x="145" y="-95" font-family="Helvetica,sans-Serif" font-size="10.00">ImVec1</text>
</a>
</g>
</g>
<!-- Node3&#45;&gt;Node1 -->
<g id="edge2" class="edge">
<title>Node3&#45;&gt;Node1</title>
<path fill="none" stroke="#9a32cd" stroke-dasharray="5,2" d="M140.88,-76.66C137.59,-64.31 131.99,-48.63 123,-37 117.49,-29.87 109.53,-23.91 102.31,-19.46"/>
<polygon fill="#9a32cd" stroke="#9a32cd" points="137.42,-77.21 143.11,-86.14 144.23,-75.61 137.42,-77.21"/>
<text text-anchor="middle" x="182" y="-56.5" font-family="Helvetica,sans-Serif" font-size="10.00"> BackupGroupOffset</text>
<text text-anchor="middle" x="182" y="-45.5" font-family="Helvetica,sans-Serif" font-size="10.00">BackupIndent</text>
</g>
</g>
</svg>
