<?xml version="1.0" encoding="UTF-8" standalone="no"?>
<!DOCTYPE svg PUBLIC "-//W3C//DTD SVG 1.1//EN"
 "http://www.w3.org/Graphics/SVG/1.1/DTD/svg11.dtd">
<!-- Generated by graphviz version 7.0.5 (20221223.1930)
 -->
<!-- Title: ImFontConfig Pages: 1 -->
<svg width="1241pt" height="334pt"
 viewBox="0.00 0.00 1241.00 333.50" xmlns="http://www.w3.org/2000/svg" xmlns:xlink="http://www.w3.org/1999/xlink">
<g id="graph0" class="graph" transform="scale(1 1) rotate(0) translate(4 329.5)">
<title>ImFontConfig</title>
<!-- Node1 -->
<g id="node1" class="node">
<title>Node1</title>
<g id="a_node1"><a xlink:title=" ">
<polygon fill="#999999" stroke="#666666" points="294,-220 220,-220 220,-201 294,-201 294,-220"/>
<text text-anchor="middle" x="257" y="-208" font-family="Helvetica,sans-Serif" font-size="10.00">ImFontConfig</text>
</a>
</g>
</g>
<!-- Node3 -->
<g id="node3" class="node">
<title>Node3</title>
<g id="a_node3"><a xlink:href="struct_im_font.html" target="_top" xlink:title=" ">
<polygon fill="white" stroke="#bfbfbf" points="475,-139 428,-139 428,-120 475,-120 475,-139"/>
<text text-anchor="middle" x="451.5" y="-127" font-family="Helvetica,sans-Serif" font-size="10.00">ImFont</text>
</a>
</g>
</g>
<!-- Node1&#45;&gt;Node3 -->
<g id="edge20" class="edge">
<title>Node1&#45;&gt;Node3</title>
<path fill="none" stroke="#9a32cd" stroke-dasharray="5,2" d="M305.53,-201.26C343.2,-193.4 392.35,-181.78 410,-171.5 424.01,-163.34 436.32,-148.98 443.59,-139.35"/>
<polygon fill="#9a32cd" stroke="#9a32cd" points="304.83,-197.84 295.74,-203.27 306.24,-204.69 304.83,-197.84"/>
<text text-anchor="middle" x="374.5" y="-196.5" font-family="Helvetica,sans-Serif" font-size="10.00"> ConfigData</text>
</g>
<!-- Node12 -->
<g id="node12" class="node">
<title>Node12</title>
<g id="a_node12"><a xlink:href="struct_im_vector.html" target="_top" xlink:title=" ">
<polygon fill="white" stroke="#bfbfbf" points="624,-237 493,-237 493,-218 624,-218 624,-237"/>
<text text-anchor="middle" x="558.5" y="-225" font-family="Helvetica,sans-Serif" font-size="10.00">ImVector&lt; ImFontConfig &gt;</text>
</a>
</g>
</g>
<!-- Node1&#45;&gt;Node12 -->
<g id="edge17" class="edge">
<title>Node1&#45;&gt;Node12</title>
<path fill="none" stroke="#9a32cd" stroke-dasharray="5,2" d="M305.68,-213.21C356.25,-216.08 436.46,-220.63 492.73,-223.82"/>
<polygon fill="#9a32cd" stroke="#9a32cd" points="306.12,-209.73 295.94,-212.65 305.72,-216.71 306.12,-209.73"/>
<text text-anchor="middle" x="374.5" y="-221.5" font-family="Helvetica,sans-Serif" font-size="10.00"> Data</text>
</g>
<!-- Node2 -->
<g id="node2" class="node">
<title>Node2</title>
<g id="a_node2"><a xlink:href="struct_im_vec2.html" target="_top" xlink:title=" ">
<polygon fill="white" stroke="#bfbfbf" points="61,-275 11,-275 11,-256 61,-256 61,-275"/>
<text text-anchor="middle" x="36" y="-263" font-family="Helvetica,sans-Serif" font-size="10.00">ImVec2</text>
</a>
</g>
</g>
<!-- Node2&#45;&gt;Node1 -->
<g id="edge1" class="edge">
<title>Node2&#45;&gt;Node1</title>
<path fill="none" stroke="#9a32cd" stroke-dasharray="5,2" d="M56.78,-248.69C66.24,-241.57 78.08,-233.92 90,-229.5 132.56,-213.71 185.12,-210.12 219.55,-209.72"/>
<polygon fill="#9a32cd" stroke="#9a32cd" points="54.73,-245.85 49.07,-254.81 59.08,-251.33 54.73,-245.85"/>
<text text-anchor="middle" x="132.5" y="-243.5" font-family="Helvetica,sans-Serif" font-size="10.00"> GlyphExtraSpacing</text>
<text text-anchor="middle" x="132.5" y="-232.5" font-family="Helvetica,sans-Serif" font-size="10.00">GlyphOffset</text>
</g>
<!-- Node8 -->
<g id="node8" class="node">
<title>Node8</title>
<g id="a_node8"><a xlink:href="struct_im_font_atlas.html" target="_top" xlink:title=" ">
<polygon fill="white" stroke="#bfbfbf" points="1233,-185 1163,-185 1163,-166 1233,-166 1233,-185"/>
<text text-anchor="middle" x="1198" y="-173" font-family="Helvetica,sans-Serif" font-size="10.00">ImFontAtlas</text>
</a>
</g>
</g>
<!-- Node2&#45;&gt;Node8 -->
<g id="edge9" class="edge">
<title>Node2&#45;&gt;Node8</title>
<path fill="none" stroke="#9a32cd" stroke-dasharray="5,2" d="M72.39,-275.5C115.42,-286.76 190.43,-303.5 256,-303.5 256,-303.5 256,-303.5 989,-303.5 1060.58,-303.5 1087.76,-306.48 1145,-263.5 1172.25,-243.04 1187.87,-203.77 1193.98,-185.41"/>
<polygon fill="#9a32cd" stroke="#9a32cd" points="73.42,-272.15 62.85,-272.95 71.61,-278.91 73.42,-272.15"/>
<text text-anchor="middle" x="558.5" y="-317.5" font-family="Helvetica,sans-Serif" font-size="10.00"> TexUvScale</text>
<text text-anchor="middle" x="558.5" y="-306.5" font-family="Helvetica,sans-Serif" font-size="10.00">TexUvWhitePixel</text>
</g>
<!-- Node11 -->
<g id="node11" class="node">
<title>Node11</title>
<g id="a_node11"><a xlink:href="struct_im_font_atlas_custom_rect.html" target="_top" xlink:title=" ">
<polygon fill="white" stroke="#bfbfbf" points="766,-267 642,-267 642,-248 766,-248 766,-267"/>
<text text-anchor="middle" x="704" y="-255" font-family="Helvetica,sans-Serif" font-size="10.00">ImFontAtlasCustomRect</text>
</a>
</g>
</g>
<!-- Node2&#45;&gt;Node11 -->
<g id="edge14" class="edge">
<title>Node2&#45;&gt;Node11</title>
<path fill="none" stroke="#9a32cd" stroke-dasharray="5,2" d="M72.71,-265.07C180.77,-263.77 505.17,-259.88 641.54,-258.24"/>
<polygon fill="#9a32cd" stroke="#9a32cd" points="72.96,-261.57 63.01,-265.19 73.05,-268.57 72.96,-261.57"/>
<text text-anchor="middle" x="374.5" y="-264.5" font-family="Helvetica,sans-Serif" font-size="10.00"> GlyphOffset</text>
</g>
<!-- Node3&#45;&gt;Node1 -->
<g id="edge2" class="edge">
<title>Node3&#45;&gt;Node1</title>
<path fill="none" stroke="#9a32cd" stroke-dasharray="5,2" d="M416.6,-136.31C394.05,-141.46 364.08,-149.54 339,-160.5 313.71,-171.55 286.95,-189.46 271.39,-200.58"/>
<polygon fill="#9a32cd" stroke="#9a32cd" points="417.15,-139.77 426.17,-134.2 415.65,-132.93 417.15,-139.77"/>
<text text-anchor="middle" x="374.5" y="-163.5" font-family="Helvetica,sans-Serif" font-size="10.00"> DstFont</text>
</g>
<!-- Node9 -->
<g id="node9" class="node">
<title>Node9</title>
<g id="a_node9"><a xlink:href="struct_im_vector.html" target="_top" xlink:title=" ">
<polygon fill="white" stroke="#bfbfbf" points="894,-181 784,-181 784,-162 894,-162 894,-181"/>
<text text-anchor="middle" x="839" y="-169" font-family="Helvetica,sans-Serif" font-size="10.00">ImVector&lt; ImFont * &gt;</text>
</a>
</g>
</g>
<!-- Node3&#45;&gt;Node9 -->
<g id="edge11" class="edge">
<title>Node3&#45;&gt;Node9</title>
<path fill="none" stroke="#9a32cd" stroke-dasharray="5,2" d="M486.08,-141.82C488.4,-142.45 490.72,-143.02 493,-143.5 594.16,-164.73 715.12,-170.07 783.61,-171.29"/>
<polygon fill="#9a32cd" stroke="#9a32cd" points="487.38,-138.56 476.79,-138.96 485.32,-145.25 487.38,-138.56"/>
<text text-anchor="middle" x="558.5" y="-164.5" font-family="Helvetica,sans-Serif" font-size="10.00"> Data</text>
</g>
<!-- Node3&#45;&gt;Node11 -->
<g id="edge15" class="edge">
<title>Node3&#45;&gt;Node11</title>
<path fill="none" stroke="#9a32cd" stroke-dasharray="5,2" d="M463.55,-149.26C470.58,-159.94 480.67,-172.37 493,-179.5 544.04,-209.03 569.51,-177.97 624,-200.5 651.51,-211.87 678.53,-234.55 692.74,-247.61"/>
<polygon fill="#9a32cd" stroke="#9a32cd" points="466.54,-147.44 458.36,-140.71 460.56,-151.08 466.54,-147.44"/>
<text text-anchor="middle" x="558.5" y="-203.5" font-family="Helvetica,sans-Serif" font-size="10.00"> Font</text>
</g>
<!-- Node4 -->
<g id="node4" class="node">
<title>Node4</title>
<g id="a_node4"><a xlink:href="struct_im_vector.html" target="_top" xlink:title=" ">
<polygon fill="white" stroke="#bfbfbf" points="302.5,-19 211.5,-19 211.5,0 302.5,0 302.5,-19"/>
<text text-anchor="middle" x="257" y="-7" font-family="Helvetica,sans-Serif" font-size="10.00">ImVector&lt; float &gt;</text>
</a>
</g>
</g>
<!-- Node4&#45;&gt;Node3 -->
<g id="edge3" class="edge">
<title>Node4&#45;&gt;Node3</title>
<path fill="none" stroke="#9a32cd" stroke-dasharray="5,2" d="M313.94,-4.32C345.18,-4.36 383.1,-9.63 410,-30.5 438.9,-52.93 447.31,-99.46 449.64,-119.72"/>
<polygon fill="#9a32cd" stroke="#9a32cd" points="314.21,-0.82 304.28,-4.5 314.34,-7.82 314.21,-0.82"/>
<text text-anchor="middle" x="374.5" y="-33.5" font-family="Helvetica,sans-Serif" font-size="10.00"> IndexAdvanceX</text>
</g>
<!-- Node5 -->
<g id="node5" class="node">
<title>Node5</title>
<g id="a_node5"><a xlink:href="struct_im_vector.html" target="_top" xlink:title=" ">
<polygon fill="white" stroke="#bfbfbf" points="313,-56 201,-56 201,-37 313,-37 313,-56"/>
<text text-anchor="middle" x="257" y="-44" font-family="Helvetica,sans-Serif" font-size="10.00">ImVector&lt; ImWchar &gt;</text>
</a>
</g>
</g>
<!-- Node5&#45;&gt;Node3 -->
<g id="edge4" class="edge">
<title>Node5&#45;&gt;Node3</title>
<path fill="none" stroke="#9a32cd" stroke-dasharray="5,2" d="M324.87,-43.84C353.02,-45.61 384.98,-51.65 410,-67.5 429.55,-79.89 441.63,-105.51 447.08,-119.63"/>
<polygon fill="#9a32cd" stroke="#9a32cd" points="325.14,-40.35 314.99,-43.41 324.83,-47.34 325.14,-40.35"/>
<text text-anchor="middle" x="374.5" y="-70.5" font-family="Helvetica,sans-Serif" font-size="10.00"> IndexLookup</text>
</g>
<!-- Node6 -->
<g id="node6" class="node">
<title>Node6</title>
<g id="a_node6"><a xlink:href="struct_im_vector.html" target="_top" xlink:title=" ">
<polygon fill="white" stroke="#bfbfbf" points="321,-141 193,-141 193,-122 321,-122 321,-141"/>
<text text-anchor="middle" x="257" y="-129" font-family="Helvetica,sans-Serif" font-size="10.00">ImVector&lt; ImFontGlyph &gt;</text>
</a>
</g>
</g>
<!-- Node6&#45;&gt;Node3 -->
<g id="edge5" class="edge">
<title>Node6&#45;&gt;Node3</title>
<path fill="none" stroke="#9a32cd" stroke-dasharray="5,2" d="M332.7,-126.72C334.82,-126.64 336.93,-126.56 339,-126.5 370.54,-125.53 378.47,-125.33 410,-126.5 415.78,-126.71 422.01,-127.1 427.81,-127.52"/>
<polygon fill="#9a32cd" stroke="#9a32cd" points="332.56,-123.22 322.73,-127.15 332.87,-130.21 332.56,-123.22"/>
<text text-anchor="middle" x="374.5" y="-129.5" font-family="Helvetica,sans-Serif" font-size="10.00"> Glyphs</text>
</g>
<!-- Node7 -->
<g id="node7" class="node">
<title>Node7</title>
<g id="a_node7"><a xlink:href="struct_im_font_glyph.html" target="_top" xlink:title=" ">
<polygon fill="white" stroke="#bfbfbf" points="72,-122 0,-122 0,-103 72,-103 72,-122"/>
<text text-anchor="middle" x="36" y="-110" font-family="Helvetica,sans-Serif" font-size="10.00">ImFontGlyph</text>
</a>
</g>
</g>
<!-- Node7&#45;&gt;Node3 -->
<g id="edge7" class="edge">
<title>Node7&#45;&gt;Node3</title>
<path fill="none" stroke="#9a32cd" stroke-dasharray="5,2" d="M83.46,-106.58C139.82,-100.35 237.63,-92.59 321,-101.5 358.97,-105.56 402.15,-116.13 427.81,-123.06"/>
<polygon fill="#9a32cd" stroke="#9a32cd" points="83.13,-103.1 73.59,-107.71 83.92,-110.05 83.13,-103.1"/>
<text text-anchor="middle" x="257" y="-104.5" font-family="Helvetica,sans-Serif" font-size="10.00"> FallbackGlyph</text>
</g>
<!-- Node7&#45;&gt;Node6 -->
<g id="edge6" class="edge">
<title>Node7&#45;&gt;Node6</title>
<path fill="none" stroke="#9a32cd" stroke-dasharray="5,2" d="M83.37,-116.52C115.16,-119.28 157.72,-122.97 192.63,-126"/>
<polygon fill="#9a32cd" stroke="#9a32cd" points="83.96,-113.06 73.69,-115.68 83.35,-120.03 83.96,-113.06"/>
<text text-anchor="middle" x="132.5" y="-127.5" font-family="Helvetica,sans-Serif" font-size="10.00"> Data</text>
</g>
<!-- Node8&#45;&gt;Node3 -->
<g id="edge8" class="edge">
<title>Node8&#45;&gt;Node3</title>
<path fill="none" stroke="#9a32cd" stroke-dasharray="5,2" d="M1151.25,-170.2C1149.13,-169.96 1147.04,-169.73 1145,-169.5 1033.49,-157.07 1005.94,-150.16 894,-142.5 733.72,-131.54 540.1,-129.81 475.04,-129.55"/>
<polygon fill="#9a32cd" stroke="#9a32cd" points="1150.76,-173.67 1161.1,-171.32 1151.56,-166.71 1150.76,-173.67"/>
<text text-anchor="middle" x="839" y="-145.5" font-family="Helvetica,sans-Serif" font-size="10.00"> ContainerAtlas</text>
</g>
<!-- Node9&#45;&gt;Node8 -->
<g id="edge10" class="edge">
<title>Node9&#45;&gt;Node8</title>
<path fill="none" stroke="#9a32cd" stroke-dasharray="5,2" d="M905.53,-172.23C981.44,-173.08 1103.64,-174.45 1162.76,-175.12"/>
<polygon fill="#9a32cd" stroke="#9a32cd" points="905.77,-168.74 895.73,-172.12 905.69,-175.74 905.77,-168.74"/>
<text text-anchor="middle" x="988" y="-176.5" font-family="Helvetica,sans-Serif" font-size="10.00"> Fonts</text>
</g>
<!-- Node10 -->
<g id="node10" class="node">
<title>Node10</title>
<g id="a_node10"><a xlink:href="struct_im_vector.html" target="_top" xlink:title=" ">
<polygon fill="white" stroke="#bfbfbf" points="1064,-272.5 912,-272.5 912,-242.5 1064,-242.5 1064,-272.5"/>
<text text-anchor="start" x="920" y="-260.5" font-family="Helvetica,sans-Serif" font-size="10.00">ImVector&lt; ImFontAtlasCustom</text>
<text text-anchor="middle" x="988" y="-249.5" font-family="Helvetica,sans-Serif" font-size="10.00">Rect &gt;</text>
</a>
</g>
</g>
<!-- Node10&#45;&gt;Node8 -->
<g id="edge12" class="edge">
<title>Node10&#45;&gt;Node8</title>
<path fill="none" stroke="#9a32cd" stroke-dasharray="5,2" d="M1075.38,-251.03C1098.94,-246.75 1123.8,-239.79 1145,-228.5 1164.8,-217.96 1181.71,-197.26 1190.51,-185.08"/>
<polygon fill="#9a32cd" stroke="#9a32cd" points="1075.09,-247.53 1065.8,-252.62 1076.24,-254.43 1075.09,-247.53"/>
<text text-anchor="middle" x="1113.5" y="-251.5" font-family="Helvetica,sans-Serif" font-size="10.00"> CustomRects</text>
</g>
<!-- Node11&#45;&gt;Node10 -->
<g id="edge13" class="edge">
<title>Node11&#45;&gt;Node10</title>
<path fill="none" stroke="#9a32cd" stroke-dasharray="5,2" d="M777.5,-257.5C818.62,-257.5 870.02,-257.5 911.61,-257.5"/>
<polygon fill="#9a32cd" stroke="#9a32cd" points="777.7,-254 767.7,-257.5 777.7,-261 777.7,-254"/>
<text text-anchor="middle" x="839" y="-260.5" font-family="Helvetica,sans-Serif" font-size="10.00"> Data</text>
</g>
<!-- Node12&#45;&gt;Node8 -->
<g id="edge16" class="edge">
<title>Node12&#45;&gt;Node8</title>
<path fill="none" stroke="#9a32cd" stroke-dasharray="5,2" d="M635.65,-226.75C747.82,-224.68 963.78,-216.95 1145,-188.5 1150.79,-187.59 1156.88,-186.34 1162.77,-184.97"/>
<polygon fill="#9a32cd" stroke="#9a32cd" points="635.91,-223.25 625.98,-226.92 636.04,-230.25 635.91,-223.25"/>
<text text-anchor="middle" x="839" y="-224.5" font-family="Helvetica,sans-Serif" font-size="10.00"> ConfigData</text>
</g>
<!-- Node13 -->
<g id="node13" class="node">
<title>Node13</title>
<g id="a_node13"><a xlink:href="struct_im_vec4.html" target="_top" xlink:title=" ">
<polygon fill="white" stroke="#bfbfbf" points="1013,-101 963,-101 963,-82 1013,-82 1013,-101"/>
<text text-anchor="middle" x="988" y="-89" font-family="Helvetica,sans-Serif" font-size="10.00">ImVec4</text>
</a>
</g>
</g>
<!-- Node13&#45;&gt;Node8 -->
<g id="edge18" class="edge">
<title>Node13&#45;&gt;Node8</title>
<path fill="none" stroke="#9a32cd" stroke-dasharray="5,2" d="M1024.25,-86.47C1057.55,-83.47 1107.78,-83.64 1145,-104.5 1169.79,-118.4 1186.01,-149.58 1193.02,-165.59"/>
<polygon fill="#9a32cd" stroke="#9a32cd" points="1024.32,-82.94 1014.74,-87.47 1025.05,-89.9 1024.32,-82.94"/>
<text text-anchor="middle" x="1113.5" y="-107.5" font-family="Helvetica,sans-Serif" font-size="10.00"> TexUvLines</text>
</g>
<!-- Node14 -->
<g id="node14" class="node">
<title>Node14</title>
<g id="a_node14"><a xlink:href="struct_im_font_builder_i_o.html" target="_top" xlink:title=" ">
<polygon fill="white" stroke="#bfbfbf" points="1032,-64 944,-64 944,-45 1032,-45 1032,-64"/>
<text text-anchor="middle" x="988" y="-52" font-family="Helvetica,sans-Serif" font-size="10.00">ImFontBuilderIO</text>
</a>
</g>
</g>
<!-- Node14&#45;&gt;Node8 -->
<g id="edge19" class="edge">
<title>Node14&#45;&gt;Node8</title>
<path fill="none" stroke="#9a32cd" stroke-dasharray="5,2" d="M1043.69,-48.56C1075.87,-47.87 1115.82,-52.15 1145,-72.5 1177.53,-95.19 1190.85,-144.4 1195.21,-165.53"/>
<polygon fill="#9a32cd" stroke="#9a32cd" points="1043.59,-45.06 1033.74,-48.96 1043.87,-52.06 1043.59,-45.06"/>
<text text-anchor="middle" x="1113.5" y="-75.5" font-family="Helvetica,sans-Serif" font-size="10.00"> FontBuilderIO</text>
</g>
</g>
</svg>
