<?xml version="1.0" encoding="UTF-8" standalone="no"?>
<!DOCTYPE svg PUBLIC "-//W3C//DTD SVG 1.1//EN"
 "http://www.w3.org/Graphics/SVG/1.1/DTD/svg11.dtd">
<!-- Generated by graphviz version 7.0.5 (20221223.1930)
 -->
<!-- Title: ImDrawData Pages: 1 -->
<svg width="2025pt" height="771pt"
 viewBox="0.00 0.00 2025.00 770.50" xmlns="http://www.w3.org/2000/svg" xmlns:xlink="http://www.w3.org/1999/xlink">
<g id="graph0" class="graph" transform="scale(1 1) rotate(0) translate(4 766.5)">
<title>ImDrawData</title>
<!-- Node1 -->
<g id="node1" class="node">
<title>Node1</title>
<g id="a_node1"><a xlink:title=" ">
<polygon fill="#999999" stroke="#666666" points="1271,-464 1200,-464 1200,-445 1271,-445 1271,-464"/>
<text text-anchor="middle" x="1235.5" y="-452" font-family="Helvetica,sans-Serif" font-size="10.00">ImDrawData</text>
</a>
</g>
</g>
<!-- Node2 -->
<g id="node2" class="node">
<title>Node2</title>
<g id="a_node2"><a xlink:href="struct_im_draw_list.html" target="_top" xlink:title=" ">
<polygon fill="white" stroke="#bfbfbf" points="1060.5,-601 993.5,-601 993.5,-582 1060.5,-582 1060.5,-601"/>
<text text-anchor="middle" x="1027" y="-589" font-family="Helvetica,sans-Serif" font-size="10.00">ImDrawList</text>
</a>
</g>
</g>
<!-- Node2&#45;&gt;Node1 -->
<g id="edge1" class="edge">
<title>Node2&#45;&gt;Node1</title>
<path fill="none" stroke="#9a32cd" stroke-dasharray="5,2" d="M1052.3,-575.38C1095.43,-546.76 1184.17,-487.89 1219.51,-464.45"/>
<polygon fill="#9a32cd" stroke="#9a32cd" points="1050.51,-572.37 1044.11,-580.81 1054.38,-578.2 1050.51,-572.37"/>
<text text-anchor="middle" x="1151.5" y="-529.5" font-family="Helvetica,sans-Serif" font-size="10.00"> CmdLists</text>
</g>
<!-- Node4 -->
<g id="node4" class="node">
<title>Node4</title>
<g id="a_node4"><a xlink:href="struct_im_draw_cmd.html" target="_top" xlink:title=" ">
<polygon fill="white" stroke="#bfbfbf" points="1271,-643 1200,-643 1200,-624 1271,-624 1271,-643"/>
<text text-anchor="middle" x="1235.5" y="-631" font-family="Helvetica,sans-Serif" font-size="10.00">ImDrawCmd</text>
</a>
</g>
</g>
<!-- Node2&#45;&gt;Node4 -->
<g id="edge5" class="edge">
<title>Node2&#45;&gt;Node4</title>
<path fill="none" stroke="#9a32cd" stroke-dasharray="5,2" d="M1071.97,-600.44C1110.03,-608.18 1164.35,-619.23 1199.52,-626.38"/>
<polygon fill="#9a32cd" stroke="#9a32cd" points="1072.7,-597.02 1062.2,-598.46 1071.31,-603.88 1072.7,-597.02"/>
<text text-anchor="middle" x="1151.5" y="-624.5" font-family="Helvetica,sans-Serif" font-size="10.00"> UserCallback</text>
</g>
<!-- Node3 -->
<g id="node3" class="node">
<title>Node3</title>
<g id="a_node3"><a xlink:href="struct_im_vector.html" target="_top" xlink:title=" ">
<polygon fill="white" stroke="#bfbfbf" points="1457,-676 1330,-676 1330,-657 1457,-657 1457,-676"/>
<text text-anchor="middle" x="1393.5" y="-664" font-family="Helvetica,sans-Serif" font-size="10.00">ImVector&lt; ImDrawCmd &gt;</text>
</a>
</g>
</g>
<!-- Node3&#45;&gt;Node2 -->
<g id="edge2" class="edge">
<title>Node3&#45;&gt;Node2</title>
<path fill="none" stroke="#9a32cd" stroke-dasharray="5,2" d="M1318.5,-666.8C1262.85,-665.03 1185.43,-658.23 1121,-636.5 1093.47,-627.21 1063.54,-611.66 1045.27,-601.49"/>
<polygon fill="#9a32cd" stroke="#9a32cd" points="1318.08,-670.29 1328.17,-667.06 1318.26,-663.3 1318.08,-670.29"/>
<text text-anchor="middle" x="1235.5" y="-666.5" font-family="Helvetica,sans-Serif" font-size="10.00"> CmdBuffer</text>
</g>
<!-- Node29 -->
<g id="node29" class="node">
<title>Node29</title>
<g id="a_node29"><a xlink:href="struct_im_draw_channel.html" target="_top" xlink:title=" ">
<polygon fill="white" stroke="#bfbfbf" points="1633,-676 1547,-676 1547,-657 1633,-657 1633,-676"/>
<text text-anchor="middle" x="1590" y="-664" font-family="Helvetica,sans-Serif" font-size="10.00">ImDrawChannel</text>
</a>
</g>
</g>
<!-- Node3&#45;&gt;Node29 -->
<g id="edge46" class="edge">
<title>Node3&#45;&gt;Node29</title>
<path fill="none" stroke="#9a32cd" stroke-dasharray="5,2" d="M1468.88,-666.5C1495.19,-666.5 1523.87,-666.5 1546.6,-666.5"/>
<polygon fill="#9a32cd" stroke="#9a32cd" points="1468.89,-663 1458.89,-666.5 1468.89,-670 1468.89,-663"/>
<text text-anchor="middle" x="1502" y="-669.5" font-family="Helvetica,sans-Serif" font-size="10.00"> _CmdBuffer</text>
</g>
<!-- Node4&#45;&gt;Node3 -->
<g id="edge3" class="edge">
<title>Node4&#45;&gt;Node3</title>
<path fill="none" stroke="#9a32cd" stroke-dasharray="5,2" d="M1282.34,-643.2C1302.15,-647.39 1325.3,-652.28 1345.25,-656.51"/>
<polygon fill="#9a32cd" stroke="#9a32cd" points="1283.11,-639.78 1272.6,-641.14 1281.66,-646.63 1283.11,-639.78"/>
<text text-anchor="middle" x="1300.5" y="-651.5" font-family="Helvetica,sans-Serif" font-size="10.00"> Data</text>
</g>
<!-- Node5 -->
<g id="node5" class="node">
<title>Node5</title>
<g id="a_node5"><a xlink:href="struct_im_vec4.html" target="_top" xlink:title=" ">
<polygon fill="white" stroke="#bfbfbf" points="69,-647 19,-647 19,-628 69,-628 69,-647"/>
<text text-anchor="middle" x="44" y="-635" font-family="Helvetica,sans-Serif" font-size="10.00">ImVec4</text>
</a>
</g>
</g>
<!-- Node5&#45;&gt;Node4 -->
<g id="edge4" class="edge">
<title>Node5&#45;&gt;Node4</title>
<path fill="none" stroke="#9a32cd" stroke-dasharray="5,2" d="M63.16,-654.93C98.43,-686.86 179.96,-751.5 262,-751.5 262,-751.5 262,-751.5 779,-751.5 950.96,-751.5 1148.1,-671.72 1212.74,-643.36"/>
<polygon fill="#9a32cd" stroke="#9a32cd" points="65.67,-652.48 55.95,-648.25 60.91,-657.61 65.67,-652.48"/>
<text text-anchor="middle" x="646" y="-754.5" font-family="Helvetica,sans-Serif" font-size="10.00"> ClipRect</text>
</g>
<!-- Node10 -->
<g id="node10" class="node">
<title>Node10</title>
<g id="a_node10"><a xlink:href="struct_im_draw_list_shared_data.html" target="_top" xlink:title=" ">
<polygon fill="white" stroke="#bfbfbf" points="837,-563 719,-563 719,-544 837,-544 837,-563"/>
<text text-anchor="middle" x="778" y="-551" font-family="Helvetica,sans-Serif" font-size="10.00">ImDrawListSharedData</text>
</a>
</g>
</g>
<!-- Node5&#45;&gt;Node10 -->
<g id="edge33" class="edge">
<title>Node5&#45;&gt;Node10</title>
<path fill="none" stroke="#9a32cd" stroke-dasharray="5,2" d="M80.68,-634.51C179.11,-626.07 462.71,-600.54 697,-567.5 705.38,-566.32 714.22,-564.92 722.86,-563.48"/>
<polygon fill="#9a32cd" stroke="#9a32cd" points="80.52,-631.01 70.85,-635.34 81.12,-637.98 80.52,-631.01"/>
<text text-anchor="middle" x="398.5" y="-622.5" font-family="Helvetica,sans-Serif" font-size="10.00"> ClipRectFullscreen</text>
<text text-anchor="middle" x="398.5" y="-611.5" font-family="Helvetica,sans-Serif" font-size="10.00">TexUvLines</text>
</g>
<!-- Node16 -->
<g id="node16" class="node">
<title>Node16</title>
<g id="a_node16"><a xlink:href="struct_im_font_atlas.html" target="_top" xlink:title=" ">
<polygon fill="white" stroke="#bfbfbf" points="298,-237 228,-237 228,-218 298,-218 298,-237"/>
<text text-anchor="middle" x="263" y="-225" font-family="Helvetica,sans-Serif" font-size="10.00">ImFontAtlas</text>
</a>
</g>
</g>
<!-- Node5&#45;&gt;Node16 -->
<g id="edge30" class="edge">
<title>Node5&#45;&gt;Node16</title>
<path fill="none" stroke="#9a32cd" stroke-dasharray="5,2" d="M55.53,-617.61C94.35,-544.26 228.66,-290.5 256.8,-237.32"/>
<polygon fill="#9a32cd" stroke="#9a32cd" points="52.44,-615.96 50.86,-626.43 58.63,-619.23 52.44,-615.96"/>
<text text-anchor="middle" x="143.5" y="-518.5" font-family="Helvetica,sans-Serif" font-size="10.00"> TexUvLines</text>
</g>
<!-- Node24 -->
<g id="node24" class="node">
<title>Node24</title>
<g id="a_node24"><a xlink:href="struct_im_vector.html" target="_top" xlink:title=" ">
<polygon fill="white" stroke="#bfbfbf" points="452,-685 345,-685 345,-666 452,-666 452,-685"/>
<text text-anchor="middle" x="398.5" y="-673" font-family="Helvetica,sans-Serif" font-size="10.00">ImVector&lt; ImVec4 &gt;</text>
</a>
</g>
</g>
<!-- Node5&#45;&gt;Node24 -->
<g id="edge38" class="edge">
<title>Node5&#45;&gt;Node24</title>
<path fill="none" stroke="#9a32cd" stroke-dasharray="5,2" d="M80.42,-646.53C88.76,-648.41 97.66,-650.21 106,-651.5 188.8,-664.34 285.96,-670.6 344.57,-673.43"/>
<polygon fill="#9a32cd" stroke="#9a32cd" points="81.49,-643.19 70.95,-644.31 79.89,-650 81.49,-643.19"/>
<text text-anchor="middle" x="143.5" y="-663.5" font-family="Helvetica,sans-Serif" font-size="10.00"> Data</text>
</g>
<!-- Node26 -->
<g id="node26" class="node">
<title>Node26</title>
<g id="a_node26"><a xlink:href="struct_im_draw_cmd_header.html" target="_top" xlink:title=" ">
<polygon fill="white" stroke="#bfbfbf" points="697,-647 595,-647 595,-628 697,-628 697,-647"/>
<text text-anchor="middle" x="646" y="-635" font-family="Helvetica,sans-Serif" font-size="10.00">ImDrawCmdHeader</text>
</a>
</g>
</g>
<!-- Node5&#45;&gt;Node26 -->
<g id="edge42" class="edge">
<title>Node5&#45;&gt;Node26</title>
<path fill="none" stroke="#9a32cd" stroke-dasharray="5,2" d="M80.76,-637.5C183,-637.5 476.77,-637.5 594.91,-637.5"/>
<polygon fill="#9a32cd" stroke="#9a32cd" points="80.78,-634 70.78,-637.5 80.78,-641 80.78,-634"/>
<text text-anchor="middle" x="263" y="-640.5" font-family="Helvetica,sans-Serif" font-size="10.00"> ClipRect</text>
</g>
<!-- Node6 -->
<g id="node6" class="node">
<title>Node6</title>
<g id="a_node6"><a xlink:href="struct_im_vector.html" target="_top" xlink:title=" ">
<polygon fill="white" stroke="#bfbfbf" points="837.5,-723 718.5,-723 718.5,-704 837.5,-704 837.5,-723"/>
<text text-anchor="middle" x="778" y="-711" font-family="Helvetica,sans-Serif" font-size="10.00">ImVector&lt; ImDrawIdx &gt;</text>
</a>
</g>
</g>
<!-- Node6&#45;&gt;Node2 -->
<g id="edge6" class="edge">
<title>Node6&#45;&gt;Node2</title>
<path fill="none" stroke="#9a32cd" stroke-dasharray="5,2" d="M849.12,-701.97C882.66,-695.58 918.6,-687.18 933,-678.5 943.53,-672.15 942.36,-666.25 951,-657.5 971.96,-636.27 998.61,-613.77 1013.84,-601.3"/>
<polygon fill="#9a32cd" stroke="#9a32cd" points="848.55,-698.52 839.36,-703.78 849.83,-705.4 848.55,-698.52"/>
<text text-anchor="middle" x="896" y="-702.5" font-family="Helvetica,sans-Serif" font-size="10.00"> IdxBuffer</text>
</g>
<!-- Node6&#45;&gt;Node29 -->
<g id="edge47" class="edge">
<title>Node6&#45;&gt;Node29</title>
<path fill="none" stroke="#9a32cd" stroke-dasharray="5,2" d="M849.05,-719.15C898.47,-722.66 966.24,-726.5 1026,-726.5 1026,-726.5 1026,-726.5 1394.5,-726.5 1461.64,-726.5 1536.26,-693.45 1570.27,-676.41"/>
<polygon fill="#9a32cd" stroke="#9a32cd" points="849.58,-715.68 839.35,-718.45 849.07,-722.66 849.58,-715.68"/>
<text text-anchor="middle" x="1235.5" y="-729.5" font-family="Helvetica,sans-Serif" font-size="10.00"> _IdxBuffer</text>
</g>
<!-- Node7 -->
<g id="node7" class="node">
<title>Node7</title>
<g id="a_node7"><a xlink:href="struct_im_vector.html" target="_top" xlink:title=" ">
<polygon fill="white" stroke="#bfbfbf" points="840.5,-431 715.5,-431 715.5,-412 840.5,-412 840.5,-431"/>
<text text-anchor="middle" x="778" y="-419" font-family="Helvetica,sans-Serif" font-size="10.00">ImVector&lt; ImDrawVert &gt;</text>
</a>
</g>
</g>
<!-- Node7&#45;&gt;Node2 -->
<g id="edge7" class="edge">
<title>Node7&#45;&gt;Node2</title>
<path fill="none" stroke="#9a32cd" stroke-dasharray="5,2" d="M852.38,-418.79C879.53,-420.92 909.41,-427.24 933,-442.5 986.51,-477.11 1014.64,-554.52 1023.16,-581.78"/>
<polygon fill="#9a32cd" stroke="#9a32cd" points="852.64,-415.3 842.45,-418.21 852.23,-422.29 852.64,-415.3"/>
<text text-anchor="middle" x="896" y="-445.5" font-family="Helvetica,sans-Serif" font-size="10.00"> VtxBuffer</text>
</g>
<!-- Node8 -->
<g id="node8" class="node">
<title>Node8</title>
<g id="a_node8"><a xlink:href="struct_im_draw_vert.html" target="_top" xlink:title=" ">
<polygon fill="white" stroke="#bfbfbf" points="557.5,-452 489.5,-452 489.5,-433 557.5,-433 557.5,-452"/>
<text text-anchor="middle" x="523.5" y="-440" font-family="Helvetica,sans-Serif" font-size="10.00">ImDrawVert</text>
</a>
</g>
</g>
<!-- Node8&#45;&gt;Node2 -->
<g id="edge36" class="edge">
<title>Node8&#45;&gt;Node2</title>
<path fill="none" stroke="#9a32cd" stroke-dasharray="5,2" d="M569.23,-448.93C643.78,-459.81 790.28,-481.88 841,-494.5 882.87,-504.92 894.55,-505.92 933,-525.5 964.58,-541.58 997.47,-567.44 1014.39,-581.54"/>
<polygon fill="#9a32cd" stroke="#9a32cd" points="569.8,-445.48 559.4,-447.5 568.79,-452.41 569.8,-445.48"/>
<text text-anchor="middle" x="778" y="-497.5" font-family="Helvetica,sans-Serif" font-size="10.00"> _VtxWritePtr</text>
</g>
<!-- Node8&#45;&gt;Node7 -->
<g id="edge8" class="edge">
<title>Node8&#45;&gt;Node7</title>
<path fill="none" stroke="#9a32cd" stroke-dasharray="5,2" d="M569.17,-438.79C609.7,-435.41 669.86,-430.41 715.03,-426.65"/>
<polygon fill="#9a32cd" stroke="#9a32cd" points="568.95,-435.29 559.28,-439.61 569.53,-442.27 568.95,-435.29"/>
<text text-anchor="middle" x="646" y="-439.5" font-family="Helvetica,sans-Serif" font-size="10.00"> Data</text>
</g>
<!-- Node9 -->
<g id="node9" class="node">
<title>Node9</title>
<g id="a_node9"><a xlink:href="struct_im_vec2.html" target="_top" xlink:title=" ">
<polygon fill="white" stroke="#bfbfbf" points="69,-362 19,-362 19,-343 69,-343 69,-362"/>
<text text-anchor="middle" x="44" y="-350" font-family="Helvetica,sans-Serif" font-size="10.00">ImVec2</text>
</a>
</g>
</g>
<!-- Node9&#45;&gt;Node1 -->
<g id="edge48" class="edge">
<title>Node9&#45;&gt;Node1</title>
<path fill="none" stroke="#9a32cd" stroke-dasharray="5,2" d="M80.67,-352.5C123.66,-352.5 198.12,-352.5 262,-352.5 262,-352.5 262,-352.5 1028,-352.5 1110.77,-352.5 1194.7,-419.19 1223.8,-444.72"/>
<polygon fill="#9a32cd" stroke="#9a32cd" points="80.92,-349 70.92,-352.5 80.92,-356 80.92,-349"/>
<text text-anchor="middle" x="646" y="-377.5" font-family="Helvetica,sans-Serif" font-size="10.00"> DisplayPos</text>
<text text-anchor="middle" x="646" y="-366.5" font-family="Helvetica,sans-Serif" font-size="10.00">DisplaySize</text>
<text text-anchor="middle" x="646" y="-355.5" font-family="Helvetica,sans-Serif" font-size="10.00">FramebufferScale</text>
</g>
<!-- Node9&#45;&gt;Node8 -->
<g id="edge9" class="edge">
<title>Node9&#45;&gt;Node8</title>
<path fill="none" stroke="#9a32cd" stroke-dasharray="5,2" d="M80.3,-360.89C88.71,-362.8 97.66,-364.78 106,-366.5 248.01,-395.74 418.45,-425.04 489.2,-436.95"/>
<polygon fill="#9a32cd" stroke="#9a32cd" points="81.29,-357.52 70.76,-358.68 79.71,-364.34 81.29,-357.52"/>
<text text-anchor="middle" x="263" y="-423.5" font-family="Helvetica,sans-Serif" font-size="10.00"> pos</text>
<text text-anchor="middle" x="263" y="-412.5" font-family="Helvetica,sans-Serif" font-size="10.00">uv</text>
</g>
<!-- Node9&#45;&gt;Node10 -->
<g id="edge11" class="edge">
<title>Node9&#45;&gt;Node10</title>
<path fill="none" stroke="#9a32cd" stroke-dasharray="5,2" d="M47.48,-373.37C52.48,-405.62 66.85,-467.22 106,-499.5 198.43,-575.7 573.11,-564.49 718.72,-557"/>
<polygon fill="#9a32cd" stroke="#9a32cd" points="50.99,-373.14 46.16,-363.71 44.05,-374.09 50.99,-373.14"/>
<text text-anchor="middle" x="398.5" y="-575.5" font-family="Helvetica,sans-Serif" font-size="10.00"> ArcFastVtx</text>
<text text-anchor="middle" x="398.5" y="-564.5" font-family="Helvetica,sans-Serif" font-size="10.00">TexUvWhitePixel</text>
</g>
<!-- Node9&#45;&gt;Node16 -->
<g id="edge19" class="edge">
<title>Node9&#45;&gt;Node16</title>
<path fill="none" stroke="#9a32cd" stroke-dasharray="5,2" d="M53.71,-332.2C63.47,-311.92 81.24,-281.39 106,-264.5 142.56,-239.56 193.88,-231.32 227.53,-228.67"/>
<polygon fill="#9a32cd" stroke="#9a32cd" points="50.59,-330.59 49.63,-341.14 56.96,-333.5 50.59,-330.59"/>
<text text-anchor="middle" x="143.5" y="-278.5" font-family="Helvetica,sans-Serif" font-size="10.00"> TexUvScale</text>
<text text-anchor="middle" x="143.5" y="-267.5" font-family="Helvetica,sans-Serif" font-size="10.00">TexUvWhitePixel</text>
</g>
<!-- Node19 -->
<g id="node19" class="node">
<title>Node19</title>
<g id="a_node19"><a xlink:href="struct_im_font_atlas_custom_rect.html" target="_top" xlink:title=" ">
<polygon fill="white" stroke="#bfbfbf" points="840,-286 716,-286 716,-267 840,-267 840,-286"/>
<text text-anchor="middle" x="778" y="-274" font-family="Helvetica,sans-Serif" font-size="10.00">ImFontAtlasCustomRect</text>
</a>
</g>
</g>
<!-- Node9&#45;&gt;Node19 -->
<g id="edge24" class="edge">
<title>Node9&#45;&gt;Node19</title>
<path fill="none" stroke="#9a32cd" stroke-dasharray="5,2" d="M80.43,-343.53C88.77,-341.65 97.67,-339.84 106,-338.5 328.95,-302.78 597.11,-285.68 715.6,-279.43"/>
<polygon fill="#9a32cd" stroke="#9a32cd" points="79.9,-340.06 70.96,-345.75 81.5,-346.87 79.9,-340.06"/>
<text text-anchor="middle" x="398.5" y="-311.5" font-family="Helvetica,sans-Serif" font-size="10.00"> GlyphOffset</text>
</g>
<!-- Node21 -->
<g id="node21" class="node">
<title>Node21</title>
<g id="a_node21"><a xlink:href="struct_im_font_config.html" target="_top" xlink:title=" ">
<polygon fill="white" stroke="#bfbfbf" points="815,-129 741,-129 741,-110 815,-110 815,-129"/>
<text text-anchor="middle" x="778" y="-117" font-family="Helvetica,sans-Serif" font-size="10.00">ImFontConfig</text>
</a>
</g>
</g>
<!-- Node9&#45;&gt;Node21 -->
<g id="edge28" class="edge">
<title>Node9&#45;&gt;Node21</title>
<path fill="none" stroke="#9a32cd" stroke-dasharray="5,2" d="M53.85,-332.4C82.48,-267.83 172.28,-68.89 199,-52.5 293.53,5.51 590.11,-55.93 697,-85.5 718.53,-91.45 741.9,-101.89 757.79,-109.63"/>
<polygon fill="#9a32cd" stroke="#9a32cd" points="50.7,-330.88 49.86,-341.44 57.1,-333.71 50.7,-330.88"/>
<text text-anchor="middle" x="398.5" y="-51.5" font-family="Helvetica,sans-Serif" font-size="10.00"> GlyphExtraSpacing</text>
<text text-anchor="middle" x="398.5" y="-40.5" font-family="Helvetica,sans-Serif" font-size="10.00">GlyphOffset</text>
</g>
<!-- Node23 -->
<g id="node23" class="node">
<title>Node23</title>
<g id="a_node23"><a xlink:href="struct_im_vector.html" target="_top" xlink:title=" ">
<polygon fill="white" stroke="#bfbfbf" points="577,-504 470,-504 470,-485 577,-485 577,-504"/>
<text text-anchor="middle" x="523.5" y="-492" font-family="Helvetica,sans-Serif" font-size="10.00">ImVector&lt; ImVec2 &gt;</text>
</a>
</g>
</g>
<!-- Node9&#45;&gt;Node23 -->
<g id="edge35" class="edge">
<title>Node9&#45;&gt;Node23</title>
<path fill="none" stroke="#9a32cd" stroke-dasharray="5,2" d="M48.67,-373.48C54.91,-402.08 70.52,-452.36 106,-475.5 164.5,-513.66 371.52,-505.08 469.87,-498.55"/>
<polygon fill="#9a32cd" stroke="#9a32cd" points="52.14,-373 46.78,-363.86 45.27,-374.35 52.14,-373"/>
<text text-anchor="middle" x="263" y="-506.5" font-family="Helvetica,sans-Serif" font-size="10.00"> Data</text>
</g>
<!-- Node10&#45;&gt;Node2 -->
<g id="edge10" class="edge">
<title>Node10&#45;&gt;Node2</title>
<path fill="none" stroke="#9a32cd" stroke-dasharray="5,2" d="M848.3,-562.97C874.82,-566.71 905.34,-571.15 933,-575.5 953.07,-578.66 975.51,-582.51 993.33,-585.64"/>
<polygon fill="#9a32cd" stroke="#9a32cd" points="849.08,-559.55 838.69,-561.63 848.11,-566.48 849.08,-559.55"/>
<text text-anchor="middle" x="896" y="-578.5" font-family="Helvetica,sans-Serif" font-size="10.00"> _Data</text>
</g>
<!-- Node11 -->
<g id="node11" class="node">
<title>Node11</title>
<g id="a_node11"><a xlink:href="struct_im_font.html" target="_top" xlink:title=" ">
<polygon fill="white" stroke="#bfbfbf" points="547,-145 500,-145 500,-126 547,-126 547,-145"/>
<text text-anchor="middle" x="523.5" y="-133" font-family="Helvetica,sans-Serif" font-size="10.00">ImFont</text>
</a>
</g>
</g>
<!-- Node11&#45;&gt;Node10 -->
<g id="edge12" class="edge">
<title>Node11&#45;&gt;Node10</title>
<path fill="none" stroke="#9a32cd" stroke-dasharray="5,2" d="M557.51,-148.56C565.1,-153.12 572.31,-159.01 577,-166.5 603.04,-208.07 563.52,-348.88 595,-386.5 625.1,-422.46 665.62,-378.65 697,-413.5 731.91,-452.27 682.29,-488.86 715,-529.5 719.92,-535.61 726.6,-540.17 733.76,-543.57"/>
<polygon fill="#9a32cd" stroke="#9a32cd" points="559.33,-145.56 548.84,-144.04 556.09,-151.77 559.33,-145.56"/>
<text text-anchor="middle" x="646" y="-416.5" font-family="Helvetica,sans-Serif" font-size="10.00"> Font</text>
</g>
<!-- Node17 -->
<g id="node17" class="node">
<title>Node17</title>
<g id="a_node17"><a xlink:href="struct_im_vector.html" target="_top" xlink:title=" ">
<polygon fill="white" stroke="#bfbfbf" points="833,-181 723,-181 723,-162 833,-162 833,-181"/>
<text text-anchor="middle" x="778" y="-169" font-family="Helvetica,sans-Serif" font-size="10.00">ImVector&lt; ImFont * &gt;</text>
</a>
</g>
</g>
<!-- Node11&#45;&gt;Node17 -->
<g id="edge21" class="edge">
<title>Node11&#45;&gt;Node17</title>
<path fill="none" stroke="#9a32cd" stroke-dasharray="5,2" d="M558.64,-140.37C600.71,-146.37 672.74,-156.64 722.51,-163.73"/>
<polygon fill="#9a32cd" stroke="#9a32cd" points="559.25,-136.92 548.85,-138.97 558.26,-143.85 559.25,-136.92"/>
<text text-anchor="middle" x="646" y="-163.5" font-family="Helvetica,sans-Serif" font-size="10.00"> Data</text>
</g>
<!-- Node11&#45;&gt;Node19 -->
<g id="edge25" class="edge">
<title>Node11&#45;&gt;Node19</title>
<path fill="none" stroke="#9a32cd" stroke-dasharray="5,2" d="M557.44,-149.68C564.75,-154.14 571.85,-159.72 577,-166.5 595.66,-191.05 572.76,-212.15 595,-233.5 628.52,-265.69 651.79,-245.75 697,-256.5 710.37,-259.68 724.96,-263.29 737.98,-266.55"/>
<polygon fill="#9a32cd" stroke="#9a32cd" points="559.28,-146.7 548.83,-145 555.94,-152.85 559.28,-146.7"/>
<text text-anchor="middle" x="646" y="-259.5" font-family="Helvetica,sans-Serif" font-size="10.00"> Font</text>
</g>
<!-- Node11&#45;&gt;Node21 -->
<g id="edge29" class="edge">
<title>Node11&#45;&gt;Node21</title>
<path fill="none" stroke="#9a32cd" stroke-dasharray="5,2" d="M546.35,-119.17C559.66,-110.27 577.43,-100.14 595,-95.5 638.83,-83.93 652.15,-88.92 697,-95.5 715.36,-98.2 735.36,-104.2 750.77,-109.52"/>
<polygon fill="#9a32cd" stroke="#9a32cd" points="544.54,-116.16 538.36,-124.77 548.56,-121.9 544.54,-116.16"/>
<text text-anchor="middle" x="646" y="-98.5" font-family="Helvetica,sans-Serif" font-size="10.00"> DstFont</text>
</g>
<!-- Node12 -->
<g id="node12" class="node">
<title>Node12</title>
<g id="a_node12"><a xlink:href="struct_im_vector.html" target="_top" xlink:title=" ">
<polygon fill="white" stroke="#bfbfbf" points="308.5,-118 217.5,-118 217.5,-99 308.5,-99 308.5,-118"/>
<text text-anchor="middle" x="263" y="-106" font-family="Helvetica,sans-Serif" font-size="10.00">ImVector&lt; float &gt;</text>
</a>
</g>
</g>
<!-- Node12&#45;&gt;Node11 -->
<g id="edge13" class="edge">
<title>Node12&#45;&gt;Node11</title>
<path fill="none" stroke="#9a32cd" stroke-dasharray="5,2" d="M320.12,-111.67C357.56,-114.1 407.83,-117.99 452,-123.5 468.02,-125.5 485.95,-128.56 499.72,-131.09"/>
<polygon fill="#9a32cd" stroke="#9a32cd" points="320.65,-108.19 310.45,-111.05 320.21,-115.18 320.65,-108.19"/>
<text text-anchor="middle" x="398.5" y="-126.5" font-family="Helvetica,sans-Serif" font-size="10.00"> IndexAdvanceX</text>
</g>
<!-- Node13 -->
<g id="node13" class="node">
<title>Node13</title>
<g id="a_node13"><a xlink:href="struct_im_vector.html" target="_top" xlink:title=" ">
<polygon fill="white" stroke="#bfbfbf" points="319,-155 207,-155 207,-136 319,-136 319,-155"/>
<text text-anchor="middle" x="263" y="-143" font-family="Helvetica,sans-Serif" font-size="10.00">ImVector&lt; ImWchar &gt;</text>
</a>
</g>
</g>
<!-- Node13&#45;&gt;Node11 -->
<g id="edge14" class="edge">
<title>Node13&#45;&gt;Node11</title>
<path fill="none" stroke="#9a32cd" stroke-dasharray="5,2" d="M330.63,-142.92C386.17,-140.77 462.06,-137.84 499.58,-136.39"/>
<polygon fill="#9a32cd" stroke="#9a32cd" points="330.82,-139.41 320.97,-143.3 331.09,-146.41 330.82,-139.41"/>
<text text-anchor="middle" x="398.5" y="-145.5" font-family="Helvetica,sans-Serif" font-size="10.00"> IndexLookup</text>
</g>
<!-- Node14 -->
<g id="node14" class="node">
<title>Node14</title>
<g id="a_node14"><a xlink:href="struct_im_vector.html" target="_top" xlink:title=" ">
<polygon fill="white" stroke="#bfbfbf" points="327,-81 199,-81 199,-62 327,-62 327,-81"/>
<text text-anchor="middle" x="263" y="-69" font-family="Helvetica,sans-Serif" font-size="10.00">ImVector&lt; ImFontGlyph &gt;</text>
</a>
</g>
</g>
<!-- Node14&#45;&gt;Node11 -->
<g id="edge15" class="edge">
<title>Node14&#45;&gt;Node11</title>
<path fill="none" stroke="#9a32cd" stroke-dasharray="5,2" d="M338.57,-76.33C373.63,-80.08 415.62,-86.73 452,-98.5 472.12,-105.01 493.37,-116.96 507.22,-125.51"/>
<polygon fill="#9a32cd" stroke="#9a32cd" points="339.26,-72.88 328.96,-75.36 338.56,-79.85 339.26,-72.88"/>
<text text-anchor="middle" x="398.5" y="-101.5" font-family="Helvetica,sans-Serif" font-size="10.00"> Glyphs</text>
</g>
<!-- Node15 -->
<g id="node15" class="node">
<title>Node15</title>
<g id="a_node15"><a xlink:href="struct_im_font_glyph.html" target="_top" xlink:title=" ">
<polygon fill="white" stroke="#bfbfbf" points="80,-19 8,-19 8,0 80,0 80,-19"/>
<text text-anchor="middle" x="44" y="-7" font-family="Helvetica,sans-Serif" font-size="10.00">ImFontGlyph</text>
</a>
</g>
</g>
<!-- Node15&#45;&gt;Node11 -->
<g id="edge17" class="edge">
<title>Node15&#45;&gt;Node11</title>
<path fill="none" stroke="#9a32cd" stroke-dasharray="5,2" d="M91.81,-7.33C170.83,-5.66 333.64,-10.98 452,-73.5 477.65,-87.05 501.72,-111.73 514,-125.51"/>
<polygon fill="#9a32cd" stroke="#9a32cd" points="91.73,-3.83 81.83,-7.59 91.92,-10.83 91.73,-3.83"/>
<text text-anchor="middle" x="263" y="-31.5" font-family="Helvetica,sans-Serif" font-size="10.00"> FallbackGlyph</text>
</g>
<!-- Node15&#45;&gt;Node14 -->
<g id="edge16" class="edge">
<title>Node15&#45;&gt;Node14</title>
<path fill="none" stroke="#9a32cd" stroke-dasharray="5,2" d="M91.74,-11.99C118.41,-14.4 152.16,-19.15 181,-28.5 205.54,-36.45 231.46,-51.56 247.18,-61.58"/>
<polygon fill="#9a32cd" stroke="#9a32cd" points="92.17,-8.51 81.92,-11.19 91.6,-15.49 92.17,-8.51"/>
<text text-anchor="middle" x="143.5" y="-31.5" font-family="Helvetica,sans-Serif" font-size="10.00"> Data</text>
</g>
<!-- Node16&#45;&gt;Node11 -->
<g id="edge18" class="edge">
<title>Node16&#45;&gt;Node11</title>
<path fill="none" stroke="#9a32cd" stroke-dasharray="5,2" d="M286.34,-210.8C302.02,-199.84 323.87,-186 345,-177.5 390.13,-159.35 404.72,-165.94 452,-154.5 468.02,-150.62 485.95,-145.78 499.72,-141.96"/>
<polygon fill="#9a32cd" stroke="#9a32cd" points="284.31,-207.95 278.23,-216.63 288.4,-213.64 284.31,-207.95"/>
<text text-anchor="middle" x="398.5" y="-180.5" font-family="Helvetica,sans-Serif" font-size="10.00"> ContainerAtlas</text>
</g>
<!-- Node17&#45;&gt;Node16 -->
<g id="edge20" class="edge">
<title>Node17&#45;&gt;Node16</title>
<path fill="none" stroke="#9a32cd" stroke-dasharray="5,2" d="M711.46,-177.53C626.73,-185.5 474.68,-200.44 345,-216.5 329.65,-218.4 312.69,-220.68 298.27,-222.67"/>
<polygon fill="#9a32cd" stroke="#9a32cd" points="711.57,-181.03 721.2,-176.61 710.92,-174.06 711.57,-181.03"/>
<text text-anchor="middle" x="523.5" y="-205.5" font-family="Helvetica,sans-Serif" font-size="10.00"> Fonts</text>
</g>
<!-- Node18 -->
<g id="node18" class="node">
<title>Node18</title>
<g id="a_node18"><a xlink:href="struct_im_vector.html" target="_top" xlink:title=" ">
<polygon fill="white" stroke="#bfbfbf" points="1103,-310.5 951,-310.5 951,-280.5 1103,-280.5 1103,-310.5"/>
<text text-anchor="start" x="959" y="-298.5" font-family="Helvetica,sans-Serif" font-size="10.00">ImVector&lt; ImFontAtlasCustom</text>
<text text-anchor="middle" x="1027" y="-287.5" font-family="Helvetica,sans-Serif" font-size="10.00">Rect &gt;</text>
</a>
</g>
</g>
<!-- Node18&#45;&gt;Node16 -->
<g id="edge22" class="edge">
<title>Node18&#45;&gt;Node16</title>
<path fill="none" stroke="#9a32cd" stroke-dasharray="5,2" d="M939.25,-300.31C937.15,-300.38 935.06,-300.44 933,-300.5 900.12,-301.38 891.88,-301.18 859,-300.5 794.96,-299.17 778.77,-300.55 715,-294.5 558.57,-279.66 373.58,-247.55 298.36,-233.88"/>
<polygon fill="#9a32cd" stroke="#9a32cd" points="939.26,-303.82 949.13,-299.95 939.01,-296.82 939.26,-303.82"/>
<text text-anchor="middle" x="646" y="-296.5" font-family="Helvetica,sans-Serif" font-size="10.00"> CustomRects</text>
</g>
<!-- Node19&#45;&gt;Node18 -->
<g id="edge23" class="edge">
<title>Node19&#45;&gt;Node18</title>
<path fill="none" stroke="#9a32cd" stroke-dasharray="5,2" d="M851.62,-282.09C882.84,-284.49 919.32,-287.29 950.82,-289.72"/>
<polygon fill="#9a32cd" stroke="#9a32cd" points="852.12,-278.61 841.88,-281.34 851.58,-285.59 852.12,-278.61"/>
<text text-anchor="middle" x="896" y="-291.5" font-family="Helvetica,sans-Serif" font-size="10.00"> Data</text>
</g>
<!-- Node20 -->
<g id="node20" class="node">
<title>Node20</title>
<g id="a_node20"><a xlink:href="struct_im_vector.html" target="_top" xlink:title=" ">
<polygon fill="white" stroke="#bfbfbf" points="1092.5,-201 961.5,-201 961.5,-182 1092.5,-182 1092.5,-201"/>
<text text-anchor="middle" x="1027" y="-189" font-family="Helvetica,sans-Serif" font-size="10.00">ImVector&lt; ImFontConfig &gt;</text>
</a>
</g>
</g>
<!-- Node20&#45;&gt;Node16 -->
<g id="edge26" class="edge">
<title>Node20&#45;&gt;Node16</title>
<path fill="none" stroke="#9a32cd" stroke-dasharray="5,2" d="M949.95,-195.33C860.65,-199.79 708.07,-207.36 577,-213.5 475.67,-218.25 355.86,-223.51 298.28,-226.01"/>
<polygon fill="#9a32cd" stroke="#9a32cd" points="949.99,-198.83 959.8,-194.83 949.64,-191.84 949.99,-198.83"/>
<text text-anchor="middle" x="646" y="-216.5" font-family="Helvetica,sans-Serif" font-size="10.00"> ConfigData</text>
</g>
<!-- Node21&#45;&gt;Node11 -->
<g id="edge32" class="edge">
<title>Node21&#45;&gt;Node11</title>
<path fill="none" stroke="#9a32cd" stroke-dasharray="5,2" d="M729.36,-121.73C692.63,-123.54 640.58,-126.31 595,-129.5 579.07,-130.62 561.14,-132.15 547.35,-133.38"/>
<polygon fill="#9a32cd" stroke="#9a32cd" points="729.39,-125.23 739.21,-121.25 729.05,-118.24 729.39,-125.23"/>
<text text-anchor="middle" x="646" y="-132.5" font-family="Helvetica,sans-Serif" font-size="10.00"> ConfigData</text>
</g>
<!-- Node21&#45;&gt;Node20 -->
<g id="edge27" class="edge">
<title>Node21&#45;&gt;Node20</title>
<path fill="none" stroke="#9a32cd" stroke-dasharray="5,2" d="M823.86,-132.58C872.22,-146.67 948.14,-168.8 991.87,-181.55"/>
<polygon fill="#9a32cd" stroke="#9a32cd" points="825.12,-129.3 814.54,-129.86 823.16,-136.02 825.12,-129.3"/>
<text text-anchor="middle" x="896" y="-167.5" font-family="Helvetica,sans-Serif" font-size="10.00"> Data</text>
</g>
<!-- Node22 -->
<g id="node22" class="node">
<title>Node22</title>
<g id="a_node22"><a xlink:href="struct_im_font_builder_i_o.html" target="_top" xlink:title=" ">
<polygon fill="white" stroke="#bfbfbf" points="88,-71 0,-71 0,-52 88,-52 88,-71"/>
<text text-anchor="middle" x="44" y="-59" font-family="Helvetica,sans-Serif" font-size="10.00">ImFontBuilderIO</text>
</a>
</g>
</g>
<!-- Node22&#45;&gt;Node16 -->
<g id="edge31" class="edge">
<title>Node22&#45;&gt;Node16</title>
<path fill="none" stroke="#9a32cd" stroke-dasharray="5,2" d="M66.85,-78.21C111.77,-112.58 213.27,-190.22 249.14,-217.66"/>
<polygon fill="#9a32cd" stroke="#9a32cd" points="69.2,-75.6 59.13,-72.31 64.94,-81.16 69.2,-75.6"/>
<text text-anchor="middle" x="143.5" y="-167.5" font-family="Helvetica,sans-Serif" font-size="10.00"> FontBuilderIO</text>
</g>
<!-- Node23&#45;&gt;Node2 -->
<g id="edge40" class="edge">
<title>Node23&#45;&gt;Node2</title>
<path fill="none" stroke="#9a32cd" stroke-dasharray="5,2" d="M588.55,-499.24C621.05,-501.77 661.15,-505.05 697,-508.5 761.1,-514.66 778.29,-509.88 841,-524.5 901.71,-538.66 969.88,-566.68 1004.02,-581.6"/>
<polygon fill="#9a32cd" stroke="#9a32cd" points="589.13,-495.78 578.89,-498.5 588.59,-502.76 589.13,-495.78"/>
<text text-anchor="middle" x="778" y="-527.5" font-family="Helvetica,sans-Serif" font-size="10.00"> _Path</text>
</g>
<!-- Node23&#45;&gt;Node10 -->
<g id="edge34" class="edge">
<title>Node23&#45;&gt;Node10</title>
<path fill="none" stroke="#9a32cd" stroke-dasharray="5,2" d="M588.51,-505.41C621.17,-511.41 661.41,-519.46 697,-528.5 714.07,-532.83 732.87,-538.66 747.96,-543.59"/>
<polygon fill="#9a32cd" stroke="#9a32cd" points="589.25,-501.99 578.79,-503.65 588,-508.87 589.25,-501.99"/>
<text text-anchor="middle" x="646" y="-531.5" font-family="Helvetica,sans-Serif" font-size="10.00"> TempBuffer</text>
</g>
<!-- Node24&#45;&gt;Node2 -->
<g id="edge37" class="edge">
<title>Node24&#45;&gt;Node2</title>
<path fill="none" stroke="#9a32cd" stroke-dasharray="5,2" d="M463.49,-676.82C565.1,-677.26 768.66,-671.3 933,-623.5 955.63,-616.92 980.88,-608.13 999.36,-601.43"/>
<polygon fill="#9a32cd" stroke="#9a32cd" points="463.74,-673.33 453.72,-676.76 463.7,-680.32 463.74,-673.33"/>
<text text-anchor="middle" x="646" y="-676.5" font-family="Helvetica,sans-Serif" font-size="10.00"> _ClipRectStack</text>
</g>
<!-- Node25 -->
<g id="node25" class="node">
<title>Node25</title>
<g id="a_node25"><a xlink:href="struct_im_vector.html" target="_top" xlink:title=" ">
<polygon fill="white" stroke="#bfbfbf" points="841,-600 715,-600 715,-581 841,-581 841,-600"/>
<text text-anchor="middle" x="778" y="-588" font-family="Helvetica,sans-Serif" font-size="10.00">ImVector&lt; ImTextureID &gt;</text>
</a>
</g>
</g>
<!-- Node25&#45;&gt;Node2 -->
<g id="edge39" class="edge">
<title>Node25&#45;&gt;Node2</title>
<path fill="none" stroke="#9a32cd" stroke-dasharray="5,2" d="M852.64,-590.8C899.38,-590.99 957.58,-591.22 993.25,-591.37"/>
<polygon fill="#9a32cd" stroke="#9a32cd" points="852.86,-587.3 842.84,-590.76 852.83,-594.3 852.86,-587.3"/>
<text text-anchor="middle" x="896" y="-593.5" font-family="Helvetica,sans-Serif" font-size="10.00"> _TextureIdStack</text>
</g>
<!-- Node26&#45;&gt;Node2 -->
<g id="edge41" class="edge">
<title>Node26&#45;&gt;Node2</title>
<path fill="none" stroke="#9a32cd" stroke-dasharray="5,2" d="M708.61,-631.29C766.58,-625.28 855.79,-615.63 933,-605.5 953.07,-602.87 975.52,-599.5 993.33,-596.73"/>
<polygon fill="#9a32cd" stroke="#9a32cd" points="708.54,-627.78 698.95,-632.29 709.25,-634.74 708.54,-627.78"/>
<text text-anchor="middle" x="778" y="-633.5" font-family="Helvetica,sans-Serif" font-size="10.00"> _CmdHeader</text>
</g>
<!-- Node27 -->
<g id="node27" class="node">
<title>Node27</title>
<g id="a_node27"><a xlink:href="struct_im_draw_list_splitter.html" target="_top" xlink:title=" ">
<polygon fill="white" stroke="#bfbfbf" points="2017,-618 1919,-618 1919,-599 2017,-599 2017,-618"/>
<text text-anchor="middle" x="1968" y="-606" font-family="Helvetica,sans-Serif" font-size="10.00">ImDrawListSplitter</text>
</a>
</g>
</g>
<!-- Node27&#45;&gt;Node2 -->
<g id="edge43" class="edge">
<title>Node27&#45;&gt;Node2</title>
<path fill="none" stroke="#9a32cd" stroke-dasharray="5,2" d="M1907.42,-601.33C1867.02,-597.07 1812.37,-592.5 1764,-592.5 1234.5,-592.5 1234.5,-592.5 1234.5,-592.5 1173.19,-592.5 1101.65,-592.05 1060.9,-591.76"/>
<polygon fill="#9a32cd" stroke="#9a32cd" points="1906.86,-604.79 1917.18,-602.38 1907.61,-597.83 1906.86,-604.79"/>
<text text-anchor="middle" x="1502" y="-595.5" font-family="Helvetica,sans-Serif" font-size="10.00"> _Splitter</text>
</g>
<!-- Node28 -->
<g id="node28" class="node">
<title>Node28</title>
<g id="a_node28"><a xlink:href="struct_im_vector.html" target="_top" xlink:title=" ">
<polygon fill="white" stroke="#bfbfbf" points="1834,-665 1692,-665 1692,-646 1834,-646 1834,-665"/>
<text text-anchor="middle" x="1763" y="-653" font-family="Helvetica,sans-Serif" font-size="10.00">ImVector&lt; ImDrawChannel &gt;</text>
</a>
</g>
</g>
<!-- Node28&#45;&gt;Node27 -->
<g id="edge44" class="edge">
<title>Node28&#45;&gt;Node27</title>
<path fill="none" stroke="#9a32cd" stroke-dasharray="5,2" d="M1817.94,-643.01C1851.13,-635.33 1893.07,-625.62 1924.01,-618.45"/>
<polygon fill="#9a32cd" stroke="#9a32cd" points="1817.48,-639.53 1808.53,-645.19 1819.06,-646.35 1817.48,-639.53"/>
<text text-anchor="middle" x="1876.5" y="-637.5" font-family="Helvetica,sans-Serif" font-size="10.00"> _Channels</text>
</g>
<!-- Node29&#45;&gt;Node28 -->
<g id="edge45" class="edge">
<title>Node29&#45;&gt;Node28</title>
<path fill="none" stroke="#9a32cd" stroke-dasharray="5,2" d="M1644.37,-663.07C1659.33,-662.1 1675.82,-661.04 1691.6,-660.03"/>
<polygon fill="#9a32cd" stroke="#9a32cd" points="1644.53,-659.55 1634.78,-663.68 1644.98,-666.53 1644.53,-659.55"/>
<text text-anchor="middle" x="1662.5" y="-665.5" font-family="Helvetica,sans-Serif" font-size="10.00"> Data</text>
</g>
</g>
</svg>
