<?xml version="1.0" encoding="UTF-8" standalone="no"?>
<!DOCTYPE svg PUBLIC "-//W3C//DTD SVG 1.1//EN"
 "http://www.w3.org/Graphics/SVG/1.1/DTD/svg11.dtd">
<!-- Generated by graphviz version 7.0.5 (20221223.1930)
 -->
<!-- Title: ImDrawDataBuilder Pages: 1 -->
<svg width="2092pt" height="676pt"
 viewBox="0.00 0.00 2092.00 675.99" xmlns="http://www.w3.org/2000/svg" xmlns:xlink="http://www.w3.org/1999/xlink">
<g id="graph0" class="graph" transform="scale(1 1) rotate(0) translate(4 671.99)">
<title>ImDrawDataBuilder</title>
<!-- Node1 -->
<g id="node1" class="node">
<title>Node1</title>
<g id="a_node1"><a xlink:title=" ">
<polygon fill="#999999" stroke="#666666" points="1511,-543.49 1410,-543.49 1410,-524.49 1511,-524.49 1511,-543.49"/>
<text text-anchor="middle" x="1460.5" y="-531.49" font-family="Helvetica,sans-Serif" font-size="10.00">ImDrawDataBuilder</text>
</a>
</g>
</g>
<!-- Node2 -->
<g id="node2" class="node">
<title>Node2</title>
<g id="a_node2"><a xlink:href="struct_im_vector.html" target="_top" xlink:title=" ">
<polygon fill="white" stroke="#bfbfbf" points="1329,-543.49 1200,-543.49 1200,-524.49 1329,-524.49 1329,-543.49"/>
<text text-anchor="middle" x="1264.5" y="-531.49" font-family="Helvetica,sans-Serif" font-size="10.00">ImVector&lt; ImDrawList * &gt;</text>
</a>
</g>
</g>
<!-- Node2&#45;&gt;Node1 -->
<g id="edge1" class="edge">
<title>Node2&#45;&gt;Node1</title>
<path fill="none" stroke="#9a32cd" stroke-dasharray="5,2" d="M1340.79,-533.99C1363.83,-533.99 1388.59,-533.99 1409.5,-533.99"/>
<polygon fill="#9a32cd" stroke="#9a32cd" points="1340.81,-530.49 1330.81,-533.99 1340.81,-537.49 1340.81,-530.49"/>
<text text-anchor="middle" x="1363" y="-536.99" font-family="Helvetica,sans-Serif" font-size="10.00"> Layers</text>
</g>
<!-- Node3 -->
<g id="node3" class="node">
<title>Node3</title>
<g id="a_node3"><a xlink:href="struct_im_draw_list.html" target="_top" xlink:title=" ">
<polygon fill="white" stroke="#bfbfbf" points="1060.5,-486.49 993.5,-486.49 993.5,-467.49 1060.5,-467.49 1060.5,-486.49"/>
<text text-anchor="middle" x="1027" y="-474.49" font-family="Helvetica,sans-Serif" font-size="10.00">ImDrawList</text>
</a>
</g>
</g>
<!-- Node3&#45;&gt;Node2 -->
<g id="edge2" class="edge">
<title>Node3&#45;&gt;Node2</title>
<path fill="none" stroke="#9a32cd" stroke-dasharray="5,2" d="M1063.96,-490.85C1081.05,-497.05 1101.88,-504.06 1121,-508.99 1146.42,-515.55 1174.83,-520.92 1199.55,-524.98"/>
<polygon fill="#9a32cd" stroke="#9a32cd" points="1065.34,-487.63 1054.75,-487.45 1062.91,-494.2 1065.34,-487.63"/>
<text text-anchor="middle" x="1151.5" y="-523.99" font-family="Helvetica,sans-Serif" font-size="10.00"> Data</text>
</g>
<!-- Node5 -->
<g id="node5" class="node">
<title>Node5</title>
<g id="a_node5"><a xlink:href="struct_im_draw_cmd.html" target="_top" xlink:title=" ">
<polygon fill="white" stroke="#bfbfbf" points="1300,-467.49 1229,-467.49 1229,-448.49 1300,-448.49 1300,-467.49"/>
<text text-anchor="middle" x="1264.5" y="-455.49" font-family="Helvetica,sans-Serif" font-size="10.00">ImDrawCmd</text>
</a>
</g>
</g>
<!-- Node3&#45;&gt;Node5 -->
<g id="edge6" class="edge">
<title>Node3&#45;&gt;Node5</title>
<path fill="none" stroke="#9a32cd" stroke-dasharray="5,2" d="M1072,-473.44C1117.34,-469.79 1187.11,-464.16 1228.74,-460.8"/>
<polygon fill="#9a32cd" stroke="#9a32cd" points="1071.94,-469.94 1062.25,-474.23 1072.5,-476.92 1071.94,-469.94"/>
<text text-anchor="middle" x="1151.5" y="-471.99" font-family="Helvetica,sans-Serif" font-size="10.00"> UserCallback</text>
</g>
<!-- Node4 -->
<g id="node4" class="node">
<title>Node4</title>
<g id="a_node4"><a xlink:href="struct_im_vector.html" target="_top" xlink:title=" ">
<polygon fill="white" stroke="#bfbfbf" points="1524,-448.49 1397,-448.49 1397,-429.49 1524,-429.49 1524,-448.49"/>
<text text-anchor="middle" x="1460.5" y="-436.49" font-family="Helvetica,sans-Serif" font-size="10.00">ImVector&lt; ImDrawCmd &gt;</text>
</a>
</g>
</g>
<!-- Node4&#45;&gt;Node3 -->
<g id="edge3" class="edge">
<title>Node4&#45;&gt;Node3</title>
<path fill="none" stroke="#9a32cd" stroke-dasharray="5,2" d="M1385.53,-432.34C1367.08,-430.95 1347.33,-429.7 1329,-428.99 1271.71,-426.8 1256.8,-421.22 1200,-428.99 1147.48,-436.19 1088.38,-455.19 1054.92,-467.01"/>
<polygon fill="#9a32cd" stroke="#9a32cd" points="1385.08,-435.81 1395.32,-433.1 1385.62,-428.83 1385.08,-435.81"/>
<text text-anchor="middle" x="1264.5" y="-431.99" font-family="Helvetica,sans-Serif" font-size="10.00"> CmdBuffer</text>
</g>
<!-- Node30 -->
<g id="node30" class="node">
<title>Node30</title>
<g id="a_node30"><a xlink:href="struct_im_draw_channel.html" target="_top" xlink:title=" ">
<polygon fill="white" stroke="#bfbfbf" points="1700,-448.49 1614,-448.49 1614,-429.49 1700,-429.49 1700,-448.49"/>
<text text-anchor="middle" x="1657" y="-436.49" font-family="Helvetica,sans-Serif" font-size="10.00">ImDrawChannel</text>
</a>
</g>
</g>
<!-- Node4&#45;&gt;Node30 -->
<g id="edge47" class="edge">
<title>Node4&#45;&gt;Node30</title>
<path fill="none" stroke="#9a32cd" stroke-dasharray="5,2" d="M1535.88,-438.99C1562.19,-438.99 1590.87,-438.99 1613.6,-438.99"/>
<polygon fill="#9a32cd" stroke="#9a32cd" points="1535.89,-435.49 1525.89,-438.99 1535.89,-442.49 1535.89,-435.49"/>
<text text-anchor="middle" x="1569" y="-441.99" font-family="Helvetica,sans-Serif" font-size="10.00"> _CmdBuffer</text>
</g>
<!-- Node5&#45;&gt;Node4 -->
<g id="edge4" class="edge">
<title>Node5&#45;&gt;Node4</title>
<path fill="none" stroke="#9a32cd" stroke-dasharray="5,2" d="M1311.41,-453.5C1336.94,-451 1369.08,-447.85 1396.89,-445.13"/>
<polygon fill="#9a32cd" stroke="#9a32cd" points="1311.3,-449.99 1301.69,-454.45 1311.98,-456.96 1311.3,-449.99"/>
<text text-anchor="middle" x="1363" y="-451.99" font-family="Helvetica,sans-Serif" font-size="10.00"> Data</text>
</g>
<!-- Node6 -->
<g id="node6" class="node">
<title>Node6</title>
<g id="a_node6"><a xlink:href="struct_im_vec4.html" target="_top" xlink:title=" ">
<polygon fill="white" stroke="#bfbfbf" points="69,-581.49 19,-581.49 19,-562.49 69,-562.49 69,-581.49"/>
<text text-anchor="middle" x="44" y="-569.49" font-family="Helvetica,sans-Serif" font-size="10.00">ImVec4</text>
</a>
</g>
</g>
<!-- Node6&#45;&gt;Node5 -->
<g id="edge5" class="edge">
<title>Node6&#45;&gt;Node5</title>
<path fill="none" stroke="#9a32cd" stroke-dasharray="5,2" d="M68.56,-587.99C107.18,-612.62 187.16,-656.99 262,-656.99 262,-656.99 262,-656.99 1028,-656.99 1115.04,-656.99 1118.43,-595.45 1182,-535.99 1190.73,-527.83 1191.57,-524.48 1200,-515.99 1217.46,-498.4 1238.98,-479.24 1251.95,-467.94"/>
<polygon fill="#9a32cd" stroke="#9a32cd" points="70.79,-585.27 60.5,-582.74 66.97,-591.13 70.79,-585.27"/>
<text text-anchor="middle" x="643.5" y="-659.99" font-family="Helvetica,sans-Serif" font-size="10.00"> ClipRect</text>
</g>
<!-- Node11 -->
<g id="node11" class="node">
<title>Node11</title>
<g id="a_node11"><a xlink:href="struct_im_draw_list_shared_data.html" target="_top" xlink:title=" ">
<polygon fill="white" stroke="#bfbfbf" points="837,-373.49 719,-373.49 719,-354.49 837,-354.49 837,-373.49"/>
<text text-anchor="middle" x="778" y="-361.49" font-family="Helvetica,sans-Serif" font-size="10.00">ImDrawListSharedData</text>
</a>
</g>
</g>
<!-- Node6&#45;&gt;Node11 -->
<g id="edge34" class="edge">
<title>Node6&#45;&gt;Node11</title>
<path fill="none" stroke="#9a32cd" stroke-dasharray="5,2" d="M64.28,-554.76C91.96,-531.05 145.53,-488.96 199,-467.99 407.51,-386.24 479.43,-444.11 697,-390.99 715.51,-386.47 735.85,-379.58 751.39,-373.89"/>
<polygon fill="#9a32cd" stroke="#9a32cd" points="62,-552.11 56.76,-561.31 66.59,-557.38 62,-552.11"/>
<text text-anchor="middle" x="396" y="-439.99" font-family="Helvetica,sans-Serif" font-size="10.00"> ClipRectFullscreen</text>
<text text-anchor="middle" x="396" y="-428.99" font-family="Helvetica,sans-Serif" font-size="10.00">TexUvLines</text>
</g>
<!-- Node17 -->
<g id="node17" class="node">
<title>Node17</title>
<g id="a_node17"><a xlink:href="struct_im_font_atlas.html" target="_top" xlink:title=" ">
<polygon fill="white" stroke="#bfbfbf" points="298,-263.49 228,-263.49 228,-244.49 298,-244.49 298,-263.49"/>
<text text-anchor="middle" x="263" y="-251.49" font-family="Helvetica,sans-Serif" font-size="10.00">ImFontAtlas</text>
</a>
</g>
</g>
<!-- Node6&#45;&gt;Node17 -->
<g id="edge31" class="edge">
<title>Node6&#45;&gt;Node17</title>
<path fill="none" stroke="#9a32cd" stroke-dasharray="5,2" d="M50.07,-551.09C58.38,-519.44 76.93,-458.23 106,-412.99 128.05,-378.67 219.73,-292.91 251.28,-263.82"/>
<polygon fill="#9a32cd" stroke="#9a32cd" points="46.74,-550.01 47.68,-560.56 53.52,-551.73 46.74,-550.01"/>
<text text-anchor="middle" x="143.5" y="-415.99" font-family="Helvetica,sans-Serif" font-size="10.00"> TexUvLines</text>
</g>
<!-- Node25 -->
<g id="node25" class="node">
<title>Node25</title>
<g id="a_node25"><a xlink:href="struct_im_vector.html" target="_top" xlink:title=" ">
<polygon fill="white" stroke="#bfbfbf" points="697,-627.49 590,-627.49 590,-608.49 697,-608.49 697,-627.49"/>
<text text-anchor="middle" x="643.5" y="-615.49" font-family="Helvetica,sans-Serif" font-size="10.00">ImVector&lt; ImVec4 &gt;</text>
</a>
</g>
</g>
<!-- Node6&#45;&gt;Node25 -->
<g id="edge39" class="edge">
<title>Node6&#45;&gt;Node25</title>
<path fill="none" stroke="#9a32cd" stroke-dasharray="5,2" d="M80.36,-581.85C88.71,-583.86 97.62,-585.73 106,-586.99 281.75,-613.45 493.02,-617.7 589.62,-618.14"/>
<polygon fill="#9a32cd" stroke="#9a32cd" points="81.45,-578.52 70.9,-579.46 79.73,-585.3 81.45,-578.52"/>
<text text-anchor="middle" x="263" y="-611.99" font-family="Helvetica,sans-Serif" font-size="10.00"> Data</text>
</g>
<!-- Node27 -->
<g id="node27" class="node">
<title>Node27</title>
<g id="a_node27"><a xlink:href="struct_im_draw_cmd_header.html" target="_top" xlink:title=" ">
<polygon fill="white" stroke="#bfbfbf" points="447,-581.49 345,-581.49 345,-562.49 447,-562.49 447,-581.49"/>
<text text-anchor="middle" x="396" y="-569.49" font-family="Helvetica,sans-Serif" font-size="10.00">ImDrawCmdHeader</text>
</a>
</g>
</g>
<!-- Node6&#45;&gt;Node27 -->
<g id="edge43" class="edge">
<title>Node6&#45;&gt;Node27</title>
<path fill="none" stroke="#9a32cd" stroke-dasharray="5,2" d="M80.56,-571.99C143.14,-571.99 273.12,-571.99 344.81,-571.99"/>
<polygon fill="#9a32cd" stroke="#9a32cd" points="80.85,-568.49 70.85,-571.99 80.85,-575.49 80.85,-568.49"/>
<text text-anchor="middle" x="143.5" y="-574.99" font-family="Helvetica,sans-Serif" font-size="10.00"> ClipRect</text>
</g>
<!-- Node7 -->
<g id="node7" class="node">
<title>Node7</title>
<g id="a_node7"><a xlink:href="struct_im_vector.html" target="_top" xlink:title=" ">
<polygon fill="white" stroke="#bfbfbf" points="837.5,-336.49 718.5,-336.49 718.5,-317.49 837.5,-317.49 837.5,-336.49"/>
<text text-anchor="middle" x="778" y="-324.49" font-family="Helvetica,sans-Serif" font-size="10.00">ImVector&lt; ImDrawIdx &gt;</text>
</a>
</g>
</g>
<!-- Node7&#45;&gt;Node3 -->
<g id="edge7" class="edge">
<title>Node7&#45;&gt;Node3</title>
<path fill="none" stroke="#9a32cd" stroke-dasharray="5,2" d="M848.92,-332.2C882.61,-335.74 918.76,-341.39 933,-349.99 980.95,-378.97 1011.74,-442.98 1022.11,-467.33"/>
<polygon fill="#9a32cd" stroke="#9a32cd" points="849.42,-328.73 839.12,-331.23 848.73,-335.7 849.42,-328.73"/>
<text text-anchor="middle" x="896" y="-352.99" font-family="Helvetica,sans-Serif" font-size="10.00"> IdxBuffer</text>
</g>
<!-- Node7&#45;&gt;Node30 -->
<g id="edge48" class="edge">
<title>Node7&#45;&gt;Node30</title>
<path fill="none" stroke="#9a32cd" stroke-dasharray="5,2" d="M849.07,-322.65C898.5,-319.95 966.28,-316.99 1026,-316.99 1026,-316.99 1026,-316.99 1461.5,-316.99 1545.61,-316.99 1623.2,-399.87 1647.88,-429.01"/>
<polygon fill="#9a32cd" stroke="#9a32cd" points="849.16,-319.14 839.37,-323.19 849.55,-326.12 849.16,-319.14"/>
<text text-anchor="middle" x="1264.5" y="-319.99" font-family="Helvetica,sans-Serif" font-size="10.00"> _IdxBuffer</text>
</g>
<!-- Node8 -->
<g id="node8" class="node">
<title>Node8</title>
<g id="a_node8"><a xlink:href="struct_im_vector.html" target="_top" xlink:title=" ">
<polygon fill="white" stroke="#bfbfbf" points="840.5,-458.49 715.5,-458.49 715.5,-439.49 840.5,-439.49 840.5,-458.49"/>
<text text-anchor="middle" x="778" y="-446.49" font-family="Helvetica,sans-Serif" font-size="10.00">ImVector&lt; ImDrawVert &gt;</text>
</a>
</g>
</g>
<!-- Node8&#45;&gt;Node3 -->
<g id="edge8" class="edge">
<title>Node8&#45;&gt;Node3</title>
<path fill="none" stroke="#9a32cd" stroke-dasharray="5,2" d="M852,-457.27C898.78,-462.57 957.23,-469.2 993.07,-473.26"/>
<polygon fill="#9a32cd" stroke="#9a32cd" points="852.53,-453.81 842.2,-456.16 851.74,-460.76 852.53,-453.81"/>
<text text-anchor="middle" x="896" y="-468.99" font-family="Helvetica,sans-Serif" font-size="10.00"> VtxBuffer</text>
</g>
<!-- Node9 -->
<g id="node9" class="node">
<title>Node9</title>
<g id="a_node9"><a xlink:href="struct_im_draw_vert.html" target="_top" xlink:title=" ">
<polygon fill="white" stroke="#bfbfbf" points="552.5,-491.49 484.5,-491.49 484.5,-472.49 552.5,-472.49 552.5,-491.49"/>
<text text-anchor="middle" x="518.5" y="-479.49" font-family="Helvetica,sans-Serif" font-size="10.00">ImDrawVert</text>
</a>
</g>
</g>
<!-- Node9&#45;&gt;Node3 -->
<g id="edge37" class="edge">
<title>Node9&#45;&gt;Node3</title>
<path fill="none" stroke="#9a32cd" stroke-dasharray="5,2" d="M564.18,-482.48C640.02,-483.17 798.79,-484.04 933,-480.99 953.03,-480.54 975.48,-479.59 993.3,-478.73"/>
<polygon fill="#9a32cd" stroke="#9a32cd" points="564.28,-478.98 554.25,-482.39 564.22,-485.98 564.28,-478.98"/>
<text text-anchor="middle" x="778" y="-485.99" font-family="Helvetica,sans-Serif" font-size="10.00"> _VtxWritePtr</text>
</g>
<!-- Node9&#45;&gt;Node8 -->
<g id="edge9" class="edge">
<title>Node9&#45;&gt;Node8</title>
<path fill="none" stroke="#9a32cd" stroke-dasharray="5,2" d="M563.88,-474.05C572.53,-472.61 581.54,-471.19 590,-469.99 631.73,-464.1 678.89,-458.82 715.41,-455.02"/>
<polygon fill="#9a32cd" stroke="#9a32cd" points="563.56,-470.55 554.28,-475.67 564.73,-477.45 563.56,-470.55"/>
<text text-anchor="middle" x="643.5" y="-472.99" font-family="Helvetica,sans-Serif" font-size="10.00"> Data</text>
</g>
<!-- Node10 -->
<g id="node10" class="node">
<title>Node10</title>
<g id="a_node10"><a xlink:href="struct_im_vec2.html" target="_top" xlink:title=" ">
<polygon fill="white" stroke="#bfbfbf" points="69,-327.49 19,-327.49 19,-308.49 69,-308.49 69,-327.49"/>
<text text-anchor="middle" x="44" y="-315.49" font-family="Helvetica,sans-Serif" font-size="10.00">ImVec2</text>
</a>
</g>
</g>
<!-- Node10&#45;&gt;Node9 -->
<g id="edge10" class="edge">
<title>Node10&#45;&gt;Node9</title>
<path fill="none" stroke="#9a32cd" stroke-dasharray="5,2" d="M50.42,-338.93C58.19,-364.42 75.08,-406.71 106,-427.99 224.7,-509.71 409.09,-496.7 484.08,-487.1"/>
<polygon fill="#9a32cd" stroke="#9a32cd" points="53.81,-338.06 47.73,-329.38 47.07,-339.96 53.81,-338.06"/>
<text text-anchor="middle" x="263" y="-505.99" font-family="Helvetica,sans-Serif" font-size="10.00"> pos</text>
<text text-anchor="middle" x="263" y="-494.99" font-family="Helvetica,sans-Serif" font-size="10.00">uv</text>
</g>
<!-- Node10&#45;&gt;Node11 -->
<g id="edge12" class="edge">
<title>Node10&#45;&gt;Node11</title>
<path fill="none" stroke="#9a32cd" stroke-dasharray="5,2" d="M80.49,-320.22C197.67,-327.59 572.97,-351.17 718.53,-360.32"/>
<polygon fill="#9a32cd" stroke="#9a32cd" points="81.07,-316.75 70.87,-319.62 80.63,-323.74 81.07,-316.75"/>
<text text-anchor="middle" x="396" y="-357.99" font-family="Helvetica,sans-Serif" font-size="10.00"> ArcFastVtx</text>
<text text-anchor="middle" x="396" y="-346.99" font-family="Helvetica,sans-Serif" font-size="10.00">TexUvWhitePixel</text>
</g>
<!-- Node10&#45;&gt;Node17 -->
<g id="edge20" class="edge">
<title>Node10&#45;&gt;Node17</title>
<path fill="none" stroke="#9a32cd" stroke-dasharray="5,2" d="M80.04,-306.94C88.52,-304.3 97.58,-301.52 106,-298.99 147.71,-286.48 195.9,-272.68 227.55,-263.71"/>
<polygon fill="#9a32cd" stroke="#9a32cd" points="79.25,-303.52 70.75,-309.84 81.34,-310.2 79.25,-303.52"/>
<text text-anchor="middle" x="143.5" y="-312.99" font-family="Helvetica,sans-Serif" font-size="10.00"> TexUvScale</text>
<text text-anchor="middle" x="143.5" y="-301.99" font-family="Helvetica,sans-Serif" font-size="10.00">TexUvWhitePixel</text>
</g>
<!-- Node20 -->
<g id="node20" class="node">
<title>Node20</title>
<g id="a_node20"><a xlink:href="struct_im_font_atlas_custom_rect.html" target="_top" xlink:title=" ">
<polygon fill="white" stroke="#bfbfbf" points="840,-168.49 716,-168.49 716,-149.49 840,-149.49 840,-168.49"/>
<text text-anchor="middle" x="778" y="-156.49" font-family="Helvetica,sans-Serif" font-size="10.00">ImFontAtlasCustomRect</text>
</a>
</g>
</g>
<!-- Node10&#45;&gt;Node20 -->
<g id="edge25" class="edge">
<title>Node10&#45;&gt;Node20</title>
<path fill="none" stroke="#9a32cd" stroke-dasharray="5,2" d="M62.32,-300.02C70.28,-291.62 79.75,-281.42 88,-271.99 96.32,-262.49 95.07,-256.33 106,-249.99 294.43,-140.74 373.56,-197.41 590,-172.99 631.89,-168.27 679.26,-164.74 715.83,-162.41"/>
<polygon fill="#9a32cd" stroke="#9a32cd" points="59.84,-297.55 55.46,-307.2 64.9,-302.39 59.84,-297.55"/>
<text text-anchor="middle" x="396" y="-182.99" font-family="Helvetica,sans-Serif" font-size="10.00"> GlyphOffset</text>
</g>
<!-- Node22 -->
<g id="node22" class="node">
<title>Node22</title>
<g id="a_node22"><a xlink:href="struct_im_font_config.html" target="_top" xlink:title=" ">
<polygon fill="white" stroke="#bfbfbf" points="815,-91.49 741,-91.49 741,-72.49 815,-72.49 815,-91.49"/>
<text text-anchor="middle" x="778" y="-79.49" font-family="Helvetica,sans-Serif" font-size="10.00">ImFontConfig</text>
</a>
</g>
</g>
<!-- Node10&#45;&gt;Node22 -->
<g id="edge29" class="edge">
<title>Node10&#45;&gt;Node22</title>
<path fill="none" stroke="#9a32cd" stroke-dasharray="5,2" d="M66.58,-300.63C74.74,-292.8 83.22,-282.87 88,-271.99 108.91,-224.46 73.84,-79.77 106,-38.99 132.9,-4.9 156.1,-15.74 199,-8.99 407.32,23.78 659.71,-45.26 746.2,-72"/>
<polygon fill="#9a32cd" stroke="#9a32cd" points="64.29,-297.98 59.15,-307.24 68.95,-303.21 64.29,-297.98"/>
<text text-anchor="middle" x="396" y="-21.99" font-family="Helvetica,sans-Serif" font-size="10.00"> GlyphExtraSpacing</text>
<text text-anchor="middle" x="396" y="-10.99" font-family="Helvetica,sans-Serif" font-size="10.00">GlyphOffset</text>
</g>
<!-- Node24 -->
<g id="node24" class="node">
<title>Node24</title>
<g id="a_node24"><a xlink:href="struct_im_vector.html" target="_top" xlink:title=" ">
<polygon fill="white" stroke="#bfbfbf" points="572,-391.49 465,-391.49 465,-372.49 572,-372.49 572,-391.49"/>
<text text-anchor="middle" x="518.5" y="-379.49" font-family="Helvetica,sans-Serif" font-size="10.00">ImVector&lt; ImVec2 &gt;</text>
</a>
</g>
</g>
<!-- Node10&#45;&gt;Node24 -->
<g id="edge36" class="edge">
<title>Node10&#45;&gt;Node24</title>
<path fill="none" stroke="#9a32cd" stroke-dasharray="5,2" d="M70.21,-333.6C80.87,-339.45 93.65,-345.51 106,-348.99 231.02,-384.28 385.28,-386.14 464.71,-384.22"/>
<polygon fill="#9a32cd" stroke="#9a32cd" points="72.08,-330.64 61.67,-328.69 68.59,-336.71 72.08,-330.64"/>
<text text-anchor="middle" x="263" y="-383.99" font-family="Helvetica,sans-Serif" font-size="10.00"> Data</text>
</g>
<!-- Node11&#45;&gt;Node3 -->
<g id="edge11" class="edge">
<title>Node11&#45;&gt;Node3</title>
<path fill="none" stroke="#9a32cd" stroke-dasharray="5,2" d="M848.28,-364.07C875.82,-366.45 907.05,-372.21 933,-384.99 972.73,-404.57 1005.89,-447.7 1019.44,-467.15"/>
<polygon fill="#9a32cd" stroke="#9a32cd" points="848.87,-360.61 838.65,-363.38 848.37,-367.59 848.87,-360.61"/>
<text text-anchor="middle" x="896" y="-387.99" font-family="Helvetica,sans-Serif" font-size="10.00"> _Data</text>
</g>
<!-- Node12 -->
<g id="node12" class="node">
<title>Node12</title>
<g id="a_node12"><a xlink:href="struct_im_font.html" target="_top" xlink:title=" ">
<polygon fill="white" stroke="#bfbfbf" points="542,-117.49 495,-117.49 495,-98.49 542,-98.49 542,-117.49"/>
<text text-anchor="middle" x="518.5" y="-105.49" font-family="Helvetica,sans-Serif" font-size="10.00">ImFont</text>
</a>
</g>
</g>
<!-- Node12&#45;&gt;Node11 -->
<g id="edge13" class="edge">
<title>Node12&#45;&gt;Node11</title>
<path fill="none" stroke="#9a32cd" stroke-dasharray="5,2" d="M534.62,-126.64C546.68,-142.53 563,-166.46 572,-189.99 589.85,-236.68 555.57,-264.77 590,-300.99 623.51,-336.25 655.2,-299.11 697,-323.99 707.56,-330.28 704.72,-338.26 715,-344.99 720.56,-348.63 726.85,-351.6 733.23,-354.02"/>
<polygon fill="#9a32cd" stroke="#9a32cd" points="537.61,-124.79 528.69,-119.06 532.09,-129.1 537.61,-124.79"/>
<text text-anchor="middle" x="643.5" y="-326.99" font-family="Helvetica,sans-Serif" font-size="10.00"> Font</text>
</g>
<!-- Node18 -->
<g id="node18" class="node">
<title>Node18</title>
<g id="a_node18"><a xlink:href="struct_im_vector.html" target="_top" xlink:title=" ">
<polygon fill="white" stroke="#bfbfbf" points="833,-210.49 723,-210.49 723,-191.49 833,-191.49 833,-210.49"/>
<text text-anchor="middle" x="778" y="-198.49" font-family="Helvetica,sans-Serif" font-size="10.00">ImVector&lt; ImFont * &gt;</text>
</a>
</g>
</g>
<!-- Node12&#45;&gt;Node18 -->
<g id="edge22" class="edge">
<title>Node12&#45;&gt;Node18</title>
<path fill="none" stroke="#9a32cd" stroke-dasharray="5,2" d="M543.4,-123.95C556.69,-132.29 573.78,-142.16 590,-148.99 635.33,-168.11 689.78,-182.33 728.2,-191.03"/>
<polygon fill="#9a32cd" stroke="#9a32cd" points="545.63,-121.23 535.32,-118.77 541.85,-127.12 545.63,-121.23"/>
<text text-anchor="middle" x="643.5" y="-186.99" font-family="Helvetica,sans-Serif" font-size="10.00"> Data</text>
</g>
<!-- Node12&#45;&gt;Node20 -->
<g id="edge26" class="edge">
<title>Node12&#45;&gt;Node20</title>
<path fill="none" stroke="#9a32cd" stroke-dasharray="5,2" d="M553.71,-111.39C589.67,-115.33 647.76,-122.77 697,-133.99 714.59,-138.01 733.91,-144 749.16,-149.11"/>
<polygon fill="#9a32cd" stroke="#9a32cd" points="554.23,-107.92 543.91,-110.34 553.49,-114.88 554.23,-107.92"/>
<text text-anchor="middle" x="643.5" y="-136.99" font-family="Helvetica,sans-Serif" font-size="10.00"> Font</text>
</g>
<!-- Node12&#45;&gt;Node22 -->
<g id="edge30" class="edge">
<title>Node12&#45;&gt;Node22</title>
<path fill="none" stroke="#9a32cd" stroke-dasharray="5,2" d="M553.74,-103.99C565.26,-102.68 578.18,-101.23 590,-99.99 642.39,-94.5 703.1,-88.78 740.78,-85.3"/>
<polygon fill="#9a32cd" stroke="#9a32cd" points="553.39,-100.51 543.85,-105.13 554.19,-107.46 553.39,-100.51"/>
<text text-anchor="middle" x="643.5" y="-102.99" font-family="Helvetica,sans-Serif" font-size="10.00"> DstFont</text>
</g>
<!-- Node13 -->
<g id="node13" class="node">
<title>Node13</title>
<g id="a_node13"><a xlink:href="struct_im_vector.html" target="_top" xlink:title=" ">
<polygon fill="white" stroke="#bfbfbf" points="308.5,-131.49 217.5,-131.49 217.5,-112.49 308.5,-112.49 308.5,-131.49"/>
<text text-anchor="middle" x="263" y="-119.49" font-family="Helvetica,sans-Serif" font-size="10.00">ImVector&lt; float &gt;</text>
</a>
</g>
</g>
<!-- Node13&#45;&gt;Node12 -->
<g id="edge14" class="edge">
<title>Node13&#45;&gt;Node12</title>
<path fill="none" stroke="#9a32cd" stroke-dasharray="5,2" d="M320.03,-118.9C374.89,-115.87 455.76,-111.4 494.79,-109.25"/>
<polygon fill="#9a32cd" stroke="#9a32cd" points="320.04,-115.39 310.25,-119.44 320.43,-122.38 320.04,-115.39"/>
<text text-anchor="middle" x="396" y="-120.99" font-family="Helvetica,sans-Serif" font-size="10.00"> IndexAdvanceX</text>
</g>
<!-- Node14 -->
<g id="node14" class="node">
<title>Node14</title>
<g id="a_node14"><a xlink:href="struct_im_vector.html" target="_top" xlink:title=" ">
<polygon fill="white" stroke="#bfbfbf" points="319,-94.49 207,-94.49 207,-75.49 319,-75.49 319,-94.49"/>
<text text-anchor="middle" x="263" y="-82.49" font-family="Helvetica,sans-Serif" font-size="10.00">ImVector&lt; ImWchar &gt;</text>
</a>
</g>
</g>
<!-- Node14&#45;&gt;Node12 -->
<g id="edge15" class="edge">
<title>Node14&#45;&gt;Node12</title>
<path fill="none" stroke="#9a32cd" stroke-dasharray="5,2" d="M330.78,-88.61C365.49,-90.78 408.58,-93.91 447,-97.99 462.98,-99.69 480.91,-102.25 494.69,-104.35"/>
<polygon fill="#9a32cd" stroke="#9a32cd" points="331.05,-85.12 320.86,-88.01 330.62,-92.11 331.05,-85.12"/>
<text text-anchor="middle" x="396" y="-100.99" font-family="Helvetica,sans-Serif" font-size="10.00"> IndexLookup</text>
</g>
<!-- Node15 -->
<g id="node15" class="node">
<title>Node15</title>
<g id="a_node15"><a xlink:href="struct_im_vector.html" target="_top" xlink:title=" ">
<polygon fill="white" stroke="#bfbfbf" points="327,-57.49 199,-57.49 199,-38.49 327,-38.49 327,-57.49"/>
<text text-anchor="middle" x="263" y="-45.49" font-family="Helvetica,sans-Serif" font-size="10.00">ImVector&lt; ImFontGlyph &gt;</text>
</a>
</g>
</g>
<!-- Node15&#45;&gt;Node12 -->
<g id="edge16" class="edge">
<title>Node15&#45;&gt;Node12</title>
<path fill="none" stroke="#9a32cd" stroke-dasharray="5,2" d="M338.4,-54C372.06,-57.98 412.05,-64.48 447,-74.99 465.89,-80.68 486.17,-90.61 500.1,-98.1"/>
<polygon fill="#9a32cd" stroke="#9a32cd" points="339.08,-50.56 328.75,-52.92 338.29,-57.51 339.08,-50.56"/>
<text text-anchor="middle" x="396" y="-77.99" font-family="Helvetica,sans-Serif" font-size="10.00"> Glyphs</text>
</g>
<!-- Node16 -->
<g id="node16" class="node">
<title>Node16</title>
<g id="a_node16"><a xlink:href="struct_im_font_glyph.html" target="_top" xlink:title=" ">
<polygon fill="white" stroke="#bfbfbf" points="80,-38.49 8,-38.49 8,-19.49 80,-19.49 80,-38.49"/>
<text text-anchor="middle" x="44" y="-26.49" font-family="Helvetica,sans-Serif" font-size="10.00">ImFontGlyph</text>
</a>
</g>
</g>
<!-- Node16&#45;&gt;Node12 -->
<g id="edge18" class="edge">
<title>Node16&#45;&gt;Node12</title>
<path fill="none" stroke="#9a32cd" stroke-dasharray="5,2" d="M91.71,-22.15C147.85,-15.09 244.77,-6.57 327,-17.99 381.91,-25.62 397.67,-26.71 447,-51.99 471.2,-64.4 495.07,-85.81 507.88,-98.26"/>
<polygon fill="#9a32cd" stroke="#9a32cd" points="91.33,-18.67 81.87,-23.44 92.24,-25.62 91.33,-18.67"/>
<text text-anchor="middle" x="263" y="-20.99" font-family="Helvetica,sans-Serif" font-size="10.00"> FallbackGlyph</text>
</g>
<!-- Node16&#45;&gt;Node15 -->
<g id="edge17" class="edge">
<title>Node16&#45;&gt;Node15</title>
<path fill="none" stroke="#9a32cd" stroke-dasharray="5,2" d="M91.78,-33.09C123,-35.82 164.44,-39.45 198.62,-42.44"/>
<polygon fill="#9a32cd" stroke="#9a32cd" points="92.12,-29.61 81.86,-32.22 91.51,-36.58 92.12,-29.61"/>
<text text-anchor="middle" x="143.5" y="-43.99" font-family="Helvetica,sans-Serif" font-size="10.00"> Data</text>
</g>
<!-- Node17&#45;&gt;Node12 -->
<g id="edge19" class="edge">
<title>Node17&#45;&gt;Node12</title>
<path fill="none" stroke="#9a32cd" stroke-dasharray="5,2" d="M274.47,-234.02C287.71,-210.82 312.73,-173.15 345,-152.99 384.41,-128.38 402.12,-142.04 447,-129.99 463.1,-125.67 481.03,-120.07 494.78,-115.6"/>
<polygon fill="#9a32cd" stroke="#9a32cd" points="271.41,-232.33 269.67,-242.78 277.55,-235.7 271.41,-232.33"/>
<text text-anchor="middle" x="396" y="-155.99" font-family="Helvetica,sans-Serif" font-size="10.00"> ContainerAtlas</text>
</g>
<!-- Node18&#45;&gt;Node17 -->
<g id="edge21" class="edge">
<title>Node18&#45;&gt;Node17</title>
<path fill="none" stroke="#9a32cd" stroke-dasharray="5,2" d="M711.24,-203.77C626.28,-207.98 473.97,-217.62 345,-236.99 329.51,-239.32 312.53,-242.75 298.13,-245.92"/>
<polygon fill="#9a32cd" stroke="#9a32cd" points="711.19,-207.28 721,-203.3 710.85,-200.29 711.19,-207.28"/>
<text text-anchor="middle" x="518.5" y="-224.99" font-family="Helvetica,sans-Serif" font-size="10.00"> Fonts</text>
</g>
<!-- Node19 -->
<g id="node19" class="node">
<title>Node19</title>
<g id="a_node19"><a xlink:href="struct_im_vector.html" target="_top" xlink:title=" ">
<polygon fill="white" stroke="#bfbfbf" points="1103,-288.99 951,-288.99 951,-258.99 1103,-258.99 1103,-288.99"/>
<text text-anchor="start" x="959" y="-276.99" font-family="Helvetica,sans-Serif" font-size="10.00">ImVector&lt; ImFontAtlasCustom</text>
<text text-anchor="middle" x="1027" y="-265.99" font-family="Helvetica,sans-Serif" font-size="10.00">Rect &gt;</text>
</a>
</g>
</g>
<!-- Node19&#45;&gt;Node17 -->
<g id="edge23" class="edge">
<title>Node19&#45;&gt;Node17</title>
<path fill="none" stroke="#9a32cd" stroke-dasharray="5,2" d="M939.15,-276.22C809.57,-278.78 558.04,-280.81 345,-264.99 329.57,-263.85 312.6,-261.68 298.19,-259.58"/>
<polygon fill="#9a32cd" stroke="#9a32cd" points="939.1,-279.72 949.03,-276.02 938.96,-272.73 939.1,-279.72"/>
<text text-anchor="middle" x="643.5" y="-280.99" font-family="Helvetica,sans-Serif" font-size="10.00"> CustomRects</text>
</g>
<!-- Node20&#45;&gt;Node19 -->
<g id="edge24" class="edge">
<title>Node20&#45;&gt;Node19</title>
<path fill="none" stroke="#9a32cd" stroke-dasharray="5,2" d="M818.43,-172.91C825.98,-175.77 833.78,-178.87 841,-181.99 897.46,-206.42 961.3,-239.41 997.29,-258.53"/>
<polygon fill="#9a32cd" stroke="#9a32cd" points="819.66,-169.63 809.07,-169.43 817.22,-176.19 819.66,-169.63"/>
<text text-anchor="middle" x="896" y="-228.99" font-family="Helvetica,sans-Serif" font-size="10.00"> Data</text>
</g>
<!-- Node21 -->
<g id="node21" class="node">
<title>Node21</title>
<g id="a_node21"><a xlink:href="struct_im_vector.html" target="_top" xlink:title=" ">
<polygon fill="white" stroke="#bfbfbf" points="1092.5,-200.49 961.5,-200.49 961.5,-181.49 1092.5,-181.49 1092.5,-200.49"/>
<text text-anchor="middle" x="1027" y="-188.49" font-family="Helvetica,sans-Serif" font-size="10.00">ImVector&lt; ImFontConfig &gt;</text>
</a>
</g>
</g>
<!-- Node21&#45;&gt;Node17 -->
<g id="edge27" class="edge">
<title>Node21&#45;&gt;Node17</title>
<path fill="none" stroke="#9a32cd" stroke-dasharray="5,2" d="M957.66,-202.73C922.83,-208.36 879.76,-214.77 841,-218.99 635.73,-241.36 387.7,-250.38 298.24,-253.06"/>
<polygon fill="#9a32cd" stroke="#9a32cd" points="957.86,-206.24 967.17,-201.18 956.73,-199.33 957.86,-206.24"/>
<text text-anchor="middle" x="643.5" y="-242.99" font-family="Helvetica,sans-Serif" font-size="10.00"> ConfigData</text>
</g>
<!-- Node22&#45;&gt;Node12 -->
<g id="edge33" class="edge">
<title>Node22&#45;&gt;Node12</title>
<path fill="none" stroke="#9a32cd" stroke-dasharray="5,2" d="M729.37,-73.61C691.22,-68.46 636.56,-64.64 590,-74.99 570.08,-79.43 549.13,-90.11 535.3,-98.13"/>
<polygon fill="#9a32cd" stroke="#9a32cd" points="728.76,-77.06 739.16,-75.02 729.76,-70.13 728.76,-77.06"/>
<text text-anchor="middle" x="643.5" y="-77.99" font-family="Helvetica,sans-Serif" font-size="10.00"> ConfigData</text>
</g>
<!-- Node22&#45;&gt;Node21 -->
<g id="edge28" class="edge">
<title>Node22&#45;&gt;Node21</title>
<path fill="none" stroke="#9a32cd" stroke-dasharray="5,2" d="M811.8,-96.47C862.77,-118.96 959.71,-161.74 1003.52,-181.07"/>
<polygon fill="#9a32cd" stroke="#9a32cd" points="813.3,-93.31 802.74,-92.47 810.48,-99.71 813.3,-93.31"/>
<text text-anchor="middle" x="896" y="-152.99" font-family="Helvetica,sans-Serif" font-size="10.00"> Data</text>
</g>
<!-- Node23 -->
<g id="node23" class="node">
<title>Node23</title>
<g id="a_node23"><a xlink:href="struct_im_font_builder_i_o.html" target="_top" xlink:title=" ">
<polygon fill="white" stroke="#bfbfbf" points="88,-263.49 0,-263.49 0,-244.49 88,-244.49 88,-263.49"/>
<text text-anchor="middle" x="44" y="-251.49" font-family="Helvetica,sans-Serif" font-size="10.00">ImFontBuilderIO</text>
</a>
</g>
</g>
<!-- Node23&#45;&gt;Node17 -->
<g id="edge32" class="edge">
<title>Node23&#45;&gt;Node17</title>
<path fill="none" stroke="#9a32cd" stroke-dasharray="5,2" d="M99.87,-253.99C140.03,-253.99 193.28,-253.99 227.6,-253.99"/>
<polygon fill="#9a32cd" stroke="#9a32cd" points="99.91,-250.49 89.91,-253.99 99.91,-257.49 99.91,-250.49"/>
<text text-anchor="middle" x="143.5" y="-256.99" font-family="Helvetica,sans-Serif" font-size="10.00"> FontBuilderIO</text>
</g>
<!-- Node24&#45;&gt;Node3 -->
<g id="edge41" class="edge">
<title>Node24&#45;&gt;Node3</title>
<path fill="none" stroke="#9a32cd" stroke-dasharray="5,2" d="M583.43,-390.19C585.65,-390.46 587.84,-390.73 590,-390.99 701.48,-404.55 731.1,-396.92 841,-419.99 898.39,-432.04 963.5,-454.15 999.14,-467.01"/>
<polygon fill="#9a32cd" stroke="#9a32cd" points="584.09,-386.74 573.73,-388.98 583.23,-393.69 584.09,-386.74"/>
<text text-anchor="middle" x="778" y="-422.99" font-family="Helvetica,sans-Serif" font-size="10.00"> _Path</text>
</g>
<!-- Node24&#45;&gt;Node11 -->
<g id="edge35" class="edge">
<title>Node24&#45;&gt;Node11</title>
<path fill="none" stroke="#9a32cd" stroke-dasharray="5,2" d="M583.55,-377.52C624.91,-374.63 678.29,-370.89 718.5,-368.08"/>
<polygon fill="#9a32cd" stroke="#9a32cd" points="583.47,-374.01 573.74,-378.2 583.96,-381 583.47,-374.01"/>
<text text-anchor="middle" x="643.5" y="-378.99" font-family="Helvetica,sans-Serif" font-size="10.00"> TempBuffer</text>
</g>
<!-- Node25&#45;&gt;Node3 -->
<g id="edge38" class="edge">
<title>Node25&#45;&gt;Node3</title>
<path fill="none" stroke="#9a32cd" stroke-dasharray="5,2" d="M708.79,-623.95C770,-626.71 862.94,-623.14 933,-585.99 977.18,-562.58 1009.31,-508.74 1021.08,-486.68"/>
<polygon fill="#9a32cd" stroke="#9a32cd" points="709.04,-620.45 698.87,-623.42 708.67,-627.44 709.04,-620.45"/>
<text text-anchor="middle" x="778" y="-626.99" font-family="Helvetica,sans-Serif" font-size="10.00"> _ClipRectStack</text>
</g>
<!-- Node26 -->
<g id="node26" class="node">
<title>Node26</title>
<g id="a_node26"><a xlink:href="struct_im_vector.html" target="_top" xlink:title=" ">
<polygon fill="white" stroke="#bfbfbf" points="841,-543.49 715,-543.49 715,-524.49 841,-524.49 841,-543.49"/>
<text text-anchor="middle" x="778" y="-531.49" font-family="Helvetica,sans-Serif" font-size="10.00">ImVector&lt; ImTextureID &gt;</text>
</a>
</g>
</g>
<!-- Node26&#45;&gt;Node3 -->
<g id="edge40" class="edge">
<title>Node26&#45;&gt;Node3</title>
<path fill="none" stroke="#9a32cd" stroke-dasharray="5,2" d="M852.48,-524.68C878.15,-520.73 907.03,-515.52 933,-508.99 956.52,-503.09 982.56,-493.89 1001.09,-486.86"/>
<polygon fill="#9a32cd" stroke="#9a32cd" points="852.18,-521.18 842.81,-526.12 853.22,-528.1 852.18,-521.18"/>
<text text-anchor="middle" x="896" y="-525.99" font-family="Helvetica,sans-Serif" font-size="10.00"> _TextureIdStack</text>
</g>
<!-- Node27&#45;&gt;Node3 -->
<g id="edge42" class="edge">
<title>Node27&#45;&gt;Node3</title>
<path fill="none" stroke="#9a32cd" stroke-dasharray="5,2" d="M458.53,-579.81C560.94,-590.3 771.1,-600.99 933,-537.99 965.21,-525.46 997.85,-500.63 1014.56,-486.83"/>
<polygon fill="#9a32cd" stroke="#9a32cd" points="459,-576.34 448.68,-578.76 458.26,-583.3 459,-576.34"/>
<text text-anchor="middle" x="643.5" y="-589.99" font-family="Helvetica,sans-Serif" font-size="10.00"> _CmdHeader</text>
</g>
<!-- Node28 -->
<g id="node28" class="node">
<title>Node28</title>
<g id="a_node28"><a xlink:href="struct_im_draw_list_splitter.html" target="_top" xlink:title=" ">
<polygon fill="white" stroke="#bfbfbf" points="2084,-486.49 1986,-486.49 1986,-467.49 2084,-467.49 2084,-486.49"/>
<text text-anchor="middle" x="2035" y="-474.49" font-family="Helvetica,sans-Serif" font-size="10.00">ImDrawListSplitter</text>
</a>
</g>
</g>
<!-- Node28&#45;&gt;Node3 -->
<g id="edge44" class="edge">
<title>Node28&#45;&gt;Node3</title>
<path fill="none" stroke="#9a32cd" stroke-dasharray="5,2" d="M1974.46,-485.51C1934.08,-490.57 1879.43,-495.99 1831,-495.99 1263.5,-495.99 1263.5,-495.99 1263.5,-495.99 1190.9,-495.99 1106.11,-486.91 1060.7,-481.31"/>
<polygon fill="#9a32cd" stroke="#9a32cd" points="1974.75,-489.01 1984.22,-484.26 1973.85,-482.06 1974.75,-489.01"/>
<text text-anchor="middle" x="1569" y="-498.99" font-family="Helvetica,sans-Serif" font-size="10.00"> _Splitter</text>
</g>
<!-- Node29 -->
<g id="node29" class="node">
<title>Node29</title>
<g id="a_node29"><a xlink:href="struct_im_vector.html" target="_top" xlink:title=" ">
<polygon fill="white" stroke="#bfbfbf" points="1901,-467.49 1759,-467.49 1759,-448.49 1901,-448.49 1901,-467.49"/>
<text text-anchor="middle" x="1830" y="-455.49" font-family="Helvetica,sans-Serif" font-size="10.00">ImVector&lt; ImDrawChannel &gt;</text>
</a>
</g>
</g>
<!-- Node29&#45;&gt;Node28 -->
<g id="edge45" class="edge">
<title>Node29&#45;&gt;Node28</title>
<path fill="none" stroke="#9a32cd" stroke-dasharray="5,2" d="M1912.68,-465.64C1937.46,-467.96 1963.88,-470.43 1985.71,-472.47"/>
<polygon fill="#9a32cd" stroke="#9a32cd" points="1913.22,-462.17 1902.94,-464.73 1912.57,-469.14 1913.22,-462.17"/>
<text text-anchor="middle" x="1943.5" y="-472.99" font-family="Helvetica,sans-Serif" font-size="10.00"> _Channels</text>
</g>
<!-- Node30&#45;&gt;Node29 -->
<g id="edge46" class="edge">
<title>Node30&#45;&gt;Node29</title>
<path fill="none" stroke="#9a32cd" stroke-dasharray="5,2" d="M1711.37,-444.92C1726.33,-446.59 1742.82,-448.42 1758.6,-450.17"/>
<polygon fill="#9a32cd" stroke="#9a32cd" points="1712.1,-441.48 1701.77,-443.86 1711.33,-448.44 1712.1,-441.48"/>
<text text-anchor="middle" x="1729.5" y="-449.99" font-family="Helvetica,sans-Serif" font-size="10.00"> Data</text>
</g>
</g>
</svg>
