<?xml version="1.0" encoding="UTF-8" standalone="no"?>
<!DOCTYPE svg PUBLIC "-//W3C//DTD SVG 1.1//EN"
 "http://www.w3.org/Graphics/SVG/1.1/DTD/svg11.dtd">
<!-- Generated by graphviz version 7.0.5 (20221223.1930)
 -->
<!-- Title: ImDrawChannel Pages: 1 -->
<svg width="1531pt" height="827pt"
 viewBox="0.00 0.00 1531.00 826.73" xmlns="http://www.w3.org/2000/svg" xmlns:xlink="http://www.w3.org/1999/xlink">
<g id="graph0" class="graph" transform="scale(1 1) rotate(0) translate(4 822.73)">
<title>ImDrawChannel</title>
<!-- Node1 -->
<g id="node1" class="node">
<title>Node1</title>
<g id="a_node1"><a xlink:title=" ">
<polygon fill="#999999" stroke="#666666" points="337,-787.23 251,-787.23 251,-768.23 337,-768.23 337,-787.23"/>
<text text-anchor="middle" x="294" y="-775.23" font-family="Helvetica,sans-Serif" font-size="10.00">ImDrawChannel</text>
</a>
</g>
</g>
<!-- Node28 -->
<g id="node28" class="node">
<title>Node28</title>
<g id="a_node28"><a xlink:href="struct_im_vector.html" target="_top" xlink:title=" ">
<polygon fill="white" stroke="#bfbfbf" points="638,-779.23 496,-779.23 496,-760.23 638,-760.23 638,-779.23"/>
<text text-anchor="middle" x="567" y="-767.23" font-family="Helvetica,sans-Serif" font-size="10.00">ImVector&lt; ImDrawChannel &gt;</text>
</a>
</g>
</g>
<!-- Node1&#45;&gt;Node28 -->
<g id="edge45" class="edge">
<title>Node1&#45;&gt;Node28</title>
<path fill="none" stroke="#9a32cd" stroke-dasharray="5,2" d="M348.74,-776.15C390.8,-774.91 449.66,-773.17 495.51,-771.81"/>
<polygon fill="#9a32cd" stroke="#9a32cd" points="348.75,-772.65 338.86,-776.44 348.96,-779.64 348.75,-772.65"/>
<text text-anchor="middle" x="427" y="-777.73" font-family="Helvetica,sans-Serif" font-size="10.00"> Data</text>
</g>
<!-- Node2 -->
<g id="node2" class="node">
<title>Node2</title>
<g id="a_node2"><a xlink:href="struct_im_vector.html" target="_top" xlink:title=" ">
<polygon fill="white" stroke="#bfbfbf" points="1523,-719.23 1396,-719.23 1396,-700.23 1523,-700.23 1523,-719.23"/>
<text text-anchor="middle" x="1459.5" y="-707.23" font-family="Helvetica,sans-Serif" font-size="10.00">ImVector&lt; ImDrawCmd &gt;</text>
</a>
</g>
</g>
<!-- Node2&#45;&gt;Node1 -->
<g id="edge1" class="edge">
<title>Node2&#45;&gt;Node1</title>
<path fill="none" stroke="#9a32cd" stroke-dasharray="5,2" d="M1443.18,-727.76C1417.32,-756.07 1361.95,-807.73 1302.5,-807.73 566,-807.73 566,-807.73 566,-807.73 484.58,-807.73 390.24,-794.19 337.09,-785.3"/>
<polygon fill="#9a32cd" stroke="#9a32cd" points="1445.5,-730.43 1449.51,-720.62 1440.26,-725.79 1445.5,-730.43"/>
<text text-anchor="middle" x="962" y="-810.73" font-family="Helvetica,sans-Serif" font-size="10.00"> _CmdBuffer</text>
</g>
<!-- Node5 -->
<g id="node5" class="node">
<title>Node5</title>
<g id="a_node5"><a xlink:href="struct_im_draw_list.html" target="_top" xlink:title=" ">
<polygon fill="white" stroke="#bfbfbf" points="1126.5,-618.23 1059.5,-618.23 1059.5,-599.23 1126.5,-599.23 1126.5,-618.23"/>
<text text-anchor="middle" x="1093" y="-606.23" font-family="Helvetica,sans-Serif" font-size="10.00">ImDrawList</text>
</a>
</g>
</g>
<!-- Node2&#45;&gt;Node5 -->
<g id="edge5" class="edge">
<title>Node2&#45;&gt;Node5</title>
<path fill="none" stroke="#9a32cd" stroke-dasharray="5,2" d="M1411.69,-696.76C1336.83,-676.02 1192,-635.89 1126.99,-617.87"/>
<polygon fill="#9a32cd" stroke="#9a32cd" points="1410.61,-700.1 1421.19,-699.39 1412.48,-693.35 1410.61,-700.1"/>
<text text-anchor="middle" x="1301.5" y="-678.73" font-family="Helvetica,sans-Serif" font-size="10.00"> CmdBuffer</text>
</g>
<!-- Node3 -->
<g id="node3" class="node">
<title>Node3</title>
<g id="a_node3"><a xlink:href="struct_im_draw_cmd.html" target="_top" xlink:title=" ">
<polygon fill="white" stroke="#bfbfbf" points="1337,-719.23 1266,-719.23 1266,-700.23 1337,-700.23 1337,-719.23"/>
<text text-anchor="middle" x="1301.5" y="-707.23" font-family="Helvetica,sans-Serif" font-size="10.00">ImDrawCmd</text>
</a>
</g>
</g>
<!-- Node3&#45;&gt;Node2 -->
<g id="edge2" class="edge">
<title>Node3&#45;&gt;Node2</title>
<path fill="none" stroke="#9a32cd" stroke-dasharray="5,2" d="M1348.53,-709.73C1363.31,-709.73 1379.95,-709.73 1395.72,-709.73"/>
<polygon fill="#9a32cd" stroke="#9a32cd" points="1348.64,-706.23 1338.64,-709.73 1348.63,-713.23 1348.64,-706.23"/>
<text text-anchor="middle" x="1366.5" y="-712.73" font-family="Helvetica,sans-Serif" font-size="10.00"> Data</text>
</g>
<!-- Node4 -->
<g id="node4" class="node">
<title>Node4</title>
<g id="a_node4"><a xlink:href="struct_im_vec4.html" target="_top" xlink:title=" ">
<polygon fill="white" stroke="#bfbfbf" points="84.5,-664.23 34.5,-664.23 34.5,-645.23 84.5,-645.23 84.5,-664.23"/>
<text text-anchor="middle" x="59.5" y="-652.23" font-family="Helvetica,sans-Serif" font-size="10.00">ImVec4</text>
</a>
</g>
</g>
<!-- Node4&#45;&gt;Node3 -->
<g id="edge3" class="edge">
<title>Node4&#45;&gt;Node3</title>
<path fill="none" stroke="#9a32cd" stroke-dasharray="5,2" d="M86.22,-670.08C100.65,-677.93 119.26,-686.84 137,-691.73 239.79,-720.08 269.53,-706.9 376,-712.73 652.53,-727.89 722.15,-731.62 999,-724.73 1095.66,-722.33 1209.6,-715.6 1265.7,-712.03"/>
<polygon fill="#9a32cd" stroke="#9a32cd" points="88.28,-667.23 77.85,-665.37 84.85,-673.33 88.28,-667.23"/>
<text text-anchor="middle" x="709.5" y="-730.73" font-family="Helvetica,sans-Serif" font-size="10.00"> ClipRect</text>
</g>
<!-- Node10 -->
<g id="node10" class="node">
<title>Node10</title>
<g id="a_node10"><a xlink:href="struct_im_draw_list_shared_data.html" target="_top" xlink:title=" ">
<polygon fill="white" stroke="#bfbfbf" points="903,-448.23 785,-448.23 785,-429.23 903,-429.23 903,-448.23"/>
<text text-anchor="middle" x="844" y="-436.23" font-family="Helvetica,sans-Serif" font-size="10.00">ImDrawListSharedData</text>
</a>
</g>
</g>
<!-- Node4&#45;&gt;Node10 -->
<g id="edge33" class="edge">
<title>Node4&#45;&gt;Node10</title>
<path fill="none" stroke="#9a32cd" stroke-dasharray="5,2" d="M95.61,-641.79C129.78,-629.31 183.25,-610.12 230,-594.73 347.39,-556.1 376.39,-544.81 496,-513.73 599.5,-486.84 722.09,-461.95 790.36,-448.7"/>
<polygon fill="#9a32cd" stroke="#9a32cd" points="94.41,-638.5 86.22,-645.23 96.82,-645.07 94.41,-638.5"/>
<text text-anchor="middle" x="427" y="-559.73" font-family="Helvetica,sans-Serif" font-size="10.00"> ClipRectFullscreen</text>
<text text-anchor="middle" x="427" y="-548.73" font-family="Helvetica,sans-Serif" font-size="10.00">TexUvLines</text>
</g>
<!-- Node16 -->
<g id="node16" class="node">
<title>Node16</title>
<g id="a_node16"><a xlink:href="struct_im_font_atlas.html" target="_top" xlink:title=" ">
<polygon fill="white" stroke="#bfbfbf" points="329,-287.23 259,-287.23 259,-268.23 329,-268.23 329,-287.23"/>
<text text-anchor="middle" x="294" y="-275.23" font-family="Helvetica,sans-Serif" font-size="10.00">ImFontAtlas</text>
</a>
</g>
</g>
<!-- Node4&#45;&gt;Node16 -->
<g id="edge30" class="edge">
<title>Node4&#45;&gt;Node16</title>
<path fill="none" stroke="#9a32cd" stroke-dasharray="5,2" d="M71.4,-635.35C86.02,-609.48 112.93,-562.34 137,-522.73 193.31,-430.09 265.07,-320.25 286.61,-287.44"/>
<polygon fill="#9a32cd" stroke="#9a32cd" points="68.54,-633.3 66.67,-643.73 74.63,-636.74 68.54,-633.3"/>
<text text-anchor="middle" x="174.5" y="-525.73" font-family="Helvetica,sans-Serif" font-size="10.00"> TexUvLines</text>
</g>
<!-- Node24 -->
<g id="node24" class="node">
<title>Node24</title>
<g id="a_node24"><a xlink:href="struct_im_vector.html" target="_top" xlink:title=" ">
<polygon fill="white" stroke="#bfbfbf" points="763,-664.23 656,-664.23 656,-645.23 763,-645.23 763,-664.23"/>
<text text-anchor="middle" x="709.5" y="-652.23" font-family="Helvetica,sans-Serif" font-size="10.00">ImVector&lt; ImVec4 &gt;</text>
</a>
</g>
</g>
<!-- Node4&#45;&gt;Node24 -->
<g id="edge38" class="edge">
<title>Node4&#45;&gt;Node24</title>
<path fill="none" stroke="#9a32cd" stroke-dasharray="5,2" d="M96.23,-654.73C204.28,-654.73 528.02,-654.73 655.8,-654.73"/>
<polygon fill="#9a32cd" stroke="#9a32cd" points="96.23,-651.23 86.23,-654.73 96.23,-658.23 96.23,-651.23"/>
<text text-anchor="middle" x="294" y="-657.73" font-family="Helvetica,sans-Serif" font-size="10.00"> Data</text>
</g>
<!-- Node26 -->
<g id="node26" class="node">
<title>Node26</title>
<g id="a_node26"><a xlink:href="struct_im_draw_cmd_header.html" target="_top" xlink:title=" ">
<polygon fill="white" stroke="#bfbfbf" points="478,-703.23 376,-703.23 376,-684.23 478,-684.23 478,-703.23"/>
<text text-anchor="middle" x="427" y="-691.23" font-family="Helvetica,sans-Serif" font-size="10.00">ImDrawCmdHeader</text>
</a>
</g>
</g>
<!-- Node4&#45;&gt;Node26 -->
<g id="edge42" class="edge">
<title>Node4&#45;&gt;Node26</title>
<path fill="none" stroke="#9a32cd" stroke-dasharray="5,2" d="M96.08,-661.97C108.93,-664.39 123.58,-666.93 137,-668.73 220.35,-679.94 317.94,-687.16 375.72,-690.83"/>
<polygon fill="#9a32cd" stroke="#9a32cd" points="96.84,-658.55 86.35,-660.09 95.51,-665.42 96.84,-658.55"/>
<text text-anchor="middle" x="174.5" y="-679.73" font-family="Helvetica,sans-Serif" font-size="10.00"> ClipRect</text>
</g>
<!-- Node5&#45;&gt;Node3 -->
<g id="edge4" class="edge">
<title>Node5&#45;&gt;Node3</title>
<path fill="none" stroke="#9a32cd" stroke-dasharray="5,2" d="M1122.79,-623.97C1141.09,-633.55 1165.32,-646.08 1187,-656.73 1218.62,-672.27 1255.67,-689.37 1278.62,-699.83"/>
<polygon fill="#9a32cd" stroke="#9a32cd" points="1124.59,-620.96 1114.11,-619.4 1121.33,-627.15 1124.59,-620.96"/>
<text text-anchor="middle" x="1217.5" y="-686.73" font-family="Helvetica,sans-Serif" font-size="10.00"> UserCallback</text>
</g>
<!-- Node6 -->
<g id="node6" class="node">
<title>Node6</title>
<g id="a_node6"><a xlink:href="struct_im_vector.html" target="_top" xlink:title=" ">
<polygon fill="white" stroke="#bfbfbf" points="119,-770.23 0,-770.23 0,-751.23 119,-751.23 119,-770.23"/>
<text text-anchor="middle" x="59.5" y="-758.23" font-family="Helvetica,sans-Serif" font-size="10.00">ImVector&lt; ImDrawIdx &gt;</text>
</a>
</g>
</g>
<!-- Node6&#45;&gt;Node1 -->
<g id="edge46" class="edge">
<title>Node6&#45;&gt;Node1</title>
<path fill="none" stroke="#9a32cd" stroke-dasharray="5,2" d="M130.78,-765.87C169.85,-768.73 217.18,-772.19 250.6,-774.63"/>
<polygon fill="#9a32cd" stroke="#9a32cd" points="131.21,-762.39 120.98,-765.16 130.7,-769.38 131.21,-762.39"/>
<text text-anchor="middle" x="174.5" y="-774.73" font-family="Helvetica,sans-Serif" font-size="10.00"> _IdxBuffer</text>
</g>
<!-- Node6&#45;&gt;Node5 -->
<g id="edge6" class="edge">
<title>Node6&#45;&gt;Node5</title>
<path fill="none" stroke="#9a32cd" stroke-dasharray="5,2" d="M112.17,-747.52C144.38,-737 184.74,-719.37 212,-691.73 225.98,-677.57 214.58,-663.31 230,-650.73 299.04,-594.43 336.91,-608.73 426,-608.73 426,-608.73 426,-608.73 845,-608.73 921.76,-608.73 1011.94,-608.73 1059.24,-608.73"/>
<polygon fill="#9a32cd" stroke="#9a32cd" points="111.54,-744.05 103.03,-750.36 113.62,-750.73 111.54,-744.05"/>
<text text-anchor="middle" x="567" y="-611.73" font-family="Helvetica,sans-Serif" font-size="10.00"> IdxBuffer</text>
</g>
<!-- Node7 -->
<g id="node7" class="node">
<title>Node7</title>
<g id="a_node7"><a xlink:href="struct_im_vector.html" target="_top" xlink:title=" ">
<polygon fill="white" stroke="#bfbfbf" points="906.5,-580.23 781.5,-580.23 781.5,-561.23 906.5,-561.23 906.5,-580.23"/>
<text text-anchor="middle" x="844" y="-568.23" font-family="Helvetica,sans-Serif" font-size="10.00">ImVector&lt; ImDrawVert &gt;</text>
</a>
</g>
</g>
<!-- Node7&#45;&gt;Node5 -->
<g id="edge7" class="edge">
<title>Node7&#45;&gt;Node5</title>
<path fill="none" stroke="#9a32cd" stroke-dasharray="5,2" d="M917.96,-574.22C943.7,-576.15 972.75,-579.14 999,-583.73 1019.75,-587.37 1042.6,-593.48 1060.46,-598.75"/>
<polygon fill="#9a32cd" stroke="#9a32cd" points="918.5,-570.75 908.28,-573.53 918.01,-577.73 918.5,-570.75"/>
<text text-anchor="middle" x="962" y="-586.73" font-family="Helvetica,sans-Serif" font-size="10.00"> VtxBuffer</text>
</g>
<!-- Node8 -->
<g id="node8" class="node">
<title>Node8</title>
<g id="a_node8"><a xlink:href="struct_im_draw_vert.html" target="_top" xlink:title=" ">
<polygon fill="white" stroke="#bfbfbf" points="601,-541.23 533,-541.23 533,-522.23 601,-522.23 601,-541.23"/>
<text text-anchor="middle" x="567" y="-529.23" font-family="Helvetica,sans-Serif" font-size="10.00">ImDrawVert</text>
</a>
</g>
</g>
<!-- Node8&#45;&gt;Node5 -->
<g id="edge36" class="edge">
<title>Node8&#45;&gt;Node5</title>
<path fill="none" stroke="#9a32cd" stroke-dasharray="5,2" d="M612.47,-529.18C677.62,-526.3 802.61,-524.09 907,-541.73 949.27,-548.88 958.68,-556.17 999,-570.73 1023.28,-579.5 1050.57,-590.83 1069.27,-598.83"/>
<polygon fill="#9a32cd" stroke="#9a32cd" points="612.36,-525.68 602.53,-529.64 612.69,-532.67 612.36,-525.68"/>
<text text-anchor="middle" x="844" y="-544.73" font-family="Helvetica,sans-Serif" font-size="10.00"> _VtxWritePtr</text>
</g>
<!-- Node8&#45;&gt;Node7 -->
<g id="edge8" class="edge">
<title>Node8&#45;&gt;Node7</title>
<path fill="none" stroke="#9a32cd" stroke-dasharray="5,2" d="M612.65,-539.06C626.53,-541.27 641.89,-543.67 656,-545.73 697.65,-551.83 744.6,-558.1 781.04,-562.84"/>
<polygon fill="#9a32cd" stroke="#9a32cd" points="613.32,-535.62 602.89,-537.49 612.21,-542.53 613.32,-535.62"/>
<text text-anchor="middle" x="709.5" y="-562.73" font-family="Helvetica,sans-Serif" font-size="10.00"> Data</text>
</g>
<!-- Node9 -->
<g id="node9" class="node">
<title>Node9</title>
<g id="a_node9"><a xlink:href="struct_im_vec2.html" target="_top" xlink:title=" ">
<polygon fill="white" stroke="#bfbfbf" points="84.5,-376.23 34.5,-376.23 34.5,-357.23 84.5,-357.23 84.5,-376.23"/>
<text text-anchor="middle" x="59.5" y="-364.23" font-family="Helvetica,sans-Serif" font-size="10.00">ImVec2</text>
</a>
</g>
</g>
<!-- Node9&#45;&gt;Node8 -->
<g id="edge9" class="edge">
<title>Node9&#45;&gt;Node8</title>
<path fill="none" stroke="#9a32cd" stroke-dasharray="5,2" d="M73.83,-385.74C87.55,-403.8 110.61,-430.29 137,-444.73 270.34,-517.69 457.18,-529.75 532.54,-531.54"/>
<polygon fill="#9a32cd" stroke="#9a32cd" points="76.83,-383.91 68.1,-377.92 71.19,-388.05 76.83,-383.91"/>
<text text-anchor="middle" x="294" y="-527.73" font-family="Helvetica,sans-Serif" font-size="10.00"> pos</text>
<text text-anchor="middle" x="294" y="-516.73" font-family="Helvetica,sans-Serif" font-size="10.00">uv</text>
</g>
<!-- Node9&#45;&gt;Node10 -->
<g id="edge11" class="edge">
<title>Node9&#45;&gt;Node10</title>
<path fill="none" stroke="#9a32cd" stroke-dasharray="5,2" d="M95.93,-369.5C186.33,-376.62 432.84,-396.36 638,-415.73 693.61,-420.98 707.51,-422.38 763,-428.73 770.09,-429.55 777.53,-430.43 784.9,-431.33"/>
<polygon fill="#9a32cd" stroke="#9a32cd" points="96.47,-366.04 86.23,-368.74 95.93,-373.01 96.47,-366.04"/>
<text text-anchor="middle" x="427" y="-414.73" font-family="Helvetica,sans-Serif" font-size="10.00"> ArcFastVtx</text>
<text text-anchor="middle" x="427" y="-403.73" font-family="Helvetica,sans-Serif" font-size="10.00">TexUvWhitePixel</text>
</g>
<!-- Node9&#45;&gt;Node16 -->
<g id="edge19" class="edge">
<title>Node9&#45;&gt;Node16</title>
<path fill="none" stroke="#9a32cd" stroke-dasharray="5,2" d="M81.55,-350.2C96.33,-339.31 116.96,-325.49 137,-316.73 177.04,-299.24 226.42,-288.56 258.76,-282.9"/>
<polygon fill="#9a32cd" stroke="#9a32cd" points="79.82,-347.12 73.95,-355.94 84.04,-352.7 79.82,-347.12"/>
<text text-anchor="middle" x="174.5" y="-330.73" font-family="Helvetica,sans-Serif" font-size="10.00"> TexUvScale</text>
<text text-anchor="middle" x="174.5" y="-319.73" font-family="Helvetica,sans-Serif" font-size="10.00">TexUvWhitePixel</text>
</g>
<!-- Node19 -->
<g id="node19" class="node">
<title>Node19</title>
<g id="a_node19"><a xlink:href="struct_im_font_atlas_custom_rect.html" target="_top" xlink:title=" ">
<polygon fill="white" stroke="#bfbfbf" points="906,-335.23 782,-335.23 782,-316.23 906,-316.23 906,-335.23"/>
<text text-anchor="middle" x="844" y="-323.23" font-family="Helvetica,sans-Serif" font-size="10.00">ImFontAtlasCustomRect</text>
</a>
</g>
</g>
<!-- Node9&#45;&gt;Node19 -->
<g id="edge24" class="edge">
<title>Node9&#45;&gt;Node19</title>
<path fill="none" stroke="#9a32cd" stroke-dasharray="5,2" d="M96.08,-364.87C218.91,-358.43 626.07,-337.1 781.75,-328.94"/>
<polygon fill="#9a32cd" stroke="#9a32cd" points="96.09,-361.36 86.29,-365.38 96.46,-368.35 96.09,-361.36"/>
<text text-anchor="middle" x="427" y="-353.73" font-family="Helvetica,sans-Serif" font-size="10.00"> GlyphOffset</text>
</g>
<!-- Node21 -->
<g id="node21" class="node">
<title>Node21</title>
<g id="a_node21"><a xlink:href="struct_im_font_config.html" target="_top" xlink:title=" ">
<polygon fill="white" stroke="#bfbfbf" points="881,-144.23 807,-144.23 807,-125.23 881,-125.23 881,-144.23"/>
<text text-anchor="middle" x="844" y="-132.23" font-family="Helvetica,sans-Serif" font-size="10.00">ImFontConfig</text>
</a>
</g>
</g>
<!-- Node9&#45;&gt;Node21 -->
<g id="edge28" class="edge">
<title>Node9&#45;&gt;Node21</title>
<path fill="none" stroke="#9a32cd" stroke-dasharray="5,2" d="M76.58,-348.09C88.58,-333.96 105.22,-313.95 119,-295.73 171.23,-226.72 162.86,-190.35 230,-135.73 284.69,-91.24 306.92,-87.79 376,-73.73 541.05,-40.14 742.87,-100.11 815.4,-124.82"/>
<polygon fill="#9a32cd" stroke="#9a32cd" points="73.92,-345.81 70.08,-355.68 79.24,-350.36 73.92,-345.81"/>
<text text-anchor="middle" x="427" y="-87.73" font-family="Helvetica,sans-Serif" font-size="10.00"> GlyphExtraSpacing</text>
<text text-anchor="middle" x="427" y="-76.73" font-family="Helvetica,sans-Serif" font-size="10.00">GlyphOffset</text>
</g>
<!-- Node23 -->
<g id="node23" class="node">
<title>Node23</title>
<g id="a_node23"><a xlink:href="struct_im_vector.html" target="_top" xlink:title=" ">
<polygon fill="white" stroke="#bfbfbf" points="620.5,-443.23 513.5,-443.23 513.5,-424.23 620.5,-424.23 620.5,-443.23"/>
<text text-anchor="middle" x="567" y="-431.23" font-family="Helvetica,sans-Serif" font-size="10.00">ImVector&lt; ImVec2 &gt;</text>
</a>
</g>
</g>
<!-- Node9&#45;&gt;Node23 -->
<g id="edge35" class="edge">
<title>Node9&#45;&gt;Node23</title>
<path fill="none" stroke="#9a32cd" stroke-dasharray="5,2" d="M77.11,-384.37C91.46,-398.25 113.54,-416.57 137,-424.73 204.9,-448.36 414.25,-441.48 513.18,-436.66"/>
<polygon fill="#9a32cd" stroke="#9a32cd" points="79.83,-382.13 70.3,-377.5 74.86,-387.06 79.83,-382.13"/>
<text text-anchor="middle" x="294" y="-443.73" font-family="Helvetica,sans-Serif" font-size="10.00"> Data</text>
</g>
<!-- Node10&#45;&gt;Node5 -->
<g id="edge10" class="edge">
<title>Node10&#45;&gt;Node5</title>
<path fill="none" stroke="#9a32cd" stroke-dasharray="5,2" d="M914.6,-435.75C942.73,-437.58 974.31,-443.76 999,-459.73 1052.51,-494.35 1080.64,-571.75 1089.16,-599.01"/>
<polygon fill="#9a32cd" stroke="#9a32cd" points="914.86,-432.26 904.71,-435.3 914.54,-439.25 914.86,-432.26"/>
<text text-anchor="middle" x="962" y="-462.73" font-family="Helvetica,sans-Serif" font-size="10.00"> _Data</text>
</g>
<!-- Node11 -->
<g id="node11" class="node">
<title>Node11</title>
<g id="a_node11"><a xlink:href="struct_im_font.html" target="_top" xlink:title=" ">
<polygon fill="white" stroke="#bfbfbf" points="590.5,-176.23 543.5,-176.23 543.5,-157.23 590.5,-157.23 590.5,-176.23"/>
<text text-anchor="middle" x="567" y="-164.23" font-family="Helvetica,sans-Serif" font-size="10.00">ImFont</text>
</a>
</g>
</g>
<!-- Node11&#45;&gt;Node10 -->
<g id="edge12" class="edge">
<title>Node11&#45;&gt;Node10</title>
<path fill="none" stroke="#9a32cd" stroke-dasharray="5,2" d="M599.09,-182.05C612.86,-190.28 628.13,-201.66 638,-215.73 655.7,-240.98 636,-259.27 656,-282.73 689.81,-322.4 730.5,-289.99 763,-330.73 788.44,-362.62 753.41,-390.69 781,-420.73 783.96,-423.95 787.45,-426.61 791.25,-428.8"/>
<polygon fill="#9a32cd" stroke="#9a32cd" points="601.18,-179.21 590.75,-177.36 597.75,-185.31 601.18,-179.21"/>
<text text-anchor="middle" x="709.5" y="-333.73" font-family="Helvetica,sans-Serif" font-size="10.00"> Font</text>
</g>
<!-- Node17 -->
<g id="node17" class="node">
<title>Node17</title>
<g id="a_node17"><a xlink:href="struct_im_vector.html" target="_top" xlink:title=" ">
<polygon fill="white" stroke="#bfbfbf" points="899,-196.23 789,-196.23 789,-177.23 899,-177.23 899,-196.23"/>
<text text-anchor="middle" x="844" y="-184.23" font-family="Helvetica,sans-Serif" font-size="10.00">ImVector&lt; ImFont * &gt;</text>
</a>
</g>
</g>
<!-- Node11&#45;&gt;Node17 -->
<g id="edge21" class="edge">
<title>Node11&#45;&gt;Node17</title>
<path fill="none" stroke="#9a32cd" stroke-dasharray="5,2" d="M602.27,-168.45C641.24,-170.48 706.75,-174.19 763,-178.73 771.35,-179.41 780.18,-180.2 788.8,-181.03"/>
<polygon fill="#9a32cd" stroke="#9a32cd" points="602.51,-164.95 592.35,-167.93 602.15,-171.94 602.51,-164.95"/>
<text text-anchor="middle" x="709.5" y="-181.73" font-family="Helvetica,sans-Serif" font-size="10.00"> Data</text>
</g>
<!-- Node11&#45;&gt;Node19 -->
<g id="edge25" class="edge">
<title>Node11&#45;&gt;Node19</title>
<path fill="none" stroke="#9a32cd" stroke-dasharray="5,2" d="M601.81,-176.88C650.11,-191.74 736,-219.61 763,-237.73 795.75,-259.71 824.16,-297.88 836.48,-315.85"/>
<polygon fill="#9a32cd" stroke="#9a32cd" points="603,-173.59 592.42,-174.01 600.96,-180.28 603,-173.59"/>
<text text-anchor="middle" x="709.5" y="-240.73" font-family="Helvetica,sans-Serif" font-size="10.00"> Font</text>
</g>
<!-- Node11&#45;&gt;Node21 -->
<g id="edge29" class="edge">
<title>Node11&#45;&gt;Node21</title>
<path fill="none" stroke="#9a32cd" stroke-dasharray="5,2" d="M602.27,-162.75C654.41,-156.68 753.24,-145.18 806.62,-138.97"/>
<polygon fill="#9a32cd" stroke="#9a32cd" points="602.01,-159.25 592.48,-163.89 602.81,-166.21 602.01,-159.25"/>
<text text-anchor="middle" x="709.5" y="-159.73" font-family="Helvetica,sans-Serif" font-size="10.00"> DstFont</text>
</g>
<!-- Node12 -->
<g id="node12" class="node">
<title>Node12</title>
<g id="a_node12"><a xlink:href="struct_im_vector.html" target="_top" xlink:title=" ">
<polygon fill="white" stroke="#bfbfbf" points="339.5,-201.23 248.5,-201.23 248.5,-182.23 339.5,-182.23 339.5,-201.23"/>
<text text-anchor="middle" x="294" y="-189.23" font-family="Helvetica,sans-Serif" font-size="10.00">ImVector&lt; float &gt;</text>
</a>
</g>
</g>
<!-- Node12&#45;&gt;Node11 -->
<g id="edge13" class="edge">
<title>Node12&#45;&gt;Node11</title>
<path fill="none" stroke="#9a32cd" stroke-dasharray="5,2" d="M351.18,-186.55C410.54,-181.07 501.25,-172.71 543.23,-168.83"/>
<polygon fill="#9a32cd" stroke="#9a32cd" points="350.89,-183.06 341.26,-187.47 351.54,-190.03 350.89,-183.06"/>
<text text-anchor="middle" x="427" y="-186.73" font-family="Helvetica,sans-Serif" font-size="10.00"> IndexAdvanceX</text>
</g>
<!-- Node13 -->
<g id="node13" class="node">
<title>Node13</title>
<g id="a_node13"><a xlink:href="struct_im_vector.html" target="_top" xlink:title=" ">
<polygon fill="white" stroke="#bfbfbf" points="350,-164.23 238,-164.23 238,-145.23 350,-145.23 350,-164.23"/>
<text text-anchor="middle" x="294" y="-152.23" font-family="Helvetica,sans-Serif" font-size="10.00">ImVector&lt; ImWchar &gt;</text>
</a>
</g>
</g>
<!-- Node13&#45;&gt;Node11 -->
<g id="edge14" class="edge">
<title>Node13&#45;&gt;Node11</title>
<path fill="none" stroke="#9a32cd" stroke-dasharray="5,2" d="M361.74,-153.83C396.44,-153.77 439.54,-154.34 478,-156.73 500.25,-158.12 525.53,-161.14 543.26,-163.5"/>
<polygon fill="#9a32cd" stroke="#9a32cd" points="361.81,-150.33 351.82,-153.86 361.84,-157.33 361.81,-150.33"/>
<text text-anchor="middle" x="427" y="-159.73" font-family="Helvetica,sans-Serif" font-size="10.00"> IndexLookup</text>
</g>
<!-- Node14 -->
<g id="node14" class="node">
<title>Node14</title>
<g id="a_node14"><a xlink:href="struct_im_vector.html" target="_top" xlink:title=" ">
<polygon fill="white" stroke="#bfbfbf" points="358,-48.23 230,-48.23 230,-29.23 358,-29.23 358,-48.23"/>
<text text-anchor="middle" x="294" y="-36.23" font-family="Helvetica,sans-Serif" font-size="10.00">ImVector&lt; ImFontGlyph &gt;</text>
</a>
</g>
</g>
<!-- Node14&#45;&gt;Node11 -->
<g id="edge15" class="edge">
<title>Node14&#45;&gt;Node11</title>
<path fill="none" stroke="#9a32cd" stroke-dasharray="5,2" d="M314.11,-55.81C329.83,-69.17 353.17,-87.49 376,-99.73 405.9,-115.77 499.6,-145.98 543.23,-159.67"/>
<polygon fill="#9a32cd" stroke="#9a32cd" points="316.78,-53.49 306.93,-49.58 312.19,-58.78 316.78,-53.49"/>
<text text-anchor="middle" x="427" y="-141.73" font-family="Helvetica,sans-Serif" font-size="10.00"> Glyphs</text>
</g>
<!-- Node15 -->
<g id="node15" class="node">
<title>Node15</title>
<g id="a_node15"><a xlink:href="struct_im_font_glyph.html" target="_top" xlink:title=" ">
<polygon fill="white" stroke="#bfbfbf" points="95.5,-29.23 23.5,-29.23 23.5,-10.23 95.5,-10.23 95.5,-29.23"/>
<text text-anchor="middle" x="59.5" y="-17.23" font-family="Helvetica,sans-Serif" font-size="10.00">ImFontGlyph</text>
</a>
</g>
</g>
<!-- Node15&#45;&gt;Node11 -->
<g id="edge17" class="edge">
<title>Node15&#45;&gt;Node11</title>
<path fill="none" stroke="#9a32cd" stroke-dasharray="5,2" d="M106.82,-11.81C165.73,-3.14 270.33,7.49 358,-8.73 414.16,-19.13 432.03,-20.83 478,-54.73 517.6,-83.94 548.81,-135.42 560.74,-156.89"/>
<polygon fill="#9a32cd" stroke="#9a32cd" points="106.53,-8.31 97.17,-13.28 107.58,-15.23 106.53,-8.31"/>
<text text-anchor="middle" x="294" y="-11.73" font-family="Helvetica,sans-Serif" font-size="10.00"> FallbackGlyph</text>
</g>
<!-- Node15&#45;&gt;Node14 -->
<g id="edge16" class="edge">
<title>Node15&#45;&gt;Node14</title>
<path fill="none" stroke="#9a32cd" stroke-dasharray="5,2" d="M107.19,-23.55C142.37,-26.42 191,-30.4 229.68,-33.56"/>
<polygon fill="#9a32cd" stroke="#9a32cd" points="107.57,-20.07 97.32,-22.74 107,-27.05 107.57,-20.07"/>
<text text-anchor="middle" x="174.5" y="-35.73" font-family="Helvetica,sans-Serif" font-size="10.00"> Data</text>
</g>
<!-- Node16&#45;&gt;Node11 -->
<g id="edge18" class="edge">
<title>Node16&#45;&gt;Node11</title>
<path fill="none" stroke="#9a32cd" stroke-dasharray="5,2" d="M316.02,-261.18C331.75,-249.52 354.22,-234.32 376,-224.73 418.82,-205.89 433.3,-212.52 478,-198.73 500.37,-191.83 525.42,-182.57 543.05,-175.79"/>
<polygon fill="#9a32cd" stroke="#9a32cd" points="314.21,-258.16 308.37,-267 318.45,-263.74 314.21,-258.16"/>
<text text-anchor="middle" x="427" y="-227.73" font-family="Helvetica,sans-Serif" font-size="10.00"> ContainerAtlas</text>
</g>
<!-- Node17&#45;&gt;Node16 -->
<g id="edge20" class="edge">
<title>Node17&#45;&gt;Node16</title>
<path fill="none" stroke="#9a32cd" stroke-dasharray="5,2" d="M815.69,-202.11C800.61,-209.88 781.29,-218.71 763,-223.73 752.58,-226.6 386.71,-262.26 376,-263.73 360.59,-265.86 343.62,-268.71 329.21,-271.29"/>
<polygon fill="#9a32cd" stroke="#9a32cd" points="817.32,-205.2 824.51,-197.41 814.03,-199.02 817.32,-205.2"/>
<text text-anchor="middle" x="567" y="-254.73" font-family="Helvetica,sans-Serif" font-size="10.00"> Fonts</text>
</g>
<!-- Node18 -->
<g id="node18" class="node">
<title>Node18</title>
<g id="a_node18"><a xlink:href="struct_im_vector.html" target="_top" xlink:title=" ">
<polygon fill="white" stroke="#bfbfbf" points="1169,-362.73 1017,-362.73 1017,-332.73 1169,-332.73 1169,-362.73"/>
<text text-anchor="start" x="1025" y="-350.73" font-family="Helvetica,sans-Serif" font-size="10.00">ImVector&lt; ImFontAtlasCustom</text>
<text text-anchor="middle" x="1093" y="-339.73" font-family="Helvetica,sans-Serif" font-size="10.00">Rect &gt;</text>
</a>
</g>
</g>
<!-- Node18&#45;&gt;Node16 -->
<g id="edge22" class="edge">
<title>Node18&#45;&gt;Node16</title>
<path fill="none" stroke="#9a32cd" stroke-dasharray="5,2" d="M1005.25,-349.66C1003.15,-349.69 1001.06,-349.71 999,-349.73 966.11,-350.09 957.89,-350.22 925,-349.73 805.4,-347.96 774.98,-353.98 656,-341.73 534.91,-329.27 393.27,-299.71 329.36,-285.55"/>
<polygon fill="#9a32cd" stroke="#9a32cd" points="1005.17,-353.16 1015.11,-349.51 1005.06,-346.16 1005.17,-353.16"/>
<text text-anchor="middle" x="709.5" y="-352.73" font-family="Helvetica,sans-Serif" font-size="10.00"> CustomRects</text>
</g>
<!-- Node19&#45;&gt;Node18 -->
<g id="edge23" class="edge">
<title>Node19&#45;&gt;Node18</title>
<path fill="none" stroke="#9a32cd" stroke-dasharray="5,2" d="M917.63,-331.68C943.34,-333.83 972.46,-336.33 999,-338.73 1004.74,-339.25 1010.67,-339.8 1016.63,-340.36"/>
<polygon fill="#9a32cd" stroke="#9a32cd" points="918.23,-328.22 907.97,-330.87 917.65,-335.19 918.23,-328.22"/>
<text text-anchor="middle" x="962" y="-341.73" font-family="Helvetica,sans-Serif" font-size="10.00"> Data</text>
</g>
<!-- Node20 -->
<g id="node20" class="node">
<title>Node20</title>
<g id="a_node20"><a xlink:href="struct_im_vector.html" target="_top" xlink:title=" ">
<polygon fill="white" stroke="#bfbfbf" points="1158.5,-241.23 1027.5,-241.23 1027.5,-222.23 1158.5,-222.23 1158.5,-241.23"/>
<text text-anchor="middle" x="1093" y="-229.23" font-family="Helvetica,sans-Serif" font-size="10.00">ImVector&lt; ImFontConfig &gt;</text>
</a>
</g>
</g>
<!-- Node20&#45;&gt;Node16 -->
<g id="edge26" class="edge">
<title>Node20&#45;&gt;Node16</title>
<path fill="none" stroke="#9a32cd" stroke-dasharray="5,2" d="M1015.9,-237.5C925.75,-244.2 771,-255.29 638,-262.73 524.93,-269.07 390.76,-274.26 329.09,-276.52"/>
<polygon fill="#9a32cd" stroke="#9a32cd" points="1016.15,-240.99 1025.86,-236.76 1015.63,-234.01 1016.15,-240.99"/>
<text text-anchor="middle" x="709.5" y="-264.73" font-family="Helvetica,sans-Serif" font-size="10.00"> ConfigData</text>
</g>
<!-- Node21&#45;&gt;Node11 -->
<g id="edge32" class="edge">
<title>Node21&#45;&gt;Node11</title>
<path fill="none" stroke="#9a32cd" stroke-dasharray="5,2" d="M795.47,-127.64C757.37,-123.34 702.74,-120.31 656,-129.73 630.33,-134.91 602.83,-147.79 585.53,-156.89"/>
<polygon fill="#9a32cd" stroke="#9a32cd" points="794.89,-131.09 805.24,-128.82 795.73,-124.14 794.89,-131.09"/>
<text text-anchor="middle" x="709.5" y="-132.73" font-family="Helvetica,sans-Serif" font-size="10.00"> ConfigData</text>
</g>
<!-- Node21&#45;&gt;Node20 -->
<g id="edge27" class="edge">
<title>Node21&#45;&gt;Node20</title>
<path fill="none" stroke="#9a32cd" stroke-dasharray="5,2" d="M880.48,-148.67C931.09,-168.54 1022.74,-204.53 1066.89,-221.87"/>
<polygon fill="#9a32cd" stroke="#9a32cd" points="882.04,-145.52 871.45,-145.12 879.48,-152.03 882.04,-145.52"/>
<text text-anchor="middle" x="962" y="-198.73" font-family="Helvetica,sans-Serif" font-size="10.00"> Data</text>
</g>
<!-- Node22 -->
<g id="node22" class="node">
<title>Node22</title>
<g id="a_node22"><a xlink:href="struct_im_font_builder_i_o.html" target="_top" xlink:title=" ">
<polygon fill="white" stroke="#bfbfbf" points="103.5,-287.23 15.5,-287.23 15.5,-268.23 103.5,-268.23 103.5,-287.23"/>
<text text-anchor="middle" x="59.5" y="-275.23" font-family="Helvetica,sans-Serif" font-size="10.00">ImFontBuilderIO</text>
</a>
</g>
</g>
<!-- Node22&#45;&gt;Node16 -->
<g id="edge31" class="edge">
<title>Node22&#45;&gt;Node16</title>
<path fill="none" stroke="#9a32cd" stroke-dasharray="5,2" d="M115.45,-277.73C159.91,-277.73 221.12,-277.73 258.82,-277.73"/>
<polygon fill="#9a32cd" stroke="#9a32cd" points="115.47,-274.23 105.47,-277.73 115.47,-281.23 115.47,-274.23"/>
<text text-anchor="middle" x="174.5" y="-280.73" font-family="Helvetica,sans-Serif" font-size="10.00"> FontBuilderIO</text>
</g>
<!-- Node23&#45;&gt;Node5 -->
<g id="edge40" class="edge">
<title>Node23&#45;&gt;Node5</title>
<path fill="none" stroke="#9a32cd" stroke-dasharray="5,2" d="M630.98,-445.91C734.2,-466.45 934.36,-508.84 999,-540.73 1031.47,-556.75 1064.51,-584.11 1081.09,-598.77"/>
<polygon fill="#9a32cd" stroke="#9a32cd" points="631.77,-442.5 621.28,-443.99 630.41,-449.37 631.77,-442.5"/>
<text text-anchor="middle" x="844" y="-510.73" font-family="Helvetica,sans-Serif" font-size="10.00"> _Path</text>
</g>
<!-- Node23&#45;&gt;Node10 -->
<g id="edge34" class="edge">
<title>Node23&#45;&gt;Node10</title>
<path fill="none" stroke="#9a32cd" stroke-dasharray="5,2" d="M632.4,-433.34C670.41,-433.29 719.45,-433.53 763,-434.73 770.09,-434.93 777.53,-435.21 784.9,-435.52"/>
<polygon fill="#9a32cd" stroke="#9a32cd" points="632.48,-429.84 622.49,-433.36 632.5,-436.84 632.48,-429.84"/>
<text text-anchor="middle" x="709.5" y="-437.73" font-family="Helvetica,sans-Serif" font-size="10.00"> TempBuffer</text>
</g>
<!-- Node24&#45;&gt;Node5 -->
<g id="edge37" class="edge">
<title>Node24&#45;&gt;Node5</title>
<path fill="none" stroke="#9a32cd" stroke-dasharray="5,2" d="M774.77,-648.33C833.29,-642.32 922.06,-632.79 999,-622.73 1019.08,-620.11 1041.52,-616.74 1059.33,-613.97"/>
<polygon fill="#9a32cd" stroke="#9a32cd" points="774.58,-644.83 764.99,-649.33 775.29,-651.79 774.58,-644.83"/>
<text text-anchor="middle" x="844" y="-649.73" font-family="Helvetica,sans-Serif" font-size="10.00"> _ClipRectStack</text>
</g>
<!-- Node25 -->
<g id="node25" class="node">
<title>Node25</title>
<g id="a_node25"><a xlink:href="struct_im_vector.html" target="_top" xlink:title=" ">
<polygon fill="white" stroke="#bfbfbf" points="907,-411.23 781,-411.23 781,-392.23 907,-392.23 907,-411.23"/>
<text text-anchor="middle" x="844" y="-399.23" font-family="Helvetica,sans-Serif" font-size="10.00">ImVector&lt; ImTextureID &gt;</text>
</a>
</g>
</g>
<!-- Node25&#45;&gt;Node5 -->
<g id="edge39" class="edge">
<title>Node25&#45;&gt;Node5</title>
<path fill="none" stroke="#9a32cd" stroke-dasharray="5,2" d="M918.45,-397.25C945.88,-398.98 975.94,-405.3 999,-421.73 1062.19,-466.77 1084.72,-567.18 1090.41,-598.92"/>
<polygon fill="#9a32cd" stroke="#9a32cd" points="918.93,-393.77 908.79,-396.84 918.64,-400.76 918.93,-393.77"/>
<text text-anchor="middle" x="962" y="-424.73" font-family="Helvetica,sans-Serif" font-size="10.00"> _TextureIdStack</text>
</g>
<!-- Node26&#45;&gt;Node5 -->
<g id="edge41" class="edge">
<title>Node26&#45;&gt;Node5</title>
<path fill="none" stroke="#9a32cd" stroke-dasharray="5,2" d="M489.54,-692.77C581.04,-690.63 758.16,-683.75 907,-661.73 948.49,-655.6 958.67,-652.24 999,-640.73 1021.82,-634.22 1047.28,-625.35 1065.78,-618.6"/>
<polygon fill="#9a32cd" stroke="#9a32cd" points="489.71,-689.27 479.79,-692.99 489.87,-696.26 489.71,-689.27"/>
<text text-anchor="middle" x="709.5" y="-688.73" font-family="Helvetica,sans-Serif" font-size="10.00"> _CmdHeader</text>
</g>
<!-- Node27 -->
<g id="node27" class="node">
<title>Node27</title>
<g id="a_node27"><a xlink:href="struct_im_draw_list_splitter.html" target="_top" xlink:title=" ">
<polygon fill="white" stroke="#bfbfbf" points="893,-779.23 795,-779.23 795,-760.23 893,-760.23 893,-779.23"/>
<text text-anchor="middle" x="844" y="-767.23" font-family="Helvetica,sans-Serif" font-size="10.00">ImDrawListSplitter</text>
</a>
</g>
</g>
<!-- Node27&#45;&gt;Node5 -->
<g id="edge43" class="edge">
<title>Node27&#45;&gt;Node5</title>
<path fill="none" stroke="#9a32cd" stroke-dasharray="5,2" d="M878.93,-755.29C911.07,-740.93 960.07,-717.27 999,-690.73 1032.08,-668.18 1066.19,-635.11 1082.36,-618.72"/>
<polygon fill="#9a32cd" stroke="#9a32cd" points="877.84,-751.94 870.1,-759.18 880.66,-758.35 877.84,-751.94"/>
<text text-anchor="middle" x="962" y="-735.73" font-family="Helvetica,sans-Serif" font-size="10.00"> _Splitter</text>
</g>
<!-- Node28&#45;&gt;Node27 -->
<g id="edge44" class="edge">
<title>Node28&#45;&gt;Node27</title>
<path fill="none" stroke="#9a32cd" stroke-dasharray="5,2" d="M649.91,-769.73C697.12,-769.73 754.83,-769.73 794.81,-769.73"/>
<polygon fill="#9a32cd" stroke="#9a32cd" points="649.98,-766.23 639.98,-769.73 649.98,-773.23 649.98,-766.23"/>
<text text-anchor="middle" x="709.5" y="-772.73" font-family="Helvetica,sans-Serif" font-size="10.00"> _Channels</text>
</g>
</g>
</svg>
