<?xml version="1.0" encoding="UTF-8" standalone="no"?>
<!DOCTYPE svg PUBLIC "-//W3C//DTD SVG 1.1//EN"
 "http://www.w3.org/Graphics/SVG/1.1/DTD/svg11.dtd">
<!-- Generated by graphviz version 7.0.5 (20221223.1930)
 -->
<!-- Title: ImGuiStorage Pages: 1 -->
<svg width="166pt" height="170pt"
 viewBox="0.00 0.00 166.00 170.00" xmlns="http://www.w3.org/2000/svg" xmlns:xlink="http://www.w3.org/1999/xlink">
<g id="graph0" class="graph" transform="scale(1 1) rotate(0) translate(4 166)">
<title>ImGuiStorage</title>
<!-- Node1 -->
<g id="node1" class="node">
<title>Node1</title>
<g id="a_node1"><a xlink:title=" ">
<polygon fill="#999999" stroke="#666666" points="117.5,-19 40.5,-19 40.5,0 117.5,0 117.5,-19"/>
<text text-anchor="middle" x="79" y="-7" font-family="Helvetica,sans-Serif" font-size="10.00">ImGuiStorage</text>
</a>
</g>
</g>
<!-- Node2 -->
<g id="node2" class="node">
<title>Node2</title>
<g id="a_node2"><a xlink:href="struct_im_vector.html" target="_top" xlink:title=" ">
<polygon fill="white" stroke="#bfbfbf" points="141.5,-96 16.5,-96 16.5,-66 141.5,-66 141.5,-96"/>
<text text-anchor="start" x="24.5" y="-84" font-family="Helvetica,sans-Serif" font-size="10.00">ImVector&lt; ImGuiStorage</text>
<text text-anchor="middle" x="79" y="-73" font-family="Helvetica,sans-Serif" font-size="10.00">::ImGuiStoragePair &gt;</text>
</a>
</g>
</g>
<!-- Node2&#45;&gt;Node1 -->
<g id="edge1" class="edge">
<title>Node2&#45;&gt;Node1</title>
<path fill="none" stroke="#9a32cd" stroke-dasharray="5,2" d="M79,-54.46C79,-42.07 79,-27.99 79,-19.18"/>
<polygon fill="#9a32cd" stroke="#9a32cd" points="75.5,-54.09 79,-64.09 82.5,-54.09 75.5,-54.09"/>
<text text-anchor="middle" x="90.5" y="-40" font-family="Helvetica,sans-Serif" font-size="10.00"> Data</text>
</g>
<!-- Node3 -->
<g id="node3" class="node">
<title>Node3</title>
<g id="a_node3"><a xlink:href="struct_im_gui_storage_1_1_im_gui_storage_pair.html" target="_top" xlink:title=" ">
<polygon fill="white" stroke="#bfbfbf" points="158,-162 0,-162 0,-143 158,-143 158,-162"/>
<text text-anchor="middle" x="79" y="-150" font-family="Helvetica,sans-Serif" font-size="10.00">ImGuiStorage::ImGuiStoragePair</text>
</a>
</g>
</g>
<!-- Node3&#45;&gt;Node2 -->
<g id="edge2" class="edge">
<title>Node3&#45;&gt;Node2</title>
<path fill="none" stroke="#9a32cd" stroke-dasharray="5,2" d="M79,-131.39C79,-120.15 79,-106.41 79,-96.27"/>
<polygon fill="#9a32cd" stroke="#9a32cd" points="75.5,-131.18 79,-141.18 82.5,-131.18 75.5,-131.18"/>
<text text-anchor="middle" x="90.5" y="-117" font-family="Helvetica,sans-Serif" font-size="10.00"> Data</text>
</g>
</g>
</svg>
