<?xml version="1.0" encoding="UTF-8" standalone="no"?>
<!DOCTYPE svg PUBLIC "-//W3C//DTD SVG 1.1//EN"
 "http://www.w3.org/Graphics/SVG/1.1/DTD/svg11.dtd">
<!-- Generated by graphviz version 7.0.5 (20221223.1930)
 -->
<!-- Title: ImFontBuildSrcDataFT Pages: 1 -->
<svg width="713pt" height="177pt"
 viewBox="0.00 0.00 713.00 177.00" xmlns="http://www.w3.org/2000/svg" xmlns:xlink="http://www.w3.org/1999/xlink">
<g id="graph0" class="graph" transform="scale(1 1) rotate(0) translate(4 173)">
<title>ImFontBuildSrcDataFT</title>
<!-- Node1 -->
<g id="node1" class="node">
<title>Node1</title>
<g id="a_node1"><a xlink:title=" ">
<polygon fill="#999999" stroke="#666666" points="705,-92 589,-92 589,-73 705,-73 705,-92"/>
<text text-anchor="middle" x="647" y="-80" font-family="Helvetica,sans-Serif" font-size="10.00">ImFontBuildSrcDataFT</text>
</a>
</g>
</g>
<!-- Node2 -->
<g id="node2" class="node">
<title>Node2</title>
<g id="a_node2"><a xlink:href="structanonymous__namespace_02imgui__freetype_8cpp_03_1_1_free_type_font.html" target="_top" xlink:title=" ">
<polygon fill="white" stroke="#bfbfbf" points="499,-169 377,-169 377,-128 499,-128 499,-169"/>
<text text-anchor="start" x="385" y="-157" font-family="Helvetica,sans-Serif" font-size="10.00">anonymous_namespace</text>
<text text-anchor="start" x="385" y="-146" font-family="Helvetica,sans-Serif" font-size="10.00">{imgui_freetype.cpp}</text>
<text text-anchor="middle" x="438" y="-135" font-family="Helvetica,sans-Serif" font-size="10.00">::FreeTypeFont</text>
</a>
</g>
</g>
<!-- Node2&#45;&gt;Node1 -->
<g id="edge1" class="edge">
<title>Node2&#45;&gt;Node1</title>
<path fill="none" stroke="#9a32cd" stroke-dasharray="5,2" d="M510,-126.74C529.77,-120.6 551.25,-113.86 571,-107.5 586.02,-102.66 602.69,-97.13 616.48,-92.5"/>
<polygon fill="#9a32cd" stroke="#9a32cd" points="509.17,-123.33 500.65,-129.64 511.24,-130.02 509.17,-123.33"/>
<text text-anchor="middle" x="546.5" y="-124.5" font-family="Helvetica,sans-Serif" font-size="10.00"> Font</text>
</g>
<!-- Node3 -->
<g id="node3" class="node">
<title>Node3</title>
<g id="a_node3"><a xlink:href="namespaceanonymous__namespace_02imgui__freetype_8cpp_03.html#structanonymous__namespace_02imgui__freetype_8cpp_03_1_1_font_info" target="_top" xlink:title=" ">
<polygon fill="white" stroke="#bfbfbf" points="299,-169 177,-169 177,-128 299,-128 299,-169"/>
<text text-anchor="start" x="185" y="-157" font-family="Helvetica,sans-Serif" font-size="10.00">anonymous_namespace</text>
<text text-anchor="start" x="185" y="-146" font-family="Helvetica,sans-Serif" font-size="10.00">{imgui_freetype.cpp}</text>
<text text-anchor="middle" x="238" y="-135" font-family="Helvetica,sans-Serif" font-size="10.00">::FontInfo</text>
</a>
</g>
</g>
<!-- Node3&#45;&gt;Node2 -->
<g id="edge2" class="edge">
<title>Node3&#45;&gt;Node2</title>
<path fill="none" stroke="#9a32cd" stroke-dasharray="5,2" d="M310.89,-148.5C332.43,-148.5 355.82,-148.5 376.55,-148.5"/>
<polygon fill="#9a32cd" stroke="#9a32cd" points="311,-145 301,-148.5 311,-152 311,-145"/>
<text text-anchor="middle" x="335.5" y="-151.5" font-family="Helvetica,sans-Serif" font-size="10.00"> Info</text>
</g>
<!-- Node4 -->
<g id="node4" class="node">
<title>Node4</title>
<g id="a_node4"><a xlink:href="structstbrp__rect.html" target="_top" xlink:title=" ">
<polygon fill="white" stroke="#bfbfbf" points="468,-110 408,-110 408,-91 468,-91 468,-110"/>
<text text-anchor="middle" x="438" y="-98" font-family="Helvetica,sans-Serif" font-size="10.00">stbrp_rect</text>
</a>
</g>
</g>
<!-- Node4&#45;&gt;Node1 -->
<g id="edge3" class="edge">
<title>Node4&#45;&gt;Node1</title>
<path fill="none" stroke="#9a32cd" stroke-dasharray="5,2" d="M479.51,-96.98C510.66,-94.27 554.1,-90.49 588.79,-87.47"/>
<polygon fill="#9a32cd" stroke="#9a32cd" points="479.39,-93.47 469.73,-97.83 479.99,-100.45 479.39,-93.47"/>
<text text-anchor="middle" x="546.5" y="-95.5" font-family="Helvetica,sans-Serif" font-size="10.00"> Rects</text>
</g>
<!-- Node5 -->
<g id="node5" class="node">
<title>Node5</title>
<g id="a_node5"><a xlink:href="struct_im_bit_vector.html" target="_top" xlink:title=" ">
<polygon fill="white" stroke="#bfbfbf" points="472,-73 404,-73 404,-54 472,-54 472,-73"/>
<text text-anchor="middle" x="438" y="-61" font-family="Helvetica,sans-Serif" font-size="10.00">ImBitVector</text>
</a>
</g>
</g>
<!-- Node5&#45;&gt;Node1 -->
<g id="edge4" class="edge">
<title>Node5&#45;&gt;Node1</title>
<path fill="none" stroke="#9a32cd" stroke-dasharray="5,2" d="M483.62,-66.39C509.22,-68.17 541.94,-70.66 571,-73.5 576.74,-74.06 582.73,-74.7 588.7,-75.36"/>
<polygon fill="#9a32cd" stroke="#9a32cd" points="484.12,-62.92 473.91,-65.73 483.65,-69.9 484.12,-62.92"/>
<text text-anchor="middle" x="546.5" y="-76.5" font-family="Helvetica,sans-Serif" font-size="10.00"> GlyphsSet</text>
</g>
<!-- Node6 -->
<g id="node6" class="node">
<title>Node6</title>
<g id="a_node6"><a xlink:href="struct_im_vector.html" target="_top" xlink:title=" ">
<polygon fill="white" stroke="#bfbfbf" points="289,-73 187,-73 187,-54 289,-54 289,-73"/>
<text text-anchor="middle" x="238" y="-61" font-family="Helvetica,sans-Serif" font-size="10.00">ImVector&lt; ImU32 &gt;</text>
</a>
</g>
</g>
<!-- Node6&#45;&gt;Node5 -->
<g id="edge5" class="edge">
<title>Node6&#45;&gt;Node5</title>
<path fill="none" stroke="#9a32cd" stroke-dasharray="5,2" d="M300.72,-63.5C334.75,-63.5 375.66,-63.5 403.72,-63.5"/>
<polygon fill="#9a32cd" stroke="#9a32cd" points="300.99,-60 290.99,-63.5 300.99,-67 300.99,-60"/>
<text text-anchor="middle" x="335.5" y="-66.5" font-family="Helvetica,sans-Serif" font-size="10.00"> Storage</text>
</g>
<!-- Node7 -->
<g id="node7" class="node">
<title>Node7</title>
<g id="a_node7"><a xlink:href="struct_im_vector.html" target="_top" xlink:title=" ">
<polygon fill="white" stroke="#bfbfbf" points="504,-35.5 372,-35.5 372,-5.5 504,-5.5 504,-35.5"/>
<text text-anchor="start" x="380" y="-23.5" font-family="Helvetica,sans-Serif" font-size="10.00">ImVector&lt; ImFontBuildSrc</text>
<text text-anchor="middle" x="438" y="-12.5" font-family="Helvetica,sans-Serif" font-size="10.00">GlyphFT &gt;</text>
</a>
</g>
</g>
<!-- Node7&#45;&gt;Node1 -->
<g id="edge6" class="edge">
<title>Node7&#45;&gt;Node1</title>
<path fill="none" stroke="#9a32cd" stroke-dasharray="5,2" d="M515.22,-37.84C533.61,-42.5 553.11,-47.83 571,-53.5 588.57,-59.07 607.96,-66.6 622.62,-72.6"/>
<polygon fill="#9a32cd" stroke="#9a32cd" points="516.26,-34.5 505.71,-35.48 514.57,-41.29 516.26,-34.5"/>
<text text-anchor="middle" x="546.5" y="-56.5" font-family="Helvetica,sans-Serif" font-size="10.00"> GlyphsList</text>
</g>
<!-- Node8 -->
<g id="node8" class="node">
<title>Node8</title>
<g id="a_node8"><a xlink:href="struct_im_font_build_src_glyph_f_t.html" target="_top" xlink:title=" ">
<polygon fill="white" stroke="#bfbfbf" points="298.5,-30 177.5,-30 177.5,-11 298.5,-11 298.5,-30"/>
<text text-anchor="middle" x="238" y="-18" font-family="Helvetica,sans-Serif" font-size="10.00">ImFontBuildSrcGlyphFT</text>
</a>
</g>
</g>
<!-- Node8&#45;&gt;Node7 -->
<g id="edge7" class="edge">
<title>Node8&#45;&gt;Node7</title>
<path fill="none" stroke="#9a32cd" stroke-dasharray="5,2" d="M310.22,-20.5C330.3,-20.5 352.03,-20.5 371.74,-20.5"/>
<polygon fill="#9a32cd" stroke="#9a32cd" points="310.46,-17 300.46,-20.5 310.46,-24 310.46,-17"/>
<text text-anchor="middle" x="335.5" y="-23.5" font-family="Helvetica,sans-Serif" font-size="10.00"> Data</text>
</g>
<!-- Node9 -->
<g id="node9" class="node">
<title>Node9</title>
<g id="a_node9"><a xlink:href="namespaceanonymous__namespace_02imgui__freetype_8cpp_03.html#structanonymous__namespace_02imgui__freetype_8cpp_03_1_1_glyph_info" target="_top" xlink:title=" ">
<polygon fill="white" stroke="#bfbfbf" points="122,-41 0,-41 0,0 122,0 122,-41"/>
<text text-anchor="start" x="8" y="-29" font-family="Helvetica,sans-Serif" font-size="10.00">anonymous_namespace</text>
<text text-anchor="start" x="8" y="-18" font-family="Helvetica,sans-Serif" font-size="10.00">{imgui_freetype.cpp}</text>
<text text-anchor="middle" x="61" y="-7" font-family="Helvetica,sans-Serif" font-size="10.00">::GlyphInfo</text>
</a>
</g>
</g>
<!-- Node9&#45;&gt;Node8 -->
<g id="edge8" class="edge">
<title>Node9&#45;&gt;Node8</title>
<path fill="none" stroke="#9a32cd" stroke-dasharray="5,2" d="M133.68,-20.5C148.16,-20.5 163.24,-20.5 177.26,-20.5"/>
<polygon fill="#9a32cd" stroke="#9a32cd" points="133.74,-17 123.74,-20.5 133.74,-24 133.74,-17"/>
<text text-anchor="middle" x="149.5" y="-23.5" font-family="Helvetica,sans-Serif" font-size="10.00"> Info</text>
</g>
</g>
</svg>
