<?xml version="1.0" encoding="UTF-8" standalone="no"?>
<!DOCTYPE svg PUBLIC "-//W3C//DTD SVG 1.1//EN"
 "http://www.w3.org/Graphics/SVG/1.1/DTD/svg11.dtd">
<!-- Generated by graphviz version 7.0.5 (20221223.1930)
 -->
<!-- Title: ImGuiTableTempData Pages: 1 -->
<svg width="2310pt" height="812pt"
 viewBox="0.00 0.00 2310.00 811.50" xmlns="http://www.w3.org/2000/svg" xmlns:xlink="http://www.w3.org/1999/xlink">
<g id="graph0" class="graph" transform="scale(1 1) rotate(0) translate(4 807.5)">
<title>ImGuiTableTempData</title>
<!-- Node1 -->
<g id="node1" class="node">
<title>Node1</title>
<g id="a_node1"><a xlink:title=" ">
<polygon fill="#999999" stroke="#666666" points="2302,-676 2190,-676 2190,-657 2302,-657 2302,-676"/>
<text text-anchor="middle" x="2246" y="-664" font-family="Helvetica,sans-Serif" font-size="10.00">ImGuiTableTempData</text>
</a>
</g>
</g>
<!-- Node2 -->
<g id="node2" class="node">
<title>Node2</title>
<g id="a_node2"><a xlink:href="struct_im_vec2.html" target="_top" xlink:title=" ">
<polygon fill="white" stroke="#bfbfbf" points="69,-567 19,-567 19,-548 69,-548 69,-567"/>
<text text-anchor="middle" x="44" y="-555" font-family="Helvetica,sans-Serif" font-size="10.00">ImVec2</text>
</a>
</g>
</g>
<!-- Node2&#45;&gt;Node1 -->
<g id="edge1" class="edge">
<title>Node2&#45;&gt;Node1</title>
<path fill="none" stroke="#9a32cd" stroke-dasharray="5,2" d="M54.32,-577.32C79.78,-628.2 155.77,-759.5 262,-759.5 262,-759.5 262,-759.5 1985,-759.5 2071.15,-759.5 2092.46,-741.58 2172,-708.5 2193.33,-699.63 2216.14,-685.71 2230.47,-676.35"/>
<polygon fill="#9a32cd" stroke="#9a32cd" points="57.6,-576.07 50.08,-568.6 51.31,-579.13 57.6,-576.07"/>
<text text-anchor="middle" x="1227" y="-795.5" font-family="Helvetica,sans-Serif" font-size="10.00"> HostBackupCurrLineSize</text>
<text text-anchor="middle" x="1227" y="-784.5" font-family="Helvetica,sans-Serif" font-size="10.00">HostBackupCursorMaxPos</text>
<text text-anchor="middle" x="1227" y="-773.5" font-family="Helvetica,sans-Serif" font-size="10.00">HostBackupPrevLineSize</text>
<text text-anchor="middle" x="1227" y="-762.5" font-family="Helvetica,sans-Serif" font-size="10.00">UserOuterSize</text>
</g>
<!-- Node12 -->
<g id="node12" class="node">
<title>Node12</title>
<g id="a_node12"><a xlink:href="struct_im_draw_vert.html" target="_top" xlink:title=" ">
<polygon fill="white" stroke="#bfbfbf" points="557.5,-642 489.5,-642 489.5,-623 557.5,-623 557.5,-642"/>
<text text-anchor="middle" x="523.5" y="-630" font-family="Helvetica,sans-Serif" font-size="10.00">ImDrawVert</text>
</a>
</g>
</g>
<!-- Node2&#45;&gt;Node12 -->
<g id="edge13" class="edge">
<title>Node2&#45;&gt;Node12</title>
<path fill="none" stroke="#9a32cd" stroke-dasharray="5,2" d="M80.31,-569.6C88.66,-572.16 97.59,-574.64 106,-576.5 246.69,-607.64 418.2,-624.06 489.23,-629.94"/>
<polygon fill="#9a32cd" stroke="#9a32cd" points="81.41,-566.28 70.82,-566.59 79.29,-572.95 81.41,-566.28"/>
<text text-anchor="middle" x="263" y="-627.5" font-family="Helvetica,sans-Serif" font-size="10.00"> pos</text>
<text text-anchor="middle" x="263" y="-616.5" font-family="Helvetica,sans-Serif" font-size="10.00">uv</text>
</g>
<!-- Node13 -->
<g id="node13" class="node">
<title>Node13</title>
<g id="a_node13"><a xlink:href="struct_im_draw_list_shared_data.html" target="_top" xlink:title=" ">
<polygon fill="white" stroke="#bfbfbf" points="805,-549 687,-549 687,-530 805,-530 805,-549"/>
<text text-anchor="middle" x="746" y="-537" font-family="Helvetica,sans-Serif" font-size="10.00">ImDrawListSharedData</text>
</a>
</g>
</g>
<!-- Node2&#45;&gt;Node13 -->
<g id="edge15" class="edge">
<title>Node2&#45;&gt;Node13</title>
<path fill="none" stroke="#9a32cd" stroke-dasharray="5,2" d="M80.95,-555.96C137.24,-553.6 249.62,-549.08 345,-546.5 466.5,-543.21 608.81,-541.15 686.7,-540.17"/>
<polygon fill="#9a32cd" stroke="#9a32cd" points="80.85,-552.46 71.01,-556.38 81.14,-559.45 80.85,-552.46"/>
<text text-anchor="middle" x="398.5" y="-560.5" font-family="Helvetica,sans-Serif" font-size="10.00"> ArcFastVtx</text>
<text text-anchor="middle" x="398.5" y="-549.5" font-family="Helvetica,sans-Serif" font-size="10.00">TexUvWhitePixel</text>
</g>
<!-- Node19 -->
<g id="node19" class="node">
<title>Node19</title>
<g id="a_node19"><a xlink:href="struct_im_font_atlas.html" target="_top" xlink:title=" ">
<polygon fill="white" stroke="#bfbfbf" points="298,-247 228,-247 228,-228 298,-228 298,-247"/>
<text text-anchor="middle" x="263" y="-235" font-family="Helvetica,sans-Serif" font-size="10.00">ImFontAtlas</text>
</a>
</g>
</g>
<!-- Node2&#45;&gt;Node19 -->
<g id="edge23" class="edge">
<title>Node2&#45;&gt;Node19</title>
<path fill="none" stroke="#9a32cd" stroke-dasharray="5,2" d="M55.43,-537.54C66.56,-517.14 85.4,-485.06 106,-460.5 134.91,-426.02 153.49,-428.1 181,-392.5 219.25,-343.01 248.39,-272.8 258.31,-247.26"/>
<polygon fill="#9a32cd" stroke="#9a32cd" points="52.42,-535.74 50.79,-546.21 58.6,-539.04 52.42,-535.74"/>
<text text-anchor="middle" x="143.5" y="-474.5" font-family="Helvetica,sans-Serif" font-size="10.00"> TexUvScale</text>
<text text-anchor="middle" x="143.5" y="-463.5" font-family="Helvetica,sans-Serif" font-size="10.00">TexUvWhitePixel</text>
</g>
<!-- Node22 -->
<g id="node22" class="node">
<title>Node22</title>
<g id="a_node22"><a xlink:href="struct_im_font_atlas_custom_rect.html" target="_top" xlink:title=" ">
<polygon fill="white" stroke="#bfbfbf" points="808,-311 684,-311 684,-292 808,-292 808,-311"/>
<text text-anchor="middle" x="746" y="-299" font-family="Helvetica,sans-Serif" font-size="10.00">ImFontAtlasCustomRect</text>
</a>
</g>
</g>
<!-- Node2&#45;&gt;Node22 -->
<g id="edge28" class="edge">
<title>Node2&#45;&gt;Node22</title>
<path fill="none" stroke="#9a32cd" stroke-dasharray="5,2" d="M80.55,-551.12C166.15,-535.62 381.78,-495.7 452,-474.5 517.66,-454.67 531.38,-442.12 595,-416.5 626.08,-403.98 637.42,-407.53 665,-388.5 697.09,-366.36 725.61,-329.16 738.19,-311.45"/>
<polygon fill="#9a32cd" stroke="#9a32cd" points="80.08,-547.65 70.86,-552.87 81.32,-554.54 80.08,-547.65"/>
<text text-anchor="middle" x="398.5" y="-503.5" font-family="Helvetica,sans-Serif" font-size="10.00"> GlyphOffset</text>
</g>
<!-- Node24 -->
<g id="node24" class="node">
<title>Node24</title>
<g id="a_node24"><a xlink:href="struct_im_font_config.html" target="_top" xlink:title=" ">
<polygon fill="white" stroke="#bfbfbf" points="783,-93 709,-93 709,-74 783,-74 783,-93"/>
<text text-anchor="middle" x="746" y="-81" font-family="Helvetica,sans-Serif" font-size="10.00">ImFontConfig</text>
</a>
</g>
</g>
<!-- Node2&#45;&gt;Node24 -->
<g id="edge32" class="edge">
<title>Node2&#45;&gt;Node24</title>
<path fill="none" stroke="#9a32cd" stroke-dasharray="5,2" d="M50.22,-536.74C58.94,-501.51 76.64,-427.67 88,-364.5 114.19,-218.82 73.37,-128.77 199,-50.5 284.14,2.54 600.56,-54.43 708.59,-75.97"/>
<polygon fill="#9a32cd" stroke="#9a32cd" points="46.92,-535.49 47.9,-546.04 53.71,-537.19 46.92,-535.49"/>
<text text-anchor="middle" x="398.5" y="-49.5" font-family="Helvetica,sans-Serif" font-size="10.00"> GlyphExtraSpacing</text>
<text text-anchor="middle" x="398.5" y="-38.5" font-family="Helvetica,sans-Serif" font-size="10.00">GlyphOffset</text>
</g>
<!-- Node26 -->
<g id="node26" class="node">
<title>Node26</title>
<g id="a_node26"><a xlink:href="struct_im_vector.html" target="_top" xlink:title=" ">
<polygon fill="white" stroke="#bfbfbf" points="577,-590 470,-590 470,-571 577,-571 577,-590"/>
<text text-anchor="middle" x="523.5" y="-578" font-family="Helvetica,sans-Serif" font-size="10.00">ImVector&lt; ImVec2 &gt;</text>
</a>
</g>
</g>
<!-- Node2&#45;&gt;Node26 -->
<g id="edge39" class="edge">
<title>Node2&#45;&gt;Node26</title>
<path fill="none" stroke="#9a32cd" stroke-dasharray="5,2" d="M80.7,-559.22C164.06,-563.23 371.83,-573.24 469.8,-577.96"/>
<polygon fill="#9a32cd" stroke="#9a32cd" points="81,-555.73 70.85,-558.75 80.67,-562.72 81,-555.73"/>
<text text-anchor="middle" x="263" y="-574.5" font-family="Helvetica,sans-Serif" font-size="10.00"> Data</text>
</g>
<!-- Node30 -->
<g id="node30" class="node">
<title>Node30</title>
<g id="a_node30"><a xlink:href="struct_im_rect.html" target="_top" xlink:title=" ">
<polygon fill="white" stroke="#bfbfbf" points="654,-710 606,-710 606,-691 654,-691 654,-710"/>
<text text-anchor="middle" x="630" y="-698" font-family="Helvetica,sans-Serif" font-size="10.00">ImRect</text>
</a>
</g>
</g>
<!-- Node2&#45;&gt;Node30 -->
<g id="edge50" class="edge">
<title>Node2&#45;&gt;Node30</title>
<path fill="none" stroke="#9a32cd" stroke-dasharray="5,2" d="M67.83,-573.59C96.8,-593.04 149.04,-625 199,-639.5 349.98,-683.33 540.26,-696.23 605.68,-699.51"/>
<polygon fill="#9a32cd" stroke="#9a32cd" points="70.07,-570.88 59.84,-568.13 66.12,-576.66 70.07,-570.88"/>
<text text-anchor="middle" x="263" y="-681.5" font-family="Helvetica,sans-Serif" font-size="10.00"> Max</text>
<text text-anchor="middle" x="263" y="-670.5" font-family="Helvetica,sans-Serif" font-size="10.00">Min</text>
</g>
<!-- Node3 -->
<g id="node3" class="node">
<title>Node3</title>
<g id="a_node3"><a xlink:href="struct_im_draw_list_splitter.html" target="_top" xlink:title=" ">
<polygon fill="white" stroke="#bfbfbf" points="2033,-633 1935,-633 1935,-614 2033,-614 2033,-633"/>
<text text-anchor="middle" x="1984" y="-621" font-family="Helvetica,sans-Serif" font-size="10.00">ImDrawListSplitter</text>
</a>
</g>
</g>
<!-- Node3&#45;&gt;Node1 -->
<g id="edge2" class="edge">
<title>Node3&#45;&gt;Node1</title>
<path fill="none" stroke="#9a32cd" stroke-dasharray="5,2" d="M2044.62,-633.36C2088.29,-640.58 2147.14,-650.32 2189.75,-657.36"/>
<polygon fill="#9a32cd" stroke="#9a32cd" points="2045.23,-629.91 2034.79,-631.73 2044.08,-636.82 2045.23,-629.91"/>
<text text-anchor="middle" x="2111.5" y="-656.5" font-family="Helvetica,sans-Serif" font-size="10.00"> DrawSplitter</text>
</g>
<!-- Node9 -->
<g id="node9" class="node">
<title>Node9</title>
<g id="a_node9"><a xlink:href="struct_im_draw_list.html" target="_top" xlink:title=" ">
<polygon fill="white" stroke="#bfbfbf" points="1028.5,-533 961.5,-533 961.5,-514 1028.5,-514 1028.5,-533"/>
<text text-anchor="middle" x="995" y="-521" font-family="Helvetica,sans-Serif" font-size="10.00">ImDrawList</text>
</a>
</g>
</g>
<!-- Node3&#45;&gt;Node9 -->
<g id="edge47" class="edge">
<title>Node3&#45;&gt;Node9</title>
<path fill="none" stroke="#9a32cd" stroke-dasharray="5,2" d="M1938.65,-610.66C1897.81,-599.97 1835.34,-586.5 1780,-586.5 1226,-586.5 1226,-586.5 1226,-586.5 1146.72,-586.5 1057.35,-551.25 1017.35,-533.48"/>
<polygon fill="#9a32cd" stroke="#9a32cd" points="1937.55,-613.99 1948.11,-613.19 1939.36,-607.22 1937.55,-613.99"/>
<text text-anchor="middle" x="1518" y="-589.5" font-family="Helvetica,sans-Serif" font-size="10.00"> _Splitter</text>
</g>
<!-- Node4 -->
<g id="node4" class="node">
<title>Node4</title>
<g id="a_node4"><a xlink:href="struct_im_vector.html" target="_top" xlink:title=" ">
<polygon fill="white" stroke="#bfbfbf" points="1850,-546 1708,-546 1708,-527 1850,-527 1850,-546"/>
<text text-anchor="middle" x="1779" y="-534" font-family="Helvetica,sans-Serif" font-size="10.00">ImVector&lt; ImDrawChannel &gt;</text>
</a>
</g>
</g>
<!-- Node4&#45;&gt;Node3 -->
<g id="edge3" class="edge">
<title>Node4&#45;&gt;Node3</title>
<path fill="none" stroke="#9a32cd" stroke-dasharray="5,2" d="M1861.61,-538.07C1881.4,-541.85 1901.34,-548.9 1917,-561.5 1933.14,-574.49 1920.21,-589.99 1935,-604.5 1938.71,-608.14 1943.2,-611.11 1947.94,-613.52"/>
<polygon fill="#9a32cd" stroke="#9a32cd" points="1862.26,-534.63 1851.83,-536.49 1861.14,-541.54 1862.26,-534.63"/>
<text text-anchor="middle" x="1892.5" y="-564.5" font-family="Helvetica,sans-Serif" font-size="10.00"> _Channels</text>
</g>
<!-- Node5 -->
<g id="node5" class="node">
<title>Node5</title>
<g id="a_node5"><a xlink:href="struct_im_draw_channel.html" target="_top" xlink:title=" ">
<polygon fill="white" stroke="#bfbfbf" points="1649,-503 1563,-503 1563,-484 1649,-484 1649,-503"/>
<text text-anchor="middle" x="1606" y="-491" font-family="Helvetica,sans-Serif" font-size="10.00">ImDrawChannel</text>
</a>
</g>
</g>
<!-- Node5&#45;&gt;Node4 -->
<g id="edge4" class="edge">
<title>Node5&#45;&gt;Node4</title>
<path fill="none" stroke="#9a32cd" stroke-dasharray="5,2" d="M1657.72,-506.25C1683.46,-512.73 1714.26,-520.47 1738.26,-526.51"/>
<polygon fill="#9a32cd" stroke="#9a32cd" points="1658.68,-502.89 1648.13,-503.84 1656.97,-509.68 1658.68,-502.89"/>
<text text-anchor="middle" x="1678.5" y="-517.5" font-family="Helvetica,sans-Serif" font-size="10.00"> Data</text>
</g>
<!-- Node6 -->
<g id="node6" class="node">
<title>Node6</title>
<g id="a_node6"><a xlink:href="struct_im_vector.html" target="_top" xlink:title=" ">
<polygon fill="white" stroke="#bfbfbf" points="1472.5,-503 1345.5,-503 1345.5,-484 1472.5,-484 1472.5,-503"/>
<text text-anchor="middle" x="1409" y="-491" font-family="Helvetica,sans-Serif" font-size="10.00">ImVector&lt; ImDrawCmd &gt;</text>
</a>
</g>
</g>
<!-- Node6&#45;&gt;Node5 -->
<g id="edge5" class="edge">
<title>Node6&#45;&gt;Node5</title>
<path fill="none" stroke="#9a32cd" stroke-dasharray="5,2" d="M1484,-493.5C1510.6,-493.5 1539.69,-493.5 1562.67,-493.5"/>
<polygon fill="#9a32cd" stroke="#9a32cd" points="1484.29,-490 1474.29,-493.5 1484.29,-497 1484.29,-490"/>
<text text-anchor="middle" x="1518" y="-496.5" font-family="Helvetica,sans-Serif" font-size="10.00"> _CmdBuffer</text>
</g>
<!-- Node6&#45;&gt;Node9 -->
<g id="edge9" class="edge">
<title>Node6&#45;&gt;Node9</title>
<path fill="none" stroke="#9a32cd" stroke-dasharray="5,2" d="M1334.03,-500.9C1331.66,-501.11 1329.31,-501.31 1327,-501.5 1217.95,-510.51 1088.44,-518.26 1028.91,-521.66"/>
<polygon fill="#9a32cd" stroke="#9a32cd" points="1334.07,-504.41 1343.72,-500.04 1333.45,-497.44 1334.07,-504.41"/>
<text text-anchor="middle" x="1227" y="-516.5" font-family="Helvetica,sans-Serif" font-size="10.00"> CmdBuffer</text>
</g>
<!-- Node7 -->
<g id="node7" class="node">
<title>Node7</title>
<g id="a_node7"><a xlink:href="struct_im_draw_cmd.html" target="_top" xlink:title=" ">
<polygon fill="white" stroke="#bfbfbf" points="1262.5,-487 1191.5,-487 1191.5,-468 1262.5,-468 1262.5,-487"/>
<text text-anchor="middle" x="1227" y="-475" font-family="Helvetica,sans-Serif" font-size="10.00">ImDrawCmd</text>
</a>
</g>
</g>
<!-- Node7&#45;&gt;Node6 -->
<g id="edge6" class="edge">
<title>Node7&#45;&gt;Node6</title>
<path fill="none" stroke="#9a32cd" stroke-dasharray="5,2" d="M1273.92,-481.58C1295.62,-483.51 1321.86,-485.84 1345.34,-487.93"/>
<polygon fill="#9a32cd" stroke="#9a32cd" points="1274.48,-478.12 1264.21,-480.72 1273.86,-485.09 1274.48,-478.12"/>
<text text-anchor="middle" x="1315.5" y="-489.5" font-family="Helvetica,sans-Serif" font-size="10.00"> Data</text>
</g>
<!-- Node8 -->
<g id="node8" class="node">
<title>Node8</title>
<g id="a_node8"><a xlink:href="struct_im_vec4.html" target="_top" xlink:title=" ">
<polygon fill="white" stroke="#bfbfbf" points="69,-356 19,-356 19,-337 69,-337 69,-356"/>
<text text-anchor="middle" x="44" y="-344" font-family="Helvetica,sans-Serif" font-size="10.00">ImVec4</text>
</a>
</g>
</g>
<!-- Node8&#45;&gt;Node7 -->
<g id="edge7" class="edge">
<title>Node8&#45;&gt;Node7</title>
<path fill="none" stroke="#9a32cd" stroke-dasharray="5,2" d="M80.18,-335.87C176.35,-308.59 450.75,-242.63 665,-307.5 674.2,-310.29 674.28,-315.44 683,-319.5 865.03,-404.22 1102.74,-454.41 1191.02,-471.18"/>
<polygon fill="#9a32cd" stroke="#9a32cd" points="79.44,-332.44 70.8,-338.58 81.38,-339.17 79.44,-332.44"/>
<text text-anchor="middle" x="630" y="-310.5" font-family="Helvetica,sans-Serif" font-size="10.00"> ClipRect</text>
</g>
<!-- Node8&#45;&gt;Node13 -->
<g id="edge37" class="edge">
<title>Node8&#45;&gt;Node13</title>
<path fill="none" stroke="#9a32cd" stroke-dasharray="5,2" d="M52.35,-367.18C61.31,-388.96 78.72,-422.17 106,-437.5 240.2,-512.88 300.19,-427.07 452,-452.5 465.17,-454.71 638.71,-507.21 712.33,-529.57"/>
<polygon fill="#9a32cd" stroke="#9a32cd" points="55.62,-365.94 48.77,-357.86 49.09,-368.45 55.62,-365.94"/>
<text text-anchor="middle" x="398.5" y="-466.5" font-family="Helvetica,sans-Serif" font-size="10.00"> ClipRectFullscreen</text>
<text text-anchor="middle" x="398.5" y="-455.5" font-family="Helvetica,sans-Serif" font-size="10.00">TexUvLines</text>
</g>
<!-- Node8&#45;&gt;Node19 -->
<g id="edge34" class="edge">
<title>Node8&#45;&gt;Node19</title>
<path fill="none" stroke="#9a32cd" stroke-dasharray="5,2" d="M58.52,-328.05C69.76,-313.94 86.95,-295.03 106,-283.5 144.17,-260.4 194.65,-248.3 227.7,-242.41"/>
<polygon fill="#9a32cd" stroke="#9a32cd" points="55.96,-325.62 52.66,-335.69 61.52,-329.88 55.96,-325.62"/>
<text text-anchor="middle" x="143.5" y="-286.5" font-family="Helvetica,sans-Serif" font-size="10.00"> TexUvLines</text>
</g>
<!-- Node27 -->
<g id="node27" class="node">
<title>Node27</title>
<g id="a_node27"><a xlink:href="struct_im_vector.html" target="_top" xlink:title=" ">
<polygon fill="white" stroke="#bfbfbf" points="452,-418 345,-418 345,-399 452,-399 452,-418"/>
<text text-anchor="middle" x="398.5" y="-406" font-family="Helvetica,sans-Serif" font-size="10.00">ImVector&lt; ImVec4 &gt;</text>
</a>
</g>
</g>
<!-- Node8&#45;&gt;Node27 -->
<g id="edge42" class="edge">
<title>Node8&#45;&gt;Node27</title>
<path fill="none" stroke="#9a32cd" stroke-dasharray="5,2" d="M80.33,-353.6C88.74,-355.25 97.68,-356.97 106,-358.5 189.2,-373.82 286.04,-390.13 344.51,-399.81"/>
<polygon fill="#9a32cd" stroke="#9a32cd" points="81.29,-350.22 70.8,-351.72 79.93,-357.09 81.29,-350.22"/>
<text text-anchor="middle" x="143.5" y="-375.5" font-family="Helvetica,sans-Serif" font-size="10.00"> Data</text>
</g>
<!-- Node29 -->
<g id="node29" class="node">
<title>Node29</title>
<g id="a_node29"><a xlink:href="struct_im_draw_cmd_header.html" target="_top" xlink:title=" ">
<polygon fill="white" stroke="#bfbfbf" points="449.5,-371 347.5,-371 347.5,-352 449.5,-352 449.5,-371"/>
<text text-anchor="middle" x="398.5" y="-359" font-family="Helvetica,sans-Serif" font-size="10.00">ImDrawCmdHeader</text>
</a>
</g>
</g>
<!-- Node8&#45;&gt;Node29 -->
<g id="edge46" class="edge">
<title>Node8&#45;&gt;Node29</title>
<path fill="none" stroke="#9a32cd" stroke-dasharray="5,2" d="M80.46,-346.21C107.91,-346.11 146.88,-346.27 181,-347.5 238.03,-349.55 303.38,-354.08 347.23,-357.43"/>
<polygon fill="#9a32cd" stroke="#9a32cd" points="80.58,-342.71 70.6,-346.25 80.62,-349.71 80.58,-342.71"/>
<text text-anchor="middle" x="143.5" y="-350.5" font-family="Helvetica,sans-Serif" font-size="10.00"> ClipRect</text>
</g>
<!-- Node9&#45;&gt;Node7 -->
<g id="edge8" class="edge">
<title>Node9&#45;&gt;Node7</title>
<path fill="none" stroke="#9a32cd" stroke-dasharray="5,2" d="M1039.77,-510.67C1055.23,-506.42 1072.81,-501.91 1089,-498.5 1123.5,-491.24 1163.38,-485.41 1191.18,-481.76"/>
<polygon fill="#9a32cd" stroke="#9a32cd" points="1039.07,-507.23 1030.39,-513.29 1040.96,-513.97 1039.07,-507.23"/>
<text text-anchor="middle" x="1119.5" y="-501.5" font-family="Helvetica,sans-Serif" font-size="10.00"> UserCallback</text>
</g>
<!-- Node10 -->
<g id="node10" class="node">
<title>Node10</title>
<g id="a_node10"><a xlink:href="struct_im_vector.html" target="_top" xlink:title=" ">
<polygon fill="white" stroke="#bfbfbf" points="805.5,-475 686.5,-475 686.5,-456 805.5,-456 805.5,-475"/>
<text text-anchor="middle" x="746" y="-463" font-family="Helvetica,sans-Serif" font-size="10.00">ImVector&lt; ImDrawIdx &gt;</text>
</a>
</g>
</g>
<!-- Node10&#45;&gt;Node5 -->
<g id="edge48" class="edge">
<title>Node10&#45;&gt;Node5</title>
<path fill="none" stroke="#9a32cd" stroke-dasharray="5,2" d="M780.44,-451.29C827.29,-432.71 915.54,-402.5 994,-402.5 994,-402.5 994,-402.5 1410,-402.5 1486.21,-402.5 1564.79,-460.29 1593.57,-483.76"/>
<polygon fill="#9a32cd" stroke="#9a32cd" points="779.36,-447.96 771.4,-454.95 781.98,-454.45 779.36,-447.96"/>
<text text-anchor="middle" x="1227" y="-405.5" font-family="Helvetica,sans-Serif" font-size="10.00"> _IdxBuffer</text>
</g>
<!-- Node10&#45;&gt;Node9 -->
<g id="edge10" class="edge">
<title>Node10&#45;&gt;Node9</title>
<path fill="none" stroke="#9a32cd" stroke-dasharray="5,2" d="M816.94,-476.9C843.42,-481.68 873.74,-487.71 901,-494.5 922.83,-499.94 947.08,-507.55 965.34,-513.62"/>
<polygon fill="#9a32cd" stroke="#9a32cd" points="817.8,-473.5 807.34,-475.19 816.57,-480.39 817.8,-473.5"/>
<text text-anchor="middle" x="864" y="-497.5" font-family="Helvetica,sans-Serif" font-size="10.00"> IdxBuffer</text>
</g>
<!-- Node11 -->
<g id="node11" class="node">
<title>Node11</title>
<g id="a_node11"><a xlink:href="struct_im_vector.html" target="_top" xlink:title=" ">
<polygon fill="white" stroke="#bfbfbf" points="808.5,-681 683.5,-681 683.5,-662 808.5,-662 808.5,-681"/>
<text text-anchor="middle" x="746" y="-669" font-family="Helvetica,sans-Serif" font-size="10.00">ImVector&lt; ImDrawVert &gt;</text>
</a>
</g>
</g>
<!-- Node11&#45;&gt;Node9 -->
<g id="edge11" class="edge">
<title>Node11&#45;&gt;Node9</title>
<path fill="none" stroke="#9a32cd" stroke-dasharray="5,2" d="M820.13,-670.87C847.11,-667.85 876.94,-660.99 901,-646.5 947.78,-618.32 979.06,-556.95 989.84,-533.18"/>
<polygon fill="#9a32cd" stroke="#9a32cd" points="819.89,-667.38 810.27,-671.8 820.55,-674.35 819.89,-667.38"/>
<text text-anchor="middle" x="864" y="-672.5" font-family="Helvetica,sans-Serif" font-size="10.00"> VtxBuffer</text>
</g>
<!-- Node12&#45;&gt;Node9 -->
<g id="edge40" class="edge">
<title>Node12&#45;&gt;Node9</title>
<path fill="none" stroke="#9a32cd" stroke-dasharray="5,2" d="M569.27,-630.09C641.12,-625.12 785.81,-610.49 901,-569.5 928.66,-559.66 958.8,-543.7 977.05,-533.4"/>
<polygon fill="#9a32cd" stroke="#9a32cd" points="569.22,-626.59 559.47,-630.74 569.68,-633.57 569.22,-626.59"/>
<text text-anchor="middle" x="746" y="-621.5" font-family="Helvetica,sans-Serif" font-size="10.00"> _VtxWritePtr</text>
</g>
<!-- Node12&#45;&gt;Node11 -->
<g id="edge12" class="edge">
<title>Node12&#45;&gt;Node11</title>
<path fill="none" stroke="#9a32cd" stroke-dasharray="5,2" d="M568.9,-641.53C577.55,-643.23 586.55,-644.96 595,-646.5 623.96,-651.79 656.15,-657.21 683.26,-661.65"/>
<polygon fill="#9a32cd" stroke="#9a32cd" points="569.79,-638.14 559.3,-639.63 568.42,-645.01 569.79,-638.14"/>
<text text-anchor="middle" x="630" y="-661.5" font-family="Helvetica,sans-Serif" font-size="10.00"> Data</text>
</g>
<!-- Node13&#45;&gt;Node9 -->
<g id="edge14" class="edge">
<title>Node13&#45;&gt;Node9</title>
<path fill="none" stroke="#9a32cd" stroke-dasharray="5,2" d="M816.65,-534.99C863.99,-531.92 924.47,-528 961.17,-525.63"/>
<polygon fill="#9a32cd" stroke="#9a32cd" points="816.49,-531.49 806.73,-535.63 816.94,-538.48 816.49,-531.49"/>
<text text-anchor="middle" x="864" y="-537.5" font-family="Helvetica,sans-Serif" font-size="10.00"> _Data</text>
</g>
<!-- Node14 -->
<g id="node14" class="node">
<title>Node14</title>
<g id="a_node14"><a xlink:href="struct_im_font.html" target="_top" xlink:title=" ">
<polygon fill="white" stroke="#bfbfbf" points="547,-126 500,-126 500,-107 547,-107 547,-126"/>
<text text-anchor="middle" x="523.5" y="-114" font-family="Helvetica,sans-Serif" font-size="10.00">ImFont</text>
</a>
</g>
</g>
<!-- Node14&#45;&gt;Node13 -->
<g id="edge16" class="edge">
<title>Node14&#45;&gt;Node13</title>
<path fill="none" stroke="#9a32cd" stroke-dasharray="5,2" d="M549.31,-133C559.61,-141.21 570.63,-152.04 577,-164.5 608.76,-226.65 550.89,-266.41 595,-320.5 615.7,-345.88 644.48,-317.98 665,-343.5 714.56,-405.12 632.83,-459.38 683,-520.5 686,-524.15 689.68,-527.12 693.75,-529.53"/>
<polygon fill="#9a32cd" stroke="#9a32cd" points="551.53,-130.29 541.42,-127.13 547.36,-135.91 551.53,-130.29"/>
<text text-anchor="middle" x="630" y="-346.5" font-family="Helvetica,sans-Serif" font-size="10.00"> Font</text>
</g>
<!-- Node20 -->
<g id="node20" class="node">
<title>Node20</title>
<g id="a_node20"><a xlink:href="struct_im_vector.html" target="_top" xlink:title=" ">
<polygon fill="white" stroke="#bfbfbf" points="801,-145 691,-145 691,-126 801,-126 801,-145"/>
<text text-anchor="middle" x="746" y="-133" font-family="Helvetica,sans-Serif" font-size="10.00">ImVector&lt; ImFont * &gt;</text>
</a>
</g>
</g>
<!-- Node14&#45;&gt;Node20 -->
<g id="edge25" class="edge">
<title>Node14&#45;&gt;Node20</title>
<path fill="none" stroke="#9a32cd" stroke-dasharray="5,2" d="M558.73,-118.97C587.19,-121.08 628.75,-124.27 665,-127.5 673.34,-128.24 682.17,-129.08 690.79,-129.92"/>
<polygon fill="#9a32cd" stroke="#9a32cd" points="559.13,-115.49 548.9,-118.25 558.61,-122.47 559.13,-115.49"/>
<text text-anchor="middle" x="630" y="-130.5" font-family="Helvetica,sans-Serif" font-size="10.00"> Data</text>
</g>
<!-- Node14&#45;&gt;Node22 -->
<g id="edge29" class="edge">
<title>Node14&#45;&gt;Node22</title>
<path fill="none" stroke="#9a32cd" stroke-dasharray="5,2" d="M557.74,-129.48C587.94,-142.37 632.6,-164.27 665,-192.5 699.86,-222.88 728.44,-271.05 739.77,-291.64"/>
<polygon fill="#9a32cd" stroke="#9a32cd" points="559.29,-126.33 548.71,-125.72 556.6,-132.79 559.29,-126.33"/>
<text text-anchor="middle" x="630" y="-195.5" font-family="Helvetica,sans-Serif" font-size="10.00"> Font</text>
</g>
<!-- Node14&#45;&gt;Node24 -->
<g id="edge33" class="edge">
<title>Node14&#45;&gt;Node24</title>
<path fill="none" stroke="#9a32cd" stroke-dasharray="5,2" d="M558.45,-111.42C599.08,-105.34 666.82,-95.2 708.53,-88.96"/>
<polygon fill="#9a32cd" stroke="#9a32cd" points="558.14,-107.93 548.76,-112.87 559.17,-114.85 558.14,-107.93"/>
<text text-anchor="middle" x="630" y="-109.5" font-family="Helvetica,sans-Serif" font-size="10.00"> DstFont</text>
</g>
<!-- Node15 -->
<g id="node15" class="node">
<title>Node15</title>
<g id="a_node15"><a xlink:href="struct_im_vector.html" target="_top" xlink:title=" ">
<polygon fill="white" stroke="#bfbfbf" points="308.5,-153 217.5,-153 217.5,-134 308.5,-134 308.5,-153"/>
<text text-anchor="middle" x="263" y="-141" font-family="Helvetica,sans-Serif" font-size="10.00">ImVector&lt; float &gt;</text>
</a>
</g>
</g>
<!-- Node15&#45;&gt;Node14 -->
<g id="edge17" class="edge">
<title>Node15&#45;&gt;Node14</title>
<path fill="none" stroke="#9a32cd" stroke-dasharray="5,2" d="M319.9,-137.66C375.94,-131.81 459.48,-123.08 499.5,-118.9"/>
<polygon fill="#9a32cd" stroke="#9a32cd" points="319.82,-134.15 310.24,-138.67 320.55,-141.11 319.82,-134.15"/>
<text text-anchor="middle" x="398.5" y="-138.5" font-family="Helvetica,sans-Serif" font-size="10.00"> IndexAdvanceX</text>
</g>
<!-- Node16 -->
<g id="node16" class="node">
<title>Node16</title>
<g id="a_node16"><a xlink:href="struct_im_vector.html" target="_top" xlink:title=" ">
<polygon fill="white" stroke="#bfbfbf" points="319,-116 207,-116 207,-97 319,-97 319,-116"/>
<text text-anchor="middle" x="263" y="-104" font-family="Helvetica,sans-Serif" font-size="10.00">ImVector&lt; ImWchar &gt;</text>
</a>
</g>
</g>
<!-- Node16&#45;&gt;Node14 -->
<g id="edge18" class="edge">
<title>Node16&#45;&gt;Node14</title>
<path fill="none" stroke="#9a32cd" stroke-dasharray="5,2" d="M330.52,-104.89C366.52,-104.51 411.74,-104.83 452,-107.5 468.01,-108.56 485.94,-110.86 499.71,-112.88"/>
<polygon fill="#9a32cd" stroke="#9a32cd" points="330.65,-101.38 320.69,-105.01 330.74,-108.38 330.65,-101.38"/>
<text text-anchor="middle" x="398.5" y="-110.5" font-family="Helvetica,sans-Serif" font-size="10.00"> IndexLookup</text>
</g>
<!-- Node17 -->
<g id="node17" class="node">
<title>Node17</title>
<g id="a_node17"><a xlink:href="struct_im_vector.html" target="_top" xlink:title=" ">
<polygon fill="white" stroke="#bfbfbf" points="327,-79 199,-79 199,-60 327,-60 327,-79"/>
<text text-anchor="middle" x="263" y="-67" font-family="Helvetica,sans-Serif" font-size="10.00">ImVector&lt; ImFontGlyph &gt;</text>
</a>
</g>
</g>
<!-- Node17&#45;&gt;Node14 -->
<g id="edge19" class="edge">
<title>Node17&#45;&gt;Node14</title>
<path fill="none" stroke="#9a32cd" stroke-dasharray="5,2" d="M338.37,-73.64C373.21,-76.64 415.09,-81.77 452,-90.5 468.38,-94.37 486.15,-100.95 499.75,-106.51"/>
<polygon fill="#9a32cd" stroke="#9a32cd" points="339.08,-70.19 328.83,-72.87 338.51,-77.17 339.08,-70.19"/>
<text text-anchor="middle" x="398.5" y="-93.5" font-family="Helvetica,sans-Serif" font-size="10.00"> Glyphs</text>
</g>
<!-- Node18 -->
<g id="node18" class="node">
<title>Node18</title>
<g id="a_node18"><a xlink:href="struct_im_font_glyph.html" target="_top" xlink:title=" ">
<polygon fill="white" stroke="#bfbfbf" points="80,-19 8,-19 8,0 80,0 80,-19"/>
<text text-anchor="middle" x="44" y="-7" font-family="Helvetica,sans-Serif" font-size="10.00">ImFontGlyph</text>
</a>
</g>
</g>
<!-- Node18&#45;&gt;Node14 -->
<g id="edge21" class="edge">
<title>Node18&#45;&gt;Node14</title>
<path fill="none" stroke="#9a32cd" stroke-dasharray="5,2" d="M91.78,-8.79C169.77,-9.25 329.87,-17.33 452,-70.5 473.98,-80.07 496.73,-96.25 510.24,-106.65"/>
<polygon fill="#9a32cd" stroke="#9a32cd" points="91.95,-5.29 81.95,-8.77 91.94,-12.29 91.95,-5.29"/>
<text text-anchor="middle" x="263" y="-35.5" font-family="Helvetica,sans-Serif" font-size="10.00"> FallbackGlyph</text>
</g>
<!-- Node18&#45;&gt;Node17 -->
<g id="edge20" class="edge">
<title>Node18&#45;&gt;Node17</title>
<path fill="none" stroke="#9a32cd" stroke-dasharray="5,2" d="M91.21,-22.28C131.46,-33.41 189.01,-49.32 225.94,-59.53"/>
<polygon fill="#9a32cd" stroke="#9a32cd" points="92.38,-18.97 81.81,-19.68 90.51,-25.72 92.38,-18.97"/>
<text text-anchor="middle" x="143.5" y="-50.5" font-family="Helvetica,sans-Serif" font-size="10.00"> Data</text>
</g>
<!-- Node19&#45;&gt;Node14 -->
<g id="edge22" class="edge">
<title>Node19&#45;&gt;Node14</title>
<path fill="none" stroke="#9a32cd" stroke-dasharray="5,2" d="M281.66,-220.38C297.15,-206.3 320.91,-186.88 345,-175.5 389.16,-154.64 405.95,-166.76 452,-150.5 470.58,-143.94 490.73,-133.9 504.71,-126.43"/>
<polygon fill="#9a32cd" stroke="#9a32cd" points="279.58,-217.54 274.66,-226.92 284.36,-222.65 279.58,-217.54"/>
<text text-anchor="middle" x="398.5" y="-178.5" font-family="Helvetica,sans-Serif" font-size="10.00"> ContainerAtlas</text>
</g>
<!-- Node20&#45;&gt;Node19 -->
<g id="edge24" class="edge">
<title>Node20&#45;&gt;Node19</title>
<path fill="none" stroke="#9a32cd" stroke-dasharray="5,2" d="M717.34,-150.82C702.29,-158.5 683.1,-167.26 665,-172.5 527.22,-212.4 485.48,-185.5 345,-214.5 328.25,-217.96 309.89,-223.06 294.89,-227.58"/>
<polygon fill="#9a32cd" stroke="#9a32cd" points="718.93,-153.94 726.15,-146.19 715.67,-147.75 718.93,-153.94"/>
<text text-anchor="middle" x="523.5" y="-202.5" font-family="Helvetica,sans-Serif" font-size="10.00"> Fonts</text>
</g>
<!-- Node21 -->
<g id="node21" class="node">
<title>Node21</title>
<g id="a_node21"><a xlink:href="struct_im_vector.html" target="_top" xlink:title=" ">
<polygon fill="white" stroke="#bfbfbf" points="1071,-296.5 919,-296.5 919,-266.5 1071,-266.5 1071,-296.5"/>
<text text-anchor="start" x="927" y="-284.5" font-family="Helvetica,sans-Serif" font-size="10.00">ImVector&lt; ImFontAtlasCustom</text>
<text text-anchor="middle" x="995" y="-273.5" font-family="Helvetica,sans-Serif" font-size="10.00">Rect &gt;</text>
</a>
</g>
</g>
<!-- Node21&#45;&gt;Node19 -->
<g id="edge26" class="edge">
<title>Node21&#45;&gt;Node19</title>
<path fill="none" stroke="#9a32cd" stroke-dasharray="5,2" d="M907.47,-276.28C746.36,-266.57 406.9,-246.11 298.23,-239.56"/>
<polygon fill="#9a32cd" stroke="#9a32cd" points="907.05,-279.77 917.24,-276.87 907.47,-272.78 907.05,-279.77"/>
<text text-anchor="middle" x="630" y="-265.5" font-family="Helvetica,sans-Serif" font-size="10.00"> CustomRects</text>
</g>
<!-- Node22&#45;&gt;Node21 -->
<g id="edge27" class="edge">
<title>Node22&#45;&gt;Node21</title>
<path fill="none" stroke="#9a32cd" stroke-dasharray="5,2" d="M819.62,-295.62C850.84,-293.09 887.32,-290.14 918.82,-287.59"/>
<polygon fill="#9a32cd" stroke="#9a32cd" points="819.57,-292.11 809.88,-296.41 820.13,-299.09 819.57,-292.11"/>
<text text-anchor="middle" x="864" y="-297.5" font-family="Helvetica,sans-Serif" font-size="10.00"> Data</text>
</g>
<!-- Node23 -->
<g id="node23" class="node">
<title>Node23</title>
<g id="a_node23"><a xlink:href="struct_im_vector.html" target="_top" xlink:title=" ">
<polygon fill="white" stroke="#bfbfbf" points="1060.5,-195 929.5,-195 929.5,-176 1060.5,-176 1060.5,-195"/>
<text text-anchor="middle" x="995" y="-183" font-family="Helvetica,sans-Serif" font-size="10.00">ImVector&lt; ImFontConfig &gt;</text>
</a>
</g>
</g>
<!-- Node23&#45;&gt;Node19 -->
<g id="edge30" class="edge">
<title>Node23&#45;&gt;Node19</title>
<path fill="none" stroke="#9a32cd" stroke-dasharray="5,2" d="M917.74,-190.93C761.25,-202.08 409.26,-227.15 298.23,-235.06"/>
<polygon fill="#9a32cd" stroke="#9a32cd" points="917.87,-194.43 927.6,-190.23 917.38,-187.45 917.87,-194.43"/>
<text text-anchor="middle" x="630" y="-217.5" font-family="Helvetica,sans-Serif" font-size="10.00"> ConfigData</text>
</g>
<!-- Node24&#45;&gt;Node14 -->
<g id="edge36" class="edge">
<title>Node24&#45;&gt;Node14</title>
<path fill="none" stroke="#9a32cd" stroke-dasharray="5,2" d="M697.36,-77.05C667.55,-74.43 628.58,-73.62 595,-81.5 574.51,-86.31 553.16,-98 539.4,-106.55"/>
<polygon fill="#9a32cd" stroke="#9a32cd" points="696.91,-80.52 707.2,-78.02 697.59,-73.55 696.91,-80.52"/>
<text text-anchor="middle" x="630" y="-84.5" font-family="Helvetica,sans-Serif" font-size="10.00"> ConfigData</text>
</g>
<!-- Node24&#45;&gt;Node23 -->
<g id="edge31" class="edge">
<title>Node24&#45;&gt;Node23</title>
<path fill="none" stroke="#9a32cd" stroke-dasharray="5,2" d="M781.61,-97.79C832.5,-118.81 926.23,-157.51 970.13,-175.64"/>
<polygon fill="#9a32cd" stroke="#9a32cd" points="783.11,-94.63 772.53,-94.04 780.44,-101.1 783.11,-94.63"/>
<text text-anchor="middle" x="864" y="-150.5" font-family="Helvetica,sans-Serif" font-size="10.00"> Data</text>
</g>
<!-- Node25 -->
<g id="node25" class="node">
<title>Node25</title>
<g id="a_node25"><a xlink:href="struct_im_font_builder_i_o.html" target="_top" xlink:title=" ">
<polygon fill="white" stroke="#bfbfbf" points="88,-247 0,-247 0,-228 88,-228 88,-247"/>
<text text-anchor="middle" x="44" y="-235" font-family="Helvetica,sans-Serif" font-size="10.00">ImFontBuilderIO</text>
</a>
</g>
</g>
<!-- Node25&#45;&gt;Node19 -->
<g id="edge35" class="edge">
<title>Node25&#45;&gt;Node19</title>
<path fill="none" stroke="#9a32cd" stroke-dasharray="5,2" d="M99.87,-237.5C140.03,-237.5 193.28,-237.5 227.6,-237.5"/>
<polygon fill="#9a32cd" stroke="#9a32cd" points="99.91,-234 89.91,-237.5 99.91,-241 99.91,-234"/>
<text text-anchor="middle" x="143.5" y="-240.5" font-family="Helvetica,sans-Serif" font-size="10.00"> FontBuilderIO</text>
</g>
<!-- Node26&#45;&gt;Node9 -->
<g id="edge44" class="edge">
<title>Node26&#45;&gt;Node9</title>
<path fill="none" stroke="#9a32cd" stroke-dasharray="5,2" d="M588.52,-579.3C663.88,-576.96 792.51,-570.03 901,-549.5 922.25,-545.48 945.7,-538.91 963.73,-533.38"/>
<polygon fill="#9a32cd" stroke="#9a32cd" points="588.75,-575.8 578.86,-579.59 588.96,-582.79 588.75,-575.8"/>
<text text-anchor="middle" x="746" y="-578.5" font-family="Helvetica,sans-Serif" font-size="10.00"> _Path</text>
</g>
<!-- Node26&#45;&gt;Node13 -->
<g id="edge38" class="edge">
<title>Node26&#45;&gt;Node13</title>
<path fill="none" stroke="#9a32cd" stroke-dasharray="5,2" d="M571.7,-567.77C579.46,-565.87 587.43,-564.04 595,-562.5 625.07,-556.37 658.84,-551.06 686.71,-547.09"/>
<polygon fill="#9a32cd" stroke="#9a32cd" points="570.88,-564.37 562.04,-570.2 572.59,-571.16 570.88,-564.37"/>
<text text-anchor="middle" x="630" y="-565.5" font-family="Helvetica,sans-Serif" font-size="10.00"> TempBuffer</text>
</g>
<!-- Node27&#45;&gt;Node9 -->
<g id="edge41" class="edge">
<title>Node27&#45;&gt;Node9</title>
<path fill="none" stroke="#9a32cd" stroke-dasharray="5,2" d="M463.78,-406.79C561.87,-406.41 753.11,-414.55 901,-475.5 928.38,-486.78 958.6,-503.16 976.94,-513.57"/>
<polygon fill="#9a32cd" stroke="#9a32cd" points="463.77,-403.29 453.8,-406.86 463.82,-410.29 463.77,-403.29"/>
<text text-anchor="middle" x="630" y="-421.5" font-family="Helvetica,sans-Serif" font-size="10.00"> _ClipRectStack</text>
</g>
<!-- Node28 -->
<g id="node28" class="node">
<title>Node28</title>
<g id="a_node28"><a xlink:href="struct_im_vector.html" target="_top" xlink:title=" ">
<polygon fill="white" stroke="#bfbfbf" points="809,-512 683,-512 683,-493 809,-493 809,-512"/>
<text text-anchor="middle" x="746" y="-500" font-family="Helvetica,sans-Serif" font-size="10.00">ImVector&lt; ImTextureID &gt;</text>
</a>
</g>
</g>
<!-- Node28&#45;&gt;Node9 -->
<g id="edge43" class="edge">
<title>Node28&#45;&gt;Node9</title>
<path fill="none" stroke="#9a32cd" stroke-dasharray="5,2" d="M820.64,-508.69C846.1,-510.84 874.8,-513.27 901,-515.5 921.02,-517.21 943.47,-519.14 961.29,-520.67"/>
<polygon fill="#9a32cd" stroke="#9a32cd" points="820.96,-505.21 810.7,-507.85 820.37,-512.18 820.96,-505.21"/>
<text text-anchor="middle" x="864" y="-518.5" font-family="Helvetica,sans-Serif" font-size="10.00"> _TextureIdStack</text>
</g>
<!-- Node29&#45;&gt;Node9 -->
<g id="edge45" class="edge">
<title>Node29&#45;&gt;Node9</title>
<path fill="none" stroke="#9a32cd" stroke-dasharray="5,2" d="M461.24,-359.59C560.23,-359.15 757.84,-369.26 901,-447.5 935.03,-466.1 968.71,-497.79 984.58,-513.73"/>
<polygon fill="#9a32cd" stroke="#9a32cd" points="461.44,-356.09 451.47,-359.67 461.5,-363.09 461.44,-356.09"/>
<text text-anchor="middle" x="630" y="-377.5" font-family="Helvetica,sans-Serif" font-size="10.00"> _CmdHeader</text>
</g>
<!-- Node30&#45;&gt;Node1 -->
<g id="edge49" class="edge">
<title>Node30&#45;&gt;Node1</title>
<path fill="none" stroke="#9a32cd" stroke-dasharray="5,2" d="M665.61,-702.68C710.93,-705.34 792.88,-709.5 863,-709.5 863,-709.5 863,-709.5 1985,-709.5 2065.52,-709.5 2158.22,-689.18 2208.29,-676.47"/>
<polygon fill="#9a32cd" stroke="#9a32cd" points="666.07,-699.2 655.88,-702.1 665.65,-706.19 666.07,-699.2"/>
<text text-anchor="middle" x="1409" y="-723.5" font-family="Helvetica,sans-Serif" font-size="10.00"> HostBackupParentWorkRect</text>
<text text-anchor="middle" x="1409" y="-712.5" font-family="Helvetica,sans-Serif" font-size="10.00">HostBackupWorkRect</text>
</g>
<!-- Node31 -->
<g id="node31" class="node">
<title>Node31</title>
<g id="a_node31"><a xlink:href="struct_im_vec1.html" target="_top" xlink:title=" ">
<polygon fill="white" stroke="#bfbfbf" points="2009,-596 1959,-596 1959,-577 2009,-577 2009,-596"/>
<text text-anchor="middle" x="1984" y="-584" font-family="Helvetica,sans-Serif" font-size="10.00">ImVec1</text>
</a>
</g>
</g>
<!-- Node31&#45;&gt;Node1 -->
<g id="edge51" class="edge">
<title>Node31&#45;&gt;Node1</title>
<path fill="none" stroke="#9a32cd" stroke-dasharray="5,2" d="M2020.78,-588.94C2059.25,-592.48 2121.67,-600.92 2172,-620.5 2195.03,-629.46 2218.7,-645.98 2232.62,-656.59"/>
<polygon fill="#9a32cd" stroke="#9a32cd" points="2021.18,-585.46 2010.92,-588.1 2020.59,-592.43 2021.18,-585.46"/>
<text text-anchor="middle" x="2111.5" y="-623.5" font-family="Helvetica,sans-Serif" font-size="10.00"> HostBackupColumnsOffset</text>
</g>
</g>
</svg>
