<?xml version="1.0" encoding="UTF-8" standalone="no"?>
<!DOCTYPE svg PUBLIC "-//W3C//DTD SVG 1.1//EN"
 "http://www.w3.org/Graphics/SVG/1.1/DTD/svg11.dtd">
<!-- Generated by graphviz version 7.0.5 (20221223.1930)
 -->
<!-- Title: ImFont Pages: 1 -->
<svg width="1136pt" height="290pt"
 viewBox="0.00 0.00 1136.00 290.30" xmlns="http://www.w3.org/2000/svg" xmlns:xlink="http://www.w3.org/1999/xlink">
<g id="graph0" class="graph" transform="scale(1 1) rotate(0) translate(4 286.3)">
<title>ImFont</title>
<!-- Node1 -->
<g id="node1" class="node">
<title>Node1</title>
<g id="a_node1"><a xlink:title=" ">
<polygon fill="#999999" stroke="#666666" points="414.5,-103.8 367.5,-103.8 367.5,-84.8 414.5,-84.8 414.5,-103.8"/>
<text text-anchor="middle" x="391" y="-91.8" font-family="Helvetica,sans-Serif" font-size="10.00">ImFont</text>
</a>
</g>
</g>
<!-- Node8 -->
<g id="node8" class="node">
<title>Node8</title>
<g id="a_node8"><a xlink:href="struct_im_vector.html" target="_top" xlink:title=" ">
<polygon fill="white" stroke="#bfbfbf" points="789,-71.8 679,-71.8 679,-52.8 789,-52.8 789,-71.8"/>
<text text-anchor="middle" x="734" y="-59.8" font-family="Helvetica,sans-Serif" font-size="10.00">ImVector&lt; ImFont * &gt;</text>
</a>
</g>
</g>
<!-- Node1&#45;&gt;Node8 -->
<g id="edge9" class="edge">
<title>Node1&#45;&gt;Node8</title>
<path fill="none" stroke="#9a32cd" stroke-dasharray="5,2" d="M416.77,-79.01C422.26,-76.29 428.18,-73.83 434,-72.3 517.24,-50.33 618.03,-52.62 678.75,-56.96"/>
<polygon fill="#9a32cd" stroke="#9a32cd" points="415.31,-75.81 408.21,-83.68 418.66,-81.96 415.31,-75.81"/>
<text text-anchor="middle" x="476.5" y="-75.3" font-family="Helvetica,sans-Serif" font-size="10.00"> Data</text>
</g>
<!-- Node10 -->
<g id="node10" class="node">
<title>Node10</title>
<g id="a_node10"><a xlink:href="struct_im_font_atlas_custom_rect.html" target="_top" xlink:title=" ">
<polygon fill="white" stroke="#bfbfbf" points="661,-229.8 537,-229.8 537,-210.8 661,-210.8 661,-229.8"/>
<text text-anchor="middle" x="599" y="-217.8" font-family="Helvetica,sans-Serif" font-size="10.00">ImFontAtlasCustomRect</text>
</a>
</g>
</g>
<!-- Node1&#45;&gt;Node10 -->
<g id="edge13" class="edge">
<title>Node1&#45;&gt;Node10</title>
<path fill="none" stroke="#9a32cd" stroke-dasharray="5,2" d="M405.32,-112.96C412.78,-122.15 422.82,-132.65 434,-139.3 467.54,-159.24 483.82,-144.42 519,-161.3 546.16,-174.33 573.32,-197.33 587.64,-210.43"/>
<polygon fill="#9a32cd" stroke="#9a32cd" points="408.31,-111.11 399.46,-105.29 402.74,-115.36 408.31,-111.11"/>
<text text-anchor="middle" x="476.5" y="-164.3" font-family="Helvetica,sans-Serif" font-size="10.00"> Font</text>
</g>
<!-- Node12 -->
<g id="node12" class="node">
<title>Node12</title>
<g id="a_node12"><a xlink:href="struct_im_font_config.html" target="_top" xlink:title=" ">
<polygon fill="white" stroke="#bfbfbf" points="636,-149.8 562,-149.8 562,-130.8 636,-130.8 636,-149.8"/>
<text text-anchor="middle" x="599" y="-137.8" font-family="Helvetica,sans-Serif" font-size="10.00">ImFontConfig</text>
</a>
</g>
</g>
<!-- Node1&#45;&gt;Node12 -->
<g id="edge17" class="edge">
<title>Node1&#45;&gt;Node12</title>
<path fill="none" stroke="#9a32cd" stroke-dasharray="5,2" d="M425.5,-104.11C428.37,-104.87 431.23,-105.61 434,-106.3 477.62,-117.03 528.33,-127.2 561.67,-133.56"/>
<polygon fill="#9a32cd" stroke="#9a32cd" points="426.62,-100.79 416.05,-101.49 424.75,-107.53 426.62,-100.79"/>
<text text-anchor="middle" x="476.5" y="-127.3" font-family="Helvetica,sans-Serif" font-size="10.00"> DstFont</text>
</g>
<!-- Node2 -->
<g id="node2" class="node">
<title>Node2</title>
<g id="a_node2"><a xlink:href="struct_im_vector.html" target="_top" xlink:title=" ">
<polygon fill="white" stroke="#bfbfbf" points="240.5,-160.8 149.5,-160.8 149.5,-141.8 240.5,-141.8 240.5,-160.8"/>
<text text-anchor="middle" x="195" y="-148.8" font-family="Helvetica,sans-Serif" font-size="10.00">ImVector&lt; float &gt;</text>
</a>
</g>
</g>
<!-- Node2&#45;&gt;Node1 -->
<g id="edge1" class="edge">
<title>Node2&#45;&gt;Node1</title>
<path fill="none" stroke="#9a32cd" stroke-dasharray="5,2" d="M252.04,-144.7C281.35,-140.06 317.39,-132.44 348,-120.3 358.2,-116.25 368.7,-109.75 376.65,-104.26"/>
<polygon fill="#9a32cd" stroke="#9a32cd" points="251.62,-141.22 242.25,-146.17 252.66,-148.15 251.62,-141.22"/>
<text text-anchor="middle" x="312.5" y="-142.3" font-family="Helvetica,sans-Serif" font-size="10.00"> IndexAdvanceX</text>
</g>
<!-- Node3 -->
<g id="node3" class="node">
<title>Node3</title>
<g id="a_node3"><a xlink:href="struct_im_vector.html" target="_top" xlink:title=" ">
<polygon fill="white" stroke="#bfbfbf" points="251,-123.8 139,-123.8 139,-104.8 251,-104.8 251,-123.8"/>
<text text-anchor="middle" x="195" y="-111.8" font-family="Helvetica,sans-Serif" font-size="10.00">ImVector&lt; ImWchar &gt;</text>
</a>
</g>
</g>
<!-- Node3&#45;&gt;Node1 -->
<g id="edge2" class="edge">
<title>Node3&#45;&gt;Node1</title>
<path fill="none" stroke="#9a32cd" stroke-dasharray="5,2" d="M262.43,-107.45C298.93,-103.69 341.86,-99.26 367.45,-96.62"/>
<polygon fill="#9a32cd" stroke="#9a32cd" points="262.43,-103.93 252.84,-108.44 263.14,-110.89 262.43,-103.93"/>
<text text-anchor="middle" x="312.5" y="-108.3" font-family="Helvetica,sans-Serif" font-size="10.00"> IndexLookup</text>
</g>
<!-- Node4 -->
<g id="node4" class="node">
<title>Node4</title>
<g id="a_node4"><a xlink:href="struct_im_vector.html" target="_top" xlink:title=" ">
<polygon fill="white" stroke="#bfbfbf" points="259,-38.8 131,-38.8 131,-19.8 259,-19.8 259,-38.8"/>
<text text-anchor="middle" x="195" y="-26.8" font-family="Helvetica,sans-Serif" font-size="10.00">ImVector&lt; ImFontGlyph &gt;</text>
</a>
</g>
</g>
<!-- Node4&#45;&gt;Node1 -->
<g id="edge3" class="edge">
<title>Node4&#45;&gt;Node1</title>
<path fill="none" stroke="#9a32cd" stroke-dasharray="5,2" d="M270.66,-29.72C296.3,-32.38 324.45,-38.25 348,-50.3 363.42,-58.19 376.32,-74.02 383.6,-84.39"/>
<polygon fill="#9a32cd" stroke="#9a32cd" points="271.24,-26.26 260.97,-28.88 270.63,-33.23 271.24,-26.26"/>
<text text-anchor="middle" x="312.5" y="-53.3" font-family="Helvetica,sans-Serif" font-size="10.00"> Glyphs</text>
</g>
<!-- Node5 -->
<g id="node5" class="node">
<title>Node5</title>
<g id="a_node5"><a xlink:href="struct_im_font_glyph.html" target="_top" xlink:title=" ">
<polygon fill="white" stroke="#bfbfbf" points="72,-61.8 0,-61.8 0,-42.8 72,-42.8 72,-61.8"/>
<text text-anchor="middle" x="36" y="-49.8" font-family="Helvetica,sans-Serif" font-size="10.00">ImFontGlyph</text>
</a>
</g>
</g>
<!-- Node5&#45;&gt;Node1 -->
<g id="edge5" class="edge">
<title>Node5&#45;&gt;Node1</title>
<path fill="none" stroke="#9a32cd" stroke-dasharray="5,2" d="M83.73,-58.51C85.85,-58.78 87.95,-59.04 90,-59.3 193.29,-72.14 316.77,-86.11 367.03,-91.74"/>
<polygon fill="#9a32cd" stroke="#9a32cd" points="84.21,-55.04 73.84,-57.23 83.31,-61.98 84.21,-55.04"/>
<text text-anchor="middle" x="195" y="-82.3" font-family="Helvetica,sans-Serif" font-size="10.00"> FallbackGlyph</text>
</g>
<!-- Node5&#45;&gt;Node4 -->
<g id="edge4" class="edge">
<title>Node5&#45;&gt;Node4</title>
<path fill="none" stroke="#9a32cd" stroke-dasharray="5,2" d="M83.21,-45.53C98.11,-43.34 114.89,-40.89 130.79,-38.56"/>
<polygon fill="#9a32cd" stroke="#9a32cd" points="83.12,-42 73.73,-46.92 84.13,-48.93 83.12,-42"/>
<text text-anchor="middle" x="101.5" y="-47.3" font-family="Helvetica,sans-Serif" font-size="10.00"> Data</text>
</g>
<!-- Node6 -->
<g id="node6" class="node">
<title>Node6</title>
<g id="a_node6"><a xlink:href="struct_im_font_atlas.html" target="_top" xlink:title=" ">
<polygon fill="white" stroke="#bfbfbf" points="1128,-149.8 1058,-149.8 1058,-130.8 1128,-130.8 1128,-149.8"/>
<text text-anchor="middle" x="1093" y="-137.8" font-family="Helvetica,sans-Serif" font-size="10.00">ImFontAtlas</text>
</a>
</g>
</g>
<!-- Node6&#45;&gt;Node1 -->
<g id="edge6" class="edge">
<title>Node6&#45;&gt;Node1</title>
<path fill="none" stroke="#9a32cd" stroke-dasharray="5,2" d="M1081.38,-121.04C1072.28,-106.33 1057.83,-86.7 1040,-75.3 1008.76,-55.32 995.43,-62.24 959,-55.3 729.79,-11.62 646.55,41.97 434,-54.3 419.32,-60.94 406.59,-74.91 399.1,-84.44"/>
<polygon fill="#9a32cd" stroke="#9a32cd" points="1078.19,-122.53 1086.27,-129.39 1084.23,-118.99 1078.19,-122.53"/>
<text text-anchor="middle" x="734" y="-22.3" font-family="Helvetica,sans-Serif" font-size="10.00"> ContainerAtlas</text>
</g>
<!-- Node7 -->
<g id="node7" class="node">
<title>Node7</title>
<g id="a_node7"><a xlink:href="struct_im_vec2.html" target="_top" xlink:title=" ">
<polygon fill="white" stroke="#bfbfbf" points="416,-250.8 366,-250.8 366,-231.8 416,-231.8 416,-250.8"/>
<text text-anchor="middle" x="391" y="-238.8" font-family="Helvetica,sans-Serif" font-size="10.00">ImVec2</text>
</a>
</g>
</g>
<!-- Node7&#45;&gt;Node6 -->
<g id="edge7" class="edge">
<title>Node7&#45;&gt;Node6</title>
<path fill="none" stroke="#9a32cd" stroke-dasharray="5,2" d="M427.36,-250.33C429.59,-250.71 431.82,-251.04 434,-251.3 471.52,-255.7 481.22,-251.6 519,-251.3 714.57,-249.74 766.39,-278.23 959,-244.3 996.51,-237.69 1009.72,-239.4 1040,-216.3 1063.64,-198.26 1080.38,-166.31 1087.77,-150.19"/>
<polygon fill="#9a32cd" stroke="#9a32cd" points="428.24,-246.94 417.74,-248.39 426.85,-253.8 428.24,-246.94"/>
<text text-anchor="middle" x="734" y="-274.3" font-family="Helvetica,sans-Serif" font-size="10.00"> TexUvScale</text>
<text text-anchor="middle" x="734" y="-263.3" font-family="Helvetica,sans-Serif" font-size="10.00">TexUvWhitePixel</text>
</g>
<!-- Node7&#45;&gt;Node10 -->
<g id="edge12" class="edge">
<title>Node7&#45;&gt;Node10</title>
<path fill="none" stroke="#9a32cd" stroke-dasharray="5,2" d="M427.6,-237.67C457.54,-234.62 501.04,-230.18 536.59,-226.56"/>
<polygon fill="#9a32cd" stroke="#9a32cd" points="427.54,-234.16 417.95,-238.65 428.25,-241.12 427.54,-234.16"/>
<text text-anchor="middle" x="476.5" y="-239.3" font-family="Helvetica,sans-Serif" font-size="10.00"> GlyphOffset</text>
</g>
<!-- Node7&#45;&gt;Node12 -->
<g id="edge16" class="edge">
<title>Node7&#45;&gt;Node12</title>
<path fill="none" stroke="#9a32cd" stroke-dasharray="5,2" d="M408.07,-223.28C415.38,-215.94 424.52,-207.9 434,-202.3 468.25,-182.08 481.81,-188.39 519,-174.3 538.69,-166.83 560.65,-157.28 576.42,-150.2"/>
<polygon fill="#9a32cd" stroke="#9a32cd" points="405.78,-220.6 401.45,-230.27 410.86,-225.41 405.78,-220.6"/>
<text text-anchor="middle" x="476.5" y="-216.3" font-family="Helvetica,sans-Serif" font-size="10.00"> GlyphExtraSpacing</text>
<text text-anchor="middle" x="476.5" y="-205.3" font-family="Helvetica,sans-Serif" font-size="10.00">GlyphOffset</text>
</g>
<!-- Node8&#45;&gt;Node6 -->
<g id="edge8" class="edge">
<title>Node8&#45;&gt;Node6</title>
<path fill="none" stroke="#9a32cd" stroke-dasharray="5,2" d="M800.64,-59.05C845.79,-58.39 906.8,-60.59 959,-73.3 1005.47,-84.61 1054.24,-114.56 1077.71,-130.31"/>
<polygon fill="#9a32cd" stroke="#9a32cd" points="800.66,-55.55 790.74,-59.26 800.81,-62.55 800.66,-55.55"/>
<text text-anchor="middle" x="883" y="-76.3" font-family="Helvetica,sans-Serif" font-size="10.00"> Fonts</text>
</g>
<!-- Node9 -->
<g id="node9" class="node">
<title>Node9</title>
<g id="a_node9"><a xlink:href="struct_im_vector.html" target="_top" xlink:title=" ">
<polygon fill="white" stroke="#bfbfbf" points="959,-235.3 807,-235.3 807,-205.3 959,-205.3 959,-235.3"/>
<text text-anchor="start" x="815" y="-223.3" font-family="Helvetica,sans-Serif" font-size="10.00">ImVector&lt; ImFontAtlasCustom</text>
<text text-anchor="middle" x="883" y="-212.3" font-family="Helvetica,sans-Serif" font-size="10.00">Rect &gt;</text>
</a>
</g>
</g>
<!-- Node9&#45;&gt;Node6 -->
<g id="edge10" class="edge">
<title>Node9&#45;&gt;Node6</title>
<path fill="none" stroke="#9a32cd" stroke-dasharray="5,2" d="M970.41,-203.91C993.66,-197.82 1018.34,-189.76 1040,-179.3 1055.85,-171.64 1071.69,-158.83 1081.65,-149.99"/>
<polygon fill="#9a32cd" stroke="#9a32cd" points="969.81,-200.46 960.96,-206.29 971.51,-207.24 969.81,-200.46"/>
<text text-anchor="middle" x="1008.5" y="-204.3" font-family="Helvetica,sans-Serif" font-size="10.00"> CustomRects</text>
</g>
<!-- Node10&#45;&gt;Node9 -->
<g id="edge11" class="edge">
<title>Node10&#45;&gt;Node9</title>
<path fill="none" stroke="#9a32cd" stroke-dasharray="5,2" d="M672.5,-220.3C713.62,-220.3 765.02,-220.3 806.61,-220.3"/>
<polygon fill="#9a32cd" stroke="#9a32cd" points="672.7,-216.8 662.7,-220.3 672.7,-223.8 672.7,-216.8"/>
<text text-anchor="middle" x="734" y="-223.3" font-family="Helvetica,sans-Serif" font-size="10.00"> Data</text>
</g>
<!-- Node11 -->
<g id="node11" class="node">
<title>Node11</title>
<g id="a_node11"><a xlink:href="struct_im_vector.html" target="_top" xlink:title=" ">
<polygon fill="white" stroke="#bfbfbf" points="948.5,-186.8 817.5,-186.8 817.5,-167.8 948.5,-167.8 948.5,-186.8"/>
<text text-anchor="middle" x="883" y="-174.8" font-family="Helvetica,sans-Serif" font-size="10.00">ImVector&lt; ImFontConfig &gt;</text>
</a>
</g>
</g>
<!-- Node11&#45;&gt;Node6 -->
<g id="edge14" class="edge">
<title>Node11&#45;&gt;Node6</title>
<path fill="none" stroke="#9a32cd" stroke-dasharray="5,2" d="M959.94,-167.91C985.49,-164.27 1014.08,-159.68 1040,-154.3 1045.77,-153.1 1051.84,-151.64 1057.73,-150.13"/>
<polygon fill="#9a32cd" stroke="#9a32cd" points="959.73,-164.41 950.31,-169.25 960.7,-171.34 959.73,-164.41"/>
<text text-anchor="middle" x="1008.5" y="-167.3" font-family="Helvetica,sans-Serif" font-size="10.00"> ConfigData</text>
</g>
<!-- Node12&#45;&gt;Node1 -->
<g id="edge20" class="edge">
<title>Node12&#45;&gt;Node1</title>
<path fill="none" stroke="#9a32cd" stroke-dasharray="5,2" d="M577.13,-123.61C561.98,-112.62 540.46,-99.2 519,-93.3 483.71,-83.59 440.79,-86.89 414.97,-90.41"/>
<polygon fill="#9a32cd" stroke="#9a32cd" points="574.8,-126.24 584.89,-129.47 579.02,-120.65 574.8,-126.24"/>
<text text-anchor="middle" x="476.5" y="-96.3" font-family="Helvetica,sans-Serif" font-size="10.00"> ConfigData</text>
</g>
<!-- Node12&#45;&gt;Node11 -->
<g id="edge15" class="edge">
<title>Node12&#45;&gt;Node11</title>
<path fill="none" stroke="#9a32cd" stroke-dasharray="5,2" d="M647.56,-146.54C694.1,-152.64 765.33,-161.99 817.06,-168.78"/>
<polygon fill="#9a32cd" stroke="#9a32cd" points="648.16,-143.09 637.79,-145.25 647.25,-150.03 648.16,-143.09"/>
<text text-anchor="middle" x="734" y="-166.3" font-family="Helvetica,sans-Serif" font-size="10.00"> Data</text>
</g>
<!-- Node13 -->
<g id="node13" class="node">
<title>Node13</title>
<g id="a_node13"><a xlink:href="struct_im_vec4.html" target="_top" xlink:title=" ">
<polygon fill="white" stroke="#bfbfbf" points="908,-149.8 858,-149.8 858,-130.8 908,-130.8 908,-149.8"/>
<text text-anchor="middle" x="883" y="-137.8" font-family="Helvetica,sans-Serif" font-size="10.00">ImVec4</text>
</a>
</g>
</g>
<!-- Node13&#45;&gt;Node6 -->
<g id="edge18" class="edge">
<title>Node13&#45;&gt;Node6</title>
<path fill="none" stroke="#9a32cd" stroke-dasharray="5,2" d="M919.72,-140.3C958.32,-140.3 1019.43,-140.3 1057.54,-140.3"/>
<polygon fill="#9a32cd" stroke="#9a32cd" points="919.78,-136.8 909.78,-140.3 919.78,-143.8 919.78,-136.8"/>
<text text-anchor="middle" x="1008.5" y="-143.3" font-family="Helvetica,sans-Serif" font-size="10.00"> TexUvLines</text>
</g>
<!-- Node14 -->
<g id="node14" class="node">
<title>Node14</title>
<g id="a_node14"><a xlink:href="struct_im_font_builder_i_o.html" target="_top" xlink:title=" ">
<polygon fill="white" stroke="#bfbfbf" points="927,-112.8 839,-112.8 839,-93.8 927,-93.8 927,-112.8"/>
<text text-anchor="middle" x="883" y="-100.8" font-family="Helvetica,sans-Serif" font-size="10.00">ImFontBuilderIO</text>
</a>
</g>
</g>
<!-- Node14&#45;&gt;Node6 -->
<g id="edge19" class="edge">
<title>Node14&#45;&gt;Node6</title>
<path fill="none" stroke="#9a32cd" stroke-dasharray="5,2" d="M938.46,-109.07C968.57,-112.74 1006.56,-118.15 1040,-125.3 1046.52,-126.69 1053.43,-128.46 1060,-130.3"/>
<polygon fill="#9a32cd" stroke="#9a32cd" points="939.17,-105.63 928.83,-107.93 938.35,-112.58 939.17,-105.63"/>
<text text-anchor="middle" x="1008.5" y="-128.3" font-family="Helvetica,sans-Serif" font-size="10.00"> FontBuilderIO</text>
</g>
</g>
</svg>
