<?xml version="1.0" encoding="UTF-8" standalone="no"?>
<!DOCTYPE svg PUBLIC "-//W3C//DTD SVG 1.1//EN"
 "http://www.w3.org/Graphics/SVG/1.1/DTD/svg11.dtd">
<!-- Generated by graphviz version 7.0.5 (20221223.1930)
 -->
<!-- Title: ExampleAppConsole Pages: 1 -->
<svg width="375pt" height="258pt"
 viewBox="0.00 0.00 374.50 258.00" xmlns="http://www.w3.org/2000/svg" xmlns:xlink="http://www.w3.org/1999/xlink">
<g id="graph0" class="graph" transform="scale(1 1) rotate(0) translate(4 254)">
<title>ExampleAppConsole</title>
<!-- Node1 -->
<g id="node1" class="node">
<title>Node1</title>
<g id="a_node1"><a xlink:title=" ">
<polygon fill="#999999" stroke="#666666" points="231,-19 125,-19 125,0 231,0 231,-19"/>
<text text-anchor="middle" x="178" y="-7" font-family="Helvetica,sans-Serif" font-size="10.00">ExampleAppConsole</text>
</a>
</g>
</g>
<!-- Node2 -->
<g id="node2" class="node">
<title>Node2</title>
<g id="a_node2"><a xlink:href="struct_im_vector.html" target="_top" xlink:title=" ">
<polygon fill="white" stroke="#bfbfbf" points="98,-96 0,-96 0,-77 98,-77 98,-96"/>
<text text-anchor="middle" x="49" y="-84" font-family="Helvetica,sans-Serif" font-size="10.00">ImVector&lt; char * &gt;</text>
</a>
</g>
</g>
<!-- Node2&#45;&gt;Node1 -->
<g id="edge1" class="edge">
<title>Node2&#45;&gt;Node1</title>
<path fill="none" stroke="#9a32cd" stroke-dasharray="5,2" d="M73.94,-71C100.23,-55.71 140.81,-32.12 162.72,-19.39"/>
<polygon fill="#9a32cd" stroke="#9a32cd" points="72.5,-67.79 65.61,-75.84 76.02,-73.84 72.5,-67.79"/>
<text text-anchor="middle" x="146" y="-51" font-family="Helvetica,sans-Serif" font-size="10.00"> History</text>
<text text-anchor="middle" x="146" y="-40" font-family="Helvetica,sans-Serif" font-size="10.00">Items</text>
</g>
<!-- Node3 -->
<g id="node3" class="node">
<title>Node3</title>
<g id="a_node3"><a xlink:href="struct_im_vector.html" target="_top" xlink:title=" ">
<polygon fill="white" stroke="#bfbfbf" points="240,-96 116,-96 116,-77 240,-77 240,-96"/>
<text text-anchor="middle" x="178" y="-84" font-family="Helvetica,sans-Serif" font-size="10.00">ImVector&lt; const char * &gt;</text>
</a>
</g>
</g>
<!-- Node3&#45;&gt;Node1 -->
<g id="edge2" class="edge">
<title>Node3&#45;&gt;Node1</title>
<path fill="none" stroke="#9a32cd" stroke-dasharray="5,2" d="M178,-65.42C178,-50.43 178,-30.66 178,-19.39"/>
<polygon fill="#9a32cd" stroke="#9a32cd" points="174.5,-65.09 178,-75.09 181.5,-65.09 174.5,-65.09"/>
<text text-anchor="middle" x="204" y="-45.5" font-family="Helvetica,sans-Serif" font-size="10.00"> Commands</text>
</g>
<!-- Node4 -->
<g id="node4" class="node">
<title>Node4</title>
<g id="a_node4"><a xlink:href="struct_im_gui_text_filter.html" target="_top" xlink:title=" ">
<polygon fill="white" stroke="#bfbfbf" points="341.5,-96 258.5,-96 258.5,-77 341.5,-77 341.5,-96"/>
<text text-anchor="middle" x="300" y="-84" font-family="Helvetica,sans-Serif" font-size="10.00">ImGuiTextFilter</text>
</a>
</g>
</g>
<!-- Node4&#45;&gt;Node1 -->
<g id="edge3" class="edge">
<title>Node4&#45;&gt;Node1</title>
<path fill="none" stroke="#9a32cd" stroke-dasharray="5,2" d="M280.43,-69.58C267.65,-59.57 250.35,-46.75 234,-37 222.92,-30.39 209.92,-24.15 199.24,-19.39"/>
<polygon fill="#9a32cd" stroke="#9a32cd" points="278.05,-72.15 288.05,-75.64 282.41,-66.68 278.05,-72.15"/>
<text text-anchor="middle" x="277.5" y="-45.5" font-family="Helvetica,sans-Serif" font-size="10.00"> Filter</text>
</g>
<!-- Node5 -->
<g id="node5" class="node">
<title>Node5</title>
<g id="a_node5"><a xlink:href="struct_im_vector.html" target="_top" xlink:title=" ">
<polygon fill="white" stroke="#bfbfbf" points="365.5,-173 234.5,-173 234.5,-143 365.5,-143 365.5,-173"/>
<text text-anchor="start" x="242.5" y="-161" font-family="Helvetica,sans-Serif" font-size="10.00">ImVector&lt; ImGuiTextFilter</text>
<text text-anchor="middle" x="300" y="-150" font-family="Helvetica,sans-Serif" font-size="10.00">::ImGuiTextRange &gt;</text>
</a>
</g>
</g>
<!-- Node5&#45;&gt;Node4 -->
<g id="edge4" class="edge">
<title>Node5&#45;&gt;Node4</title>
<path fill="none" stroke="#9a32cd" stroke-dasharray="5,2" d="M300,-131.46C300,-119.07 300,-104.99 300,-96.18"/>
<polygon fill="#9a32cd" stroke="#9a32cd" points="296.5,-131.09 300,-141.09 303.5,-131.09 296.5,-131.09"/>
<text text-anchor="middle" x="315" y="-117" font-family="Helvetica,sans-Serif" font-size="10.00"> Filters</text>
</g>
<!-- Node6 -->
<g id="node6" class="node">
<title>Node6</title>
<g id="a_node6"><a xlink:href="struct_im_gui_text_filter_1_1_im_gui_text_range.html" target="_top" xlink:title=" ">
<polygon fill="white" stroke="#bfbfbf" points="366.5,-250 233.5,-250 233.5,-220 366.5,-220 366.5,-250"/>
<text text-anchor="start" x="241.5" y="-238" font-family="Helvetica,sans-Serif" font-size="10.00">ImGuiTextFilter::ImGuiText</text>
<text text-anchor="middle" x="300" y="-227" font-family="Helvetica,sans-Serif" font-size="10.00">Range</text>
</a>
</g>
</g>
<!-- Node6&#45;&gt;Node5 -->
<g id="edge5" class="edge">
<title>Node6&#45;&gt;Node5</title>
<path fill="none" stroke="#9a32cd" stroke-dasharray="5,2" d="M300,-208.23C300,-196.58 300,-183.26 300,-173.42"/>
<polygon fill="#9a32cd" stroke="#9a32cd" points="296.5,-208.03 300,-218.03 303.5,-208.03 296.5,-208.03"/>
<text text-anchor="middle" x="311.5" y="-194" font-family="Helvetica,sans-Serif" font-size="10.00"> Data</text>
</g>
</g>
</svg>
