<?xml version="1.0" encoding="UTF-8" standalone="no"?>
<!DOCTYPE svg PUBLIC "-//W3C//DTD SVG 1.1//EN"
 "http://www.w3.org/Graphics/SVG/1.1/DTD/svg11.dtd">
<!-- Generated by graphviz version 7.0.5 (20221223.1930)
 -->
<!-- Title: ImFontBuildSrcData Pages: 1 -->
<svg width="517pt" height="280pt"
 viewBox="0.00 0.00 517.00 279.50" xmlns="http://www.w3.org/2000/svg" xmlns:xlink="http://www.w3.org/1999/xlink">
<g id="graph0" class="graph" transform="scale(1 1) rotate(0) translate(4 275.5)">
<title>ImFontBuildSrcData</title>
<!-- Node1 -->
<g id="node1" class="node">
<title>Node1</title>
<g id="a_node1"><a xlink:title=" ">
<polygon fill="#999999" stroke="#666666" points="509,-111 405,-111 405,-92 509,-92 509,-111"/>
<text text-anchor="middle" x="457" y="-99" font-family="Helvetica,sans-Serif" font-size="10.00">ImFontBuildSrcData</text>
</a>
</g>
</g>
<!-- Node2 -->
<g id="node2" class="node">
<title>Node2</title>
<g id="a_node2"><a xlink:href="structstbtt__fontinfo.html" target="_top" xlink:title=" ">
<polygon fill="white" stroke="#bfbfbf" points="307,-215 233,-215 233,-196 307,-196 307,-215"/>
<text text-anchor="middle" x="270" y="-203" font-family="Helvetica,sans-Serif" font-size="10.00">stbtt_fontinfo</text>
</a>
</g>
</g>
<!-- Node2&#45;&gt;Node1 -->
<g id="edge1" class="edge">
<title>Node2&#45;&gt;Node1</title>
<path fill="none" stroke="#9a32cd" stroke-dasharray="5,2" d="M318.53,-202.15C340.56,-198.93 366.37,-192.66 387,-180.5 416.65,-163.02 440.13,-128.29 450.39,-111.31"/>
<polygon fill="#9a32cd" stroke="#9a32cd" points="318.37,-198.64 308.9,-203.38 319.26,-205.59 318.37,-198.64"/>
<text text-anchor="middle" x="360.5" y="-201.5" font-family="Helvetica,sans-Serif" font-size="10.00"> FontInfo</text>
</g>
<!-- Node3 -->
<g id="node3" class="node">
<title>Node3</title>
<g id="a_node3"><a xlink:href="structstbtt____buf.html" target="_top" xlink:title=" ">
<polygon fill="white" stroke="#bfbfbf" points="81,-215 21,-215 21,-196 81,-196 81,-215"/>
<text text-anchor="middle" x="51" y="-203" font-family="Helvetica,sans-Serif" font-size="10.00">stbtt__buf</text>
</a>
</g>
</g>
<!-- Node3&#45;&gt;Node2 -->
<g id="edge2" class="edge">
<title>Node3&#45;&gt;Node2</title>
<path fill="none" stroke="#9a32cd" stroke-dasharray="5,2" d="M92.53,-205.5C132.77,-205.5 193.89,-205.5 232.62,-205.5"/>
<polygon fill="#9a32cd" stroke="#9a32cd" points="92.78,-202 82.78,-205.5 92.78,-209 92.78,-202"/>
<text text-anchor="middle" x="163" y="-263.5" font-family="Helvetica,sans-Serif" font-size="10.00"> cff</text>
<text text-anchor="middle" x="163" y="-252.5" font-family="Helvetica,sans-Serif" font-size="10.00">charstrings</text>
<text text-anchor="middle" x="163" y="-241.5" font-family="Helvetica,sans-Serif" font-size="10.00">fdselect</text>
<text text-anchor="middle" x="163" y="-230.5" font-family="Helvetica,sans-Serif" font-size="10.00">fontdicts</text>
<text text-anchor="middle" x="163" y="-219.5" font-family="Helvetica,sans-Serif" font-size="10.00">gsubrs</text>
<text text-anchor="middle" x="163" y="-208.5" font-family="Helvetica,sans-Serif" font-size="10.00">subrs</text>
</g>
<!-- Node4 -->
<g id="node4" class="node">
<title>Node4</title>
<g id="a_node4"><a xlink:href="structstbtt__pack__range.html" target="_top" xlink:title=" ">
<polygon fill="white" stroke="#bfbfbf" points="316,-130 224,-130 224,-111 316,-111 316,-130"/>
<text text-anchor="middle" x="270" y="-118" font-family="Helvetica,sans-Serif" font-size="10.00">stbtt_pack_range</text>
</a>
</g>
</g>
<!-- Node4&#45;&gt;Node1 -->
<g id="edge3" class="edge">
<title>Node4&#45;&gt;Node1</title>
<path fill="none" stroke="#9a32cd" stroke-dasharray="5,2" d="M327.59,-114.69C352.16,-112.16 380.74,-109.23 404.68,-106.77"/>
<polygon fill="#9a32cd" stroke="#9a32cd" points="327.35,-111.19 317.76,-115.7 328.07,-118.16 327.35,-111.19"/>
<text text-anchor="middle" x="360.5" y="-116.5" font-family="Helvetica,sans-Serif" font-size="10.00"> PackRange</text>
</g>
<!-- Node5 -->
<g id="node5" class="node">
<title>Node5</title>
<g id="a_node5"><a xlink:href="structstbtt__packedchar.html" target="_top" xlink:title=" ">
<polygon fill="white" stroke="#bfbfbf" points="97,-158 5,-158 5,-139 97,-139 97,-158"/>
<text text-anchor="middle" x="51" y="-146" font-family="Helvetica,sans-Serif" font-size="10.00">stbtt_packedchar</text>
</a>
</g>
</g>
<!-- Node5&#45;&gt;Node1 -->
<g id="edge6" class="edge">
<title>Node5&#45;&gt;Node1</title>
<path fill="none" stroke="#9a32cd" stroke-dasharray="5,2" d="M108.76,-152.09C112.56,-152.25 116.34,-152.39 120,-152.5 239.09,-156 271.96,-159.52 387,-128.5 403.27,-124.11 420.96,-117.15 434.35,-111.39"/>
<polygon fill="#9a32cd" stroke="#9a32cd" points="109.01,-148.6 98.85,-151.61 108.67,-155.59 109.01,-148.6"/>
<text text-anchor="middle" x="270" y="-157.5" font-family="Helvetica,sans-Serif" font-size="10.00"> PackedChars</text>
</g>
<!-- Node5&#45;&gt;Node4 -->
<g id="edge4" class="edge">
<title>Node5&#45;&gt;Node4</title>
<path fill="none" stroke="#9a32cd" stroke-dasharray="5,2" d="M108.74,-141.18C144.54,-136.56 190.17,-130.67 223.57,-126.36"/>
<polygon fill="#9a32cd" stroke="#9a32cd" points="108.46,-137.69 98.99,-142.44 109.36,-144.63 108.46,-137.69"/>
<text text-anchor="middle" x="163" y="-141.5" font-family="Helvetica,sans-Serif" font-size="10.00"> chardata_for_range</text>
</g>
<!-- Node6 -->
<g id="node6" class="node">
<title>Node6</title>
<g id="a_node6"><a xlink:href="structstbrp__rect.html" target="_top" xlink:title=" ">
<polygon fill="white" stroke="#bfbfbf" points="300,-93 240,-93 240,-74 300,-74 300,-93"/>
<text text-anchor="middle" x="270" y="-81" font-family="Helvetica,sans-Serif" font-size="10.00">stbrp_rect</text>
</a>
</g>
</g>
<!-- Node6&#45;&gt;Node1 -->
<g id="edge5" class="edge">
<title>Node6&#45;&gt;Node1</title>
<path fill="none" stroke="#9a32cd" stroke-dasharray="5,2" d="M311.61,-82.69C333.93,-82.71 362.08,-83.5 387,-86.5 396.61,-87.66 406.87,-89.53 416.45,-91.57"/>
<polygon fill="#9a32cd" stroke="#9a32cd" points="311.69,-79.19 301.7,-82.73 311.72,-86.18 311.69,-79.19"/>
<text text-anchor="middle" x="360.5" y="-89.5" font-family="Helvetica,sans-Serif" font-size="10.00"> Rects</text>
</g>
<!-- Node7 -->
<g id="node7" class="node">
<title>Node7</title>
<g id="a_node7"><a xlink:href="struct_im_bit_vector.html" target="_top" xlink:title=" ">
<polygon fill="white" stroke="#bfbfbf" points="304,-56 236,-56 236,-37 304,-37 304,-56"/>
<text text-anchor="middle" x="270" y="-44" font-family="Helvetica,sans-Serif" font-size="10.00">ImBitVector</text>
</a>
</g>
</g>
<!-- Node7&#45;&gt;Node1 -->
<g id="edge7" class="edge">
<title>Node7&#45;&gt;Node1</title>
<path fill="none" stroke="#9a32cd" stroke-dasharray="5,2" d="M315.65,-51.62C337.52,-54.86 364.02,-59.92 387,-67.5 405.64,-73.65 425.63,-83.95 439.27,-91.6"/>
<polygon fill="#9a32cd" stroke="#9a32cd" points="316.25,-48.16 305.86,-50.24 315.28,-55.1 316.25,-48.16"/>
<text text-anchor="middle" x="360.5" y="-70.5" font-family="Helvetica,sans-Serif" font-size="10.00"> GlyphsSet</text>
</g>
<!-- Node8 -->
<g id="node8" class="node">
<title>Node8</title>
<g id="a_node8"><a xlink:href="struct_im_vector.html" target="_top" xlink:title=" ">
<polygon fill="white" stroke="#bfbfbf" points="102,-56 0,-56 0,-37 102,-37 102,-56"/>
<text text-anchor="middle" x="51" y="-44" font-family="Helvetica,sans-Serif" font-size="10.00">ImVector&lt; ImU32 &gt;</text>
</a>
</g>
</g>
<!-- Node8&#45;&gt;Node7 -->
<g id="edge8" class="edge">
<title>Node8&#45;&gt;Node7</title>
<path fill="none" stroke="#9a32cd" stroke-dasharray="5,2" d="M113.75,-46.5C153.44,-46.5 203.44,-46.5 235.81,-46.5"/>
<polygon fill="#9a32cd" stroke="#9a32cd" points="113.84,-43 103.84,-46.5 113.84,-50 113.84,-43"/>
<text text-anchor="middle" x="163" y="-49.5" font-family="Helvetica,sans-Serif" font-size="10.00"> Storage</text>
</g>
<!-- Node9 -->
<g id="node9" class="node">
<title>Node9</title>
<g id="a_node9"><a xlink:href="struct_im_vector.html" target="_top" xlink:title=" ">
<polygon fill="white" stroke="#bfbfbf" points="311.5,-19 228.5,-19 228.5,0 311.5,0 311.5,-19"/>
<text text-anchor="middle" x="270" y="-7" font-family="Helvetica,sans-Serif" font-size="10.00">ImVector&lt; int &gt;</text>
</a>
</g>
</g>
<!-- Node9&#45;&gt;Node1 -->
<g id="edge9" class="edge">
<title>Node9&#45;&gt;Node1</title>
<path fill="none" stroke="#9a32cd" stroke-dasharray="5,2" d="M323.12,-17.44C343.84,-21.99 367.36,-28.96 387,-39.5 412.26,-53.06 435.75,-77.73 447.72,-91.52"/>
<polygon fill="#9a32cd" stroke="#9a32cd" points="323.93,-14.03 313.43,-15.46 322.53,-20.89 323.93,-14.03"/>
<text text-anchor="middle" x="360.5" y="-42.5" font-family="Helvetica,sans-Serif" font-size="10.00"> GlyphsList</text>
</g>
</g>
</svg>
